<?xml version="1.0" standalone="no"?>
<!DOCTYPE svg PUBLIC "-//W3C//DTD SVG 1.1//EN" "http://www.w3.org/Graphics/SVG/1.1/DTD/svg11.dtd" >
<svg xmlns="http://www.w3.org/2000/svg" xmlns:xlink="http://www.w3.org/1999/xlink" version="1.1">
<metadata>
Created by FontForge 20170731 at Thu Sep 26 08:56:57 2019
 By Aleksey,,,
Copyright 2019 Google LLC. All rights reserved.
</metadata>
<defs>
<font id="NotoSansGeorgian-CondensedSemiBold" horiz-adv-x="532" >
  <font-face 
    font-family="Noto Sans Georgian Cond SemBd"
    font-weight="600"
    font-stretch="condensed"
    units-per-em="1000"
    panose-1="2 11 7 6 4 5 4 2 2 4"
    ascent="800"
    descent="-200"
    bbox="-160 -250 936 1065"
    underline-thickness="50"
    underline-position="-175"
    unicode-range="U+000D-2D2D"
  />
<missing-glyph horiz-adv-x="364" 
d="M33 0v666h265v-666h-265zM66 33h199v600h-199v-600z" />
    <glyph glyph-name=".notdef" horiz-adv-x="364" 
d="M33 0v666h265v-666h-265zM66 33h199v600h-199v-600z" />
    <glyph glyph-name=".null" horiz-adv-x="0" 
 />
    <glyph glyph-name="nonmarkingreturn" horiz-adv-x="333" 
 />
    <glyph glyph-name="NULL" horiz-adv-x="0" 
 />
    <glyph glyph-name="NULL" horiz-adv-x="0" 
 />
    <glyph glyph-name="CR" unicode="&#xd;" horiz-adv-x="211" 
 />
    <glyph glyph-name="space" unicode=" " horiz-adv-x="211" 
 />
    <glyph glyph-name="hyphen" unicode="-" horiz-adv-x="302" 
d="M29 215v107h243v-107h-243z" />
    <glyph glyph-name="uni00A0" unicode="&#xa0;" horiz-adv-x="211" 
 />
    <glyph glyph-name="acutecomb" unicode="&#x301;" horiz-adv-x="0" 
d="M113 766v-9q-14 -20 -40 -48t-54.5 -56t-51.5 -47h-79v12q26 37 50 75.5t41 72.5h134z" />
    <glyph glyph-name="uni0302" unicode="&#x302;" horiz-adv-x="0" 
d="M57 766q18 -33 47.5 -74t55.5 -74v-12h-71q-44 34 -89 86q-24 -26 -47 -48.5t-42 -37.5h-71v12q17 21 36.5 47.5t37.5 53t29 47.5h114z" />
    <glyph glyph-name="uni0304" unicode="&#x304;" horiz-adv-x="0" 
d="M140 708v-85h-280v85h280z" />
    <glyph glyph-name="uni0308" unicode="&#x308;" horiz-adv-x="0" 
d="M-146 668q0 30 16 45t40 15t40 -15t16 -45t-16 -45t-40 -15t-40 15t-16 45zM34 668q0 30 16 45t40 15q25 0 41 -15t16 -45t-16 -45t-41 -15q-24 0 -40 15t-16 45z" />
    <glyph glyph-name="uni0589" unicode="&#x589;" horiz-adv-x="253" 
d="M57 478q0 36 18.5 54.5t52.5 18.5q32 0 50 -18t18 -55q0 -36 -18.5 -54.5t-49.5 -18.5q-33 0 -52 18.5t-19 54.5zM57 63q0 73 71 73q32 0 50 -18.5t18 -54.5t-18 -54.5t-50 -18.5q-34 0 -52.5 18.5t-18.5 54.5z" />
    <glyph glyph-name="uni10A0" unicode="&#x10a0;" horiz-adv-x="514" 
d="M326 -10q-87 0 -149 41.5t-95 117.5t-33 179q0 99 36.5 172.5t94.5 108.5v4h-112v101h407v-104h-97q-65 0 -110.5 -34.5t-69.5 -95.5t-24 -142q0 -119 43.5 -181.5t124.5 -62.5q36 0 69 10t64 25v-107q-63 -32 -149 -32z" />
    <glyph glyph-name="uni10A1" unicode="&#x10a1;" horiz-adv-x="692" 
d="M400 0v192q0 27 1.5 58.5t4.5 63.5h-6q-48 -102 -160 -102q-91 0 -143.5 68.5t-52.5 188.5q0 69 14.5 130.5t39.5 114.5h125q-26 -49 -40.5 -110t-14.5 -133q0 -160 108 -160q58 0 91 48t33 155v200h119v-610h166v-104h-285z" />
    <glyph glyph-name="uni10A2" unicode="&#x10a2;" horiz-adv-x="652" 
d="M361 0v610h-179v-226h-119v330h417v-610h165v-104h-284z" />
    <glyph glyph-name="uni10A3" unicode="&#x10a3;" horiz-adv-x="634" 
d="M317 -10q-87 0 -146.5 35.5t-90.5 99.5t-31 148q0 115 57 187t155 86v64h-193v104h499v-104h-193v-64q99 -13 155.5 -85.5t56.5 -188.5q0 -84 -31 -147.5t-91 -99t-147 -35.5zM317 94q71 0 108 45.5t37 132.5t-37.5 132t-105.5 45q-69 0 -107.5 -45t-38.5 -132
q0 -86 37 -132t107 -46z" />
    <glyph glyph-name="uni10A4" unicode="&#x10a4;" horiz-adv-x="555" 
d="M361 0v610h-179v-226h-119v330h417v-714h-119z" />
    <glyph glyph-name="uni10A5" unicode="&#x10a5;" horiz-adv-x="727" 
d="M364 0v610h-182v-226h-119v330h421v-291h208v-236h-107v137h-101v-324h-120z" />
    <glyph glyph-name="uni10A6" unicode="&#x10a6;" horiz-adv-x="657" 
d="M382 -10q-111 0 -167.5 75t-56.5 202v344h-158v103h278v-141q0 -27 -1.5 -58t-4.5 -59h6q24 47 58.5 70.5t84.5 23.5q94 0 143.5 -75.5t49.5 -203.5q0 -130 -59 -205.5t-173 -75.5zM382 94q107 0 107 176t-104 176q-55 0 -81.5 -46.5t-26.5 -131.5q0 -86 25 -130t80 -44z
" />
    <glyph glyph-name="uni10A7" unicode="&#x10a7;" horiz-adv-x="773" 
d="M530 423h208v-236h-107v137h-101v-324h-175q-145 0 -225.5 91t-80.5 263q0 174 82 267t228 93h171v-291zM411 103v508h-52q-186 0 -186 -254t182 -254h56z" />
    <glyph glyph-name="uni10A8" unicode="&#x10a8;" horiz-adv-x="425" 
d="M231 0v611h-231v103h350v-714h-119z" />
    <glyph glyph-name="uni10A9" unicode="&#x10a9;" horiz-adv-x="590" 
d="M406 0v83q0 26 1 54t2 55h-5q-24 -48 -60 -70.5t-86 -22.5q-94 0 -142.5 69t-48.5 189v357h119v-76q0 -26 -0.5 -52.5t-3.5 -51.5h5q50 93 148 93q94 0 141.5 -70t47.5 -187v-370h-118zM295 199q52 0 81 41.5t29 122.5q0 164 -108 164q-54 0 -82 -42.5t-28 -122.5
q0 -163 108 -163z" />
    <glyph glyph-name="uni10AA" unicode="&#x10aa;" horiz-adv-x="829" 
d="M554 -10q-112 0 -168 75t-56 202v343h-148v-226h-119v330h387v-145q0 -24 -2 -53.5t-4 -59.5h6q24 47 59 70.5t84 23.5q94 0 143.5 -75.5t49.5 -203.5q0 -130 -59.5 -205.5t-172.5 -75.5zM555 94q107 0 107 176t-105 176q-54 0 -80.5 -46.5t-26.5 -131.5q0 -86 24.5 -130
t80.5 -44z" />
    <glyph glyph-name="uni10AB" unicode="&#x10ab;" horiz-adv-x="650" 
d="M274 -10q-105 0 -165 65.5t-60 177.5q0 125 64 181.5t170 56.5h94v140h-284v103h403v-243h119v-98h-119v-131q0 -116 -56.5 -184t-165.5 -68zM273 92q53 0 78 39.5t25 110.5v131h-93q-51 0 -80.5 -31t-29.5 -107q0 -68 25.5 -105.5t74.5 -37.5z" />
    <glyph glyph-name="uni10AC" unicode="&#x10ac;" horiz-adv-x="610" 
d="M72 0v714h443v-103h-323v-123q0 -18 -1.5 -45t-3.5 -55h3q24 44 63 69t99 25q90 0 139 -63t49 -182v-237h-120v227q0 81 -26 119.5t-81 38.5q-60 0 -90.5 -43.5t-30.5 -141.5v-200h-120z" />
    <glyph glyph-name="uni10AD" unicode="&#x10ad;" horiz-adv-x="740" 
d="M321 -10q-94 0 -154 47t-89 130t-29 192q0 176 68 270.5t204 94.5q93 0 152.5 -46t88.5 -128.5t29 -191.5q0 -80 -15.5 -147t-47.5 -115q22 -16 44 -16q26 0 39 21t13 55h109q0 -78 -32 -122t-105 -44q-35 0 -64.5 14.5t-52.5 35.5q-31 -24 -70 -37t-88 -13zM320 96
q74 0 109.5 66t35.5 196q0 129 -35 195.5t-109 66.5q-75 0 -110.5 -67t-35.5 -195t36 -195t109 -67z" />
    <glyph glyph-name="uni10AE" unicode="&#x10ae;" horiz-adv-x="698" 
d="M392 -10q-112 0 -173 62t-61 185v374h-158v103h278v-468q0 -81 29 -116.5t86 -35.5t86.5 34.5t29.5 117.5v468h119v-475q0 -127 -63.5 -188t-172.5 -61z" />
    <glyph glyph-name="uni10AF" unicode="&#x10af;" horiz-adv-x="633" 
d="M438 0v186q0 30 1.5 62.5t4.5 63.5h-4q-24 -48 -64 -74t-97 -26q-59 0 -103 29t-68 80.5t-24 117.5q0 53 18 95.5t49 72.5v4h-146v103h280v-98q-44 -26 -60.5 -67.5t-16.5 -87.5q0 -72 27 -111.5t80 -39.5q58 0 90.5 46.5t32.5 147.5v210h120v-714h-120z" />
    <glyph glyph-name="uni10B0" unicode="&#x10b0;" horiz-adv-x="813" 
d="M273 -10q-73 0 -124 32.5t-78 86.5t-27 121q0 96 54 175l104 -39q-15 -30 -23.5 -65t-8.5 -69q0 -59 26 -98.5t74 -39.5q101 0 101 163v457h120v-133q0 -19 -1 -46.5t-4 -56.5h4q22 40 55 57.5t74 17.5q51 0 86.5 -26.5t54 -67.5t18.5 -85q0 -84 -44 -145l-106 31
q14 23 20 47.5t6 47.5q0 43 -20.5 71.5t-59.5 28.5q-35 0 -59 -27t-24 -84v-97q0 -122 -55.5 -189.5t-162.5 -67.5z" />
    <glyph glyph-name="uni10B1" unicode="&#x10b1;" horiz-adv-x="557" 
d="M290 -10q-107 0 -165 67.5t-58 189.5v467h120v-457q0 -163 102 -163q49 0 74 39.5t25 98.5q0 35 -8 69.5t-24 64.5l101 39q29 -40 42.5 -85t13.5 -91q0 -65 -26 -119.5t-75.5 -87t-121.5 -32.5z" />
    <glyph glyph-name="uni10B2" unicode="&#x10b2;" horiz-adv-x="529" 
d="M72 0v714h182q226 0 226 -216q0 -111 -58.5 -173t-175.5 -62h-54v-160h263v-103h-383zM191 364h46q61 0 91.5 31.5t30.5 101.5q0 60 -28.5 88t-86.5 28h-53v-249z" />
    <glyph glyph-name="uni10B3" unicode="&#x10b3;" horiz-adv-x="648" 
d="M488 -175q-26 0 -54 8v87q19 -4 38 -4q24 0 38 16t14 44q0 24 -11 42t-27 31q-65 -59 -164 -59q-92 0 -152.5 45.5t-90.5 128.5t-30 195q0 178 70.5 271.5t203.5 93.5q135 0 203 -96.5t68 -269.5q0 -70 -12.5 -131.5t-38.5 -109.5q33 -21 60.5 -58t27.5 -92
q0 -65 -37 -103.5t-106 -38.5zM322 94q148 0 148 264q0 263 -147 263q-75 0 -112 -67t-37 -196t37.5 -196.5t110.5 -67.5z" />
    <glyph glyph-name="uni10B4" unicode="&#x10b4;" horiz-adv-x="729" 
d="M309 0v169q-77 2 -135.5 34.5t-91.5 93.5t-33 149q0 94 40.5 155.5t112 92t164.5 30.5q145 0 230 -68t85 -208q0 -89 -33.5 -150t-92 -93.5t-134.5 -35.5v-169h-112zM309 267v358q-62 -3 -102 -46.5t-40 -131.5q0 -89 39 -133t103 -47zM421 267q64 3 103 47.5t39 133.5
q0 88 -40 131t-102 46v-358z" />
    <glyph glyph-name="uni10B5" unicode="&#x10b5;" horiz-adv-x="542" 
d="M206 0v372h-167v99h167v243h120v-243h167v-99h-167v-372h-120z" />
    <glyph glyph-name="uni10B6" unicode="&#x10b6;" horiz-adv-x="607" 
d="M67 0v476q0 126 64 187t173 61q112 0 172.5 -62.5t60.5 -184.5v-477h-119v468q0 81 -29 116.5t-87 35.5q-56 0 -85.5 -34.5t-29.5 -118.5v-467h-120z" />
    <glyph glyph-name="uni10B7" unicode="&#x10b7;" horiz-adv-x="594" 
d="M400 0v192q0 27 1.5 58.5t4.5 63.5h-6q-48 -102 -160 -102q-91 0 -143.5 68.5t-52.5 188.5q0 69 14.5 130.5t39.5 114.5h125q-26 -49 -40.5 -110t-14.5 -133q0 -160 108 -160q58 0 91 48t33 155v200h119v-714h-119z" />
    <glyph glyph-name="uni10B8" unicode="&#x10b8;" horiz-adv-x="606" 
d="M303 -10q-68 0 -119.5 25t-80 68.5t-28.5 97.5q0 24 5.5 48t18.5 48l109 -32q-9 -26 -9 -53q0 -43 26.5 -71t76.5 -28q54 0 81.5 38.5t27.5 107.5v72q0 25 1.5 54t4.5 56h-5q-25 -44 -62.5 -69t-93.5 -25q-92 0 -140.5 62t-48.5 185v140h120v-132q0 -81 26.5 -119.5
t80.5 -38.5q56 0 86.5 44t30.5 139v107h120v-472q0 -122 -58.5 -187t-169.5 -65z" />
    <glyph glyph-name="uni10B9" unicode="&#x10b9;" horiz-adv-x="582" 
d="M74 0v714h120v-257h323v-457h-120v359h-203v-359h-120z" />
    <glyph glyph-name="uni10BA" unicode="&#x10ba;" horiz-adv-x="598" 
d="M297 -10q-118 0 -183 97.5t-65 270.5q0 112 35 194.5t101.5 127t161.5 44.5q48 0 92.5 -11t82.5 -31l-37 -98q-31 18 -65.5 27.5t-71.5 9.5q-83 0 -129 -70t-46 -194q0 -127 38 -195t108 -69q33 0 59.5 9.5t47.5 25.5v172h118v-300h-118v31q-26 -19 -57.5 -30t-71.5 -11z
" />
    <glyph glyph-name="uni10BB" unicode="&#x10bb;" horiz-adv-x="780" 
d="M270 -10q-68 0 -117.5 30t-76.5 85t-27 129q0 113 62 175.5t168 62.5h87v242h119v-242h231v-472h-107v373h-124v-138q0 -115 -56 -180t-159 -65zM269 94q48 0 72 36.5t24 105.5v137h-83q-54 0 -82 -36t-28 -102q0 -65 25.5 -103t71.5 -38z" />
    <glyph glyph-name="uni10BC" unicode="&#x10bc;" horiz-adv-x="517" 
d="M75 0v714h181q226 0 226 -205q0 -99 -58 -158.5t-176 -59.5h-54v-64h216v-178h-107v79h-109v-128h-119zM193 393h44q124 0 124 114q0 56 -28.5 81t-86.5 25h-53v-220z" />
    <glyph glyph-name="uni10BD" unicode="&#x10bd;" horiz-adv-x="498" 
d="M246 -10q-98 0 -151 49.5t-53 136.5q0 16 1.5 31t4.5 27h117q-6 -23 -6 -54q0 -42 22.5 -66.5t66.5 -24.5q40 0 63 23.5t23 67.5q0 35 -16.5 59t-43.5 43t-58 37q-43 26 -79 54t-57.5 66t-21.5 95q0 88 51.5 139t140.5 51t138.5 -48t49.5 -132q0 -14 -1 -24h-118
q3 11 3 22q0 38 -18 60t-54 22q-37 0 -55 -23t-18 -62q0 -33 14.5 -54.5t41.5 -40t66 -40.5q42 -25 77 -53t56 -67.5t21 -99.5q0 -92 -53.5 -143t-153.5 -51z" />
    <glyph glyph-name="uni10BE" unicode="&#x10be;" horiz-adv-x="590" 
d="M72 714h120v-339h203v339h120v-437h-323v-174h309v-103h-429v714z" />
    <glyph glyph-name="uni10BF" unicode="&#x10bf;" horiz-adv-x="569" 
d="M26 0l195 365l-125 247h-79v102h491v-82l-138 -269l192 -363h-130l-137 275l-137 -275h-132zM297 444l83 170h-165z" />
    <glyph glyph-name="uni10C0" unicode="&#x10c0;" horiz-adv-x="820" 
d="M551 -10q-106 0 -163.5 67.5t-57.5 189.5v364h-148v-227h-119v330h387v-457q0 -163 102 -163q49 0 74 39.5t25 98.5q0 35 -8 69.5t-24 64.5l102 39q28 -40 42 -85t14 -91q0 -65 -26.5 -119.5t-77 -87t-122.5 -32.5z" />
    <glyph glyph-name="uni10C1" unicode="&#x10c1;" horiz-adv-x="618" 
d="M75 0v714h119v-146q0 -23 -1.5 -50t-4.5 -56h5q23 44 59.5 67t88.5 23q80 0 123 -54.5t49 -155.5h85v-100h-202v63q0 77 -22.5 113t-71.5 36q-108 0 -108 -176v-278h-119z" />
    <glyph glyph-name="uni10C2" unicode="&#x10c2;" horiz-adv-x="529" 
d="M202 -10q-46 0 -81 8t-72 25v107q33 -16 68 -26.5t73 -10.5q79 0 123 59t44 161q0 99 -42.5 157.5t-136.5 58.5h-109v185h113v-85h31q129 0 198.5 -84t69.5 -231q0 -102 -34 -174.5t-96.5 -111t-148.5 -38.5z" />
    <glyph glyph-name="uni10C3" unicode="&#x10c3;" horiz-adv-x="579" 
d="M392 0v162q0 27 1.5 58.5t4.5 63.5h-5q-49 -102 -160 -102q-86 0 -137.5 60.5t-51.5 160.5q0 47 13 93t39 84l104 -38q-32 -62 -32 -131q0 -60 26 -95t78 -35q57 0 88.5 50.5t31.5 149.5v233h120v-714h-120z" />
    <glyph glyph-name="uni10C4" unicode="&#x10c4;" horiz-adv-x="601" 
d="M240 0v240q-84 15 -129.5 76.5t-45.5 172.5v225h119v-218q0 -85 29 -122.5t88 -37.5q57 0 86 37.5t29 122.5v218h120v-225q0 -109 -46.5 -171t-130.5 -78v-240h-119z" />
    <glyph glyph-name="uni10C5" unicode="&#x10c5;" horiz-adv-x="709" 
d="M219 -10q-86 0 -134 41t-48 119q0 77 49.5 119.5t138.5 42.5h56v215q0 197 193 197q96 0 146 -44t50 -125q0 -83 -52 -127t-154 -44h-63v-72h207v-201h-107v111h-100v-38q0 -95 -46.5 -144.5t-135.5 -49.5zM401 475h61q46 0 67 20t21 58q0 37 -17.5 59t-56.5 22
q-75 0 -75 -105v-54zM220 80q61 0 61 99v43h-46q-77 0 -77 -73q0 -69 62 -69z" />
    <glyph glyph-name="uni10C7" unicode="&#x10c7;" horiz-adv-x="489" 
d="M250 -10q-102 0 -154 54t-52 147q0 53 17.5 90.5t52 66.5t86.5 56q43 23 69 41.5t37.5 39.5t11.5 51q0 46 -20.5 69t-54.5 23q-32 0 -51 -21.5t-19 -63.5q0 -12 1 -21h-115q-1 5 -1.5 11t-0.5 11q0 84 49 132t138 48q85 0 137.5 -51t52.5 -139q0 -73 -38 -119.5
t-117 -89.5q-59 -32 -88.5 -60t-29.5 -78q0 -102 86 -102q88 0 88 101q0 26 -5 48h116q2 -12 3.5 -25.5t1.5 -28.5q0 -89 -51.5 -139.5t-149.5 -50.5z" />
    <glyph glyph-name="uni10CD" unicode="&#x10cd;" horiz-adv-x="455" 
d="M26 0v86l264 524h-258v104h392v-86l-265 -524h272v-104h-405z" />
    <glyph glyph-name="uni10D0" unicode="&#x10d0;" horiz-adv-x="484" 
d="M240 -10q-88 0 -144.5 50t-56.5 140q0 29 4.5 50.5t12.5 45.5h108q-5 -20 -7.5 -40.5t-2.5 -44.5q0 -47 21.5 -75.5t62.5 -28.5q40 0 62 27t22 74q0 50 -18.5 83.5t-41.5 64.5q-19 25 -37.5 53.5t-30.5 65.5t-12 88h116q0 -48 18.5 -84t42.5 -70q30 -40 55.5 -86.5
t25.5 -114.5q0 -62 -26.5 -106.5t-71.5 -68t-102 -23.5z" />
    <glyph glyph-name="uni10D1" unicode="&#x10d1;" horiz-adv-x="520" 
d="M325 544q70 -21 110.5 -90t40.5 -182q0 -82 -24 -145.5t-72 -100t-121 -36.5q-69 0 -117 36t-73 99.5t-25 146.5q0 116 43 188.5t129 88.5q4 8 6.5 18.5t2.5 23.5q0 19 -8.5 33.5t-20.5 27.5q-16 17 -30.5 40.5t-14.5 67.5h114q0 -25 10 -41t25 -31q15 -16 27.5 -36
t12.5 -50q0 -32 -15 -58zM260 87q51 0 74.5 47t23.5 138q0 90 -23.5 136.5t-74.5 46.5q-52 0 -75 -46t-23 -137q0 -90 23.5 -137.5t74.5 -47.5z" />
    <glyph glyph-name="uni10D2" unicode="&#x10d2;" horiz-adv-x="510" 
d="M254 -250q-69 0 -117 35.5t-73 97t-25 139.5q0 119 50 185t138 83q51 10 68.5 36t17.5 66q0 30 -15 50.5t-45 20.5q-28 0 -43.5 -17.5t-15.5 -48.5q0 -11 1.5 -21t3.5 -20h-107q-8 26 -8 52q0 65 46.5 105t123.5 40q81 0 126 -44.5t45 -111.5q0 -38 -17.5 -74t-62.5 -55
v-4q64 -24 95 -87.5t31 -154.5q0 -77 -23.5 -138.5t-72 -97.5t-121.5 -36zM255 -153q51 0 74.5 46t23.5 129t-23.5 128t-74.5 45q-52 0 -75 -45t-23 -128q0 -82 23.5 -128.5t74.5 -46.5z" />
    <glyph glyph-name="uni10D3" unicode="&#x10d3;" horiz-adv-x="749" 
d="M448 -250q-29 61 -76 91.5t-96 30.5q-59 0 -116 -31l-35 74q18 10 42.5 17.5t56.5 9.5v4q-85 45 -132.5 131.5t-47.5 199.5q0 127 46.5 201.5t130.5 74.5q51 0 87 -26t51 -77h4q16 51 56 77t87 26q100 0 149.5 -75t49.5 -201q0 -78 -22.5 -140t-67.5 -97.5t-111 -35.5
q-70 0 -114.5 35.5t-66.5 97t-22 136.5v48q0 71 -16 103t-52 32q-72 0 -72 -178q0 -91 25 -151t66 -97.5t89 -61.5q70 -34 119.5 -73.5t76.5 -106.5zM502 101q46 0 65.5 46.5t19.5 128.5q0 88 -19.5 133.5t-64.5 45.5q-46 0 -65 -45.5t-19 -132.5q0 -84 19 -130t64 -46z" />
    <glyph glyph-name="uni10D4" unicode="&#x10d4;" horiz-adv-x="507" 
d="M244 -250q-67 0 -113 31.5t-69 82.5t-23 110q0 35 6.5 63.5t14.5 49.5h109q-5 -16 -10 -43t-5 -62q0 -34 9 -65t28.5 -50.5t51.5 -19.5q47 0 68 39t21 109v354q0 51 -20 79t-59 28t-59 -27t-20 -74q0 -45 9 -88h-109q-8 24 -12 45.5t-4 50.5q0 62 25.5 104.5t69.5 64
t100 21.5q88 0 141.5 -52.5t53.5 -151.5v-355q0 -116 -53 -180t-151 -64z" />
    <glyph glyph-name="uni10D5" unicode="&#x10d5;" horiz-adv-x="500" 
d="M249 -250q-68 0 -115 30t-71 78.5t-24 102.5q0 28 5.5 54t14.5 45h108q-4 -16 -8 -39.5t-4 -50.5q0 -30 9 -58t29.5 -46.5t54.5 -18.5q48 0 71.5 37t23.5 105q0 70 -28 106.5t-77 36.5h-31v97h33q46 0 69 34.5t23 87.5q0 105 -79 105q-39 0 -58.5 -25.5t-19.5 -65.5
q0 -20 2 -35t7 -34h-110q-8 21 -11.5 37.5t-3.5 41.5q0 55 25.5 95t69 61.5t100.5 21.5t100.5 -23t68.5 -65t25 -99q0 -68 -31.5 -114t-88.5 -65v-4q57 -13 95 -62t38 -137q0 -107 -56.5 -170.5t-155.5 -63.5z" />
    <glyph glyph-name="uni10D6" unicode="&#x10d6;" horiz-adv-x="538" 
d="M283 -10q-68 0 -114 35t-70 94t-24 131q0 55 13 101.5t43 79.5v3q-52 16 -81.5 59.5t-29.5 101.5q0 48 18 88t55.5 63.5t95.5 23.5q53 0 91 -22t58 -59t20 -83q0 -57 -27 -91v-4q8 -1 15 -3q72 -18 110 -83t38 -166q0 -76 -23 -136.5t-69.5 -96.5t-118.5 -36zM189 504
q32 0 45.5 24t13.5 66q0 36 -14 62t-45 26q-32 0 -45.5 -25.5t-13.5 -62.5q0 -36 13.5 -63t45.5 -27zM285 87q49 0 70 45.5t21 126.5q0 80 -21 124.5t-70 44.5q-50 0 -71 -44.5t-21 -125.5q0 -79 21.5 -125t70.5 -46z" />
    <glyph glyph-name="uni10D7" unicode="&#x10d7;" horiz-adv-x="749" 
d="M245 -10q-66 0 -110.5 36t-67.5 99.5t-23 146.5q0 130 49.5 205.5t149.5 75.5q47 0 87.5 -26t56.5 -77h4q15 51 50.5 77t87.5 26q83 0 129.5 -73t46.5 -199q0 -77 -13.5 -143.5t-43.5 -137.5h-112q27 65 39 135t12 143q0 179 -71 179q-36 0 -52 -32t-16 -105v-51
q0 -81 -22 -144t-67 -99t-114 -36zM246 87q45 0 64.5 47.5t19.5 137.5t-19.5 136.5t-64.5 46.5q-46 0 -65 -46t-19 -137q0 -90 19.5 -137.5t64.5 -47.5z" />
    <glyph glyph-name="uni10D8" unicode="&#x10d8;" horiz-adv-x="505" 
d="M97 0q-28 72 -40.5 137.5t-12.5 145.5q0 131 54.5 200.5t153.5 69.5q98 0 153.5 -69.5t55.5 -200.5q0 -79 -13 -145.5t-41 -137.5h-110q23 64 34.5 134t11.5 147q0 94 -24.5 134.5t-66.5 40.5q-41 0 -66 -40t-25 -136q0 -78 12 -147.5t34 -132.5h-110z" />
    <glyph glyph-name="uni10D9" unicode="&#x10d9;" horiz-adv-x="485" 
d="M239 -250q-66 0 -112 29t-69.5 76.5t-23.5 105.5q0 28 5 54t13 45h109q-4 -15 -7.5 -39t-3.5 -51q0 -49 21 -86t68 -37q46 0 67.5 37.5t21.5 107.5q0 81 -28 121t-76 40h-32v96h31q47 0 70.5 31.5t23.5 75.5q0 45 -21.5 73t-57.5 28v96q57 0 101 -22.5t69 -63t25 -95.5
q0 -63 -31.5 -106t-88.5 -59v-4q57 -14 95 -65t38 -151q0 -109 -54.5 -173t-152.5 -64z" />
    <glyph glyph-name="uni10DA" unicode="&#x10da;" horiz-adv-x="918" 
d="M551 -250q-21 44 -56.5 73.5t-78 45t-83.5 15.5q-43 0 -80.5 -12t-66.5 -30l-38 75q21 14 51.5 24t57.5 13v4q-94 36 -153.5 122.5t-59.5 217.5q0 76 19.5 133.5t57.5 89.5t92 32q50 0 82 -26t46 -74h3q13 48 42 74t73 26t73.5 -26t41.5 -74h3q14 48 46.5 74t81.5 26
q81 0 125 -73.5t44 -200.5q0 -64 -12 -121t-40 -117l-102 31q21 51 28.5 101t7.5 105q0 91 -16 134.5t-51 43.5q-29 0 -43 -33t-14 -103v-145h-112v147q0 67 -14 100.5t-47 33.5q-32 0 -46.5 -33t-14.5 -101v-147h-112v145q0 69 -13.5 102.5t-43.5 33.5q-67 0 -67 -162
q0 -96 30.5 -158.5t82.5 -99t116 -57.5q55 -17 104.5 -43.5t88 -63t57.5 -83.5z" />
    <glyph glyph-name="uni10DB" unicode="&#x10db;" horiz-adv-x="524" 
d="M258 -10q-103 0 -158.5 74t-55.5 202q0 130 46 199t128 69q89 0 131 -73h5q-3 23 -4 42.5t-1 37.5v45q0 44 -20.5 69.5t-61.5 25.5q-37 0 -57.5 -18.5t-20.5 -52.5q0 -11 2 -25h-111q-7 23 -7 42q0 43 26 75t69.5 50t98.5 18q90 0 144 -51t54 -141v-313
q0 -136 -53.5 -205.5t-153.5 -69.5zM257 87q49 0 71.5 44t22.5 124v26q0 78 -22.5 119t-76.5 41q-46 0 -68 -46.5t-22 -129.5q0 -84 22.5 -131t72.5 -47z" />
    <glyph glyph-name="uni10DC" unicode="&#x10dc;" horiz-adv-x="525" 
d="M267 -10q-100 0 -153.5 69.5t-53.5 209.5v311q0 62 25.5 102t67.5 59t93 19h187v-95h-173q-38 0 -61 -20t-23 -63v-33q0 -33 -5 -79h5q21 36 54 56t77 20q81 0 127.5 -71t46.5 -205q0 -131 -56 -205.5t-158 -74.5zM267 87q51 0 73 47.5t22 134.5q0 86 -22 133.5t-67 47.5
q-54 0 -76.5 -42.5t-22.5 -126.5v-21q0 -84 22.5 -128.5t70.5 -44.5z" />
    <glyph glyph-name="uni10DD" unicode="&#x10dd;" horiz-adv-x="701" 
d="M100 0q-30 74 -43 138.5t-13 140.5q0 127 46 200.5t132 73.5q50 0 81.5 -26t45.5 -74h3q14 48 46 74t80 26q86 0 132.5 -73t46.5 -201q0 -75 -13 -141t-43 -138h-112q26 65 38.5 135t12.5 143q0 86 -17.5 129.5t-56.5 43.5q-32 0 -46 -31.5t-14 -103.5v-139h-111v139
q0 70 -14 102.5t-46 32.5q-39 0 -56.5 -42.5t-17.5 -132.5q0 -149 51 -276h-112z" />
    <glyph glyph-name="uni10DE" unicode="&#x10de;" horiz-adv-x="495" 
d="M243 -10q-59 0 -105 22.5t-72.5 65t-26.5 102.5q0 28 4.5 49.5t11.5 45.5h108q-4 -20 -6.5 -40t-2.5 -44q0 -48 23 -76t66 -28q90 0 90 141q0 70 -28 107.5t-78 37.5h-34v96h34q45 0 64 18.5t19 48.5q0 32 -16.5 52t-38.5 38q-20 15 -38 32t-30 42t-12 62h116
q0 -28 18.5 -47t45.5 -40q28 -21 51 -51.5t23 -77.5q0 -50 -31.5 -79.5t-86.5 -42.5v-3q37 -8 69 -32.5t51.5 -66t19.5 -101.5q0 -107 -55 -169t-153 -62z" />
    <glyph glyph-name="uni10DF" unicode="&#x10df;" horiz-adv-x="554" 
d="M284 -250q-68 0 -114 29.5t-69 76.5t-23 97q0 32 4.5 54t13.5 45h109q-5 -19 -8.5 -41t-3.5 -48q0 -28 9 -54.5t28.5 -44t52.5 -17.5q48 0 69 38.5t21 109.5v459q-55 -29 -125 -38v-3q29 -14 47 -42t18 -66q0 -60 -39.5 -97t-102.5 -37q-64 0 -101 35t-37 88q0 22 6 41
h88q-3 -16 -3 -29q0 -25 12 -41t35 -16t34.5 18.5t11.5 47.5q0 67 -56 81v79q135 16 237 68h91v-553q0 -114 -53 -177t-152 -63z" />
    <glyph glyph-name="uni10E0" unicode="&#x10e0;" horiz-adv-x="695" 
d="M100 0q-30 74 -43 141.5t-13 146.5v49q0 102 20 182t68.5 134.5t134.5 78.5q37 11 88.5 20.5t118.5 17.5l14 -99q-34 -5 -73 -11t-73 -12t-55 -12q-52 -16 -88 -45t-54 -89h3q19 26 41 34.5t44 8.5q40 0 69.5 -26t42.5 -73h4q14 48 46.5 73.5t80.5 25.5q84 0 129.5 -72.5
t45.5 -196.5q0 -76 -13 -140t-44 -136h-112q26 65 38.5 133.5t12.5 140.5q0 86 -16.5 130t-54.5 44q-59 0 -59 -133v-137h-112v137q0 67 -13.5 100t-44.5 33q-38 0 -55 -43t-17 -132q0 -76 12.5 -142.5t38.5 -130.5h-112z" />
    <glyph glyph-name="uni10E1" unicode="&#x10e1;" horiz-adv-x="526" 
d="M270 -10q-102 0 -156 66.5t-54 196.5v507h115v-511q0 -78 23 -120t72 -42t71.5 40.5t22.5 101.5q0 42 -8.5 72t-22.5 57q-19 38 -34.5 79.5t-15.5 105.5h116q0 -48 13.5 -82.5t31.5 -69.5q18 -33 28 -71.5t10 -89.5q0 -69 -25 -123.5t-72.5 -85.5t-114.5 -31z" />
    <glyph glyph-name="uni10E2" unicode="&#x10e2;" horiz-adv-x="652" 
d="M327 -250q-143 0 -213 107.5t-70 306.5q0 169 58 266t173 116q-1 19 -3 37t-2 38v46h112v-45q0 -19 -1.5 -37.5t-4.5 -38.5q120 -18 176 -118t56 -265q0 -198 -68.5 -305.5t-212.5 -107.5zM327 -151q82 0 122.5 75t40.5 239q0 131 -28 201t-87 87q7 -44 7 -93v-183h-112
v184q0 23 1.5 46t4.5 45q-59 -16 -86.5 -86.5t-27.5 -200.5q0 -162 41.5 -238t123.5 -76z" />
    <glyph glyph-name="uni10E3" unicode="&#x10e3;" horiz-adv-x="541" 
d="M269 -250q-73 0 -121 31.5t-72 82.5t-24 110q0 35 6.5 63.5t15.5 49.5h108q-5 -16 -9.5 -43t-4.5 -62q0 -34 9 -65t31 -50.5t60 -19.5q53 0 75.5 38.5t22.5 105.5v371q0 43 -13.5 67t-43.5 24t-43.5 -23.5t-13.5 -64.5v-131h-112v131q0 40 -15.5 62t-49.5 22h-53v99h60
q87 0 113 -82h3q15 41 46.5 64t80.5 23q77 0 117 -51t40 -130v-389q0 -110 -54.5 -171.5t-158.5 -61.5z" />
    <glyph glyph-name="uni10E4" unicode="&#x10e4;" horiz-adv-x="730" 
d="M428 -250q-112 0 -175 51t-63 129q0 19 5 38h110q-1 -11 -1 -23q0 -48 33.5 -73t89.5 -25q63 0 92.5 35.5t29.5 90.5q0 47 -17.5 79t-54.5 32h-13v98h24q41 0 61 40.5t20 102.5q0 56 -16.5 93.5t-52.5 37.5q-34 0 -50.5 -31t-16.5 -100v-28q0 -67 -21.5 -124t-64.5 -91.5
t-110 -34.5q-63 0 -106 33.5t-65 91t-22 128.5q0 74 21.5 131t63.5 89.5t105 32.5q46 0 84 -26t54 -77h4q15 50 51 76.5t87 26.5q54 0 92.5 -29.5t59 -79t20.5 -108.5q0 -78 -30 -130t-90 -71v-4q50 -15 75.5 -57.5t25.5 -107.5q0 -62 -27.5 -111t-81 -77t-130.5 -28z
M239 144q43 0 61 43t18 113q0 71 -18 113t-61 42t-61.5 -42t-18.5 -113q0 -69 18.5 -112.5t61.5 -43.5z" />
    <glyph glyph-name="uni10E5" unicode="&#x10e5;" horiz-adv-x="507" 
d="M244 -250q-67 0 -113 31.5t-69 82.5t-23 110q0 35 6.5 63.5t14.5 49.5h109q-5 -16 -10 -43t-5 -62q0 -34 9 -65t28.5 -50.5t51.5 -19.5q47 0 68 38t21 109v300q0 77 -21.5 119.5t-66.5 42.5q-32 0 -51 -27t-19 -74q0 -45 9 -88h-109q-8 24 -12 46t-4 51q0 62 22 104
t57 63.5t73 21.5q41 0 71 -21t51 -59h4q-1 25 -2.5 48.5t-1.5 41.5v197h116v-768q0 -114 -53 -178t-151 -64z" />
    <glyph glyph-name="uni10E6" unicode="&#x10e6;" horiz-adv-x="695" 
d="M429 -250q-27 62 -70 92t-89 30q-60 0 -117 -31l-35 74q18 10 43 17.5t57 10.5v3q-86 45 -130 131.5t-44 199.5q0 128 44.5 202t128.5 74q50 0 82 -26t46 -74h4q14 48 46.5 74t80.5 26q84 0 129.5 -73t45.5 -201q0 -64 -12 -121t-41 -117l-101 31q21 51 29 101t8 105
q0 88 -17 133t-55 45q-31 0 -45 -32.5t-14 -102.5v-146h-112v146q0 68 -13.5 101.5t-44.5 33.5q-38 0 -55 -44t-17 -137q0 -90 23.5 -148.5t62.5 -95.5t87 -62q70 -35 114 -74.5t70 -106.5z" />
    <glyph glyph-name="uni10E7" unicode="&#x10e7;" horiz-adv-x="518" 
d="M253 -250q-68 0 -114 29.5t-69 76.5t-23 97q0 32 5 54t14 45h108q-5 -19 -8 -41t-3 -48q0 -28 8.5 -54.5t28.5 -44t53 -17.5q48 0 69 38.5t21 109.5v98q0 33 1.5 62.5t3.5 63.5h-5q-40 -84 -132 -84q-78 0 -122.5 59t-44.5 165q0 53 9 98.5t24 85.5h112
q-13 -45 -20.5 -85t-7.5 -89q0 -64 20.5 -100t65.5 -36t71 40t26 128v142h114v-551q0 -114 -53 -178t-152 -64z" />
    <glyph glyph-name="uni10E8" unicode="&#x10e8;" horiz-adv-x="524" 
d="M258 -10q-104 0 -159.5 72.5t-55.5 193.5q0 122 46.5 190t127.5 68q89 0 131 -73h5q-2 23 -3.5 42.5t-1.5 37.5v86q0 40 -13 56.5t-33 16.5t-32.5 -14.5t-12.5 -42.5v-50h-111v41q0 27 -13 43t-36 16q-13 0 -24 -3t-25 -8l-27 86q21 12 43 17t45 5q30 0 54.5 -14.5
t38.5 -50.5h3q16 35 46 50t69 15q37 0 70 -17t53.5 -53t20.5 -93v-352q0 -129 -53.5 -197t-152.5 -68zM256 88q49 0 71.5 42.5t22.5 114.5v26q0 70 -22.5 109.5t-75.5 39.5q-46 0 -68.5 -45.5t-22.5 -119.5q0 -77 22.5 -122t72.5 -45z" />
    <glyph glyph-name="uni10E9" unicode="&#x10e9;" horiz-adv-x="528" 
d="M60 0v596q0 77 47.5 125.5t129.5 48.5q81 0 127 -41t46 -106q0 -27 -11 -55.5t-39 -51.5v-3q119 -37 119 -237q0 -80 -12 -154.5t-28 -121.5h-115q9 30 17.5 73t14 93t5.5 99q0 168 -90 168q-44 0 -70 -40.5t-26 -124.5v-268h-115zM171 451h5q18 35 57 61q33 22 48 45
t15 56q0 30 -15.5 47t-43.5 17q-30 0 -45.5 -21.5t-15.5 -53.5v-77q0 -11 -1 -28t-4 -46z" />
    <glyph glyph-name="uni10EA" unicode="&#x10ea;" horiz-adv-x="575" 
d="M301 -250q-80 0 -137.5 42.5t-88.5 133.5t-31 236q0 110 18 203t55 178h113q-36 -92 -52 -182.5t-16 -198.5q0 -162 33.5 -239t106.5 -77q56 0 86 37.5t30 118.5q0 71 -27.5 109.5t-80.5 38.5h-29v99h37q44 0 65 19t21 50q0 32 -11 53t-27 39q-20 24 -37 53.5t-17 79.5
h116q1 -30 15 -51.5t34 -43.5q19 -22 32.5 -49.5t13.5 -67.5q0 -54 -31.5 -85t-85.5 -44v-3q54 -12 92 -61t38 -144q0 -118 -63.5 -181t-171.5 -63z" />
    <glyph glyph-name="uni10EB" unicode="&#x10eb;" horiz-adv-x="525" 
d="M258 -10q-103 0 -158.5 74.5t-55.5 205.5q0 136 46 209.5t128 73.5q44 0 76.5 -21t54.5 -59h5q-2 25 -3.5 48.5t-1.5 41.5v197h116v-491q0 -140 -53.5 -209.5t-153.5 -69.5zM257 87q49 0 71.5 44.5t22.5 128.5v19q0 89 -22.5 132t-76.5 43q-46 0 -68 -48t-22 -137
q0 -87 22.5 -134.5t72.5 -47.5z" />
    <glyph glyph-name="uni10EC" unicode="&#x10ec;" horiz-adv-x="524" 
d="M266 -10q-99 0 -152.5 68t-53.5 197v352q0 57 20.5 93t53.5 53t70 17q39 0 69 -15t45 -50h4q14 36 38.5 50.5t54.5 14.5q23 0 44.5 -5t42.5 -17l-26 -86q-14 5 -25.5 8t-23.5 3q-24 0 -36.5 -16t-12.5 -42v-42h-111v50q0 28 -13 42.5t-32 14.5q-21 0 -33.5 -16.5
t-12.5 -56.5v-86q0 -18 -1.5 -37.5t-3.5 -42.5h4q43 73 132 73q81 0 127.5 -68t46.5 -190q0 -121 -56 -193.5t-159 -72.5zM267 88q51 0 73 45t22 122q0 74 -22 119.5t-68 45.5q-53 0 -75.5 -39.5t-22.5 -109.5v-26q0 -72 22 -114.5t71 -42.5z" />
    <glyph glyph-name="uni10ED" unicode="&#x10ed;" horiz-adv-x="529" 
d="M276 -250q-70 0 -116.5 31.5t-70 82t-23.5 107.5q0 35 6.5 63.5t15.5 49.5h108q-4 -16 -9 -43t-5 -62q0 -33 9 -63t29.5 -49t54.5 -19q49 0 70.5 37.5t21.5 96.5q0 45 -10 81t-26 69t-27.5 64.5t-15.5 76.5h-4q-36 -47 -103 -47q-36 0 -68.5 18.5t-53 53.5t-20.5 84
q0 75 46 118t121 43h64v217h115v-217h91v-97h-91v-79q0 -61 14.5 -105.5t35.5 -85.5q20 -42 35 -88.5t15 -107.5q0 -104 -55 -167t-154 -63zM209 318q30 0 46 19.5t16 54.5v55h-54q-31 0 -49 -16t-18 -48q0 -31 17 -48t42 -17z" />
    <glyph glyph-name="uni10EE" unicode="&#x10ee;" horiz-adv-x="525" 
d="M267 -10q-100 0 -153.5 69.5t-53.5 209.5v491h116v-197q0 -18 -1.5 -41.5t-3.5 -48.5h4q22 38 55 59t77 21q81 0 127.5 -73.5t46.5 -209.5q0 -131 -56 -205.5t-158 -74.5zM267 87q51 0 73 47.5t22 134.5q0 89 -22 137t-67 48q-54 0 -76.5 -43t-22.5 -132v-19
q0 -84 22 -128.5t71 -44.5z" />
    <glyph glyph-name="uni10EF" unicode="&#x10ef;" horiz-adv-x="491" 
d="M303 304q0 -52 23 -89.5t54 -75.5q28 -35 50 -77.5t22 -103.5t-24.5 -108t-71 -73.5t-110.5 -26.5q-68 0 -114 29.5t-69.5 76.5t-23.5 97q0 32 5 54t14 45h108q-5 -19 -8.5 -41t-3.5 -48q0 -28 9 -54.5t28.5 -44t52.5 -17.5q45 0 67.5 31t22.5 78t-19.5 81.5t-45.5 67.5
q-32 39 -56.5 84t-24.5 116v44l-139 31v96l139 -32v109h116v-135l138 -31v-96l-139 31v-18z" />
    <glyph glyph-name="uni10F0" unicode="&#x10f0;" horiz-adv-x="489" 
d="M240 -10q-68 0 -113 24.5t-67.5 63.5t-22.5 83q0 26 9 54h108q-3 -16 -3 -35q0 -35 19 -64t69 -29q44 0 66 24t22 59q0 41 -22.5 64t-68.5 23h-29v95h38q39 0 56.5 12t17.5 37q0 22 -17.5 36.5t-57.5 14.5h-37v95h37q33 0 47 10.5t14 27.5q0 22 -15.5 34.5t-38.5 24.5
q-19 10 -38 23.5t-31.5 35.5t-12.5 57h117q1 -21 19 -35.5t43 -28.5q27 -15 50.5 -38.5t23.5 -64.5q0 -36 -23 -57t-72 -31v-4q47 -6 78 -32t31 -68q0 -50 -30.5 -70t-77.5 -28v-4q51 -10 84 -44t33 -92q0 -75 -55 -124t-150 -49z" />
    <glyph glyph-name="uni10F1" unicode="&#x10f1;" horiz-adv-x="580" 
d="M315 -10q-130 0 -200.5 96t-70.5 306q0 103 18 194.5t54 173.5h112q-34 -89 -50 -178t-16 -190q0 -156 36.5 -231t118.5 -75q48 0 74 23.5t26 62.5t-22 62t-66 23h-32v95h40q39 0 56 12t17 37q0 22 -17.5 36t-55.5 14h-40v96h38q33 0 47 12t14 33t-10.5 34.5t-24.5 25.5
q-18 16 -35.5 39t-17.5 69h116q1 -21 12 -35.5t27 -28.5q18 -17 34 -40t16 -61t-24.5 -60t-70.5 -30v-4q47 -6 78 -32t31 -68q0 -50 -30.5 -70t-78.5 -28v-4q52 -10 85 -43.5t33 -92.5q0 -49 -27 -88.5t-76.5 -62t-117.5 -22.5z" />
    <glyph glyph-name="uni10F2" unicode="&#x10f2;" horiz-adv-x="515" 
d="M54 0v96q26 0 55 4t65 16v4q-64 39 -97 98t-33 130q0 56 25 102.5t72.5 74.5t115.5 28q69 0 116.5 -28t72.5 -74.5t25 -102.5q0 -71 -33 -130t-97 -98v-4q35 -11 64.5 -15.5t55.5 -4.5v-96q-57 0 -108 15.5t-96 42.5q-45 -27 -95.5 -42.5t-107.5 -15.5zM257 153
q43 32 69.5 77.5t26.5 113.5q0 48 -25.5 80t-70.5 32t-70 -32t-25 -80q0 -68 26.5 -113.5t68.5 -77.5z" />
    <glyph glyph-name="uni10F3" unicode="&#x10f3;" horiz-adv-x="500" 
d="M249 -250q-68 0 -115 30t-71 77.5t-24 100.5q0 30 5.5 55t13.5 45h109q-5 -15 -8.5 -38.5t-3.5 -52.5q0 -28 9 -55.5t29.5 -46t54.5 -18.5q48 0 71.5 37t23.5 105q0 85 -31 121.5t-88 36.5h-48v82l133 217h-231v97h362v-79l-144 -232q44 -7 81.5 -34t60.5 -78t23 -132
q0 -110 -56.5 -174t-155.5 -64z" />
    <glyph glyph-name="uni10F4" unicode="&#x10f4;" horiz-adv-x="490" 
d="M244 -250q-60 0 -106 22.5t-72.5 65t-26.5 102.5q0 28 4.5 49.5t11.5 45.5h108q-4 -20 -6.5 -40t-2.5 -44q0 -48 23 -76t66 -28q90 0 90 141q0 69 -28 106.5t-78 37.5h-34v98h34q44 0 63.5 22.5t19.5 63.5q0 44 -28.5 72.5t-67.5 54.5q-31 20 -60 43.5t-48 57t-19 82.5
q0 67 47 105.5t123 38.5q78 0 142 -38l-37 -85q-54 27 -98 27q-27 0 -43.5 -12.5t-16.5 -39.5q0 -36 26 -58.5t68 -49.5q31 -20 61 -44t50 -58.5t20 -84.5q0 -61 -31.5 -95.5t-86.5 -47.5v-3q37 -8 69 -32.5t51.5 -66t19.5 -101.5q0 -107 -55 -169t-152 -62z" />
    <glyph glyph-name="uni10F5" unicode="&#x10f5;" horiz-adv-x="535" 
d="M238 -10q-91 0 -142.5 44.5t-51.5 128.5q0 83 51.5 127t144.5 44h79v103h-83q-90 0 -139 41.5t-49 122.5q0 82 50.5 125.5t139.5 43.5q88 0 141 -47.5t53 -136.5v-58h81v-91h-81v-103h81v-92h-81v-63q0 -93 -51 -141t-143 -48zM242 528h77v55q0 95 -81 95
q-38 0 -56.5 -20.5t-18.5 -55.5q0 -74 79 -74zM238 82q40 0 60.5 26.5t20.5 75.5v58h-74q-86 0 -86 -79q0 -38 20.5 -59.5t58.5 -21.5z" />
    <glyph glyph-name="uni10F6" unicode="&#x10f6;" horiz-adv-x="784" 
d="M321 -250q-52 0 -86 20v93q12 -6 26.5 -9.5t29.5 -3.5q21 0 32 13.5t11 48.5v71q0 23 1.5 47t3.5 46h-4q-17 -39 -48 -62.5t-76 -23.5q-78 0 -122.5 74t-44.5 209q0 133 44 206.5t124 73.5q47 0 76 -23t47 -60h5q-2 18 -4 37t-2 41v60q0 83 38 122.5t104 39.5
q19 0 39.5 -4t30.5 -8v-96q-10 3 -22 5.5t-24 2.5q-25 0 -37.5 -14t-12.5 -50v-58q0 -45 -7 -78h6q17 37 46.5 60t76.5 23q80 0 124 -73.5t44 -206.5q0 -135 -44.5 -209t-122.5 -74q-45 0 -76.5 23.5t-47.5 62.5h-4q2 -24 3.5 -48t1.5 -47v-72q0 -84 -32 -121.5t-97 -37.5z
M247 88q43 0 66 40t23 124v41q0 163 -89 163q-86 0 -86 -183q0 -90 22 -137.5t64 -47.5zM537 88q42 0 64 47.5t22 137.5q0 183 -87 183q-88 0 -88 -163v-41q0 -84 23 -124t66 -40z" />
    <glyph glyph-name="uni10F7" unicode="&#x10f7;" horiz-adv-x="483" 
d="M243 -250q-91 0 -147.5 54t-56.5 154q0 69 23 117.5t61 84t82 64.5q41 27 66 48.5t37 45t12 57.5q0 38 -19 59.5t-53 21.5q-37 0 -55.5 -23t-18.5 -59q0 -22 5 -37h-116q-5 19 -5 45q0 73 49.5 121.5t140.5 48.5t139 -49t48 -127q0 -53 -16.5 -92.5t-51 -73.5t-87.5 -70
q-57 -38 -89.5 -78t-32.5 -108q0 -53 23.5 -80.5t59.5 -27.5q39 0 63 28t24 84q0 36 -9 65h116q9 -33 9 -71q0 -99 -54.5 -150.5t-146.5 -51.5z" />
    <glyph glyph-name="uni10F8" unicode="&#x10f8;" horiz-adv-x="518" 
d="M264 -250q-98 0 -151 64t-53 178v551h114v-142q0 -88 26 -128t71 -40t65.5 36t20.5 100q0 49 -7.5 89t-20.5 85h112q14 -40 23.5 -85.5t9.5 -98.5q0 -106 -44.5 -165t-122.5 -59q-92 0 -132 84h-5q2 -34 3 -63.5t1 -62.5v-98q0 -71 21.5 -109.5t69.5 -38.5q33 0 53 17.5
t28.5 44t8.5 54.5q0 26 -3 48t-9 41h109q9 -23 14 -45t5 -54q0 -50 -23 -97t-69 -76.5t-115 -29.5z" />
    <glyph glyph-name="uni10F9" unicode="&#x10f9;" horiz-adv-x="520" 
d="M261 553q69 0 117 -35.5t73 -97t25 -139.5q0 -119 -50 -185t-138 -84q-51 -10 -68.5 -35.5t-17.5 -66.5q0 -29 15 -50t44 -21t44 18t15 49q0 11 -1 21t-3 20h107q8 -26 8 -52q0 -65 -46.5 -105t-123.5 -40q-82 0 -126.5 44.5t-44.5 111.5q0 38 17 74t63 55v4
q-65 24 -95.5 87t-30.5 155q0 77 23.5 138.5t71.5 97.5t122 36zM260 456q-52 0 -75 -46t-23 -129t23.5 -128t74.5 -45t74.5 45t23.5 128q0 82 -23.5 128.5t-74.5 46.5z" />
    <glyph glyph-name="uni10FA" unicode="&#x10fa;" horiz-adv-x="415" 
d="M95 -104v100l66 29v3q-54 22 -85.5 84.5t-31.5 157.5q0 133 56.5 208t161.5 75q77 0 132 -33l-34 -93q-22 12 -45.5 19t-45.5 7q-106 0 -106 -184q0 -180 105 -180q30 0 59.5 9.5t56.5 26.5v-106z" />
    <glyph glyph-name="uni10FB" unicode="&#x10fb;" horiz-adv-x="453" 
d="M113 408q-29 0 -48.5 18.5t-19.5 52.5q0 36 19 54t49 18q29 0 48 -18.5t19 -53.5q0 -34 -19 -52.5t-48 -18.5zM342 198q-29 0 -49 18.5t-20 53.5t19.5 53.5t49.5 18.5q28 0 47.5 -19t19.5 -53t-19.5 -53t-47.5 -19zM113 -13q-29 0 -48.5 19t-19.5 53q0 35 19.5 53.5
t48.5 18.5t48 -18.5t19 -53.5q0 -34 -19 -53t-48 -19z" />
    <glyph glyph-name="uni10FC" unicode="&#x10fc;" horiz-adv-x="320" 
d="M163 406q-61 0 -93.5 41t-32.5 120v171q0 56 34 81t79 25h116v-70h-104q-38 0 -38 -34v-13q0 -9 -0.5 -20.5t-2.5 -27.5h2q26 42 74 42q45 0 71.5 -39.5t26.5 -113.5q0 -77 -34.5 -119.5t-97.5 -42.5zM164 477q24 0 33.5 23t9.5 67q0 41 -10.5 63t-30.5 22q-24 0 -34 -19
t-10 -57v-14q0 -85 42 -85z" />
    <glyph glyph-name="uni10FD" unicode="&#x10fd;" horiz-adv-x="483" 
d="M240 -10q-91 0 -146 51.5t-55 150.5q0 38 9 71h117q-9 -29 -9 -65q0 -56 23.5 -84t62.5 -28q37 0 60.5 27.5t23.5 80.5q0 40 -15 69t-42.5 53t-65.5 50q-53 36 -87.5 68t-51 70t-16.5 91q0 78 48 126.5t139 48.5t140.5 -48.5t49.5 -120.5q0 -14 -1 -25t-3 -21h-116
q2 8 3 17.5t1 20.5q0 36 -18.5 59t-54.5 23q-35 0 -54 -21.5t-19 -58.5q0 -34 12 -56.5t37 -42.5t66 -47q44 -28 82 -61.5t61 -79t23 -110.5q0 -100 -56.5 -154t-147.5 -54z" />
    <glyph glyph-name="uni10FE" unicode="&#x10fe;" horiz-adv-x="515" 
d="M54 543q57 0 107.5 -15.5t95.5 -42.5q45 27 96 42.5t108 15.5v-96q-26 0 -55.5 -4.5t-64.5 -15.5v-4q64 -39 97 -98t33 -130q0 -56 -25 -102.5t-72.5 -74.5t-116.5 -28q-68 0 -115.5 28t-72.5 74.5t-25 102.5q0 71 33 130t97 98v4q-36 12 -65 16t-55 4v96zM257 390
q-42 -32 -68.5 -77.5t-26.5 -113.5q0 -49 25 -81t70 -32t70.5 32t25.5 81q0 68 -26.5 113.5t-69.5 77.5z" />
    <glyph glyph-name="uni10FF" unicode="&#x10ff;" horiz-adv-x="520" 
d="M476 273q0 -83 -24 -146.5t-72 -100t-121 -36.5q-69 0 -117 36t-73 100t-25 147q0 129 54 204.5t163 75.5q97 0 156 -72t59 -208zM162 272q0 -91 23.5 -138t74.5 -47t74 47t23 139q0 90 -23 136t-74 46q-52 0 -75 -46t-23 -137z" />
    <glyph glyph-name="uni1C90" unicode="&#x1c90;" 
d="M263 -10q-101 0 -160.5 62.5t-59.5 167.5q0 32 5 63.5t17 68.5h-53l65 33q-6 -17 -12 -33h121q-10 -36 -14 -67t-4 -56q0 -62 23.5 -98.5t71.5 -36.5q50 0 72.5 37.5t22.5 103.5q0 67 -22 120.5t-53 100.5q-25 39 -46.5 78t-32.5 83t-4 97h123q-7 -58 16 -107.5
t56 -103.5q33 -53 61 -117.5t28 -151.5q0 -114 -59 -179t-162 -65zM198 387l42 -35h-54q5 17 12 35z" />
    <glyph glyph-name="uni1C91" unicode="&#x1c91;" horiz-adv-x="554" 
d="M277 -10q-71 0 -122 35t-79 95.5t-28 137.5q0 106 47 175t135 84q7 15 7 33t-9.5 31t-23.5 25q-19 17 -34.5 41.5t-9.5 66.5h122q-1 -20 8.5 -33.5t24.5 -27.5q17 -14 31.5 -34t14.5 -52q0 -16 -3.5 -29.5t-10.5 -25.5q72 -21 115.5 -86t43.5 -168q0 -76 -26 -136.5
t-77.5 -96t-125.5 -35.5zM278 94q49 0 75.5 42.5t26.5 121.5q0 77 -26.5 118t-75.5 41q-50 0 -77 -40.5t-27 -119.5q0 -78 27.5 -120.5t76.5 -42.5z" />
    <glyph glyph-name="uni1C92" unicode="&#x1c92;" horiz-adv-x="544" 
d="M271 -10q-70 0 -121.5 34t-79 91.5t-27.5 128.5q0 105 53.5 170t153.5 79q50 7 66.5 27.5t16.5 49.5q0 27 -17 43.5t-48 16.5q-29 0 -46.5 -16t-17.5 -41q0 -14 3 -30h-115q-5 21 -5 43q0 39 22.5 70t63.5 49.5t96 18.5q86 0 134.5 -41.5t48.5 -104.5q0 -35 -16.5 -66.5
t-56.5 -49.5v-3q57 -23 89.5 -75.5t32.5 -139.5q0 -70 -26.5 -127.5t-77.5 -92t-126 -34.5zM273 95q48 0 75 40t27 109q0 68 -27 106.5t-76 38.5q-48 0 -75.5 -38.5t-27.5 -107.5q0 -68 27.5 -108t76.5 -40z" />
    <glyph glyph-name="uni1C93" unicode="&#x1c93;" horiz-adv-x="802" 
d="M481 0q-6 33 -32.5 53.5t-63.5 30t-75 9.5q-34 0 -71 -8.5t-67 -23.5l-38 79q20 10 45.5 18t54.5 11v4q-89 39 -137.5 118.5t-48.5 180.5q0 114 49.5 183t143.5 69q51 0 89 -23t53 -68h4q17 45 59.5 68t94.5 23q70 0 117.5 -31.5t71 -86.5t23.5 -125q0 -64 -24.5 -118.5
t-72 -88t-117.5 -33.5q-74 0 -122 33t-71 86t-23 114v31q0 52 -15.5 84.5t-56.5 32.5t-60 -39t-19 -112q0 -68 20 -116t54 -80.5t75.5 -53.5t85.5 -35q47 -16 89 -38t70 -57.5t33 -90.5h-118zM537 343q49 0 70 38.5t21 99.5q0 65 -21 103t-70 38q-48 0 -69 -38.5t-21 -102.5
q0 -61 20.5 -99.5t69.5 -38.5z" />
    <glyph glyph-name="uni1C94" unicode="&#x1c94;" horiz-adv-x="545" 
d="M263 -10q-72 0 -121 29.5t-74 77.5t-25 105q0 28 4.5 52.5t12.5 45.5h119q-11 -41 -11 -88t22 -82.5t73 -35.5q52 0 74 33.5t22 90.5v310q0 43 -23 67.5t-63 24.5t-62.5 -23.5t-22.5 -62.5q0 -36 7 -76h-120q-5 21 -8 41t-3 45q0 58 27.5 98t75 61t106.5 21
q60 0 106.5 -23t73 -66.5t26.5 -103.5v-316q0 -106 -56.5 -165.5t-159.5 -59.5z" />
    <glyph glyph-name="uni1C95" unicode="&#x1c95;" horiz-adv-x="536" 
d="M268 -10q-69 0 -119.5 26t-78 72t-27.5 106q0 39 12 81h119q-8 -34 -8 -66q0 -51 24.5 -84.5t77.5 -33.5q51 0 75.5 32t24.5 88q0 59 -28 89.5t-78 30.5h-33v100h34q49 0 70.5 29.5t21.5 73.5q0 43 -22 66t-62 23q-41 0 -63 -23t-22 -60q0 -14 1.5 -26.5t4.5 -26.5h-120
q-4 18 -6.5 32.5t-2.5 35.5q0 53 27.5 90.5t74.5 58t107 20.5t107 -21.5t73.5 -61t26.5 -94.5q0 -63 -29.5 -104t-82.5 -55v-3q53 -13 89.5 -58t36.5 -123q0 -62 -27 -110.5t-77 -76t-121 -27.5z" />
    <glyph glyph-name="uni1C96" unicode="&#x1c96;" horiz-adv-x="578" 
d="M304 -10q-73 0 -122.5 33t-75 88t-25.5 121q0 52 13 95.5t44 73.5v3q-55 15 -85 56t-30 95q0 45 19.5 83.5t59 62t101.5 23.5q57 0 97 -21t61.5 -56.5t21.5 -78.5q0 -55 -28 -88v-2q6 -1 17 -3q76 -17 116.5 -79t40.5 -151q0 -71 -24.5 -129t-74.5 -92t-126 -34zM203 475
q34 0 49 22t15 57q0 32 -15.5 54t-49.5 22q-33 0 -48.5 -22t-15.5 -54q0 -31 15.5 -55t49.5 -24zM306 93q52 0 75 41t23 111q0 69 -23 108.5t-76 39.5t-75.5 -39.5t-22.5 -109.5t23 -110.5t76 -40.5z" />
    <glyph glyph-name="uni1C97" unicode="&#x1c97;" horiz-adv-x="844" 
d="M590 724q95 0 148 -78.5t53 -240.5q0 -89 -8.5 -157t-24.5 -127t-39 -121h-124q31 86 50.5 182.5t19.5 221.5q0 81 -10 128t-29 67t-45 20q-38 0 -56.5 -32t-18.5 -89q0 -32 3 -69t3 -73q0 -188 -55 -277t-175 -89t-175 90t-54 277q0 189 54.5 278t173.5 89
q54 0 96 -21.5t63 -71.5h3q12 34 36.5 54.5t53.5 29.5t57 9zM282 95q58 0 81 61.5t23 200.5q0 142 -23.5 202t-80.5 60t-80.5 -61t-23.5 -201q0 -141 23.5 -201.5t80.5 -60.5z" />
    <glyph glyph-name="uni1C98" unicode="&#x1c98;" horiz-adv-x="564" 
d="M108 0q-18 59 -30.5 116.5t-18.5 125t-6 154.5q0 168 60 248t169 80q108 0 168.5 -80t60.5 -248q0 -89 -6.5 -156t-19 -124.5t-30.5 -115.5h-122q16 54 28 112t18 127t6 157q0 84 -12 133t-35.5 70t-55.5 21q-33 0 -56 -21t-35.5 -70t-12.5 -133q0 -87 6.5 -156.5
t18.5 -127.5t28 -112h-123z" />
    <glyph glyph-name="uni1C99" unicode="&#x1c99;" horiz-adv-x="521" 
d="M257 -10q-67 0 -116.5 26t-76.5 72t-27 106q0 39 13 81h118q-7 -34 -7 -66q0 -51 23.5 -84t72.5 -33q96 0 96 124q0 67 -27 100t-78 33h-32v103h31q49 0 71 25t22 62t-20.5 59.5t-54.5 24.5v101q86 0 142 -44.5t56 -124.5q0 -56 -27 -95t-79 -54v-3q52 -13 86.5 -60.5
t34.5 -133.5q0 -99 -59 -159t-162 -60z" />
    <glyph glyph-name="uni1C9A" unicode="&#x1c9a;" horiz-adv-x="984" 
d="M596 0q-5 31 -28 53t-55.5 35.5t-68 20t-66.5 6.5q-54 0 -97.5 -12.5t-75.5 -30.5l-42 77q23 13 48.5 22t52.5 12v3q-101 29 -158.5 103t-57.5 198q0 106 46.5 171.5t132.5 65.5q52 0 87.5 -24t49.5 -69h4q13 46 45.5 69.5t78.5 23.5q47 0 79.5 -24.5t44.5 -68.5h4
q30 93 135 93q87 0 134 -67t47 -178q0 -65 -12.5 -117.5t-39.5 -107.5l-112 34q22 45 31 91t9 101q0 140 -73 140q-36 0 -49 -31.5t-13 -74.5v-138h-120v141q0 44 -13.5 73.5t-51.5 29.5t-52 -30.5t-14 -72.5v-141h-118v138q0 45 -13.5 75.5t-49.5 30.5q-73 0 -73 -140
q0 -83 29.5 -136t87.5 -83t142 -43q48 -8 95 -22.5t87 -40t67 -63.5t35 -92h-119z" />
    <glyph glyph-name="uni1C9B" unicode="&#x1c9b;" horiz-adv-x="562" 
d="M277 -10q-110 0 -169.5 70t-59.5 189q0 121 50 186t137 65q94 0 139 -67h5q-2 23 -3 41.5t-1 33.5v40q0 37 -22.5 59t-65.5 22q-38 0 -62.5 -18t-24.5 -50q0 -7 1 -15h-120q-2 9 -2.5 15.5t-0.5 12.5q0 46 28.5 80t76 52t103.5 18q95 0 152.5 -49t57.5 -135v-291
q0 -127 -57 -193t-162 -66zM276 93q53 0 77 40t24 107v24q0 61 -23.5 99t-82.5 38q-49 0 -73.5 -40.5t-24.5 -112.5q0 -73 24.5 -114t78.5 -41z" />
    <glyph glyph-name="uni1C9C" unicode="&#x1c9c;" horiz-adv-x="562" 
d="M286 -10q-106 0 -163 66.5t-57 193.5v283q0 63 26 103t68.5 59t93.5 19h214v-104h-197q-39 0 -61.5 -18t-22.5 -60v-29q0 -13 -1 -29.5t-4 -41.5h5q45 72 141 72q86 0 136 -67t50 -186q0 -120 -59.5 -190.5t-168.5 -70.5zM287 93q54 0 78 41.5t24 113.5t-24 113t-73 41
q-41 0 -64 -19t-33 -51.5t-10 -72.5v-21q0 -63 23 -104t79 -41z" />
    <glyph glyph-name="uni1C9D" unicode="&#x1c9d;" horiz-adv-x="784" 
d="M124 0q-23 62 -38.5 121t-24 127t-8.5 157q0 162 53.5 240.5t144.5 78.5q42 0 81.5 -19t58.5 -72h3q19 52 58.5 71.5t80.5 19.5q91 0 145 -78.5t54 -240.5q0 -88 -8.5 -156t-24.5 -127.5t-39 -121.5h-124q31 85 50.5 181t19.5 223q0 120 -22 168t-60 48q-27 0 -42 -19.5
t-21.5 -51t-6.5 -70.5v-269h-124v269q0 59 -15 100t-57 41q-36 0 -58 -48t-22 -168q0 -126 19.5 -222t50.5 -182h-124z" />
    <glyph glyph-name="uni1C9E" unicode="&#x1c9e;" horiz-adv-x="531" 
d="M262 -10q-67 0 -116 26t-76 72t-27 106q0 39 12 81h119q-8 -34 -8 -66q0 -51 24 -84t72 -33q96 0 96 124q0 62 -30.5 95t-83.5 33h-36v100h41q47 0 67 15.5t20 41.5q0 27 -19.5 44.5t-45.5 33.5q-34 21 -58.5 52t-20.5 83h123q1 -24 19.5 -41.5t45.5 -36.5
q32 -20 56.5 -50.5t24.5 -80.5q0 -41 -26.5 -69.5t-71.5 -39.5v-3q29 -7 56.5 -30t45.5 -61.5t18 -92.5q0 -99 -59 -159t-162 -60z" />
    <glyph glyph-name="uni1C9F" unicode="&#x1c9f;" horiz-adv-x="594" 
d="M305 -10q-68 0 -117 26t-76 72t-27 106q0 39 12 81h119q-4 -18 -6 -34.5t-2 -31.5q0 -51 23.5 -84t72.5 -33q54 0 76 34.5t22 91.5v397q-29 -11 -58.5 -19.5t-63.5 -12.5v-2q27 -13 41 -38t14 -58q0 -56 -43.5 -92.5t-108.5 -36.5q-67 0 -107 35.5t-40 84.5q0 20 6 36h96
q-2 -11 -2 -21q0 -21 12.5 -34t34.5 -13q24 0 36.5 14.5t12.5 38.5q0 26 -14 43t-43 20v94q141 14 247 60h101v-501q0 -105 -57 -164t-161 -59z" />
    <glyph glyph-name="uni1CA0" unicode="&#x1ca0;" horiz-adv-x="749" 
d="M97 0q-19 54 -29.5 99.5t-15 94.5t-4.5 112q0 94 20 172.5t71 133t146 77.5q38 9 95 18t129 17l16 -104q-37 -4 -79 -9.5t-80 -11.5t-62 -12q-51 -12 -91 -37t-57 -75l2 -1q19 22 43 30t49 8q44 0 77 -24.5t46 -72.5h3q30 97 139 97q89 0 137 -69t48 -184
q0 -71 -12.5 -131t-37.5 -128h-122q22 61 34.5 125.5t12.5 130.5q0 75 -16.5 115.5t-57.5 40.5q-38 0 -53 -33.5t-15 -88.5v-129h-119v129q0 57 -14.5 89.5t-51.5 32.5q-42 0 -58.5 -39t-16.5 -119q0 -70 12.5 -132t33.5 -122h-122z" />
    <glyph glyph-name="uni1CA1" unicode="&#x1ca1;" horiz-adv-x="561" 
d="M287 -10q-107 0 -164 64.5t-57 186.5v473h120v-478q0 -63 23.5 -102.5t78.5 -39.5q51 0 75 35.5t24 88.5q0 40 -10.5 68.5t-26.5 56.5q-21 36 -35.5 75t-10.5 93h122q-1 -36 11.5 -67.5t30.5 -63.5q20 -33 32 -71t12 -90q0 -66 -26.5 -118t-76.5 -81.5t-122 -29.5z" />
    <glyph glyph-name="uni1CA2" unicode="&#x1ca2;" horiz-adv-x="703" 
d="M352 -10q-152 0 -228 97t-76 267q0 151 62 239.5t184 105.5q-3 19 -3 39v14h121v-14q0 -10 -0.5 -19.5t-1.5 -18.5q124 -17 184.5 -106.5t60.5 -240.5q0 -112 -33.5 -193.5t-101 -125.5t-168.5 -44zM351 95q177 0 177 257q0 114 -30 174t-93 74q3 -18 4.5 -40.5
t1.5 -46.5v-174h-119v174q0 49 6 86q-64 -14 -93.5 -75.5t-29.5 -171.5q0 -127 45 -192t131 -65z" />
    <glyph glyph-name="uni1CA3" unicode="&#x1ca3;" horiz-adv-x="557" 
d="M275 -10q-72 0 -120.5 29.5t-73.5 77.5t-25 105q0 28 4 52t12 46h119q-5 -18 -8 -41.5t-3 -46.5q0 -47 22 -82t73 -35q53 0 74.5 34t21.5 89v326q0 31 -13.5 53.5t-48.5 22.5q-31 0 -46 -19.5t-15 -53.5v-117h-118v114q0 69 -63 69h-43v107h48q41 0 71 -17.5t45 -56.5h2
q16 38 51 58t86 20q82 0 123 -48.5t41 -121.5v-339q0 -105 -56 -165t-160 -60z" />
    <glyph glyph-name="uni1CA4" unicode="&#x1ca4;" horiz-adv-x="795" 
d="M469 -9q-119 0 -185.5 47.5t-66.5 118.5q0 19 4 36h117q-1 -5 -1 -10v-8q0 -42 36.5 -63.5t96.5 -21.5q69 0 101 30.5t32 76.5q0 40 -19.5 67t-59.5 27h-12v100h22q45 0 67 34.5t22 87.5q0 49 -16.5 79t-55.5 30q-42 0 -57 -33.5t-15 -81.5v-29q0 -59 -23 -111t-71 -85
t-122 -33q-70 0 -118 33t-72.5 87t-24.5 116q0 68 24 122t71.5 85.5t117.5 31.5q51 0 93.5 -22t59.5 -67h4q15 45 54 67t90 22q58 0 99.5 -26.5t63.5 -71.5t22 -101q0 -146 -116 -182v-3q48 -15 72 -53.5t24 -95.5q0 -56 -29.5 -101.5t-87 -72t-141.5 -26.5zM265 351
q48 0 69 38t21 96q0 61 -21 99t-70 38q-48 0 -69.5 -37.5t-21.5 -100.5q0 -57 21.5 -95t70.5 -38z" />
    <glyph glyph-name="uni1CA5" unicode="&#x1ca5;" horiz-adv-x="543" 
d="M263 -10q-67 0 -116.5 26t-76.5 72t-27 105q0 39 12 81h119q-4 -18 -6 -34t-2 -32q0 -50 24 -83.5t73 -33.5q51 0 72.5 36t21.5 96v155q0 64 -22.5 101.5t-70.5 37.5q-35 0 -56.5 -24.5t-21.5 -64.5q0 -23 3 -44h-119q-6 24 -6 56q0 57 23.5 96.5t61 60t79.5 20.5
q87 0 129 -68h4q-4 45 -4 81v84h120v-494q0 -109 -56 -169.5t-158 -60.5z" />
    <glyph glyph-name="uni1CA6" unicode="&#x1ca6;" horiz-adv-x="746" 
d="M444 0q-9 52 -53 78t-99 26q-35 0 -68 -8t-62 -23l-39 79q18 9 42 17.5t55 10.5v3q-82 37 -127 112.5t-45 173.5q0 117 47.5 185.5t137.5 68.5q107 0 138 -94h3q15 47 51 70.5t87 23.5q89 0 137.5 -68t48.5 -183q0 -60 -13 -113t-44 -111l-106 33q22 46 30.5 92t8.5 95
q0 75 -18 114t-60 39q-39 0 -51.5 -34t-12.5 -85v-131h-118v131q0 53 -13 86t-51 33q-41 0 -59.5 -37t-18.5 -116q0 -66 17.5 -111t47 -75t68.5 -49.5t82 -35.5q46 -16 84.5 -42t63 -64t29.5 -91h-120z" />
    <glyph glyph-name="uni1CA7" unicode="&#x1ca7;" horiz-adv-x="552" 
d="M269 -10q-68 0 -117.5 26t-76.5 72t-27 105q0 40 13 81h118q-4 -18 -5.5 -34.5t-1.5 -31.5q0 -50 23.5 -83.5t72.5 -33.5q54 0 76 35.5t22 94.5v79q0 27 0.5 51.5t4.5 57.5h-5q-20 -34 -55.5 -53t-83.5 -19q-81 0 -128.5 55.5t-47.5 153.5q0 51 9 92t24 76h119
q-13 -40 -20.5 -76.5t-7.5 -81.5q0 -55 21.5 -86.5t66.5 -31.5q47 0 75 36t28 112v128h121v-495q0 -107 -57 -168t-161 -61z" />
    <glyph glyph-name="uni1CA8" unicode="&#x1ca8;" horiz-adv-x="561" 
d="M276 -10q-109 0 -168 70t-59 189q0 118 50 182.5t139 64.5q91 0 136 -67h5q-3 23 -4 41.5t-1 33.5v65q0 31 -13.5 46.5t-37.5 15.5q-21 0 -35 -13t-14 -38v-38h-116v29q0 23 -14 38t-40 15q-24 0 -50 -11l-31 91q23 11 47 15.5t47 4.5q32 0 59.5 -14.5t41.5 -48.5h3
q15 34 48.5 48.5t74.5 14.5q39 0 74 -16.5t56 -51t21 -87.5v-320q0 -127 -57 -193t-162 -66zM276 93q53 0 77 40t24 107v23q0 59 -23.5 96.5t-82.5 37.5q-49 0 -73.5 -40t-24.5 -109q0 -73 24.5 -114t78.5 -41z" />
    <glyph glyph-name="uni1CA9" unicode="&#x1ca9;" horiz-adv-x="555" 
d="M66 0v545q0 52 23 92t65 63.5t101 23.5q81 0 133.5 -38t52.5 -109q0 -28 -12 -57t-45 -51v-3q63 -20 93 -77t30 -143q0 -79 -10.5 -141t-26.5 -105h-121q15 41 24.5 101.5t9.5 135.5q0 73 -23 113t-71 40t-75.5 -34t-27.5 -109v-247h-120zM181 416h5q10 18 27 32t38 26
q33 19 51.5 41t18.5 53q0 29 -16.5 45.5t-49.5 16.5q-34 0 -51.5 -23t-17.5 -58v-64q0 -11 -1 -26.5t-4 -42.5z" />
    <glyph glyph-name="uni1CAA" unicode="&#x1caa;" horiz-adv-x="618" 
d="M323 -10q-85 0 -146.5 39t-95 122.5t-33.5 217.5q0 101 18 183.5t50 161.5h120q-32 -87 -47 -166.5t-15 -178.5q0 -145 36.5 -210.5t114.5 -65.5q61 0 93 32.5t32 99.5q0 60 -30.5 92.5t-85.5 32.5h-31v104h41q45 0 69 15.5t24 42.5q0 22 -12 39t-30 35q-22 22 -40 50
t-14 78h121q0 -25 12.5 -42.5t30.5 -35.5q19 -21 37 -46.5t18 -70.5t-29 -74.5t-78 -39.5v-4q50 -10 86 -54.5t36 -129.5q0 -110 -68.5 -168.5t-183.5 -58.5z" />
    <glyph glyph-name="uni1CAB" unicode="&#x1cab;" horiz-adv-x="562" 
d="M277 -10q-108 0 -168.5 70.5t-60.5 195.5q0 127 51 196.5t137 69.5q92 0 139 -76h6q-6 56 -6 90v178h121v-460q0 -131 -57 -197.5t-162 -66.5zM276 94q55 0 78 43t23 109v20q0 37 -8 71.5t-30.5 56.5t-67.5 22q-48 0 -72.5 -42t-24.5 -120q0 -76 24.5 -118t77.5 -42z" />
    <glyph glyph-name="uni1CAC" unicode="&#x1cac;" horiz-adv-x="561" 
d="M284 -10q-104 0 -161 66t-57 193v320q0 53 21 87.5t55.5 51t73.5 16.5q42 0 75.5 -14.5t48.5 -48.5h3q14 34 41.5 48.5t59.5 14.5q22 0 46.5 -4.5t47.5 -15.5l-30 -91q-14 5 -25.5 8t-26.5 3q-25 0 -39 -15t-14 -38v-29h-116v38q0 25 -14 38t-36 13q-23 0 -36.5 -15.5
t-13.5 -46.5v-65q0 -15 -1.5 -33.5t-3.5 -41.5h5q45 67 135 67q89 0 140 -64.5t51 -182.5q0 -120 -59.5 -189.5t-169.5 -69.5zM286 93q54 0 78.5 41t24.5 114q0 69 -24.5 109t-73.5 40q-57 0 -81.5 -37t-24.5 -97v-23q0 -66 24 -106.5t77 -40.5z" />
    <glyph glyph-name="uni1CAD" unicode="&#x1cad;" horiz-adv-x="568" 
d="M301 -10q-64 0 -113 23.5t-76 66.5t-27 102q0 10 1.5 23t4.5 27h116q-1 -10 -1.5 -18t-0.5 -15q0 -50 24.5 -79t70.5 -29q50 0 72 31.5t22 78.5q0 38 -11 66.5t-25.5 54.5t-24.5 57h-3q-22 -34 -58.5 -48t-74.5 -14q-42 0 -77 18t-56 50.5t-21 76.5q0 66 46 105.5
t120 39.5h79v107h121v-107h88v-99h-80v-19q0 -33 15.5 -65t35.5 -66t35.5 -73.5t15.5 -87.5q0 -61 -26 -107.5t-75 -73t-117 -26.5zM222 411q33 0 51 16.5t18 44.5v40h-63q-32 0 -51 -12.5t-19 -37.5t18.5 -38t45.5 -13z" />
    <glyph glyph-name="uni1CAE" unicode="&#x1cae;" horiz-adv-x="562" 
d="M284 -10q-104 0 -161 67t-57 197v460h120v-178q0 -18 -1.5 -41.5t-3.5 -48.5h5q47 76 139 76q87 0 137.5 -70t50.5 -196q0 -125 -60 -195.5t-169 -70.5zM286 94q53 0 77.5 42t24.5 118q0 77 -24.5 119.5t-73.5 42.5q-42 0 -65 -21t-31.5 -55.5t-8.5 -73.5v-20
q0 -68 24 -110t77 -42z" />
    <glyph glyph-name="uni1CAF" unicode="&#x1caf;" horiz-adv-x="527" 
d="M263 -10q-67 0 -116.5 26t-76.5 72t-27 106q0 39 12 81h119q-8 -34 -8 -66q0 -51 24 -84.5t72 -33.5t72.5 25.5t24.5 64.5q0 42 -22 70t-49 53q-39 38 -62.5 81.5t-23.5 100.5v37l-148 28v95l148 -27v95h122v-121l148 -27v-96l-148 28v-15q0 -41 23 -70t57 -64
q32 -31 56 -71.5t24 -97.5q0 -55 -26.5 -98t-76 -67.5t-118.5 -24.5z" />
    <glyph glyph-name="uni1CB0" unicode="&#x1cb0;" horiz-adv-x="524" 
d="M257 -10q-72 0 -120 23.5t-72 61t-24 81.5q0 21 6 45h115q-1 -7 -1.5 -14t-0.5 -15q0 -30 21 -56t75 -26q48 0 71.5 21t23.5 51q0 33 -23.5 53.5t-71.5 20.5h-35v97h54q32 0 50 10t18 34q0 20 -17.5 31.5t-49.5 11.5h-55v97h49q31 0 44.5 9t13.5 24q0 18 -17.5 27.5
t-37.5 18.5q-21 9 -41.5 23t-33.5 36.5t-12 58.5h122q1 -19 17 -31.5t48 -27.5q29 -15 53.5 -37.5t24.5 -60.5q0 -32 -20 -53.5t-67 -29.5v-2q45 -3 73 -29t28 -66q0 -42 -27 -64.5t-74 -29.5v-2q49 -9 80.5 -43.5t31.5 -87.5q0 -71 -59 -115.5t-160 -44.5z" />
    <glyph glyph-name="uni1CB1" unicode="&#x1cb1;" horiz-adv-x="622" 
d="M341 -9q-139 0 -216 89t-77 287q0 99 17 184t50 163h120q-32 -88 -46.5 -171t-14.5 -176q0 -143 40.5 -209.5t127.5 -66.5q50 0 78.5 19.5t28.5 53.5q0 33 -24 53t-70 20h-36v96h44q35 0 56 9t21 35q0 43 -77 43h-44v96h41q29 0 47 8.5t18 30.5q0 19 -11.5 30t-25.5 22
q-21 16 -39.5 40.5t-14.5 66.5h122q0 -21 12 -35.5t29 -27.5q20 -16 36 -37t16 -55q0 -71 -86 -87v-2q43 -3 71.5 -29t28.5 -65q0 -40 -27 -64t-73 -30v-2q50 -8 80 -40t30 -86q0 -47 -28 -83.5t-80 -58t-124 -21.5z" />
    <glyph glyph-name="uni1CB2" unicode="&#x1cb2;" horiz-adv-x="558" 
d="M82 0v103q26 2 51.5 7.5t54.5 16.5v2q-69 59 -104.5 142.5t-35.5 172.5q0 136 62 208t169 72t169 -72t62 -208q0 -89 -35 -172.5t-104 -142.5v-2q28 -11 53 -16.5t53 -7.5v-103q-58 3 -107 17t-91 36q-43 -23 -92 -36.5t-105 -16.5zM279 181q50 45 77.5 112t27.5 154
q0 90 -29 131t-76 41t-76 -40.5t-29 -131.5q0 -86 27.5 -153.5t77.5 -112.5z" />
    <glyph glyph-name="uni1CB3" unicode="&#x1cb3;" horiz-adv-x="536" 
d="M268 -10q-69 0 -119.5 26t-78 72t-27.5 106q0 39 12 81h119q-8 -34 -8 -66q0 -51 24.5 -84.5t77.5 -33.5q51 0 75.5 32.5t24.5 90.5q0 76 -34.5 106t-87.5 30h-57v85l135 176h-251v103h395v-89l-149 -190q48 -7 87.5 -32.5t63 -73t23.5 -117.5q0 -66 -27 -116t-77 -78
t-121 -28z" />
    <glyph glyph-name="uni1CB4" unicode="&#x1cb4;" horiz-adv-x="521" 
d="M259 -10q-72 0 -120 23.5t-72 61t-24 81.5q0 21 6 45h115q-1 -7 -1.5 -14t-0.5 -15q0 -30 21.5 -56t75.5 -26q47 0 70.5 21t23.5 51q0 33 -23.5 53.5t-70.5 20.5h-34v97h54q31 0 48.5 10.5t17.5 30.5q0 25 -27 37.5t-61 24.5q-36 13 -72.5 31t-61 48t-24.5 78
q0 60 50.5 95.5t130.5 35.5q44 0 82.5 -10t72.5 -33l-42 -84q-29 16 -55.5 22.5t-52.5 6.5q-30 0 -48 -8t-18 -25q0 -24 24 -36.5t65 -26.5q36 -12 72.5 -29t61.5 -45t25 -74q0 -39 -27 -65.5t-74 -33.5v-2q49 -9 80.5 -43t31.5 -88q0 -71 -59 -115.5t-160 -44.5z" />
    <glyph glyph-name="uni1CB5" unicode="&#x1cb5;" horiz-adv-x="578" 
d="M257 -10q-96 0 -152.5 43.5t-56.5 120.5q0 79 57 122t155 43h83v85h-87q-96 0 -150 41t-54 118t57 119t150 42q92 0 148.5 -45t56.5 -128v-50h86v-97h-86v-85h86v-97h-86v-55q0 -86 -54.5 -131.5t-152.5 -45.5zM263 501h80v47q0 38 -21 59t-63 21q-40 0 -61 -17t-21 -47
q0 -33 23.5 -48t62.5 -15zM257 86q45 0 65.5 22.5t20.5 58.5v55h-77q-43 0 -67.5 -16.5t-24.5 -51.5q0 -33 22 -50.5t61 -17.5z" />
    <glyph glyph-name="uni1CB6" unicode="&#x1cb6;" horiz-adv-x="737" 
d="M426 724v-88q90 -1 148 -36t86 -95t28 -134q0 -75 -27.5 -136.5t-85.5 -97.5t-149 -37v-110h-115v110q-92 0 -150 36.5t-85.5 98t-27.5 136.5q0 73 27.5 133t85.5 96t150 36v88h115zM311 536q-76 -1 -110.5 -44t-34.5 -120q0 -171 145 -173v337zM426 536v-337
q73 1 108.5 45.5t35.5 127.5q0 78 -34.5 120.5t-109.5 43.5z" />
    <glyph glyph-name="uni1CB7" unicode="&#x1cb7;" horiz-adv-x="518" 
d="M261 -10q-96 0 -157 52t-61 147q0 65 26 107t65.5 69.5t81.5 48.5q56 28 91 56t35 77q0 37 -21.5 58.5t-56.5 21.5q-39 0 -59 -22t-20 -53q0 -19 3 -31h-123q-1 8 -2 17.5t-1 21.5q0 46 23.5 83t68.5 59t109 22q61 0 106 -23t70 -63.5t25 -92.5q0 -63 -25 -104.5
t-65 -69.5t-85 -50q-50 -26 -85.5 -55.5t-35.5 -81.5q0 -47 25.5 -71t65.5 -24q41 0 66.5 25t25.5 74q0 18 -3 36h122q5 -23 5 -43q0 -92 -59 -141.5t-155 -49.5z" />
    <glyph glyph-name="uni1CB8" unicode="&#x1cb8;" horiz-adv-x="552" 
d="M283 -10q68 0 117.5 26t76.5 72t27 105q0 40 -13 81h-118q4 -18 5.5 -34.5t1.5 -31.5q0 -50 -23.5 -83.5t-72.5 -33.5q-54 0 -76 35.5t-22 94.5v79q0 27 -0.5 51.5t-4.5 57.5h5q20 -34 55.5 -53t83.5 -19q81 0 128.5 55.5t47.5 153.5q0 51 -9 92t-24 76h-119
q13 -40 20.5 -76.5t7.5 -81.5q0 -55 -21.5 -86.5t-66.5 -31.5q-47 0 -75 36t-28 112v128h-121v-495q0 -107 57 -168t161 -61z" />
    <glyph glyph-name="uni1CB9" unicode="&#x1cb9;" horiz-adv-x="544" 
d="M273 724q70 0 121.5 -34t79 -91.5t27.5 -128.5q0 -105 -53.5 -170t-153.5 -79q-50 -7 -66.5 -27.5t-16.5 -49.5q0 -27 17 -43.5t48 -16.5q29 0 46.5 16t17.5 41q0 14 -3 30h115q5 -21 5 -43q0 -39 -22.5 -70t-63.5 -49.5t-96 -18.5q-86 0 -134.5 41.5t-48.5 104.5
q0 35 16.5 66.5t56.5 49.5v3q-57 23 -89.5 75.5t-32.5 139.5q0 70 26.5 127.5t77.5 92t126 34.5zM271 619q-48 0 -75 -40t-27 -109q0 -68 27 -106.5t76 -38.5q48 0 75.5 38.5t27.5 107.5q0 68 -27.5 108t-76.5 40z" />
    <glyph glyph-name="uni1CBA" unicode="&#x1cba;" horiz-adv-x="464" 
d="M111 -10v112l86 38v4q-64 21 -106.5 90.5t-42.5 181.5q0 94 30 163.5t84 107t127 37.5q40 0 79 -10t72 -31l-39 -96q-54 32 -98 32q-65 0 -96.5 -59t-31.5 -151q0 -98 34 -152.5t96 -54.5q30 0 56 8t59 26v-113z" />
    <glyph glyph-name="uni1CBD" unicode="&#x1cbd;" horiz-adv-x="517" 
d="M257 -10q-96 0 -155 49.5t-59 141.5q0 20 5 43h122q-2 -7 -2.5 -16.5t-0.5 -19.5q0 -49 25.5 -74t66.5 -25q40 0 65 24t25 71q0 34 -16.5 57t-44 40.5t-59.5 33.5q-45 23 -85 50.5t-65.5 70t-25.5 109.5q0 52 24.5 92.5t69 63.5t105.5 23q64 0 109.5 -22t69 -59t23.5 -83
q0 -12 -1 -21.5t-3 -17.5h-122q3 12 3 31q0 31 -20 53t-59 22q-36 0 -57 -21.5t-21 -58.5q0 -35 17 -59t46 -42.5t66 -36.5q41 -21 80.5 -48t65 -68t25.5 -103q0 -96 -60.5 -148t-156.5 -52z" />
    <glyph glyph-name="uni1CBE" unicode="&#x1cbe;" horiz-adv-x="558" 
d="M82 714q56 -3 105 -16.5t92 -36.5q42 22 91 36t107 17v-103q-28 -2 -53 -7.5t-53 -16.5v-2q69 -59 104 -142.5t35 -172.5q0 -136 -62 -208t-169 -72t-169 72t-62 208q0 89 35.5 172.5t104.5 142.5v2q-29 11 -54.5 16.5t-51.5 7.5v103zM279 533q-50 -45 -77.5 -112.5
t-27.5 -153.5q0 -91 29 -131.5t76 -40.5t76 41t29 131q0 87 -27.5 154t-77.5 112z" />
    <glyph glyph-name="uni1CBF" unicode="&#x1cbf;" horiz-adv-x="587" 
d="M293 -10q-121 0 -180.5 90.5t-59.5 276.5q0 188 60 277.5t180 89.5q122 0 181.5 -90.5t59.5 -276.5q0 -188 -60 -277.5t-181 -89.5zM293 94q59 0 87 62t28 201q0 141 -28.5 202t-86.5 61t-86.5 -62t-28.5 -201q0 -141 29 -202t86 -61z" />
    <glyph glyph-name="uni2010" unicode="&#x2010;" horiz-adv-x="302" 
d="M29 215v107h243v-107h-243z" />
    <glyph glyph-name="uni20BE" unicode="&#x20be;" horiz-adv-x="644" 
d="M94 0v87l83 9v4q-62 45 -92.5 116.5t-30.5 161.5q0 123 49.5 205.5t139.5 109.5v77h56v-67q13 1 26 1t25 -1v67h56v-77q93 -26 141 -114t48 -229h-122q0 101 -15.5 158.5t-51.5 82.5v-241h-56v260q-11 2 -25 2t-26 -2v-260h-56v240q-35 -25 -51.5 -78.5t-16.5 -143.5
q0 -127 49.5 -196.5t133.5 -69.5h197v-102h-461z" />
    <glyph glyph-name="uni2D00" unicode="&#x2d00;" horiz-adv-x="596" 
d="M308 0q-89 0 -131 41.5t-42 137.5v206q0 35 -15 49t-45 14h-63v95h120q38 0 67 -16t42 -56h6q20 40 55 61t80 21q74 0 114.5 -48t40.5 -145v-112h-116v84q0 60 -16.5 90.5t-55.5 30.5q-55 0 -76.5 -42.5t-21.5 -131.5v-89q0 -53 21 -74t67 -21h171v-95h-202z" />
    <glyph glyph-name="uni2D01" unicode="&#x2d01;" horiz-adv-x="560" 
d="M290 -250q-57 0 -103.5 9t-90.5 26v101q45 -20 89.5 -30t96.5 -10q78 0 113.5 25t35.5 74q0 27 -5.5 46.5t-15.5 34.5q-12 20 -19.5 38.5t-11.5 40.5h-4q-18 -51 -59.5 -83t-99.5 -32q-73 0 -113.5 48t-40.5 143v362h116v-333q0 -64 18.5 -92t56.5 -28q50 0 74 40.5
t24 131.5v281h115v-353q0 -38 11.5 -65t26.5 -52q17 -27 29.5 -57.5t12.5 -75.5q0 -190 -256 -190z" />
    <glyph glyph-name="uni2D02" unicode="&#x2d02;" horiz-adv-x="565" 
d="M292 -250q-57 0 -103.5 9t-90.5 26v101q46 -20 90 -30t95 -10q79 0 114.5 25.5t35.5 74.5q0 31 -11 55t-25 47q-17 26 -31 58.5t-14 82.5v142q0 60 -16.5 90.5t-55.5 30.5q-55 0 -76.5 -44t-21.5 -140v-268h-116v543h92l13 -72h7q20 40 55 61t80 21q75 0 115.5 -48
t40.5 -145v-162q0 -38 11 -65.5t27 -52.5q17 -27 30.5 -59.5t13.5 -80.5q0 -94 -66 -142t-193 -48z" />
    <glyph glyph-name="uni2D03" unicode="&#x2d03;" horiz-adv-x="510" 
d="M253 -10q-99 0 -156 67.5t-57 186.5q0 111 46.5 173.5t118.5 93.5q-14 21 -20.5 50t-6.5 63v39h-121v97h391v-97h-156v-36q0 -33 12 -59.5t40 -52.5q43 -41 70.5 -79t41 -84.5t13.5 -110.5q0 -123 -57.5 -187t-158.5 -64zM254 86q45 0 70 37.5t25 118.5q0 61 -16 100.5
t-47 70.5l-13.5 13.5t-10.5 12.5q-46 -21 -74 -65.5t-28 -129.5q0 -81 24.5 -119.5t69.5 -38.5z" />
    <glyph glyph-name="uni2D04" unicode="&#x2d04;" 
d="M312 553q75 0 115.5 -48t40.5 -145v-600h-116v572q0 60 -16.5 90.5t-55.5 30.5q-55 0 -76.5 -44.5t-21.5 -140.5v-268h-116v543h91l14 -71h7q20 40 55.5 60.5t78.5 20.5z" />
    <glyph glyph-name="uni2D05" unicode="&#x2d05;" horiz-adv-x="795" 
d="M582 553q75 0 112.5 -47.5t37.5 -147.5v-358h-116v330q0 123 -69 123q-50 0 -70 -43t-20 -126v-524h-116v571q0 63 -17 92.5t-52 29.5q-53 0 -71.5 -49t-18.5 -137v-267h-116v543h91l14 -71h7q18 40 53 60.5t80 20.5q51 0 83 -22t46 -60h8q41 82 134 82z" />
    <glyph glyph-name="uni2D06" unicode="&#x2d06;" horiz-adv-x="597" 
d="M382 552q82 0 128 -72.5t46 -206.5q0 -131 -53 -207t-158 -76q-100 0 -155 70.5t-55 210.5v331q0 35 -15 49.5t-45 14.5h-63v94h109q48 0 76.5 -17.5t41 -46t12.5 -60.5v-70q0 -19 -1.5 -43t-2.5 -52h4q46 81 131 81zM346 87q50 0 71 48t21 138q0 181 -90 181
q-54 0 -75.5 -44t-21.5 -125v-17q0 -181 95 -181z" />
    <glyph glyph-name="uni2D07" unicode="&#x2d07;" horiz-adv-x="793" 
d="M212 -10q-149 0 -149 193v360h89l14 -78h7q16 38 50.5 63t85.5 25q53 0 84.5 -24t44.5 -63h7q19 40 52.5 63.5t82.5 23.5q74 0 111.5 -46.5t37.5 -144.5v-362h-115v331q0 122 -71 122q-89 0 -89 -163v-290h-90l-14 80h-5q-18 -39 -50 -64.5t-83 -25.5zM246 90
q50 0 71.5 44t21.5 131v61q0 67 -18 97t-52 30q-48 0 -69.5 -44t-21.5 -122v-72q0 -64 15.5 -94.5t52.5 -30.5z" />
    <glyph glyph-name="uni2D08" unicode="&#x2d08;" horiz-adv-x="381" 
d="M202 0v348q0 51 -18 74.5t-65 23.5h-107v97h122q101 0 142.5 -46.5t41.5 -143.5v-353h-116z" />
    <glyph glyph-name="uni2D09" unicode="&#x2d09;" horiz-adv-x="545" 
d="M365 -240v216q0 19 1.5 42.5t3.5 52.5h-5q-46 -81 -130 -81q-83 0 -127.5 73t-44.5 207v490h116v-194q0 -19 -1.5 -42.5t-3.5 -51.5h5q45 80 130 80q83 0 127.5 -73.5t44.5 -207.5v-511h-116zM269 88q54 0 75 45t21 127v17q0 80 -20.5 128.5t-69.5 48.5
q-53 0 -74.5 -44.5t-21.5 -125.5v-16q0 -180 90 -180z" />
    <glyph glyph-name="uni2D0A" unicode="&#x2d0a;" horiz-adv-x="796" 
d="M490 -10q-149 0 -149 193v143q0 67 -17.5 97t-52.5 30q-47 0 -68.5 -45t-21.5 -132v-276h-115v543h89l14 -78h7q17 38 50.5 63t85.5 25q53 0 84.5 -24t44.5 -63h7q19 40 52.5 63.5t82.5 23.5q73 0 111 -46.5t38 -144.5v-362h-90l-13 80h-6q-19 -40 -50.5 -65t-82.5 -25z
M524 90q50 0 71.5 44t21.5 131v66q0 122 -71 122q-89 0 -89 -160v-78q0 -64 15 -94.5t52 -30.5z" />
    <glyph glyph-name="uni2D0B" unicode="&#x2d0b;" horiz-adv-x="525" 
d="M251 -10q-71 0 -118 35t-70 98t-23 147q0 135 52 204t151 69h103v33q0 47 -15.5 68t-59.5 21h-177v95h186q96 0 139 -44t43 -136v-311q0 -142 -54 -210.5t-157 -68.5zM252 87q51 0 72.5 46t21.5 133v179h-86q-57 0 -79.5 -40t-22.5 -134q0 -184 94 -184z" />
    <glyph glyph-name="uni2D0C" unicode="&#x2d0c;" horiz-adv-x="530" 
d="M63 0v562q0 100 45.5 149t148.5 49h181v-95h-175q-48 0 -66.5 -26.5t-18.5 -78.5v-29q0 -17 -1.5 -35t-4.5 -35h6q18 39 50 63.5t83 24.5q75 0 115 -49.5t40 -142.5v-357h-115v325q0 64 -18.5 94.5t-53.5 30.5q-51 0 -76 -44.5t-25 -140.5v-265h-115z" />
    <glyph glyph-name="uni2D0D" unicode="&#x2d0d;" horiz-adv-x="794" 
d="M212 -10q-74 0 -111.5 46.5t-37.5 144.5v362h115v-331q0 -63 18 -93t51 -30q91 0 91 164v290h115v-326q0 -67 17.5 -97.5t51.5 -30.5q49 0 70.5 45.5t21.5 131.5v277h115v-543h-90l-14 77h-6q-17 -37 -51 -62t-85 -25q-54 0 -85 24t-44 62h-7q-19 -40 -52.5 -63
t-82.5 -23z" />
    <glyph glyph-name="uni2D0E" unicode="&#x2d0e;" horiz-adv-x="604" 
d="M424 543h115v-543h-90l-13 80h-6q-19 -40 -52.5 -65t-86.5 -25q-77 0 -116.5 49t-39.5 144v202q0 35 -15 49t-45 14h-63v95h109q48 0 76.5 -17.5t41 -46t12.5 -60.5v-204q0 -64 17 -94.5t57 -30.5q54 0 76.5 44t22.5 131v278z" />
    <glyph glyph-name="uni2D0F" unicode="&#x2d0f;" horiz-adv-x="604" 
d="M424 -240v205q0 31 3.5 59t7.5 56h-5q-19 -40 -52.5 -65t-86.5 -25q-77 0 -116.5 49t-39.5 144v202q0 35 -15 49t-45 14h-63v95h109q48 0 76.5 -17.5t41 -46t12.5 -60.5v-204q0 -64 17 -94.5t57 -30.5q54 0 76.5 44t22.5 131v278h115v-783h-115z" />
    <glyph glyph-name="uni2D10" unicode="&#x2d10;" horiz-adv-x="793" 
d="M211 -10q-148 0 -148 193v360h115v-328q0 -64 15.5 -94.5t54.5 -30.5q48 0 69 44t21 131v495h116v-186q0 -32 -2 -59t-7 -50h6q17 38 49.5 63t83.5 25q71 0 108 -49.5t37 -143.5v-360h-115v328q0 64 -16 94.5t-53 30.5q-47 0 -69 -44t-22 -141v-268h-92l-13 80h-5
q-19 -40 -51.5 -65t-81.5 -25z" />
    <glyph glyph-name="uni2D11" unicode="&#x2d11;" horiz-adv-x="531" 
d="M218 -10q-76 0 -115.5 49t-39.5 144v577h115v-545q0 -125 73 -125q55 0 77.5 44t22.5 131v278h115v-543h-89l-14 80h-6q-18 -40 -52 -65t-87 -25z" />
    <glyph glyph-name="uni2D12" unicode="&#x2d12;" horiz-adv-x="528" 
d="M310 553q83 0 130 -74t47 -210q0 -133 -46 -206t-127 -73q-87 0 -132 83h-5q5 -41 5 -77v-23q0 -67 30.5 -97t87.5 -30q80 0 158 40v-101q-68 -35 -158 -35q-121 0 -177.5 64.5t-56.5 184.5v544h98l11 -70h6q24 42 55.5 61t73.5 19zM279 454q-52 0 -75.5 -42.5
t-23.5 -137.5v-24q0 -84 24 -123t73 -39q46 0 69 44t23 135q0 187 -90 187z" />
    <glyph glyph-name="uni2D13" unicode="&#x2d13;" horiz-adv-x="794" 
d="M614 -240v205q0 26 2.5 51.5t8.5 60.5h-6q-17 -37 -51 -62t-85 -25q-54 0 -84.5 24t-43.5 61h-9q-19 -38 -52 -61.5t-82 -23.5q-74 0 -111.5 46.5t-37.5 144.5v362h115v-331q0 -63 18 -93t53 -30q89 0 89 164v290h115v-326q0 -67 18 -97.5t52 -30.5q48 0 69.5 45.5
t21.5 131.5v494h115v-1000h-115z" />
    <glyph glyph-name="uni2D14" unicode="&#x2d14;" horiz-adv-x="777" 
d="M331 -240v210q0 27 1 54t4 52h-5q-16 -39 -47 -62.5t-77 -23.5q-78 0 -122.5 74t-44.5 209q0 133 44.5 206.5t124.5 73.5q47 0 75.5 -23t46.5 -60h6l17 73h68l18 -73h6q18 37 46.5 60t75.5 23q80 0 124 -73.5t44 -206.5q0 -135 -44 -209t-122 -74q-46 0 -77 23.5
t-47 62.5h-5q3 -25 4.5 -52t1.5 -54v-210h-116zM244 88q43 0 66 39.5t23 126.5v39q0 164 -89 164q-87 0 -87 -184q0 -91 22.5 -138t64.5 -47zM534 88q42 0 64 47t22 138q0 184 -87 184q-88 0 -88 -164v-39q0 -87 22.5 -126.5t66.5 -39.5z" />
    <glyph glyph-name="uni2D15" unicode="&#x2d15;" horiz-adv-x="419" 
d="M151 -240v688h-139v95h139v217h116v-217h139v-95h-139v-688h-116z" />
    <glyph glyph-name="uni2D16" unicode="&#x2d16;" 
d="M312 553q75 0 115.5 -48t40.5 -145v-360h-116v332q0 60 -16.5 90.5t-55.5 30.5q-55 0 -76.5 -44.5t-21.5 -140.5v-268h-116v543h91l14 -71h7q20 40 55.5 60.5t78.5 20.5z" />
    <glyph glyph-name="uni2D17" unicode="&#x2d17;" horiz-adv-x="531" 
d="M351 -240v205q0 31 4 59.5t8 55.5h-6q-18 -40 -52 -65t-87 -25q-76 0 -115.5 49t-39.5 144v360h115v-328q0 -64 17.5 -94.5t56.5 -30.5q54 0 76.5 44t22.5 131v278h115v-783h-115z" />
    <glyph glyph-name="uni2D18" unicode="&#x2d18;" horiz-adv-x="531" 
d="M252 -250q-51 0 -92 8.5t-78 24.5v99q37 -17 75.5 -26.5t83.5 -9.5q112 0 112 130v18q0 18 2 38.5t6 46.5h-6q-18 -39 -51 -64t-86 -25q-76 0 -115.5 49t-39.5 144v360h115v-328q0 -64 17.5 -94.5t56.5 -30.5q54 0 76.5 44t22.5 131v278h115v-553q0 -124 -54.5 -182
t-159.5 -58z" />
    <glyph glyph-name="uni2D19" unicode="&#x2d19;" horiz-adv-x="533" 
d="M66 -240v1000h115v-186q0 -29 -2 -55t-6 -55h7q17 39 50 64t84 25q75 0 115 -49.5t40 -143.5v-360h-115v328q0 64 -18.5 94.5t-53.5 30.5q-51 0 -76 -44t-25 -141v-508h-115z" />
    <glyph glyph-name="uni2D1A" unicode="&#x2d1a;" horiz-adv-x="533" 
d="M273 -250q-106 0 -156.5 57.5t-50.5 179.5v556h90l13 -81h7q18 41 52.5 66t86.5 25q74 0 114 -48.5t40 -142.5v-362h-115v329q0 63 -17.5 93.5t-56.5 30.5q-50 0 -74.5 -42t-24.5 -139v-290q0 -72 27 -104t83 -32q44 0 81.5 9.5t75.5 26.5v-99q-38 -16 -81 -24.5
t-94 -8.5z" />
    <glyph glyph-name="uni2D1B" unicode="&#x2d1b;" horiz-adv-x="783" 
d="M208 -10q-80 0 -124 74t-44 206q0 134 44 208.5t123 74.5q45 0 76.5 -23.5t48.5 -62.5h5q-4 27 -5 54t-1 55v184h115v-186q0 -31 -2 -58t-7 -50h5q18 37 48 62t80 25q74 0 111.5 -49.5t37.5 -143.5v-360h-115v328q0 64 -16 94.5t-51 30.5q-47 0 -69 -44t-22 -141v-268
h-91l-18 73h-6q-18 -38 -47.5 -60.5t-75.5 -22.5zM244 86q89 0 89 164v39q0 87 -23.5 126.5t-66.5 39.5q-42 0 -63.5 -47t-21.5 -138q0 -184 86 -184z" />
    <glyph glyph-name="uni2D1C" unicode="&#x2d1c;" horiz-adv-x="796" 
d="M66 -240v783h89l14 -78h7q17 38 50.5 63t85.5 25q53 0 84 -24t44 -61h9q19 39 52 62t82 23q73 0 111 -46.5t38 -144.5v-362h-115v331q0 122 -71 122q-89 0 -89 -163v-290h-116v326q0 67 -17.5 97t-52.5 30q-47 0 -68.5 -45t-21.5 -132v-516h-115z" />
    <glyph glyph-name="uni2D1D" unicode="&#x2d1d;" horiz-adv-x="527" 
d="M240 -250q-52 0 -94 8.5t-80 25.5v98q38 -18 76 -27.5t83 -9.5q68 0 96.5 24.5t28.5 62.5q0 72 -105 72h-179v539h89l16 -72h6q42 82 135 82q75 0 115.5 -48t40.5 -145v-112h-116v84q0 60 -16.5 90.5t-55.5 30.5q-55 0 -76.5 -43t-21.5 -131v-181h93q53 0 96.5 -17.5
t69.5 -54t26 -91.5q0 -85 -56.5 -135t-170.5 -50z" />
    <glyph glyph-name="uni2D1E" unicode="&#x2d1e;" horiz-adv-x="533" 
d="M274 -250q-105 0 -156.5 56.5t-51.5 175.5v561h115v-277q0 -88 22.5 -132t76.5 -44q39 0 56.5 31t17.5 95v327h115v-359q0 -94 -40 -144t-116 -50q-53 0 -85.5 23.5t-50.5 63.5h-5q4 -29 5 -52t1 -50q0 -65 26.5 -97t85.5 -32q44 0 82.5 9.5t77.5 26.5v-99
q-38 -16 -81 -24.5t-95 -8.5z" />
    <glyph glyph-name="uni2D1F" unicode="&#x2d1f;" horiz-adv-x="480" 
d="M-37 -240l237 470l-127 219h-61v94h450v-81l-127 -231l138 -231h-124l-79 148l-187 -388h-120zM269 300l77 151h-157z" />
    <glyph glyph-name="uni2D20" unicode="&#x2d20;" horiz-adv-x="796" 
d="M489 -10q-147 0 -147 193v146q0 64 -15.5 94t-53.5 30q-45 0 -68.5 -42t-23.5 -139v-272h-115v543h89l13 -88h4q18 44 52.5 71t85.5 27q147 0 147 -191v-147q0 -64 15.5 -94.5t53.5 -30.5q47 0 68.5 44t21.5 131v278h115v-543h-90l-14 80h-6q-18 -39 -49 -64.5t-83 -25.5
z" />
    <glyph glyph-name="uni2D21" unicode="&#x2d21;" horiz-adv-x="483" 
d="M66 -240v1000h115v-284h3q16 34 44.5 55t70.5 21q106 0 106 -134q0 -33 9.5 -46.5t32.5 -13.5h23v-95h-58q-62 0 -92 32.5t-30 91.5q0 33 -9 49.5t-32 16.5q-32 0 -50 -36.5t-18 -105.5v-551h-115z" />
    <glyph glyph-name="uni2D22" unicode="&#x2d22;" horiz-adv-x="515" 
d="M255 -10q-67 0 -115 25.5t-74 71t-26 105.5q0 35 10 72h112q-3 -14 -4 -27.5t-1 -26.5q0 -55 25 -90t71 -35q54 0 78.5 47.5t24.5 135.5q0 92 -30.5 136.5t-98.5 44.5h-173v94h179q124 0 182.5 -70.5t58.5 -201.5q0 -133 -55 -207t-164 -74z" />
    <glyph glyph-name="uni2D23" unicode="&#x2d23;" horiz-adv-x="531" 
d="M351 -240v205q0 33 4 61.5t8 53.5h-6q-18 -40 -52 -65t-87 -25q-76 0 -115.5 49t-39.5 144v360h115v-328q0 -64 17.5 -94.5t56.5 -30.5q54 0 76.5 44t22.5 131v495h115v-1000h-115z" />
    <glyph glyph-name="uni2D24" unicode="&#x2d24;" horiz-adv-x="529" 
d="M208 -240v235q-73 13 -109 70.5t-36 152.5v325h115v-325q0 -68 22.5 -100.5t65.5 -32.5q42 0 63 32.5t21 100.5v325h115v-326q0 -95 -36 -151.5t-106 -70.5v-235h-115z" />
    <glyph glyph-name="uni2D25" unicode="&#x2d25;" horiz-adv-x="783" 
d="M570 553q74 0 111.5 -49.5t37.5 -143.5v-360h-115v328q0 64 -16 94.5t-51 30.5q-47 0 -69 -44t-22 -141v-268h-91l-18 73h-6q-18 -38 -47.5 -60.5t-75.5 -22.5q-80 0 -124 74t-44 206q0 134 44 208.5t123 74.5q45 0 76.5 -23.5t48.5 -62.5h5q-4 27 -5 54t-1 52v25
q0 74 45.5 118t144.5 44h175v-95h-168q-46 0 -64 -21.5t-18 -59.5v-25q0 -20 -2 -45t-7 -48h5q18 37 48 62t80 25zM333 250v39q0 88 -23.5 127t-66.5 39q-42 0 -63.5 -47t-21.5 -138q0 -184 86 -184q89 0 89 164z" />
    <glyph glyph-name="uni2D27" unicode="&#x2d27;" horiz-adv-x="471" 
d="M237 -250q-89 0 -145.5 54t-56.5 154q0 69 23.5 117.5t60.5 83.5t80 65q38 27 63 48.5t36.5 45t11.5 57.5q0 38 -18.5 59.5t-50.5 21.5q-34 0 -52.5 -23t-18.5 -59q0 -22 5 -37h-116q-4 19 -4 45q0 73 49 121.5t137 48.5q90 0 137.5 -49t47.5 -127q0 -53 -16.5 -92.5
t-50.5 -73t-86 -70.5q-36 -25 -62.5 -50.5t-41.5 -57.5t-15 -78q0 -53 23 -80.5t58 -27.5q36 0 59.5 28t23.5 84q0 36 -9 65h117q9 -33 9 -71q0 -99 -54.5 -150.5t-143.5 -51.5z" />
    <glyph glyph-name="uni2D2D" unicode="&#x2d2d;" horiz-adv-x="382" 
d="M358 0h-333v73l196 375h-184v95h313v-80l-191 -368h199v-95z" />
    <glyph glyph-name="macroncomb" horiz-adv-x="600" 
d="M94 0v714h411v-714h-411zM145 51h309v612h-309v-612z" />
    <glyph glyph-name="uni1C90_uni0308.ccmp" 
d="M263 -10q-101 0 -160.5 62.5t-59.5 167.5q0 32 5 63.5t17 68.5h-53l65 33q-6 -17 -12 -33h121q-10 -36 -14 -67t-4 -56q0 -62 23.5 -98.5t71.5 -36.5q50 0 72.5 37.5t22.5 103.5q0 67 -22 120.5t-53 100.5q-25 39 -46.5 78t-32.5 83t-4 97h123q-7 -58 16 -107.5
t56 -103.5q33 -53 61 -117.5t28 -151.5q0 -114 -59 -179t-162 -65zM198 387l42 -35h-54q5 17 12 35zM117 839q0 30 16 45t40 15t40 -15t16 -45t-16 -45t-40 -15t-40 15t-16 45zM297 839q0 30 16 45t40 15q25 0 41 -15t16 -45t-16 -45t-41 -15q-24 0 -40 15t-16 45z" />
    <glyph glyph-name="uni1C90_acutecomb.ccmp" 
d="M263 -10q-101 0 -160.5 62.5t-59.5 167.5q0 32 5 63.5t17 68.5h-53l65 33q-6 -17 -12 -33h121q-10 -36 -14 -67t-4 -56q0 -62 23.5 -98.5t71.5 -36.5q50 0 72.5 37.5t22.5 103.5q0 67 -22 120.5t-53 100.5q-25 39 -46.5 78t-32.5 83t-4 97h123q-7 -58 16 -107.5
t56 -103.5q33 -53 61 -117.5t28 -151.5q0 -114 -59 -179t-162 -65zM198 387l42 -35h-54q5 17 12 35zM398 937v-9q-14 -20 -40 -48t-54.5 -56t-51.5 -47h-79v12q26 37 50 75.5t41 72.5h134z" />
    <glyph glyph-name="uni1C90_uni0304.ccmp" 
d="M263 -10q-101 0 -160.5 62.5t-59.5 167.5q0 32 5 63.5t17 68.5h-53l65 33q-6 -17 -12 -33h121q-10 -36 -14 -67t-4 -56q0 -62 23.5 -98.5t71.5 -36.5q50 0 72.5 37.5t22.5 103.5q0 67 -22 120.5t-53 100.5q-25 39 -46.5 78t-32.5 83t-4 97h123q-7 -58 16 -107.5
t56 -103.5q33 -53 61 -117.5t28 -151.5q0 -114 -59 -179t-162 -65zM198 387l42 -35h-54q5 17 12 35zM404 879v-85h-280v85h280z" />
    <glyph glyph-name="uni1C90_uni0304_uni0308.ccmp" 
d="M263 -10q-101 0 -160.5 62.5t-59.5 167.5q0 32 5 63.5t17 68.5h-53l65 33q-6 -17 -12 -33h121q-10 -36 -14 -67t-4 -56q0 -62 23.5 -98.5t71.5 -36.5q50 0 72.5 37.5t22.5 103.5q0 67 -22 120.5t-53 100.5q-25 39 -46.5 78t-32.5 83t-4 97h123q-7 -58 16 -107.5
t56 -103.5q33 -53 61 -117.5t28 -151.5q0 -114 -59 -179t-162 -65zM198 387l42 -35h-54q5 17 12 35zM404 879v-85h-280v85h280zM117 1005q0 30 16 45t40 15t40 -15t16 -45t-16 -45t-40 -15t-40 15t-16 45zM297 1005q0 30 16 45t40 15q25 0 41 -15t16 -45t-16 -45t-41 -15
q-24 0 -40 15t-16 45z" />
    <glyph glyph-name="uni1C94_acutecomb.ccmp" horiz-adv-x="545" 
d="M263 -10q-72 0 -121 29.5t-74 77.5t-25 105q0 28 4.5 52.5t12.5 45.5h119q-11 -41 -11 -88t22 -82.5t73 -35.5q52 0 74 33.5t22 90.5v310q0 43 -23 67.5t-63 24.5t-62.5 -23.5t-22.5 -62.5q0 -36 7 -76h-120q-5 21 -8 41t-3 45q0 58 27.5 98t75 61t106.5 21
q60 0 106.5 -23t73 -66.5t26.5 -103.5v-316q0 -106 -56.5 -165.5t-159.5 -59.5zM405 937v-9q-14 -20 -40 -48t-54.5 -56t-51.5 -47h-79v12q26 37 50 75.5t41 72.5h134z" />
    <glyph glyph-name="uni1C94_uni0304.ccmp" horiz-adv-x="545" 
d="M263 -10q-72 0 -121 29.5t-74 77.5t-25 105q0 28 4.5 52.5t12.5 45.5h119q-11 -41 -11 -88t22 -82.5t73 -35.5q52 0 74 33.5t22 90.5v310q0 43 -23 67.5t-63 24.5t-62.5 -23.5t-22.5 -62.5q0 -36 7 -76h-120q-5 21 -8 41t-3 45q0 58 27.5 98t75 61t106.5 21
q60 0 106.5 -23t73 -66.5t26.5 -103.5v-316q0 -106 -56.5 -165.5t-159.5 -59.5zM411 879v-85h-280v85h280z" />
    <glyph glyph-name="uni1C98_acutecomb.ccmp" horiz-adv-x="564" 
d="M108 0q-18 59 -30.5 116.5t-18.5 125t-6 154.5q0 168 60 248t169 80q108 0 168.5 -80t60.5 -248q0 -89 -6.5 -156t-19 -124.5t-30.5 -115.5h-122q16 54 28 112t18 127t6 157q0 84 -12 133t-35.5 70t-55.5 21q-33 0 -56 -21t-35.5 -70t-12.5 -133q0 -87 6.5 -156.5
t18.5 -127.5t28 -112h-123zM416 938v-9q-14 -20 -40 -48t-54.5 -56t-51.5 -47h-79v12q26 37 50 75.5t41 72.5h134z" />
    <glyph glyph-name="uni1C98_uni0304.ccmp" horiz-adv-x="564" 
d="M108 0q-18 59 -30.5 116.5t-18.5 125t-6 154.5q0 168 60 248t169 80q108 0 168.5 -80t60.5 -248q0 -89 -6.5 -156t-19 -124.5t-30.5 -115.5h-122q16 54 28 112t18 127t6 157q0 84 -12 133t-35.5 70t-55.5 21q-33 0 -56 -21t-35.5 -70t-12.5 -133q0 -87 6.5 -156.5
t18.5 -127.5t28 -112h-123zM422 880v-85h-280v85h280z" />
    <glyph glyph-name="uni1C9D_uni0308.ccmp" horiz-adv-x="784" 
d="M124 0q-23 62 -38.5 121t-24 127t-8.5 157q0 162 53.5 240.5t144.5 78.5q42 0 81.5 -19t58.5 -72h3q19 52 58.5 71.5t80.5 19.5q91 0 145 -78.5t54 -240.5q0 -88 -8.5 -156t-24.5 -127.5t-39 -121.5h-124q31 85 50.5 181t19.5 223q0 120 -22 168t-60 48q-27 0 -42 -19.5
t-21.5 -51t-6.5 -70.5v-269h-124v269q0 59 -15 100t-57 41q-36 0 -58 -48t-22 -168q0 -126 19.5 -222t50.5 -182h-124zM245 839q0 30 16 45t40 15t40 -15t16 -45t-16 -45t-40 -15t-40 15t-16 45zM425 839q0 30 16 45t40 15q25 0 41 -15t16 -45t-16 -45t-41 -15q-24 0 -40 15
t-16 45z" />
    <glyph glyph-name="uni1C9D_acutecomb.ccmp" horiz-adv-x="784" 
d="M124 0q-23 62 -38.5 121t-24 127t-8.5 157q0 162 53.5 240.5t144.5 78.5q42 0 81.5 -19t58.5 -72h3q19 52 58.5 71.5t80.5 19.5q91 0 145 -78.5t54 -240.5q0 -88 -8.5 -156t-24.5 -127.5t-39 -121.5h-124q31 85 50.5 181t19.5 223q0 120 -22 168t-60 48q-27 0 -42 -19.5
t-21.5 -51t-6.5 -70.5v-269h-124v269q0 59 -15 100t-57 41q-36 0 -58 -48t-22 -168q0 -126 19.5 -222t50.5 -182h-124zM526 937v-9q-14 -20 -40 -48t-54.5 -56t-51.5 -47h-79v12q26 37 50 75.5t41 72.5h134z" />
    <glyph glyph-name="uni1C9D_uni0304.ccmp" horiz-adv-x="784" 
d="M124 0q-23 62 -38.5 121t-24 127t-8.5 157q0 162 53.5 240.5t144.5 78.5q42 0 81.5 -19t58.5 -72h3q19 52 58.5 71.5t80.5 19.5q91 0 145 -78.5t54 -240.5q0 -88 -8.5 -156t-24.5 -127.5t-39 -121.5h-124q31 85 50.5 181t19.5 223q0 120 -22 168t-60 48q-27 0 -42 -19.5
t-21.5 -51t-6.5 -70.5v-269h-124v269q0 59 -15 100t-57 41q-36 0 -58 -48t-22 -168q0 -126 19.5 -222t50.5 -182h-124zM532 879v-85h-280v85h280z" />
    <glyph glyph-name="uni1C9D_uni0304_uni0308.ccmp" horiz-adv-x="784" 
d="M124 0q-23 62 -38.5 121t-24 127t-8.5 157q0 162 53.5 240.5t144.5 78.5q42 0 81.5 -19t58.5 -72h3q19 52 58.5 71.5t80.5 19.5q91 0 145 -78.5t54 -240.5q0 -88 -8.5 -156t-24.5 -127.5t-39 -121.5h-124q31 85 50.5 181t19.5 223q0 120 -22 168t-60 48q-27 0 -42 -19.5
t-21.5 -51t-6.5 -70.5v-269h-124v269q0 59 -15 100t-57 41q-36 0 -58 -48t-22 -168q0 -126 19.5 -222t50.5 -182h-124zM532 879v-85h-280v85h280zM245 1005q0 30 16 45t40 15t40 -15t16 -45t-16 -45t-40 -15t-40 15t-16 45zM425 1005q0 30 16 45t40 15q25 0 41 -15t16 -45
t-16 -45t-41 -15q-24 0 -40 15t-16 45z" />
    <glyph glyph-name="uni1CA3_uni0308.ccmp" horiz-adv-x="557" 
d="M275 -10q-72 0 -120.5 29.5t-73.5 77.5t-25 105q0 28 4 52t12 46h119q-5 -18 -8 -41.5t-3 -46.5q0 -47 22 -82t73 -35q53 0 74.5 34t21.5 89v326q0 31 -13.5 53.5t-48.5 22.5q-31 0 -46 -19.5t-15 -53.5v-117h-118v114q0 69 -63 69h-43v107h48q41 0 71 -17.5t45 -56.5h2
q16 38 51 58t86 20q82 0 123 -48.5t41 -121.5v-339q0 -105 -56 -165t-160 -60zM127 839q0 30 16 45t40 15t40 -15t16 -45t-16 -45t-40 -15t-40 15t-16 45zM307 839q0 30 16 45t40 15q25 0 41 -15t16 -45t-16 -45t-41 -15q-24 0 -40 15t-16 45z" />
    <glyph glyph-name="uni1CA3_acutecomb.ccmp" horiz-adv-x="557" 
d="M275 -10q-72 0 -120.5 29.5t-73.5 77.5t-25 105q0 28 4 52t12 46h119q-5 -18 -8 -41.5t-3 -46.5q0 -47 22 -82t73 -35q53 0 74.5 34t21.5 89v326q0 31 -13.5 53.5t-48.5 22.5q-31 0 -46 -19.5t-15 -53.5v-117h-118v114q0 69 -63 69h-43v107h48q41 0 71 -17.5t45 -56.5h2
q16 38 51 58t86 20q82 0 123 -48.5t41 -121.5v-339q0 -105 -56 -165t-160 -60zM408 937v-9q-14 -20 -40 -48t-54.5 -56t-51.5 -47h-79v12q26 37 50 75.5t41 72.5h134z" />
    <glyph glyph-name="uni1CA3_uni0302.ccmp" horiz-adv-x="557" 
d="M275 -10q-72 0 -120.5 29.5t-73.5 77.5t-25 105q0 28 4 52t12 46h119q-5 -18 -8 -41.5t-3 -46.5q0 -47 22 -82t73 -35q53 0 74.5 34t21.5 89v326q0 31 -13.5 53.5t-48.5 22.5q-31 0 -46 -19.5t-15 -53.5v-117h-118v114q0 69 -63 69h-43v107h48q41 0 71 -17.5t45 -56.5h2
q16 38 51 58t86 20q82 0 123 -48.5t41 -121.5v-339q0 -105 -56 -165t-160 -60zM331 937q18 -33 47.5 -74t55.5 -74v-12h-71q-44 34 -89 86q-24 -26 -47 -48.5t-42 -37.5h-71v12q17 21 36.5 47.5t37.5 53t29 47.5h114z" />
    <glyph glyph-name="uni1CA3_uni0304.ccmp" horiz-adv-x="557" 
d="M275 -10q-72 0 -120.5 29.5t-73.5 77.5t-25 105q0 28 4 52t12 46h119q-5 -18 -8 -41.5t-3 -46.5q0 -47 22 -82t73 -35q53 0 74.5 34t21.5 89v326q0 31 -13.5 53.5t-48.5 22.5q-31 0 -46 -19.5t-15 -53.5v-117h-118v114q0 69 -63 69h-43v107h48q41 0 71 -17.5t45 -56.5h2
q16 38 51 58t86 20q82 0 123 -48.5t41 -121.5v-339q0 -105 -56 -165t-160 -60zM413 879v-85h-280v85h280z" />
    <glyph glyph-name="uni1CA3_uni0304_uni0308.ccmp" horiz-adv-x="557" 
d="M275 -10q-72 0 -120.5 29.5t-73.5 77.5t-25 105q0 28 4 52t12 46h119q-5 -18 -8 -41.5t-3 -46.5q0 -47 22 -82t73 -35q53 0 74.5 34t21.5 89v326q0 31 -13.5 53.5t-48.5 22.5q-31 0 -46 -19.5t-15 -53.5v-117h-118v114q0 69 -63 69h-43v107h48q41 0 71 -17.5t45 -56.5h2
q16 38 51 58t86 20q82 0 123 -48.5t41 -121.5v-339q0 -105 -56 -165t-160 -60zM413 879v-85h-280v85h280zM127 1005q0 30 16 45t40 15t40 -15t16 -45t-16 -45t-40 -15t-40 15t-16 45zM307 1005q0 30 16 45t40 15q25 0 41 -15t16 -45t-16 -45t-41 -15q-24 0 -40 15t-16 45z
" />
    <glyph glyph-name="uni1CB7_acutecomb.ccmp" horiz-adv-x="518" 
d="M261 -10q-96 0 -157 52t-61 147q0 65 26 107t65.5 69.5t81.5 48.5q56 28 91 56t35 77q0 37 -21.5 58.5t-56.5 21.5q-39 0 -59 -22t-20 -53q0 -19 3 -31h-123q-1 8 -2 17.5t-1 21.5q0 46 23.5 83t68.5 59t109 22q61 0 106 -23t70 -63.5t25 -92.5q0 -63 -25 -104.5
t-65 -69.5t-85 -50q-50 -26 -85.5 -55.5t-35.5 -81.5q0 -47 25.5 -71t65.5 -24q41 0 66.5 25t25.5 74q0 18 -3 36h122q5 -23 5 -43q0 -92 -59 -141.5t-155 -49.5zM397 937v-9q-14 -20 -40 -48t-54.5 -56t-51.5 -47h-79v12q26 37 50 75.5t41 72.5h134z" />
    <glyph glyph-name="uni1CB7_uni0304.ccmp" horiz-adv-x="518" 
d="M261 -10q-96 0 -157 52t-61 147q0 65 26 107t65.5 69.5t81.5 48.5q56 28 91 56t35 77q0 37 -21.5 58.5t-56.5 21.5q-39 0 -59 -22t-20 -53q0 -19 3 -31h-123q-1 8 -2 17.5t-1 21.5q0 46 23.5 83t68.5 59t109 22q61 0 106 -23t70 -63.5t25 -92.5q0 -63 -25 -104.5
t-65 -69.5t-85 -50q-50 -26 -85.5 -55.5t-35.5 -81.5q0 -47 25.5 -71t65.5 -24q41 0 66.5 25t25.5 74q0 18 -3 36h122q5 -23 5 -43q0 -92 -59 -141.5t-155 -49.5zM402 879v-85h-280v85h280z" />
    <glyph glyph-name="uni10D0_uni0308.ccmp" horiz-adv-x="484" 
d="M240 -10q-88 0 -144.5 50t-56.5 140q0 29 4.5 50.5t12.5 45.5h108q-5 -20 -7.5 -40.5t-2.5 -44.5q0 -47 21.5 -75.5t62.5 -28.5q40 0 62 27t22 74q0 50 -18.5 83.5t-41.5 64.5q-19 25 -37.5 53.5t-30.5 65.5t-12 88h116q0 -48 18.5 -84t42.5 -70q30 -40 55.5 -86.5
t25.5 -114.5q0 -62 -26.5 -106.5t-71.5 -68t-102 -23.5zM95 668q0 30 16 45t40 15t40 -15t16 -45t-16 -45t-40 -15t-40 15t-16 45zM275 668q0 30 16 45t40 15q25 0 41 -15t16 -45t-16 -45t-41 -15q-24 0 -40 15t-16 45z" />
    <glyph glyph-name="uni10D0_acutecomb.ccmp" horiz-adv-x="484" 
d="M240 -10q-88 0 -144.5 50t-56.5 140q0 29 4.5 50.5t12.5 45.5h108q-5 -20 -7.5 -40.5t-2.5 -44.5q0 -47 21.5 -75.5t62.5 -28.5q40 0 62 27t22 74q0 50 -18.5 83.5t-41.5 64.5q-19 25 -37.5 53.5t-30.5 65.5t-12 88h116q0 -48 18.5 -84t42.5 -70q30 -40 55.5 -86.5
t25.5 -114.5q0 -62 -26.5 -106.5t-71.5 -68t-102 -23.5zM376 766v-9q-14 -20 -40 -48t-54.5 -56t-51.5 -47h-79v12q26 37 50 75.5t41 72.5h134z" />
    <glyph glyph-name="uni10D0_uni0304.ccmp" horiz-adv-x="484" 
d="M240 -10q-88 0 -144.5 50t-56.5 140q0 29 4.5 50.5t12.5 45.5h108q-5 -20 -7.5 -40.5t-2.5 -44.5q0 -47 21.5 -75.5t62.5 -28.5q40 0 62 27t22 74q0 50 -18.5 83.5t-41.5 64.5q-19 25 -37.5 53.5t-30.5 65.5t-12 88h116q0 -48 18.5 -84t42.5 -70q30 -40 55.5 -86.5
t25.5 -114.5q0 -62 -26.5 -106.5t-71.5 -68t-102 -23.5zM382 708v-85h-280v85h280z" />
    <glyph glyph-name="uni10D0_uni0304_uni0308.ccmp" horiz-adv-x="484" 
d="M240 -10q-88 0 -144.5 50t-56.5 140q0 29 4.5 50.5t12.5 45.5h108q-5 -20 -7.5 -40.5t-2.5 -44.5q0 -47 21.5 -75.5t62.5 -28.5q40 0 62 27t22 74q0 50 -18.5 83.5t-41.5 64.5q-19 25 -37.5 53.5t-30.5 65.5t-12 88h116q0 -48 18.5 -84t42.5 -70q30 -40 55.5 -86.5
t25.5 -114.5q0 -62 -26.5 -106.5t-71.5 -68t-102 -23.5zM382 708v-85h-280v85h280zM95 833q0 30 16 45t40 15t40 -15t16 -45t-16 -45t-40 -15t-40 15t-16 45zM275 833q0 30 16 45t40 15q25 0 41 -15t16 -45t-16 -45t-41 -15q-24 0 -40 15t-16 45z" />
    <glyph glyph-name="uni10D4_acutecomb.ccmp" horiz-adv-x="507" 
d="M244 -250q-67 0 -113 31.5t-69 82.5t-23 110q0 35 6.5 63.5t14.5 49.5h109q-5 -16 -10 -43t-5 -62q0 -34 9 -65t28.5 -50.5t51.5 -19.5q47 0 68 39t21 109v354q0 51 -20 79t-59 28t-59 -27t-20 -74q0 -45 9 -88h-109q-8 24 -12 45.5t-4 50.5q0 62 25.5 104.5t69.5 64
t100 21.5q88 0 141.5 -52.5t53.5 -151.5v-355q0 -116 -53 -180t-151 -64zM388 766v-9q-14 -20 -40 -48t-54.5 -56t-51.5 -47h-79v12q26 37 50 75.5t41 72.5h134z" />
    <glyph glyph-name="uni10D4_uni0304.ccmp" horiz-adv-x="507" 
d="M244 -250q-67 0 -113 31.5t-69 82.5t-23 110q0 35 6.5 63.5t14.5 49.5h109q-5 -16 -10 -43t-5 -62q0 -34 9 -65t28.5 -50.5t51.5 -19.5q47 0 68 39t21 109v354q0 51 -20 79t-59 28t-59 -27t-20 -74q0 -45 9 -88h-109q-8 24 -12 45.5t-4 50.5q0 62 25.5 104.5t69.5 64
t100 21.5q88 0 141.5 -52.5t53.5 -151.5v-355q0 -116 -53 -180t-151 -64zM394 708v-85h-280v85h280z" />
    <glyph glyph-name="uni10D8_acutecomb.ccmp" horiz-adv-x="505" 
d="M97 0q-28 72 -40.5 137.5t-12.5 145.5q0 131 54.5 200.5t153.5 69.5q98 0 153.5 -69.5t55.5 -200.5q0 -79 -13 -145.5t-41 -137.5h-110q23 64 34.5 134t11.5 147q0 94 -24.5 134.5t-66.5 40.5q-41 0 -66 -40t-25 -136q0 -78 12 -147.5t34 -132.5h-110zM386 766v-9
q-14 -20 -40 -48t-54.5 -56t-51.5 -47h-79v12q26 37 50 75.5t41 72.5h134z" />
    <glyph glyph-name="uni10D8_uni0304.ccmp" horiz-adv-x="505" 
d="M97 0q-28 72 -40.5 137.5t-12.5 145.5q0 131 54.5 200.5t153.5 69.5q98 0 153.5 -69.5t55.5 -200.5q0 -79 -13 -145.5t-41 -137.5h-110q23 64 34.5 134t11.5 147q0 94 -24.5 134.5t-66.5 40.5q-41 0 -66 -40t-25 -136q0 -78 12 -147.5t34 -132.5h-110zM392 708v-85h-280
v85h280z" />
    <glyph glyph-name="uni10DD_uni0308.ccmp" horiz-adv-x="701" 
d="M100 0q-30 74 -43 138.5t-13 140.5q0 127 46 200.5t132 73.5q50 0 81.5 -26t45.5 -74h3q14 48 46 74t80 26q86 0 132.5 -73t46.5 -201q0 -75 -13 -141t-43 -138h-112q26 65 38.5 135t12.5 143q0 86 -17.5 129.5t-56.5 43.5q-32 0 -46 -31.5t-14 -103.5v-139h-111v139
q0 70 -14 102.5t-46 32.5q-39 0 -56.5 -42.5t-17.5 -132.5q0 -149 51 -276h-112zM204 668q0 30 16 45t40 15t40 -15t16 -45t-16 -45t-40 -15t-40 15t-16 45zM384 668q0 30 16 45t40 15q25 0 41 -15t16 -45t-16 -45t-41 -15q-24 0 -40 15t-16 45z" />
    <glyph glyph-name="uni10DD_acutecomb.ccmp" horiz-adv-x="701" 
d="M100 0q-30 74 -43 138.5t-13 140.5q0 127 46 200.5t132 73.5q50 0 81.5 -26t45.5 -74h3q14 48 46 74t80 26q86 0 132.5 -73t46.5 -201q0 -75 -13 -141t-43 -138h-112q26 65 38.5 135t12.5 143q0 86 -17.5 129.5t-56.5 43.5q-32 0 -46 -31.5t-14 -103.5v-139h-111v139
q0 70 -14 102.5t-46 32.5q-39 0 -56.5 -42.5t-17.5 -132.5q0 -149 51 -276h-112zM485 766v-9q-14 -20 -40 -48t-54.5 -56t-51.5 -47h-79v12q26 37 50 75.5t41 72.5h134z" />
    <glyph glyph-name="uni10DD_uni0304.ccmp" horiz-adv-x="701" 
d="M100 0q-30 74 -43 138.5t-13 140.5q0 127 46 200.5t132 73.5q50 0 81.5 -26t45.5 -74h3q14 48 46 74t80 26q86 0 132.5 -73t46.5 -201q0 -75 -13 -141t-43 -138h-112q26 65 38.5 135t12.5 143q0 86 -17.5 129.5t-56.5 43.5q-32 0 -46 -31.5t-14 -103.5v-139h-111v139
q0 70 -14 102.5t-46 32.5q-39 0 -56.5 -42.5t-17.5 -132.5q0 -149 51 -276h-112zM490 708v-85h-280v85h280z" />
    <glyph glyph-name="uni10DD_uni0304_uni0308.ccmp" horiz-adv-x="701" 
d="M100 0q-30 74 -43 138.5t-13 140.5q0 127 46 200.5t132 73.5q50 0 81.5 -26t45.5 -74h3q14 48 46 74t80 26q86 0 132.5 -73t46.5 -201q0 -75 -13 -141t-43 -138h-112q26 65 38.5 135t12.5 143q0 86 -17.5 129.5t-56.5 43.5q-32 0 -46 -31.5t-14 -103.5v-139h-111v139
q0 70 -14 102.5t-46 32.5q-39 0 -56.5 -42.5t-17.5 -132.5q0 -149 51 -276h-112zM490 708v-85h-280v85h280zM204 833q0 30 16 45t40 15t40 -15t16 -45t-16 -45t-40 -15t-40 15t-16 45zM384 833q0 30 16 45t40 15q25 0 41 -15t16 -45t-16 -45t-41 -15q-24 0 -40 15t-16 45z
" />
    <glyph glyph-name="uni10E3_uni0308.ccmp" horiz-adv-x="541" 
d="M269 -250q-73 0 -121 31.5t-72 82.5t-24 110q0 35 6.5 63.5t15.5 49.5h108q-5 -16 -9.5 -43t-4.5 -62q0 -34 9 -65t31 -50.5t60 -19.5q53 0 75.5 38.5t22.5 105.5v371q0 43 -13.5 67t-43.5 24t-43.5 -23.5t-13.5 -64.5v-131h-112v131q0 40 -15.5 62t-49.5 22h-53v99h60
q87 0 113 -82h3q15 41 46.5 64t80.5 23q77 0 117 -51t40 -130v-389q0 -110 -54.5 -171.5t-158.5 -61.5zM112 668q0 30 16 45t40 15t40 -15t16 -45t-16 -45t-40 -15t-40 15t-16 45zM292 668q0 30 16 45t40 15q25 0 41 -15t16 -45t-16 -45t-41 -15q-24 0 -40 15t-16 45z" />
    <glyph glyph-name="uni10E3_acutecomb.ccmp" horiz-adv-x="541" 
d="M269 -250q-73 0 -121 31.5t-72 82.5t-24 110q0 35 6.5 63.5t15.5 49.5h108q-5 -16 -9.5 -43t-4.5 -62q0 -34 9 -65t31 -50.5t60 -19.5q53 0 75.5 38.5t22.5 105.5v371q0 43 -13.5 67t-43.5 24t-43.5 -23.5t-13.5 -64.5v-131h-112v131q0 40 -15.5 62t-49.5 22h-53v99h60
q87 0 113 -82h3q15 41 46.5 64t80.5 23q77 0 117 -51t40 -130v-389q0 -110 -54.5 -171.5t-158.5 -61.5zM393 766v-9q-14 -20 -40 -48t-54.5 -56t-51.5 -47h-79v12q26 37 50 75.5t41 72.5h134z" />
    <glyph glyph-name="uni10E3_uni0302.ccmp" horiz-adv-x="541" 
d="M269 -250q-73 0 -121 31.5t-72 82.5t-24 110q0 35 6.5 63.5t15.5 49.5h108q-5 -16 -9.5 -43t-4.5 -62q0 -34 9 -65t31 -50.5t60 -19.5q53 0 75.5 38.5t22.5 105.5v371q0 43 -13.5 67t-43.5 24t-43.5 -23.5t-13.5 -64.5v-131h-112v131q0 40 -15.5 62t-49.5 22h-53v99h60
q87 0 113 -82h3q15 41 46.5 64t80.5 23q77 0 117 -51t40 -130v-389q0 -110 -54.5 -171.5t-158.5 -61.5zM316 766q18 -33 47.5 -74t55.5 -74v-12h-71q-44 34 -89 86q-24 -26 -47 -48.5t-42 -37.5h-71v12q17 21 36.5 47.5t37.5 53t29 47.5h114z" />
    <glyph glyph-name="uni10E3_uni0304.ccmp" horiz-adv-x="541" 
d="M269 -250q-73 0 -121 31.5t-72 82.5t-24 110q0 35 6.5 63.5t15.5 49.5h108q-5 -16 -9.5 -43t-4.5 -62q0 -34 9 -65t31 -50.5t60 -19.5q53 0 75.5 38.5t22.5 105.5v371q0 43 -13.5 67t-43.5 24t-43.5 -23.5t-13.5 -64.5v-131h-112v131q0 40 -15.5 62t-49.5 22h-53v99h60
q87 0 113 -82h3q15 41 46.5 64t80.5 23q77 0 117 -51t40 -130v-389q0 -110 -54.5 -171.5t-158.5 -61.5zM399 708v-85h-280v85h280z" />
    <glyph glyph-name="uni10E3_uni0304_uni0308.ccmp" horiz-adv-x="541" 
d="M269 -250q-73 0 -121 31.5t-72 82.5t-24 110q0 35 6.5 63.5t15.5 49.5h108q-5 -16 -9.5 -43t-4.5 -62q0 -34 9 -65t31 -50.5t60 -19.5q53 0 75.5 38.5t22.5 105.5v371q0 43 -13.5 67t-43.5 24t-43.5 -23.5t-13.5 -64.5v-131h-112v131q0 40 -15.5 62t-49.5 22h-53v99h60
q87 0 113 -82h3q15 41 46.5 64t80.5 23q77 0 117 -51t40 -130v-389q0 -110 -54.5 -171.5t-158.5 -61.5zM399 708v-85h-280v85h280zM112 833q0 30 16 45t40 15t40 -15t16 -45t-16 -45t-40 -15t-40 15t-16 45zM292 833q0 30 16 45t40 15q25 0 41 -15t16 -45t-16 -45t-41 -15
q-24 0 -40 15t-16 45z" />
    <glyph glyph-name="uni10F7_acutecomb.ccmp" horiz-adv-x="483" 
d="M243 -250q-91 0 -147.5 54t-56.5 154q0 69 23 117.5t61 84t82 64.5q41 27 66 48.5t37 45t12 57.5q0 38 -19 59.5t-53 21.5q-37 0 -55.5 -23t-18.5 -59q0 -22 5 -37h-116q-5 19 -5 45q0 73 49.5 121.5t140.5 48.5t139 -49t48 -127q0 -53 -16.5 -92.5t-51 -73.5t-87.5 -70
q-57 -38 -89.5 -78t-32.5 -108q0 -53 23.5 -80.5t59.5 -27.5q39 0 63 28t24 84q0 36 -9 65h116q9 -33 9 -71q0 -99 -54.5 -150.5t-146.5 -51.5zM376 766v-9q-14 -20 -40 -48t-54.5 -56t-51.5 -47h-79v12q26 37 50 75.5t41 72.5h134z" />
    <glyph glyph-name="uni10F7_uni0304.ccmp" horiz-adv-x="483" 
d="M243 -250q-91 0 -147.5 54t-56.5 154q0 69 23 117.5t61 84t82 64.5q41 27 66 48.5t37 45t12 57.5q0 38 -19 59.5t-53 21.5q-37 0 -55.5 -23t-18.5 -59q0 -22 5 -37h-116q-5 19 -5 45q0 73 49.5 121.5t140.5 48.5t139 -49t48 -127q0 -53 -16.5 -92.5t-51 -73.5t-87.5 -70
q-57 -38 -89.5 -78t-32.5 -108q0 -53 23.5 -80.5t59.5 -27.5q39 0 63 28t24 84q0 36 -9 65h116q9 -33 9 -71q0 -99 -54.5 -150.5t-146.5 -51.5zM382 708v-85h-280v85h280z" />
    </font>
</defs>
</svg>
