<?xml version="1.0" standalone="no"?>
<!DOCTYPE svg PUBLIC "-//W3C//DTD SVG 1.1//EN" "http://www.w3.org/Graphics/SVG/1.1/DTD/svg11.dtd" >
<svg xmlns="http://www.w3.org/2000/svg" xmlns:xlink="http://www.w3.org/1999/xlink" version="1.1">
<metadata>
Created by FontForge 20170731 at Thu Sep 26 08:57:15 2019
 By Aleksey,,,
Copyright 2019 Google LLC. All rights reserved.
</metadata>
<defs>
<font id="NotoSansGeorgian-ExtraCondensedBold" horiz-adv-x="500" >
  <font-face 
    font-family="Noto Sans Georgian ExtCond"
    font-weight="700"
    font-stretch="extra-condensed"
    units-per-em="1000"
    panose-1="2 11 8 6 4 5 4 2 2 4"
    ascent="800"
    descent="-200"
    bbox="-154 -250 908 1081"
    underline-thickness="50"
    underline-position="-175"
    unicode-range="U+000D-2D2D"
  />
<missing-glyph horiz-adv-x="364" 
d="M33 0v666h265v-666h-265zM66 33h199v600h-199v-600z" />
    <glyph glyph-name=".notdef" horiz-adv-x="364" 
d="M33 0v666h265v-666h-265zM66 33h199v600h-199v-600z" />
    <glyph glyph-name=".null" horiz-adv-x="0" 
 />
    <glyph glyph-name="nonmarkingreturn" horiz-adv-x="333" 
 />
    <glyph glyph-name="NULL" horiz-adv-x="0" 
 />
    <glyph glyph-name="NULL" horiz-adv-x="0" 
 />
    <glyph glyph-name="CR" unicode="&#xd;" horiz-adv-x="195" 
 />
    <glyph glyph-name="space" unicode=" " horiz-adv-x="195" 
 />
    <glyph glyph-name="hyphen" unicode="-" horiz-adv-x="305" 
d="M28 206v125h249v-125h-249z" />
    <glyph glyph-name="uni00A0" unicode="&#xa0;" horiz-adv-x="195" 
 />
    <glyph glyph-name="acutecomb" unicode="&#x301;" horiz-adv-x="0" 
d="M116 766v-9q-13 -19 -37 -46t-51 -55t-50 -50h-93v13q26 40 46 76.5t36 70.5h149z" />
    <glyph glyph-name="uni0302" unicode="&#x302;" horiz-adv-x="0" 
d="M60 766q17 -33 41.5 -71.5t52.5 -75.5v-13h-78q-17 15 -36 35.5t-40 45.5q-22 -25 -41 -46.5t-34 -34.5h-79v13q16 20 34.5 47t35 54t25.5 46h119z" />
    <glyph glyph-name="uni0304" unicode="&#x304;" horiz-adv-x="0" 
d="M138 723v-95h-276v95h276z" />
    <glyph glyph-name="uni0308" unicode="&#x308;" horiz-adv-x="0" 
d="M-151 671q0 33 16.5 50t43.5 17q28 0 44.5 -17.5t16.5 -49.5q0 -31 -16.5 -48.5t-44.5 -17.5q-27 0 -43.5 17t-16.5 49zM30 671q0 33 16.5 50t44.5 17t44.5 -17.5t16.5 -49.5q0 -31 -16.5 -48.5t-44.5 -17.5t-44.5 17.5t-16.5 48.5z" />
    <glyph glyph-name="uni0589" unicode="&#x589;" horiz-adv-x="256" 
d="M53 474q0 38 19.5 59t57.5 21q74 0 74 -80q0 -37 -19.5 -58t-54.5 -21q-37 0 -57 21t-20 58zM53 69q0 38 19 59t58 21q37 0 55.5 -21t18.5 -59q0 -37 -19 -58t-55 -21q-37 0 -57 21t-20 58z" />
    <glyph glyph-name="uni10A0" unicode="&#x10a0;" horiz-adv-x="476" 
d="M300 -10q-83 0 -140.5 41t-87 117t-29.5 180q0 92 31 161.5t84 103.5v4h-96v117h381v-119h-86q-85 0 -128.5 -70t-43.5 -186q0 -230 136 -230q33 0 63 11.5t59 27.5v-123q-31 -18 -66.5 -26.5t-76.5 -8.5z" />
    <glyph glyph-name="uni10A1" unicode="&#x10a1;" horiz-adv-x="666" 
d="M367 0v179q0 63 6 133h-5q-22 -49 -57 -75t-89 -26q-84 0 -134 68.5t-50 189.5q0 70 12.5 130t33.5 115h140q-22 -53 -34 -112t-12 -131q0 -150 89 -150q45 0 72.5 46.5t27.5 149.5v197h136v-594h158v-120h-294z" />
    <glyph glyph-name="uni10A2" unicode="&#x10a2;" horiz-adv-x="628" 
d="M329 0v595h-136v-214h-136v333h408v-594h158v-120h-294z" />
    <glyph glyph-name="uni10A3" unicode="&#x10a3;" horiz-adv-x="589" 
d="M296 -10q-84 0 -140.5 36.5t-84.5 100t-28 144.5q0 109 51 179t136 86v59h-174v119h478v-119h-174v-59q86 -16 136.5 -86t50.5 -180q0 -81 -28.5 -144t-84 -99.5t-138.5 -36.5zM295 110q55 0 83 41.5t28 117.5q0 77 -28.5 116.5t-81.5 39.5q-52 0 -82 -39.5t-30 -116.5
t28.5 -118t82.5 -41z" />
    <glyph glyph-name="uni10A4" unicode="&#x10a4;" horiz-adv-x="529" 
d="M329 0v595h-136v-214h-136v333h408v-714h-136z" />
    <glyph glyph-name="uni10A5" unicode="&#x10a5;" horiz-adv-x="708" 
d="M333 0v595h-139v-216h-137v335h413v-285h206v-240h-121v127h-85v-316h-137z" />
    <glyph glyph-name="uni10A6" unicode="&#x10a6;" horiz-adv-x="613" 
d="M356 -10q-111 0 -162 75t-51 204v327h-145v118h281v-129q0 -29 -1.5 -60.5t-4.5 -60.5h6q20 43 50 66t73 23q86 0 130 -75.5t44 -204.5q0 -131 -55.5 -207t-164.5 -76zM355 110q79 0 79 161q0 162 -78 162q-40 0 -59 -41.5t-19 -121.5q0 -81 17 -120.5t60 -39.5z" />
    <glyph glyph-name="uni10A7" unicode="&#x10a7;" horiz-adv-x="737" 
d="M499 429h206v-240h-121v127h-85v-316h-173q-134 0 -208.5 90t-74.5 262q0 173 77 267.5t215 94.5h164v-285zM363 118v477h-28q-152 0 -152 -238q0 -124 36.5 -181.5t107.5 -57.5h36z" />
    <glyph glyph-name="uni10A8" unicode="&#x10a8;" horiz-adv-x="409" 
d="M209 0v596h-211v118h347v-714h-136z" />
    <glyph glyph-name="uni10A9" unicode="&#x10a9;" horiz-adv-x="555" 
d="M361 0v73q0 57 3 115h-4q-20 -46 -52 -67.5t-78 -21.5q-88 0 -129.5 67.5t-41.5 186.5v361h136v-66q0 -28 -0.5 -55.5t-4.5 -53.5h6q20 43 52 66t78 23q88 0 129 -68t41 -185v-375h-135zM277 211q83 0 83 153q0 77 -19 114.5t-63 37.5q-43 0 -62.5 -39t-19.5 -115
q0 -77 19 -114t62 -37z" />
    <glyph glyph-name="uni10AA" unicode="&#x10aa;" horiz-adv-x="774" 
d="M517 -10q-111 0 -162 75t-51 204v326h-111v-214h-136v333h383v-129q0 -29 -1.5 -60.5t-4.5 -60.5h6q20 43 50.5 66t73.5 23q86 0 129.5 -75.5t43.5 -204.5q0 -131 -55 -207t-165 -76zM517 110q79 0 79 161q0 162 -78 162q-40 0 -59 -41.5t-19 -121.5q0 -81 17 -120.5
t60 -39.5z" />
    <glyph glyph-name="uni10AB" unicode="&#x10ab;" horiz-adv-x="616" 
d="M256 -10q-65 0 -113 30t-74 85t-26 129q0 87 30 139.5t80.5 76t112.5 23.5h67v122h-250v119h387v-241h114v-112h-114v-122q0 -115 -55 -182t-159 -67zM256 105q38 0 57 35.5t19 99.5v120h-66q-21 0 -39.5 -10.5t-30 -37.5t-11.5 -75q0 -62 18.5 -97t52.5 -35z" />
    <glyph glyph-name="uni10AC" unicode="&#x10ac;" horiz-adv-x="577" 
d="M62 0v714h431v-118h-295v-98q0 -22 -1.5 -50.5t-3.5 -54.5h3q20 40 55.5 64.5t91.5 24.5q88 0 131.5 -64.5t43.5 -180.5v-237h-137v227q0 76 -20.5 111t-67.5 35q-46 0 -70.5 -39t-24.5 -133v-201h-136z" />
    <glyph glyph-name="uni10AD" unicode="&#x10ad;" horiz-adv-x="707" 
d="M298 -10q-86 0 -142.5 45.5t-84.5 128.5t-28 195q0 179 65.5 272t189.5 93q86 0 142 -44.5t83.5 -126.5t27.5 -195q0 -78 -13.5 -142.5t-40.5 -111.5q14 -9 30 -9q27 0 38.5 21t11.5 54h125q0 -86 -33.5 -133t-106.5 -47q-35 0 -65 14.5t-53 34.5q-29 -24 -65 -36.5
t-81 -12.5zM297 111q56 0 83.5 60.5t27.5 186.5q0 125 -27 186t-83 61q-113 0 -113 -247t112 -247z" />
    <glyph glyph-name="uni10AE" unicode="&#x10ae;" horiz-adv-x="647" 
d="M364 -10q-106 0 -163.5 60t-57.5 183v363h-145v118h281v-474q0 -71 22 -100.5t64 -29.5q43 0 65 28.5t22 102.5v473h136v-478q0 -125 -59 -185.5t-165 -60.5z" />
    <glyph glyph-name="uni10AF" unicode="&#x10af;" horiz-adv-x="603" 
d="M402 0v179q0 30 2 64t5 68h-5q-22 -49 -57 -74.5t-89 -25.5q-56 0 -98 29.5t-64.5 79t-22.5 110.5q0 51 16 91.5t46 69.5v4h-132v119h277v-112q-35 -25 -50.5 -62t-15.5 -83q0 -64 23 -99.5t66 -35.5q45 0 72 44t27 137v211h137v-714h-137z" />
    <glyph glyph-name="uni10B0" unicode="&#x10b0;" horiz-adv-x="783" 
d="M263 -10q-72 0 -122.5 33t-76.5 88.5t-26 120.5q0 46 13.5 91t39.5 84l120 -41q-14 -28 -21.5 -63.5t-7.5 -67.5q0 -53 19.5 -89t59.5 -36q42 0 60.5 38.5t18.5 111.5v454h137v-122q0 -22 -1 -51t-4 -55h4q20 38 52 54.5t70 16.5q49 0 83 -26.5t52 -66.5t18 -82
q0 -93 -47 -151l-121 36q13 22 18.5 46.5t5.5 46.5q0 38 -16 62.5t-47 24.5q-27 0 -47 -23t-20 -73v-101q0 -127 -54 -193.5t-160 -66.5z" />
    <glyph glyph-name="uni10B1" unicode="&#x10b1;" horiz-adv-x="531" 
d="M278 -10q-106 0 -163.5 66.5t-57.5 193.5v464h137v-454q0 -73 18.5 -111.5t60.5 -38.5q40 0 59.5 36t19.5 89q0 32 -7.5 67.5t-21.5 63.5l113 41q30 -40 44 -85.5t14 -90.5q0 -63 -25 -118t-73 -89t-118 -34z" />
    <glyph glyph-name="uni10B2" unicode="&#x10b2;" horiz-adv-x="502" 
d="M62 0v714h184q214 0 214 -219q0 -109 -53.5 -175.5t-167.5 -66.5h-41v-135h237v-118h-373zM197 369h29q46 0 71.5 29t25.5 96q0 54 -22.5 79t-67.5 25h-36v-229z" />
    <glyph glyph-name="uni10B3" unicode="&#x10b3;" horiz-adv-x="606" 
d="M453 -178q-15 0 -31.5 2.5t-30.5 6.5v96q18 -5 36 -5q20 0 32 14t12 39q0 22 -8.5 37.5t-20.5 28.5q-57 -51 -143 -51t-143 45t-85 127.5t-28 196.5q0 179 66 272t190 93q128 0 191 -95.5t63 -270.5q0 -70 -10.5 -130t-32.5 -105q18 -16 37 -38.5t31.5 -52t12.5 -67.5
q0 -65 -35.5 -104t-102.5 -39zM299 110q113 0 113 248q0 249 -113 249q-58 0 -86.5 -63.5t-28.5 -185.5t29 -185t86 -63z" />
    <glyph glyph-name="uni10B4" unicode="&#x10b4;" horiz-adv-x="705" 
d="M289 0v166q-72 3 -127.5 35.5t-87 93.5t-31.5 149q0 94 40 156t110.5 93t161.5 31q92 0 161.5 -30t108 -91.5t38.5 -156.5q0 -88 -31.5 -149.5t-86.5 -94t-128 -36.5v-166h-128zM289 278v334q-46 -4 -78 -44t-32 -123q0 -84 31 -123t79 -44zM417 278q47 5 78.5 45
t31.5 123t-31.5 122.5t-78.5 43.5v-334z" />
    <glyph glyph-name="uni10B5" unicode="&#x10b5;" horiz-adv-x="512" 
d="M183 0v360h-150v113h150v241h137v-241h150v-113h-150v-360h-137z" />
    <glyph glyph-name="uni10B6" unicode="&#x10b6;" horiz-adv-x="561" 
d="M57 0v478q0 125 59 185.5t165 60.5q107 0 164 -60t57 -183v-481h-136v474q0 71 -22 100.5t-64 29.5q-43 0 -65 -28.5t-22 -102.5v-473h-136z" />
    <glyph glyph-name="uni10B7" unicode="&#x10b7;" horiz-adv-x="567" 
d="M367 0v179q0 63 6 133h-5q-22 -49 -57 -75t-89 -26q-84 0 -134 68.5t-50 189.5q0 70 12.5 130t33.5 115h140q-22 -53 -34 -112t-12 -131q0 -150 89 -150q45 0 72.5 46.5t27.5 149.5v197h136v-714h-136z" />
    <glyph glyph-name="uni10B8" unicode="&#x10b8;" horiz-adv-x="578" 
d="M290 -10q-68 0 -118.5 24.5t-78 68t-27.5 98.5q0 23 5 47.5t17 49.5l127 -35q-9 -24 -9 -49q0 -37 21.5 -61.5t62.5 -24.5q47 0 67 36t20 97v63q0 26 1 56.5t4 55.5h-4q-22 -40 -57 -64t-90 -24q-174 0 -174 244v142h137v-132q0 -75 21 -110t67 -35q47 0 71 39.5
t24 131.5v106h137v-468q0 -126 -56 -191t-168 -65z" />
    <glyph glyph-name="uni10B9" unicode="&#x10b9;" horiz-adv-x="546" 
d="M64 0v714h137v-251h291v-463h-137v353h-154v-353h-137z" />
    <glyph glyph-name="uni10BA" unicode="&#x10ba;" horiz-adv-x="564" 
d="M272 -9q-107 0 -168 96.5t-61 269.5q0 114 33 196t96.5 126.5t154.5 44.5q47 0 91 -11t80 -31l-39 -112q-28 17 -60.5 27t-68.5 10q-70 0 -108 -65.5t-38 -184.5q0 -122 30.5 -185t86.5 -64q27 0 47 8t33 19v169h133v-304h-133v27q-20 -17 -46.5 -26.5t-62.5 -9.5z" />
    <glyph glyph-name="uni10BB" unicode="&#x10bb;" horiz-adv-x="744" 
d="M259 -10q-65 0 -113.5 30t-75.5 85t-27 129q0 116 61.5 177.5t163.5 61.5h64v241h136v-241h222v-473h-120v360h-102v-128q0 -112 -55 -177t-154 -65zM258 109q38 0 56 33.5t18 94.5v123h-61q-43 0 -65 -32.5t-22 -91.5q0 -58 19 -92.5t55 -34.5z" />
    <glyph glyph-name="uni10BC" unicode="&#x10bc;" horiz-adv-x="490" 
d="M64 0v714h184q107 0 160.5 -54t53.5 -153q0 -61 -23.5 -110.5t-72.5 -78.5t-125 -29h-41v-53h212v-181h-120v69h-92v-124h-136zM199 405h29q46 0 71.5 25.5t25.5 75.5q0 49 -22.5 70.5t-67.5 21.5h-36v-193z" />
    <glyph glyph-name="uni10BD" unicode="&#x10bd;" horiz-adv-x="473" 
d="M235 -10q-94 0 -145 50t-51 136q0 17 1.5 31.5t3.5 26.5h132q-2 -10 -3.5 -23t-1.5 -32q0 -36 17.5 -56.5t47.5 -20.5q27 0 44.5 19.5t17.5 56.5q0 34 -14.5 57t-37 41t-47.5 36q-36 27 -70.5 55t-57 67t-22.5 98q0 89 50 140.5t137 51.5q86 0 134.5 -48.5t48.5 -136.5
v-12t-1 -11h-133q2 10 2 21q0 75 -51 75q-27 0 -39.5 -19.5t-12.5 -54.5q0 -30 13.5 -50t38 -38t57.5 -42q36 -25 68.5 -53.5t52.5 -69.5t20 -102q0 -91 -50.5 -142t-148.5 -51z" />
    <glyph glyph-name="uni10BE" unicode="&#x10be;" horiz-adv-x="554" 
d="M62 714h137v-333h154v333h137v-443h-291v-152h274v-119h-411v714z" />
    <glyph glyph-name="uni10BF" unicode="&#x10bf;" horiz-adv-x="545" 
d="M18 0l178 364l-105 232h-73v118h470v-90l-121 -261l173 -363h-148l-111 256l-111 -256h-152zM282 455l63 145h-125z" />
    <glyph glyph-name="uni10C0" unicode="&#x10c0;" horiz-adv-x="779" 
d="M522 -10q-103 0 -160.5 66.5t-57.5 193.5v346h-111v-214h-136v333h383v-455q0 -73 19.5 -111.5t61.5 -38.5q40 0 59.5 36t19.5 89q0 32 -7.5 67.5t-21.5 63.5l113 41q30 -40 44 -85.5t14 -90.5q0 -63 -25.5 -118t-74.5 -89t-120 -34z" />
    <glyph glyph-name="uni10C1" unicode="&#x10c1;" horiz-adv-x="595" 
d="M64 0v714h136v-137q0 -25 -1.5 -54t-4.5 -55h4q20 41 54.5 64t85.5 23q77 0 117.5 -54t47.5 -152h73v-112h-207v66q0 75 -19 109t-62 34q-88 0 -88 -165v-281h-136z" />
    <glyph glyph-name="uni10C2" unicode="&#x10c2;" horiz-adv-x="494" 
d="M197 -10q-46 0 -79 9t-68 26v123q26 -16 58.5 -28t69.5 -12q62 0 97 54t35 151q0 95 -35 149.5t-116 54.5h-96v197h129v-85h21q110 0 174 -83t64 -231q0 -154 -68 -239.5t-186 -85.5z" />
    <glyph glyph-name="uni10C3" unicode="&#x10c3;" horiz-adv-x="545" 
d="M360 0v156q0 30 2 64t5 68h-5q-22 -49 -57 -75t-89 -26t-94 28t-62 78t-22 115q0 47 13 93t39 84l118 -40q-14 -29 -22 -64.5t-8 -67.5q0 -54 22.5 -85t63.5 -31q45 0 70.5 52t25.5 144v221h136v-714h-136z" />
    <glyph glyph-name="uni10C4" unicode="&#x10c4;" horiz-adv-x="563" 
d="M213 0v237q-74 16 -114.5 74t-40.5 165v238h136v-232q0 -75 22 -106.5t65 -31.5t65 31t22 107v232h136v-236q0 -106 -41 -165t-115 -76v-237h-135z" />
    <glyph glyph-name="uni10C5" unicode="&#x10c5;" horiz-adv-x="668" 
d="M216 -10q-88 0 -136.5 42t-48.5 122q0 79 50.5 122.5t140.5 43.5h40v209q0 99 44.5 147t138.5 48t142 -44.5t48 -125.5q0 -85 -50 -129t-151 -44h-36v-61h191v-215h-120v115h-71v-34q0 -96 -45 -146t-137 -50zM398 482h37q35 0 50 18.5t15 51.5q0 32 -12 52t-39 20
q-28 0 -39.5 -23.5t-11.5 -67.5v-51zM215 89q47 0 47 91v40h-32q-31 0 -47 -18.5t-16 -48.5q0 -64 48 -64z" />
    <glyph glyph-name="uni10C7" unicode="&#x10c7;" horiz-adv-x="463" 
d="M235 -10q-100 0 -147 54.5t-47 148.5q0 73 33.5 121.5t109.5 95.5q42 26 64 45t30.5 37t8.5 42q0 47 -16.5 66t-39.5 19q-19 0 -34 -18t-15 -62v-10.5t1 -10.5h-129q-1 5 -1.5 11t-0.5 11q0 86 48 135t133 49q54 0 95.5 -23.5t65 -66.5t23.5 -103q0 -46 -15.5 -80.5
t-48 -64.5t-85.5 -63q-36 -23 -57 -42.5t-30 -41t-9 -51.5q0 -52 15.5 -73t46.5 -21q30 0 47 21.5t17 72.5q0 25 -3 46h129q2 -12 3.5 -25.5t1.5 -27.5q0 -89 -49.5 -140t-144.5 -51z" />
    <glyph glyph-name="uni10CD" unicode="&#x10cd;" horiz-adv-x="428" 
d="M23 0v98l231 498h-227v118h374v-98l-231 -497h237v-119h-384z" />
    <glyph glyph-name="uni10D0" unicode="&#x10d0;" horiz-adv-x="468" 
d="M232 -10q-56 0 -100.5 23t-69.5 64.5t-25 99.5q0 31 4.5 53.5t13.5 50.5h119q-4 -21 -6.5 -41t-2.5 -46q0 -43 16 -68.5t48 -25.5q31 0 48 22.5t17 65.5q0 47 -15.5 80.5t-35.5 64.5q-17 27 -33.5 57t-27.5 68.5t-11 88.5h130q0 -50 16 -87t37 -71q26 -41 49 -88.5
t23 -115.5q0 -61 -26 -105t-70 -67t-98 -23z" />
    <glyph glyph-name="uni10D1" unicode="&#x10d1;" 
d="M320 545q65 -23 101.5 -92t36.5 -179q0 -75 -20.5 -140t-66.5 -104.5t-122 -39.5q-71 0 -117 39t-68 103.5t-22 141.5q0 110 37.5 184t119.5 93q3 8 5 18t2 20q0 18 -7.5 33.5t-18.5 28.5q-13 17 -26 41t-13 68h129q0 -25 9.5 -41.5t22.5 -32.5q14 -16 24.5 -35.5
t10.5 -45.5q0 -34 -17 -60zM250 100q41 0 58.5 43.5t17.5 130.5t-17.5 130t-58.5 43q-40 0 -58 -42.5t-18 -131.5q0 -85 18 -129t58 -44z" />
    <glyph glyph-name="uni10D2" unicode="&#x10d2;" horiz-adv-x="490" 
d="M244 -250q-71 0 -117 38.5t-68 101t-22 134.5q0 113 45.5 181t127.5 87q48 11 64 35t16 66q0 26 -11.5 44t-34.5 18q-22 0 -34 -15.5t-12 -42.5q0 -11 1.5 -21t3.5 -21h-119q-4 14 -6 27t-2 27q0 65 45.5 106.5t123.5 41.5q85 0 127 -45.5t42 -113.5q0 -35 -15.5 -71
t-59.5 -57v-4q54 -22 84 -82.5t30 -159.5q0 -71 -20.5 -133.5t-66.5 -101.5t-122 -39zM245 -140q41 0 58.5 42.5t17.5 121.5q0 80 -17.5 121.5t-58.5 41.5q-40 0 -58 -41.5t-18 -122.5q0 -78 18 -120.5t58 -42.5z" />
    <glyph glyph-name="uni10D3" unicode="&#x10d3;" horiz-adv-x="717" 
d="M415 -250q-25 61 -66 88.5t-85 27.5q-58 0 -109 -30l-38 84q17 10 41 17t52 9v4q-82 44 -125 131.5t-43 193.5q0 131 46.5 206.5t128.5 75.5q47 0 81.5 -24.5t48.5 -73.5h3q15 49 53 73.5t81 24.5q68 0 110 -35.5t61.5 -98t19.5 -142.5q0 -72 -19.5 -135t-62.5 -101.5
t-113 -38.5q-55 0 -93 22.5t-61 61t-33 86t-10 98.5v46q0 68 -11 97.5t-41 29.5t-43.5 -41t-13.5 -129q0 -91 24 -150.5t62.5 -96t81.5 -59.5q61 -32 105.5 -73t68.5 -107zM478 116q35 0 50 42.5t15 120.5q0 84 -14.5 126t-50.5 42q-35 0 -49 -42t-14 -125q0 -79 14 -121.5
t49 -42.5z" />
    <glyph glyph-name="uni10D4" unicode="&#x10d4;" horiz-adv-x="485" 
d="M235 -250q-65 0 -109.5 32t-66.5 83.5t-22 108.5q0 34 6 63t15 52h122q-4 -17 -9 -43.5t-5 -61.5q0 -31 6.5 -59.5t21 -46.5t39.5 -18q67 0 67 135v364q0 88 -59 88q-31 0 -45 -24.5t-14 -63.5q0 -45 9 -93h-121q-9 28 -13.5 50.5t-4.5 53.5q0 94 54 140.5t136 46.5
q86 0 137 -50.5t51 -147.5v-366q0 -116 -50.5 -179.5t-144.5 -63.5z" />
    <glyph glyph-name="uni10D5" unicode="&#x10d5;" horiz-adv-x="480" 
d="M240 -250q-65 0 -110.5 30t-69 79t-23.5 105q0 54 21 98h121q-4 -16 -8 -38.5t-4 -49.5t7 -53.5t22.5 -43.5t41.5 -17q73 0 73 130q0 68 -22.5 102t-61.5 34h-25v109h27q37 0 55 32.5t18 82.5q0 97 -60 97q-30 0 -44 -23t-14 -55q0 -22 2.5 -38.5t6.5 -36.5h-122
q-9 23 -13 40t-4 46q0 57 25 96.5t67.5 60t96.5 20.5q55 0 97.5 -22.5t67 -64t24.5 -100.5q0 -67 -29 -113.5t-84 -67.5v-4q55 -14 89.5 -64.5t34.5 -137.5q0 -69 -24 -121.5t-69.5 -82t-109.5 -29.5z" />
    <glyph glyph-name="uni10D6" unicode="&#x10d6;" horiz-adv-x="515" 
d="M269 -10q-53 0 -91 22t-62.5 59t-36.5 82.5t-12 93.5q0 55 12 99.5t40 78.5v4q-49 17 -76.5 61t-27.5 99q0 51 17.5 92t55.5 65t99 24q54 0 92 -22.5t58.5 -60t20.5 -84.5q0 -58 -28 -94v-4q10 -2 16 -4q65 -21 96 -85t31 -157q0 -51 -10.5 -99t-34.5 -86.5t-63 -61
t-96 -22.5zM186 509q29 0 39 22t10 59q0 33 -11 56.5t-38 23.5q-26 0 -37 -23t-11 -57q0 -33 11 -57t37 -24zM271 100q39 0 55 41.5t16 117.5t-16 117t-55 41q-40 0 -56 -41t-16 -118q0 -74 16.5 -116t55.5 -42z" />
    <glyph glyph-name="uni10D7" unicode="&#x10d7;" horiz-adv-x="717" 
d="M237 -10q-68 0 -111 39t-63.5 103.5t-20.5 141.5q0 84 19.5 147.5t62 99.5t109.5 36q43 0 81 -24.5t53 -73.5h3q14 49 48 73.5t82 24.5q82 0 128.5 -72.5t46.5 -203.5q0 -74 -12 -140.5t-43 -140.5h-124q24 64 35.5 136t11.5 142q0 87 -13.5 128t-43.5 41t-41 -29.5
t-11 -97.5v-52q0 -54 -10.5 -104t-33.5 -89.5t-60.5 -62t-92.5 -22.5zM238 100q36 0 50 43.5t14 130.5t-14 130t-50 43q-35 0 -49.5 -42.5t-14.5 -131.5q0 -85 14.5 -129t49.5 -44z" />
    <glyph glyph-name="uni10D8" unicode="&#x10d8;" horiz-adv-x="490" 
d="M92 0q-27 75 -38.5 140.5t-11.5 144.5q0 133 54.5 202.5t148.5 69.5q93 0 148 -69.5t55 -202.5q0 -77 -11.5 -144t-38.5 -141h-122q19 60 29.5 131.5t10.5 150.5q0 89 -18.5 127t-52.5 38q-33 0 -52 -37t-19 -128q0 -80 10.5 -151t29.5 -131h-122z" />
    <glyph glyph-name="uni10D9" unicode="&#x10d9;" horiz-adv-x="465" 
d="M230 -250q-64 0 -108 28t-67 76.5t-23 109.5q0 54 19 98h121q-4 -16 -7 -39t-3 -49q0 -48 16 -81t51 -33t51 33t16 103q0 78 -22.5 114t-61.5 36h-25v109h23q38 0 57.5 28t19.5 71q0 41 -16.5 67t-47.5 26v110q57 0 100.5 -22.5t68.5 -63.5t25 -98q0 -62 -29 -105
t-84 -59v-4q55 -16 89.5 -67t34.5 -149q0 -108 -51.5 -173.5t-146.5 -65.5z" />
    <glyph glyph-name="uni10DA" unicode="&#x10da;" horiz-adv-x="883" 
d="M507 -250q-16 41 -47 69t-69 42.5t-77 14.5q-38 0 -72.5 -12t-59.5 -28l-42 85q18 13 47.5 22.5t53.5 12.5v4q-91 40 -145 127t-54 213q0 77 19 134.5t55.5 90t87.5 32.5q98 0 127 -103h3q22 103 108 103q85 0 107 -103h4q28 103 126 103q77 0 119.5 -73.5t42.5 -202.5
q0 -65 -11.5 -121.5t-40.5 -120.5l-115 33q20 50 27.5 100.5t7.5 105.5q0 88 -11 128.5t-39 40.5q-25 0 -35 -30.5t-10 -101.5v-145h-126v145q0 71 -10.5 101.5t-35.5 30.5t-36 -30.5t-11 -101.5v-145h-126v145q0 71 -10 101.5t-35 30.5q-28 0 -39 -38.5t-11 -115.5
q0 -97 28.5 -159t77 -98t106.5 -57q47 -17 92 -44t80 -63.5t51 -80.5z" />
    <glyph glyph-name="uni10DB" unicode="&#x10db;" horiz-adv-x="505" 
d="M250 -10q-100 0 -154 74.5t-54 201.5q0 128 41 198.5t117 70.5q38 0 68 -15.5t52 -56.5h4q-2 29 -3 50t-1 37v39q0 38 -15.5 59t-45.5 21q-58 0 -58 -61q0 -6 0.5 -12t1.5 -12h-125q-3 11 -5 22t-2 22q0 43 25 74.5t68 49.5t96 18q87 0 138.5 -49.5t51.5 -139.5v-316
q0 -136 -51.5 -205.5t-148.5 -69.5zM249 100q38 0 54.5 40t16.5 118v29q0 72 -18 107.5t-59 35.5q-36 0 -52.5 -43.5t-16.5 -121.5q0 -80 17.5 -122.5t57.5 -42.5z" />
    <glyph glyph-name="uni10DC" unicode="&#x10dc;" horiz-adv-x="505" 
d="M255 -10q-97 0 -148.5 70.5t-51.5 210.5v313q0 60 26 99t69 58t94 19h172v-108h-155q-34 0 -55 -17t-21 -55v-28q0 -16 -0.5 -34t-3.5 -48h5q43 75 120 75q75 0 116 -71.5t41 -201.5q0 -132 -53.5 -207t-154.5 -75zM256 100q41 0 58 43t17 128q0 80 -16.5 123.5
t-52.5 43.5q-40 0 -58.5 -36.5t-18.5 -113.5v-24q0 -164 71 -164z" />
    <glyph glyph-name="uni10DD" unicode="&#x10dd;" horiz-adv-x="684" 
d="M96 0q-20 52 -32 96.5t-17 89t-5 95.5q0 129 46 202.5t129 73.5q95 0 123 -103h4q28 103 123 103q82 0 128.5 -72.5t46.5 -203.5q0 -74 -12 -140.5t-42 -140.5h-124q24 64 35.5 136t11.5 142q0 81 -13.5 120t-44.5 39q-28 0 -38 -28t-10 -103v-133h-126v133
q0 72 -10.5 101.5t-37.5 29.5q-31 0 -44 -39t-13 -122q0 -153 46 -276h-124z" />
    <glyph glyph-name="uni10DE" unicode="&#x10de;" horiz-adv-x="475" 
d="M233 -10q-56 0 -100.5 23t-70 64.5t-25.5 99.5q0 31 4.5 53.5t13.5 50.5h119q-4 -21 -6.5 -41t-2.5 -46q0 -43 17 -68.5t50 -25.5q36 0 52.5 31t16.5 99t-22 102t-62 34h-31v109h27q37 0 52.5 16.5t15.5 43.5q0 29 -14.5 48.5t-34.5 37.5q-26 24 -49 54t-23 85h130
q0 -26 16.5 -46t41.5 -43q25 -22 44.5 -53t19.5 -71q0 -49 -29 -79t-84 -44v-3q55 -14 94.5 -62.5t39.5 -135.5q0 -106 -52.5 -169.5t-147.5 -63.5z" />
    <glyph glyph-name="uni10DF" unicode="&#x10df;" horiz-adv-x="537" 
d="M279 -250q-67 0 -111.5 30t-67 77.5t-22.5 98.5q0 30 4 53t14 48h122q-4 -19 -7.5 -41t-3.5 -50q0 -25 6.5 -49.5t21.5 -40.5t42 -16q37 0 53.5 33.5t16.5 101.5v455q-23 -13 -50.5 -21t-56.5 -12v-3q62 -31 62 -105q0 -61 -41 -96.5t-98 -35.5q-64 0 -100.5 34t-36.5 86
q0 21 7 41h93q-3 -13 -3 -27q0 -23 10 -37t29 -14t28 17t9 43q0 28 -11 47.5t-35 26.5v88q63 7 120 23.5t107 41.5h97v-558q0 -113 -51 -176t-147 -63z" />
    <glyph glyph-name="uni10E0" unicode="&#x10e0;" horiz-adv-x="675" 
d="M96 0q-30 78 -42 147t-12 148v52q0 96 17 173.5t62 131.5t127 81q30 10 81 19.5t130 17.5l15 -112q-33 -4 -74 -10t-77 -12.5t-54 -13.5q-45 -16 -72 -40t-40 -68h3q15 17 33.5 24t38.5 7q35 0 63 -26.5t41 -76.5h3q14 50 46.5 76.5t79.5 26.5q80 0 124 -72t44 -198
q0 -74 -12 -137.5t-43 -137.5h-124q24 64 35.5 133t11.5 139q0 83 -12 123t-42 40q-25 0 -36 -29.5t-11 -96.5v-133h-126v133q0 67 -10 96.5t-35 29.5q-31 0 -43 -40t-12 -125q0 -76 11.5 -142t34.5 -128h-124z" />
    <glyph glyph-name="uni10E1" unicode="&#x10e1;" horiz-adv-x="505" 
d="M256 -10q-97 0 -149 67.5t-52 196.5v506h130v-509q0 -75 17.5 -113t55.5 -38q39 0 56 37.5t17 95.5q0 40 -7 70t-18 57q-16 40 -28 81t-12 106h130q0 -51 10.5 -84.5t24.5 -63.5q17 -37 24.5 -75.5t7.5 -90.5q0 -70 -24 -125t-70 -86.5t-113 -31.5z" />
    <glyph glyph-name="uni10E2" unicode="&#x10e2;" horiz-adv-x="630" 
d="M316 -250q-138 0 -206 105.5t-68 312.5q0 167 52.5 263.5t163.5 116.5q-1 21 -3.5 38.5t-2.5 39.5v46h126v-45q0 -22 -1.5 -40t-4.5 -39q116 -19 166 -118.5t50 -262.5q0 -208 -66 -312.5t-206 -104.5zM316 -139q74 0 107 71.5t33 234.5q0 123 -19.5 187t-66.5 84
q5 -23 6.5 -49t1.5 -49v-170h-126v170q0 47 8 97q-47 -19 -66.5 -83.5t-19.5 -186.5q0 -160 34.5 -233t107.5 -73z" />
    <glyph glyph-name="uni10E3" unicode="&#x10e3;" horiz-adv-x="521" 
d="M258 -250q-72 0 -119 32t-69.5 83.5t-22.5 108.5q0 34 6 63t15 52h122q-4 -17 -9 -43.5t-5 -61.5q0 -31 7 -59.5t24.5 -46.5t48.5 -18q44 0 62 32.5t18 93.5v379q0 35 -10.5 55.5t-34.5 20.5q-25 0 -35.5 -20.5t-10.5 -53.5v-137h-126v135q0 34 -13 53t-44 19h-48v115h60
q81 0 106 -79h3q15 41 46.5 62.5t80.5 21.5q77 0 116.5 -52.5t39.5 -131.5v-397q0 -106 -52.5 -166t-155.5 -60z" />
    <glyph glyph-name="uni10E4" unicode="&#x10e4;" horiz-adv-x="694" 
d="M402 -250q-73 0 -124 24t-77.5 65t-26.5 91q0 10 1 19.5t3 18.5h123q-1 -4 -1 -9v-10q0 -43 28 -66t72 -23q55 0 79 32.5t24 83.5q0 41 -13 70.5t-41 29.5h-9v109h16q33 0 49 38t16 99q0 56 -12.5 90.5t-41.5 34.5q-28 0 -39.5 -29t-11.5 -93v-28q0 -46 -10 -91
t-31.5 -81.5t-57.5 -58.5t-89 -22q-65 0 -106 36t-60.5 95t-19.5 126q0 71 18.5 129t58.5 92.5t104 34.5q41 0 76 -24.5t50 -73.5h3q14 49 48.5 73.5t82.5 24.5q53 0 90.5 -29.5t58 -79.5t20.5 -114q0 -74 -28 -126.5t-86 -74.5v-3q50 -17 73.5 -59.5t23.5 -105.5
q0 -60 -26 -108.5t-77.5 -77.5t-129.5 -29zM230 154q34 0 46 39.5t12 106.5q0 69 -12 108t-46 39t-47 -39t-13 -108q0 -66 13 -106t47 -40z" />
    <glyph glyph-name="uni10E5" unicode="&#x10e5;" horiz-adv-x="485" 
d="M235 -250q-65 0 -109.5 32t-66.5 83.5t-22 108.5q0 34 6 63t15 52h122q-4 -17 -9 -43.5t-5 -61.5q0 -31 6.5 -59.5t21 -46.5t39.5 -18q35 0 51 32t16 100v314q0 68 -17 104.5t-49 36.5q-25 0 -38.5 -24.5t-13.5 -63.5q0 -45 9 -93h-121q-9 28 -13.5 50.5t-4.5 53.5
q0 63 20 104.5t52 62t66 20.5q72 0 110 -81h4q-1 32 -2.5 55t-1.5 39v190h130v-771q0 -113 -50.5 -176t-144.5 -63z" />
    <glyph glyph-name="uni10E6" unicode="&#x10e6;" horiz-adv-x="675" 
d="M403 -250q-23 61 -61.5 88.5t-80.5 27.5q-59 0 -110 -30l-38 84q17 10 41 17t52 9v4q-82 44 -123 131.5t-41 199.5q0 129 43 202.5t124 73.5q98 0 127 -103h3q14 50 46.5 76.5t79.5 26.5q80 0 124 -72.5t44 -203.5q0 -65 -11.5 -121.5t-41.5 -120.5l-114 33
q20 50 27.5 100.5t7.5 105.5q0 87 -12 128t-42 41q-25 0 -36 -30.5t-11 -101.5v-145h-126v145q0 71 -10 101.5t-35 30.5q-31 0 -43 -41t-12 -131t23 -148.5t60.5 -94.5t80.5 -60q61 -33 103.5 -73.5t63.5 -107.5z" />
    <glyph glyph-name="uni10E7" unicode="&#x10e7;" horiz-adv-x="499" 
d="M246 -250q-67 0 -111.5 30t-67 77.5t-22.5 98.5q0 30 4.5 53t14.5 48h122q-5 -19 -8.5 -41t-3.5 -50q0 -25 6.5 -49.5t22 -40.5t42.5 -16q37 0 53.5 33.5t16.5 101.5v85q0 38 1 69.5t4 68.5h-5q-38 -82 -120 -82q-71 0 -112 59t-41 163q0 56 8.5 102t21.5 87h125
q-11 -47 -17.5 -87.5t-6.5 -88.5q0 -59 15 -92t52 -33q35 0 55 38.5t20 125.5v137h129v-558q0 -113 -51 -176t-147 -63z" />
    <glyph glyph-name="uni10E8" unicode="&#x10e8;" horiz-adv-x="502" 
d="M248 -10q-101 0 -155 73t-54 193q0 121 41.5 190t116.5 69q38 0 68 -15.5t52 -56.5h5q-3 29 -4 50t-1 37v81q0 33 -9.5 45.5t-24.5 12.5t-24.5 -11.5t-9.5 -35.5v-53h-122v40q0 22 -9.5 36.5t-30.5 14.5q-11 0 -20.5 -2.5t-23.5 -7.5l-28 97q23 13 44.5 18t43.5 5
q30 0 52 -14.5t35 -47.5h4q30 62 112 62q37 0 69 -18t52 -53.5t20 -90.5v-353q0 -128 -51.5 -196.5t-147.5 -68.5zM246 100q38 0 54.5 39t16.5 109v29q0 65 -18 99t-58 34q-37 0 -53.5 -42t-16.5 -113q0 -73 17.5 -114t57.5 -41z" />
    <glyph glyph-name="uni10E9" unicode="&#x10e9;" horiz-adv-x="515" 
d="M54 0v597q0 77 48.5 125t130.5 48t127.5 -40.5t45.5 -109.5q0 -25 -9.5 -52.5t-33.5 -50.5v-4q99 -38 99 -230q0 -82 -10.5 -158t-24.5 -125h-130q9 30 16.5 74.5t12 96t4.5 101.5q0 79 -18 116t-53 37q-75 0 -75 -149v-276h-130zM180 464h5q14 28 43 51q52 42 52 97
q0 25 -12 39.5t-34 14.5q-25 0 -37 -18.5t-12 -41.5v-69q0 -10 -1 -25.5t-4 -47.5z" />
    <glyph glyph-name="uni10EA" unicode="&#x10ea;" horiz-adv-x="553" 
d="M287 -250q-72 0 -127.5 40.5t-86.5 131.5t-31 240q0 114 15.5 204t52.5 181h125q-23 -67 -36.5 -128t-19 -123t-5.5 -134q0 -163 29.5 -233t85.5 -70q47 0 71 35t24 115q0 70 -23.5 104.5t-64.5 34.5h-24v114h26q38 0 56 17t18 45t-10.5 49.5t-24.5 41.5q-16 23 -28 52
t-12 80h130q1 -29 12.5 -50.5t27.5 -44.5q15 -21 26 -48t11 -66q0 -52 -28.5 -83.5t-80.5 -45.5v-3q52 -14 86.5 -62.5t34.5 -143.5q0 -123 -61 -186.5t-168 -63.5z" />
    <glyph glyph-name="uni10EB" unicode="&#x10eb;" horiz-adv-x="505" 
d="M250 -10q-100 0 -154 75t-54 207q0 134 41 209.5t117 75.5q77 0 120 -81h4q-1 32 -2.5 55t-1.5 39v190h130v-489q0 -140 -51.5 -210.5t-148.5 -70.5zM249 100q38 0 54.5 41t16.5 123v24q0 81 -18 118.5t-59 37.5q-36 0 -52.5 -44.5t-16.5 -128.5q0 -85 17.5 -128
t57.5 -43z" />
    <glyph glyph-name="uni10EC" unicode="&#x10ec;" horiz-adv-x="502" 
d="M254 -10q-96 0 -147.5 68.5t-51.5 196.5v353q0 55 20 90.5t52.5 53.5t68.5 18q82 0 112 -62h4q14 33 35.5 47.5t51.5 14.5q22 0 44 -5t44 -18l-28 -97q-13 5 -23 7.5t-21 2.5q-21 0 -30.5 -14.5t-9.5 -36.5v-40h-122v53q0 24 -9.5 35.5t-24.5 11.5t-24.5 -12.5
t-9.5 -45.5v-81q0 -16 -1 -37t-4 -50h5q22 41 52.5 56.5t67.5 15.5q75 0 116.5 -69t41.5 -190q0 -120 -54 -193t-155 -73zM256 100q40 0 57.5 41t17.5 114q0 71 -16.5 113t-53.5 42q-40 0 -58 -34t-18 -99v-29q0 -70 17 -109t54 -39z" />
    <glyph glyph-name="uni10ED" unicode="&#x10ed;" horiz-adv-x="514" 
d="M269 -250q-68 0 -113.5 32t-67.5 83.5t-22 108.5q0 34 5.5 63t15.5 52h122q-4 -17 -8.5 -43.5t-4.5 -61.5q0 -31 6.5 -59.5t22.5 -46.5t43 -18q38 0 55 32.5t17 90.5q0 43 -8 77.5t-22 67.5t-23 63t-13 73h-4q-16 -20 -41.5 -30.5t-52.5 -10.5q-37 0 -69 19.5t-51 55
t-19 83.5q0 77 45.5 121.5t124.5 44.5h48v213h128v-213h82v-110h-82v-61q0 -61 11.5 -105.5t28.5 -85.5q19 -44 34 -92.5t15 -111.5q0 -107 -52.5 -169t-150.5 -62zM207 327q48 0 48 62v50h-39q-25 0 -40 -13.5t-15 -42.5q0 -27 13.5 -41.5t32.5 -14.5z" />
    <glyph glyph-name="uni10EE" unicode="&#x10ee;" horiz-adv-x="505" 
d="M255 -10q-97 0 -148.5 70.5t-51.5 210.5v489h130v-190q0 -16 -1 -39t-3 -55h4q43 81 120 81q76 0 117 -75.5t41 -209.5q0 -132 -53.5 -207t-154.5 -75zM256 100q41 0 58 43t17 128q0 84 -16.5 128.5t-52.5 44.5q-40 0 -58.5 -37.5t-18.5 -118.5v-24q0 -82 17 -123t54 -41
z" />
    <glyph glyph-name="uni10EF" unicode="&#x10ef;" horiz-adv-x="474" 
d="M303 303q0 -55 21 -94t50 -77q26 -33 44.5 -74t18.5 -98q0 -92 -51.5 -151t-147.5 -59q-67 0 -111.5 30t-67 77.5t-22.5 98.5q0 30 4.5 53t14.5 48h121q-4 -19 -7.5 -41t-3.5 -50q0 -25 6.5 -49.5t22 -40.5t41.5 -16q37 0 53 28t16 72q0 43 -17.5 76.5t-43.5 66.5
q-30 38 -51 84t-21 115v46l-125 30v107l125 -30v102h131v-133l124 -29v-108l-124 30v-14z" />
    <glyph glyph-name="uni10F0" unicode="&#x10f0;" horiz-adv-x="468" 
d="M229 -10q-66 0 -109 24.5t-64 63t-21 79.5q0 14 3 28.5t7 27.5h120q-4 -13 -4 -34q0 -28 14 -53.5t52 -25.5q33 0 50 21t17 55q0 37 -17.5 58.5t-55.5 21.5h-22v105h27q34 0 48 11t14 31t-14 32t-47 12h-28v106h27q50 0 50 34q0 22 -14.5 34t-34.5 24q-17 11 -34 24
t-28 34.5t-11 56.5h131q0 -21 17 -35.5t39 -28.5q23 -14 43.5 -37.5t20.5 -62.5t-23 -59.5t-70 -30.5v-4q47 -5 76 -31t29 -68q0 -49 -29 -69t-76 -28v-3q47 -10 80.5 -44t33.5 -93q0 -49 -23 -89t-67 -63.5t-107 -23.5z" />
    <glyph glyph-name="uni10F1" unicode="&#x10f1;" horiz-adv-x="558" 
d="M297 -10q-77 0 -134.5 39.5t-89 127t-31.5 229.5q0 112 15.5 200.5t48.5 173.5h123q-20 -63 -32.5 -121.5t-17.5 -120t-5 -132.5q0 -152 31 -219.5t95 -67.5q40 0 61.5 21.5t21.5 58.5q0 35 -19 56t-55 21h-21v105h28q33 0 47.5 11t14.5 31t-14.5 32t-46.5 12h-29v106h27
q25 0 38 9t13 31q0 19 -9 32.5t-22 26.5q-16 16 -30.5 39t-14.5 69h130q0 -19 9 -34t22 -30q16 -18 29.5 -41t13.5 -58q0 -40 -24.5 -61.5t-68.5 -29.5v-4q47 -5 76 -31t29 -68q0 -49 -29 -69t-76 -28v-3q47 -10 81 -44t34 -93q0 -50 -27 -90t-76 -63t-116 -23z" />
    <glyph glyph-name="uni10F2" unicode="&#x10f2;" 
d="M52 0v110q21 0 49.5 3.5t60.5 16.5v4q-120 78 -120 218q0 58 24.5 104.5t71.5 73.5t112 27q66 0 112.5 -27t71 -73.5t24.5 -104.5q0 -140 -120 -218v-4q31 -12 60 -16t50 -4v-110q-53 0 -103.5 16.5t-94.5 44.5q-44 -28 -94 -44.5t-104 -16.5zM250 171q34 30 55 72.5
t21 104.5q0 41 -19.5 70t-56.5 29t-56.5 -29t-19.5 -70q0 -62 21 -104.5t55 -72.5z" />
    <glyph glyph-name="uni10F3" unicode="&#x10f3;" horiz-adv-x="480" 
d="M240 -250q-65 0 -110.5 29.5t-69 77.5t-23.5 101q0 31 5.5 54.5t14.5 43.5h121q-4 -13 -7.5 -35t-3.5 -53q0 -24 7 -49t22.5 -42t41.5 -17q73 0 73 130q0 86 -26.5 118t-78.5 32h-42v94l114 203h-204v110h349v-88l-129 -227q42 -9 75.5 -35.5t53.5 -76.5t20 -131
q0 -108 -53.5 -173.5t-149.5 -65.5z" />
    <glyph glyph-name="uni10F4" unicode="&#x10f4;" horiz-adv-x="470" 
d="M234 -250q-56 0 -101 23t-70.5 65t-25.5 99q0 31 4.5 53.5t13.5 50.5h119q-4 -21 -6.5 -41t-2.5 -46q0 -43 17 -68.5t51 -25.5q35 0 51.5 31t16.5 99t-22 102t-62 34h-31v109h27q36 0 52 19.5t16 54.5q0 43 -29 73t-66 57q-27 21 -53.5 45t-43.5 57.5t-17 81.5
q0 67 48.5 107t125.5 40q41 0 76.5 -8.5t68.5 -28.5l-41 -95q-54 24 -95 24q-21 0 -36 -11t-15 -34q0 -32 23.5 -54.5t63.5 -51.5q29 -20 56.5 -45.5t46 -59.5t18.5 -81q0 -58 -29 -92.5t-84 -48.5v-3q55 -14 94.5 -62.5t39.5 -135.5q0 -106 -52 -169.5t-147 -63.5z" />
    <glyph glyph-name="uni10F5" unicode="&#x10f5;" horiz-adv-x="497" 
d="M228 -10q-86 0 -136 43.5t-50 128.5q0 84 49.5 129t139.5 45h52v96h-52q-90 0 -139.5 41.5t-49.5 125.5t50 127.5t133 43.5q53 0 95 -20.5t66.5 -60t24.5 -96.5v-58h71v-103h-71v-96h71v-104h-71v-62q0 -90 -49.5 -135t-133.5 -45zM237 535h46v54q0 77 -58 77
q-27 0 -40 -18t-13 -47q0 -33 17.5 -49.5t47.5 -16.5zM226 94q26 0 41.5 20.5t15.5 59.5v58h-43q-68 0 -68 -70q0 -33 14.5 -50.5t39.5 -17.5z" />
    <glyph glyph-name="uni10F6" unicode="&#x10f6;" horiz-adv-x="745" 
d="M307 -250q-58 0 -98 25v106q29 -17 60 -17q20 0 29.5 12.5t9.5 40.5v61q0 24 1.5 47.5t3.5 48.5h-5q-13 -39 -42 -61.5t-70 -22.5q-73 0 -113.5 75t-40.5 209q0 132 41 207.5t117 75.5q42 0 68 -20.5t42 -56.5h5q-3 17 -5 35t-2 40v49q0 77 39 121.5t109 44.5
q17 0 38.5 -3t33.5 -8v-111q-24 8 -43 8q-47 0 -47 -54v-47q0 -23 -1.5 -40.5t-6.5 -34.5h6q16 36 41.5 56.5t68.5 20.5q76 0 116.5 -75.5t40.5 -207.5q0 -134 -40.5 -209t-112.5 -75q-41 0 -70 22.5t-43 61.5h-4q2 -29 3.5 -53t1.5 -47v-65q0 -85 -32.5 -122t-98.5 -37z
M241 101q31 0 49 36t18 112v43q0 156 -68 156q-67 0 -67 -175q0 -172 68 -172zM505 101q68 0 68 172q0 175 -68 175q-67 0 -67 -156v-43q0 -76 18 -112t49 -36z" />
    <glyph glyph-name="uni10F7" unicode="&#x10f7;" horiz-adv-x="470" 
d="M239 -250q-90 0 -146 54t-56 156q0 67 22.5 115.5t58.5 85t76 67.5q37 28 60 49t34.5 43t11.5 53q0 35 -15 54.5t-40 19.5q-27 0 -42 -21t-15 -53q0 -23 6 -41h-131q-3 11 -4.5 23t-1.5 29q0 47 22 85.5t64.5 61.5t102.5 23q89 0 136 -50t47 -127q0 -52 -14.5 -92
t-45.5 -75t-80 -73q-55 -42 -86.5 -81t-31.5 -101q0 -49 18 -73t46 -24q29 0 48 25t19 75q0 18 -2 33.5t-7 31.5h131q9 -33 9 -71q0 -96 -52.5 -149t-141.5 -53z" />
    <glyph glyph-name="uni10F8" unicode="&#x10f8;" horiz-adv-x="499" 
d="M253 -250q-96 0 -147 63t-51 176v558h129v-137q0 -87 20 -125.5t55 -38.5q37 0 52 33t15 92q0 48 -6.5 88.5t-17.5 87.5h125q14 -41 22 -87t8 -102q0 -104 -41 -163t-112 -59q-82 0 -120 82h-5q3 -37 4 -68.5t1 -69.5v-85q0 -68 16.5 -101.5t53.5 -33.5q27 0 42.5 16
t22 40.5t6.5 49.5q0 28 -3.5 50t-8.5 41h122q10 -25 14.5 -48t4.5 -53q0 -51 -22.5 -98.5t-67 -77.5t-111.5 -30z" />
    <glyph glyph-name="uni10F9" unicode="&#x10f9;" 
d="M251 557q71 0 117 -38.5t68 -101t22 -134.5q0 -112 -45 -180t-128 -88q-48 -11 -64 -35t-16 -66q0 -26 11.5 -44t34.5 -18t34.5 15.5t11.5 42.5q0 11 -1.5 21.5t-3.5 20.5h119q4 -13 6 -26.5t2 -27.5q0 -64 -45.5 -106t-123.5 -42q-85 0 -127 46t-42 113q0 35 15.5 71
t59.5 57v4q-54 22 -84 82.5t-30 159.5q0 71 20.5 133.5t66.5 101.5t122 39zM250 447q-40 0 -58 -42t-18 -122q0 -79 18 -121t58 -42t58 41.5t18 122.5q0 78 -18 120.5t-58 42.5z" />
    <glyph glyph-name="uni10FA" unicode="&#x10fa;" horiz-adv-x="398" 
d="M90 -104v109l56 27v3q-49 23 -76.5 84.5t-27.5 151.5q0 83 22 147.5t68 101.5t118 37q78 0 133 -36l-36 -105q-44 28 -83 28q-43 0 -66 -44t-23 -129q0 -169 87 -169q54 0 111 40v-118z" />
    <glyph glyph-name="uni10FB" unicode="&#x10fb;" horiz-adv-x="420" 
d="M107 401q-28 0 -51.5 20t-23.5 56q0 38 23.5 57t51.5 19q26 0 49 -19.5t23 -56.5q0 -36 -23 -56t-49 -20zM307 194q-27 0 -51 19.5t-24 56.5q0 38 24 57t51 19q26 0 49 -19.5t23 -56.5q0 -36 -23 -56t-49 -20zM107 -13q-28 0 -51.5 19.5t-23.5 56.5t24 56.5t51 19.5
q26 0 49 -19.5t23 -56.5q0 -36 -23 -56t-49 -20z" />
    <glyph glyph-name="uni10FC" unicode="&#x10fc;" horiz-adv-x="306" 
d="M158 405q-60 0 -91.5 41.5t-31.5 120.5v174q0 53 34 77.5t79 24.5h108v-76h-95q-34 0 -34 -30v-9q0 -9 -0.5 -19t-2.5 -30h3q26 41 68 41q44 0 67.5 -40.5t23.5 -112.5q0 -78 -33.5 -120t-94.5 -42zM159 482q19 0 26.5 21t7.5 64q0 37 -7 58t-24 21q-35 0 -35 -66v-17
q0 -43 7.5 -62t24.5 -19z" />
    <glyph glyph-name="uni10FD" unicode="&#x10fd;" horiz-adv-x="470" 
d="M231 -10q-89 0 -141.5 53t-52.5 149q0 38 9 71h131q-5 -16 -7 -31.5t-2 -33.5q0 -50 19 -75t48 -25q28 0 46 24t18 71q0 53 -32 89.5t-87 78.5q-48 38 -79 71t-45.5 71t-14.5 90q0 77 47 127t135 50q61 0 103 -23t64 -61.5t22 -85.5q0 -16 -1.5 -28.5t-3.5 -23.5h-131
q3 9 4 20t1 22q0 32 -14.5 53t-41.5 21q-25 0 -40 -19t-15 -53q0 -30 11 -51t34.5 -41t59.5 -48q41 -30 77 -65t58.5 -80t22.5 -107q0 -102 -56 -156t-146 -54z" />
    <glyph glyph-name="uni10FE" unicode="&#x10fe;" 
d="M52 547q54 0 104 -16.5t94 -44.5q44 28 94.5 44.5t103.5 16.5v-110q-21 0 -50 -4t-60 -16v-4q120 -78 120 -218q0 -58 -24.5 -104.5t-71 -73.5t-112.5 -27q-65 0 -112 27t-71.5 73.5t-24.5 104.5q0 140 120 218v4q-32 13 -60.5 16.5t-49.5 3.5v110zM250 376
q-34 -30 -55 -72.5t-21 -104.5q0 -41 19.5 -70t56.5 -29t56.5 29t19.5 70q0 62 -21 104.5t-55 72.5z" />
    <glyph glyph-name="uni10FF" unicode="&#x10ff;" 
d="M458 275q0 -76 -20.5 -141t-66.5 -104.5t-122 -39.5q-71 0 -117 39t-68 104t-22 142q0 83 21.5 146.5t68 99.5t119.5 36q95 0 151 -72.5t56 -209.5zM174 273q0 -85 18 -129t58 -44q41 0 58 43.5t17 131.5q0 86 -17 129t-58 43q-40 0 -58 -42.5t-18 -131.5z" />
    <glyph glyph-name="uni1C90" unicode="&#x1c90;" horiz-adv-x="518" 
d="M257 -10q-101 0 -158.5 63t-57.5 170q0 33 5 63.5t15 65.5h-60l75 46q-9 -25 -15 -46h137q-9 -35 -12.5 -64t-3.5 -53q0 -60 18 -93t56 -33q40 0 57 33t17 95q0 61 -20 113.5t-49 101.5q-22 39 -43 79t-31.5 85t-2.5 98h141q-8 -55 13 -106.5t53 -108.5q30 -53 55.5 -118
t25.5 -148q0 -115 -57 -179t-158 -64zM213 404l47 -52h-62q6 25 15 52z" />
    <glyph glyph-name="uni1C91" unicode="&#x1c91;" horiz-adv-x="542" 
d="M271 -10q-74 0 -124.5 38.5t-75.5 100t-25 131.5q0 97 41 168t126 91q6 14 6 29q0 17 -7.5 29.5t-21.5 25.5q-19 20 -33.5 43t-7.5 68h140q-1 -19 8 -32.5t22 -26.5q14 -13 28 -32.5t14 -53.5q0 -16 -3.5 -29.5t-9.5 -25.5q67 -23 107.5 -88t40.5 -166q0 -51 -13 -99.5
t-40 -87t-69.5 -61t-102.5 -22.5zM272 109q82 0 82 151q0 147 -82 147q-84 0 -84 -149q0 -71 22 -110t62 -39z" />
    <glyph glyph-name="uni1C92" unicode="&#x1c92;" horiz-adv-x="532" 
d="M266 -10q-74 0 -124.5 37t-75.5 96.5t-25 124.5q0 98 49 166.5t152 84.5q45 7 57 25.5t12 42.5q0 23 -13 36.5t-38 13.5q-24 0 -37.5 -13t-13.5 -33q0 -14 3 -26h-127q-5 18 -5 41q0 37 22 68.5t62.5 50.5t96.5 19q89 0 135.5 -42.5t46.5 -103.5q0 -31 -15 -62.5
t-50 -50.5v-3q55 -26 84 -77t29 -137q0 -48 -13 -94t-40 -83t-69.5 -59t-102.5 -22zM267 110q41 0 61.5 35.5t20.5 102.5q0 62 -20.5 97t-61.5 35q-40 0 -62 -34.5t-22 -99.5q0 -64 22 -100t62 -36z" />
    <glyph glyph-name="uni1C93" unicode="&#x1c93;" horiz-adv-x="773" 
d="M456 0q-6 32 -30.5 51t-57.5 27t-67 8t-70.5 -9.5t-63.5 -23.5l-41 89q20 11 44.5 18.5t51.5 11.5v4q-87 41 -131.5 120.5t-44.5 172.5q0 117 50.5 186t141.5 69q47 0 83.5 -21t50.5 -64h4q16 43 57 64t87 21q72 0 117.5 -33t67.5 -87.5t22 -119.5q0 -43 -12 -85.5
t-37.5 -77.5t-65.5 -56t-96 -21q-58 0 -99 20.5t-65.5 54.5t-36 74t-11.5 78v27q0 44 -9 75.5t-45 31.5q-34 0 -49 -34t-15 -104q0 -65 18.5 -111.5t50 -78t70 -52t78.5 -34.5q46 -15 86.5 -38.5t67.5 -60t31 -92.5h-132zM515 363q39 0 55 34.5t16 84.5q0 57 -16 90t-55 33
q-40 0 -55.5 -33t-15.5 -89q0 -51 15.5 -85.5t55.5 -34.5z" />
    <glyph glyph-name="uni1C94" unicode="&#x1c94;" horiz-adv-x="528" 
d="M256 -10q-71 0 -119 29.5t-72 78t-24 105.5q0 26 5 51.5t12 48.5h135q-11 -42 -11 -88q0 -43 16.5 -74.5t57.5 -31.5q43 0 58.5 29.5t15.5 78.5v314q0 35 -17 54.5t-49 19.5q-31 0 -48 -20t-17 -52q0 -37 7 -78h-136q-6 24 -9 44t-3 45q0 59 27.5 99t74.5 60.5t105 20.5
q59 0 104.5 -23t71.5 -65.5t26 -101.5v-321q0 -106 -55 -164.5t-156 -58.5z" />
    <glyph glyph-name="uni1C95" unicode="&#x1c95;" horiz-adv-x="518" 
d="M260 -10q-100 0 -159.5 55.5t-59.5 149.5q0 38 12 81h135q-3 -15 -5 -31t-2 -33q0 -46 18.5 -76t59.5 -30q77 0 77 106q0 53 -22 82t-65 29h-26v113h28q41 0 57.5 27t16.5 67q0 78 -65 78q-32 0 -48 -21t-16 -51q0 -14 2 -26t4 -25h-137q-3 17 -5.5 31.5t-2.5 38.5
q0 54 27.5 92t74 57.5t103.5 19.5q59 0 105 -21t72.5 -60.5t26.5 -95.5q0 -60 -27 -102t-79 -56v-3q52 -14 84.5 -61t32.5 -123q0 -59 -25.5 -107.5t-74 -76.5t-117.5 -28z" />
    <glyph glyph-name="uni1C96" unicode="&#x1c96;" horiz-adv-x="559" 
d="M291 -10q-76 0 -124.5 34.5t-71.5 89.5t-23 114q0 52 12.5 95t42.5 74v3q-52 16 -81 57.5t-29 91.5q0 47 19 87t60 64t106 24q58 0 99 -21.5t63 -57t22 -79.5q0 -57 -30 -90v-2q4 -1 8 -1.5t9 -2.5q71 -22 105.5 -81.5t34.5 -142.5q0 -49 -12 -94.5t-38 -82t-68.5 -58
t-103.5 -21.5zM201 480q30 0 42 20.5t12 49.5t-12.5 48.5t-41.5 19.5q-28 0 -41 -19.5t-13 -48.5q0 -28 13 -49t41 -21zM293 108q44 0 61 37t17 101q0 63 -17.5 99t-61.5 36q-42 0 -60 -36t-18 -101q0 -63 19.5 -99.5t59.5 -36.5z" />
    <glyph glyph-name="uni1C97" unicode="&#x1c97;" horiz-adv-x="817" 
d="M565 724q100 0 151 -83.5t51 -239.5q0 -91 -8.5 -158.5t-23.5 -124.5t-36 -118h-141q26 78 46.5 174.5t20.5 225.5q0 78 -8.5 122.5t-24 63t-35.5 18.5q-30 0 -45.5 -27t-15.5 -86q0 -30 3 -64.5t3 -69.5q0 -189 -53.5 -278t-171.5 -89q-117 0 -172.5 88.5t-54.5 278.5
q1 189 53.5 278t170.5 89q50 0 90.5 -20t59.5 -64h3q17 44 56.5 64t81.5 20zM277 109q47 0 65 58t18 190q0 136 -18.5 192t-64.5 56q-48 0 -66.5 -57.5t-18.5 -190.5t19 -190.5t66 -57.5z" />
    <glyph glyph-name="uni1C98" unicode="&#x1c98;" horiz-adv-x="551" 
d="M103 0q-18 61 -30 117.5t-17.5 121.5t-5.5 150q0 165 55.5 250t169.5 85t170 -84.5t56 -250.5q0 -89 -6 -154.5t-18 -120.5t-30 -114h-137q15 51 26 107t17 124.5t6 156.5q0 84 -10 131t-28.5 66.5t-45.5 19.5q-26 0 -45 -19t-29 -66t-10 -132q0 -87 6 -155.5
t17.5 -124.5t26.5 -108h-138z" />
    <glyph glyph-name="uni1C99" unicode="&#x1c99;" horiz-adv-x="505" 
d="M249 -10q-64 0 -112 25t-75 71.5t-27 108.5q0 38 12 81h135q-3 -15 -5 -31t-2 -33q0 -46 18 -76t56 -30q36 0 54.5 26.5t18.5 86.5q0 62 -23 91.5t-66 29.5h-27v116h25q41 0 60.5 21t19.5 55q0 32 -15.5 52t-44.5 24v116q87 0 143 -44t56 -128q0 -55 -25.5 -94t-74.5 -53
v-3q50 -13 82 -61.5t32 -131.5q0 -64 -26 -113.5t-74 -77.5t-115 -28z" />
    <glyph glyph-name="uni1C9A" unicode="&#x1c9a;" horiz-adv-x="954" 
d="M562 0q-7 30 -29 50.5t-51.5 32t-61 16.5t-58.5 5q-47 0 -88 -11.5t-70 -28.5l-46 86q23 12 46 20.5t45 11.5v4q-92 26 -147.5 98.5t-55.5 199.5q0 108 46 174t128 66q51 0 86 -23.5t48 -67.5h4q13 45 44 68t76 23q46 0 76.5 -24t42.5 -67h4q14 44 48.5 67.5t85.5 23.5
q83 0 128 -67t45 -179q0 -68 -11.5 -120t-40.5 -108l-126 35q22 44 30.5 89t8.5 103q0 63 -13 95.5t-44 32.5q-21 0 -31 -13t-13.5 -33t-3.5 -40v-152h-136v152q0 34 -9.5 60t-40.5 26q-22 0 -33.5 -13t-15 -33t-3.5 -40v-152h-135v152q0 35 -9.5 60.5t-38.5 25.5
q-31 0 -44 -32.5t-13 -97.5q0 -83 27.5 -134t80.5 -78.5t130 -40.5q39 -7 83 -21t83.5 -39t68 -64.5t36.5 -97.5h-133z" />
    <glyph glyph-name="uni1C9B" unicode="&#x1c9b;" horiz-adv-x="548" 
d="M272 -10q-108 0 -167 70t-59 189t46 184t128 65q40 0 73 -14t55 -49h5q-3 29 -3.5 48t-0.5 32v36q0 29 -17 46.5t-49 17.5q-31 0 -49 -15t-18 -41v-7.5t1 -8.5h-136q-2 11 -2.5 19t-0.5 14q0 46 27.5 79t74 51t102.5 18q93 0 149 -48.5t56 -134.5v-292q0 -125 -56 -192
t-159 -67zM271 109q43 0 60.5 37.5t17.5 95.5v28q0 54 -19.5 86t-64.5 32q-40 0 -58.5 -37t-18.5 -102q0 -67 19.5 -103.5t63.5 -36.5z" />
    <glyph glyph-name="uni1C9C" unicode="&#x1c9c;" horiz-adv-x="548" 
d="M277 -10q-103 0 -159.5 67t-56.5 192v289q0 60 26 99t69.5 58t94.5 19h207v-120h-184q-34 0 -54.5 -15t-20.5 -51v-23q0 -13 -0.5 -27.5t-4.5 -46.5h6q23 39 55.5 55t75.5 16q80 0 125.5 -67t45.5 -185t-58.5 -189t-166.5 -71zM279 109q44 0 63 36.5t19 101.5
q0 64 -18.5 101t-58.5 37q-36 0 -54.5 -18.5t-24.5 -47.5t-6 -59v-23q0 -33 6 -62.5t23.5 -47.5t50.5 -18z" />
    <glyph glyph-name="uni1C9D" unicode="&#x1c9d;" horiz-adv-x="765" 
d="M117 0q-20 61 -35 117t-23.5 123.5t-8.5 160.5q0 156 50.5 239.5t146.5 83.5q44 0 80 -17.5t54 -63.5h3q19 45 56.5 63t76.5 18q96 0 147 -83t51 -240q0 -89 -8 -156.5t-23.5 -125.5t-36.5 -119h-140q25 75 45.5 170t20.5 230q0 114 -16.5 159.5t-48.5 45.5
q-24 0 -36 -19.5t-15.5 -48.5t-3.5 -57v-270h-141v270q0 29 -3.5 57.5t-15.5 48t-38 19.5q-30 0 -47 -45t-17 -160q0 -133 21 -228t46 -172h-141z" />
    <glyph glyph-name="uni1C9E" unicode="&#x1c9e;" horiz-adv-x="515" 
d="M253 -10q-63 0 -110.5 25t-74.5 71.5t-27 108.5q0 38 12 81h135q-3 -15 -5 -31t-2 -33q0 -46 17.5 -76t53.5 -30q39 0 57 27.5t18 85.5q0 57 -24.5 88t-68.5 31h-32v114h31q38 0 55.5 13t17.5 36q0 24 -18 41.5t-43 35.5q-30 22 -51.5 54t-17.5 82h140q0 -22 17 -40
t42 -38q30 -23 51 -54t21 -78q0 -37 -24 -66t-67 -40v-3q27 -8 53 -31.5t43 -61.5t17 -92q0 -63 -26 -113t-74 -78.5t-116 -28.5z" />
    <glyph glyph-name="uni1C9F" unicode="&#x1c9f;" horiz-adv-x="581" 
d="M301 -10q-65 0 -113.5 25.5t-75.5 71.5t-27 108q0 20 3.5 40.5t9.5 40.5h135q-4 -17 -5.5 -33t-1.5 -31q0 -45 17.5 -75.5t56.5 -30.5q46 0 62 32t16 83v384q-25 -10 -49.5 -17t-53.5 -12v-2q28 -13 40 -38.5t12 -54.5q0 -39 -20.5 -68t-55 -45t-76.5 -16q-68 0 -107 36
t-39 84q0 8 1 17.5t4 19.5h107q-1 -5 -1.5 -10t-0.5 -10q0 -16 10 -26.5t26 -10.5q37 0 37 43q0 19 -9.5 35t-35.5 17v110q67 6 124.5 20.5t112.5 36.5h111v-502q0 -106 -55.5 -164t-158.5 -58z" />
    <glyph glyph-name="uni1CA0" unicode="&#x1ca0;" horiz-adv-x="736" 
d="M94 0q-19 56 -29.5 103t-14.5 96.5t-4 112.5t8.5 122.5t32.5 110.5t68 88.5t115 56.5q32 8 89.5 17.5t139.5 16.5l17 -118q-35 -3 -80.5 -9.5t-85.5 -13t-61 -12.5q-41 -11 -73.5 -31t-46.5 -55l2 -2q15 15 35 21.5t42 6.5q42 0 74.5 -24.5t45.5 -74.5h3q14 50 49.5 74.5
t86.5 24.5q86 0 134.5 -68.5t48.5 -184.5q0 -47 -5 -88t-16 -81.5t-28 -88.5h-138q22 61 33.5 126t11.5 128q0 71 -12.5 106.5t-46.5 35.5t-43.5 -31t-9.5 -78v-129h-137v129q0 48 -9.5 78.5t-41.5 30.5q-36 0 -48 -35.5t-12 -108.5t12 -134t31 -118h-137z" />
    <glyph glyph-name="uni1CA1" unicode="&#x1ca1;" horiz-adv-x="545" 
d="M276 -10q-104 0 -159.5 66t-55.5 188v470h137v-475q0 -35 6.5 -65t24 -47.5t49.5 -17.5q43 0 61 32t18 83q0 36 -7.5 63.5t-19.5 53.5q-19 41 -31.5 81.5t-8.5 92.5h138q-1 -31 9.5 -65.5t26.5 -66.5q17 -35 26 -71.5t9 -87.5q0 -68 -26 -121t-75.5 -83t-121.5 -30z" />
    <glyph glyph-name="uni1CA2" unicode="&#x1ca2;" horiz-adv-x="686" 
d="M344 -10q-148 0 -223 95t-75 269q0 150 57.5 238.5t174.5 107.5q-1 11 -2 19.5t-1 18.5v14h136v-14v-19t-2 -19q119 -19 175 -106.5t56 -240.5q0 -174 -73.5 -268.5t-222.5 -94.5zM343 109q155 0 155 241q0 110 -22.5 165t-72.5 70q5 -20 6 -44.5t1 -47.5v-156h-134v155
q0 21 1.5 47t5.5 45q-51 -14 -73 -71t-22 -163q0 -118 39 -179.5t116 -61.5z" />
    <glyph glyph-name="uni1CA3" unicode="&#x1ca3;" horiz-adv-x="538" 
d="M267 -10q-71 0 -119 29.5t-72 78t-24 105.5q0 49 17 100h135q-5 -20 -8.5 -44t-3.5 -44q0 -43 17 -74t58 -31q44 0 58.5 30.5t14.5 76.5v325q0 23 -10.5 42t-39.5 19q-26 0 -38 -16.5t-12 -42.5v-121h-134v114q0 28 -13 43.5t-40 15.5h-38v124h45q37 0 66.5 -15.5
t44.5 -54.5h3q16 37 51.5 55.5t86.5 18.5q56 0 92.5 -23t54.5 -61.5t18 -86.5v-340q0 -105 -54.5 -164t-155.5 -59z" />
    <glyph glyph-name="uni1CA4" unicode="&#x1ca4;" horiz-adv-x="766" 
d="M449 -9q-79 0 -133.5 23t-82.5 61t-28 83q0 9 1 18t3 17h130v-13q0 -37 30.5 -56t79.5 -19q60 0 86.5 27t26.5 65q0 35 -15 58.5t-45 23.5h-8v115h15q37 0 54.5 31t17.5 82q0 48 -13 73t-44 25q-26 0 -37.5 -16.5t-14.5 -41t-3 -49.5v-25q0 -37 -11.5 -76.5t-36.5 -73.5
t-65.5 -54.5t-98.5 -20.5q-56 0 -96 21t-65.5 55.5t-37.5 77t-12 84.5q0 64 22 118t68 87t117 33q47 0 87.5 -21t56.5 -62h4q14 42 51 62.5t86 20.5q57 0 97.5 -26t62.5 -71.5t22 -105.5q0 -71 -27.5 -116.5t-86.5 -65.5v-2q50 -16 73 -54.5t23 -94.5q0 -53 -28.5 -98
t-85 -72t-139.5 -27zM259 367q39 0 54.5 33.5t15.5 84.5q0 53 -15.5 86.5t-54.5 33.5q-40 0 -56.5 -32.5t-16.5 -88.5q0 -49 16.5 -83t56.5 -34z" />
    <glyph glyph-name="uni1CA5" unicode="&#x1ca5;" horiz-adv-x="525" 
d="M255 -10q-64 0 -112 25t-75 71.5t-27 108.5q0 37 12 80h135q-4 -18 -5.5 -34t-1.5 -30q0 -45 18 -75.5t55 -30.5q42 0 57.5 32.5t15.5 85.5v164q0 56 -18.5 85.5t-53.5 29.5q-28 0 -44 -22t-16 -55q0 -10 1 -21t2 -20h-135q-3 13 -4 25.5t-1 28.5q0 60 21.5 100t56 59.5
t72.5 19.5q37 0 67.5 -14.5t50.5 -50.5h5q-2 25 -3 46.5t-1 34.5v81h137v-495q0 -109 -55 -169t-154 -60z" />
    <glyph glyph-name="uni1CA6" unicode="&#x1ca6;" horiz-adv-x="730" 
d="M422 0q-9 48 -48.5 72t-88.5 24q-37 0 -67 -8t-56 -22l-42 89q17 8 39.5 16.5t53.5 10.5v4q-82 38 -124.5 114.5t-42.5 168.5q0 118 47 186.5t134 68.5q51 0 86 -24t50 -72h3q14 48 50.5 72t87.5 24q85 0 132.5 -68t47.5 -185q0 -61 -12 -113t-44 -113l-122 34
q23 47 30.5 92.5t7.5 94.5q0 71 -13 105t-47 34q-24 0 -35 -16t-14 -41.5t-3 -55.5v-128h-134v128q0 47 -8 80t-43 33t-48 -34t-13 -106q0 -63 16 -106t44 -72.5t63.5 -49t75.5 -35.5q46 -18 84 -43.5t62 -64t28 -94.5h-137z" />
    <glyph glyph-name="uni1CA7" unicode="&#x1ca7;" horiz-adv-x="537" 
d="M263 -10q-98 0 -157.5 55.5t-59.5 149.5q0 37 12 80h135q-4 -18 -5.5 -34t-1.5 -30q0 -45 18 -75.5t58 -30.5q45 0 61 32.5t16 85.5v62q0 32 0.5 59.5t4.5 64.5h-5q-19 -32 -50.5 -50.5t-74.5 -18.5q-76 0 -120.5 54t-44.5 148q0 54 9 95.5t24 76.5h134
q-12 -40 -19 -76.5t-7 -81.5q0 -49 16 -75t53 -26q36 0 58 33.5t22 101.5v124h137v-495q0 -107 -55.5 -168t-157.5 -61z" />
    <glyph glyph-name="uni1CA8" unicode="&#x1ca8;" horiz-adv-x="543" 
d="M268 -10q-108 0 -166 70t-58 189q0 114 46 178.5t131 64.5q37 0 69 -14t54 -49h5q-3 29 -3.5 48t-0.5 32v61q0 48 -39 48q-16 0 -27.5 -10.5t-11.5 -30.5v-40h-128v29q0 18 -11 30.5t-34 12.5q-22 0 -46 -10l-32 105q24 11 48.5 15.5t46.5 4.5q32 0 57.5 -14.5
t38.5 -45.5h3q15 31 48.5 45.5t75.5 14.5q40 0 73.5 -17t54 -51t20.5 -84v-323q0 -125 -55.5 -192t-158.5 -67zM267 108q43 0 60.5 38t17.5 96v28q0 50 -19.5 81t-64.5 31q-40 0 -58.5 -36t-18.5 -97q0 -67 19.5 -104t63.5 -37z" />
    <glyph glyph-name="uni1CA9" unicode="&#x1ca9;" horiz-adv-x="543" 
d="M61 0v545q0 51 24 91.5t67.5 64t100.5 23.5q83 0 135.5 -39t52.5 -114q0 -27 -11 -56.5t-42 -51.5v-3q59 -21 84 -77.5t25 -138.5q0 -83 -10.5 -143t-24.5 -101h-137q14 40 22 97.5t8 134.5q0 73 -18 107t-57 34q-82 0 -82 -126v-247h-137zM194 421h5q8 14 22.5 27
t30.5 23q30 20 43 42t13 48q0 25 -13 41t-41 16t-41.5 -20.5t-13.5 -51.5v-59q0 -9 -1 -23t-4 -43z" />
    <glyph glyph-name="uni1CAA" unicode="&#x1caa;" horiz-adv-x="602" 
d="M313 -10q-78 0 -138 36.5t-94.5 119t-34.5 220.5q0 70 7 127.5t21 111t36 109.5h136q-22 -64 -34.5 -118t-18 -108.5t-5.5 -121.5q0 -95 14.5 -151.5t43 -81t69.5 -24.5q104 0 104 123q0 56 -26 85t-70 29h-27v120h32q37 0 58 13t21 37q0 18 -9 34.5t-27 35.5
q-20 23 -35 51.5t-11 76.5h137q0 -22 10 -38.5t26 -36.5q17 -21 32.5 -46.5t15.5 -70.5q0 -40 -28 -71.5t-73 -41.5v-3q46 -11 81 -56t35 -128q0 -114 -67 -173t-181 -59z" />
    <glyph glyph-name="uni1CAB" unicode="&#x1cab;" horiz-adv-x="548" 
d="M272 -10q-108 0 -167 71t-59 196q0 126 46 198t127 72q39 0 72.5 -17.5t56.5 -58.5h6q-3 36 -4 58t-1 36v169h138v-458q0 -131 -56 -198.5t-159 -67.5zM271 109q32 0 48.5 20t23 52.5t6.5 68.5v25q0 29 -5.5 59t-23.5 51t-55 21q-40 0 -58.5 -39t-18.5 -111t19.5 -109.5
t63.5 -37.5z" />
    <glyph glyph-name="uni1CAC" unicode="&#x1cac;" horiz-adv-x="544" 
d="M274 -10q-102 0 -157.5 66.5t-55.5 192.5v323q0 50 20 84t53.5 51t73.5 17q44 0 77 -15t48 -45h2q14 32 39.5 46t56.5 14q22 0 47 -4.5t49 -15.5l-32 -105q-13 5 -23 7.5t-24 2.5q-23 0 -33.5 -12.5t-10.5 -30.5v-29h-129v40q0 20 -11 30.5t-28 10.5q-38 0 -38 -48v-61
q0 -13 -1 -32.5t-4 -47.5h5q23 35 54.5 49t68.5 14q85 0 132 -64t47 -179q0 -120 -59 -189.5t-167 -69.5zM277 108q44 0 63.5 37t19.5 104q0 60 -18.5 96.5t-59.5 36.5q-43 0 -63 -31t-20 -81v-28q0 -58 17.5 -96t60.5 -38z" />
    <glyph glyph-name="uni1CAD" unicode="&#x1cad;" horiz-adv-x="560" 
d="M301 -10q-60 0 -107 22t-74 64.5t-27 103.5q0 25 6 52h130q-1 -9 -1.5 -16.5t-0.5 -15.5q0 -44 19.5 -69.5t53.5 -25.5q38 0 55.5 27t17.5 71q0 36 -9 64t-21 53t-20 52h-4q-20 -33 -54.5 -46t-72.5 -13q-42 0 -76 19t-54.5 52t-20.5 76q0 65 44.5 106t120.5 41h69v107
h137v-107h86v-114h-73v-13q0 -32 13.5 -62.5t31 -63.5t31 -72.5t13.5 -88.5q0 -60 -26 -105.5t-74 -71.5t-113 -26zM223 419q29 0 43.5 13.5t14.5 35.5v32h-53q-25 0 -41.5 -9.5t-16.5 -31.5q0 -19 15.5 -29.5t37.5 -10.5z" />
    <glyph glyph-name="uni1CAE" unicode="&#x1cae;" horiz-adv-x="548" 
d="M275 -10q-103 0 -158.5 68t-55.5 198v458h138v-169q0 -17 -1.5 -39.5t-3.5 -54.5h5q23 40 56.5 58t72.5 18q82 0 128 -72.5t46 -197.5q0 -126 -59.5 -196.5t-167.5 -70.5zM278 109q44 0 63 37.5t19 109.5q0 71 -18.5 110.5t-60.5 39.5q-32 0 -50 -18t-25 -48t-7 -65v-25
q0 -58 17.5 -99.5t61.5 -41.5z" />
    <glyph glyph-name="uni1CAF" unicode="&#x1caf;" horiz-adv-x="514" 
d="M257 -10q-65 0 -113.5 25t-75.5 71.5t-27 108.5q0 38 12 81h135q-3 -15 -5 -31t-2 -33q0 -46 18 -76.5t57 -30.5q40 0 57.5 22t17.5 56q0 40 -21 66t-44 50q-31 33 -55 77.5t-24 103.5v39l-135 25v105l135 -26v91h139v-120l134 -25v-105l-134 26v-11q0 -41 22 -69t52 -61
t51.5 -74t21.5 -97q0 -54 -25.5 -96.5t-74 -67t-116.5 -24.5z" />
    <glyph glyph-name="uni1CB0" unicode="&#x1cb0;" horiz-adv-x="506" 
d="M247 -9q-70 0 -116.5 23t-69 60t-22.5 79q0 23 6 45h129q-1 -7 -1.5 -12.5t-0.5 -12.5q0 -25 16 -46.5t57 -21.5q36 0 55.5 17.5t19.5 45.5t-19 47t-57 19h-29v109h44q55 0 55 36q0 16 -13.5 26t-40.5 10h-45v109h38q48 0 48 27q0 16 -14 24.5t-30 15.5q-19 10 -39 23.5
t-33 37t-13 62.5h138q0 -16 12.5 -29t45.5 -30q26 -13 47 -35.5t21 -60.5q0 -69 -84 -83v-3q44 -2 70.5 -27.5t26.5 -66.5t-26.5 -65t-70.5 -29v-2q44 -9 76 -43.5t32 -90.5q0 -69 -56 -113.5t-157 -44.5z" />
    <glyph glyph-name="uni1CB1" unicode="&#x1cb1;" horiz-adv-x="603" 
d="M328 -9q-87 0 -150 36.5t-97.5 118t-34.5 214.5q0 73 6 132.5t19.5 113.5t33.5 108h134q-20 -63 -31.5 -120t-15.5 -113.5t-4 -120.5q0 -136 35.5 -195.5t105.5 -59.5q40 0 64 17.5t24 47.5q0 29 -20.5 46.5t-58.5 17.5h-26v108h35q28 0 45.5 7.5t17.5 29.5
q0 18 -16.5 27t-45.5 9h-36v108h28q11 0 24.5 2t23 9.5t9.5 23.5q0 19 -11 29l-22 20q-19 16 -36 41t-12 66h137q0 -20 10.5 -34.5t25.5 -28.5q17 -16 30.5 -36t13.5 -52q0 -39 -23 -60t-61 -29v-3q38 -2 67.5 -27t29.5 -65q0 -43 -27.5 -66t-69.5 -28v-3q44 -7 76 -38.5
t32 -87.5q0 -46 -27.5 -83.5t-79 -59.5t-122.5 -22z" />
    <glyph glyph-name="uni1CB2" unicode="&#x1cb2;" horiz-adv-x="547" 
d="M83 0v117q21 2 43.5 6.5t47.5 14.5v2q-64 56 -96 136.5t-32 164.5q0 131 57.5 207t170.5 76q112 0 169.5 -76t57.5 -207q0 -84 -31.5 -164.5t-96.5 -136.5v-2q26 -10 46.5 -14.5t44.5 -6.5v-117q-58 3 -104.5 16.5t-86.5 34.5q-40 -22 -87 -35t-103 -16zM273 198
q42 44 64 105t22 141q0 86 -23.5 123t-61.5 37t-62 -37t-24 -123q0 -158 85 -246z" />
    <glyph glyph-name="uni1CB3" unicode="&#x1cb3;" horiz-adv-x="519" 
d="M260 -10q-100 0 -159.5 55.5t-59.5 149.5q0 38 12 81h135q-3 -15 -5 -31t-2 -33q0 -46 18.5 -76.5t59.5 -30.5q77 0 77 112q0 53 -15 80t-40 36.5t-55 9.5h-49v97l114 156h-223v118h384v-102l-132 -176q68 -11 113 -63.5t45 -156.5q0 -66 -26 -117t-74.5 -80t-117.5 -29z
" />
    <glyph glyph-name="uni1CB4" unicode="&#x1cb4;" horiz-adv-x="503" 
d="M249 -9q-70 0 -116.5 23t-69 60t-22.5 79q0 23 6 45h129q-1 -7 -1.5 -12.5t-0.5 -12.5q0 -25 16 -46.5t58 -21.5q35 0 54.5 17.5t19.5 45.5t-19 47t-57 19h-29v109h48q51 0 51 33q0 20 -23.5 31t-52.5 21q-35 12 -70.5 30.5t-59 49.5t-23.5 79q0 62 51 99.5t133 37.5
q47 0 86 -10t72 -33l-46 -96q-31 16 -57 21.5t-47 5.5q-56 0 -56 -27q0 -18 20 -29t53 -22q34 -11 69.5 -27.5t60.5 -45t25 -75.5q0 -41 -26.5 -68.5t-70.5 -32.5v-2q44 -9 76 -42.5t32 -90.5q0 -68 -56 -113.5t-157 -45.5z" />
    <glyph glyph-name="uni1CB5" unicode="&#x1cb5;" horiz-adv-x="543" 
d="M249 -10q-91 0 -147 43t-56 120q0 80 56 123.5t151 43.5h57v79h-57q-97 0 -152 41.5t-55 120.5q0 80 57 121.5t145 41.5q57 0 102 -19.5t71 -56.5t26 -90v-48h76v-111h-76v-79h76v-111h-76v-49q0 -85 -54 -127.5t-144 -42.5zM260 510h50v44q0 29 -16.5 44.5t-45.5 15.5
q-30 0 -45 -14.5t-15 -37.5q0 -29 22 -40.5t50 -11.5zM247 100q29 0 46 15.5t17 43.5v50h-47q-35 0 -55 -13t-20 -43q0 -26 16 -39.5t43 -13.5z" />
    <glyph glyph-name="uni1CB6" unicode="&#x1cb6;" horiz-adv-x="719" 
d="M426 724v-88q81 0 136 -34.5t83 -94.5t28 -137q0 -81 -28 -141.5t-83 -94.5t-136 -34v-110h-133v110q-123 -1 -185 73.5t-62 197.5q0 73 25.5 133.5t80.5 96.5t141 35v88h133zM293 522q-113 0 -113 -150q0 -84 28.5 -121t84.5 -37v308zM425 522v-308q113 0 113 158
q0 73 -28.5 111.5t-84.5 38.5z" />
    <glyph glyph-name="uni1CB7" unicode="&#x1cb7;" horiz-adv-x="507" 
d="M257 -10q-96 0 -156 52.5t-60 149.5q0 65 25 108t63.5 71.5t77.5 49.5q48 27 81 54t33 73q0 29 -16 47t-44 18t-44.5 -19t-16.5 -45q0 -10 1.5 -17.5l2.5 -12.5h-141q-1 8 -2.5 17.5t-1.5 24.5q0 45 24 82t69 59t109 22q62 0 106 -24t68 -65t24 -91q0 -64 -26 -107.5
t-65.5 -73.5t-79.5 -52q-42 -23 -73 -51t-31 -76q0 -40 20 -60t49 -20q32 0 52.5 21t20.5 64q0 16 -3 35h138q2 -10 3.5 -20.5t1.5 -21.5q0 -91 -57 -141.5t-152 -50.5z" />
    <glyph glyph-name="uni1CB8" unicode="&#x1cb8;" horiz-adv-x="537" 
d="M274 -10q98 0 157.5 55.5t59.5 149.5q0 37 -12 80h-135q4 -18 5.5 -34t1.5 -30q0 -45 -18 -75.5t-58 -30.5q-45 0 -61 32.5t-16 85.5v62q0 32 -0.5 59.5t-4.5 64.5h5q19 -32 50.5 -50.5t74.5 -18.5q76 0 120.5 54t44.5 148q0 54 -9 95.5t-24 76.5h-134q12 -40 19 -76.5
t7 -81.5q0 -49 -16 -75t-53 -26q-36 0 -58 33.5t-22 101.5v124h-137v-495q0 -107 55.5 -168t157.5 -61z" />
    <glyph glyph-name="uni1CB9" unicode="&#x1cb9;" horiz-adv-x="532" 
d="M266 724q74 0 124.5 -37t75.5 -96.5t25 -124.5q0 -98 -49 -166.5t-152 -84.5q-45 -7 -57 -25.5t-12 -42.5q0 -23 13 -36.5t38 -13.5q24 0 37.5 13t13.5 33q0 14 -3 26h127q5 -18 5 -41q0 -37 -22 -68.5t-62.5 -50.5t-96.5 -19q-89 0 -135.5 42.5t-46.5 103.5
q0 31 15 62.5t50 50.5v3q-55 26 -84 77t-29 137q0 48 13 94t40 83t69.5 59t102.5 22zM265 604q-41 0 -61.5 -35.5t-20.5 -102.5q0 -62 20.5 -97t61.5 -35q40 0 62 34.5t22 99.5q0 64 -22 100t-62 36z" />
    <glyph glyph-name="uni1CBA" unicode="&#x1cba;" horiz-adv-x="440" 
d="M110 -12v124l64 30v3q-55 23 -91.5 91t-36.5 178q0 95 28.5 164.5t80.5 107.5t122 38q35 0 73 -9.5t73 -32.5l-39 -108q-29 19 -50 25t-37 6q-55 0 -82 -56.5t-27 -144.5q0 -94 29 -146.5t83 -52.5q23 0 48 7.5t55 26.5v-126z" />
    <glyph glyph-name="uni1CBD" unicode="&#x1cbd;" horiz-adv-x="506" 
d="M249 -10q-94 0 -151 50.5t-57 141.5q0 11 1.5 21.5t3.5 20.5h138q-1 -5 -2 -14.5t-1 -20.5q0 -43 20.5 -64t51.5 -21q30 0 50 20t20 60q0 47 -31 73t-74 50q-30 17 -60.5 36.5t-55.5 46.5t-40.5 64.5t-15.5 89.5q0 50 23.5 91t68 65t105.5 24q64 0 109 -22t69 -59t24 -82
q0 -15 -1 -24.5t-3 -17.5h-141q2 7 3 15t1 15q0 26 -16 45t-45 19q-28 0 -44 -18t-16 -47q0 -32 16 -55t43 -41t59 -36q39 -21 76.5 -49t62.5 -70t25 -105q0 -97 -59.5 -149.5t-156.5 -52.5z" />
    <glyph glyph-name="uni1CBE" unicode="&#x1cbe;" horiz-adv-x="547" 
d="M83 714q56 -3 103 -15.5t87 -35.5q40 21 86.5 34.5t104.5 16.5v-117q-24 -2 -44.5 -6t-46.5 -15v-2q65 -55 96.5 -136t31.5 -165q0 -131 -57.5 -207t-169.5 -76q-113 0 -170.5 76.5t-57.5 206.5q0 84 32 165t96 136v2q-25 10 -47.5 15t-43.5 6v117zM273 516
q-85 -88 -85 -246q0 -86 24 -123t62 -37t61.5 37.5t23.5 122.5q0 80 -22 141.5t-64 104.5z" />
    <glyph glyph-name="uni1CBF" unicode="&#x1cbf;" horiz-adv-x="575" 
d="M288 -10q-121 0 -179.5 91t-58.5 276q0 188 59.5 277.5t178.5 89.5t178 -90.5t59 -276.5q0 -188 -59.5 -277.5t-177.5 -89.5zM288 109q47 0 70.5 58t23.5 190q0 135 -24 191.5t-70 56.5q-48 0 -72 -57.5t-24 -190.5q0 -134 24.5 -191t71.5 -57z" />
    <glyph glyph-name="uni2010" unicode="&#x2010;" horiz-adv-x="305" 
d="M28 206v125h249v-125h-249z" />
    <glyph glyph-name="uni20BE" unicode="&#x20be;" horiz-adv-x="608" 
d="M92 0v99l78 9v4q-55 44 -86.5 111.5t-31.5 159.5q0 124 48.5 205.5t136.5 105.5v76h50v-68q10 1 20 1t19 -1v68h50v-75q90 -24 137.5 -111t47.5 -232h-137q0 97 -11 149.5t-37 74.5v-224h-50v244q-9 1 -19 1q-11 0 -20 -1v-244h-50v223q-25 -22 -37 -70.5t-12 -134.5
q0 -123 42 -188t115 -65h179v-117h-432z" />
    <glyph glyph-name="uni2D00" unicode="&#x2d00;" horiz-adv-x="567" 
d="M294 0q-85 0 -126 43t-41 143v189q0 65 -60 65h-57v107h125q41 0 69 -15.5t40 -54.5h7q37 80 122 80q69 0 106.5 -50t37.5 -145v-114h-131v76q0 58 -11.5 87.5t-43.5 29.5q-41 0 -57.5 -37.5t-16.5 -122.5v-82q0 -52 19 -71.5t61 -19.5h156v-108h-199z" />
    <glyph glyph-name="uni2D01" unicode="&#x2d01;" horiz-adv-x="535" 
d="M276 -250q-52 0 -97.5 9.5t-89.5 26.5v113q48 -20 90 -30t91 -10q71 0 100 22.5t29 64.5q0 26 -5 45t-15 35q-13 21 -21 40t-12 40h-5q-13 -46 -49.5 -81t-95.5 -35q-67 0 -104.5 50t-37.5 143v364h131v-328q0 -63 15 -88t43 -25q38 0 55.5 35.5t17.5 120.5v285h131v-349
q0 -38 11.5 -66t27.5 -54q18 -28 31 -59.5t13 -78.5q0 -92 -61.5 -141t-192.5 -49z" />
    <glyph glyph-name="uni2D02" unicode="&#x2d02;" horiz-adv-x="539" 
d="M277 -250q-52 0 -97.5 9.5t-89.5 26.5v113q48 -20 89.5 -30t90.5 -10q71 0 100.5 22.5t29.5 64.5q0 30 -12 55t-26 48q-16 27 -31 60.5t-15 88.5v125q0 58 -11.5 87.5t-43.5 29.5q-42 0 -58 -39.5t-16 -137.5v-263h-131v547h104l14 -70h8q37 80 121 80q70 0 107.5 -50
t37.5 -145v-154q0 -41 12 -70t28 -55q17 -28 31.5 -61t14.5 -82q0 -92 -62.5 -141t-194.5 -49z" />
    <glyph glyph-name="uni2D03" unicode="&#x2d03;" horiz-adv-x="481" 
d="M238 -10q-94 0 -148.5 68t-54.5 187q0 111 41 172t104 91q-13 20 -19.5 47.5t-6.5 55.5v39h-107v110h380v-110h-143v-35q0 -47 42 -91q41 -42 67 -81t39 -86t13 -112q0 -127 -55.5 -191t-151.5 -64zM239 99q34 0 51.5 34t17.5 112q0 62 -13 98.5t-35 60.5q-4 5 -7.5 9
t-7.5 8q-34 -17 -54 -58t-20 -118q0 -78 17 -112t51 -34z" />
    <glyph glyph-name="uni2D04" unicode="&#x2d04;" horiz-adv-x="501" 
d="M302 557q69 0 106.5 -50t37.5 -145v-602h-130v564q0 58 -12 87.5t-44 29.5q-41 0 -57.5 -40t-16.5 -138v-263h-130v547h103l14 -70h8q37 80 121 80z" />
    <glyph glyph-name="uni2D05" unicode="&#x2d05;" horiz-adv-x="748" 
d="M554 557q139 0 139 -197v-360h-130v322q0 119 -54 119q-39 0 -54 -40.5t-15 -123.5v-517h-131v563q0 61 -12.5 89.5t-39.5 28.5q-42 0 -56.5 -45.5t-14.5 -134.5v-261h-130v547h103l14 -70h8q32 80 127 80q47 0 75 -22t40 -56h9q19 38 48.5 58t73.5 20z" />
    <glyph glyph-name="uni2D06" unicode="&#x2d06;" horiz-adv-x="571" 
d="M376 556q75 0 117 -73.5t42 -207.5q0 -132 -51.5 -208.5t-152.5 -76.5q-97 0 -150.5 71.5t-53.5 211.5v316q0 34 -15 49t-45 15h-57v107h112q50 0 79.5 -18t42.5 -47t13 -62v-63q0 -16 -1 -39.5t-3 -55.5h4q23 42 52.5 61.5t66.5 19.5zM333 99q40 0 55 44.5t15 131.5
q0 169 -69 169q-44 0 -60.5 -41t-16.5 -115v-17q0 -88 19 -130t57 -42z" />
    <glyph glyph-name="uni2D07" unicode="&#x2d07;" horiz-adv-x="746" 
d="M195 -10q-70 0 -105.5 50.5t-35.5 144.5v362h101l15 -76h7q15 38 47.5 62t81.5 24q50 0 77 -23.5t38 -57.5h9q18 37 47.5 59t74.5 22q69 0 104 -47.5t35 -146.5v-363h-129v322q0 119 -56 119q-36 0 -52 -39.5t-16 -119.5v-282h-101l-15 78h-6q-18 -40 -46 -64t-75 -24z
M237 106q42 0 56.5 42.5t14.5 119.5v50q0 65 -13.5 94t-41.5 29q-37 0 -53 -41t-16 -112v-61q0 -61 11.5 -91t41.5 -30z" />
    <glyph glyph-name="uni2D08" unicode="&#x2d08;" horiz-adv-x="364" 
d="M179 0v346q0 46 -16.5 68.5t-60.5 22.5h-92v110h109q104 0 147 -49t43 -148v-350h-130z" />
    <glyph glyph-name="uni2D09" unicode="&#x2d09;" horiz-adv-x="515" 
d="M330 -240v216q0 16 1.5 39.5t2.5 55.5h-4q-22 -42 -52 -61.5t-67 -19.5q-75 0 -116 75t-41 208v487h130v-190q0 -16 -1 -39t-3 -55h5q22 42 51.5 61t66.5 19q75 0 116 -75t41 -209v-512h-130zM254 102q44 0 60 42t16 115v18q0 77 -15.5 122t-54.5 45q-43 0 -59.5 -40.5
t-16.5 -114.5v-17q0 -170 70 -170z" />
    <glyph glyph-name="uni2D0A" unicode="&#x2d0a;" horiz-adv-x="748" 
d="M450 -10q-70 0 -105 50.5t-35 144.5v133q0 65 -14 94t-41 29q-37 0 -53 -43.5t-16 -128.5v-269h-130v547h101l15 -76h7q15 38 47.5 62t81.5 24q50 0 77 -23.5t38 -57.5h9q18 37 47.5 59t74.5 22q69 0 104 -47.5t35 -146.5v-363h-101l-14 78h-7q-17 -40 -45 -64t-76 -24z
M492 106q42 0 57 42.5t15 119.5v54q0 119 -56 119q-36 0 -52 -39t-16 -114v-61q0 -61 11 -91t41 -30z" />
    <glyph glyph-name="uni2D0B" unicode="&#x2d0b;" horiz-adv-x="499" 
d="M240 -10q-71 0 -116.5 35t-67 98.5t-21.5 148.5q0 133 52 204t143 71h83v25q0 43 -12 62t-51 19h-171v107h176q100 0 144.5 -44.5t44.5 -138.5v-306q0 -142 -54.5 -211.5t-149.5 -69.5zM240 100q74 0 74 168v169h-63q-46 0 -65 -37.5t-19 -126.5q0 -173 73 -173z" />
    <glyph glyph-name="uni2D0C" unicode="&#x2d0c;" 
d="M54 0v563q0 98 46.5 147.5t152.5 49.5h162v-107h-159q-43 0 -57.5 -25t-14.5 -69v-25q0 -17 -2 -35t-5 -34h6q16 39 44 62.5t75 23.5q68 0 105.5 -51.5t37.5 -143.5v-356h-129v315q0 62 -14 91.5t-40 29.5q-42 0 -60 -44t-18 -134v-258h-130z" />
    <glyph glyph-name="uni2D0D" unicode="&#x2d0d;" horiz-adv-x="746" 
d="M193 -10q-69 0 -104 47.5t-35 145.5v364h130v-323q0 -119 53 -119q38 0 54.5 40t16.5 120v282h129v-319q0 -64 14 -93.5t39 -29.5q40 0 56 44t16 129v269h129v-547h-101l-15 75h-7q-14 -37 -46.5 -61t-82.5 -24q-49 0 -76.5 23.5t-38.5 57.5h-9q-18 -37 -47 -59t-75 -22z
" />
    <glyph glyph-name="uni2D0E" unicode="&#x2d0e;" horiz-adv-x="574" 
d="M389 547h130v-547h-101l-15 78h-7q-17 -40 -46.5 -64t-78.5 -24q-70 0 -107 50.5t-37 144.5v191q0 34 -15 49t-45 15h-57v107h112q50 0 79.5 -18t42.5 -47t13 -62v-193q0 -61 12.5 -91t44.5 -30q44 0 59.5 42.5t15.5 119.5v279z" />
    <glyph glyph-name="uni2D0F" unicode="&#x2d0f;" horiz-adv-x="574" 
d="M389 -240v199q0 33 4.5 64t8.5 55h-6q-17 -40 -46.5 -64t-78.5 -24q-70 0 -107 50.5t-37 144.5v191q0 34 -15 49t-45 15h-57v107h112q50 0 79.5 -18t42.5 -47t13 -62v-193q0 -61 12.5 -91t44.5 -30q44 0 59.5 42.5t15.5 119.5v279h130v-787h-130z" />
    <glyph glyph-name="uni2D10" unicode="&#x2d10;" horiz-adv-x="745" 
d="M193 -10q-68 0 -103.5 50.5t-35.5 144.5v362h130v-320q0 -61 11 -91t44 -30q40 0 54 42.5t14 119.5v492h130v-170q0 -31 -2.5 -61t-8.5 -59h8q14 39 43.5 63t78.5 24q63 0 98.5 -51t35.5 -145v-361h-130v321q0 62 -12.5 91t-41.5 29q-37 0 -53 -42.5t-16 -134.5v-264
h-101l-15 78h-6q-18 -40 -47 -64t-75 -24z" />
    <glyph glyph-name="uni2D11" unicode="&#x2d11;" 
d="M198 -10q-70 0 -107 50.5t-37 144.5v575h130v-533q0 -121 54 -121q47 0 62.5 42.5t15.5 119.5v279h129v-547h-100l-15 78h-7q-17 -40 -46.5 -64t-78.5 -24z" />
    <glyph glyph-name="uni2D12" unicode="&#x2d12;" 
d="M302 557q77 0 119.5 -75t42.5 -212q0 -133 -42 -206.5t-116 -73.5q-41 0 -69.5 20t-50.5 63h-5q2 -19 3.5 -41t1.5 -39v-20q0 -61 28.5 -86t79.5 -25q35 0 70 9.5t75 31.5v-115q-64 -38 -149 -38q-123 0 -178.5 69.5t-55.5 198.5v529h112l11 -70h8q22 44 49 62t66 18z
M264 444q-41 0 -59.5 -39t-18.5 -126v-27q0 -76 19 -112.5t57 -36.5q35 0 52.5 40t17.5 125q0 176 -68 176z" />
    <glyph glyph-name="uni2D13" unicode="&#x2d13;" horiz-adv-x="746" 
d="M562 -240v199q0 24 3 51.5t10 64.5h-7q-14 -37 -46.5 -61t-82.5 -24q-49 0 -76.5 23.5t-38.5 57.5h-9q-18 -37 -47 -59t-75 -22q-69 0 -104 47.5t-35 145.5v364h130v-323q0 -119 56 -119q68 0 68 160v282h129v-319q0 -64 14 -93.5t41 -29.5q38 0 54 44t16 129v482h129
v-1000h-129z" />
    <glyph glyph-name="uni2D14" unicode="&#x2d14;" horiz-adv-x="732" 
d="M301 -240v196q0 30 1 58.5t4 59.5h-5q-13 -39 -42 -61.5t-70 -22.5q-73 0 -113.5 75t-40.5 209q0 132 41 207.5t117 75.5q42 0 67 -20.5t41 -56.5h7l18 67h79l18 -67h7q17 36 41.5 56.5t67.5 20.5q76 0 116.5 -75.5t40.5 -207.5q0 -134 -40.5 -209t-112.5 -75
q-41 0 -70 22.5t-43 61.5h-4q2 -31 3.5 -59.5t1.5 -58.5v-196h-130zM234 101q31 0 49 36t18 112v43q0 156 -68 156q-67 0 -67 -175q0 -172 68 -172zM498 101q68 0 68 172q0 175 -68 175q-67 0 -67 -156v-43q0 -76 18 -112t49 -36z" />
    <glyph glyph-name="uni2D15" unicode="&#x2d15;" horiz-adv-x="404" 
d="M137 -240v680h-127v107h127v213h130v-213h127v-107h-127v-680h-130z" />
    <glyph glyph-name="uni2D16" unicode="&#x2d16;" horiz-adv-x="501" 
d="M302 557q69 0 106.5 -50t37.5 -145v-362h-130v324q0 58 -12 87.5t-44 29.5q-41 0 -57.5 -40t-16.5 -138v-263h-130v547h103l14 -70h8q37 80 121 80z" />
    <glyph glyph-name="uni2D17" unicode="&#x2d17;" 
d="M316 -240v199q0 33 4.5 64t8.5 55h-6q-17 -40 -46.5 -64t-78.5 -24q-70 0 -107 50.5t-37 144.5v362h130v-320q0 -61 12.5 -91t44.5 -30q44 0 59.5 42.5t15.5 119.5v279h129v-787h-129z" />
    <glyph glyph-name="uni2D18" unicode="&#x2d18;" 
d="M234 -250q-49 0 -86.5 9t-75.5 25v110q37 -16 72 -26t77 -10q99 0 99 122v16q0 18 2 37.5t6 44.5h-5q-17 -40 -46.5 -64t-78.5 -24q-70 0 -107 50.5t-37 144.5v362h130v-320q0 -61 12.5 -91t44.5 -30q44 0 59.5 42.5t15.5 119.5v279h129v-556q0 -124 -56 -182.5
t-155 -58.5z" />
    <glyph glyph-name="uni2D19" unicode="&#x2d19;" horiz-adv-x="502" 
d="M56 -240v1000h130v-170q0 -31 -2.5 -61t-8.5 -59h8q15 39 44.5 63t76.5 24q68 0 105.5 -50.5t37.5 -145.5v-361h-129v320q0 62 -14 91.5t-40 29.5q-42 0 -60 -42.5t-18 -134.5v-504h-130z" />
    <glyph glyph-name="uni2D1A" unicode="&#x2d1a;" horiz-adv-x="502" 
d="M262 -250q-104 0 -155 58t-51 182v557h102l14 -79h7q17 41 47.5 65t78.5 24q68 0 105 -49.5t37 -143.5v-364h-129v322q0 60 -12.5 89.5t-45.5 29.5q-38 0 -56 -39.5t-18 -134.5v-281q0 -69 25 -98.5t74 -29.5q41 0 74.5 10t69.5 26v-110q-37 -16 -78 -25t-89 -9z" />
    <glyph glyph-name="uni2D1B" unicode="&#x2d1b;" horiz-adv-x="735" 
d="M193 -10q-76 0 -117 75t-41 208q0 134 41 209t113 75q41 0 70 -22.5t42 -61.5h5q-3 31 -4 59.5t-1 59.5v168h129v-170q0 -31 -2 -60.5t-7 -56.5h4q17 35 42.5 59.5t71.5 24.5q69 0 105 -51t36 -145v-361h-129v320q0 62 -13 91.5t-39 29.5q-37 0 -53 -42.5t-16 -134.5
v-264h-103l-18 66h-8q-16 -36 -40.5 -56t-67.5 -20zM234 99q67 0 67 156v42q0 77 -17.5 112.5t-49.5 35.5q-67 0 -67 -171q0 -175 67 -175z" />
    <glyph glyph-name="uni2D1C" unicode="&#x2d1c;" horiz-adv-x="748" 
d="M56 -240v787h101l15 -76h7q15 38 47.5 62t81.5 24q50 0 77 -23.5t38 -57.5h9q18 37 47.5 59t74.5 22q69 0 104 -47.5t35 -146.5v-363h-129v322q0 119 -56 119q-36 0 -52 -39.5t-16 -119.5v-282h-130v318q0 65 -14 94t-41 29q-37 0 -53 -43.5t-16 -128.5v-509h-130z" />
    <glyph glyph-name="uni2D1D" unicode="&#x2d1d;" horiz-adv-x="496" 
d="M222 -250q-49 0 -88.5 9t-77.5 25v109q37 -16 70.5 -25.5t75.5 -9.5q62 0 87 22.5t25 59.5q0 31 -23.5 48.5t-79.5 17.5h-155v541h101l16 -70h7q38 80 122 80q69 0 106.5 -50t37.5 -145v-114h-130v76q0 58 -12 87.5t-44 29.5q-42 0 -58 -38t-16 -122v-167h68
q52 0 95.5 -19.5t70 -57t26.5 -93.5q0 -91 -55.5 -142.5t-168.5 -51.5z" />
    <glyph glyph-name="uni2D1E" unicode="&#x2d1e;" horiz-adv-x="502" 
d="M264 -250q-104 0 -156 57.5t-52 176.5v563h130v-279q0 -77 15 -119.5t60 -42.5q32 0 44.5 30t12.5 91v320h129v-362q0 -91 -38.5 -143t-107.5 -52q-49 0 -77.5 24t-45.5 64h-4q4 -25 5.5 -46t1.5 -52q0 -59 25 -90.5t78 -31.5q42 0 75.5 10t69.5 26v-110q-37 -16 -77 -25
t-88 -9z" />
    <glyph glyph-name="uni2D1F" unicode="&#x2d1f;" horiz-adv-x="450" 
d="M-30 -241l203 467l-117 214h-50v107h434v-95l-115 -226l129 -226h-136l-65 131l-153 -372h-130zM253 306l61 137h-128z" />
    <glyph glyph-name="uni2D20" unicode="&#x2d20;" horiz-adv-x="742" 
d="M445 -10q-67 0 -102 50.5t-35 144.5v137q0 61 -11 90t-42 29q-35 0 -52 -39.5t-17 -134.5v-267h-130v547h100l14 -88h5q17 46 48.5 72t77.5 26q67 0 102 -49.5t35 -143.5v-137q0 -61 11 -91t43 -30q38 0 52 42.5t14 119.5v279h129v-547h-100l-15 78h-7q-17 -40 -43.5 -64
t-76.5 -24z" />
    <glyph glyph-name="uni2D21" unicode="&#x2d21;" horiz-adv-x="454" 
d="M56 -240v1000h130v-279h2q17 32 44 53.5t67 21.5q97 0 97 -138q0 -27 7 -38t25 -11h16v-108h-58q-61 0 -90 33t-29 91q0 28 -6.5 42t-23.5 14q-24 0 -37.5 -37.5t-13.5 -109.5v-534h-130z" />
    <glyph glyph-name="uni2D22" unicode="&#x2d22;" horiz-adv-x="490" 
d="M246 -10q-98 0 -154.5 54.5t-56.5 146.5q0 37 9 76h125q-3 -13 -3.5 -25t-0.5 -25q0 -52 19 -85t59 -33q43 0 61 43t18 125q0 89 -24 131t-81 42h-172v107h179q122 0 176 -72t54 -204q0 -136 -51.5 -208.5t-156.5 -72.5z" />
    <glyph glyph-name="uni2D23" unicode="&#x2d23;" 
d="M316 -240v199q0 35 4.5 66t8.5 53h-6q-17 -40 -46.5 -64t-78.5 -24q-70 0 -107 50.5t-37 144.5v362h130v-320q0 -61 12.5 -91t44.5 -30q44 0 59.5 42.5t15.5 119.5v492h129v-1000h-129z" />
    <glyph glyph-name="uni2D24" unicode="&#x2d24;" horiz-adv-x="501" 
d="M188 -240v236q-68 15 -101 74t-33 156v321h130v-321q0 -69 18 -98.5t51 -29.5t48.5 29.5t15.5 98.5v321h129v-323q0 -196 -129 -228v-236h-129z" />
    <glyph glyph-name="uni2D25" unicode="&#x2d25;" horiz-adv-x="735" 
d="M539 557q69 0 105 -51t36 -145v-361h-129v320q0 62 -13 91.5t-39 29.5q-37 0 -53 -42.5t-16 -134.5v-264h-103l-18 66h-8q-16 -36 -40.5 -56t-67.5 -20q-76 0 -117 75t-41 208q0 134 41 209t113 75q41 0 70 -22.5t42 -61.5h5q-3 31 -4 59.5t-1 59.5v19q0 62 45 105.5
t144 43.5h168v-107h-156q-43 0 -57.5 -17t-14.5 -46v-20q0 -16 -2 -43t-7 -54h4q17 35 42.5 59.5t71.5 24.5zM301 255v42q0 77 -17.5 112.5t-49.5 35.5q-67 0 -67 -171q0 -175 67 -175t67 156z" />
    <glyph glyph-name="uni2D27" unicode="&#x2d27;" horiz-adv-x="457" 
d="M232 -250q-90 0 -146 54t-56 156q0 67 22.5 115.5t58.5 85t76 67.5q37 28 60 49t34.5 43t11.5 53q0 35 -15 54.5t-40 19.5q-27 0 -42 -21t-15 -53q0 -23 6 -41h-131q-3 11 -4.5 23t-1.5 29q0 47 22 85.5t64.5 61.5t102.5 23q89 0 136 -50t47 -127q0 -52 -14.5 -92
t-45.5 -75t-80 -73q-55 -42 -86.5 -81t-31.5 -101q0 -49 18 -73t46 -24q29 0 48 25t19 75q0 18 -2 33.5t-7 31.5h131q9 -33 9 -71q0 -96 -52.5 -149t-141.5 -53z" />
    <glyph glyph-name="uni2D2D" unicode="&#x2d2d;" horiz-adv-x="361" 
d="M342 0h-322v81l170 356h-160v110h304v-88l-163 -350h171v-109z" />
    <glyph glyph-name="macroncomb" horiz-adv-x="600" 
d="M94 0v714h411v-714h-411zM145 51h309v612h-309v-612z" />
    <glyph glyph-name="uni1C90_uni0308.ccmp" horiz-adv-x="518" 
d="M257 -10q-101 0 -158.5 63t-57.5 170q0 33 5 63.5t15 65.5h-60l75 46q-9 -25 -15 -46h137q-9 -35 -12.5 -64t-3.5 -53q0 -60 18 -93t56 -33q40 0 57 33t17 95q0 61 -20 113.5t-49 101.5q-22 39 -43 79t-31.5 85t-2.5 98h141q-8 -55 13 -106.5t53 -108.5q30 -53 55.5 -118
t25.5 -148q0 -115 -57 -179t-158 -64zM213 404l47 -52h-62q6 25 15 52zM105 838q0 33 16.5 50t43.5 17q28 0 44.5 -17.5t16.5 -49.5q0 -31 -16.5 -48.5t-44.5 -17.5q-27 0 -43.5 17t-16.5 49zM286 838q0 33 16.5 50t44.5 17t44.5 -17.5t16.5 -49.5q0 -31 -16.5 -48.5
t-44.5 -17.5t-44.5 17.5t-16.5 48.5z" />
    <glyph glyph-name="uni1C90_acutecomb.ccmp" horiz-adv-x="518" 
d="M257 -10q-101 0 -158.5 63t-57.5 170q0 33 5 63.5t15 65.5h-60l75 46q-9 -25 -15 -46h137q-9 -35 -12.5 -64t-3.5 -53q0 -60 18 -93t56 -33q40 0 57 33t17 95q0 61 -20 113.5t-49 101.5q-22 39 -43 79t-31.5 85t-2.5 98h141q-8 -55 13 -106.5t53 -108.5q30 -53 55.5 -118
t25.5 -148q0 -115 -57 -179t-158 -64zM213 404l47 -52h-62q6 25 15 52zM392 933v-9q-13 -19 -37 -46t-51 -55t-50 -50h-93v13q26 40 46 76.5t36 70.5h149z" />
    <glyph glyph-name="uni1C90_uni0304.ccmp" horiz-adv-x="518" 
d="M257 -10q-101 0 -158.5 63t-57.5 170q0 33 5 63.5t15 65.5h-60l75 46q-9 -25 -15 -46h137q-9 -35 -12.5 -64t-3.5 -53q0 -60 18 -93t56 -33q40 0 57 33t17 95q0 61 -20 113.5t-49 101.5q-22 39 -43 79t-31.5 85t-2.5 98h141q-8 -55 13 -106.5t53 -108.5q30 -53 55.5 -118
t25.5 -148q0 -115 -57 -179t-158 -64zM213 404l47 -52h-62q6 25 15 52zM395 890v-95h-276v95h276z" />
    <glyph glyph-name="uni1C90_uni0304_uni0308.ccmp" horiz-adv-x="518" 
d="M257 -10q-101 0 -158.5 63t-57.5 170q0 33 5 63.5t15 65.5h-60l75 46q-9 -25 -15 -46h137q-9 -35 -12.5 -64t-3.5 -53q0 -60 18 -93t56 -33q40 0 57 33t17 95q0 61 -20 113.5t-49 101.5q-22 39 -43 79t-31.5 85t-2.5 98h141q-8 -55 13 -106.5t53 -108.5q30 -53 55.5 -118
t25.5 -148q0 -115 -57 -179t-158 -64zM213 404l47 -52h-62q6 25 15 52zM395 890v-95h-276v95h276zM105 1014q0 33 16.5 50t43.5 17q28 0 44.5 -17.5t16.5 -49.5q0 -31 -16.5 -48.5t-44.5 -17.5q-27 0 -43.5 17t-16.5 49zM286 1014q0 33 16.5 50t44.5 17t44.5 -17.5
t16.5 -49.5q0 -31 -16.5 -48.5t-44.5 -17.5t-44.5 17.5t-16.5 48.5z" />
    <glyph glyph-name="uni1C94_acutecomb.ccmp" horiz-adv-x="528" 
d="M256 -10q-71 0 -119 29.5t-72 78t-24 105.5q0 26 5 51.5t12 48.5h135q-11 -42 -11 -88q0 -43 16.5 -74.5t57.5 -31.5q43 0 58.5 29.5t15.5 78.5v314q0 35 -17 54.5t-49 19.5q-31 0 -48 -20t-17 -52q0 -37 7 -78h-136q-6 24 -9 44t-3 45q0 59 27.5 99t74.5 60.5t105 20.5
q59 0 104.5 -23t71.5 -65.5t26 -101.5v-321q0 -106 -55 -164.5t-156 -58.5zM399 933v-9q-13 -19 -37 -46t-51 -55t-50 -50h-93v13q26 40 46 76.5t36 70.5h149z" />
    <glyph glyph-name="uni1C94_uni0304.ccmp" horiz-adv-x="528" 
d="M256 -10q-71 0 -119 29.5t-72 78t-24 105.5q0 26 5 51.5t12 48.5h135q-11 -42 -11 -88q0 -43 16.5 -74.5t57.5 -31.5q43 0 58.5 29.5t15.5 78.5v314q0 35 -17 54.5t-49 19.5q-31 0 -48 -20t-17 -52q0 -37 7 -78h-136q-6 24 -9 44t-3 45q0 59 27.5 99t74.5 60.5t105 20.5
q59 0 104.5 -23t71.5 -65.5t26 -101.5v-321q0 -106 -55 -164.5t-156 -58.5zM402 890v-95h-276v95h276z" />
    <glyph glyph-name="uni1C98_acutecomb.ccmp" horiz-adv-x="551" 
d="M103 0q-18 61 -30 117.5t-17.5 121.5t-5.5 150q0 165 55.5 250t169.5 85t170 -84.5t56 -250.5q0 -89 -6 -154.5t-18 -120.5t-30 -114h-137q15 51 26 107t17 124.5t6 156.5q0 84 -10 131t-28.5 66.5t-45.5 19.5q-26 0 -45 -19t-29 -66t-10 -132q0 -87 6 -155.5
t17.5 -124.5t26.5 -108h-138zM411 933v-9q-13 -19 -37 -46t-51 -55t-50 -50h-93v13q26 40 46 76.5t36 70.5h149z" />
    <glyph glyph-name="uni1C98_uni0304.ccmp" horiz-adv-x="551" 
d="M103 0q-18 61 -30 117.5t-17.5 121.5t-5.5 150q0 165 55.5 250t169.5 85t170 -84.5t56 -250.5q0 -89 -6 -154.5t-18 -120.5t-30 -114h-137q15 51 26 107t17 124.5t6 156.5q0 84 -10 131t-28.5 66.5t-45.5 19.5q-26 0 -45 -19t-29 -66t-10 -132q0 -87 6 -155.5
t17.5 -124.5t26.5 -108h-138zM414 890v-95h-276v95h276z" />
    <glyph glyph-name="uni1C9D_uni0308.ccmp" horiz-adv-x="765" 
d="M117 0q-20 61 -35 117t-23.5 123.5t-8.5 160.5q0 156 50.5 239.5t146.5 83.5q44 0 80 -17.5t54 -63.5h3q19 45 56.5 63t76.5 18q96 0 147 -83t51 -240q0 -89 -8 -156.5t-23.5 -125.5t-36.5 -119h-140q25 75 45.5 170t20.5 230q0 114 -16.5 159.5t-48.5 45.5
q-24 0 -36 -19.5t-15.5 -48.5t-3.5 -57v-270h-141v270q0 29 -3.5 57.5t-15.5 48t-38 19.5q-30 0 -47 -45t-17 -160q0 -133 21 -228t46 -172h-141zM231 838q0 33 16.5 50t43.5 17q28 0 44.5 -17.5t16.5 -49.5q0 -31 -16.5 -48.5t-44.5 -17.5q-27 0 -43.5 17t-16.5 49z
M412 838q0 33 16.5 50t44.5 17t44.5 -17.5t16.5 -49.5q0 -31 -16.5 -48.5t-44.5 -17.5t-44.5 17.5t-16.5 48.5z" />
    <glyph glyph-name="uni1C9D_acutecomb.ccmp" horiz-adv-x="765" 
d="M117 0q-20 61 -35 117t-23.5 123.5t-8.5 160.5q0 156 50.5 239.5t146.5 83.5q44 0 80 -17.5t54 -63.5h3q19 45 56.5 63t76.5 18q96 0 147 -83t51 -240q0 -89 -8 -156.5t-23.5 -125.5t-36.5 -119h-140q25 75 45.5 170t20.5 230q0 114 -16.5 159.5t-48.5 45.5
q-24 0 -36 -19.5t-15.5 -48.5t-3.5 -57v-270h-141v270q0 29 -3.5 57.5t-15.5 48t-38 19.5q-30 0 -47 -45t-17 -160q0 -133 21 -228t46 -172h-141zM518 933v-9q-13 -19 -37 -46t-51 -55t-50 -50h-93v13q26 40 46 76.5t36 70.5h149z" />
    <glyph glyph-name="uni1C9D_uni0304.ccmp" horiz-adv-x="765" 
d="M117 0q-20 61 -35 117t-23.5 123.5t-8.5 160.5q0 156 50.5 239.5t146.5 83.5q44 0 80 -17.5t54 -63.5h3q19 45 56.5 63t76.5 18q96 0 147 -83t51 -240q0 -89 -8 -156.5t-23.5 -125.5t-36.5 -119h-140q25 75 45.5 170t20.5 230q0 114 -16.5 159.5t-48.5 45.5
q-24 0 -36 -19.5t-15.5 -48.5t-3.5 -57v-270h-141v270q0 29 -3.5 57.5t-15.5 48t-38 19.5q-30 0 -47 -45t-17 -160q0 -133 21 -228t46 -172h-141zM521 890v-95h-276v95h276z" />
    <glyph glyph-name="uni1C9D_uni0304_uni0308.ccmp" horiz-adv-x="765" 
d="M117 0q-20 61 -35 117t-23.5 123.5t-8.5 160.5q0 156 50.5 239.5t146.5 83.5q44 0 80 -17.5t54 -63.5h3q19 45 56.5 63t76.5 18q96 0 147 -83t51 -240q0 -89 -8 -156.5t-23.5 -125.5t-36.5 -119h-140q25 75 45.5 170t20.5 230q0 114 -16.5 159.5t-48.5 45.5
q-24 0 -36 -19.5t-15.5 -48.5t-3.5 -57v-270h-141v270q0 29 -3.5 57.5t-15.5 48t-38 19.5q-30 0 -47 -45t-17 -160q0 -133 21 -228t46 -172h-141zM521 890v-95h-276v95h276zM231 1014q0 33 16.5 50t43.5 17q28 0 44.5 -17.5t16.5 -49.5q0 -31 -16.5 -48.5t-44.5 -17.5
q-27 0 -43.5 17t-16.5 49zM412 1014q0 33 16.5 50t44.5 17t44.5 -17.5t16.5 -49.5q0 -31 -16.5 -48.5t-44.5 -17.5t-44.5 17.5t-16.5 48.5z" />
    <glyph glyph-name="uni1CA3_uni0308.ccmp" horiz-adv-x="538" 
d="M267 -10q-71 0 -119 29.5t-72 78t-24 105.5q0 49 17 100h135q-5 -20 -8.5 -44t-3.5 -44q0 -43 17 -74t58 -31q44 0 58.5 30.5t14.5 76.5v325q0 23 -10.5 42t-39.5 19q-26 0 -38 -16.5t-12 -42.5v-121h-134v114q0 28 -13 43.5t-40 15.5h-38v124h45q37 0 66.5 -15.5
t44.5 -54.5h3q16 37 51.5 55.5t86.5 18.5q56 0 92.5 -23t54.5 -61.5t18 -86.5v-340q0 -105 -54.5 -164t-155.5 -59zM114 838q0 33 16.5 50t43.5 17q28 0 44.5 -17.5t16.5 -49.5q0 -31 -16.5 -48.5t-44.5 -17.5q-27 0 -43.5 17t-16.5 49zM295 838q0 33 16.5 50t44.5 17
t44.5 -17.5t16.5 -49.5q0 -31 -16.5 -48.5t-44.5 -17.5t-44.5 17.5t-16.5 48.5z" />
    <glyph glyph-name="uni1CA3_acutecomb.ccmp" horiz-adv-x="538" 
d="M267 -10q-71 0 -119 29.5t-72 78t-24 105.5q0 49 17 100h135q-5 -20 -8.5 -44t-3.5 -44q0 -43 17 -74t58 -31q44 0 58.5 30.5t14.5 76.5v325q0 23 -10.5 42t-39.5 19q-26 0 -38 -16.5t-12 -42.5v-121h-134v114q0 28 -13 43.5t-40 15.5h-38v124h45q37 0 66.5 -15.5
t44.5 -54.5h3q16 37 51.5 55.5t86.5 18.5q56 0 92.5 -23t54.5 -61.5t18 -86.5v-340q0 -105 -54.5 -164t-155.5 -59zM401 933v-9q-13 -19 -37 -46t-51 -55t-50 -50h-93v13q26 40 46 76.5t36 70.5h149z" />
    <glyph glyph-name="uni1CA3_uni0302.ccmp" horiz-adv-x="538" 
d="M267 -10q-71 0 -119 29.5t-72 78t-24 105.5q0 49 17 100h135q-5 -20 -8.5 -44t-3.5 -44q0 -43 17 -74t58 -31q44 0 58.5 30.5t14.5 76.5v325q0 23 -10.5 42t-39.5 19q-26 0 -38 -16.5t-12 -42.5v-121h-134v114q0 28 -13 43.5t-40 15.5h-38v124h45q37 0 66.5 -15.5
t44.5 -54.5h3q16 37 51.5 55.5t86.5 18.5q56 0 92.5 -23t54.5 -61.5t18 -86.5v-340q0 -105 -54.5 -164t-155.5 -59zM326 933q17 -33 41.5 -71.5t52.5 -75.5v-13h-78q-17 15 -36 35.5t-40 45.5q-22 -25 -41 -46.5t-34 -34.5h-79v13q16 20 34.5 47t35 54t25.5 46h119z" />
    <glyph glyph-name="uni1CA3_uni0304.ccmp" horiz-adv-x="538" 
d="M267 -10q-71 0 -119 29.5t-72 78t-24 105.5q0 49 17 100h135q-5 -20 -8.5 -44t-3.5 -44q0 -43 17 -74t58 -31q44 0 58.5 30.5t14.5 76.5v325q0 23 -10.5 42t-39.5 19q-26 0 -38 -16.5t-12 -42.5v-121h-134v114q0 28 -13 43.5t-40 15.5h-38v124h45q37 0 66.5 -15.5
t44.5 -54.5h3q16 37 51.5 55.5t86.5 18.5q56 0 92.5 -23t54.5 -61.5t18 -86.5v-340q0 -105 -54.5 -164t-155.5 -59zM404 890v-95h-276v95h276z" />
    <glyph glyph-name="uni1CA3_uni0304_uni0308.ccmp" horiz-adv-x="538" 
d="M267 -10q-71 0 -119 29.5t-72 78t-24 105.5q0 49 17 100h135q-5 -20 -8.5 -44t-3.5 -44q0 -43 17 -74t58 -31q44 0 58.5 30.5t14.5 76.5v325q0 23 -10.5 42t-39.5 19q-26 0 -38 -16.5t-12 -42.5v-121h-134v114q0 28 -13 43.5t-40 15.5h-38v124h45q37 0 66.5 -15.5
t44.5 -54.5h3q16 37 51.5 55.5t86.5 18.5q56 0 92.5 -23t54.5 -61.5t18 -86.5v-340q0 -105 -54.5 -164t-155.5 -59zM404 890v-95h-276v95h276zM114 1014q0 33 16.5 50t43.5 17q28 0 44.5 -17.5t16.5 -49.5q0 -31 -16.5 -48.5t-44.5 -17.5q-27 0 -43.5 17t-16.5 49zM295 1014
q0 33 16.5 50t44.5 17t44.5 -17.5t16.5 -49.5q0 -31 -16.5 -48.5t-44.5 -17.5t-44.5 17.5t-16.5 48.5z" />
    <glyph glyph-name="uni1CB7_acutecomb.ccmp" horiz-adv-x="507" 
d="M257 -10q-96 0 -156 52.5t-60 149.5q0 65 25 108t63.5 71.5t77.5 49.5q48 27 81 54t33 73q0 29 -16 47t-44 18t-44.5 -19t-16.5 -45q0 -10 1.5 -17.5l2.5 -12.5h-141q-1 8 -2.5 17.5t-1.5 24.5q0 45 24 82t69 59t109 22q62 0 106 -24t68 -65t24 -91q0 -64 -26 -107.5
t-65.5 -73.5t-79.5 -52q-42 -23 -73 -51t-31 -76q0 -40 20 -60t49 -20q32 0 52.5 21t20.5 64q0 16 -3 35h138q2 -10 3.5 -20.5t1.5 -21.5q0 -91 -57 -141.5t-152 -50.5zM394 933v-9q-13 -19 -37 -46t-51 -55t-50 -50h-93v13q26 40 46 76.5t36 70.5h149z" />
    <glyph glyph-name="uni1CB7_uni0304.ccmp" horiz-adv-x="507" 
d="M257 -10q-96 0 -156 52.5t-60 149.5q0 65 25 108t63.5 71.5t77.5 49.5q48 27 81 54t33 73q0 29 -16 47t-44 18t-44.5 -19t-16.5 -45q0 -10 1.5 -17.5l2.5 -12.5h-141q-1 8 -2.5 17.5t-1.5 24.5q0 45 24 82t69 59t109 22q62 0 106 -24t68 -65t24 -91q0 -64 -26 -107.5
t-65.5 -73.5t-79.5 -52q-42 -23 -73 -51t-31 -76q0 -40 20 -60t49 -20q32 0 52.5 21t20.5 64q0 16 -3 35h138q2 -10 3.5 -20.5t1.5 -21.5q0 -91 -57 -141.5t-152 -50.5zM397 890v-95h-276v95h276z" />
    <glyph glyph-name="uni10D0_uni0308.ccmp" horiz-adv-x="468" 
d="M232 -10q-56 0 -100.5 23t-69.5 64.5t-25 99.5q0 31 4.5 53.5t13.5 50.5h119q-4 -21 -6.5 -41t-2.5 -46q0 -43 16 -68.5t48 -25.5q31 0 48 22.5t17 65.5q0 47 -15.5 80.5t-35.5 64.5q-17 27 -33.5 57t-27.5 68.5t-11 88.5h130q0 -50 16 -87t37 -71q26 -41 49 -88.5
t23 -115.5q0 -61 -26 -105t-70 -67t-98 -23zM82 671q0 33 16.5 50t43.5 17q28 0 44.5 -17.5t16.5 -49.5q0 -31 -16.5 -48.5t-44.5 -17.5q-27 0 -43.5 17t-16.5 49zM263 671q0 33 16.5 50t44.5 17t44.5 -17.5t16.5 -49.5q0 -31 -16.5 -48.5t-44.5 -17.5t-44.5 17.5
t-16.5 48.5z" />
    <glyph glyph-name="uni10D0_acutecomb.ccmp" horiz-adv-x="468" 
d="M232 -10q-56 0 -100.5 23t-69.5 64.5t-25 99.5q0 31 4.5 53.5t13.5 50.5h119q-4 -21 -6.5 -41t-2.5 -46q0 -43 16 -68.5t48 -25.5q31 0 48 22.5t17 65.5q0 47 -15.5 80.5t-35.5 64.5q-17 27 -33.5 57t-27.5 68.5t-11 88.5h130q0 -50 16 -87t37 -71q26 -41 49 -88.5
t23 -115.5q0 -61 -26 -105t-70 -67t-98 -23zM369 766v-9q-13 -19 -37 -46t-51 -55t-50 -50h-93v13q26 40 46 76.5t36 70.5h149z" />
    <glyph glyph-name="uni10D0_uni0304.ccmp" horiz-adv-x="468" 
d="M232 -10q-56 0 -100.5 23t-69.5 64.5t-25 99.5q0 31 4.5 53.5t13.5 50.5h119q-4 -21 -6.5 -41t-2.5 -46q0 -43 16 -68.5t48 -25.5q31 0 48 22.5t17 65.5q0 47 -15.5 80.5t-35.5 64.5q-17 27 -33.5 57t-27.5 68.5t-11 88.5h130q0 -50 16 -87t37 -71q26 -41 49 -88.5
t23 -115.5q0 -61 -26 -105t-70 -67t-98 -23zM372 723v-95h-276v95h276z" />
    <glyph glyph-name="uni10D0_uni0304_uni0308.ccmp" horiz-adv-x="468" 
d="M232 -10q-56 0 -100.5 23t-69.5 64.5t-25 99.5q0 31 4.5 53.5t13.5 50.5h119q-4 -21 -6.5 -41t-2.5 -46q0 -43 16 -68.5t48 -25.5q31 0 48 22.5t17 65.5q0 47 -15.5 80.5t-35.5 64.5q-17 27 -33.5 57t-27.5 68.5t-11 88.5h130q0 -50 16 -87t37 -71q26 -41 49 -88.5
t23 -115.5q0 -61 -26 -105t-70 -67t-98 -23zM372 723v-95h-276v95h276zM82 847q0 33 16.5 50t43.5 17q28 0 44.5 -17.5t16.5 -49.5q0 -31 -16.5 -48.5t-44.5 -17.5q-27 0 -43.5 17t-16.5 49zM263 847q0 33 16.5 50t44.5 17t44.5 -17.5t16.5 -49.5q0 -31 -16.5 -48.5
t-44.5 -17.5t-44.5 17.5t-16.5 48.5z" />
    <glyph glyph-name="uni10D4_acutecomb.ccmp" horiz-adv-x="485" 
d="M235 -250q-65 0 -109.5 32t-66.5 83.5t-22 108.5q0 34 6 63t15 52h122q-4 -17 -9 -43.5t-5 -61.5q0 -31 6.5 -59.5t21 -46.5t39.5 -18q67 0 67 135v364q0 88 -59 88q-31 0 -45 -24.5t-14 -63.5q0 -45 9 -93h-121q-9 28 -13.5 50.5t-4.5 53.5q0 94 54 140.5t136 46.5
q86 0 137 -50.5t51 -147.5v-366q0 -116 -50.5 -179.5t-144.5 -63.5zM378 766v-9q-13 -19 -37 -46t-51 -55t-50 -50h-93v13q26 40 46 76.5t36 70.5h149z" />
    <glyph glyph-name="uni10D4_uni0304.ccmp" horiz-adv-x="485" 
d="M235 -250q-65 0 -109.5 32t-66.5 83.5t-22 108.5q0 34 6 63t15 52h122q-4 -17 -9 -43.5t-5 -61.5q0 -31 6.5 -59.5t21 -46.5t39.5 -18q67 0 67 135v364q0 88 -59 88q-31 0 -45 -24.5t-14 -63.5q0 -45 9 -93h-121q-9 28 -13.5 50.5t-4.5 53.5q0 94 54 140.5t136 46.5
q86 0 137 -50.5t51 -147.5v-366q0 -116 -50.5 -179.5t-144.5 -63.5zM381 723v-95h-276v95h276z" />
    <glyph glyph-name="uni10D8_acutecomb.ccmp" horiz-adv-x="490" 
d="M92 0q-27 75 -38.5 140.5t-11.5 144.5q0 133 54.5 202.5t148.5 69.5q93 0 148 -69.5t55 -202.5q0 -77 -11.5 -144t-38.5 -141h-122q19 60 29.5 131.5t10.5 150.5q0 89 -18.5 127t-52.5 38q-33 0 -52 -37t-19 -128q0 -80 10.5 -151t29.5 -131h-122zM380 766v-9
q-13 -19 -37 -46t-51 -55t-50 -50h-93v13q26 40 46 76.5t36 70.5h149z" />
    <glyph glyph-name="uni10D8_uni0304.ccmp" horiz-adv-x="490" 
d="M92 0q-27 75 -38.5 140.5t-11.5 144.5q0 133 54.5 202.5t148.5 69.5q93 0 148 -69.5t55 -202.5q0 -77 -11.5 -144t-38.5 -141h-122q19 60 29.5 131.5t10.5 150.5q0 89 -18.5 127t-52.5 38q-33 0 -52 -37t-19 -128q0 -80 10.5 -151t29.5 -131h-122zM383 723v-95h-276v95
h276z" />
    <glyph glyph-name="uni10DD_uni0308.ccmp" horiz-adv-x="684" 
d="M96 0q-20 52 -32 96.5t-17 89t-5 95.5q0 129 46 202.5t129 73.5q95 0 123 -103h4q28 103 123 103q82 0 128.5 -72.5t46.5 -203.5q0 -74 -12 -140.5t-42 -140.5h-124q24 64 35.5 136t11.5 142q0 81 -13.5 120t-44.5 39q-28 0 -38 -28t-10 -103v-133h-126v133
q0 72 -10.5 101.5t-37.5 29.5q-31 0 -44 -39t-13 -122q0 -153 46 -276h-124zM190 671q0 33 16.5 50t43.5 17q28 0 44.5 -17.5t16.5 -49.5q0 -31 -16.5 -48.5t-44.5 -17.5q-27 0 -43.5 17t-16.5 49zM371 671q0 33 16.5 50t44.5 17t44.5 -17.5t16.5 -49.5q0 -31 -16.5 -48.5
t-44.5 -17.5t-44.5 17.5t-16.5 48.5z" />
    <glyph glyph-name="uni10DD_acutecomb.ccmp" horiz-adv-x="684" 
d="M96 0q-20 52 -32 96.5t-17 89t-5 95.5q0 129 46 202.5t129 73.5q95 0 123 -103h4q28 103 123 103q82 0 128.5 -72.5t46.5 -203.5q0 -74 -12 -140.5t-42 -140.5h-124q24 64 35.5 136t11.5 142q0 81 -13.5 120t-44.5 39q-28 0 -38 -28t-10 -103v-133h-126v133
q0 72 -10.5 101.5t-37.5 29.5q-31 0 -44 -39t-13 -122q0 -153 46 -276h-124zM477 766v-9q-13 -19 -37 -46t-51 -55t-50 -50h-93v13q26 40 46 76.5t36 70.5h149z" />
    <glyph glyph-name="uni10DD_uni0304.ccmp" horiz-adv-x="684" 
d="M96 0q-20 52 -32 96.5t-17 89t-5 95.5q0 129 46 202.5t129 73.5q95 0 123 -103h4q28 103 123 103q82 0 128.5 -72.5t46.5 -203.5q0 -74 -12 -140.5t-42 -140.5h-124q24 64 35.5 136t11.5 142q0 81 -13.5 120t-44.5 39q-28 0 -38 -28t-10 -103v-133h-126v133
q0 72 -10.5 101.5t-37.5 29.5q-31 0 -44 -39t-13 -122q0 -153 46 -276h-124zM480 723v-95h-276v95h276z" />
    <glyph glyph-name="uni10DD_uni0304_uni0308.ccmp" horiz-adv-x="684" 
d="M96 0q-20 52 -32 96.5t-17 89t-5 95.5q0 129 46 202.5t129 73.5q95 0 123 -103h4q28 103 123 103q82 0 128.5 -72.5t46.5 -203.5q0 -74 -12 -140.5t-42 -140.5h-124q24 64 35.5 136t11.5 142q0 81 -13.5 120t-44.5 39q-28 0 -38 -28t-10 -103v-133h-126v133
q0 72 -10.5 101.5t-37.5 29.5q-31 0 -44 -39t-13 -122q0 -153 46 -276h-124zM480 723v-95h-276v95h276zM190 847q0 33 16.5 50t43.5 17q28 0 44.5 -17.5t16.5 -49.5q0 -31 -16.5 -48.5t-44.5 -17.5q-27 0 -43.5 17t-16.5 49zM371 847q0 33 16.5 50t44.5 17t44.5 -17.5
t16.5 -49.5q0 -31 -16.5 -48.5t-44.5 -17.5t-44.5 17.5t-16.5 48.5z" />
    <glyph glyph-name="uni10E3_uni0308.ccmp" horiz-adv-x="521" 
d="M258 -250q-72 0 -119 32t-69.5 83.5t-22.5 108.5q0 34 6 63t15 52h122q-4 -17 -9 -43.5t-5 -61.5q0 -31 7 -59.5t24.5 -46.5t48.5 -18q44 0 62 32.5t18 93.5v379q0 35 -10.5 55.5t-34.5 20.5q-25 0 -35.5 -20.5t-10.5 -53.5v-137h-126v135q0 34 -13 53t-44 19h-48v115h60
q81 0 106 -79h3q15 41 46.5 62.5t80.5 21.5q77 0 116.5 -52.5t39.5 -131.5v-397q0 -106 -52.5 -166t-155.5 -60zM99 671q0 33 16.5 50t43.5 17q28 0 44.5 -17.5t16.5 -49.5q0 -31 -16.5 -48.5t-44.5 -17.5q-27 0 -43.5 17t-16.5 49zM280 671q0 33 16.5 50t44.5 17
t44.5 -17.5t16.5 -49.5q0 -31 -16.5 -48.5t-44.5 -17.5t-44.5 17.5t-16.5 48.5z" />
    <glyph glyph-name="uni10E3_acutecomb.ccmp" horiz-adv-x="521" 
d="M258 -250q-72 0 -119 32t-69.5 83.5t-22.5 108.5q0 34 6 63t15 52h122q-4 -17 -9 -43.5t-5 -61.5q0 -31 7 -59.5t24.5 -46.5t48.5 -18q44 0 62 32.5t18 93.5v379q0 35 -10.5 55.5t-34.5 20.5q-25 0 -35.5 -20.5t-10.5 -53.5v-137h-126v135q0 34 -13 53t-44 19h-48v115h60
q81 0 106 -79h3q15 41 46.5 62.5t80.5 21.5q77 0 116.5 -52.5t39.5 -131.5v-397q0 -106 -52.5 -166t-155.5 -60zM386 766v-9q-13 -19 -37 -46t-51 -55t-50 -50h-93v13q26 40 46 76.5t36 70.5h149z" />
    <glyph glyph-name="uni10E3_uni0302.ccmp" horiz-adv-x="521" 
d="M258 -250q-72 0 -119 32t-69.5 83.5t-22.5 108.5q0 34 6 63t15 52h122q-4 -17 -9 -43.5t-5 -61.5q0 -31 7 -59.5t24.5 -46.5t48.5 -18q44 0 62 32.5t18 93.5v379q0 35 -10.5 55.5t-34.5 20.5q-25 0 -35.5 -20.5t-10.5 -53.5v-137h-126v135q0 34 -13 53t-44 19h-48v115h60
q81 0 106 -79h3q15 41 46.5 62.5t80.5 21.5q77 0 116.5 -52.5t39.5 -131.5v-397q0 -106 -52.5 -166t-155.5 -60zM311 766q17 -33 41.5 -71.5t52.5 -75.5v-13h-78q-17 15 -36 35.5t-40 45.5q-22 -25 -41 -46.5t-34 -34.5h-79v13q16 20 34.5 47t35 54t25.5 46h119z" />
    <glyph glyph-name="uni10E3_uni0304.ccmp" horiz-adv-x="521" 
d="M258 -250q-72 0 -119 32t-69.5 83.5t-22.5 108.5q0 34 6 63t15 52h122q-4 -17 -9 -43.5t-5 -61.5q0 -31 7 -59.5t24.5 -46.5t48.5 -18q44 0 62 32.5t18 93.5v379q0 35 -10.5 55.5t-34.5 20.5q-25 0 -35.5 -20.5t-10.5 -53.5v-137h-126v135q0 34 -13 53t-44 19h-48v115h60
q81 0 106 -79h3q15 41 46.5 62.5t80.5 21.5q77 0 116.5 -52.5t39.5 -131.5v-397q0 -106 -52.5 -166t-155.5 -60zM389 723v-95h-276v95h276z" />
    <glyph glyph-name="uni10E3_uni0304_uni0308.ccmp" horiz-adv-x="521" 
d="M258 -250q-72 0 -119 32t-69.5 83.5t-22.5 108.5q0 34 6 63t15 52h122q-4 -17 -9 -43.5t-5 -61.5q0 -31 7 -59.5t24.5 -46.5t48.5 -18q44 0 62 32.5t18 93.5v379q0 35 -10.5 55.5t-34.5 20.5q-25 0 -35.5 -20.5t-10.5 -53.5v-137h-126v135q0 34 -13 53t-44 19h-48v115h60
q81 0 106 -79h3q15 41 46.5 62.5t80.5 21.5q77 0 116.5 -52.5t39.5 -131.5v-397q0 -106 -52.5 -166t-155.5 -60zM389 723v-95h-276v95h276zM99 847q0 33 16.5 50t43.5 17q28 0 44.5 -17.5t16.5 -49.5q0 -31 -16.5 -48.5t-44.5 -17.5q-27 0 -43.5 17t-16.5 49zM280 847
q0 33 16.5 50t44.5 17t44.5 -17.5t16.5 -49.5q0 -31 -16.5 -48.5t-44.5 -17.5t-44.5 17.5t-16.5 48.5z" />
    <glyph glyph-name="uni10F7_acutecomb.ccmp" horiz-adv-x="470" 
d="M239 -250q-90 0 -146 54t-56 156q0 67 22.5 115.5t58.5 85t76 67.5q37 28 60 49t34.5 43t11.5 53q0 35 -15 54.5t-40 19.5q-27 0 -42 -21t-15 -53q0 -23 6 -41h-131q-3 11 -4.5 23t-1.5 29q0 47 22 85.5t64.5 61.5t102.5 23q89 0 136 -50t47 -127q0 -52 -14.5 -92
t-45.5 -75t-80 -73q-55 -42 -86.5 -81t-31.5 -101q0 -49 18 -73t46 -24q29 0 48 25t19 75q0 18 -2 33.5t-7 31.5h131q9 -33 9 -71q0 -96 -52.5 -149t-141.5 -53zM370 766v-9q-13 -19 -37 -46t-51 -55t-50 -50h-93v13q26 40 46 76.5t36 70.5h149z" />
    <glyph glyph-name="uni10F7_uni0304.ccmp" horiz-adv-x="470" 
d="M239 -250q-90 0 -146 54t-56 156q0 67 22.5 115.5t58.5 85t76 67.5q37 28 60 49t34.5 43t11.5 53q0 35 -15 54.5t-40 19.5q-27 0 -42 -21t-15 -53q0 -23 6 -41h-131q-3 11 -4.5 23t-1.5 29q0 47 22 85.5t64.5 61.5t102.5 23q89 0 136 -50t47 -127q0 -52 -14.5 -92
t-45.5 -75t-80 -73q-55 -42 -86.5 -81t-31.5 -101q0 -49 18 -73t46 -24q29 0 48 25t19 75q0 18 -2 33.5t-7 31.5h131q9 -33 9 -71q0 -96 -52.5 -149t-141.5 -53zM373 723v-95h-276v95h276z" />
    </font>
</defs>
</svg>
