<?xml version="1.0" standalone="no"?>
<!DOCTYPE svg PUBLIC "-//W3C//DTD SVG 1.1//EN" "http://www.w3.org/Graphics/SVG/1.1/DTD/svg11.dtd" >
<svg xmlns="http://www.w3.org/2000/svg" xmlns:xlink="http://www.w3.org/1999/xlink" version="1.1">
<metadata>
Created by FontForge 20170731 at Thu Sep 26 08:56:45 2019
 By Aleksey,,,
Copyright 2019 Google LLC. All rights reserved.
</metadata>
<defs>
<font id="NotoSansGeorgian-SemiCondensedBlack" horiz-adv-x="618" >
  <font-face 
    font-family="Noto Sans Georgian SemCond Blk"
    font-weight="900"
    font-stretch="semi-condensed"
    units-per-em="1000"
    panose-1="2 11 10 2 4 5 4 2 2 4"
    ascent="800"
    descent="-200"
    bbox="-202 -250 1110 1092"
    underline-thickness="50"
    underline-position="-175"
    unicode-range="U+000D-2D2D"
  />
<missing-glyph horiz-adv-x="364" 
d="M33 0v666h265v-666h-265zM66 33h199v600h-199v-600z" />
    <glyph glyph-name=".notdef" horiz-adv-x="364" 
d="M33 0v666h265v-666h-265zM66 33h199v600h-199v-600z" />
    <glyph glyph-name=".null" horiz-adv-x="0" 
 />
    <glyph glyph-name="nonmarkingreturn" horiz-adv-x="333" 
 />
    <glyph glyph-name="NULL" horiz-adv-x="0" 
 />
    <glyph glyph-name="NULL" horiz-adv-x="0" 
 />
    <glyph glyph-name="CR" unicode="&#xd;" horiz-adv-x="239" 
 />
    <glyph glyph-name="space" unicode=" " horiz-adv-x="239" 
 />
    <glyph glyph-name="hyphen" unicode="-" horiz-adv-x="321" 
d="M24 192v152h273v-152h-273z" />
    <glyph glyph-name="uni00A0" unicode="&#xa0;" horiz-adv-x="239" 
 />
    <glyph glyph-name="acutecomb" unicode="&#x301;" horiz-adv-x="0" 
d="M155 766v-10q-20 -18 -54 -46t-69.5 -56.5t-62.5 -47.5h-124v14q25 32 57 72.5t54 73.5h199z" />
    <glyph glyph-name="uni0302" unicode="&#x302;" horiz-adv-x="0" 
d="M89 766q21 -34 53.5 -74.5t60.5 -71.5v-14h-115q-22 14 -43 32t-45 41q-24 -24 -44 -41.5t-41 -31.5h-117v14q17 18 39 44t42.5 53.5t33.5 48.5h176z" />
    <glyph glyph-name="uni0304" unicode="&#x304;" horiz-adv-x="0" 
d="M165 733v-115h-333v115h333z" />
    <glyph glyph-name="uni0308" unicode="&#x308;" horiz-adv-x="0" 
d="M-189 674q0 38 22 57.5t56 19.5t57 -19.5t23 -57.5t-23 -57t-57 -19t-56 19t-22 57zM30 674q0 38 22 57.5t57 19.5q34 0 57 -19.5t23 -57.5t-23 -57t-57 -19q-35 0 -57 19t-22 57z" />
    <glyph glyph-name="uni0589" unicode="&#x589;" horiz-adv-x="286" 
d="M45 467q0 49 28 71t72 22q41 0 68.5 -22t27.5 -71q0 -48 -27.5 -71t-68.5 -23q-43 0 -71.5 23t-28.5 71zM45 81q0 49 28 71.5t72 22.5q41 0 68.5 -22.5t27.5 -71.5q0 -48 -27.5 -70.5t-68.5 -22.5q-43 0 -71.5 22.5t-28.5 70.5z" />
    <glyph glyph-name="uni10A0" unicode="&#x10a0;" horiz-adv-x="588" 
d="M370 -10q-99 0 -171.5 40.5t-112 112.5t-39.5 169q0 81 31 145.5t85 102.5v4h-98v150h484v-154h-118q-64 0 -106.5 -29t-64 -80t-21.5 -117q0 -92 39.5 -141t108.5 -49q42 0 82 13t80 32v-159q-42 -21 -87.5 -30.5t-91.5 -9.5z" />
    <glyph glyph-name="uni10A1" unicode="&#x10a1;" horiz-adv-x="813" 
d="M442 0v145q0 33 2 70.5t6 80.5h-5q-27 -42 -70 -66.5t-104 -24.5q-69 0 -120.5 31.5t-80 90t-28.5 139.5q0 69 13.5 131t38.5 117h193q-28 -55 -43 -115.5t-15 -124.5q0 -61 27 -90t74 -29q52 0 82 42.5t30 130.5v186h185v-561l186 1v-154h-371z" />
    <glyph glyph-name="uni10A2" unicode="&#x10a2;" horiz-adv-x="762" 
d="M392 0v559h-151v-194h-183v349h519v-560h185v-154h-370z" />
    <glyph glyph-name="uni10A3" unicode="&#x10a3;" horiz-adv-x="718" 
d="M359 -10q-106 0 -175 34.5t-103 96t-34 143.5q0 104 56.5 172.5t164.5 87.5v38h-208v152h597v-152h-207v-37q110 -19 165.5 -88t55.5 -174q0 -81 -34.5 -142.5t-103.5 -96t-174 -34.5zM359 144q62 0 90 32t28 87q0 56 -28 87t-89 31q-62 0 -91 -31t-29 -87q0 -55 29 -87
t90 -32z" />
    <glyph glyph-name="uni10A4" unicode="&#x10a4;" horiz-adv-x="648" 
d="M392 0v559h-151v-194h-183v349h519v-714h-185z" />
    <glyph glyph-name="uni10A5" unicode="&#x10a5;" horiz-adv-x="852" 
d="M392 0v559h-151v-194h-183v349h519v-274h242v-262h-160v112h-82v-290h-185z" />
    <glyph glyph-name="uni10A6" unicode="&#x10a6;" horiz-adv-x="742" 
d="M424 -10q-136 0 -199.5 76t-63.5 212v285h-171v151h354v-102q0 -30 -1.5 -59t-5.5 -61h7q26 33 61 51t84 18q98 0 154 -75.5t56 -208.5q0 -134 -69.5 -210.5t-205.5 -76.5zM424 144q39 0 61.5 31t22.5 101q0 69 -19.5 99.5t-61.5 30.5t-62.5 -30.5t-20.5 -99.5
q0 -70 19.5 -101t60.5 -31z" />
    <glyph glyph-name="uni10A7" unicode="&#x10a7;" horiz-adv-x="884" 
d="M610 440h242v-262h-161v112h-81v-290h-229q-160 0 -247 88.5t-87 257.5q0 120 42.5 202t120.5 124t186 42h214v-274zM425 153v407h-32q-80 0 -117.5 -51.5t-37.5 -155.5q0 -105 35.5 -152.5t107.5 -47.5h44z" />
    <glyph glyph-name="uni10A8" unicode="&#x10a8;" horiz-adv-x="503" 
d="M247 0v561h-257v153h443v-714h-186z" />
    <glyph glyph-name="uni10A9" unicode="&#x10a9;" horiz-adv-x="678" 
d="M429 0v40q0 30 0.5 64t4.5 72h-5q-25 -38 -63.5 -58t-94.5 -20q-101 0 -154 68.5t-53 187.5v360h185v-36q0 -27 -1 -59.5t-5 -63.5h5q25 36 63.5 56.5t94.5 20.5q102 0 155 -68.5t53 -186.5v-377h-185zM337 248q91 0 91 118q0 56 -20 86t-68 30q-90 0 -90 -118
q0 -57 19.5 -86.5t67.5 -29.5z" />
    <glyph glyph-name="uni10AA" unicode="&#x10aa;" horiz-adv-x="942" 
d="M625 -10q-136 0 -200 76t-64 212v281h-120v-194h-183v349h487v-102q0 -30 -2 -59t-5 -61h7q26 33 61 51t84 18q98 0 154 -75.5t56 -208.5q0 -134 -69.5 -210.5t-205.5 -76.5zM625 144q39 0 61.5 31t22.5 101q0 69 -20 99.5t-61 30.5q-42 0 -62.5 -30.5t-20.5 -99.5
q0 -70 19 -101t61 -31z" />
    <glyph glyph-name="uni10AB" unicode="&#x10ab;" horiz-adv-x="762" 
d="M314 -10q-80 0 -140 30t-93.5 85.5t-33.5 131.5q0 124 73 183t195 59h83v82h-313v153h496v-235h148v-144h-148v-94q0 -74 -31.5 -130.5t-91.5 -88.5t-144 -32zM315 141q41 0 62 30t21 82v82h-79q-35 0 -58 -22.5t-23 -73.5q0 -46 21 -72t56 -26z" />
    <glyph glyph-name="uni10AC" unicode="&#x10ac;" horiz-adv-x="704" 
d="M70 0v714h541v-153h-355v-23q0 -31 -2 -67t-6 -74h4q27 41 69.5 63t98.5 22q107 0 162.5 -69.5t55.5 -184.5v-228h-185v211q0 62 -25 92t-68 30q-54 0 -79 -39t-25 -123v-171h-186z" />
    <glyph glyph-name="uni10AD" unicode="&#x10ad;" horiz-adv-x="883" 
d="M366 -10q-162 0 -240.5 98.5t-78.5 270.5q0 170 78.5 267.5t241.5 97.5q165 0 241.5 -97.5t76.5 -268.5q0 -70 -12.5 -128t-37.5 -103q8 -5 15.5 -6t16.5 -1q29 0 43.5 22t14.5 61h158q-1 -103 -37.5 -158t-134.5 -55q-41 0 -78 16t-69 41q-37 -28 -86.5 -42.5
t-111.5 -14.5zM366 147q68 0 97 54t29 157t-29 157.5t-96 54.5t-97 -55t-30 -157q0 -101 30 -156t96 -55z" />
    <glyph glyph-name="uni10AE" unicode="&#x10ae;" horiz-adv-x="788" 
d="M439 -10q-135 0 -206.5 70.5t-71.5 204.5v295h-171v154h356v-437q0 -69 24 -99.5t72 -30.5q50 0 73 30.5t23 100.5v436h185v-445q0 -131 -71.5 -205t-212.5 -74z" />
    <glyph glyph-name="uni10AF" unicode="&#x10af;" horiz-adv-x="733" 
d="M477 0v145q0 33 2 70.5t7 80.5h-6q-27 -42 -69.5 -66.5t-103.5 -24.5q-70 0 -120.5 29.5t-78.5 78t-28 106.5q0 48 14.5 81t35.5 56v4h-135v154h344v-136q-36 -13 -54 -42.5t-18 -72.5q0 -53 26 -80.5t73 -27.5q51 0 81 39.5t30 112.5v207h185v-714h-185z" />
    <glyph glyph-name="uni10B0" unicode="&#x10b0;" horiz-adv-x="948" 
d="M325 -10q-90 0 -153 37t-96.5 96.5t-33.5 129.5q0 47 16.5 95.5t51.5 93.5l157 -62q-33 -55 -33 -119q0 -52 23 -83t64 -31q45 0 68 33.5t23 105.5v428h185v-91q0 -31 -2 -64t-6 -71h4q27 39 60 56.5t86 17.5q57 0 96.5 -30t60 -76.5t20.5 -96.5q0 -46 -13.5 -86.5
t-37.5 -71.5l-162 51q21 37 21 81q0 32 -15.5 56t-46.5 24t-48 -22t-17 -66v-65q0 -129 -69.5 -199.5t-202.5 -70.5z" />
    <glyph glyph-name="uni10B1" unicode="&#x10b1;" horiz-adv-x="663" 
d="M341 -10q-131 0 -203.5 74t-72.5 202v448h186v-428q0 -72 22.5 -105.5t67.5 -33.5q41 0 64 31t23 83q0 64 -33 119l157 62q35 -45 52 -93.5t17 -95.5q0 -70 -33 -129.5t-95.5 -96.5t-151.5 -37z" />
    <glyph glyph-name="uni10B2" unicode="&#x10b2;" horiz-adv-x="604" 
d="M70 0v714h235q126 0 189 -59t63 -168q0 -67 -25 -124t-81 -91.5t-150 -34.5h-46v-84h270v-153h-455zM255 389h30q36 0 62 21.5t26 72.5q0 37 -19 58t-58 21h-41v-173z" />
    <glyph glyph-name="uni10B3" unicode="&#x10b3;" horiz-adv-x="737" 
d="M559 -192q-22 0 -43 2.5t-38 8.5v126q18 -6 40 -6t34 11.5t12 28.5q0 16 -6.5 28.5t-19.5 27.5q-34 -23 -74.5 -34t-97.5 -11q-162 0 -240.5 98.5t-78.5 270.5q0 170 78.5 267.5t241.5 97.5q165 0 241.5 -97.5t76.5 -268.5q0 -68 -13.5 -126t-47.5 -105q38 -23 70.5 -64
t32.5 -102q0 -75 -45 -114t-123 -39zM366 147q68 0 97 54t29 157q0 102 -29 157t-96 55t-97 -55.5t-30 -156.5t30 -156t96 -55z" />
    <glyph glyph-name="uni10B4" unicode="&#x10b4;" horiz-adv-x="863" 
d="M343 0v155q-87 2 -154 37t-104.5 97.5t-37.5 148.5q0 76 29.5 130.5t82 89t122 50.5t149.5 16q185 0 285.5 -73.5t100.5 -212.5q0 -86 -38 -148.5t-105 -97.5t-153 -37v-155h-177zM343 299v276q-51 -4 -83 -38t-32 -98t32 -100t83 -40zM520 299q51 4 83 40.5t32 99.5
q0 62 -32 97t-83 39v-276z" />
    <glyph glyph-name="uni10B5" unicode="&#x10b5;" horiz-adv-x="642" 
d="M223 0v329h-186v150h186v235h185v-235h187v-150h-187v-329h-185z" />
    <glyph glyph-name="uni10B6" unicode="&#x10b6;" horiz-adv-x="693" 
d="M65 0v445q0 131 71.5 205t212.5 74q135 0 206.5 -70.5t71.5 -204.5v-449h-185v437q0 69 -24 99.5t-72 30.5q-51 0 -73.5 -30.5t-22.5 -100.5v-436h-185z" />
    <glyph glyph-name="uni10B7" unicode="&#x10b7;" horiz-adv-x="697" 
d="M442 0v145q0 33 2 70.5t6 80.5h-5q-27 -42 -70 -66.5t-104 -24.5q-69 0 -120.5 31.5t-80 90t-28.5 139.5q0 69 13.5 131t38.5 117h193q-28 -55 -43 -115.5t-15 -124.5q0 -61 27 -90t74 -29q52 0 82 42.5t30 130.5v186h185v-714h-185z" />
    <glyph glyph-name="uni10B8" unicode="&#x10b8;" horiz-adv-x="697" 
d="M350 -10q-77 0 -139.5 25t-99 71t-36.5 109q0 53 24 103l168 -51q-5 -15 -5 -32q0 -35 24.5 -54t64.5 -19q41 0 66 30.5t25 86.5v40q0 24 1.5 50.5t6.5 60.5h-5q-27 -41 -66.5 -63t-94.5 -22q-107 0 -163 68t-56 186v135h186v-118q0 -63 25 -92.5t68 -29.5q49 0 73.5 39
t24.5 123v78h185v-448q0 -139 -73.5 -207.5t-203.5 -68.5z" />
    <glyph glyph-name="uni10B9" unicode="&#x10b9;" horiz-adv-x="673" 
d="M70 0v714h186v-242h357v-472h-186v323h-171v-323h-186z" />
    <glyph glyph-name="uni10BA" unicode="&#x10ba;" horiz-adv-x="686" 
d="M343 -8q-137 0 -216.5 94t-79.5 270t92.5 272t258.5 96q60 0 116 -12t98 -33l-56 -147q-33 17 -73.5 27.5t-83.5 10.5q-81 0 -121 -57.5t-40 -157.5q0 -105 36 -157.5t99 -52.5q22 0 42.5 4.5t33.5 12.5v145h176v-307h-176v19q-41 -27 -106 -27z" />
    <glyph glyph-name="uni10BB" unicode="&#x10bb;" horiz-adv-x="895" 
d="M313 -10q-79 0 -139 30.5t-93.5 86.5t-33.5 133q0 115 71 179.5t191 64.5h81v230h183v-230h262v-484h-161v334h-101v-94q0 -77 -32 -133t-90.5 -86.5t-137.5 -30.5zM314 144q36 0 56 26t20 72v92h-73q-36 0 -57.5 -25.5t-21.5 -66.5q0 -46 21 -72t55 -26z" />
    <glyph glyph-name="uni10BC" unicode="&#x10bc;" horiz-adv-x="591" 
d="M70 0v714h235q126 0 189 -54.5t63 -152.5q0 -58 -25 -109t-81 -82.5t-150 -31.5h-46v-36h248v-210h-160v60h-88v-98h-185zM255 436h30q36 0 62 16t26 51q0 28 -19 44t-58 16h-41v-127z" />
    <glyph glyph-name="uni10BD" unicode="&#x10bd;" horiz-adv-x="566" 
d="M277 -10q-118 0 -178.5 51.5t-60.5 141.5q0 28 6 51h177q-5 -15 -5 -37q0 -27 17 -42t47 -15q29 0 47 13.5t18 40.5q0 24 -15 39.5t-39.5 29t-52.5 28.5q-33 18 -66.5 38t-61 45.5t-44.5 60t-17 82.5q0 68 29 114t80.5 69.5t118.5 23.5q68 0 120 -22.5t82 -67t30 -111.5
q0 -14 -2 -22h-178q2 10 2 18q0 27 -14.5 41t-37.5 14q-24 0 -37.5 -13.5t-13.5 -36.5q0 -22 15 -37t42 -29t61 -31q47 -24 88 -52t66 -69.5t25 -105.5q0 -101 -62.5 -155.5t-185.5 -54.5z" />
    <glyph glyph-name="uni10BE" unicode="&#x10be;" horiz-adv-x="683" 
d="M70 714h186v-303h171v303h186v-452h-357v-109h344v-153h-530v714z" />
    <glyph glyph-name="uni10BF" unicode="&#x10bf;" horiz-adv-x="666" 
d="M10 0l217 367l-116 194h-91v153h585v-117l-155 -240l216 -357h-204l-123 228l-123 -228h-206zM341 469l53 98h-106z" />
    <glyph glyph-name="uni10C0" unicode="&#x10c0;" horiz-adv-x="957" 
d="M632 -10q-130 0 -201 72t-71 201v296h-119v-194h-183v349h487v-428q0 -72 23 -105.5t68 -33.5q41 0 64 31t23 83q0 64 -33 119l157 62q35 -45 51.5 -94t16.5 -99q0 -69 -32.5 -128t-95.5 -95t-155 -36z" />
    <glyph glyph-name="uni10C1" unicode="&#x10c1;" horiz-adv-x="733" 
d="M70 0v714h186v-92q0 -31 -2 -67.5t-6 -74.5h4q27 41 69 63t103 22q88 0 138.5 -53t63.5 -139h87v-151h-266v66q0 62 -22 95t-70 33q-51 0 -75 -39t-24 -123v-254h-186z" />
    <glyph glyph-name="uni10C2" unicode="&#x10c2;" horiz-adv-x="632" 
d="M238 -10q-57 0 -103 9t-90 30v160q37 -19 83 -32t92 -13q83 0 128.5 43t45.5 127q0 83 -42.5 124.5t-136.5 41.5h-153v234h174v-84h13q159 0 247.5 -78.5t88.5 -232.5q0 -161 -91.5 -245t-255.5 -84z" />
    <glyph glyph-name="uni10C3" unicode="&#x10c3;" horiz-adv-x="687" 
d="M432 0v107q0 33 2 70t6 80h-5q-27 -41 -70 -65.5t-106 -24.5t-112.5 28.5t-77 81t-27.5 125.5q0 47 16.5 95.5t51.5 93.5l157 -62q-16 -26 -25 -56.5t-9 -62.5q0 -45 24 -69.5t63 -24.5q51 0 81.5 43.5t30.5 124.5v230h185v-714h-185z" />
    <glyph glyph-name="uni10C4" unicode="&#x10c4;" horiz-adv-x="690" 
d="M252 0v225q-91 22 -139.5 88t-48.5 175v226h185v-213q0 -70 24 -100.5t72 -30.5q51 0 73.5 30.5t22.5 101.5v212h185v-222q0 -106 -47.5 -174.5t-140.5 -91.5v-226h-186z" />
    <glyph glyph-name="uni10C5" unicode="&#x10c5;" horiz-adv-x="815" 
d="M266 -10q-118 0 -177 44t-59 122q0 85 60.5 130t181.5 45h41v194q0 95 53.5 147t173.5 52q119 0 178.5 -46.5t59.5 -127.5q0 -91 -60.5 -134t-178.5 -43h-43v-42h233v-225h-158v95h-75v-13q0 -95 -55.5 -146.5t-174.5 -51.5zM496 497h33q36 0 49 14.5t13 35.5t-10 34
t-36 13q-28 0 -38.5 -17.5t-10.5 -44.5v-35zM263 116q27 0 38.5 18t11.5 47v20h-37q-35 0 -47.5 -13.5t-12.5 -31.5q0 -17 11 -28.5t36 -11.5z" />
    <glyph glyph-name="uni10C7" unicode="&#x10c7;" horiz-adv-x="566" 
d="M289 -10q-123 0 -185.5 54.5t-62.5 155.5q0 64 25 105.5t66 69.5t88 52q34 17 61 31t42 29t15 37q0 23 -13.5 36.5t-37.5 13.5q-23 0 -37.5 -14t-14.5 -41q0 -8 2 -18h-178q-2 8 -2 22q0 67 30 111.5t82 67t120 22.5q67 0 118.5 -23.5t80.5 -69.5t29 -114
q0 -48 -16.5 -82.5t-44.5 -60t-61.5 -45.5t-66.5 -38q-28 -15 -52.5 -28.5t-39.5 -29t-15 -39.5q0 -27 18 -40.5t47 -13.5q30 0 47 15t17 42q0 22 -5 37h177q6 -23 6 -51q0 -90 -60.5 -141.5t-178.5 -51.5z" />
    <glyph glyph-name="uni10CD" unicode="&#x10cd;" horiz-adv-x="560" 
d="M27 0v119l283 443h-277v152h496v-119l-283 -443h290v-152h-509z" />
    <glyph glyph-name="uni10D0" unicode="&#x10d0;" horiz-adv-x="567" 
d="M280 -10q-71 0 -126 25t-86.5 71.5t-31.5 111.5q0 32 4.5 54t13.5 47h171q-5 -19 -8 -38.5t-3 -40.5q0 -40 16 -65.5t48 -25.5q31 0 48 23t17 59q0 40 -18.5 67.5t-43.5 55.5q-22 25 -44.5 54t-37.5 69t-15 96h180q1 -44 24 -78t52 -67q22 -24 41.5 -51.5t32 -63
t12.5 -82.5q0 -67 -31 -116.5t-86.5 -77t-128.5 -27.5z" />
    <glyph glyph-name="uni10D1" unicode="&#x10d1;" horiz-adv-x="596" 
d="M390 549q76 -26 121 -95t45 -176q0 -85 -29 -150t-86.5 -101.5t-143.5 -36.5q-79 0 -136.5 36.5t-88.5 101.5t-31 150q0 109 45.5 181.5t134.5 94.5q4 8 6 16.5t2 17.5q0 21 -9.5 34.5t-21.5 25.5q-17 17 -32 40t-15 72h170q1 -21 12.5 -37t28.5 -32q16 -15 29.5 -35
t13.5 -50q0 -33 -15 -57zM299 129q40 0 57 38t17 111q0 72 -17 109t-58 37q-39 0 -56.5 -36.5t-17.5 -110.5q0 -72 17.5 -110t57.5 -38z" />
    <glyph glyph-name="uni10D2" unicode="&#x10d2;" horiz-adv-x="586" 
d="M292 -250q-79 0 -136.5 36t-88.5 99t-31 143q0 112 58.5 180.5t152.5 88.5q51 11 71.5 29t20.5 56q0 23 -12 39t-34 16t-34 -15.5t-12 -40.5q0 -16 3 -31h-164q-7 28 -7 51q0 72 57.5 117t156.5 45q72 0 120 -23t72 -61t24 -82q0 -38 -18.5 -74t-72.5 -57v-4
q63 -26 98 -84t35 -150q0 -80 -29 -142.5t-86.5 -99t-143.5 -36.5zM294 -111q40 0 57 36.5t17 102.5q0 65 -17 100.5t-58 35.5q-39 0 -56.5 -35.5t-17.5 -101.5q0 -65 17.5 -101.5t57.5 -36.5z" />
    <glyph glyph-name="uni10D3" unicode="&#x10d3;" horiz-adv-x="874" 
d="M506 -250q-36 58 -84 80.5t-92 22.5q-37 0 -74.5 -11t-66.5 -28l-52 114q18 9 42.5 17t61.5 12v4q-62 28 -107 76t-69 110.5t-24 134.5q0 83 25.5 146.5t74.5 99t117 35.5q61 0 103 -25.5t62 -72.5h4q20 47 65 72.5t102 25.5q75 0 129 -34.5t82 -96.5t28 -144
q0 -80 -29 -143t-84 -99t-133 -36q-83 0 -138.5 36t-82.5 97t-27 136v31q0 53 -11.5 83.5t-45.5 30.5q-35 0 -47.5 -41t-12.5 -102q0 -79 26.5 -135t71.5 -93.5t101 -61.5q86 -36 138 -76t81 -104zM585 149q37 0 51 36.5t14 101.5q0 66 -14.5 101.5t-49.5 35.5
q-37 0 -50.5 -35.5t-13.5 -100.5q0 -66 13.5 -102.5t49.5 -36.5z" />
    <glyph glyph-name="uni10D4" unicode="&#x10d4;" horiz-adv-x="581" 
d="M282 -250q-77 0 -132.5 32t-84.5 87t-29 124q0 29 4.5 55t16.5 54h170q-5 -23 -8.5 -47.5t-3.5 -47.5q0 -49 15.5 -83.5t51.5 -34.5q38 0 52 30.5t14 93.5v321q0 90 -56 90q-30 0 -44 -22.5t-14 -61.5q0 -18 2 -38.5t8 -47.5h-172q-9 25 -13.5 47t-4.5 54q0 68 31 114.5
t84.5 70t120.5 23.5q111 0 174.5 -61.5t63.5 -169.5v-323q0 -122 -63.5 -190.5t-182.5 -68.5z" />
    <glyph glyph-name="uni10D5" unicode="&#x10d5;" horiz-adv-x="580" 
d="M290 -250q-80 0 -137 29.5t-87 79.5t-30 113q0 25 4 46.5t11 42.5h173q-4 -16 -6 -33.5t-2 -34.5q0 -39 17 -71.5t57 -32.5t56 30.5t16 79.5q0 55 -22.5 81.5t-57.5 26.5h-32v138h33q37 0 50.5 27t13.5 66q0 86 -55 86q-29 0 -42.5 -21.5t-13.5 -52.5q0 -18 1.5 -31.5
t5.5 -27.5h-173q-7 17 -10.5 32.5t-3.5 41.5q0 62 31 106.5t85 68t121 23.5q72 0 124.5 -26t81.5 -71.5t29 -101.5q0 -75 -35.5 -118.5t-96.5 -61.5v-3q61 -14 105 -63t44 -132q0 -67 -30 -120.5t-87 -84.5t-138 -31z" />
    <glyph glyph-name="uni10D6" unicode="&#x10d6;" horiz-adv-x="626" 
d="M335 -10q-78 0 -133.5 35.5t-85.5 94.5t-30 131q0 44 12.5 85t37.5 71v4q-60 20 -91.5 65t-31.5 107q0 48 23 91t70.5 69.5t121.5 26.5q68 0 115.5 -24.5t72.5 -63.5t25 -84q0 -25 -7 -48.5t-19 -39.5v-4q8 -2 19 -5q68 -21 110 -85t42 -153q0 -77 -28 -139t-83.5 -98
t-139.5 -36zM227 505q28 0 38.5 21.5t10.5 50.5t-10.5 49.5t-39.5 20.5q-26 0 -37.5 -20.5t-11.5 -49.5t11.5 -50.5t38.5 -21.5zM337 129q38 0 52 36t14 98q0 61 -14 96t-53 35q-37 0 -52 -35t-15 -97q0 -61 15 -97t53 -36z" />
    <glyph glyph-name="uni10D7" unicode="&#x10d7;" horiz-adv-x="871" 
d="M287 -10q-77 0 -132.5 36.5t-84.5 101.5t-29 150q0 131 63 208t176 77q57 0 103.5 -25.5t65.5 -72.5h4q21 47 61 72.5t99 25.5q68 0 116.5 -35t74.5 -98t26 -146q0 -80 -15 -147.5t-48 -136.5h-174q28 63 42 136t14 143q0 62 -12.5 103.5t-44.5 41.5q-34 0 -45 -31
t-11 -90v-34q0 -80 -27.5 -143t-83 -99.5t-138.5 -36.5zM289 129q36 0 50 38t14 111q0 72 -14 109t-51 37q-35 0 -49.5 -36.5t-14.5 -110.5q0 -72 14 -110t51 -38z" />
    <glyph glyph-name="uni10D8" unicode="&#x10d8;" horiz-adv-x="586" 
d="M93 0q-27 70 -39.5 133.5t-12.5 144.5q0 85 28 149.5t84 100t140 35.5q82 0 138.5 -35.5t85 -100t28.5 -149.5q0 -80 -12.5 -144t-39.5 -134h-171q20 61 31 132.5t11 140.5q0 79 -18.5 115t-52.5 36q-35 0 -53 -35t-18 -118q0 -69 11 -139.5t30 -131.5h-170z" />
    <glyph glyph-name="uni10D9" unicode="&#x10d9;" horiz-adv-x="565" 
d="M279 -250q-77 0 -132.5 29.5t-85.5 79.5t-30 113q0 25 4 46.5t11 42.5h172q-3 -16 -5 -33.5t-2 -34.5q0 -42 16.5 -73t51.5 -31q37 0 52.5 32t15.5 88q0 59 -20.5 88.5t-58.5 29.5h-33v138h30q38 0 52.5 24t14.5 57q0 31 -15 54.5t-48 23.5v139q76 0 130.5 -24.5t84 -68
t29.5 -99.5q0 -68 -35.5 -110t-96.5 -57v-3q61 -14 105 -64t44 -141q0 -72 -30 -127.5t-86 -87t-135 -31.5z" />
    <glyph glyph-name="uni10DA" unicode="&#x10da;" horiz-adv-x="1101" 
d="M619 -250q-24 45 -65 71t-86.5 37t-81.5 11q-58 0 -101 -15.5t-72 -33.5l-58 112q18 14 48.5 25.5t61.5 15.5v4q-105 37 -164.5 119t-59.5 199q0 77 24.5 137.5t71.5 95.5t113 35q62 0 102 -30.5t58 -84.5h5q14 55 48 85t87 30q49 0 85.5 -30t50.5 -85h5q17 54 57 84.5
t100 30.5q67 0 114.5 -35.5t72.5 -98.5t25 -145q0 -74 -14.5 -133.5t-49.5 -126.5l-156 52q21 50 30 100t9 102q0 79 -13.5 112.5t-39.5 33.5q-28 0 -39.5 -29.5t-11.5 -93.5v-139h-173v149q0 55 -11.5 84t-40.5 29t-40 -29t-11 -84v-149h-173v139q0 64 -11.5 93.5
t-39.5 29.5q-26 0 -39.5 -32.5t-13.5 -105.5q0 -116 65.5 -181.5t184.5 -97.5q105 -28 177.5 -77.5t102.5 -118.5z" />
    <glyph glyph-name="uni10DB" unicode="&#x10db;" horiz-adv-x="595" 
d="M297 -10q-122 0 -189 73t-67 199q0 129 51 197t136 68q49 0 81.5 -17t54.5 -54h4q-4 26 -6 45.5t-2 42.5v28q0 69 -55 69q-26 0 -39 -15t-13 -37q0 -5 0.5 -9.5t1.5 -8.5h-176q-6 22 -6 39q0 50 31 86t83.5 55t117.5 19q73 0 126 -27t81.5 -75t28.5 -113v-293
q0 -127 -63.5 -199.5t-180.5 -72.5zM297 129q36 0 55 32t19 90v25q0 51 -17 81.5t-61 30.5q-32 0 -51 -33.5t-19 -94.5q0 -58 15.5 -94.5t58.5 -36.5z" />
    <glyph glyph-name="uni10DC" unicode="&#x10dc;" horiz-adv-x="595" 
d="M298 -10q-119 0 -182 73.5t-63 209.5v285q0 74 30 118t78 64t103 20h240v-139h-217q-25 0 -39 -11t-14 -37v-14q0 -35 -7 -87h4q22 35 54.5 53t81.5 18q85 0 136 -68t51 -200q0 -136 -67.5 -210.5t-188.5 -74.5zM298 129q42 0 58 38t16 106q0 64 -19 98t-51 34
q-44 0 -61 -32t-17 -87v-22q0 -135 74 -135z" />
    <glyph glyph-name="uni10DD" unicode="&#x10dd;" horiz-adv-x="835" 
d="M104 0q-22 51 -36 95.5t-20.5 89.5t-6.5 99q0 82 25 145t73 98.5t116 35.5q62 0 102 -30.5t58 -84.5h5q18 55 58 85t101 30q68 0 116.5 -35t74 -98t25.5 -146q0 -80 -15 -144.5t-49 -139.5h-174q29 63 42.5 136t13.5 143q0 62 -11.5 103.5t-46.5 41.5q-29 0 -40 -30.5
t-11 -92.5v-139h-173v139q0 64 -11.5 93.5t-39.5 29.5q-30 0 -44 -33.5t-14 -114.5q0 -73 14 -143.5t42 -132.5h-174z" />
    <glyph glyph-name="uni10DE" unicode="&#x10de;" horiz-adv-x="575" 
d="M283 -10q-72 0 -128 25t-87.5 71.5t-31.5 111.5q0 29 4.5 49.5t12.5 42.5h170q-4 -17 -6.5 -34t-2.5 -36q0 -40 17 -65.5t52 -25.5q38 0 53.5 30.5t15.5 79.5q0 55 -22.5 81.5t-58.5 26.5h-35v138h33q32 0 45 12.5t13 33.5q0 26 -18.5 43t-43.5 35q-19 13 -37 31
t-29.5 46t-11.5 73l180 1q2 -24 20 -41t43 -35q20 -14 38.5 -31.5t31 -42t12.5 -59.5q0 -54 -34.5 -86.5t-91.5 -43.5v-3q38 -9 72 -33t55.5 -63.5t21.5 -95.5q0 -67 -30 -120.5t-86.5 -84.5t-135.5 -31z" />
    <glyph glyph-name="uni10DF" unicode="&#x10df;" horiz-adv-x="628" 
d="M322 -250q-79 0 -134.5 30.5t-85 79.5t-29.5 107q0 32 5 53.5t15 44.5h169q-5 -22 -7 -38.5t-2 -39.5q0 -36 15.5 -67t53.5 -31q39 0 53.5 31t14.5 91v416q-21 -9 -44 -14.5t-48 -8.5v-4q26 -14 37.5 -40.5t11.5 -56.5q0 -59 -44 -98t-115 -39q-73 0 -117 37t-44 94
q0 19 6 38h123q0 -5 -1 -9.5t-1 -8.5q0 -17 8 -28t24 -11q15 0 23 13t8 33q0 16 -7.5 31.5t-29.5 18.5v120q66 4 129.5 19.5t115.5 39.5h145v-544q0 -122 -64 -190.5t-184 -68.5z" />
    <glyph glyph-name="uni10E0" unicode="&#x10e0;" horiz-adv-x="835" 
d="M104 0q-34 77 -48.5 145.5t-14.5 144.5v44q0 114 27 197t93 135t182 74q39 7 97 15.5t136 14.5l18 -147q-44 -5 -89.5 -11t-85 -11.5t-65.5 -9.5q-35 -7 -69.5 -16.5t-61 -24.5t-37.5 -39h4q17 17 40.5 24.5t48.5 7.5q46 0 82.5 -30.5t53.5 -84.5h5q18 55 58 85t101 30
q68 0 116.5 -35t74 -95.5t25.5 -138.5q0 -53 -6.5 -96t-20.5 -85.5t-37 -92.5h-174q29 63 42.5 131t13.5 138q0 36 -4.5 67t-17 49.5t-36.5 18.5q-29 0 -40 -29t-11 -84v-119h-173v119q0 56 -11.5 84.5t-39.5 28.5q-30 0 -44 -32.5t-14 -105.5q0 -144 56 -266h-174z" />
    <glyph glyph-name="uni10E1" unicode="&#x10e1;" horiz-adv-x="605" 
d="M307 -10q-125 0 -189.5 73t-64.5 206v491h181v-499q0 -132 73 -132q39 0 56.5 32.5t17.5 82.5q0 40 -6.5 68t-17.5 51q-19 40 -33 85t-14 105h180q0 -40 12 -74t28 -69q18 -34 26 -70.5t8 -87.5q0 -79 -30.5 -138t-88 -91.5t-138.5 -32.5z" />
    <glyph glyph-name="uni10E2" unicode="&#x10e2;" horiz-adv-x="748" 
d="M374 -250q-160 0 -246.5 105t-86.5 315q0 159 63 258.5t192 125.5q-3 20 -5.5 38.5t-2.5 39.5v47h170v-47q0 -21 -2.5 -39t-6.5 -38q133 -25 196 -125t63 -261q0 -209 -85.5 -314t-248.5 -105zM374 -111q76 0 113.5 64.5t37.5 215.5q0 109 -19 168t-58 80
q5 -21 7.5 -46.5t2.5 -61.5v-147h-170v147q0 35 2.5 60t7.5 45q-39 -19 -57 -78.5t-18 -166.5q0 -150 38.5 -215t112.5 -65z" />
    <glyph glyph-name="uni10E3" unicode="&#x10e3;" 
d="M308 -250q-84 0 -142 32t-87.5 87t-29.5 124q0 29 5 55t16 54h170q-5 -23 -8 -47.5t-3 -47.5q0 -49 16.5 -83.5t62.5 -34.5q44 0 60.5 32.5t16.5 87.5v336q0 37 -11 53.5t-30 16.5q-18 0 -30 -16.5t-12 -52.5v-114h-173v116q0 63 -50 63h-57v146h68q95 0 128 -86h4
q18 43 57 67.5t91 24.5q95 0 145 -57.5t50 -149.5v-352q0 -119 -65 -186.5t-192 -67.5z" />
    <glyph glyph-name="uni10E4" unicode="&#x10e4;" horiz-adv-x="854" 
d="M503 -250q-142 0 -219 52.5t-77 139.5q0 10 1 19.5t3 19.5h172q0 -4 -0.5 -7t-0.5 -6q0 -39 34 -59t87 -20q60 0 85.5 31t25.5 70q0 34 -15 56.5t-41 22.5h-12v138h21q37 0 50.5 31t13.5 77t-12 77.5t-45 31.5q-31 0 -43 -27.5t-12 -73.5v-31q0 -65 -26.5 -122t-80 -92
t-133.5 -35q-74 0 -127.5 34.5t-82 93t-28.5 132.5t27.5 133t79.5 93t124 34q56 0 99 -25.5t62 -72.5h4q21 47 61 72.5t101 25.5q67 0 115 -30.5t73.5 -80.5t25.5 -107q0 -89 -36 -136t-98 -65v-3q58 -14 88 -60t30 -101q0 -64 -31.5 -116.5t-97 -83t-165.5 -30.5zM281 182
q36 0 49 34t13 86q0 54 -13 88t-50 34q-35 0 -49 -33.5t-14 -88.5q0 -52 13.5 -86t50.5 -34z" />
    <glyph glyph-name="uni10E5" unicode="&#x10e5;" horiz-adv-x="581" 
d="M282 -250q-77 0 -132.5 32t-84.5 87t-29 124q0 29 4.5 55t16.5 54h170q-5 -23 -8.5 -47.5t-3.5 -47.5q0 -49 15.5 -83.5t51.5 -34.5q38 0 52 30.5t14 93.5v291q0 54 -16.5 87t-47.5 33q-24 0 -37 -22.5t-13 -61.5q0 -18 2 -38.5t8 -47.5h-172q-9 25 -13.5 47.5t-4.5 59.5
q0 65 23.5 110t60 68.5t75.5 23.5q54 0 85.5 -21.5t51.5 -59.5h5q-3 27 -5.5 60t-2.5 61v157h181v-751q0 -122 -63.5 -190.5t-182.5 -68.5z" />
    <glyph glyph-name="uni10E6" unicode="&#x10e6;" horiz-adv-x="835" 
d="M493 -250q-35 58 -83 80.5t-93 22.5q-36 0 -73.5 -11t-67.5 -28l-51 114q18 9 42 17t61 12v4q-93 42 -140 128.5t-47 195.5q0 81 25 144t72 98.5t114 35.5q64 0 104.5 -30.5t58.5 -84.5h5q18 55 58.5 85t103.5 30q67 0 114.5 -35t73 -98t25.5 -146q0 -74 -14.5 -133.5
t-50.5 -126.5l-155 52q21 50 29.5 100.5t8.5 102.5q0 62 -11 103.5t-43 41.5t-43.5 -28.5t-11.5 -90.5v-143h-173v143q0 64 -11.5 91.5t-39.5 27.5q-29 0 -43.5 -33t-14.5 -112t23.5 -133.5t65.5 -90t98 -57.5q86 -35 139 -79t79 -108z" />
    <glyph glyph-name="uni10E7" unicode="&#x10e7;" horiz-adv-x="595" 
d="M295 -250q-82 0 -137.5 30.5t-83.5 79.5t-28 107q0 32 4.5 53.5t14.5 44.5h170q-5 -22 -7.5 -38.5t-2.5 -39.5q0 -36 16 -67t53 -31q39 0 53.5 31t14.5 91v53q0 40 1.5 75.5t5.5 76.5h-6q-20 -34 -52.5 -57t-84.5 -23q-54 0 -95.5 28t-65.5 80t-24 125q0 51 10 98t27 86
h173q-13 -43 -20 -81t-7 -79q0 -52 16.5 -81.5t49.5 -29.5q72 0 72 145v126h180v-544q0 -122 -63.5 -190.5t-183.5 -68.5z" />
    <glyph glyph-name="uni10E8" unicode="&#x10e8;" horiz-adv-x="595" 
d="M297 -10q-81 0 -138.5 32.5t-87.5 91.5t-30 138q0 122 51 188.5t136 66.5q49 0 81.5 -17t54.5 -54h4q-4 26 -6 45.5t-2 42.5v73q0 44 -27 44q-28 0 -28 -43v-43h-172v26q0 25 -11.5 36.5t-30.5 11.5q-20 0 -45 -10l-38 125q27 15 54 20.5t51 5.5q36 0 66.5 -20.5
t44.5 -55.5h4q16 35 50.5 55.5t89.5 20.5q46 0 85.5 -21t63.5 -62t24 -102v-333q0 -119 -63.5 -190.5t-180.5 -71.5zM297 129q36 0 55 30.5t19 81.5v25q0 43 -17 72.5t-61 29.5q-32 0 -51 -32t-19 -86q0 -51 15.5 -86t58.5 -35z" />
    <glyph glyph-name="uni10E9" unicode="&#x10e9;" horiz-adv-x="594" 
d="M53 0v558q0 99 58.5 155.5t165.5 56.5q104 0 158.5 -46.5t54.5 -116.5q0 -21 -7.5 -49.5t-33.5 -54.5v-4q106 -44 106 -213q0 -89 -11.5 -161.5t-27.5 -124.5h-177q8 25 15.5 67t12.5 93t5 101q0 65 -16 95.5t-50 30.5q-36 0 -54 -36t-18 -99v-252h-181zM226 454h7
q10 14 20.5 25.5t22.5 21.5q43 37 43 87q0 52 -42 52q-44 0 -44 -56v-61q0 -21 -7 -69z" />
    <glyph glyph-name="uni10EA" unicode="&#x10ea;" horiz-adv-x="678" 
d="M353 -250q-92 0 -162.5 40.5t-110 132.5t-39.5 247q0 110 17.5 201t60.5 182h176q-27 -67 -42.5 -125.5t-22 -120t-6.5 -137.5q0 -151 32.5 -215.5t97.5 -64.5q106 0 106 126q0 51 -24 83t-65 32h-26v140h41q62 0 62 51q0 25 -13 47t-30 42q-19 22 -35 54t-16 87l180 1
q4 -28 17.5 -49.5t35.5 -45.5q19 -21 31.5 -49.5t12.5 -70.5q0 -54 -34 -88t-90 -45v-3q56 -14 96 -64t40 -140q0 -82 -37.5 -137t-103 -83t-149.5 -28z" />
    <glyph glyph-name="uni10EB" unicode="&#x10eb;" horiz-adv-x="595" 
d="M297 -10q-122 0 -189 74.5t-67 210.5q0 139 51 213.5t136 74.5q49 0 81.5 -21.5t54.5 -59.5h4q-3 27 -5.5 60t-2.5 61v157h181v-487q0 -136 -63 -209.5t-181 -73.5zM297 129q74 0 74 135v22q0 63 -17 96t-61 33q-32 0 -51 -35.5t-19 -106.5q0 -68 15.5 -106t58.5 -38z
" />
    <glyph glyph-name="uni10EC" unicode="&#x10ec;" horiz-adv-x="595" 
d="M298 -10q-118 0 -181.5 71.5t-63.5 190.5v333q0 61 24.5 102t64 62t84.5 21q56 0 90.5 -20.5t50.5 -55.5h4q13 35 43.5 55.5t67.5 20.5q23 0 50.5 -5.5t53.5 -20.5l-37 -125q-26 10 -45 10t-30.5 -11.5t-11.5 -36.5v-26h-172v43q0 43 -28 43t-28 -44v-73q0 -23 -2 -42.5
t-5 -45.5h4q22 37 54.5 54t81.5 17q85 0 136 -66.5t51 -188.5q0 -79 -30.5 -138t-87.5 -91.5t-138 -32.5zM298 129q42 0 58 35t16 86q0 54 -19 86t-51 32q-44 0 -61 -29.5t-17 -72.5v-25q0 -51 19 -81.5t55 -30.5z" />
    <glyph glyph-name="uni10ED" unicode="&#x10ed;" horiz-adv-x="614" 
d="M318 -250q-80 0 -136.5 32t-85.5 85.5t-29 119.5q0 28 5 54.5t16 53.5h170q-5 -22 -8.5 -46.5t-3.5 -47.5q0 -44 16 -78t56 -34q37 0 55 30t18 79q0 35 -8.5 68t-22.5 62q-16 33 -25 58t-16 56h-4q-19 -23 -48 -35t-70 -12t-78 21.5t-60 61.5t-23 94q0 49 20.5 90
t63.5 66t108 25h58v207h181v-207h100v-139h-100v-21q0 -65 18.5 -113t41.5 -93q19 -37 33 -80t14 -102q0 -119 -69 -187t-187 -68zM247 326q19 0 33.5 12.5t14.5 40.5v40h-41q-24 0 -38 -11.5t-14 -35.5q0 -20 11.5 -33t33.5 -13z" />
    <glyph glyph-name="uni10EE" unicode="&#x10ee;" horiz-adv-x="595" 
d="M298 -10q-119 0 -182 73.5t-63 209.5v487h181v-157q0 -28 -2 -61t-5 -60h4q22 38 54.5 59.5t81.5 21.5q85 0 136 -74.5t51 -213.5q0 -136 -67.5 -210.5t-188.5 -74.5zM298 129q42 0 58 38t16 106q0 71 -19 106.5t-51 35.5q-44 0 -61 -33t-17 -96v-22q0 -135 74 -135z" />
    <glyph glyph-name="uni10EF" unicode="&#x10ef;" horiz-adv-x="568" 
d="M369 301q0 -37 23.5 -68t59.5 -66q33 -33 56.5 -78.5t23.5 -111.5q0 -65 -28.5 -116.5t-84 -81t-135.5 -29.5q-79 0 -134.5 30.5t-84.5 79.5t-29 107q0 32 4.5 53.5t14.5 44.5h170q-5 -22 -7.5 -38.5t-2.5 -39.5q0 -36 16 -67t53 -31q39 0 52.5 26.5t13.5 62.5
q0 38 -21 69t-49 63q-33 36 -61.5 83t-28.5 114v36l-144 27v135l144 -27v85h180v-117l152 -29v-135l-153 28v-9z" />
    <glyph glyph-name="uni10F0" unicode="&#x10f0;" horiz-adv-x="563" 
d="M272 -10q-78 0 -131 25t-80 65t-27 84q0 22 7 45h170q-3 -10 -3 -19q0 -22 14.5 -41.5t50.5 -19.5q34 0 50 14t16 36t-15 36.5t-53 14.5h-27v134h36q25 0 38.5 7t13.5 25q0 34 -52 34h-36v133h33q17 0 28 6.5t11 19.5q0 15 -12 23.5t-38 19.5q-22 9 -42.5 23.5t-34.5 40
t-14 64.5h181q2 -22 21.5 -35t45.5 -26q32 -15 54.5 -40t22.5 -66q0 -39 -27.5 -60.5t-74.5 -30.5v-3q47 -4 80.5 -31.5t33.5 -71.5q0 -51 -32.5 -72t-79.5 -30v-3q32 -7 59.5 -23.5t45 -43t17.5 -63.5q0 -57 -31.5 -95t-88.5 -57t-130 -19z" />
    <glyph glyph-name="uni10F1" unicode="&#x10f1;" horiz-adv-x="683" 
d="M373 -10q-96 0 -171 39.5t-118 128.5t-43 238q0 100 17.5 188.5t57.5 175.5h175q-24 -64 -39 -121t-21.5 -115.5t-6.5 -128.5q0 -142 42 -204t109 -62q85 0 85 52q0 20 -16 34.5t-52 14.5h-27v134h35q25 0 38.5 7t13.5 25q0 34 -52 34h-35v133h32q18 0 28.5 7t10.5 23
q0 19 -8 31.5t-19 24.5q-17 17 -31 40.5t-14 70.5h181q1 -20 11 -36t24 -32q16 -17 28 -39.5t12 -55.5q0 -42 -27.5 -64t-74.5 -31v-3q47 -4 81 -31.5t34 -71.5q0 -51 -32.5 -72t-79.5 -30v-3q31 -5 59 -20.5t45.5 -42.5t17.5 -67q0 -48 -34 -87t-94.5 -61.5t-141.5 -22.5z
" />
    <glyph glyph-name="uni10F2" unicode="&#x10f2;" horiz-adv-x="596" 
d="M51 0v139q23 0 50.5 2.5t64.5 9.5v4q-65 36 -95 87t-30 103q0 54 28 104t85 82t144 32t144 -32t85 -82t28 -104q0 -52 -30.5 -103t-95.5 -87v-4q35 -7 63.5 -9.5t52.5 -2.5v-139q-73 0 -134.5 16.5t-113.5 39.5q-52 -23 -113.5 -39.5t-132.5 -16.5zM298 195
q35 24 55.5 59t20.5 78q0 38 -19 65t-57 27q-39 0 -57.5 -27t-18.5 -65q0 -43 20.5 -78t55.5 -59z" />
    <glyph glyph-name="uni10F3" unicode="&#x10f3;" horiz-adv-x="580" 
d="M290 -250q-80 0 -137 29.5t-87 78.5t-30 110q0 28 4 48.5t11 40.5h173q-4 -13 -6 -30.5t-2 -36.5q0 -25 7.5 -48t24 -38t42.5 -15q40 0 56 30.5t16 79.5q0 66 -24 98t-83 32h-72v120l121 162h-229v142h445v-114l-147 -190q46 -10 85 -39t63 -80.5t24 -127.5
q0 -75 -30 -132t-87 -88.5t-138 -31.5z" />
    <glyph glyph-name="uni10F4" unicode="&#x10f4;" horiz-adv-x="570" 
d="M283 -250q-72 0 -128 25t-87.5 71.5t-31.5 111.5q0 29 4.5 49.5t12.5 42.5h170q-4 -17 -6.5 -34t-2.5 -36q0 -40 17 -65.5t52 -25.5q38 0 53.5 30.5t15.5 79.5q0 55 -22.5 81.5t-58.5 26.5h-35v138h33q32 0 45 12.5t13 36.5q0 30 -28 52t-78 49q-41 23 -73.5 49t-51.5 63
t-19 90q0 78 60 125.5t164 47.5q49 0 95.5 -12t84.5 -38l-56 -120q-27 14 -54 22.5t-55 8.5q-56 0 -56 -36q0 -27 25.5 -44.5t78.5 -45.5q35 -19 69 -43t56.5 -58t22.5 -81q0 -63 -34.5 -97t-91.5 -45v-3q38 -9 72 -33t55.5 -63.5t21.5 -95.5q0 -67 -30 -120.5t-86.5 -84.5
t-135.5 -31z" />
    <glyph glyph-name="uni10F5" unicode="&#x10f5;" horiz-adv-x="604" 
d="M277 -10q-115 0 -175.5 45.5t-60.5 129.5q0 87 58 132t156 45h84v81h-84q-99 0 -156.5 42.5t-57.5 127.5q0 87 60.5 132t173.5 45q69 0 122 -20.5t83 -61t30 -98.5v-37h86v-130h-86v-81h86v-129h-86v-29q0 -96 -62 -145t-171 -49zM271 553h68v28q0 29 -18 44t-47 15
q-59 0 -59 -46q0 -23 16 -32t40 -9zM275 120q30 0 47 16t17 44v33h-61q-28 0 -45 -10.5t-17 -37.5q0 -24 17.5 -34.5t41.5 -10.5z" />
    <glyph glyph-name="uni10F6" unicode="&#x10f6;" horiz-adv-x="881" 
d="M356 -250q-29 0 -56.5 5t-47.5 18v139q16 -6 28.5 -10t29.5 -4q19 0 29.5 11t10.5 30v33q0 25 3 51t5 46h-4q-20 -36 -49 -57.5t-77 -21.5q-84 0 -135.5 74t-51.5 212t50.5 212.5t133.5 74.5q51 0 79 -20.5t48 -53.5h6q-3 17 -5.5 33.5t-2.5 35.5v29q0 183 183 183
q29 0 56 -5.5t39 -10.5v-142q-9 3 -23 6.5t-31 3.5q-19 0 -31 -11.5t-12 -29.5v-23q0 -39 -8 -69h7q19 33 47 53.5t79 20.5q83 0 134 -74.5t51 -212.5t-51.5 -212t-136.5 -74q-47 0 -76.5 21.5t-49.5 57.5h-4q3 -22 5.5 -49t2.5 -52v-33q0 -55 -16.5 -96.5t-55 -65
t-103.5 -23.5zM293 139q36 0 52 32t16 93v28q0 65 -16.5 95.5t-50.5 30.5q-32 0 -51.5 -34t-19.5 -107q0 -70 19 -104t51 -34zM588 139q32 0 51 34t19 104q0 73 -19.5 107t-51.5 34q-33 0 -49.5 -30.5t-16.5 -95.5v-28q0 -61 15.5 -93t51.5 -32z" />
    <glyph glyph-name="uni10F7" unicode="&#x10f7;" horiz-adv-x="574" 
d="M289 -250q-118 0 -185.5 58t-67.5 166q0 74 27 124t71 85t95 63q48 27 74 46.5t36 37.5t10 38q0 25 -14 40t-41 15q-32 0 -44.5 -17t-12.5 -41q0 -17 4 -34h-178q-7 23 -7 51q0 50 27.5 91t80.5 64.5t128 23.5q117 0 176.5 -54t59.5 -142q0 -53 -18 -94t-57 -76.5
t-104 -73.5q-43 -25 -72 -47t-43 -47.5t-14 -61.5q0 -38 19.5 -57t48.5 -19q37 0 54 22t17 60q0 30 -9 60h178q5 -19 8 -37.5t3 -38.5q0 -103 -66 -154t-184 -51z" />
    <glyph glyph-name="uni10F8" unicode="&#x10f8;" horiz-adv-x="595" 
d="M301 -250q-120 0 -184 68.5t-64 190.5v544h181v-126q0 -145 71 -145q33 0 50 29.5t17 81.5q0 41 -7 79t-20 81h173q17 -39 27 -86t10 -98q0 -73 -24 -125t-66 -80t-96 -28q-51 0 -83.5 23t-52.5 57h-7q4 -41 6 -76.5t2 -75.5v-53q0 -60 14 -91t53 -31q38 0 53.5 31
t15.5 67q0 23 -2 39.5t-7 38.5h169q10 -23 15 -44.5t5 -53.5q0 -58 -28 -107t-83.5 -79.5t-137.5 -30.5z" />
    <glyph glyph-name="uni10F9" unicode="&#x10f9;" horiz-adv-x="596" 
d="M299 563q79 0 136.5 -36t89 -99t31.5 -143q0 -112 -59 -180.5t-153 -88.5q-51 -11 -71.5 -29t-20.5 -56q0 -23 12 -39t34 -16t34 15.5t12 40.5q0 16 -3 31h164q7 -28 7 -51q0 -72 -57.5 -117t-156.5 -45q-72 0 -120 23t-72 61t-24 82q0 38 18.5 74t72.5 57v4
q-63 26 -97.5 84t-34.5 150q0 80 28.5 142.5t86 99t143.5 36.5zM297 424q-40 0 -56.5 -36.5t-16.5 -102.5q0 -65 16.5 -100.5t57.5 -35.5q39 0 57 35.5t18 101.5q0 65 -17.5 101.5t-58.5 36.5z" />
    <glyph glyph-name="uni10FA" unicode="&#x10fa;" horiz-adv-x="486" 
d="M87 -126v155l61 25v4q-43 21 -75 80.5t-32 141.5q0 135 72 209t194 74q49 0 91.5 -11t79.5 -31l-51 -137q-31 16 -58.5 24.5t-54.5 8.5q-42 0 -66 -36t-24 -106q0 -73 24 -105.5t65 -32.5q77 0 148 49v-164z" />
    <glyph glyph-name="uni10FB" unicode="&#x10fb;" horiz-adv-x="547" 
d="M145 373q-43 0 -71.5 23t-28.5 71q0 49 28 71t72 22q41 0 68.5 -22t27.5 -71q0 -48 -27.5 -71t-68.5 -23zM406 181q-43 0 -71.5 22.5t-28.5 70.5q0 49 28 71.5t72 22.5q41 0 68.5 -22.5t27.5 -71.5q0 -48 -27.5 -70.5t-68.5 -22.5zM145 -12q-43 0 -71.5 22.5t-28.5 70.5
q0 49 28 71.5t72 22.5q41 0 68.5 -22.5t27.5 -71.5q0 -48 -27.5 -70.5t-68.5 -22.5z" />
    <glyph glyph-name="uni10FC" unicode="&#x10fc;" horiz-adv-x="364" 
d="M187 409q-79 0 -118 42.5t-39 118.5v156q0 67 38.5 94t95.5 27h151v-94h-135q-29 0 -29 -24v-12q0 -17 -5 -46h3q12 20 30.5 30.5t46.5 10.5q54 0 86 -38t32 -109t-40 -113.5t-117 -42.5zM187 497q32 0 32 67q0 28 -7.5 44t-24.5 16t-24.5 -15t-7.5 -38v-15
q0 -27 7.5 -43t24.5 -16z" />
    <glyph glyph-name="uni10FD" unicode="&#x10fd;" horiz-adv-x="574" 
d="M285 -10q-118 0 -183.5 51t-65.5 154q0 20 3 38.5t8 37.5h177q-8 -30 -8 -60q0 -38 17 -60t53 -22q30 0 49.5 18.5t19.5 56.5q0 27 -14.5 47t-43.5 39t-72 45q-64 38 -104 72t-58.5 73.5t-18.5 93.5q0 88 60 142t176 54q76 0 128.5 -24t80 -64.5t27.5 -90.5q0 -28 -6 -51
h-178q4 17 4 34q0 24 -13 41t-44 17q-28 0 -41.5 -14.5t-13.5 -38.5q0 -20 10 -37t35.5 -35.5t72.5 -44.5q52 -28 97 -60.5t72.5 -77t27.5 -110.5q0 -108 -68 -166t-186 -58z" />
    <glyph glyph-name="uni10FE" unicode="&#x10fe;" horiz-adv-x="596" 
d="M51 553q71 0 132.5 -16.5t113.5 -39.5q52 23 113.5 39.5t134.5 16.5v-139q-24 0 -52.5 -2.5t-63.5 -9.5v-4q65 -36 95.5 -87t30.5 -103q0 -54 -28 -104t-85 -82t-144 -32t-144 32t-85 82t-28 104q0 52 30 103t95 87v4q-37 7 -64.5 9.5t-50.5 2.5v139zM298 358
q-35 -24 -55.5 -59t-20.5 -78q0 -38 18.5 -65t57.5 -27q38 0 57 27t19 65q0 43 -20.5 78t-55.5 59z" />
    <glyph glyph-name="uni10FF" unicode="&#x10ff;" horiz-adv-x="596" 
d="M556 278q0 -85 -29 -150t-86.5 -101.5t-143.5 -36.5q-79 0 -136.5 36.5t-88.5 101.5t-31 150q0 131 66 208t193 77q75 0 132.5 -33t90.5 -97t33 -155zM224 277q0 -72 17.5 -110t57.5 -38t57 38t17 111q0 72 -17 109t-58 37q-39 0 -56.5 -36.5t-17.5 -110.5z" />
    <glyph glyph-name="uni1C90" unicode="&#x1c90;" horiz-adv-x="605" 
d="M299 -10q-118 0 -189 65t-71 180q0 28 4 55t14 62h-87l100 38q-7 -20 -13 -38h186q-9 -32 -11.5 -58t-2.5 -47q0 -49 16.5 -77t53.5 -28q39 0 54.5 27.5t15.5 76.5q0 57 -22.5 102t-52.5 89q-27 38 -52.5 78.5t-38.5 88.5t-3 110h188q-8 -54 17.5 -101t59.5 -98
q24 -35 45.5 -74t35.5 -86t14 -106q0 -120 -69 -189.5t-192 -69.5zM254 390l67 -38h-78q4 19 11 38z" />
    <glyph glyph-name="uni1C91" unicode="&#x1c91;" horiz-adv-x="623" 
d="M311 -9q-81 0 -141 35t-92.5 96.5t-32.5 141.5q0 104 51 174t146 89q4 11 4 19q0 16 -10 27t-23 20q-22 16 -39.5 45.5t-10.5 75.5h178q0 -18 10.5 -30t28.5 -25q19 -14 33.5 -35.5t14.5 -53.5q0 -27 -13 -52q74 -26 118.5 -91t44.5 -163q0 -79 -30.5 -141t-90 -97
t-146.5 -35zM313 143q38 0 55.5 32t17.5 89t-18 87.5t-56 30.5q-37 0 -56 -30.5t-19 -88.5q0 -57 18.5 -88.5t57.5 -31.5z" />
    <glyph glyph-name="uni1C92" unicode="&#x1c92;" horiz-adv-x="612" 
d="M306 -9q-81 0 -141 33t-93 90.5t-33 131.5q0 105 63 169t179 77q43 6 58 19.5t15 35.5q0 18 -13 30t-38 12q-24 0 -37.5 -12t-13.5 -32q0 -8 2 -20h-173q-5 23 -5 44q0 43 27.5 78.5t78.5 56t122 20.5q113 0 171 -45.5t58 -112.5q0 -32 -18 -64t-63 -52v-4
q56 -26 88.5 -74.5t32.5 -125.5q0 -73 -30.5 -130.5t-90 -91t-146.5 -33.5zM307 143q36 0 55 28t19 75q0 44 -19 71.5t-55 27.5q-35 0 -55.5 -27t-20.5 -73t20 -74t56 -28z" />
    <glyph glyph-name="uni1C93" unicode="&#x1c93;" horiz-adv-x="920" 
d="M531 0q-5 28 -28 44.5t-56.5 23.5t-69.5 7q-46 0 -93 -12t-82 -30l-60 114q18 12 42 21.5t46 13.5v4q-56 24 -98 67t-64.5 98.5t-22.5 118.5q0 74 27 131t79 90t126 33q59 0 103 -22.5t65 -63.5h5q20 41 68 63.5t107 22.5q79 0 135 -31.5t85.5 -86.5t29.5 -124
q0 -65 -30.5 -119.5t-88.5 -87t-139 -32.5q-86 0 -144 32t-86.5 84t-28.5 110v18q0 36 -12 64.5t-46 28.5q-38 0 -53 -33t-15 -79q0 -60 20 -103t54 -72t77 -47.5t89 -29.5q42 -10 83.5 -25t76 -39t56.5 -61t26 -91h-183zM615 386q38 0 54.5 28t16.5 69q0 43 -17 70t-53 27
q-38 0 -54 -27t-16 -70q0 -41 16 -69t53 -28z" />
    <glyph glyph-name="uni1C94" unicode="&#x1c94;" horiz-adv-x="613" 
d="M298 -10q-82 0 -140 30t-88.5 81t-30.5 114q0 46 14 93h184q-4 -20 -6 -39.5t-2 -35.5q0 -38 17 -64.5t54 -26.5q40 0 54.5 23.5t14.5 66.5v271q0 36 -16.5 52.5t-42.5 16.5q-29 0 -45 -17.5t-16 -49.5q0 -24 6 -61h-185q-5 21 -8 39.5t-3 44.5q0 63 33 106.5t89 66.5
t126 23q76 0 131.5 -26.5t86 -75t30.5 -114.5v-279q0 -112 -66.5 -175.5t-190.5 -63.5z" />
    <glyph glyph-name="uni1C95" unicode="&#x1c95;" horiz-adv-x="610" 
d="M305 -10q-84 0 -143.5 27.5t-91 74.5t-31.5 105q0 36 12 72h181q-3 -15 -4 -27.5t-1 -24.5q0 -33 18 -58t60 -25t59.5 23.5t17.5 58.5q0 48 -25 66.5t-62 18.5h-26v142h29q39 0 53.5 21.5t14.5 50.5q0 63 -60 63q-30 0 -45.5 -17t-15.5 -45q0 -10 1.5 -19t3.5 -20h-182
q-5 15 -7 28t-2 34q0 59 33 100.5t89.5 63t126.5 21.5q74 0 129.5 -24.5t86 -67.5t30.5 -99q0 -61 -30 -99.5t-83 -52.5v-2q53 -13 91.5 -56.5t38.5 -118.5q0 -58 -31.5 -107t-91 -78t-143.5 -29z" />
    <glyph glyph-name="uni1C96" unicode="&#x1c96;" horiz-adv-x="658" 
d="M351 -10q-81 0 -139.5 32.5t-89.5 87t-31 121.5q0 40 11.5 78.5t38.5 65.5v4q-62 19 -94 61.5t-32 99.5q0 46 23.5 88t73.5 69t127 27q70 0 119.5 -24t76 -62.5t26.5 -81.5q0 -25 -8 -47t-19 -37v-3q8 -1 21 -5q71 -20 115 -79.5t44 -138.5q0 -72 -29 -130t-87.5 -92
t-146.5 -34zM238 476q29 0 40.5 19t11.5 40q0 24 -12 41.5t-41 17.5q-28 0 -40.5 -17t-12.5 -42q0 -23 12.5 -41t41.5 -18zM353 141q41 0 56.5 29.5t15.5 75.5t-15.5 74.5t-57.5 28.5q-39 0 -55.5 -28.5t-16.5 -74.5t16.5 -75.5t56.5 -29.5z" />
    <glyph glyph-name="uni1C97" unicode="&#x1c97;" horiz-adv-x="944" 
d="M652 724q110 0 176.5 -82t66.5 -250q0 -90 -9 -158t-24 -123.5t-34 -110.5h-189q22 73 42.5 170.5t20.5 225.5q0 99 -16 136.5t-51 37.5q-30 0 -43 -24t-13 -66q0 -31 3 -60t3 -70q0 -180 -65 -270t-203 -90q-139 0 -203.5 91.5t-64.5 275.5q0 367 264 367
q54 0 102 -18.5t71 -66.5h3q15 32 42.5 50.5t60 26.5t60.5 8zM317 144q44 0 59.5 49t15.5 165q0 117 -15.5 164.5t-59.5 47.5t-59.5 -48.5t-15.5 -164.5q0 -118 15.5 -165.5t59.5 -47.5z" />
    <glyph glyph-name="uni1C98" unicode="&#x1c98;" horiz-adv-x="634" 
d="M96 0q-15 49 -25.5 102t-16 121t-5.5 162q0 174 72.5 256.5t195.5 82.5t195.5 -82.5t72.5 -256.5q0 -94 -5.5 -162t-16 -121t-25.5 -102h-188q15 64 28.5 157.5t13.5 230.5q0 104 -19 143t-56 39t-56 -39t-19 -143q0 -137 13.5 -230.5t28.5 -157.5h-188z" />
    <glyph glyph-name="uni1C99" unicode="&#x1c99;" horiz-adv-x="597" 
d="M292 -10q-80 0 -138 27.5t-89 74.5t-31 105q0 36 12 72h181q-3 -15 -4.5 -27.5t-1.5 -24.5q0 -33 17.5 -58t54.5 -25q40 0 57.5 24t17.5 70q0 47 -22 69t-59 22h-35v140h32q37 0 53 17t16 42q0 24 -15.5 42t-44.5 19v146q117 0 181.5 -48.5t64.5 -128.5q0 -61 -28 -99
t-73 -52v-2q29 -8 56 -30.5t45 -59.5t18 -90q0 -65 -32 -116t-91 -80t-142 -29z" />
    <glyph glyph-name="uni1C9A" unicode="&#x1c9a;" horiz-adv-x="1155" 
d="M655 0q-5 35 -37 57t-77.5 33t-93.5 11q-68 0 -119.5 -17.5t-86.5 -36.5l-68 109q38 25 83 37v4q-103 32 -157 105.5t-54 179.5q0 67 24 122t72 87.5t118 32.5q62 0 106.5 -27t62.5 -76h5q32 103 144 103q53 0 91 -27.5t52 -75.5h6q18 49 59 76t103 27q70 0 119.5 -33
t76 -90.5t26.5 -133.5q0 -68 -14 -123t-46 -117l-169 54q22 45 31.5 91.5t9.5 94.5q0 57 -14.5 81.5t-40.5 24.5q-31 0 -42 -26.5t-11 -65.5v-122h-184v131q0 32 -11 57.5t-42 25.5t-42 -25t-11 -58v-131h-184v122q0 39 -10 65.5t-41 26.5q-28 0 -43 -25t-15 -82
q0 -100 66 -149t192 -62q93 -10 168.5 -37.5t122 -80t55.5 -137.5h-180z" />
    <glyph glyph-name="uni1C9B" unicode="&#x1c9b;" horiz-adv-x="626" 
d="M314 -10q-128 0 -198.5 69t-70.5 185q0 120 54 183.5t144 63.5q50 0 84 -16t57 -45h4q-3 25 -4.5 43.5t-1.5 34.5v25q0 24 -17 37.5t-43 13.5q-27 0 -43 -12t-16 -34v-9h-187q-1 10 -1.5 15.5t-0.5 11.5q0 52 34 90t89.5 58t122.5 20q76 0 131.5 -26t85.5 -72t30 -107
v-272q0 -120 -65.5 -188.5t-187.5 -68.5zM313 140q41 0 60 28.5t19 66.5v21q0 20 -6.5 41t-24.5 34.5t-52 13.5q-35 0 -55.5 -27t-20.5 -75q0 -44 19 -73.5t61 -29.5z" />
    <glyph glyph-name="uni1C9C" unicode="&#x1c9c;" horiz-adv-x="628" 
d="M314 -10q-124 0 -189.5 70t-65.5 195v257q0 74 31 118t80.5 64t103.5 20h261v-151h-238q-52 0 -52 -46v-14q0 -14 -2 -29.5t-6 -39.5h5q46 69 143 69q60 0 104.5 -31.5t69 -88.5t24.5 -132q0 -120 -71 -190.5t-198 -70.5zM317 140q44 0 62 31.5t18 75.5q0 48 -20.5 76
t-57.5 28q-48 0 -65 -30.5t-17 -69.5v-18q0 -38 18.5 -65.5t61.5 -27.5z" />
    <glyph glyph-name="uni1C9D" unicode="&#x1c9d;" horiz-adv-x="909" 
d="M115 0q-19 55 -34 111t-23.5 123.5t-8.5 157.5q0 112 30.5 185.5t85.5 110t126 36.5q48 0 93.5 -21t68.5 -73h3q25 52 71 73t97 21q69 0 122.5 -36.5t84 -110t30.5 -185.5q0 -90 -9 -158t-24.5 -123.5t-34.5 -110.5h-188q22 73 42 170.5t20 225.5q0 99 -14.5 136.5
t-45.5 37.5q-37 0 -46.5 -32.5t-9.5 -80.5v-248h-192v248q0 47 -10 80t-46 33q-32 0 -46.5 -38t-14.5 -136q0 -132 20.5 -227.5t41.5 -168.5h-189z" />
    <glyph glyph-name="uni1C9E" unicode="&#x1c9e;" horiz-adv-x="608" 
d="M299 -10q-81 0 -139 27.5t-89.5 74.5t-31.5 105q0 36 12 72h181q-3 -15 -4 -27.5t-1 -24.5q0 -33 17.5 -58t54.5 -25q40 0 56.5 26t16.5 67q0 51 -25 71.5t-62 20.5h-36v141h38q34 0 48.5 9.5t14.5 27.5t-16 31.5t-42 25.5t-49 32.5t-35.5 52t-8.5 75.5h191q2 -23 19 -38
t45 -32q33 -20 61 -52t28 -90q0 -42 -28 -72.5t-70 -41.5v-2q28 -9 55 -31.5t45 -58t18 -82.5q0 -63 -31.5 -113.5t-90.5 -80.5t-142 -30z" />
    <glyph glyph-name="uni1C9F" unicode="&#x1c9f;" horiz-adv-x="661" 
d="M339 -10q-81 0 -139.5 27.5t-89.5 74.5t-31 105q0 36 12 72h181q-3 -15 -4 -27.5t-1 -24.5q0 -33 17 -58t54 -25q43 0 58 25.5t15 69.5v349q-43 -13 -88 -18v-2q24 -13 34 -37.5t10 -49.5q0 -38 -21.5 -68t-59.5 -47.5t-89 -17.5q-76 0 -121.5 37t-45.5 89q0 17 4 34h133
q-1 -4 -1 -10q0 -14 8.5 -23t22.5 -9t22 10.5t8 23.5q0 12 -7 24t-30 13v136q69 3 134.5 16.5t120.5 34.5h152v-485q0 -110 -67 -174.5t-191 -64.5z" />
    <glyph glyph-name="uni1CA0" unicode="&#x1ca0;" horiz-adv-x="877" 
d="M97 0q-20 56 -31.5 101.5t-16 91.5t-4.5 103q0 77 13 143.5t47 118.5t95.5 87.5t158.5 51.5q41 7 103 14.5t141 13.5l19 -153q-49 -4 -97 -9.5t-88.5 -10.5t-66.5 -9q-34 -5 -69.5 -12t-64 -18t-40.5 -29l3 -1q33 27 91 27q51 0 90.5 -29t56.5 -83h4q19 54 61.5 83
t110.5 29t117 -33.5t75.5 -90.5t26.5 -129q0 -70 -13 -129t-40 -128h-186q24 58 37.5 121t13.5 131q0 29 -5.5 55.5t-18.5 43.5t-37 17q-35 0 -45 -30.5t-10 -70.5v-117h-180v117q0 49 -12 75t-41 26q-32 0 -47 -28t-15 -92q0 -66 13 -127.5t37 -120.5h-186z" />
    <glyph glyph-name="uni1CA1" unicode="&#x1ca1;" horiz-adv-x="630" 
d="M322 -10q-127 0 -195 71t-68 196v457h187v-467q0 -106 77 -106q37 0 55 27t18 64q0 42 -12 71t-28 57q-18 36 -28.5 74t-5.5 91h186q-1 -32 8 -60t25 -59q18 -33 31 -69.5t13 -95.5q0 -75 -31.5 -131.5t-90.5 -88t-141 -31.5z" />
    <glyph glyph-name="uni1CA2" unicode="&#x1ca2;" horiz-adv-x="798" 
d="M399 -10q-112 0 -191.5 43.5t-121 126t-41.5 196.5q0 144 67 235t198 114q-4 21 -4 42v11h185v-11q0 -10 -0.5 -20t-2.5 -22q133 -22 199.5 -112t66.5 -238q0 -172 -93 -268.5t-262 -96.5zM399 145q81 0 121 50t40 159q0 96 -21 143t-61 63q4 -17 6.5 -40.5t2.5 -57.5
v-121h-177v120q0 33 2 57t6 42q-42 -16 -61 -66t-19 -140q0 -108 41 -158.5t120 -50.5z" />
    <glyph glyph-name="uni1CA3" unicode="&#x1ca3;" horiz-adv-x="635" 
d="M320 -10q-82 0 -140 30t-88.5 81t-30.5 114q0 46 13 93h185q-4 -20 -6 -39.5t-2 -35.5q0 -38 16.5 -64.5t54.5 -26.5q39 0 54 23.5t15 66.5v285q0 54 -44 54q-20 0 -33 -12t-13 -41v-97h-178v95q0 48 -49 48h-50v155h57q98 0 133 -79h4q19 40 60.5 62t96.5 22
q98 0 149.5 -54.5t51.5 -140.5v-301q0 -112 -66.5 -175t-189.5 -63z" />
    <glyph glyph-name="uni1CA4" unicode="&#x1ca4;" horiz-adv-x="912" 
d="M534 -10q-144 0 -225.5 49t-81.5 128q0 20 4 36h182v-4.5v-3.5q0 -32 35.5 -46.5t90.5 -14.5q63 0 91.5 24t28.5 55q0 27 -16.5 43t-43.5 16h-9v141h18q40 0 55 24.5t15 59.5q0 36 -13.5 59.5t-45.5 23.5q-34 0 -45.5 -25.5t-11.5 -59.5v-23q0 -58 -29 -109t-86.5 -83
t-143.5 -32q-82 0 -139.5 32.5t-88 86.5t-30.5 117q0 68 29.5 122.5t86 86t136.5 31.5q57 0 105 -21.5t68 -62.5h3q21 41 66 62.5t104 21.5q71 0 121 -26t76.5 -71.5t26.5 -104.5q0 -74 -31.5 -115t-86.5 -59v-3q52 -15 76.5 -54t24.5 -86q0 -58 -34.5 -107t-104.5 -78.5
t-177 -29.5zM304 391q38 0 54 28t16 67q0 41 -16.5 67.5t-53.5 26.5t-54 -26.5t-17 -67.5q0 -40 17 -67.5t54 -27.5z" />
    <glyph glyph-name="uni1CA5" unicode="&#x1ca5;" horiz-adv-x="613" 
d="M297 -10q-80 0 -137.5 27.5t-89 74.5t-31.5 105q0 36 12 72h181q-3 -15 -4 -27.5t-1 -24.5q0 -33 17 -58t53 -25q41 0 56.5 29t15.5 77v142q0 42 -16 67.5t-49 25.5q-30 0 -45 -19.5t-15 -49.5q0 -8 0.5 -16.5t2.5 -17.5h-181q-3 12 -4.5 26.5t-1.5 33.5q0 58 25 99.5
t64.5 63.5t83.5 22q51 0 83.5 -18t53.5 -54h4q-3 24 -4.5 50t-1.5 49v70h186v-477q0 -117 -67 -182t-190 -65z" />
    <glyph glyph-name="uni1CA6" unicode="&#x1ca6;" horiz-adv-x="878" 
d="M488 0q-4 28 -26.5 47t-54 28.5t-62.5 9.5q-48 0 -85 -11t-72 -30l-60 114q19 12 43.5 21.5t47.5 12.5v4q-84 36 -129 110.5t-45 163.5q0 74 25.5 131.5t74 90t118.5 32.5q65 0 110 -27t63 -78h5q38 105 169 105q70 0 120 -32.5t76.5 -90t26.5 -131.5q0 -68 -15 -123.5
t-53 -119.5l-159 54q22 46 31 92.5t9 90.5q0 46 -13 81t-49 35q-34 0 -45 -27t-11 -76v-124h-178v124q0 52 -11.5 77.5t-43.5 25.5t-47.5 -25.5t-15.5 -89.5q0 -75 30.5 -122t81.5 -74.5t112 -44.5q59 -16 106 -44.5t76 -72.5t33 -107h-183z" />
    <glyph glyph-name="uni1CA7" unicode="&#x1ca7;" horiz-adv-x="622" 
d="M305 -10q-81 0 -139.5 27.5t-89.5 74.5t-31 105q0 36 12 72h181q-3 -15 -4.5 -27.5t-1.5 -24.5q0 -33 17.5 -58t55.5 -25q43 0 58.5 26.5t15.5 69.5v59q0 26 1 50.5t5 55.5h-4q-21 -27 -55 -47t-85 -20q-56 0 -100.5 26.5t-70 76.5t-25.5 122q0 50 8.5 89.5t21.5 71.5
h184q-12 -38 -17.5 -72.5t-5.5 -74.5q0 -42 17.5 -66t50.5 -24q35 0 55 29t20 89v119h184v-483q0 -113 -67.5 -177t-190.5 -64z" />
    <glyph glyph-name="uni1CA8" unicode="&#x1ca8;" horiz-adv-x="625" 
d="M313 -10q-127 0 -198 69t-71 185q0 113 54.5 174.5t145.5 61.5q49 0 82.5 -15t56.5 -44h4q-3 25 -4.5 43.5t-1.5 34.5v59q0 15 -8.5 24.5t-22.5 9.5q-31 0 -31 -37v-36h-178v19q0 22 -12 31.5t-32 9.5q-23 0 -47 -9l-41 132q28 13 57.5 17.5t52.5 4.5q37 0 70 -16.5
t47 -50.5h3q18 34 56 50.5t93 16.5q48 0 88.5 -20t65 -59.5t24.5 -96.5v-301q0 -120 -65.5 -188.5t-187.5 -68.5zM313 140q41 0 60 28.5t19 66.5v17q0 18 -6.5 37.5t-24 33t-52.5 13.5t-55.5 -26t-20.5 -67q0 -44 19 -73.5t61 -29.5z" />
    <glyph glyph-name="uni1CA9" unicode="&#x1ca9;" horiz-adv-x="628" 
d="M59 0v508q0 65 29 113.5t82 75.5t126 27q104 0 164.5 -44t60.5 -117q0 -32 -11 -59.5t-42 -51.5v-3q54 -20 85 -73t31 -140q0 -69 -10 -128.5t-26 -107.5h-181q11 31 20 92t9 131q0 57 -18.5 89.5t-56.5 32.5q-77 0 -77 -108v-237h-185zM237 424h5q8 10 19 21t23 19
q26 19 40.5 38t14.5 41q0 20 -12 33.5t-35 13.5q-24 0 -36.5 -15.5t-12.5 -43.5v-42q0 -26 -6 -65z" />
    <glyph glyph-name="uni1CAA" unicode="&#x1caa;" horiz-adv-x="712" 
d="M370 -10q-94 0 -167.5 36.5t-115.5 122t-42 229.5q0 95 16 174.5t50 161.5h184q-22 -63 -34.5 -114.5t-18 -104t-5.5 -117.5q0 -89 15.5 -140t45 -72.5t73.5 -21.5q56 0 84.5 25t28.5 68q0 40 -26 62.5t-71 22.5h-27l1 149h51q27 0 43 9.5t16 27.5t-12 31.5t-28 27.5
q-15 14 -30 32.5t-24 46t-6 68.5h185q1 -23 14 -39.5t29 -31.5q21 -20 41 -47t20 -76q0 -44 -30.5 -77.5t-74.5 -41.5v-2q29 -7 56 -28.5t44.5 -57.5t17.5 -89q0 -76 -39.5 -128t-108 -79t-155.5 -27z" />
    <glyph glyph-name="uni1CAB" unicode="&#x1cab;" horiz-adv-x="627" 
d="M314 -10q-127 0 -198 71t-71 200q0 131 54 202.5t144 71.5q51 0 85.5 -20t57.5 -57h5q-3 30 -5.5 63t-2.5 59v134h186v-456q0 -127 -66 -197.5t-189 -70.5zM314 140q43 0 61 32t18 79v22q0 25 -6 48t-23.5 38t-53.5 15t-56 -29.5t-20 -86.5q0 -52 17 -85t63 -33z" />
    <glyph glyph-name="uni1CAC" unicode="&#x1cac;" horiz-adv-x="625" 
d="M312 -10q-122 0 -187.5 68.5t-65.5 188.5v301q0 57 24.5 96.5t65 59.5t87.5 20q56 0 94 -16.5t55 -50.5h4q14 34 47 50.5t70 16.5q23 0 52.5 -4.5t56.5 -17.5l-40 -132q-24 9 -47 9q-20 0 -32.5 -9.5t-12.5 -31.5v-19h-177v36q0 37 -31 37q-15 0 -23 -9.5t-8 -24.5v-59
q0 -16 -1.5 -34.5t-5.5 -43.5h5q23 29 56.5 44t82.5 15q91 0 146 -61.5t55 -174.5q0 -116 -71.5 -185t-198.5 -69zM316 140q42 0 61 29.5t19 73.5q0 41 -20.5 67t-55.5 26q-34 0 -52 -13.5t-24.5 -33t-6.5 -37.5v-17q0 -38 19 -66.5t60 -28.5z" />
    <glyph glyph-name="uni1CAD" unicode="&#x1cad;" horiz-adv-x="641" 
d="M338 -10q-74 0 -131 23t-89 67.5t-32 108.5q0 20 3 39h180q-1 -5 -1 -9.5v-8.5q0 -34 18 -55t52 -21q37 0 53 24.5t16 59.5q0 39 -14 67t-32 59h-4q-29 -34 -67 -45t-78 -11q-48 0 -87 20.5t-62.5 56.5t-23.5 83q0 44 21 80t60 57.5t95 21.5h83v107h184v-107h86v-140h-75
v-2q7 -26 23.5 -50.5t35 -52.5t32 -63.5t13.5 -85.5q0 -66 -31.5 -116t-89.5 -78.5t-138 -28.5zM252 419q23 0 38 10t15 28v18h-53q-20 0 -34 -6.5t-14 -21.5q0 -14 13.5 -21t34.5 -7z" />
    <glyph glyph-name="uni1CAE" unicode="&#x1cae;" horiz-adv-x="628" 
d="M313 -10q-123 0 -188.5 70.5t-65.5 197.5v456h185v-134q0 -29 -2 -62t-6 -60h5q24 37 58.5 57t85.5 20q89 0 143.5 -71.5t54.5 -202.5q0 -129 -71 -200t-199 -71zM317 140q45 0 62 33t17 85q0 57 -20.5 86.5t-56.5 29.5q-34 0 -52 -15t-24 -38t-6 -48v-22q0 -47 19 -79
t61 -32z" />
    <glyph glyph-name="uni1CAF" unicode="&#x1caf;" horiz-adv-x="599" 
d="M299 -10q-80 0 -138.5 27.5t-90 74.5t-31.5 105q0 36 12 72h181q-3 -15 -4 -27.5t-1 -24.5q0 -33 17.5 -58t54.5 -25q41 0 56.5 20.5t15.5 47.5q0 31 -21.5 53.5t-55.5 47.5q-36 26 -63.5 73t-27.5 102v29l-153 22v139l153 -23v69h185v-102l160 -24v-138l-160 24v-6
q0 -23 22 -45.5t65 -56.5q33 -27 59 -65.5t26 -100.5q0 -59 -30.5 -106.5t-88.5 -75.5t-142 -28z" />
    <glyph glyph-name="uni1CB0" unicode="&#x1cb0;" horiz-adv-x="594" 
d="M291 -10q-83 0 -139.5 23.5t-85.5 61.5t-29 80q0 21 4 40h177v-7v-6q0 -17 15.5 -33t57.5 -16q35 0 52 10.5t17 27.5q0 16 -14 28t-52 12h-37v136h48q21 0 33.5 5t12.5 20q0 14 -12.5 20t-33.5 6h-48v136h41q37 0 37 18q0 12 -11 17.5t-37 14.5q-22 8 -44 22.5t-36 40
t-14 67.5h185q3 -21 20.5 -32.5t45.5 -24.5q33 -14 57 -38.5t24 -62.5q0 -37 -23 -56.5t-69 -28.5v-3q45 -3 75 -28.5t30 -67.5q0 -45 -29 -66.5t-76 -29.5v-3q48 -10 82 -42t34 -83q0 -53 -33 -88t-91 -52.5t-134 -17.5z" />
    <glyph glyph-name="uni1CB1" unicode="&#x1cb1;" horiz-adv-x="720" 
d="M404 -10q-106 0 -187 36.5t-126.5 120t-45.5 224.5q0 95 16.5 177t54.5 166h181q-23 -62 -36.5 -115.5t-19.5 -108t-6 -120.5q0 -86 21 -137t59 -74t89 -23q42 0 62.5 11t20.5 28q0 16 -15.5 26t-48.5 10h-40v135h50q22 0 33.5 5.5t11.5 21.5q0 15 -12 20.5t-33 5.5h-50
v135h36q16 0 29 4.5t13 19.5q0 12 -10 22.5t-22 21.5q-18 16 -33.5 43.5t-11.5 68.5h186q1 -19 14 -37t23 -27q18 -18 31 -38t13 -50q0 -40 -21 -61t-67 -30v-3q43 -3 72 -29t29 -67q0 -42 -24.5 -64.5t-73.5 -31.5v-3q47 -7 78 -35.5t31 -84.5q0 -46 -34 -83t-95.5 -58.5
t-141.5 -21.5z" />
    <glyph glyph-name="uni1CB2" unicode="&#x1cb2;" horiz-adv-x="626" 
d="M77 0l1 153q21 0 43.5 3t55.5 11v3q-71 54 -101.5 127.5t-30.5 146.5q0 87 32.5 150t93 96.5t142.5 33.5t142 -33.5t93 -96.5t33 -150q0 -73 -30.5 -146t-100.5 -128v-3q32 -8 54 -11t44 -3l1 -153q-69 1 -128 16t-108 38q-49 -23 -108 -38t-128 -16zM313 236
q35 37 55 88t20 120q0 126 -75 126t-75 -126q0 -69 20 -120t55 -88z" />
    <glyph glyph-name="uni1CB3" unicode="&#x1cb3;" horiz-adv-x="610" 
d="M305 -10q-84 0 -143.5 27.5t-91 74.5t-31.5 105q0 36 12 72h181q-3 -15 -4 -27.5t-1 -24.5q0 -33 18 -58t60 -25t59.5 25.5t17.5 65.5q0 52 -25 76.5t-80 24.5h-84v122l121 119h-248v147h481v-120l-156 -148q49 -9 89.5 -35.5t65.5 -73t25 -112.5q0 -69 -31.5 -122
t-91 -83t-143.5 -30z" />
    <glyph glyph-name="uni1CB4" unicode="&#x1cb4;" horiz-adv-x="590" 
d="M293 -10q-83 0 -139.5 23.5t-85.5 61.5t-29 80q0 21 4 40h177v-12q0 -18 15.5 -34t57.5 -16q35 0 52 10.5t17 27.5q0 16 -14 28t-52 12h-30v136h43q20 0 31.5 4t11.5 16t-19.5 19t-49.5 14t-63 18.5t-62 30.5t-47.5 48.5t-18.5 71.5q0 68 59.5 111.5t168.5 43.5
q51 0 100 -11.5t89 -37.5l-58 -119q-28 12 -60 20t-71 8q-48 0 -48 -17q0 -10 15 -16t58 -16q32 -8 66 -18.5t63.5 -27.5t47.5 -44t18 -67q0 -43 -29 -68.5t-76 -33.5v-3q48 -10 82 -41t34 -83q0 -53 -33 -88t-91 -53t-134 -18z" />
    <glyph glyph-name="uni1CB5" unicode="&#x1cb5;" horiz-adv-x="643" 
d="M298 -10q-122 0 -187.5 44.5t-65.5 124.5q0 82 63.5 126t169.5 44h84v60h-84q-108 0 -170.5 42t-62.5 122q0 82 68 126.5t182 44.5q73 0 129.5 -20t89 -58.5t32.5 -94.5v-29h87v-133h-87v-60h87v-134h-87v-21q0 -90 -67 -137t-181 -47zM295 522h67v23q0 22 -19.5 33.5
t-46.5 11.5q-62 0 -62 -37q0 -20 19 -25.5t42 -5.5zM297 125q29 0 47 12t18 31v27h-60q-25 0 -46 -5.5t-21 -30.5q0 -20 18.5 -27t43.5 -7z" />
    <glyph glyph-name="uni1CB6" unicode="&#x1cb6;" horiz-adv-x="858" 
d="M518 724v-88q102 0 167.5 -36.5t97 -97t31.5 -133.5q0 -75 -30.5 -136t-96 -97t-169.5 -36v-110h-178v110q-106 0 -171 35t-94.5 96t-29.5 139q0 52 15 99.5t49.5 85t91.5 59.5t139 22v88h178zM340 492q-67 0 -91 -34.5t-24 -87.5q0 -60 23 -93t92 -33v248zM518 492v-248
q68 0 92 34t24 92q0 52 -26 87t-90 35z" />
    <glyph glyph-name="uni1CB7" unicode="&#x1cb7;" horiz-adv-x="604" 
d="M304 -10q-123 0 -194 55t-71 154q0 66 29 109.5t75.5 73t99.5 53.5q69 32 97 55t28 50q0 19 -14.5 31t-44.5 12q-32 0 -46.5 -14.5t-14.5 -32.5q0 -12 2 -21h-185q-4 16 -4 38q0 48 29 86.5t83.5 61.5t131.5 23q79 0 134.5 -25t85 -68.5t29.5 -99.5q0 -57 -24 -99
t-69 -75t-107 -63q-58 -27 -91 -47.5t-33 -53.5q0 -30 21 -45t52 -15q38 0 56 18.5t18 49.5q0 15 -3 31h185q5 -26 5 -48q0 -93 -69.5 -143.5t-190.5 -50.5z" />
    <glyph glyph-name="uni1CB8" unicode="&#x1cb8;" horiz-adv-x="622" 
d="M317 -10q81 0 139.5 27.5t89.5 74.5t31 105q0 36 -12 72h-181q3 -15 4.5 -27.5t1.5 -24.5q0 -33 -17.5 -58t-55.5 -25q-43 0 -58.5 26.5t-15.5 69.5v59q0 26 -1 50.5t-5 55.5h4q21 -27 55 -47t85 -20q56 0 100.5 26.5t70 76.5t25.5 122q0 50 -8.5 89.5t-21.5 71.5h-184
q12 -38 17.5 -72.5t5.5 -74.5q0 -42 -17.5 -66t-50.5 -24q-35 0 -55 29t-20 89v119h-184v-483q0 -113 67.5 -177t190.5 -64z" />
    <glyph glyph-name="uni1CB9" unicode="&#x1cb9;" horiz-adv-x="612" 
d="M306 723q81 0 141 -33t93 -90.5t33 -131.5q0 -105 -63 -169t-179 -77q-43 -6 -58 -19.5t-15 -35.5q0 -18 13 -30t38 -12q24 0 37.5 12t13.5 32q0 8 -2 20h173q5 -23 5 -44q0 -43 -27.5 -78.5t-78.5 -56t-122 -20.5q-113 0 -171 45.5t-58 112.5q0 32 18 64t63 52v4
q-56 26 -88.5 74.5t-32.5 125.5q0 73 30.5 130.5t90 91t146.5 33.5zM305 571q-36 0 -55 -28t-19 -75q0 -44 19 -71.5t55 -27.5q35 0 55.5 27t20.5 73t-20 74t-56 28z" />
    <glyph glyph-name="uni1CBA" unicode="&#x1cba;" horiz-adv-x="513" 
d="M104 -15v166l71 28v4q-54 23 -92 86.5t-38 155.5q0 91 33.5 158t95 104t142.5 37q49 0 98 -13t89 -39l-57 -143q-37 21 -62 28.5t-48 7.5q-47 0 -72.5 -40.5t-25.5 -114.5q0 -73 26.5 -112t77.5 -39q33 0 65 11t74 33v-169z" />
    <glyph glyph-name="uni1CBD" unicode="&#x1cbd;" horiz-adv-x="604" 
d="M300 -10q-122 0 -191.5 50.5t-69.5 143.5q0 22 6 48h184q-3 -16 -3 -31q0 -31 18 -49.5t57 -18.5q31 0 51.5 15t20.5 45q0 31 -33 51.5t-90 48.5q-63 30 -108 62t-69 74t-24 102q0 56 29 99.5t85 68.5t135 25q77 0 131.5 -23t83 -61.5t28.5 -86.5q0 -22 -4 -38h-185
q2 9 2 21q0 18 -14 32.5t-47 14.5q-29 0 -43.5 -12t-14.5 -31q0 -27 28.5 -50.5t97.5 -55.5q52 -25 98.5 -54t75.5 -70.5t29 -104.5q0 -103 -70.5 -159t-193.5 -56z" />
    <glyph glyph-name="uni1CBE" unicode="&#x1cbe;" horiz-adv-x="626" 
d="M77 714q69 -1 128 -16t108 -38q49 23 108 38t128 16l-1 -153q-22 0 -44 -3t-54 -11v-3q70 -55 100.5 -128t30.5 -146q0 -87 -33 -150t-93 -96.5t-142 -33.5t-142.5 33.5t-93 96.5t-32.5 150q0 73 30.5 146.5t101.5 127.5v3q-33 8 -55.5 11t-43.5 3zM313 479
q-35 -38 -55 -89t-20 -120q0 -126 75 -126t75 126q0 69 -20 120t-55 89z" />
    <glyph glyph-name="uni1CBF" unicode="&#x1cbf;" horiz-adv-x="654" 
d="M327 -10q-142 0 -210 93t-68 274q0 367 278 367q142 0 210 -93t68 -274q0 -367 -278 -367zM327 144q47 0 66 50.5t19 162.5q0 115 -19.5 164t-65.5 49q-48 0 -66.5 -50.5t-18.5 -162.5q0 -115 19 -164t66 -49z" />
    <glyph glyph-name="uni2010" unicode="&#x2010;" horiz-adv-x="321" 
d="M24 192v152h273v-152h-273z" />
    <glyph glyph-name="uni20BE" unicode="&#x20be;" horiz-adv-x="741" 
d="M86 0v128l87 10v4q-61 41 -91.5 105t-30.5 144q0 117 60 200t174 108v71h71v-62h18h16v62h71v-70q120 -25 177 -117t57 -232h-184q0 79 -11.5 126.5t-38.5 70.5v-197h-71v221h-16h-18v-221h-71v196q-27 -21 -38.5 -64t-11.5 -111q0 -106 48 -164t124 -58h250v-150h-571z
" />
    <glyph glyph-name="uni2D00" unicode="&#x2d00;" horiz-adv-x="693" 
d="M341 0q-63 0 -108 18.5t-69 61.5t-24 117v150q0 37 -17 51.5t-47 14.5h-66v140h169q44 0 74.5 -16t46.5 -55h8q24 39 61.5 60t91.5 21q80 0 129 -50t49 -153v-117h-180v61q0 55 -13.5 83t-46.5 28q-47 0 -63 -37.5t-16 -101.5v-65q0 -36 17.5 -51.5t52.5 -15.5h222v-144
h-271z" />
    <glyph glyph-name="uni2D01" unicode="&#x2d01;" horiz-adv-x="651" 
d="M328 -250q-70 0 -123 8.5t-113 27.5v149q60 -21 110.5 -31t113.5 -10q77 0 110.5 17.5t33.5 52.5q0 23 -5.5 40t-14.5 31t-16 30t-10 31h-6q-24 -53 -70.5 -79.5t-101.5 -26.5q-77 0 -127 50t-50 152v361h180v-308q0 -56 14 -81.5t45 -25.5q46 0 62.5 39t16.5 120v256
h181v-341q0 -42 11.5 -70.5t27.5 -53.5q17 -26 29.5 -56.5t12.5 -77.5q0 -107 -82.5 -155.5t-228.5 -48.5z" />
    <glyph glyph-name="uni2D02" unicode="&#x2d02;" horiz-adv-x="658" 
d="M330 -250q-70 0 -123 8.5t-112 27.5v149q59 -21 110 -31t114 -10q77 0 110 18t33 58q0 26 -12.5 48.5t-29.5 46.5q-16 21 -28.5 53t-12.5 77v109q0 55 -13 83t-47 28q-46 0 -62 -41t-16 -128v-246h-181v553h138l23 -71h8q23 39 61 60t91 21q81 0 130 -50t49 -153v-144
q0 -42 11 -69.5t27 -51.5q19 -27 33 -58.5t14 -82.5q0 -107 -84 -155.5t-231 -48.5z" />
    <glyph glyph-name="uni2D03" unicode="&#x2d03;" horiz-adv-x="587" 
d="M291 -10q-77 0 -134 30.5t-88.5 88t-31.5 137.5q0 103 42.5 166t122.5 94q-13 18 -21 43t-8 54v18h-122v139h473v-139h-178v-16q0 -21 15.5 -40.5t40.5 -39.5q51 -41 83.5 -79t48 -85t15.5 -114q0 -125 -71 -191t-187 -66zM293 129q33 0 52 28.5t19 96.5q0 56 -15.5 83.5
t-35.5 46.5q-8 7 -15.5 14t-10.5 10q-32 -19 -48.5 -54t-16.5 -100q0 -68 18.5 -96.5t52.5 -28.5z" />
    <glyph glyph-name="uni2D04" unicode="&#x2d04;" 
d="M381 563q81 0 130 -50t49 -153v-600h-181v544q0 55 -13 83t-47 28q-46 0 -62 -41t-16 -128v-246h-181v553h138l23 -71h8q23 39 61 60t91 21z" />
    <glyph glyph-name="uni2D05" unicode="&#x2d05;" horiz-adv-x="923" 
d="M686 563q87 0 132.5 -49t45.5 -154v-360h-180v303q0 60 -15 86t-44 26q-42 0 -57.5 -39t-15.5 -116v-500h-180v543q0 59 -14 85.5t-43 26.5q-43 0 -58.5 -42.5t-15.5 -128.5v-244h-181v553h138l24 -68h7q19 35 58 56.5t96 21.5q56 0 92 -20.5t56 -55.5h8q23 36 60.5 56
t86.5 20z" />
    <glyph glyph-name="uni2D06" unicode="&#x2d06;" horiz-adv-x="676" 
d="M456 563q81 0 132 -74t51 -211q0 -134 -64 -211t-185 -77q-119 0 -184.5 75.5t-65.5 214.5v272q0 37 -17 51.5t-47 14.5h-66v142h155q57 0 90.5 -20t48.5 -51t15 -64v-37q0 -24 -2 -51t-5 -55h7q21 37 54 59t83 22zM390 129q40 0 53 40.5t13 108.5q0 139 -66 139
q-37 0 -54 -29.5t-17 -94.5v-23q0 -67 16 -104t55 -37z" />
    <glyph glyph-name="uni2D07" unicode="&#x2d07;" horiz-adv-x="921" 
d="M237 -10q-79 0 -128.5 50t-49.5 153v360h137l25 -68h6q20 35 59 56.5t95 21.5q57 0 92.5 -20.5t55.5 -55.5h8q24 36 61.5 56t86.5 20q87 0 132.5 -49t45.5 -154v-360h-181v303q0 60 -15 86t-45 26q-41 0 -56.5 -39t-15.5 -116v-260h-136l-23 69h-9q-24 -41 -61 -60
t-84 -19zM296 138q46 0 60 40t14 103v22q0 59 -14 85.5t-43 26.5q-41 0 -57.5 -35.5t-16.5 -107.5v-23q0 -54 13 -82.5t44 -28.5z" />
    <glyph glyph-name="uni2D08" unicode="&#x2d08;" horiz-adv-x="450" 
d="M211 0v331q0 41 -16 62t-58 21h-127v139h145q90 0 142 -24t73.5 -72t21.5 -121v-336h-181z" />
    <glyph glyph-name="uni2D09" unicode="&#x2d09;" horiz-adv-x="612" 
d="M375 -240v205q0 24 1.5 51t4.5 55h-6q-22 -37 -55 -59t-83 -22q-81 0 -129.5 75t-48.5 213v482h179v-172q0 -24 -2 -51t-5 -55h7q21 37 54 59t83 22q81 0 130 -75t49 -211v-517h-179zM303 136q37 0 54.5 29.5t17.5 94.5v18q0 139 -66 139q-37 0 -54 -29.5t-17 -94.5v-15
q0 -142 65 -142z" />
    <glyph glyph-name="uni2D0A" unicode="&#x2d0a;" horiz-adv-x="923" 
d="M551 -10q-79 0 -129 50t-50 153v110q0 59 -14 85.5t-44 26.5q-43 0 -58 -42.5t-15 -128.5v-244h-181v553h138l24 -68h7q19 35 58 56.5t96 21.5q56 0 92 -20.5t56 -55.5h8q23 36 60.5 56t86.5 20q87 0 132.5 -49t45.5 -154v-360h-137l-22 69h-10q-23 -41 -60 -60t-84 -19z
M610 138q45 0 59.5 40t14.5 103v22q0 60 -15 86t-45 26q-41 0 -56.5 -38t-15.5 -106v-22q0 -54 13.5 -82.5t44.5 -28.5z" />
    <glyph glyph-name="uni2D0B" unicode="&#x2d0b;" horiz-adv-x="596" 
d="M289 -10q-121 0 -186.5 76t-65.5 213q0 127 61.5 200.5t169.5 73.5h88v17q0 33 -12 43.5t-43 10.5h-213v136h225q118 0 171 -42.5t53 -142.5v-307q0 -132 -65 -205t-183 -73zM289 125q34 0 51 33.5t17 110.5v145h-61q-41 0 -58.5 -33t-17.5 -110q0 -82 19.5 -114
t49.5 -32z" />
    <glyph glyph-name="uni2D0C" unicode="&#x2d0c;" horiz-adv-x="617" 
d="M59 0v561q0 65 21 109.5t73 67t142 22.5h237v-140h-233q-39 0 -49.5 -18t-10.5 -43v-13q0 -16 -2 -35t-5 -33h7q24 41 58 59.5t81 18.5q78 0 129 -48.5t51 -154.5v-353h-181v297q0 111 -57 111q-48 0 -64.5 -41.5t-16.5 -126.5v-240h-180z" />
    <glyph glyph-name="uni2D0D" unicode="&#x2d0d;" horiz-adv-x="923" 
d="M236 -10q-87 0 -132 49t-45 154v360h180v-303q0 -60 14.5 -86t43.5 -26q42 0 58 39t16 116v260h180v-303q0 -59 14 -85.5t42 -26.5q44 0 59.5 42.5t15.5 128.5v244h181v-553h-138l-25 68h-6q-20 -35 -59 -56.5t-95 -21.5q-57 0 -92.5 20.5t-55.5 55.5h-8
q-24 -36 -61.5 -56t-86.5 -20z" />
    <glyph glyph-name="uni2D0E" unicode="&#x2d0e;" horiz-adv-x="699" 
d="M458 553h181v-553h-138l-22 69h-10q-24 -41 -63.5 -60t-87.5 -19q-79 0 -128.5 50t-49.5 153v152q0 37 -17 51.5t-47 14.5h-66v142h153q86 0 121.5 -43.5t35.5 -110.5v-150q0 -54 13 -82.5t46 -28.5q49 0 64 42.5t15 119.5v253z" />
    <glyph glyph-name="uni2D0F" unicode="&#x2d0f;" horiz-adv-x="699" 
d="M458 -240v195q0 33 5 61.5t11 52.5h-7q-23 -40 -61.5 -59.5t-87.5 -19.5q-79 0 -128.5 50t-49.5 153v152q0 37 -17 51.5t-47 14.5h-66v142h153q86 0 121.5 -43.5t35.5 -110.5v-150q0 -54 13 -82.5t46 -28.5q49 0 64 42.5t15 119.5v253h181v-793h-181z" />
    <glyph glyph-name="uni2D10" unicode="&#x2d10;" horiz-adv-x="921" 
d="M236 -10q-78 0 -127.5 50t-49.5 153v360h180v-304q0 -54 13 -82.5t46 -28.5q44 0 58 42.5t14 119.5v460h180v-119q0 -52 -3 -91t-7 -65h9q24 41 58.5 59.5t83.5 18.5q48 0 86.5 -22t61.5 -67t23 -114v-360h-181v305q0 110 -58 110q-40 0 -56.5 -42.5t-16.5 -125.5v-247
h-137l-22 69h-10q-24 -41 -62.5 -60t-82.5 -19z" />
    <glyph glyph-name="uni2D11" unicode="&#x2d11;" 
d="M237 -10q-79 0 -128.5 50t-49.5 153v567h180v-511q0 -54 13 -82.5t44 -28.5q51 0 66 42.5t15 119.5v253h181v-553h-138l-22 69h-10q-24 -41 -63.5 -60t-87.5 -19z" />
    <glyph glyph-name="uni2D12" unicode="&#x2d12;" horiz-adv-x="598" 
d="M373 563q85 0 136.5 -75t51.5 -213q0 -137 -50.5 -211t-133.5 -74q-52 0 -84 22t-52 58h-6q3 -18 4.5 -37.5t1.5 -33.5v-19q0 -85 108 -85q55 0 97.5 10.5t90.5 31.5v-151q-43 -19 -89.5 -27.5t-107.5 -8.5q-144 0 -212 66t-68 191v546h156l14 -68h5q23 37 55 57.5
t83 20.5zM308 418q-44 0 -60.5 -34.5t-16.5 -102.5v-25q0 -62 17 -91.5t58 -29.5q36 0 54 32.5t18 104.5q0 146 -70 146z" />
    <glyph glyph-name="uni2D13" unicode="&#x2d13;" horiz-adv-x="923" 
d="M682 -240v194q0 24 3.5 52t12.5 63h-7q-19 -36 -57 -57.5t-94 -21.5q-57 0 -92.5 20.5t-55.5 55.5h-8q-24 -36 -61.5 -56t-86.5 -20q-87 0 -132 49t-45 154v360h180v-303q0 -60 15 -86t45 -26q41 0 56.5 39t15.5 116v260h180v-303q0 -59 14 -85.5t43 -26.5
q43 0 58.5 42.5t15.5 128.5v451h181v-1000h-181z" />
    <glyph glyph-name="uni2D14" unicode="&#x2d14;" horiz-adv-x="875" 
d="M347 -240v178q0 35 2 70t6 61h-4q-20 -36 -49.5 -57.5t-77.5 -21.5q-84 0 -135.5 74t-51.5 212t51 212.5t134 74.5q50 0 77.5 -20.5t47.5 -53.5h8l34 64h96l35 -64h7q20 33 47.5 53.5t78.5 20.5q83 0 133.5 -74.5t50.5 -212.5t-51.5 -212t-135.5 -74q-48 0 -77.5 21.5
t-48.5 57.5h-5q4 -26 6 -61t2 -70v-178h-180zM290 139q36 0 51.5 33t15.5 99v21q0 65 -16.5 95.5t-49.5 30.5t-52.5 -34t-19.5 -107q0 -70 19.5 -104t51.5 -34zM585 139q31 0 50.5 34t19.5 104q0 73 -19.5 107t-51.5 34q-34 0 -50.5 -30.5t-16.5 -95.5v-21q0 -66 16 -99
t52 -33z" />
    <glyph glyph-name="uni2D15" unicode="&#x2d15;" horiz-adv-x="507" 
d="M164 -240v653h-154v140h154v207h180v-207h153v-140h-153v-653h-180z" />
    <glyph glyph-name="uni2D16" unicode="&#x2d16;" 
d="M381 563q81 0 130 -50t49 -153v-360h-181v304q0 55 -13 83t-47 28q-46 0 -62 -41t-16 -128v-246h-181v553h138l23 -71h8q23 39 61 60t91 21z" />
    <glyph glyph-name="uni2D17" unicode="&#x2d17;" 
d="M377 -240v195q0 33 5 61.5t11 52.5h-7q-23 -40 -61.5 -59.5t-87.5 -19.5q-79 0 -128.5 50t-49.5 153v360h180v-304q0 -54 13 -82.5t46 -28.5q49 0 64 42.5t15 119.5v253h181v-793h-181z" />
    <glyph glyph-name="uni2D18" unicode="&#x2d18;" 
d="M292 -250q-60 0 -109 8.5t-98 26.5v148q47 -19 92.5 -29t97.5 -10q108 0 108 91v15q0 16 1.5 32.5t5.5 34.5h-5q-23 -39 -61 -58t-87 -19q-79 0 -128.5 50t-49.5 153v360h180v-304q0 -54 13 -82.5t46 -28.5q49 0 64 42.5t15 119.5v253h181v-556q0 -128 -68 -187.5
t-198 -59.5z" />
    <glyph glyph-name="uni2D19" unicode="&#x2d19;" 
d="M60 -240v1000h181v-119q0 -52 -3 -91t-7 -65h9q23 41 57.5 59.5t82.5 18.5q78 0 129 -50t51 -153v-360h-181v304q0 111 -58 111q-47 0 -63.5 -42.5t-16.5 -125.5v-487h-181z" />
    <glyph glyph-name="uni2D1A" unicode="&#x2d1a;" 
d="M323 -250q-132 0 -197.5 59t-65.5 187v557h138l23 -71h8q23 39 61 60t91 21q81 0 130 -50t49 -153v-360h-181v304q0 55 -13 83t-47 28q-46 0 -62 -41t-16 -128v-251q0 -101 104 -101q58 0 99 9.5t85 27.5v-148q-46 -17 -96.5 -25t-109.5 -8z" />
    <glyph glyph-name="uni2D1B" unicode="&#x2d1b;" horiz-adv-x="896" 
d="M222 -10q-83 0 -134 74.5t-51 212.5t51.5 212t135.5 74q48 0 77.5 -21.5t49.5 -57.5h4q-4 26 -6 61t-2 70v145h181v-119q0 -52 -3 -91t-6 -64h7q23 35 53.5 56t77.5 21q79 0 129.5 -50t50.5 -153v-360h-181v304q0 111 -57 111q-40 0 -55.5 -42.5t-15.5 -125.5v-247h-139
l-34 64h-8q-20 -33 -47.5 -53.5t-77.5 -20.5zM291 135q33 0 49 30.5t17 95.5v21q0 66 -15.5 99.5t-51.5 33.5q-32 0 -51.5 -34.5t-19.5 -104.5q0 -73 19.5 -107t52.5 -34z" />
    <glyph glyph-name="uni2D1C" unicode="&#x2d1c;" horiz-adv-x="923" 
d="M60 -240v793h138l24 -68h7q19 35 58 56.5t96 21.5q56 0 92 -20.5t56 -55.5h8q23 36 60.5 56t86.5 20q87 0 132.5 -49t45.5 -154v-360h-180v303q0 60 -15 86t-45 26q-41 0 -56.5 -39t-15.5 -116v-260h-180v303q0 59 -14 85.5t-44 26.5q-43 0 -58 -42.5t-15 -128.5v-484
h-181z" />
    <glyph glyph-name="uni2D1D" unicode="&#x2d1d;" horiz-adv-x="613" 
d="M272 -250q-116 0 -211 35v148q46 -19 90.5 -29t101.5 -10q69 0 97.5 18.5t28.5 43.5t-21 39.5t-81 14.5h-217v543h138l23 -71h8q23 39 61 60t91 21q81 0 130 -50t49 -153v-117h-181v61q0 55 -13 83t-47 28q-46 0 -62 -37.5t-16 -101.5v-122h84q114 0 174.5 -52t60.5 -139
q0 -102 -71 -157.5t-217 -55.5z" />
    <glyph glyph-name="uni2D1E" unicode="&#x2d1e;" 
d="M322 -250q-131 0 -196.5 59.5t-65.5 184.5v559h181v-260q0 -76 15 -115.5t64 -39.5q33 0 46 28.5t13 82.5v304h180v-360q0 -102 -50.5 -152.5t-129.5 -50.5q-49 0 -86 19t-60 58h-5q4 -19 5.5 -37t1.5 -45q0 -91 111 -91q54 0 97.5 10t89.5 29v-148q-95 -35 -211 -35z
" />
    <glyph glyph-name="uni2D1F" unicode="&#x2d1f;" horiz-adv-x="590" 
d="M-48 -241l256 450l-139 202h-59v142h539v-122l-137 -215l150 -216h-195l-50 90l-171 -331h-194zM310 318l57 99h-120z" />
    <glyph glyph-name="uni2D20" unicode="&#x2d20;" horiz-adv-x="919" 
d="M546 -10q-77 0 -127 50t-50 153v111q0 55 -13 83t-45 28q-41 0 -55.5 -41t-14.5 -128v-246h-181v553h138l16 -87h6q22 46 59 71.5t95 25.5q79 0 127.5 -50t48.5 -153v-111q0 -54 13 -82.5t46 -28.5q41 0 55 42.5t14 119.5v253h180v-553h-137l-22 69h-10q-24 -41 -59 -60
t-84 -19z" />
    <glyph glyph-name="uni2D21" unicode="&#x2d21;" horiz-adv-x="559" 
d="M60 -240v1000h181v-271h2q24 34 54 54t81 20q58 0 89 -35t31 -97q0 -19 6.5 -28.5t23.5 -9.5h21v-140h-82q-54 0 -85.5 17t-45.5 44.5t-14 59.5q0 41 -28 41t-40.5 -34.5t-12.5 -97.5v-523h-181z" />
    <glyph glyph-name="uni2D22" unicode="&#x2d22;" horiz-adv-x="589" 
d="M289 -10q-119 0 -185.5 57.5t-66.5 148.5q0 33 9 69h171q-3 -23 -3 -42q0 -43 18 -68.5t56 -25.5q42 0 61.5 36t19.5 106t-24.5 106.5t-90.5 36.5h-210v139h225q283 0 283 -279q0 -134 -64 -209t-199 -75z" />
    <glyph glyph-name="uni2D23" unicode="&#x2d23;" 
d="M377 -240v195q0 33 5 61.5t11 52.5h-7q-23 -40 -61.5 -59.5t-87.5 -19.5q-79 0 -128.5 50t-49.5 153v360h180v-304q0 -54 13 -82.5t46 -28.5q49 0 64 42.5t15 119.5v460h181v-1000h-181z" />
    <glyph glyph-name="uni2D24" unicode="&#x2d24;" horiz-adv-x="623" 
d="M223 -240v237q-86 21 -125 82t-39 168v306h180v-309q0 -59 20 -84t55 -25q34 0 52 25t18 84v309h181v-308q0 -105 -42 -166t-121 -82v-237h-179z" />
    <glyph glyph-name="uni2D25" unicode="&#x2d25;" horiz-adv-x="896" 
d="M657 553q79 0 129.5 -50t50.5 -153v-350h-181v294q0 111 -57 111q-40 0 -55.5 -42.5t-15.5 -125.5v-237h-139l-34 64h-8q-20 -33 -47.5 -53.5t-77.5 -20.5q-83 0 -134 74.5t-51 212.5t51.5 212t135.5 74q48 0 77.5 -21.5t49.5 -57.5h4q-7 53 -7 91v21q0 72 47.5 118.5
t153.5 46.5h267v-140h-241q-28 0 -37.5 -14.5t-9.5 -33.5v-17q0 -15 -2 -35t-7 -45h7q23 35 53.5 56t77.5 21zM357 261v21q0 66 -15.5 99.5t-51.5 33.5q-33 0 -52 -34.5t-19 -104.5q0 -73 19.5 -107t52.5 -34t49.5 30.5t16.5 95.5z" />
    <glyph glyph-name="uni2D27" unicode="&#x2d27;" horiz-adv-x="555" 
d="M279 -250q-113 0 -180 58t-67 166q0 74 27.5 123.5t70 84.5t89.5 64q45 28 69.5 47.5t34.5 37t10 37.5q0 25 -13 40t-36 15q-27 0 -39 -17t-12 -41q0 -17 4 -34h-178q-6 23 -6 51q0 50 27 91t78.5 64.5t124.5 23.5q111 0 170 -54t59 -142q0 -53 -18 -93t-56 -75.5
t-98 -75.5q-40 -26 -67.5 -48t-42 -47t-14.5 -61q0 -38 19 -57t44 -19q31 0 47.5 22t16.5 60q0 30 -9 60h177q6 -19 9 -37.5t3 -38.5q0 -103 -65.5 -154t-178.5 -51z" />
    <glyph glyph-name="uni2D2D" unicode="&#x2d2d;" horiz-adv-x="467" 
d="M445 0h-424v105l209 306h-197v142h402v-114l-200 -297h210v-142z" />
    <glyph glyph-name="macroncomb" horiz-adv-x="600" 
d="M94 0v714h411v-714h-411zM145 51h309v612h-309v-612z" />
    <glyph glyph-name="uni1C90_uni0308.ccmp" horiz-adv-x="605" 
d="M299 -10q-118 0 -189 65t-71 180q0 28 4 55t14 62h-87l100 38q-7 -20 -13 -38h186q-9 -32 -11.5 -58t-2.5 -47q0 -49 16.5 -77t53.5 -28q39 0 54.5 27.5t15.5 76.5q0 57 -22.5 102t-52.5 89q-27 38 -52.5 78.5t-38.5 88.5t-3 110h188q-8 -54 17.5 -101t59.5 -98
q24 -35 45.5 -74t35.5 -86t14 -106q0 -120 -69 -189.5t-192 -69.5zM254 390l67 -38h-78q4 19 11 38zM108 840q0 38 22 57.5t56 19.5t57 -19.5t23 -57.5t-23 -57t-57 -19t-56 19t-22 57zM327 840q0 38 22 57.5t57 19.5q34 0 57 -19.5t23 -57.5t-23 -57t-57 -19q-35 0 -57 19
t-22 57z" />
    <glyph glyph-name="uni1C90_acutecomb.ccmp" horiz-adv-x="605" 
d="M299 -10q-118 0 -189 65t-71 180q0 28 4 55t14 62h-87l100 38q-7 -20 -13 -38h186q-9 -32 -11.5 -58t-2.5 -47q0 -49 16.5 -77t53.5 -28q39 0 54.5 27.5t15.5 76.5q0 57 -22.5 102t-52.5 89q-27 38 -52.5 78.5t-38.5 88.5t-3 110h188q-8 -54 17.5 -101t59.5 -98
q24 -35 45.5 -74t35.5 -86t14 -106q0 -120 -69 -189.5t-192 -69.5zM254 390l67 -38h-78q4 19 11 38zM486 932v-10q-20 -18 -54 -46t-69.5 -56.5t-62.5 -47.5h-124v14q25 32 57 72.5t54 73.5h199z" />
    <glyph glyph-name="uni1C90_uni0304.ccmp" horiz-adv-x="605" 
d="M299 -10q-118 0 -189 65t-71 180q0 28 4 55t14 62h-87l100 38q-7 -20 -13 -38h186q-9 -32 -11.5 -58t-2.5 -47q0 -49 16.5 -77t53.5 -28q39 0 54.5 27.5t15.5 76.5q0 57 -22.5 102t-52.5 89q-27 38 -52.5 78.5t-38.5 88.5t-3 110h188q-8 -54 17.5 -101t59.5 -98
q24 -35 45.5 -74t35.5 -86t14 -106q0 -120 -69 -189.5t-192 -69.5zM254 390l67 -38h-78q4 19 11 38zM466 894v-115h-333v115h333z" />
    <glyph glyph-name="uni1C90_uni0304_uni0308.ccmp" horiz-adv-x="605" 
d="M299 -10q-118 0 -189 65t-71 180q0 28 4 55t14 62h-87l100 38q-7 -20 -13 -38h186q-9 -32 -11.5 -58t-2.5 -47q0 -49 16.5 -77t53.5 -28q39 0 54.5 27.5t15.5 76.5q0 57 -22.5 102t-52.5 89q-27 38 -52.5 78.5t-38.5 88.5t-3 110h188q-8 -54 17.5 -101t59.5 -98
q24 -35 45.5 -74t35.5 -86t14 -106q0 -120 -69 -189.5t-192 -69.5zM254 390l67 -38h-78q4 19 11 38zM466 894v-115h-333v115h333zM111 1015q0 38 22 57.5t56 19.5t57 -19.5t23 -57.5t-23 -57t-57 -19t-56 19t-22 57zM330 1015q0 38 22 57.5t57 19.5q34 0 57 -19.5t23 -57.5
t-23 -57t-57 -19q-35 0 -57 19t-22 57z" />
    <glyph glyph-name="uni1C94_acutecomb.ccmp" horiz-adv-x="613" 
d="M298 -10q-82 0 -140 30t-88.5 81t-30.5 114q0 46 14 93h184q-4 -20 -6 -39.5t-2 -35.5q0 -38 17 -64.5t54 -26.5q40 0 54.5 23.5t14.5 66.5v271q0 36 -16.5 52.5t-42.5 16.5q-29 0 -45 -17.5t-16 -49.5q0 -24 6 -61h-185q-5 21 -8 39.5t-3 44.5q0 63 33 106.5t89 66.5
t126 23q76 0 131.5 -26.5t86 -75t30.5 -114.5v-279q0 -112 -66.5 -175.5t-190.5 -63.5zM495 927v-10q-20 -18 -54 -46t-69.5 -56.5t-62.5 -47.5h-124v14q25 32 57 72.5t54 73.5h199z" />
    <glyph glyph-name="uni1C94_uni0304.ccmp" horiz-adv-x="613" 
d="M298 -10q-82 0 -140 30t-88.5 81t-30.5 114q0 46 14 93h184q-4 -20 -6 -39.5t-2 -35.5q0 -38 17 -64.5t54 -26.5q40 0 54.5 23.5t14.5 66.5v271q0 36 -16.5 52.5t-42.5 16.5q-29 0 -45 -17.5t-16 -49.5q0 -24 6 -61h-185q-5 21 -8 39.5t-3 44.5q0 63 33 106.5t89 66.5
t126 23q76 0 131.5 -26.5t86 -75t30.5 -114.5v-279q0 -112 -66.5 -175.5t-190.5 -63.5zM473 894v-115h-333v115h333z" />
    <glyph glyph-name="uni1C98_acutecomb.ccmp" horiz-adv-x="634" 
d="M96 0q-15 49 -25.5 102t-16 121t-5.5 162q0 174 72.5 256.5t195.5 82.5t195.5 -82.5t72.5 -256.5q0 -94 -5.5 -162t-16 -121t-25.5 -102h-188q15 64 28.5 157.5t13.5 230.5q0 104 -19 143t-56 39t-56 -39t-19 -143q0 -137 13.5 -230.5t28.5 -157.5h-188zM506 927v-10
q-20 -18 -54 -46t-69.5 -56.5t-62.5 -47.5h-124v14q25 32 57 72.5t54 73.5h199z" />
    <glyph glyph-name="uni1C98_uni0304.ccmp" horiz-adv-x="634" 
d="M96 0q-15 49 -25.5 102t-16 121t-5.5 162q0 174 72.5 256.5t195.5 82.5t195.5 -82.5t72.5 -256.5q0 -94 -5.5 -162t-16 -121t-25.5 -102h-188q15 64 28.5 157.5t13.5 230.5q0 104 -19 143t-56 39t-56 -39t-19 -143q0 -137 13.5 -230.5t28.5 -157.5h-188zM483 894v-115
h-333v115h333z" />
    <glyph glyph-name="uni1C9D_uni0308.ccmp" horiz-adv-x="909" 
d="M115 0q-19 55 -34 111t-23.5 123.5t-8.5 157.5q0 112 30.5 185.5t85.5 110t126 36.5q48 0 93.5 -21t68.5 -73h3q25 52 71 73t97 21q69 0 122.5 -36.5t84 -110t30.5 -185.5q0 -90 -9 -158t-24.5 -123.5t-34.5 -110.5h-188q22 73 42 170.5t20 225.5q0 99 -14.5 136.5
t-45.5 37.5q-37 0 -46.5 -32.5t-9.5 -80.5v-248h-192v248q0 47 -10 80t-46 33q-32 0 -46.5 -38t-14.5 -136q0 -132 20.5 -227.5t41.5 -168.5h-189zM266 840q0 38 22 57.5t56 19.5t57 -19.5t23 -57.5t-23 -57t-57 -19t-56 19t-22 57zM485 840q0 38 22 57.5t57 19.5
q34 0 57 -19.5t23 -57.5t-23 -57t-57 -19q-35 0 -57 19t-22 57z" />
    <glyph glyph-name="uni1C9D_acutecomb.ccmp" horiz-adv-x="909" 
d="M115 0q-19 55 -34 111t-23.5 123.5t-8.5 157.5q0 112 30.5 185.5t85.5 110t126 36.5q48 0 93.5 -21t68.5 -73h3q25 52 71 73t97 21q69 0 122.5 -36.5t84 -110t30.5 -185.5q0 -90 -9 -158t-24.5 -123.5t-34.5 -110.5h-188q22 73 42 170.5t20 225.5q0 99 -14.5 136.5
t-45.5 37.5q-37 0 -46.5 -32.5t-9.5 -80.5v-248h-192v248q0 47 -10 80t-46 33q-32 0 -46.5 -38t-14.5 -136q0 -132 20.5 -227.5t41.5 -168.5h-189zM640 932v-10q-20 -18 -54 -46t-69.5 -56.5t-62.5 -47.5h-124v14q25 32 57 72.5t54 73.5h199z" />
    <glyph glyph-name="uni1C9D_uni0304.ccmp" horiz-adv-x="909" 
d="M115 0q-19 55 -34 111t-23.5 123.5t-8.5 157.5q0 112 30.5 185.5t85.5 110t126 36.5q48 0 93.5 -21t68.5 -73h3q25 52 71 73t97 21q69 0 122.5 -36.5t84 -110t30.5 -185.5q0 -90 -9 -158t-24.5 -123.5t-34.5 -110.5h-188q22 73 42 170.5t20 225.5q0 99 -14.5 136.5
t-45.5 37.5q-37 0 -46.5 -32.5t-9.5 -80.5v-248h-192v248q0 47 -10 80t-46 33q-32 0 -46.5 -38t-14.5 -136q0 -132 20.5 -227.5t41.5 -168.5h-189zM620 894v-115h-333v115h333z" />
    <glyph glyph-name="uni1C9D_uni0304_uni0308.ccmp" horiz-adv-x="909" 
d="M115 0q-19 55 -34 111t-23.5 123.5t-8.5 157.5q0 112 30.5 185.5t85.5 110t126 36.5q48 0 93.5 -21t68.5 -73h3q25 52 71 73t97 21q69 0 122.5 -36.5t84 -110t30.5 -185.5q0 -90 -9 -158t-24.5 -123.5t-34.5 -110.5h-188q22 73 42 170.5t20 225.5q0 99 -14.5 136.5
t-45.5 37.5q-37 0 -46.5 -32.5t-9.5 -80.5v-248h-192v248q0 47 -10 80t-46 33q-32 0 -46.5 -38t-14.5 -136q0 -132 20.5 -227.5t41.5 -168.5h-189zM620 894v-115h-333v115h333zM265 1015q0 38 22 57.5t56 19.5t57 -19.5t23 -57.5t-23 -57t-57 -19t-56 19t-22 57zM484 1015
q0 38 22 57.5t57 19.5q34 0 57 -19.5t23 -57.5t-23 -57t-57 -19q-35 0 -57 19t-22 57z" />
    <glyph glyph-name="uni1CA3_uni0308.ccmp" horiz-adv-x="635" 
d="M320 -10q-82 0 -140 30t-88.5 81t-30.5 114q0 46 13 93h185q-4 -20 -6 -39.5t-2 -35.5q0 -38 16.5 -64.5t54.5 -26.5q39 0 54 23.5t15 66.5v285q0 54 -44 54q-20 0 -33 -12t-13 -41v-97h-178v95q0 48 -49 48h-50v155h57q98 0 133 -79h4q19 40 60.5 62t96.5 22
q98 0 149.5 -54.5t51.5 -140.5v-301q0 -112 -66.5 -175t-189.5 -63zM122 840q0 38 22 57.5t56 19.5t57 -19.5t23 -57.5t-23 -57t-57 -19t-56 19t-22 57zM341 840q0 38 22 57.5t57 19.5q34 0 57 -19.5t23 -57.5t-23 -57t-57 -19q-35 0 -57 19t-22 57z" />
    <glyph glyph-name="uni1CA3_acutecomb.ccmp" horiz-adv-x="635" 
d="M320 -10q-82 0 -140 30t-88.5 81t-30.5 114q0 46 13 93h185q-4 -20 -6 -39.5t-2 -35.5q0 -38 16.5 -64.5t54.5 -26.5q39 0 54 23.5t15 66.5v285q0 54 -44 54q-20 0 -33 -12t-13 -41v-97h-178v95q0 48 -49 48h-50v155h57q98 0 133 -79h4q19 40 60.5 62t96.5 22
q98 0 149.5 -54.5t51.5 -140.5v-301q0 -112 -66.5 -175t-189.5 -63zM500 932v-10q-20 -18 -54 -46t-69.5 -56.5t-62.5 -47.5h-124v14q25 32 57 72.5t54 73.5h199z" />
    <glyph glyph-name="uni1CA3_uni0302.ccmp" horiz-adv-x="635" 
d="M320 -10q-82 0 -140 30t-88.5 81t-30.5 114q0 46 13 93h185q-4 -20 -6 -39.5t-2 -35.5q0 -38 16.5 -64.5t54.5 -26.5q39 0 54 23.5t15 66.5v285q0 54 -44 54q-20 0 -33 -12t-13 -41v-97h-178v95q0 48 -49 48h-50v155h57q98 0 133 -79h4q19 40 60.5 62t96.5 22
q98 0 149.5 -54.5t51.5 -140.5v-301q0 -112 -66.5 -175t-189.5 -63zM397 927q21 -34 53.5 -74.5t60.5 -71.5v-14h-115q-22 14 -43 32t-45 41q-24 -24 -44 -41.5t-41 -31.5h-117v14q17 18 39 44t42.5 53.5t33.5 48.5h176z" />
    <glyph glyph-name="uni1CA3_uni0304.ccmp" horiz-adv-x="635" 
d="M320 -10q-82 0 -140 30t-88.5 81t-30.5 114q0 46 13 93h185q-4 -20 -6 -39.5t-2 -35.5q0 -38 16.5 -64.5t54.5 -26.5q39 0 54 23.5t15 66.5v285q0 54 -44 54q-20 0 -33 -12t-13 -41v-97h-178v95q0 48 -49 48h-50v155h57q98 0 133 -79h4q19 40 60.5 62t96.5 22
q98 0 149.5 -54.5t51.5 -140.5v-301q0 -112 -66.5 -175t-189.5 -63zM475 894v-115h-333v115h333z" />
    <glyph glyph-name="uni1CA3_uni0304_uni0308.ccmp" horiz-adv-x="635" 
d="M320 -10q-82 0 -140 30t-88.5 81t-30.5 114q0 46 13 93h185q-4 -20 -6 -39.5t-2 -35.5q0 -38 16.5 -64.5t54.5 -26.5q39 0 54 23.5t15 66.5v285q0 54 -44 54q-20 0 -33 -12t-13 -41v-97h-178v95q0 48 -49 48h-50v155h57q98 0 133 -79h4q19 40 60.5 62t96.5 22
q98 0 149.5 -54.5t51.5 -140.5v-301q0 -112 -66.5 -175t-189.5 -63zM475 894v-115h-333v115h333zM120 1015q0 38 22 57.5t56 19.5t57 -19.5t23 -57.5t-23 -57t-57 -19t-56 19t-22 57zM339 1015q0 38 22 57.5t57 19.5q34 0 57 -19.5t23 -57.5t-23 -57t-57 -19q-35 0 -57 19
t-22 57z" />
    <glyph glyph-name="uni1CB7_acutecomb.ccmp" horiz-adv-x="604" 
d="M304 -10q-123 0 -194 55t-71 154q0 66 29 109.5t75.5 73t99.5 53.5q69 32 97 55t28 50q0 19 -14.5 31t-44.5 12q-32 0 -46.5 -14.5t-14.5 -32.5q0 -12 2 -21h-185q-4 16 -4 38q0 48 29 86.5t83.5 61.5t131.5 23q79 0 134.5 -25t85 -68.5t29.5 -99.5q0 -57 -24 -99
t-69 -75t-107 -63q-58 -27 -91 -47.5t-33 -53.5q0 -30 21 -45t52 -15q38 0 56 18.5t18 49.5q0 15 -3 31h185q5 -26 5 -48q0 -93 -69.5 -143.5t-190.5 -50.5zM495 932v-10q-20 -18 -54 -46t-69.5 -56.5t-62.5 -47.5h-124v14q25 32 57 72.5t54 73.5h199z" />
    <glyph glyph-name="uni1CB7_uni0304.ccmp" horiz-adv-x="604" 
d="M304 -10q-123 0 -194 55t-71 154q0 66 29 109.5t75.5 73t99.5 53.5q69 32 97 55t28 50q0 19 -14.5 31t-44.5 12q-32 0 -46.5 -14.5t-14.5 -32.5q0 -12 2 -21h-185q-4 16 -4 38q0 48 29 86.5t83.5 61.5t131.5 23q79 0 134.5 -25t85 -68.5t29.5 -99.5q0 -57 -24 -99
t-69 -75t-107 -63q-58 -27 -91 -47.5t-33 -53.5q0 -30 21 -45t52 -15q38 0 56 18.5t18 49.5q0 15 -3 31h185q5 -26 5 -48q0 -93 -69.5 -143.5t-190.5 -50.5zM471 894v-115h-333v115h333z" />
    <glyph glyph-name="uni10D0_uni0308.ccmp" horiz-adv-x="567" 
d="M280 -10q-71 0 -126 25t-86.5 71.5t-31.5 111.5q0 32 4.5 54t13.5 47h171q-5 -19 -8 -38.5t-3 -40.5q0 -40 16 -65.5t48 -25.5q31 0 48 23t17 59q0 40 -18.5 67.5t-43.5 55.5q-22 25 -44.5 54t-37.5 69t-15 96h180q1 -44 24 -78t52 -67q22 -24 41.5 -51.5t32 -63
t12.5 -82.5q0 -67 -31 -116.5t-86.5 -77t-128.5 -27.5zM96 674q0 38 22 57.5t56 19.5t57 -19.5t23 -57.5t-23 -57t-57 -19t-56 19t-22 57zM315 674q0 38 22 57.5t57 19.5q34 0 57 -19.5t23 -57.5t-23 -57t-57 -19q-35 0 -57 19t-22 57z" />
    <glyph glyph-name="uni10D0_acutecomb.ccmp" horiz-adv-x="567" 
d="M280 -10q-71 0 -126 25t-86.5 71.5t-31.5 111.5q0 32 4.5 54t13.5 47h171q-5 -19 -8 -38.5t-3 -40.5q0 -40 16 -65.5t48 -25.5q31 0 48 23t17 59q0 40 -18.5 67.5t-43.5 55.5q-22 25 -44.5 54t-37.5 69t-15 96h180q1 -44 24 -78t52 -67q22 -24 41.5 -51.5t32 -63
t12.5 -82.5q0 -67 -31 -116.5t-86.5 -77t-128.5 -27.5zM474 766v-10q-20 -18 -54 -46t-69.5 -56.5t-62.5 -47.5h-124v14q25 32 57 72.5t54 73.5h199z" />
    <glyph glyph-name="uni10D0_uni0304.ccmp" horiz-adv-x="567" 
d="M280 -10q-71 0 -126 25t-86.5 71.5t-31.5 111.5q0 32 4.5 54t13.5 47h171q-5 -19 -8 -38.5t-3 -40.5q0 -40 16 -65.5t48 -25.5q31 0 48 23t17 59q0 40 -18.5 67.5t-43.5 55.5q-22 25 -44.5 54t-37.5 69t-15 96h180q1 -44 24 -78t52 -67q22 -24 41.5 -51.5t32 -63
t12.5 -82.5q0 -67 -31 -116.5t-86.5 -77t-128.5 -27.5zM451 733v-115h-333v115h333z" />
    <glyph glyph-name="uni10D0_uni0304_uni0308.ccmp" horiz-adv-x="567" 
d="M280 -10q-71 0 -126 25t-86.5 71.5t-31.5 111.5q0 32 4.5 54t13.5 47h171q-5 -19 -8 -38.5t-3 -40.5q0 -40 16 -65.5t48 -25.5q31 0 48 23t17 59q0 40 -18.5 67.5t-43.5 55.5q-22 25 -44.5 54t-37.5 69t-15 96h180q1 -44 24 -78t52 -67q22 -24 41.5 -51.5t32 -63
t12.5 -82.5q0 -67 -31 -116.5t-86.5 -77t-128.5 -27.5zM451 733v-115h-333v115h333zM96 854q0 38 22 57.5t56 19.5t57 -19.5t23 -57.5t-23 -57t-57 -19t-56 19t-22 57zM315 854q0 38 22 57.5t57 19.5q34 0 57 -19.5t23 -57.5t-23 -57t-57 -19q-35 0 -57 19t-22 57z" />
    <glyph glyph-name="uni10D4_acutecomb.ccmp" horiz-adv-x="581" 
d="M282 -250q-77 0 -132.5 32t-84.5 87t-29 124q0 29 4.5 55t16.5 54h170q-5 -23 -8.5 -47.5t-3.5 -47.5q0 -49 15.5 -83.5t51.5 -34.5q38 0 52 30.5t14 93.5v321q0 90 -56 90q-30 0 -44 -22.5t-14 -61.5q0 -18 2 -38.5t8 -47.5h-172q-9 25 -13.5 47t-4.5 54q0 68 31 114.5
t84.5 70t120.5 23.5q111 0 174.5 -61.5t63.5 -169.5v-323q0 -122 -63.5 -190.5t-182.5 -68.5zM479 766v-10q-20 -18 -54 -46t-69.5 -56.5t-62.5 -47.5h-124v14q25 32 57 72.5t54 73.5h199z" />
    <glyph glyph-name="uni10D4_uni0304.ccmp" horiz-adv-x="581" 
d="M282 -250q-77 0 -132.5 32t-84.5 87t-29 124q0 29 4.5 55t16.5 54h170q-5 -23 -8.5 -47.5t-3.5 -47.5q0 -49 15.5 -83.5t51.5 -34.5q38 0 52 30.5t14 93.5v321q0 90 -56 90q-30 0 -44 -22.5t-14 -61.5q0 -18 2 -38.5t8 -47.5h-172q-9 25 -13.5 47t-4.5 54q0 68 31 114.5
t84.5 70t120.5 23.5q111 0 174.5 -61.5t63.5 -169.5v-323q0 -122 -63.5 -190.5t-182.5 -68.5zM457 733v-115h-333v115h333z" />
    <glyph glyph-name="uni10D8_acutecomb.ccmp" horiz-adv-x="586" 
d="M93 0q-27 70 -39.5 133.5t-12.5 144.5q0 85 28 149.5t84 100t140 35.5q82 0 138.5 -35.5t85 -100t28.5 -149.5q0 -80 -12.5 -144t-39.5 -134h-171q20 61 31 132.5t11 140.5q0 79 -18.5 115t-52.5 36q-35 0 -53 -35t-18 -118q0 -69 11 -139.5t30 -131.5h-170zM482 766v-10
q-20 -18 -54 -46t-69.5 -56.5t-62.5 -47.5h-124v14q25 32 57 72.5t54 73.5h199z" />
    <glyph glyph-name="uni10D8_uni0304.ccmp" horiz-adv-x="586" 
d="M93 0q-27 70 -39.5 133.5t-12.5 144.5q0 85 28 149.5t84 100t140 35.5q82 0 138.5 -35.5t85 -100t28.5 -149.5q0 -80 -12.5 -144t-39.5 -134h-171q20 61 31 132.5t11 140.5q0 79 -18.5 115t-52.5 36q-35 0 -53 -35t-18 -118q0 -69 11 -139.5t30 -131.5h-170zM459 733
v-115h-333v115h333z" />
    <glyph glyph-name="uni10DD_uni0308.ccmp" horiz-adv-x="835" 
d="M104 0q-22 51 -36 95.5t-20.5 89.5t-6.5 99q0 82 25 145t73 98.5t116 35.5q62 0 102 -30.5t58 -84.5h5q18 55 58 85t101 30q68 0 116.5 -35t74 -98t25.5 -146q0 -80 -15 -144.5t-49 -139.5h-174q29 63 42.5 136t13.5 143q0 62 -11.5 103.5t-46.5 41.5q-29 0 -40 -30.5
t-11 -92.5v-139h-173v139q0 64 -11.5 93.5t-39.5 29.5q-30 0 -44 -33.5t-14 -114.5q0 -73 14 -143.5t42 -132.5h-174zM229 674q0 38 22 57.5t56 19.5t57 -19.5t23 -57.5t-23 -57t-57 -19t-56 19t-22 57zM448 674q0 38 22 57.5t57 19.5q34 0 57 -19.5t23 -57.5t-23 -57
t-57 -19q-35 0 -57 19t-22 57z" />
    <glyph glyph-name="uni10DD_acutecomb.ccmp" horiz-adv-x="835" 
d="M104 0q-22 51 -36 95.5t-20.5 89.5t-6.5 99q0 82 25 145t73 98.5t116 35.5q62 0 102 -30.5t58 -84.5h5q18 55 58 85t101 30q68 0 116.5 -35t74 -98t25.5 -146q0 -80 -15 -144.5t-49 -139.5h-174q29 63 42.5 136t13.5 143q0 62 -11.5 103.5t-46.5 41.5q-29 0 -40 -30.5
t-11 -92.5v-139h-173v139q0 64 -11.5 93.5t-39.5 29.5q-30 0 -44 -33.5t-14 -114.5q0 -73 14 -143.5t42 -132.5h-174zM606 766v-10q-20 -18 -54 -46t-69.5 -56.5t-62.5 -47.5h-124v14q25 32 57 72.5t54 73.5h199z" />
    <glyph glyph-name="uni10DD_uni0304.ccmp" horiz-adv-x="835" 
d="M104 0q-22 51 -36 95.5t-20.5 89.5t-6.5 99q0 82 25 145t73 98.5t116 35.5q62 0 102 -30.5t58 -84.5h5q18 55 58 85t101 30q68 0 116.5 -35t74 -98t25.5 -146q0 -80 -15 -144.5t-49 -139.5h-174q29 63 42.5 136t13.5 143q0 62 -11.5 103.5t-46.5 41.5q-29 0 -40 -30.5
t-11 -92.5v-139h-173v139q0 64 -11.5 93.5t-39.5 29.5q-30 0 -44 -33.5t-14 -114.5q0 -73 14 -143.5t42 -132.5h-174zM584 733v-115h-333v115h333z" />
    <glyph glyph-name="uni10DD_uni0304_uni0308.ccmp" horiz-adv-x="835" 
d="M104 0q-22 51 -36 95.5t-20.5 89.5t-6.5 99q0 82 25 145t73 98.5t116 35.5q62 0 102 -30.5t58 -84.5h5q18 55 58 85t101 30q68 0 116.5 -35t74 -98t25.5 -146q0 -80 -15 -144.5t-49 -139.5h-174q29 63 42.5 136t13.5 143q0 62 -11.5 103.5t-46.5 41.5q-29 0 -40 -30.5
t-11 -92.5v-139h-173v139q0 64 -11.5 93.5t-39.5 29.5q-30 0 -44 -33.5t-14 -114.5q0 -73 14 -143.5t42 -132.5h-174zM584 733v-115h-333v115h333zM229 854q0 38 22 57.5t56 19.5t57 -19.5t23 -57.5t-23 -57t-57 -19t-56 19t-22 57zM448 854q0 38 22 57.5t57 19.5
q34 0 57 -19.5t23 -57.5t-23 -57t-57 -19q-35 0 -57 19t-22 57z" />
    <glyph glyph-name="uni10E3_uni0308.ccmp" 
d="M308 -250q-84 0 -142 32t-87.5 87t-29.5 124q0 29 5 55t16 54h170q-5 -23 -8 -47.5t-3 -47.5q0 -49 16.5 -83.5t62.5 -34.5q44 0 60.5 32.5t16.5 87.5v336q0 37 -11 53.5t-30 16.5q-18 0 -30 -16.5t-12 -52.5v-114h-173v116q0 63 -50 63h-57v146h68q95 0 128 -86h4
q18 43 57 67.5t91 24.5q95 0 145 -57.5t50 -149.5v-352q0 -119 -65 -186.5t-192 -67.5zM106 674q0 38 22 57.5t56 19.5t57 -19.5t23 -57.5t-23 -57t-57 -19t-56 19t-22 57zM325 674q0 38 22 57.5t57 19.5q34 0 57 -19.5t23 -57.5t-23 -57t-57 -19q-35 0 -57 19t-22 57z" />
    <glyph glyph-name="uni10E3_acutecomb.ccmp" 
d="M308 -250q-84 0 -142 32t-87.5 87t-29.5 124q0 29 5 55t16 54h170q-5 -23 -8 -47.5t-3 -47.5q0 -49 16.5 -83.5t62.5 -34.5q44 0 60.5 32.5t16.5 87.5v336q0 37 -11 53.5t-30 16.5q-18 0 -30 -16.5t-12 -52.5v-114h-173v116q0 63 -50 63h-57v146h68q95 0 128 -86h4
q18 43 57 67.5t91 24.5q95 0 145 -57.5t50 -149.5v-352q0 -119 -65 -186.5t-192 -67.5zM484 766v-10q-20 -18 -54 -46t-69.5 -56.5t-62.5 -47.5h-124v14q25 32 57 72.5t54 73.5h199z" />
    <glyph glyph-name="uni10E3_uni0302.ccmp" 
d="M308 -250q-84 0 -142 32t-87.5 87t-29.5 124q0 29 5 55t16 54h170q-5 -23 -8 -47.5t-3 -47.5q0 -49 16.5 -83.5t62.5 -34.5q44 0 60.5 32.5t16.5 87.5v336q0 37 -11 53.5t-30 16.5q-18 0 -30 -16.5t-12 -52.5v-114h-173v116q0 63 -50 63h-57v146h68q95 0 128 -86h4
q18 43 57 67.5t91 24.5q95 0 145 -57.5t50 -149.5v-352q0 -119 -65 -186.5t-192 -67.5zM383 766q21 -34 53.5 -74.5t60.5 -71.5v-14h-115q-22 14 -43 32t-45 41q-24 -24 -44 -41.5t-41 -31.5h-117v14q17 18 39 44t42.5 53.5t33.5 48.5h176z" />
    <glyph glyph-name="uni10E3_uni0304.ccmp" 
d="M308 -250q-84 0 -142 32t-87.5 87t-29.5 124q0 29 5 55t16 54h170q-5 -23 -8 -47.5t-3 -47.5q0 -49 16.5 -83.5t62.5 -34.5q44 0 60.5 32.5t16.5 87.5v336q0 37 -11 53.5t-30 16.5q-18 0 -30 -16.5t-12 -52.5v-114h-173v116q0 63 -50 63h-57v146h68q95 0 128 -86h4
q18 43 57 67.5t91 24.5q95 0 145 -57.5t50 -149.5v-352q0 -119 -65 -186.5t-192 -67.5zM461 733v-115h-333v115h333z" />
    <glyph glyph-name="uni10E3_uni0304_uni0308.ccmp" 
d="M308 -250q-84 0 -142 32t-87.5 87t-29.5 124q0 29 5 55t16 54h170q-5 -23 -8 -47.5t-3 -47.5q0 -49 16.5 -83.5t62.5 -34.5q44 0 60.5 32.5t16.5 87.5v336q0 37 -11 53.5t-30 16.5q-18 0 -30 -16.5t-12 -52.5v-114h-173v116q0 63 -50 63h-57v146h68q95 0 128 -86h4
q18 43 57 67.5t91 24.5q95 0 145 -57.5t50 -149.5v-352q0 -119 -65 -186.5t-192 -67.5zM461 733v-115h-333v115h333zM106 854q0 38 22 57.5t56 19.5t57 -19.5t23 -57.5t-23 -57t-57 -19t-56 19t-22 57zM325 854q0 38 22 57.5t57 19.5q34 0 57 -19.5t23 -57.5t-23 -57
t-57 -19q-35 0 -57 19t-22 57z" />
    <glyph glyph-name="uni10F7_acutecomb.ccmp" horiz-adv-x="574" 
d="M289 -250q-118 0 -185.5 58t-67.5 166q0 74 27 124t71 85t95 63q48 27 74 46.5t36 37.5t10 38q0 25 -14 40t-41 15q-32 0 -44.5 -17t-12.5 -41q0 -17 4 -34h-178q-7 23 -7 51q0 50 27.5 91t80.5 64.5t128 23.5q117 0 176.5 -54t59.5 -142q0 -53 -18 -94t-57 -76.5
t-104 -73.5q-43 -25 -72 -47t-43 -47.5t-14 -61.5q0 -38 19.5 -57t48.5 -19q37 0 54 22t17 60q0 30 -9 60h178q5 -19 8 -37.5t3 -38.5q0 -103 -66 -154t-184 -51zM476 766v-10q-20 -18 -54 -46t-69.5 -56.5t-62.5 -47.5h-124v14q25 32 57 72.5t54 73.5h199z" />
    <glyph glyph-name="uni10F7_uni0304.ccmp" horiz-adv-x="574" 
d="M289 -250q-118 0 -185.5 58t-67.5 166q0 74 27 124t71 85t95 63q48 27 74 46.5t36 37.5t10 38q0 25 -14 40t-41 15q-32 0 -44.5 -17t-12.5 -41q0 -17 4 -34h-178q-7 23 -7 51q0 50 27.5 91t80.5 64.5t128 23.5q117 0 176.5 -54t59.5 -142q0 -53 -18 -94t-57 -76.5
t-104 -73.5q-43 -25 -72 -47t-43 -47.5t-14 -61.5q0 -38 19.5 -57t48.5 -19q37 0 54 22t17 60q0 30 -9 60h178q5 -19 8 -37.5t3 -38.5q0 -103 -66 -154t-184 -51zM453 733v-115h-333v115h333z" />
    </font>
</defs>
</svg>
