<?xml version="1.0" standalone="no"?>
<!DOCTYPE svg PUBLIC "-//W3C//DTD SVG 1.1//EN" "http://www.w3.org/Graphics/SVG/1.1/DTD/svg11.dtd" >
<svg xmlns="http://www.w3.org/2000/svg" xmlns:xlink="http://www.w3.org/1999/xlink" version="1.1">
<metadata>
Created by FontForge 20170731 at Thu Sep 26 08:56:23 2019
 By Aleksey,,,
Copyright 2019 Google LLC. All rights reserved.
</metadata>
<defs>
<font id="NotoSansGeorgian-SemiBold" horiz-adv-x="614" >
  <font-face 
    font-family="Noto Sans Georgian SemBd"
    font-weight="600"
    font-stretch="normal"
    units-per-em="1000"
    panose-1="2 11 7 2 4 5 4 2 2 4"
    ascent="800"
    descent="-200"
    bbox="-196 -250 1119 1067"
    underline-thickness="50"
    underline-position="-175"
    unicode-range="U+000D-2D2D"
  />
<missing-glyph horiz-adv-x="364" 
d="M33 0v666h265v-666h-265zM66 33h199v600h-199v-600z" />
    <glyph glyph-name=".notdef" horiz-adv-x="364" 
d="M33 0v666h265v-666h-265zM66 33h199v600h-199v-600z" />
    <glyph glyph-name=".null" horiz-adv-x="0" 
 />
    <glyph glyph-name="nonmarkingreturn" horiz-adv-x="333" 
 />
    <glyph glyph-name="NULL" horiz-adv-x="0" 
 />
    <glyph glyph-name="NULL" horiz-adv-x="0" 
 />
    <glyph glyph-name="CR" unicode="&#xd;" horiz-adv-x="260" 
 />
    <glyph glyph-name="space" unicode=" " horiz-adv-x="260" 
 />
    <glyph glyph-name="hyphen" unicode="-" horiz-adv-x="322" 
d="M34 215v106h254v-106h-254z" />
    <glyph glyph-name="uni00A0" unicode="&#xa0;" horiz-adv-x="260" 
 />
    <glyph glyph-name="acutecomb" unicode="&#x301;" horiz-adv-x="0" 
d="M126 766v-10q-17 -18 -47 -47t-63 -57t-58 -46h-84v13q16 18 36 44t39.5 53.5t32.5 49.5h144z" />
    <glyph glyph-name="uni0302" unicode="&#x302;" horiz-adv-x="0" 
d="M71 766q13 -22 35.5 -49.5t46.5 -53.5t43 -45v-12h-85q-27 16 -56.5 38.5t-55.5 49.5q-27 -27 -55.5 -49t-54.5 -39h-85v12q19 19 42.5 45t46 53.5t35.5 49.5h143z" />
    <glyph glyph-name="uni0304" unicode="&#x304;" horiz-adv-x="0" 
d="M159 707v-91h-318v91h318z" />
    <glyph glyph-name="uni0308" unicode="&#x308;" horiz-adv-x="0" 
d="M-157 672q0 31 17.5 45t42.5 14q24 0 42.5 -14t18.5 -45q0 -30 -18.5 -44.5t-42.5 -14.5q-25 0 -42.5 14.5t-17.5 44.5zM36 672q0 31 17.5 45t43.5 14q24 0 42 -14t18 -45q0 -30 -18 -44.5t-42 -14.5q-26 0 -43.5 14.5t-17.5 44.5z" />
    <glyph glyph-name="uni0589" unicode="&#x589;" horiz-adv-x="279" 
d="M63 476q0 43 22 60.5t54 17.5q31 0 54 -17.5t23 -60.5q0 -41 -23 -59t-54 -18q-32 0 -54 18t-22 59zM63 64q0 42 22 59.5t54 17.5q31 0 54 -17.5t23 -59.5q0 -41 -23 -59t-54 -18q-32 0 -54 18t-22 59z" />
    <glyph glyph-name="uni10A0" unicode="&#x10a0;" horiz-adv-x="635" 
d="M402 -10q-103 0 -180 41t-120 115.5t-43 173.5q0 66 21 122t57.5 98t81.5 67v4h-142v103h511v-108h-130q-84 0 -143 -34t-90 -95t-31 -141q0 -113 58 -175.5t161 -62.5q47 0 90 10t85 25v-110q-82 -33 -186 -33z" />
    <glyph glyph-name="uni10A1" unicode="&#x10a1;" horiz-adv-x="827" 
d="M492 0v205q0 18 1.5 45t4.5 61h-7q-30 -47 -81.5 -72.5t-116.5 -25.5q-112 0 -175.5 70t-63.5 194q0 63 19 126t51 111h137q-33 -41 -53.5 -104t-20.5 -129q0 -81 33.5 -120.5t105.5 -39.5q84 0 125 48.5t41 149.5v195h128v-607h200v-107h-328z" />
    <glyph glyph-name="uni10A2" unicode="&#x10a2;" horiz-adv-x="769" 
d="M440 0v605h-239v-227h-128v336h495v-607h194v-107h-322z" />
    <glyph glyph-name="uni10A3" unicode="&#x10a3;" horiz-adv-x="771" 
d="M385 -10q-154 0 -240 75t-86 209q0 121 69.5 193.5t197.5 85.5v54h-242v107h603v-107h-241v-54q127 -13 196.5 -86t69.5 -194q0 -133 -86 -208t-241 -75zM385 97q95 0 144.5 44.5t49.5 131.5q0 88 -49 133.5t-144 45.5q-94 0 -144 -45.5t-50 -133.5q0 -85 49 -130.5
t144 -45.5z" />
    <glyph glyph-name="uni10A4" unicode="&#x10a4;" horiz-adv-x="661" 
d="M440 0v605h-239v-227h-128v336h495v-714h-128z" />
    <glyph glyph-name="uni10A5" unicode="&#x10a5;" horiz-adv-x="861" 
d="M446 0v606h-246v-226h-127v334h501v-288h246v-252h-116v144h-130v-318h-128z" />
    <glyph glyph-name="uni10A6" unicode="&#x10a6;" horiz-adv-x="790" 
d="M456 -10q-83 0 -144 34.5t-94 97.5t-33 149v336h-186v107h314v-139q0 -24 -1.5 -55t-4.5 -58h7q36 49 78 69.5t102 20.5q76 0 130 -34.5t83 -97.5t29 -148q0 -131 -74 -206.5t-206 -75.5zM457 98q70 0 108.5 44.5t38.5 129.5q0 172 -142 172q-149 0 -149 -178
q0 -81 36 -124.5t108 -43.5z" />
    <glyph glyph-name="uni10A7" unicode="&#x10a7;" horiz-adv-x="930" 
d="M644 426h245v-252h-116v144h-129v-318h-209q-181 0 -278.5 93.5t-97.5 265.5q0 170 97 262.5t273 92.5h215v-288zM516 107v501h-87q-236 0 -236 -251q0 -250 238 -250h85z" />
    <glyph glyph-name="uni10A8" unicode="&#x10a8;" horiz-adv-x="503" 
d="M282 0v606h-283v108h411v-714h-128z" />
    <glyph glyph-name="uni10A9" unicode="&#x10a9;" horiz-adv-x="705" 
d="M501 0v91q0 21 2 46t4 49h-7q-34 -46 -77 -66.5t-104 -20.5q-73 0 -126.5 32t-82.5 91.5t-29 139.5v352h128v-77q0 -18 -2 -41.5t-5 -53.5h8q35 47 77 67t103 20q74 0 127.5 -32.5t82.5 -92t29 -138.5v-366h-128zM352 207q70 0 109.5 39.5t39.5 119.5q0 77 -39 116
t-104 39q-71 0 -110 -39.5t-39 -120.5q0 -76 39 -115t104 -39z" />
    <glyph glyph-name="uni10AA" unicode="&#x10aa;" horiz-adv-x="1005" 
d="M671 -10q-83 0 -144 34.5t-94 97.5t-33 149v334h-199v-227h-128v336h455v-153q0 -14 -2 -40t-4 -59h7q36 49 78 69.5t103 20.5q76 0 130 -35t82.5 -98t28.5 -147q0 -88 -34 -151t-96.5 -97t-149.5 -34zM672 98q71 0 109 44.5t38 129.5q0 172 -142 172q-149 0 -149 -178
q0 -81 36 -124.5t108 -43.5z" />
    <glyph glyph-name="uni10AB" unicode="&#x10ab;" horiz-adv-x="776" 
d="M329 -10q-123 0 -196.5 64.5t-73.5 179.5q0 118 71.5 181t201.5 63h138v129h-358v107h485v-236h138v-104h-138v-128q0 -116 -69 -186t-199 -70zM328 97q73 0 107.5 40.5t34.5 108.5v128h-137q-70 0 -107 -35t-37 -104q0 -68 37 -103t102 -35z" />
    <glyph glyph-name="uni10AC" unicode="&#x10ac;" horiz-adv-x="736" 
d="M93 0v714h527v-108h-399v-119q0 -12 -1.5 -37.5t-4.5 -61.5h5q68 96 199 96q106 0 167.5 -66.5t61.5 -186.5v-231h-128v221q0 75 -34 115t-101 40q-85 0 -124.5 -46.5t-39.5 -142.5v-187h-128z" />
    <glyph glyph-name="uni10AD" unicode="&#x10ad;" horiz-adv-x="899" 
d="M395 -10q-114 0 -188.5 46t-111 129t-36.5 194q0 110 36.5 192t111 127.5t189.5 45.5q113 0 187.5 -45.5t111 -127.5t36.5 -193q0 -77 -18 -141.5t-55 -111.5q17 -12 32 -18.5t33 -6.5q58 0 58 83h111q0 -81 -33 -127t-116 -46q-39 0 -74 16.5t-65 44.5
q-39 -30 -91.5 -45.5t-117.5 -15.5zM395 99q106 0 153.5 69t47.5 190q0 120 -47 189t-153 69q-105 0 -153.5 -69t-48.5 -189q0 -121 48 -190t153 -69z" />
    <glyph glyph-name="uni10AE" unicode="&#x10ae;" horiz-adv-x="846" 
d="M471 -10q-135 0 -210.5 70t-75.5 193v354h-186v107h314v-446q0 -85 38.5 -127t119.5 -42t120 42t39 127v446h128v-461q0 -84 -35.5 -143t-100 -89.5t-151.5 -30.5z" />
    <glyph glyph-name="uni10AF" unicode="&#x10af;" horiz-adv-x="758" 
d="M537 0v184q0 61 7 120h-5q-29 -42 -81.5 -67.5t-117.5 -25.5q-70 0 -123 29t-82.5 80.5t-29.5 119.5q0 58 20 98t50 65v4h-171v107h333v-99q-39 -11 -61 -35t-30.5 -53.5t-8.5 -58.5q0 -150 136 -150q165 0 165 190v206h127v-714h-128z" />
    <glyph glyph-name="uni10B0" unicode="&#x10b0;" horiz-adv-x="955" 
d="M320 -10q-83 0 -142.5 34t-91.5 91t-32 126q0 95 62 178l109 -46q-38 -60 -38 -127q0 -62 34 -104.5t96 -42.5q65 0 99.5 41t34.5 127v447h128v-134q0 -17 -1 -43t-5 -66h6q29 44 66 62.5t87 18.5q59 0 99.5 -29t61.5 -74.5t21 -97.5q0 -37 -11 -73.5t-31 -66.5l-112 35
q24 42 24 89q0 44 -25 77t-74 33t-77.5 -32t-28.5 -91v-67q0 -124 -67.5 -194.5t-191.5 -70.5z" />
    <glyph glyph-name="uni10B1" unicode="&#x10b1;" horiz-adv-x="668" 
d="M348 -10q-124 0 -192 70.5t-68 194.5v459h128v-447q0 -86 34.5 -127t99.5 -41q62 0 96 41.5t34 105.5q0 69 -37 127l109 46q31 -42 46.5 -87t15.5 -91q0 -68 -32 -125t-92 -91.5t-142 -34.5z" />
    <glyph glyph-name="uni10B2" unicode="&#x10b2;" horiz-adv-x="632" 
d="M93 0v714h213q266 0 266 -218q0 -113 -73 -173t-207 -60h-71v-155h320v-108h-448zM221 369h66q82 0 118.5 30.5t36.5 91.5q0 59 -35 88t-109 29h-77v-239z" />
    <glyph glyph-name="uni10B3" unicode="&#x10b3;" horiz-adv-x="789" 
d="M597 -179q-11 0 -24.5 1.5t-28.5 4.5v98q27 -5 47 -5q29 0 45.5 16t16.5 46q0 22 -13.5 40t-35.5 29q-42 -31 -94.5 -46t-114.5 -15q-161 0 -248.5 96t-87.5 273q0 176 87.5 270.5t249.5 94.5q161 0 248 -95.5t87 -270.5q0 -70 -17.5 -132t-52.5 -112q48 -18 79.5 -53.5
t31.5 -90.5q0 -69 -45.5 -109t-129.5 -40zM395 99q201 0 201 259q0 258 -200 258q-202 0 -202 -258q0 -259 201 -259z" />
    <glyph glyph-name="uni10B4" unicode="&#x10b4;" horiz-adv-x="862" 
d="M372 0v168q-93 0 -163.5 33.5t-110 95.5t-39.5 147q0 96 47 158t131 92t194 30q182 0 277 -71.5t95 -208.5q0 -87 -40 -148.5t-110.5 -94.5t-162.5 -33v-168h-118zM372 269v349q-89 -1 -139.5 -47t-50.5 -126q0 -82 50 -129t140 -47zM490 269q90 0 140 47.5t50 128.5
q0 80 -50.5 126t-139.5 47v-349z" />
    <glyph glyph-name="uni10B5" unicode="&#x10b5;" horiz-adv-x="651" 
d="M257 0v370h-208v108h208v236h127v-236h208v-108h-208v-370h-127z" />
    <glyph glyph-name="uni10B6" unicode="&#x10b6;" horiz-adv-x="748" 
d="M88 0v462q0 83 36 141.5t101 89.5t152 31q135 0 209 -70.5t74 -193.5v-460h-128v447q0 85 -38.5 126.5t-120.5 41.5q-157 0 -157 -169v-446h-128z" />
    <glyph glyph-name="uni10B7" unicode="&#x10b7;" horiz-adv-x="713" 
d="M492 0v205q0 18 1.5 45t4.5 61h-7q-30 -47 -81.5 -72.5t-116.5 -25.5q-112 0 -175.5 70t-63.5 194q0 63 19 126t51 111h137q-33 -41 -53.5 -104t-20.5 -129q0 -81 33.5 -120.5t105.5 -39.5q84 0 125 48.5t41 149.5v195h128v-714h-128z" />
    <glyph glyph-name="uni10B8" unicode="&#x10b8;" horiz-adv-x="722" 
d="M362 -10q-76 0 -135.5 26t-94 72t-34.5 107q0 48 23 91l114 -37q-6 -21 -6 -43q0 -50 35 -79.5t97 -29.5q63 0 101.5 40t38.5 112v68q0 40 7 104h-6q-67 -96 -183 -96q-108 0 -169.5 68.5t-61.5 190.5v130h128v-124q0 -80 35.5 -119t98.5 -39q70 0 110.5 47.5t40.5 134.5
v100h128v-462q0 -125 -72.5 -193.5t-194.5 -68.5z" />
    <glyph glyph-name="uni10B9" unicode="&#x10b9;" horiz-adv-x="705" 
d="M91 0v714h128v-257h403v-457h-128v350h-275v-350h-128z" />
    <glyph glyph-name="uni10BA" unicode="&#x10ba;" horiz-adv-x="716" 
d="M365 -10q-145 0 -225.5 97t-80.5 271q0 114 43.5 196t124.5 126t194 44q110 0 206 -43l-45 -104q-80 39 -162 39q-70 0 -121 -32t-79 -90.5t-28 -137.5q0 -122 50.5 -190t140.5 -68q79 0 144 36v161h128v-295h-128v31q-74 -41 -162 -41z" />
    <glyph glyph-name="uni10BB" unicode="&#x10bb;" horiz-adv-x="920" 
d="M318 -10q-79 0 -137 30.5t-90 85.5t-32 130q0 113 69 179t193 66h123v233h128v-233h265v-481h-117v376h-148v-130q0 -123 -67.5 -189.5t-186.5 -66.5zM316 98q128 0 128 144v134h-118q-136 0 -136 -139q0 -65 33.5 -102t92.5 -37z" />
    <glyph glyph-name="uni10BC" unicode="&#x10bc;" horiz-adv-x="620" 
d="M93 0v714h213q266 0 266 -205q0 -107 -72.5 -163.5t-207.5 -56.5h-71v-66h251v-183h-118v77h-133v-117h-128zM221 395h58q84 0 123.5 26.5t39.5 82.5q0 52 -35 78t-109 26h-77v-213z" />
    <glyph glyph-name="uni10BD" unicode="&#x10bd;" horiz-adv-x="589" 
d="M286 -10q-118 0 -179.5 51t-61.5 140q0 28 7 53h126q-7 -21 -7 -46q0 -41 29.5 -66t89.5 -25t90 24t30 68q0 32 -19.5 53.5t-55 39t-81.5 36.5q-91 36 -138 84.5t-47 126.5q0 91 62 143t165 52q108 0 166 -49t58 -137q0 -5 -1 -10.5t-1 -10.5h-126q0 4 1 9.5t1 10.5
q0 36 -25.5 57.5t-73.5 21.5q-47 0 -73 -22.5t-26 -60.5q0 -45 36.5 -70.5t112.5 -56.5q61 -24 103.5 -51.5t65 -66t22.5 -94.5q0 -95 -65.5 -149.5t-184.5 -54.5z" />
    <glyph glyph-name="uni10BE" unicode="&#x10be;" horiz-adv-x="717" 
d="M93 714h128v-330h275v330h128v-437h-403v-170h388v-107h-516v714z" />
    <glyph glyph-name="uni10BF" unicode="&#x10bf;" horiz-adv-x="677" 
d="M35 0l240 364l-160 246h-97v104h583v-95l-170 -259l239 -360h-141l-179 280l-178 -280h-137zM356 443l105 167h-208z" />
    <glyph glyph-name="uni10C0" unicode="&#x10c0;" horiz-adv-x="980" 
d="M660 -10q-124 0 -192 70.5t-68 194.5v350h-199v-227h-128v336h455v-447q0 -86 35 -127t99 -41q62 0 96 41.5t34 105.5q0 69 -37 127l109 46q32 -42 47 -87t15 -91q0 -68 -32 -125t-92 -91.5t-142 -34.5z" />
    <glyph glyph-name="uni10C1" unicode="&#x10c1;" horiz-adv-x="741" 
d="M93 0v714h128v-145q0 -15 -1.5 -42t-4.5 -64h7q62 89 176 89q96 0 151.5 -55t62.5 -156h109v-108h-236v72q0 139 -120 139q-76 0 -110 -44t-34 -142v-258h-128z" />
    <glyph glyph-name="uni10C2" unicode="&#x10c2;" horiz-adv-x="645" 
d="M233 -10q-54 0 -97 7.5t-90 26.5v109q103 -35 184 -35q106 0 165.5 58t59.5 158q0 208 -227 208h-154v192h119v-84h49q170 0 258 -81t88 -235q0 -103 -44.5 -175t-124.5 -110.5t-186 -38.5z" />
    <glyph glyph-name="uni10C3" unicode="&#x10c3;" horiz-adv-x="697" 
d="M476 0v172q0 19 1.5 45.5t4.5 60.5h-7q-30 -47 -82.5 -72.5t-113.5 -25.5q-67 0 -117.5 26.5t-79 76.5t-28.5 120q0 95 62 177l109 -45q-37 -59 -37 -117q0 -63 32.5 -96.5t98.5 -33.5q157 0 157 192v234h128v-714h-128z" />
    <glyph glyph-name="uni10C4" unicode="&#x10c4;" horiz-adv-x="723" 
d="M298 0v236q-107 15 -164.5 83t-57.5 176v219h128v-206q0 -84 38.5 -126t120.5 -42q157 0 157 169v205h127v-221q0 -104 -57.5 -172t-163.5 -85v-236h-128z" />
    <glyph glyph-name="uni10C5" unicode="&#x10c5;" horiz-adv-x="851" 
d="M255 -10q-99 0 -154.5 42.5t-55.5 118.5q0 74 52.5 116t153.5 42h89v218q0 96 59 146.5t173 50.5t174 -45t60 -127q0 -84 -63 -128.5t-184 -44.5h-91v-70h257v-195h-118v96h-139v-22q0 -92 -56 -145t-157 -53zM468 478h85q63 0 91.5 17.5t28.5 55.5q0 35 -24 54.5
t-78 19.5q-103 0 -103 -99v-48zM259 89q81 0 81 92v29h-69q-47 0 -70 -14.5t-23 -46.5q0 -60 81 -60z" />
    <glyph glyph-name="uni10C7" unicode="&#x10c7;" horiz-adv-x="589" 
d="M303 -10q-119 0 -184.5 54.5t-65.5 149.5q0 56 22.5 94.5t65 66t103.5 51.5q76 31 112.5 56.5t36.5 70.5q0 38 -26 60.5t-73 22.5t-72.5 -21.5t-25.5 -57.5q0 -5 0.5 -10.5t1.5 -9.5h-127q0 5 -1 10.5t-1 10.5q0 88 58 137t166 49q103 0 165 -52t62 -143q0 -78 -47 -126
t-138 -85q-46 -19 -81 -36.5t-55 -39t-20 -53.5q0 -44 30 -68t90 -24t89.5 25t29.5 66q0 25 -6 46h125q7 -25 7 -53q0 -89 -61.5 -140t-179.5 -51z" />
    <glyph glyph-name="uni10CD" unicode="&#x10cd;" horiz-adv-x="576" 
d="M29 0v87l355 519h-345v108h498v-87l-354 -519h364v-108h-518z" />
    <glyph glyph-name="uni10D0" unicode="&#x10d0;" horiz-adv-x="570" 
d="M282 -10q-68 0 -122 24t-85 70t-31 114q0 25 4 45.5t11 37.5h120q-4 -16 -6.5 -35.5t-2.5 -40.5q0 -50 29.5 -81.5t82.5 -31.5q52 0 81 31.5t29 81.5q0 48 -23.5 79t-53.5 59q-24 23 -48 49.5t-40 62.5t-16 87h126q0 -42 24.5 -73.5t56.5 -62.5q25 -24 48.5 -51.5
t39 -63.5t15.5 -84q0 -65 -30 -114t-84 -76t-125 -27z" />
    <glyph glyph-name="uni10D1" unicode="&#x10d1;" 
d="M379 544q83 -20 134.5 -89.5t51.5 -182.5q0 -135 -70 -208.5t-190 -73.5q-74 0 -132 33t-91 96t-33 153q0 120 56 191.5t155 85.5q5 8 8 18.5t3 25.5q0 19 -10.5 32.5t-24.5 25.5q-20 15 -38.5 38.5t-18.5 70.5h120q1 -22 13 -38t29 -30q19 -17 35 -37.5t16 -52.5
t-13 -58zM307 92q68 0 98.5 48t30.5 132t-30.5 131t-99.5 47q-67 0 -97.5 -47t-30.5 -131t30.5 -132t98.5 -48z" />
    <glyph glyph-name="uni10D2" unicode="&#x10d2;" horiz-adv-x="604" 
d="M300 -250q-74 0 -132 32.5t-91 93.5t-33 146q0 123 63.5 188.5t168.5 81.5q56 9 80 32t24 60q0 32 -21 53.5t-59 21.5t-58 -20.5t-20 -53.5q0 -7 1 -15t3 -16h-119q-6 24 -6 48q0 67 54.5 108.5t144.5 41.5q61 0 106.5 -20.5t70 -56t24.5 -79.5t-22 -79t-73 -52v-3
q79 -27 116.5 -91.5t37.5 -148.5q0 -128 -69.5 -200t-190.5 -72zM302 -148q68 0 98.5 47t30.5 123t-30.5 122t-99.5 46q-67 0 -97.5 -46t-30.5 -122t30.5 -123t98.5 -47z" />
    <glyph glyph-name="uni10D3" unicode="&#x10d3;" horiz-adv-x="900" 
d="M549 -250q-25 41 -61.5 68.5t-76.5 41.5t-76 14q-41 0 -78 -10.5t-74 -29.5l-39 84q20 9 48 17.5t72 11.5v4q-100 46 -157.5 130t-57.5 203q0 77 24 137.5t71 95.5t115 35q133 0 171 -108h5q21 53 69.5 80.5t107.5 27.5q72 0 125.5 -32t83.5 -93.5t30 -147.5
q0 -87 -31.5 -148.5t-86 -94t-123.5 -32.5q-111 0 -177 72t-66 200v41q0 133 -96 133q-47 0 -71 -45t-24 -120q0 -87 29.5 -146t78.5 -97t109 -63q61 -25 108 -49t82 -55.5t58 -77.5zM608 106q61 0 87.5 47.5t26.5 125.5t-26.5 124.5t-86.5 46.5t-86.5 -46.5t-26.5 -124.5
t26.5 -125.5t85.5 -47.5z" />
    <glyph glyph-name="uni10D4" unicode="&#x10d4;" horiz-adv-x="598" 
d="M288 -250q-75 0 -129.5 30.5t-84.5 84.5t-30 126q0 29 5.5 54t14.5 46h119q-6 -18 -9.5 -43.5t-3.5 -46.5q0 -62 28.5 -105.5t89.5 -43.5q65 0 91.5 44t26.5 117v304q0 64 -25.5 98.5t-78.5 34.5q-48 0 -77 -28.5t-29 -82.5q0 -20 2 -39.5t7 -38.5h-120q-6 17 -10.5 37.5
t-4.5 45.5q0 68 30.5 114.5t83 70t117.5 23.5q106 0 168.5 -61.5t62.5 -171.5v-309q0 -123 -63.5 -191.5t-180.5 -68.5z" />
    <glyph glyph-name="uni10D5" unicode="&#x10d5;" horiz-adv-x="593" 
d="M297 -250q-79 0 -135.5 29t-87 78.5t-30.5 110.5q0 28 5 52t12 42h120q-5 -16 -8 -38.5t-3 -41.5q0 -34 13 -63.5t41.5 -48t72.5 -18.5q65 0 94.5 41t29.5 101t-33 97.5t-98 37.5h-39v101h43q60 0 85 34.5t25 81.5q0 46 -26 75t-77 29q-50 0 -76.5 -26t-26.5 -74
q0 -27 7 -54h-122q-6 16 -8.5 31t-2.5 33q0 57 29.5 100t81.5 67.5t119 24.5q69 0 120.5 -26t79.5 -70t28 -97q0 -73 -38.5 -117t-101.5 -59v-3q42 -7 78.5 -31t59 -64.5t22.5 -97.5q0 -71 -31 -124t-87.5 -83t-134.5 -30z" />
    <glyph glyph-name="uni10D6" unicode="&#x10d6;" horiz-adv-x="636" 
d="M338 -10q-72 0 -127.5 32t-87.5 91.5t-32 141.5q0 52 14.5 97t45.5 76v3q-59 16 -93 59.5t-34 106.5q0 44 21.5 83.5t63.5 64.5t105 25q59 0 101.5 -23t65 -60t22.5 -78q0 -52 -24 -84v-3q3 0 7 -1t7 -2q86 -16 140.5 -81.5t54.5 -174.5q0 -86 -31 -147t-87 -93.5
t-132 -32.5zM214 499q36 0 54 26t18 66q0 36 -17.5 62.5t-55.5 26.5t-55.5 -26.5t-17.5 -62.5t17 -64t57 -28zM340 92q63 0 91 47t28 124q0 75 -28 121t-92 46t-91.5 -46t-27.5 -121q0 -77 28 -124t92 -47z" />
    <glyph glyph-name="uni10D7" unicode="&#x10d7;" horiz-adv-x="900" 
d="M289 -10q-69 0 -123 33t-85.5 96t-31.5 153q0 135 65.5 207.5t173.5 72.5q59 0 108.5 -27.5t70.5 -80.5h5q20 53 62 80.5t110 27.5q66 0 112.5 -34.5t70.5 -94.5t24 -138q0 -84 -15.5 -150.5t-48.5 -134.5h-124q31 68 46 135t15 143q0 80 -24 128t-72 48q-95 0 -95 -141
v-43q0 -134 -66 -207t-178 -73zM291 92q59 0 86 48.5t27 131.5q0 84 -27 131t-87 47q-59 0 -85.5 -47t-26.5 -131q0 -83 26.5 -131.5t86.5 -48.5z" />
    <glyph glyph-name="uni10D8" unicode="&#x10d8;" horiz-adv-x="590" 
d="M107 0q-29 68 -43.5 132t-14.5 143q0 84 27.5 146t82 96.5t135.5 34.5q82 0 137 -34.5t82.5 -96.5t27.5 -146q0 -79 -15 -143t-44 -132h-123q27 68 40.5 134.5t13.5 139.5q0 88 -31.5 132t-87.5 44t-87 -43.5t-31 -133.5q0 -74 13.5 -139.5t41.5 -133.5h-124z" />
    <glyph glyph-name="uni10D9" unicode="&#x10d9;" horiz-adv-x="578" 
d="M283 -250q-74 0 -129 29t-85 78.5t-30 110.5q0 28 5 52t12 42h120q-5 -16 -8 -38.5t-3 -41.5q0 -34 13 -63.5t39 -48t66 -18.5q64 0 93.5 41.5t29.5 103.5q0 68 -34 110.5t-97 42.5h-39v98h42q40 0 64.5 15.5t35.5 39.5t11 49q0 42 -26 72t-73 30v98q67 0 118 -24.5
t79 -66t28 -92.5q0 -66 -38.5 -108.5t-101.5 -57.5v-3q42 -7 78.5 -32.5t59 -69.5t22.5 -108q0 -72 -31 -126t-87 -84t-134 -30z" />
    <glyph glyph-name="uni10DA" unicode="&#x10da;" horiz-adv-x="1121" 
d="M687 -250q-30 49 -76.5 80.5t-100 46t-103.5 14.5q-57 0 -104 -15t-86 -37l-44 83q26 15 59.5 26.5t68.5 14.5v3q-73 23 -130 66t-89.5 108t-32.5 153q0 76 24 134.5t71 91.5t114 33q60 0 97.5 -28t54.5 -75h5q16 48 52.5 75.5t92.5 27.5q55 0 92 -27.5t53 -75.5h5
q18 47 56 75t96 28q67 0 114 -34.5t71.5 -96t24.5 -142.5q0 -68 -14.5 -125.5t-45.5 -116.5l-110 40q23 49 32 97.5t9 103.5q0 87 -24.5 129.5t-69.5 42.5q-39 0 -59.5 -32.5t-20.5 -92.5v-150h-121v156q0 51 -20 85t-68 34q-44 0 -65.5 -32.5t-21.5 -86.5v-156h-121v150
q0 56 -19.5 90.5t-61.5 34.5q-44 0 -69 -39t-25 -120q0 -84 36 -142.5t98 -94.5t141 -54q73 -17 137.5 -43t114.5 -65t77 -94z" />
    <glyph glyph-name="uni10DB" unicode="&#x10db;" horiz-adv-x="611" 
d="M300 -10q-115 0 -183 71t-68 204q0 130 59 198t155 68q60 0 97 -21t61 -55h5q-2 14 -4.5 34t-2.5 40v42q0 44 -26 75t-83 31q-47 0 -75 -22t-28 -56q0 -12 2 -21h-123q-3 9 -4 18.5t-1 17.5q0 48 31 83t82.5 54t115.5 19q73 0 126 -27t81.5 -75t28.5 -111v-292
q0 -133 -63.5 -204t-182.5 -71zM300 92q66 0 96 43.5t30 113.5v18q0 76 -27.5 120.5t-101.5 44.5q-58 0 -88.5 -46.5t-30.5 -123.5t28.5 -123.5t93.5 -46.5z" />
    <glyph glyph-name="uni10DC" unicode="&#x10dc;" horiz-adv-x="612" 
d="M311 -10q-119 0 -182 71t-63 208v297q0 70 26.5 113t70.5 62t96 19h249v-100h-234q-37 0 -59.5 -18.5t-22.5 -63.5v-26q0 -16 -2 -41t-4 -41h4q24 34 61.5 55t97.5 21q96 0 155 -69t59 -207q0 -137 -68 -208.5t-184 -71.5zM311 92q65 0 94 47t29 128q0 85 -30.5 132
t-88.5 47q-74 0 -101.5 -45t-27.5 -122v-25q0 -75 30 -118.5t95 -43.5z" />
    <glyph glyph-name="uni10DD" unicode="&#x10dd;" horiz-adv-x="841" 
d="M112 0q-32 71 -47.5 135.5t-15.5 143.5q0 81 24.5 142.5t72.5 96t118 34.5q61 0 99 -28t55 -75h5q18 48 56 75.5t97 27.5q71 0 119 -34.5t73 -96t25 -142.5q0 -79 -15.5 -143.5t-48.5 -135.5h-125q32 68 46.5 135t14.5 143q0 79 -24.5 125.5t-76.5 46.5
q-42 0 -62.5 -32.5t-20.5 -91.5v-149h-120v149q0 57 -20 90.5t-64 33.5q-49 0 -75 -42t-26 -132q0 -76 15 -142t46 -134h-125z" />
    <glyph glyph-name="uni10DE" unicode="&#x10de;" horiz-adv-x="588" 
d="M289 -10q-72 0 -127.5 24t-86.5 70t-31 114q0 24 4.5 43.5t9.5 33.5h120q-4 -14 -6 -32t-2 -38q0 -53 30.5 -83t88.5 -30q63 0 92.5 40.5t29.5 98.5q0 60 -33.5 99.5t-101.5 39.5h-41v98h49q52 0 75 19t23 51q0 35 -21.5 54.5t-49.5 35.5q-23 13 -45 29t-36.5 41.5
t-14.5 67.5h126q1 -27 22.5 -43t53.5 -33q23 -13 45 -30.5t36 -43t14 -62.5q0 -59 -37 -89t-94 -42v-4q38 -8 74.5 -31.5t60.5 -65t24 -102.5q0 -67 -31 -119t-87 -81.5t-133 -29.5z" />
    <glyph glyph-name="uni10DF" unicode="&#x10df;" horiz-adv-x="634" 
d="M319 -250q-74 0 -129 28t-85 75.5t-30 107.5q0 31 4.5 51.5t13.5 38.5h119q-11 -36 -11 -77q0 -49 29.5 -85.5t89.5 -36.5q63 0 90.5 42.5t27.5 116.5v436q-64 -28 -144 -38v-3q30 -13 48 -40.5t18 -63.5q0 -60 -42.5 -99.5t-121.5 -39.5q-72 0 -114 37.5t-42 94.5
q0 20 5 37h100q-3 -13 -3 -23q0 -26 14 -42.5t40 -16.5q28 0 43 18t15 45q0 69 -65 77v87q73 7 141.5 23t123.5 42h110v-532q0 -123 -64 -191.5t-181 -68.5z" />
    <glyph glyph-name="uni10E0" unicode="&#x10e0;" horiz-adv-x="834" 
d="M111 0q-32 71 -47 136.5t-15 142.5v39q0 185 68.5 285.5t226.5 130.5q106 21 226 36l16 -105q-40 -6 -82.5 -12t-80.5 -11.5t-65 -11.5q-42 -7 -82 -22t-72 -43t-49 -77h4q26 35 54.5 46t58.5 11q51 0 88 -28t53 -75h6q17 48 55 75.5t96 27.5q70 0 118 -34.5t72.5 -95.5
t24.5 -140t-15.5 -141.5t-47.5 -133.5h-127q32 68 46.5 133t14.5 141q0 77 -24 122.5t-74 45.5q-41 0 -61.5 -33t-20.5 -92v-139h-120v139q0 56 -19.5 90.5t-61.5 34.5q-48 0 -74 -42t-26 -127q0 -76 15 -140.5t46 -132.5h-125z" />
    <glyph glyph-name="uni10E1" unicode="&#x10e1;" horiz-adv-x="617" 
d="M317 -10q-123 0 -187 70.5t-64 203.5v496h126v-506q0 -74 30 -118t94 -44q63 0 93.5 42t30.5 102q0 41 -11 69t-28 53q-23 36 -43 78.5t-20 105.5h126q1 -46 18 -79.5t41 -69.5q19 -29 32.5 -66t13.5 -88q0 -76 -31 -132t-88 -86.5t-133 -30.5z" />
    <glyph glyph-name="uni10E2" unicode="&#x10e2;" horiz-adv-x="774" 
d="M386 -250q-161 0 -249 105.5t-88 304.5q0 167 73.5 267.5t209.5 119.5q-3 19 -5 38t-2 35v47h122v-46q0 -15 -2 -34.5t-5 -38.5q138 -18 211.5 -119.5t73.5 -269.5q0 -126 -39 -218t-114 -141.5t-186 -49.5zM386 -148q102 0 156 76t54 231q0 132 -40 205t-116 89
q3 -20 5 -42.5t2 -50.5v-185h-122v186q0 28 2 49t5 41q-155 -31 -155 -292q0 -154 54.5 -230.5t154.5 -76.5z" />
    <glyph glyph-name="uni10E3" unicode="&#x10e3;" horiz-adv-x="623" 
d="M309 -250q-79 0 -136 30.5t-87.5 84.5t-30.5 126q0 29 5.5 54t14.5 46h119q-5 -18 -9 -43.5t-4 -46.5q0 -62 30 -105.5t98 -43.5q67 0 95 45t28 116v339q0 99 -68 99q-31 0 -49 -24.5t-18 -72.5v-118h-120v120q0 90 -71 90h-69v101h70q100 0 131 -87h4q17 44 53 68t86 24
q84 0 130.5 -51.5t46.5 -133.5v-357q0 -123 -64.5 -191.5t-184.5 -68.5z" />
    <glyph glyph-name="uni10E4" unicode="&#x10e4;" horiz-adv-x="881" 
d="M531 -250q-134 0 -212.5 49.5t-78.5 138.5q0 9 1 19t3 21h120q-1 -12 -1 -24q0 -51 46 -76.5t122 -25.5q79 0 117 38t38 89q0 43 -24.5 74.5t-76.5 31.5h-21v103h39q47 0 75.5 37t28.5 98q0 54 -22.5 90.5t-67.5 36.5t-70.5 -32.5t-25.5 -95.5v-26q0 -73 -29.5 -129
t-82.5 -87.5t-125 -31.5q-70 0 -123 31.5t-82.5 88.5t-29.5 132q0 76 29 132.5t82 88t122 31.5q57 0 105.5 -27.5t69.5 -80.5h6q19 50 60.5 79t108.5 29q63 0 108 -30t69 -78t24 -102q0 -92 -40 -139.5t-101 -61.5v-4q59 -14 91 -58t32 -106q0 -64 -33.5 -114.5t-97 -79.5
t-153.5 -29zM286 150q38 0 62 20.5t35.5 55t11.5 74.5q0 63 -26.5 106.5t-83.5 43.5t-83.5 -43.5t-26.5 -106.5q0 -40 11.5 -74.5t36.5 -55t63 -20.5z" />
    <glyph glyph-name="uni10E5" unicode="&#x10e5;" horiz-adv-x="598" 
d="M288 -250q-75 0 -129.5 30.5t-84.5 84.5t-30 126q0 29 5.5 54t14.5 46h119q-6 -18 -9.5 -43.5t-3.5 -46.5q0 -62 28.5 -105.5t89.5 -43.5q65 0 91.5 44t26.5 117v265q0 80 -26 126t-87 46q-42 0 -69.5 -28.5t-27.5 -82.5q0 -20 2 -39.5t7 -38.5h-120q-6 17 -10.5 38
t-4.5 49q0 66 27 111.5t70 69t90 23.5q55 0 91 -23t60 -56h5q-3 15 -5 45t-2 52v190h126v-750q0 -123 -63.5 -191.5t-180.5 -68.5z" />
    <glyph glyph-name="uni10E6" unicode="&#x10e6;" horiz-adv-x="833" 
d="M525 -250q-36 61 -91.5 93t-108.5 32q-42 0 -78.5 -10.5t-73.5 -29.5l-39 83q21 10 49 18.5t73 11.5v4q-101 46 -154 128.5t-53 196.5q0 81 24.5 143t71.5 97t115 35q61 0 99 -27.5t54 -75.5h6q17 48 55.5 75.5t97.5 27.5q68 0 115.5 -34.5t72.5 -96t25 -142.5
q0 -68 -15 -125.5t-45 -115.5l-108 39q23 49 32 97.5t9 103.5q0 78 -24.5 125t-74.5 47q-42 0 -62.5 -31.5t-20.5 -90.5v-153h-119v153q0 55 -19.5 88.5t-62.5 33.5q-47 0 -73 -43t-26 -130q0 -84 26.5 -140.5t72.5 -93.5t106 -62q61 -25 105.5 -50t76 -56.5t54.5 -77.5z
" />
    <glyph glyph-name="uni10E7" unicode="&#x10e7;" horiz-adv-x="607" 
d="M296 -250q-75 0 -130 28t-84 75.5t-29 107.5q0 31 4.5 51.5t12.5 38.5h119q-10 -34 -10 -77q0 -49 28.5 -85.5t89.5 -36.5q65 0 92 42.5t27 116.5v103q0 27 1 52.5t4 53.5h-6q-23 -38 -64 -60.5t-95 -22.5q-96 0 -151.5 59t-55.5 173q0 50 11.5 93.5t27.5 79.5h124
q-15 -40 -24.5 -77.5t-9.5 -86.5q0 -66 28.5 -100.5t80.5 -34.5q64 0 96.5 38t32.5 110v151h125v-532q0 -123 -63.5 -191.5t-181.5 -68.5z" />
    <glyph glyph-name="uni10E8" unicode="&#x10e8;" horiz-adv-x="613" 
d="M302 -10q-115 0 -183.5 69.5t-68.5 195.5q0 123 59 189.5t155 66.5q60 0 97.5 -21t60.5 -55h5q-2 14 -4.5 34t-2.5 40v85q0 37 -16 58t-44 21q-26 0 -42.5 -17.5t-16.5 -46.5v-39h-122v35q0 32 -18.5 47.5t-42.5 15.5q-16 0 -31.5 -4t-29.5 -9l-30 93q45 22 99 22
q34 0 66.5 -17.5t48.5 -59.5h3q18 42 54 59.5t81 17.5q44 0 82.5 -19t62 -58.5t23.5 -99.5v-338q0 -126 -63.5 -195.5t-181.5 -69.5zM302 93q66 0 95.5 41.5t29.5 104.5v18q0 65 -28 108t-99 43q-59 0 -89.5 -44.5t-30.5 -111.5q0 -69 28.5 -114t93.5 -45z" />
    <glyph glyph-name="uni10E9" unicode="&#x10e9;" 
d="M68 0v570q0 90 53.5 145t150.5 55q59 0 103 -21t68.5 -57t24.5 -80q0 -27 -11.5 -57.5t-43.5 -54.5v-3q69 -19 108 -78t39 -151q0 -80 -15.5 -151.5t-33.5 -116.5h-126q10 28 20.5 68t17.5 87.5t7 95.5q0 79 -30.5 120t-83.5 41q-56 0 -88.5 -42t-32.5 -123v-247h-127z
M189 431h6q12 20 29 34.5t44 29.5q36 19 55 41t19 61q0 36 -19 56t-54 20q-32 0 -53.5 -22.5t-21.5 -65.5v-86q0 -28 -5 -68z" />
    <glyph glyph-name="uni10EA" unicode="&#x10ea;" horiz-adv-x="684" 
d="M359 -250q-150 0 -230 102.5t-80 311.5q0 107 23 204t64 174h125q-39 -80 -62 -174t-23 -203q0 -152 41.5 -232t142.5 -80q75 0 113.5 38t38.5 109q0 58 -33.5 99t-104.5 41h-38v102h59q52 0 76 19t24 53q0 33 -13.5 53.5t-32.5 36.5q-27 23 -51 54t-24 84h126
q3 -26 20.5 -46t43.5 -42q26 -23 43 -54t17 -74q0 -59 -37.5 -89.5t-94.5 -43.5v-3q38 -8 72 -32t55.5 -67t21.5 -105q0 -72 -35 -125t-98.5 -82t-148.5 -29z" />
    <glyph glyph-name="uni10EB" unicode="&#x10eb;" horiz-adv-x="612" 
d="M300 -10q-115 0 -183 71.5t-68 208.5q0 140 59 211t155 71q60 0 97.5 -23t60.5 -56h6q-3 15 -5 45t-2 53v189h126v-491q0 -137 -63.5 -208t-182.5 -71zM300 92q67 0 96.5 43.5t29.5 118.5v17q0 86 -27.5 132t-102.5 46q-57 0 -87.5 -47.5t-30.5 -134.5q0 -81 29 -128
t93 -47z" />
    <glyph glyph-name="uni10EC" unicode="&#x10ec;" horiz-adv-x="613" 
d="M311 -10q-118 0 -181.5 69.5t-63.5 195.5v338q0 60 23.5 99.5t62 58.5t82.5 19q45 0 81 -17.5t54 -59.5h3q16 42 48.5 59.5t66.5 17.5q54 0 99 -22l-30 -93q-14 5 -29.5 9t-31.5 4q-24 0 -42.5 -15t-18.5 -46v-37h-122v41q0 28 -16.5 45t-42.5 17q-28 0 -44 -21t-16 -58
v-85q0 -20 -2.5 -40t-4.5 -34h5q23 34 60.5 55t97.5 21q96 0 155 -66.5t59 -189.5q0 -126 -68.5 -195.5t-183.5 -69.5zM311 93q65 0 93.5 45t28.5 114q0 67 -30 111.5t-88 44.5q-72 0 -100.5 -43t-28.5 -108v-18q0 -63 30 -104.5t95 -41.5z" />
    <glyph glyph-name="uni10ED" unicode="&#x10ed;" horiz-adv-x="610" 
d="M313 -250q-75 0 -130 30t-85.5 82t-30.5 119q0 29 5.5 54t14.5 46h119q-5 -18 -9 -43.5t-4 -46.5q0 -36 13 -67.5t39.5 -51t67.5 -19.5q42 0 68.5 20t39 52.5t12.5 68.5q0 42 -11.5 74.5t-29.5 62.5q-18 31 -33 64t-22 73h-4q-45 -57 -130 -57q-38 0 -74.5 19t-60.5 55.5
t-24 90.5q0 78 51 122t130 44h89v218h124v-218h117v-102h-117v-67q0 -62 21 -107t47 -88q23 -37 39 -81.5t16 -100.5q0 -73 -30 -128.5t-85.5 -86.5t-132.5 -31zM238 307q38 0 58 23t20 56v56h-76q-39 0 -57.5 -18t-18.5 -48q0 -32 20 -50.5t54 -18.5z" />
    <glyph glyph-name="uni10EE" unicode="&#x10ee;" horiz-adv-x="612" 
d="M312 -10q-119 0 -182.5 71t-63.5 208v491h126v-189q0 -23 -2.5 -53t-4.5 -45h5q24 33 61.5 56t97.5 23q96 0 155 -71t59 -211q0 -137 -68 -208.5t-183 -71.5zM311 92q65 0 94 47t29 128q0 87 -30.5 134.5t-87.5 47.5q-75 0 -102.5 -46t-27.5 -132v-17q0 -75 29.5 -118.5
t95.5 -43.5z" />
    <glyph glyph-name="uni10EF" unicode="&#x10ef;" horiz-adv-x="578" 
d="M350 313q0 -43 27.5 -77.5t64.5 -71.5q36 -36 64 -82t28 -113q0 -66 -30 -115.5t-85.5 -76.5t-130.5 -27t-129.5 28t-84.5 75.5t-30 107.5q0 31 4.5 51.5t12.5 38.5h119q-10 -36 -10 -77q0 -49 28.5 -85.5t89.5 -36.5q55 0 87 31.5t32 80.5t-25 84.5t-57 69.5
q-24 25 -47 53.5t-38 63t-15 79.5v33l-171 31v99l171 -30v105h125v-127l174 -31v-100l-174 31v-12z" />
    <glyph glyph-name="uni10F0" unicode="&#x10f0;" horiz-adv-x="579" 
d="M283 -10q-77 0 -131 26t-82 67.5t-28 89.5q0 21 6 42h121q-3 -14 -3 -25q0 -39 27 -68.5t91 -29.5q61 0 88.5 21.5t27.5 51.5q0 33 -24 55t-86 22h-46v101h63q41 0 62 11.5t21 40.5q0 52 -89 52h-57v100h62q38 0 51.5 11.5t13.5 27.5q0 19 -17 29.5t-50 21.5
q-24 9 -47 23.5t-38 38.5t-15 61h127q2 -20 23.5 -32.5t53.5 -25.5q23 -9 44.5 -22.5t36 -34.5t14.5 -53q0 -34 -28 -57t-75 -32v-4q26 -2 54 -14.5t47 -34.5t19 -55q0 -38 -17.5 -59.5t-45 -32t-56.5 -14.5v-4q56 -10 92.5 -41.5t36.5 -86.5q0 -52 -32.5 -89.5t-88 -57.5
t-126.5 -20z" />
    <glyph glyph-name="uni10F1" unicode="&#x10f1;" horiz-adv-x="691" 
d="M382 -10q-333 0 -333 410q0 94 23 188.5t64 171.5h126q-40 -80 -62.5 -171.5t-22.5 -187.5q0 -151 48.5 -230t157.5 -79q60 0 94.5 20.5t34.5 54.5q0 32 -23 54.5t-82 22.5h-51v98h67q38 0 58.5 11.5t20.5 41.5q0 52 -85 52h-61v99h62q37 0 50.5 15t13.5 32
q0 23 -12 35.5t-27 22.5t-30.5 23.5t-26 33.5t-10.5 52h127q2 -21 15 -34t32 -25q24 -16 44 -39t20 -67q0 -39 -28 -61t-74 -31v-4q26 -2 54 -14.5t47 -34.5t19 -55q0 -38 -17.5 -59.5t-45 -32t-56.5 -14.5v-4q55 -9 92 -39.5t37 -88.5q0 -48 -32.5 -86t-91 -59.5
t-136.5 -21.5z" />
    <glyph glyph-name="uni10F2" unicode="&#x10f2;" horiz-adv-x="600" 
d="M59 0v98q34 0 65.5 3t73.5 9v4q-75 36 -112 96.5t-37 122.5q0 54 27.5 104.5t83.5 82.5t140 32q85 0 140.5 -32t83 -82.5t27.5 -104.5q0 -62 -37 -122.5t-112 -96.5v-4q41 -6 72.5 -9t66.5 -3v-98q-73 0 -131.5 13t-110.5 37q-51 -24 -109.5 -37t-130.5 -13zM300 146
q56 27 89.5 72t33.5 108q0 53 -31.5 90t-91.5 37t-91.5 -37t-31.5 -90q0 -63 33.5 -108t89.5 -72z" />
    <glyph glyph-name="uni10F3" unicode="&#x10f3;" horiz-adv-x="593" 
d="M297 -250q-79 0 -135.5 29t-87 78.5t-30.5 110.5q0 28 5 52t12 42h120q-5 -16 -8 -38.5t-3 -41.5q0 -33 13 -62.5t41.5 -48.5t72.5 -19q65 0 94.5 41.5t29.5 100.5q0 74 -37.5 113.5t-104.5 39.5h-69v84l164 209h-287v102h436v-84l-175 -219q50 -6 96.5 -34.5t76 -81
t29.5 -130.5q0 -74 -31 -128.5t-87.5 -84.5t-134.5 -30z" />
    <glyph glyph-name="uni10F4" unicode="&#x10f4;" horiz-adv-x="583" 
d="M289 -250q-72 0 -127.5 24t-86.5 70t-31 114q0 24 4.5 43.5t9.5 33.5h120q-4 -14 -6 -32t-2 -38q0 -53 30.5 -83t88.5 -30q42 0 69 19.5t40 51t13 68.5q0 59 -33.5 98.5t-101.5 39.5h-41v102h49q52 0 75 22.5t23 62.5q0 39 -29.5 61t-77.5 45q-41 19 -78.5 42.5t-61 58.5
t-23.5 89q0 73 52 115.5t141 42.5q88 0 159 -44l-40 -92q-29 16 -57.5 25t-54.5 9q-38 0 -56.5 -14.5t-18.5 -40.5q0 -37 31.5 -58t82.5 -44q38 -17 75 -39t61.5 -56t24.5 -86q0 -67 -37 -101t-94 -46v-4q38 -8 74.5 -31.5t60.5 -65t24 -102.5q0 -68 -30.5 -120t-87 -81
t-133.5 -29z" />
    <glyph glyph-name="uni10F5" unicode="&#x10f5;" horiz-adv-x="657" 
d="M286 -10q-114 0 -175.5 46.5t-61.5 132.5q0 82 59 126.5t164 44.5h131v94h-144q-96 0 -148.5 42t-52.5 122q0 81 60 126.5t173 45.5q111 0 172 -51.5t61 -147.5v-39h106v-98h-106v-94h106v-97h-106v-39q0 -105 -60.5 -159.5t-177.5 -54.5zM271 532h132v37
q0 52 -29.5 77.5t-84.5 25.5q-107 0 -107 -73q0 -67 89 -67zM288 88q59 0 87 29.5t28 86.5v39h-128q-48 0 -75 -19t-27 -56q0 -38 30.5 -59t84.5 -21z" />
    <glyph glyph-name="uni10F6" unicode="&#x10f6;" horiz-adv-x="928" 
d="M374 -250q-23 0 -44.5 4t-35.5 13v95q11 -3 25 -6.5t28 -3.5q26 0 40.5 15.5t14.5 59.5v57q0 20 2 45.5t4 40.5h-5q-25 -38 -61 -59t-87 -21q-95 0 -150.5 73t-55.5 209q0 135 54.5 207.5t148.5 72.5q54 0 89.5 -21.5t60.5 -59.5h4q-2 18 -3 36.5t-1 40.5v49
q0 66 19 103.5t53.5 53.5t80.5 16q27 0 49 -5.5t33 -11.5v-96q-8 4 -23.5 7.5t-31.5 3.5q-26 0 -40.5 -15.5t-14.5 -59.5v-45q0 -22 -1.5 -40.5t-3.5 -36.5h5q25 38 60.5 59.5t89.5 21.5q94 0 148.5 -72.5t54.5 -207.5q0 -136 -55.5 -209t-150.5 -73q-52 0 -87.5 21
t-60.5 59h-6q3 -15 5 -41t2 -46v-57q0 -90 -39 -133t-114 -43zM289 96q63 0 91 42t28 131v20q0 83 -28.5 120.5t-89.5 37.5q-53 0 -83 -43.5t-30 -129.5t30 -132t82 -46zM640 96q52 0 81.5 46t29.5 132t-29.5 129.5t-83.5 43.5q-60 0 -88.5 -37.5t-28.5 -120.5v-20
q0 -89 28 -131t91 -42z" />
    <glyph glyph-name="uni10F7" unicode="&#x10f7;" horiz-adv-x="573" 
d="M285 -250q-111 0 -176 57.5t-65 158.5q0 74 28 123.5t75 83t106 61.5q51 23 79.5 43t40.5 42t12 51q0 36 -24 57.5t-73 21.5q-54 0 -77 -22t-23 -60q0 -13 3 -26h-124q-4 17 -4 35q0 79 58.5 127.5t164.5 48.5q110 0 168 -50t58 -134q0 -53 -21 -92.5t-65 -72.5t-112 -66
q-44 -21 -75.5 -43.5t-48.5 -53.5t-17 -78q0 -50 31 -79.5t81 -29.5q54 0 85.5 28.5t31.5 83.5q0 19 -3 36.5t-7 28.5h127q5 -16 7.5 -33.5t2.5 -39.5q0 -106 -67 -156.5t-177 -50.5z" />
    <glyph glyph-name="uni10F8" unicode="&#x10f8;" horiz-adv-x="607" 
d="M310 -250q-117 0 -180.5 68.5t-63.5 191.5v532h125v-151q0 -72 32.5 -110t95.5 -38q53 0 81.5 34.5t28.5 100.5q0 49 -9.5 86.5t-24.5 77.5h123q17 -36 28.5 -79.5t11.5 -93.5q0 -114 -55.5 -173t-151.5 -59q-54 0 -95 22.5t-65 60.5h-6q3 -28 4.5 -53.5t1.5 -52.5v-103
q0 -74 26.5 -116.5t91.5 -42.5q61 0 90 36.5t29 85.5q0 43 -10 77h119q8 -18 12.5 -38.5t4.5 -51.5q0 -60 -29.5 -107.5t-84 -75.5t-130.5 -28z" />
    <glyph glyph-name="uni10F9" unicode="&#x10f9;" 
d="M309 552q74 0 132 -32.5t91 -93.5t33 -146q0 -122 -63.5 -188t-168.5 -82q-56 -8 -80 -31.5t-24 -60.5q0 -32 21 -53t59 -21t58 20t20 53q0 7 -1 15l-2 16h118q7 -23 7 -47q0 -68 -54.5 -109.5t-145.5 -41.5q-61 0 -106.5 21t-70 56.5t-24.5 78.5q0 44 22 79t73 52v3
q-79 27 -116.5 91.5t-37.5 148.5q0 128 69.5 200t190.5 72zM307 450q-68 0 -98.5 -47t-30.5 -123t31 -121.5t99 -45.5q67 0 97.5 45.5t30.5 121.5t-30.5 123t-98.5 47z" />
    <glyph glyph-name="uni10FA" unicode="&#x10fa;" horiz-adv-x="498" 
d="M104 -117v112l85 33v3q-60 21 -100 83t-40 158q0 98 34.5 160t95 91t136.5 29q44 0 85.5 -9t70.5 -25l-38 -98q-26 10 -57.5 19t-61.5 9q-135 0 -135 -178q0 -88 34.5 -131.5t97.5 -43.5q42 0 79.5 10.5t68.5 27.5v-118z" />
    <glyph glyph-name="uni10FB" unicode="&#x10fb;" horiz-adv-x="558" 
d="M140 399q-37 0 -57 20t-20 57q0 78 77 78q36 0 56 -20.5t20 -57.5t-20.5 -57t-55.5 -20zM428 193q-36 0 -56.5 20t-20.5 57q0 78 77 78q37 0 57 -20t20 -58q0 -36 -20.5 -56.5t-56.5 -20.5zM140 -13q-37 0 -57 20t-20 57q0 77 77 77q36 0 56 -20t20 -57
q0 -36 -20.5 -56.5t-55.5 -20.5z" />
    <glyph glyph-name="uni10FC" unicode="&#x10fc;" horiz-adv-x="360" 
d="M182 409q-70 0 -107.5 41.5t-37.5 118.5v159q0 44 17 70t44.5 37t58.5 11h148v-72h-137q-35 0 -35 -32v-12q0 -9 -1 -23t-4 -26h3q12 20 32.5 31.5t52.5 11.5q52 0 84.5 -38t32.5 -115t-39.5 -119.5t-111.5 -42.5zM181 483q31 0 43 23t12 63t-14.5 60.5t-38.5 20.5
q-33 0 -45 -20.5t-12 -55.5v-12q0 -79 55 -79z" />
    <glyph glyph-name="uni10FD" unicode="&#x10fd;" horiz-adv-x="573" 
d="M288 -10q-110 0 -177 50.5t-67 156.5q0 22 2.5 39.5t7.5 33.5h127q-4 -11 -7 -28.5t-3 -36.5q0 -55 31.5 -83.5t85.5 -28.5q50 0 81 29.5t31 79.5q0 45 -17 72t-49 46t-75 41q-68 34 -112 65t-65 69t-21 91q0 84 58 134t168 50q106 0 164.5 -48.5t58.5 -127.5
q0 -19 -4 -35h-124q3 13 3 26q0 38 -23 60t-77 22q-49 0 -73 -21.5t-24 -57.5q0 -29 12 -49.5t40.5 -39t79.5 -41.5q58 -28 105.5 -58.5t75.5 -76t28 -117.5q0 -101 -65 -158.5t-176 -57.5z" />
    <glyph glyph-name="uni10FE" unicode="&#x10fe;" horiz-adv-x="600" 
d="M59 542q72 0 130.5 -13t109.5 -37q52 24 110.5 37t131.5 13v-98q-35 0 -66.5 -3t-72.5 -9v-4q75 -36 112 -96t37 -123q0 -54 -27.5 -104.5t-83 -82.5t-140.5 -32q-84 0 -140 32t-83.5 82.5t-27.5 104.5q0 63 37 123t112 96v4q-42 6 -73.5 9t-65.5 3v98zM300 397
q-56 -28 -89.5 -73t-33.5 -108q0 -53 31.5 -90t91.5 -37t91.5 37t31.5 90q0 63 -33.5 108t-89.5 73z" />
    <glyph glyph-name="uni10FF" unicode="&#x10ff;" 
d="M565 272q0 -135 -70 -208.5t-190 -73.5q-74 0 -132 33t-91 96t-33 153q0 135 69.5 207.5t189.5 72.5q75 0 133 -32.5t91 -95t33 -152.5zM178 272q0 -86 30.5 -133t98.5 -47t98.5 47t30.5 133t-30.5 132t-99.5 46q-67 0 -97.5 -46t-30.5 -132z" />
    <glyph glyph-name="uni1C90" unicode="&#x1c90;" 
d="M303 -10q-78 0 -135 29t-88.5 82t-31.5 125q0 29 3.5 57.5t18.5 68.5h-59l67 21q-4 -11 -8 -21h131q-13 -37 -16 -66.5t-3 -50.5q0 -59 30 -98t91 -39q65 0 93.5 41t28.5 104q0 68 -26 117.5t-59 91.5q-31 39 -56.5 77t-39 82.5t-5.5 102.5h130q-4 -40 7.5 -73.5
t33 -64.5t45.5 -64q25 -33 49 -71.5t40 -86.5t16 -110q0 -77 -31 -134t-88.5 -88.5t-137.5 -31.5zM207 370l48 -18h-54z" />
    <glyph glyph-name="uni1C91" unicode="&#x1c91;" horiz-adv-x="633" 
d="M315 -10q-71 0 -130.5 31.5t-95 91t-35.5 145.5q0 113 60.5 180.5t158.5 79.5q7 14 7 32q0 19 -12.5 31.5t-27.5 22.5q-21 14 -40 41.5t-13 68.5h125q-1 -20 11 -33t30 -26q22 -16 38 -37.5t16 -51.5q0 -28 -14 -54q80 -21 132.5 -86t52.5 -168q0 -86 -34 -145.5t-93 -91
t-136 -31.5zM317 98q59 0 93 43t34 117q0 72 -34.5 113.5t-93.5 41.5t-93 -41.5t-34 -113.5q0 -74 34.5 -117t93.5 -43z" />
    <glyph glyph-name="uni1C92" unicode="&#x1c92;" horiz-adv-x="621" 
d="M309 -9q-71 0 -130.5 30t-95 86.5t-35.5 134.5t31 130t86 81.5t127 36.5q53 6 76.5 23.5t23.5 49.5q0 28 -22 45.5t-60 17.5t-60.5 -18.5t-22.5 -48.5q0 -11 3 -26h-127q-5 24 -5 43q0 44 27.5 77.5t75 52t109.5 18.5q97 0 154.5 -42.5t57.5 -109.5q0 -38 -19.5 -69.5
t-66.5 -47.5v-4q59 -20 97.5 -72t38.5 -137q0 -78 -34 -134.5t-93 -86.5t-136 -30zM311 99q57 0 92 40.5t35 102.5q0 68 -35 105.5t-93 37.5q-57 0 -92 -38t-35 -105q0 -62 35 -102.5t93 -40.5z" />
    <glyph glyph-name="uni1C93" unicode="&#x1c93;" horiz-adv-x="942" 
d="M570 0q-6 32 -36.5 53t-74 31.5t-87.5 10.5q-46 0 -91 -10.5t-80 -29.5l-45 84q21 12 46.5 21.5t58.5 11.5v4q-95 36 -151 114.5t-56 185.5q0 70 25 126t74.5 89t121.5 33q65 0 110 -26t65 -74h5q20 47 70 73.5t115 26.5q75 0 130.5 -30t86.5 -85t31 -130
q0 -73 -32.5 -127t-89.5 -83.5t-129 -29.5q-77 0 -133.5 29t-87 82.5t-30.5 124.5v27q0 55 -25.5 87t-72.5 32q-50 0 -75.5 -41t-25.5 -105q0 -66 23 -113.5t62 -79t88 -52.5t102 -34q56 -15 107.5 -36.5t86 -59t40.5 -100.5h-126zM635 341q61 0 90 39.5t29 100.5
q0 60 -28.5 100t-89.5 40q-60 0 -88 -39.5t-28 -100.5t28 -100.5t87 -39.5z" />
    <glyph glyph-name="uni1C94" unicode="&#x1c94;" horiz-adv-x="626" 
d="M303 -10q-78 0 -135 28.5t-88.5 78.5t-31.5 115q0 48 14 88h129q-5 -16 -7 -37t-2 -39q0 -54 30.5 -90t91.5 -36q66 0 94.5 37t28.5 98v272q0 52 -29.5 81.5t-79.5 29.5q-49 0 -79 -25t-30 -75q0 -28 7 -64h-130q-4 15 -7.5 34t-3.5 42q0 64 32.5 107.5t87 66t121.5 22.5
q72 0 125.5 -26t83 -74t29.5 -116v-278q0 -113 -66 -176.5t-185 -63.5z" />
    <glyph glyph-name="uni1C95" unicode="&#x1c95;" horiz-adv-x="623" 
d="M312 -10q-83 0 -142 27.5t-90.5 75t-31.5 106.5q0 20 3 38t9 36h129q-8 -33 -8 -60q0 -54 33 -86.5t99 -32.5t96.5 35.5t30.5 84.5q0 55 -35 84t-94 29h-43v103h47q57 0 82 29.5t25 69.5t-28 65.5t-77 25.5q-52 0 -80 -24t-28 -65q0 -22 4 -47h-128q-5 16 -7 30t-2 29
q0 54 31 94.5t85.5 63.5t124.5 23q72 0 125.5 -24.5t83.5 -66.5t30 -96q0 -62 -33.5 -101t-89.5 -53v-3q37 -6 69 -27t52.5 -57.5t20.5 -88.5q0 -63 -32 -112t-91 -77t-140 -28z" />
    <glyph glyph-name="uni1C96" unicode="&#x1c96;" horiz-adv-x="668" 
d="M354 -10q-75 0 -133 30.5t-91.5 86t-33.5 131.5q0 47 14 88t43 69v3q-60 16 -93.5 57t-33.5 101q0 42 22.5 80.5t67 63t109.5 24.5q62 0 106 -22.5t68 -58.5t24 -76q0 -46 -24 -80v-3q4 0 18 -2q58 -7 102.5 -39t69.5 -82.5t25 -114.5q0 -79 -32 -136.5t-90.5 -88.5
t-137.5 -31zM225 471q37 0 56 22.5t19 55.5q0 32 -18 55.5t-58 23.5q-39 0 -57 -23.5t-18 -55.5q0 -30 18 -54t58 -24zM356 97q65 0 94 41.5t29 107.5t-29 106t-95 40t-94.5 -40t-28.5 -106t28.5 -107.5t95.5 -41.5z" />
    <glyph glyph-name="uni1C97" unicode="&#x1c97;" horiz-adv-x="975" 
d="M687 724q63 0 115 -32t83 -102.5t31 -185.5q0 -89 -9.5 -158t-26.5 -128.5t-40 -117.5h-132q33 88 53 183t20 220q0 118 -29 165t-78 47t-74 -34t-25 -86q0 -37 3.5 -71t3.5 -71q0 -181 -64 -272t-198 -91t-197.5 92.5t-63.5 274.5q0 367 260 367q63 0 112.5 -24.5
t75.5 -79.5h3q16 38 45 61t63.5 33t68.5 10zM320 99q70 0 99 62.5t29 196.5q0 136 -29.5 196.5t-98.5 60.5q-68 0 -97.5 -61.5t-29.5 -196.5q0 -137 30 -197.5t97 -60.5z" />
    <glyph glyph-name="uni1C98" unicode="&#x1c98;" horiz-adv-x="640" 
d="M116 0q-17 49 -30 104t-20 124.5t-7 162.5q0 119 34 192.5t93.5 107t133.5 33.5t133.5 -33.5t94 -107t34.5 -192.5q0 -92 -7.5 -162t-20 -125t-29.5 -104h-131q16 50 28 106.5t18.5 126t6.5 158.5q0 124 -34 174.5t-93 50.5t-93 -50.5t-34 -174.5q0 -90 6.5 -159.5
t18.5 -125.5t28 -106h-130z" />
    <glyph glyph-name="uni1C99" unicode="&#x1c99;" horiz-adv-x="607" 
d="M298 -10q-78 0 -135.5 27.5t-88.5 75t-31 106.5q0 20 3 38t9 36h129q-8 -33 -8 -60q0 -54 31.5 -86.5t90.5 -32.5q66 0 97 35.5t31 90.5q0 56 -31 90.5t-93 34.5h-40v105h43q59 0 81 27t22 59q0 35 -23.5 59.5t-70.5 24.5v104q70 0 120.5 -22.5t77.5 -60.5t27 -85
q0 -61 -31.5 -100t-81.5 -53v-3q33 -6 63.5 -28.5t50 -62.5t19.5 -98q0 -66 -31.5 -115.5t-90.5 -77.5t-139 -28z" />
    <glyph glyph-name="uni1C9A" unicode="&#x1c9a;" horiz-adv-x="1173" 
d="M714 0q-4 31 -28.5 54t-62 39t-81 24.5t-86.5 8.5q-72 0 -125.5 -16.5t-95.5 -38.5l-49 82q24 14 52 25t62 15v3q-117 29 -181.5 102t-64.5 190q0 67 24.5 120.5t72 84.5t117.5 31q61 0 102.5 -27.5t58.5 -75.5h5q37 103 151 103q59 0 97.5 -28t53.5 -75h6q18 48 58 75.5
t99 27.5q70 0 119.5 -32.5t75 -89.5t25.5 -131q0 -61 -14 -115.5t-43 -109.5l-120 41q24 49 34 94t10 94q0 71 -26.5 106t-71.5 35q-42 0 -63.5 -37t-21.5 -91v-112h-127v121q0 48 -21.5 83.5t-69.5 35.5q-44 0 -66.5 -34t-22.5 -85v-121h-127v112q0 33 -8.5 62.5t-27 47.5
t-49.5 18q-45 0 -71 -32.5t-26 -102.5q0 -80 37.5 -131t107 -78.5t163.5 -37.5q92 -10 167 -36.5t122.5 -75t56.5 -122.5h-127z" />
    <glyph glyph-name="uni1C9B" unicode="&#x1c9b;" horiz-adv-x="640" 
d="M316 -10q-120 0 -191 67.5t-71 189.5t62 186.5t161 64.5q60 0 98.5 -20t63.5 -50h5q-2 15 -4.5 33t-2.5 36v36q0 40 -29 65t-86 25q-45 0 -76.5 -19.5t-31.5 -55.5v-9h-131q-1 9 -1 13v9q0 50 34 86.5t88.5 56.5t117.5 20q75 0 130 -25.5t85 -71t30 -105.5v-273
q0 -125 -65 -192t-186 -67zM316 95q67 0 97.5 39t30.5 100v15q0 37 -10.5 70t-38.5 53.5t-83 20.5q-59 0 -91.5 -40.5t-32.5 -107.5t31.5 -108.5t96.5 -41.5z" />
    <glyph glyph-name="uni1C9C" unicode="&#x1c9c;" horiz-adv-x="640" 
d="M324 -10q-121 0 -186.5 67.5t-65.5 195.5v264q0 72 28 115t73 62.5t98 19.5h264v-107h-250q-39 0 -61 -18.5t-22 -61.5v-30q0 -16 -2 -34t-5 -32h5q25 32 64.5 53t98.5 21q66 0 116.5 -30.5t78.5 -87.5t28 -136q0 -125 -71 -193t-191 -68zM325 96q67 0 98 42.5t31 109.5
q0 68 -32.5 109t-92.5 41q-49 0 -78 -20.5t-41.5 -54t-12.5 -73.5v-16q0 -60 30.5 -99t97.5 -39z" />
    <glyph glyph-name="uni1C9D" unicode="&#x1c9d;" horiz-adv-x="916" 
d="M135 0q-24 58 -41 118.5t-26 130t-9 155.5q0 115 32.5 185.5t85.5 102.5t114 32q31 0 63.5 -9.5t60 -32.5t42.5 -65h3q16 41 43 64.5t59.5 33t65.5 9.5q60 0 112.5 -32t85 -102.5t32.5 -185.5q0 -90 -10 -159t-27 -128t-39 -117h-133q33 90 53 185t20 218q0 79 -14 125.5
t-38 67t-54 20.5q-47 0 -68.5 -40t-21.5 -110v-257h-135v257q0 150 -93 150q-29 0 -52.5 -20t-38 -66.5t-14.5 -126.5q0 -122 20.5 -217t53.5 -186h-132z" />
    <glyph glyph-name="uni1C9E" unicode="&#x1c9e;" horiz-adv-x="619" 
d="M306 -10q-79 0 -137 27.5t-89.5 75t-31.5 106.5q0 20 3 38t9 36h129q-8 -33 -8 -60q0 -54 32 -86.5t93 -32.5q64 0 94 36.5t30 87.5q0 56 -36 88t-102 32h-44v102h59q53 0 76 16.5t23 42.5q0 32 -22 46.5t-50 26.5q-28 11 -53 29t-39.5 45.5t-11.5 67.5h134
q0 -24 22.5 -40t53.5 -30q25 -11 48.5 -28.5t39 -44t15.5 -65.5q0 -47 -31.5 -75.5t-79.5 -40.5v-3q32 -7 62.5 -29.5t50.5 -60t20 -90.5q0 -63 -31.5 -112t-89.5 -77t-138 -28z" />
    <glyph glyph-name="uni1C9F" unicode="&#x1c9f;" horiz-adv-x="665" 
d="M334 -10q-78 0 -135 27.5t-88 75t-31 106.5q0 18 2.5 36t9.5 38h128q-4 -16 -5.5 -31.5t-1.5 -28.5q0 -54 31.5 -86.5t89.5 -32.5q68 0 95.5 37t27.5 98v380q-32 -12 -66.5 -19t-67.5 -11v-2q22 -12 35.5 -34.5t13.5 -55.5q0 -37 -21 -67.5t-58.5 -48t-86.5 -17.5
q-48 0 -84.5 16.5t-57 45t-20.5 64.5q0 19 5 33h101q-1 -5 -1 -8.5v-7.5q0 -23 15 -38t41 -15q29 0 45 16.5t16 39.5q0 27 -15.5 44t-51.5 17v94q73 7 146 21t131 38h111v-485q0 -110 -65.5 -174.5t-187.5 -64.5z" />
    <glyph glyph-name="uni1CA0" unicode="&#x1ca0;" horiz-adv-x="873" 
d="M107 0q-20 52 -31.5 96.5t-16.5 91t-5 104.5q0 116 29 198.5t95.5 132.5t178.5 69q52 9 110.5 17t127.5 16l16 -110q-66 -8 -132.5 -16t-109.5 -15q-40 -6 -80.5 -19t-73.5 -37t-50 -65h4q24 29 55.5 39t62.5 10q54 0 92.5 -27.5t55.5 -76.5h3q18 50 60 77t106 27
q70 0 118 -33t72.5 -90.5t24.5 -130.5q0 -70 -14.5 -131t-40.5 -127h-132q26 63 40 124.5t14 132.5q0 66 -23 109.5t-76 43.5q-44 0 -66 -34t-22 -91v-129h-126v129q0 125 -89 125q-98 0 -98 -155q0 -69 14 -130.5t39 -124.5h-132z" />
    <glyph glyph-name="uni1CA1" unicode="&#x1ca1;" horiz-adv-x="640" 
d="M329 -10q-125 0 -191 67.5t-66 192.5v464h128v-474q0 -65 32 -103.5t97 -38.5q61 0 91.5 36.5t30.5 85.5q0 44 -15 73.5t-35 56.5q-23 31 -40.5 69t-12.5 92h133q-1 -39 14 -66t37 -58q21 -31 37.5 -68.5t16.5 -94.5q0 -69 -31.5 -122t-89.5 -82.5t-136 -29.5z" />
    <glyph glyph-name="uni1CA2" unicode="&#x1ca2;" horiz-adv-x="818" 
d="M409 -10q-113 0 -192.5 44.5t-121 126t-41.5 190.5q0 148 75.5 240t215.5 109q-2 11 -2.5 20.5t-0.5 18.5v14h133v-14q0 -9 -0.5 -18.5t-2.5 -19.5q140 -17 216 -109t76 -242q0 -105 -41.5 -186.5t-121 -127.5t-192.5 -46zM408 99q106 0 162.5 65t56.5 187
q0 110 -41 171.5t-120 75.5q2 -13 4.5 -34t2.5 -52v-166h-129v167q0 28 2 48t5 37q-81 -15 -121 -78t-40 -169q0 -122 56.5 -187t161.5 -65z" />
    <glyph glyph-name="uni1CA3" unicode="&#x1ca3;" horiz-adv-x="641" 
d="M316 -10q-77 0 -134.5 28.5t-88.5 78.5t-31 115q0 27 3 48t9 40h130q-9 -34 -9 -76q0 -54 30.5 -90t91.5 -36q67 0 95 37t28 98v302q0 84 -70 84q-32 0 -51.5 -20t-19.5 -62v-104h-125v104q0 38 -18.5 56.5t-52.5 18.5h-63v107h65q45 0 80.5 -18t53.5 -63h3
q18 43 57 64.5t88 21.5q87 0 134 -48.5t47 -128.5v-318q0 -112 -65.5 -175.5t-186.5 -63.5z" />
    <glyph glyph-name="uni1CA4" unicode="&#x1ca4;" horiz-adv-x="934" 
d="M559 -10q-91 0 -159 21t-105 59.5t-37 93.5q0 18 4 36h128q-2 -8 -2 -18q0 -46 48 -67.5t126 -21.5q82 0 122.5 33t40.5 79q0 37 -25.5 63.5t-79.5 26.5h-19v101h37q50 0 78.5 33t28.5 82q0 48 -22 79t-70 31q-45 0 -71 -30t-26 -81v-30q0 -67 -30.5 -119t-87 -81
t-134.5 -29q-72 0 -128.5 29.5t-89 82t-32.5 121.5q0 73 31 126.5t87 83.5t131 30q62 0 112.5 -25.5t72.5 -73.5h4q20 48 65.5 73.5t109.5 25.5q67 0 115 -26.5t73 -71t25 -96.5q0 -81 -36.5 -123.5t-89.5 -57.5v-3q52 -14 79 -53t27 -92q0 -60 -35 -107.5t-102 -75.5
t-164 -28zM306 353q60 0 88.5 39t28.5 94q0 57 -28.5 96t-89.5 39q-59 0 -88 -39t-29 -96q0 -56 29 -94.5t89 -38.5z" />
    <glyph glyph-name="uni1CA5" unicode="&#x1ca5;" horiz-adv-x="625" 
d="M303 -10q-78 0 -135.5 27.5t-88.5 75t-31 106.5q0 20 3 38t9 36h129q-8 -33 -8 -60q0 -54 31.5 -86.5t90.5 -32.5q66 0 94 40.5t28 103.5v125q0 42 -10.5 76t-35.5 54.5t-69 20.5q-45 0 -73.5 -24.5t-28.5 -70.5q0 -20 3 -40h-129q-3 11 -4.5 24.5t-1.5 29.5q0 58 28 99
t72.5 63t94.5 22q58 0 95.5 -20.5t60.5 -50.5h4q-3 16 -5 39.5t-2 46.5v82h128v-478q0 -116 -64 -181t-185 -65z" />
    <glyph glyph-name="uni1CA6" unicode="&#x1ca6;" horiz-adv-x="876" 
d="M527 0q-6 37 -33 60.5t-66.5 35.5t-82.5 12q-46 0 -87 -10.5t-77 -28.5l-44 83q18 12 45 21.5t61 11.5v4q-89 35 -139 107.5t-50 174.5q0 73 25 130t73.5 89t119.5 32q63 0 104.5 -25.5t58.5 -71.5h6q19 49 60 73t99 24q72 0 121 -32t75 -88.5t26 -130.5q0 -63 -15 -117
t-48 -110l-112 42q22 44 32 89t10 94q0 66 -25 108t-79 42q-43 0 -63.5 -29t-20.5 -83v-136h-126v136q0 52 -20 82t-65 30q-49 0 -76 -35t-27 -112q0 -67 20.5 -111.5t56 -73t81.5 -46.5t98 -32q53 -15 99 -41.5t76 -68t35 -99.5h-126z" />
    <glyph glyph-name="uni1CA7" unicode="&#x1ca7;" horiz-adv-x="634" 
d="M309 -10q-78 0 -135.5 27.5t-88.5 75t-31 106.5q0 18 3 36.5t9 37.5h129q-8 -33 -8 -60q0 -54 31.5 -86.5t90.5 -32.5q68 0 96 39t28 99v89q0 20 1 41t4 43h-3q-25 -33 -68 -54t-99 -21q-96 0 -154.5 59t-58.5 169q0 46 9.5 85.5t23.5 70.5h132q-14 -36 -22.5 -70
t-8.5 -82q0 -57 30 -91t82 -34q64 0 98 36.5t34 108.5v132h128v-481q0 -115 -65 -179t-187 -64z" />
    <glyph glyph-name="uni1CA8" unicode="&#x1ca8;" horiz-adv-x="643" 
d="M319 -10q-121 0 -191.5 67.5t-70.5 189.5q0 120 61 183t162 63q59 0 98 -19.5t64 -49.5h4q-2 14 -4 32.5t-2 36.5v67q0 32 -18 50t-47 18q-27 0 -43.5 -16.5t-16.5 -44.5v-32h-127v24q0 31 -19.5 47t-45.5 16q-17 0 -31.5 -4t-28.5 -9l-33 93q23 11 50.5 16.5t53.5 5.5
q35 0 68.5 -17t49.5 -56h4q19 41 57.5 57t82.5 16q46 0 85.5 -18.5t64 -56t24.5 -95.5v-305q0 -125 -65 -192t-186 -67zM319 95q67 0 98 39t31 100v12q0 37 -10.5 69.5t-39 53t-83.5 20.5q-59 0 -91.5 -39.5t-32.5 -104.5q0 -67 31.5 -108.5t96.5 -41.5z" />
    <glyph glyph-name="uni1CA9" unicode="&#x1ca9;" horiz-adv-x="630" 
d="M72 0v521q0 93 56.5 148t158.5 55q93 0 149 -40.5t56 -107.5q0 -30 -12 -57.5t-47 -49.5v-3q69 -19 106 -76.5t37 -146.5q0 -67 -12.5 -133.5t-29.5 -109.5h-128q16 38 26.5 103t10.5 135q0 67 -30 109.5t-86 42.5q-58 0 -92.5 -38t-34.5 -112v-240h-128zM194 414h5
q27 38 79 62q36 17 60.5 36t24.5 52q0 28 -21 44.5t-58 16.5q-38 0 -61 -23t-23 -64v-61q0 -27 -6 -63z" />
    <glyph glyph-name="uni1CAA" unicode="&#x1caa;" horiz-adv-x="717" 
d="M376 -10q-157 0 -239.5 94t-82.5 291q0 94 21.5 180.5t56.5 158.5h128q-32 -76 -51.5 -158t-19.5 -181q0 -138 43.5 -207.5t144.5 -69.5q77 0 118 32.5t41 92.5q0 49 -36 83t-108 34h-39v105h65q51 0 78 16.5t27 45.5q0 23 -15.5 39.5t-35.5 32.5q-18 14 -34.5 31
t-26.5 41.5t-8 62.5h131q0 -25 16 -42.5t36 -33.5q24 -20 47 -47t23 -74q0 -53 -32.5 -83t-86.5 -38v-4q54 -10 93 -53.5t39 -126.5q0 -68 -37 -118t-103 -77t-153 -27z" />
    <glyph glyph-name="uni1CAB" unicode="&#x1cab;" horiz-adv-x="640" 
d="M315 -10q-78 0 -136.5 30.5t-91.5 90t-33 145.5q0 87 29 146t79 89t115 30q59 0 100 -21.5t65 -53.5h5q-2 15 -4.5 45.5t-2.5 51.5v171h128v-461q0 -128 -66 -195.5t-187 -67.5zM315 97q67 0 99 40t32 104v16q0 37 -10 72.5t-39 58t-86 22.5t-90 -41.5t-33 -115.5
q0 -70 31 -113t96 -43z" />
    <glyph glyph-name="uni1CAC" unicode="&#x1cac;" horiz-adv-x="643" 
d="M324 -10q-121 0 -186.5 67t-65.5 192v305q0 58 24.5 95.5t64 56t85.5 18.5q45 0 83 -16t58 -57h3q17 40 51 56.5t68 16.5q25 0 52.5 -5.5t51.5 -16.5l-33 -93q-14 6 -29 9.5t-32 3.5q-26 0 -45 -16t-19 -47v-24h-128v32q0 28 -16.5 44.5t-43.5 16.5q-29 0 -47 -18
t-18 -50v-67q0 -18 -2 -36t-4 -33h5q24 30 63 49.5t99 19.5q100 0 161.5 -63t61.5 -183q0 -122 -71 -189.5t-191 -67.5zM325 95q66 0 97.5 41.5t31.5 108.5q0 65 -32.5 104.5t-91.5 39.5q-53 0 -81.5 -20t-40 -53t-11.5 -70v-12q0 -61 30.5 -100t97.5 -39z" />
    <glyph glyph-name="uni1CAD" unicode="&#x1cad;" horiz-adv-x="639" 
d="M332 -10q-76 0 -133 25.5t-88.5 71t-31.5 105.5q0 7 1 16t4 23h128q-1 -9 -1 -15v-11q0 -50 31.5 -80.5t89.5 -30.5q43 0 69.5 17t38.5 44t12 59q0 35 -12.5 60t-29 48t-30.5 52h-3q-30 -39 -73 -54.5t-89 -15.5q-41 0 -79.5 18t-63 52t-24.5 82q0 46 23.5 80t64 52.5
t90.5 18.5h101v107h129v-107h93v-100h-86v-18q0 -32 18.5 -60.5t42.5 -59t42.5 -68t18.5 -88.5q0 -66 -30 -116t-86.5 -78.5t-136.5 -28.5zM246 401q39 0 60.5 19t21.5 48v42h-80q-37 0 -58 -14.5t-21 -39.5q0 -27 22 -41t55 -14z" />
    <glyph glyph-name="uni1CAE" unicode="&#x1cae;" horiz-adv-x="640" 
d="M324 -10q-119 0 -185.5 67.5t-66.5 195.5v461h128v-171q0 -21 -2 -52t-5 -47h6q24 33 63 55t99 22q65 0 116 -30t80 -89t29 -146q0 -86 -33 -145.5t-92 -90t-137 -30.5zM325 97q65 0 96.5 43t31.5 113q0 74 -33.5 115.5t-91.5 41.5q-55 0 -84 -22.5t-39.5 -58
t-10.5 -72.5v-16q0 -65 32.5 -104.5t98.5 -39.5z" />
    <glyph glyph-name="uni1CAF" unicode="&#x1caf;" horiz-adv-x="608" 
d="M302 -10q-77 0 -134 27.5t-88.5 75t-31.5 106.5q0 20 3 38t9 36h129q-8 -33 -8 -60q0 -54 31.5 -86.5t89.5 -32.5t91 27t33 69t-25.5 71t-61.5 56q-47 35 -74.5 80t-27.5 96v30l-179 26v102l179 -27v90h130v-112l181 -27v-102l-182 27v-11q0 -33 26 -61t72 -63
q37 -29 66 -70t29 -101t-31 -106t-88.5 -72t-137.5 -26z" />
    <glyph glyph-name="uni1CB0" unicode="&#x1cb0;" horiz-adv-x="609" 
d="M300 -10q-81 0 -138 24.5t-86.5 63.5t-29.5 84q0 17 5 39h126q-1 -4 -1.5 -10t-0.5 -11q0 -34 28.5 -61t95.5 -27q64 0 92.5 19.5t28.5 45.5q0 29 -24.5 48.5t-88.5 19.5h-49v99h72q33 0 56 9.5t23 37.5q0 25 -22.5 35.5t-56.5 10.5h-72v100h70q34 0 47.5 9.5t13.5 23.5
q0 18 -20 27.5t-51 18.5q-24 8 -47 22t-37.5 37t-12.5 59h130q3 -21 23.5 -31.5t54.5 -23.5q36 -14 66.5 -37.5t30.5 -65.5q0 -33 -20.5 -55.5t-69.5 -29.5v-3q41 -3 74 -27.5t33 -69.5q0 -48 -30.5 -69t-75.5 -28v-3q52 -9 84.5 -41t32.5 -82t-33 -85t-90.5 -54t-130.5 -19
z" />
    <glyph glyph-name="uni1CB1" unicode="&#x1cb1;" horiz-adv-x="725" 
d="M405 -10q-170 0 -260.5 94.5t-90.5 292.5q0 86 22.5 174.5t61.5 162.5h130q-37 -78 -59 -162t-22 -175q0 -140 53 -211.5t165 -71.5q64 0 98 18t34 48q0 27 -24 46.5t-79 19.5h-59v98h68q34 0 58.5 8.5t24.5 39.5q0 25 -23.5 34.5t-64.5 9.5h-63v100h68q38 0 51 11t13 25
q0 18 -13.5 29.5t-29.5 22.5q-24 16 -44.5 41t-16.5 69h130q1 -20 15.5 -34.5t32.5 -25.5q24 -16 43 -38.5t19 -59.5q0 -34 -20 -55t-67 -30v-3q43 -3 74 -29t31 -68q0 -44 -28 -68t-75 -31v-2q54 -9 83.5 -38t29.5 -83q0 -46 -33.5 -82t-93.5 -56.5t-139 -20.5z" />
    <glyph glyph-name="uni1CB2" unicode="&#x1cb2;" horiz-adv-x="635" 
d="M84 0v109q29 1 60 6t67 17v2q-75 57 -116 138t-41 175q0 91 35 152.5t94.5 93t133.5 31.5q75 0 134.5 -31.5t94.5 -93t35 -152.5q0 -95 -40.5 -175.5t-115.5 -137.5v-2q34 -12 65 -17t62 -6v-109q-64 2 -123.5 17.5t-111.5 39.5q-53 -25 -111 -40t-122 -17zM317 181
q56 42 92.5 109t36.5 158q0 81 -34.5 124.5t-94.5 43.5q-58 0 -93 -43.5t-35 -124.5q0 -90 36 -157.5t92 -109.5z" />
    <glyph glyph-name="uni1CB3" unicode="&#x1cb3;" horiz-adv-x="623" 
d="M312 -10q-83 0 -142 27.5t-90.5 75t-31.5 106.5q0 20 3 38t9 36h129q-8 -33 -8 -60q0 -54 33 -86.5t99 -32.5t96.5 36.5t30.5 87.5q0 62 -37.5 95.5t-105.5 33.5h-76v90l166 173h-300v104h463v-90l-184 -184q54 -7 101.5 -34t77.5 -74.5t30 -116.5q0 -67 -32 -117.5
t-91 -79t-140 -28.5z" />
    <glyph glyph-name="uni1CB4" unicode="&#x1cb4;" horiz-adv-x="605" 
d="M302 -10q-81 0 -138 24.5t-86.5 63.5t-29.5 84q0 17 5 39h126q-1 -4 -1.5 -10t-0.5 -11q0 -33 28.5 -60.5t96.5 -27.5q63 0 91.5 19.5t28.5 45.5q0 29 -24.5 48.5t-87.5 19.5h-47v99h69q33 0 55.5 9t22.5 32q0 26 -29.5 36.5t-69.5 22.5q-31 9 -63.5 20.5t-60.5 29
t-45 45t-17 69.5q0 60 55 98t148 38q45 0 88 -10.5t81 -32.5l-44 -92q-28 15 -59 24t-67 9t-56 -9.5t-20 -25.5q0 -23 25.5 -34t79.5 -25q32 -8 65.5 -19.5t61.5 -28.5t45 -42.5t17 -63.5q0 -42 -30 -66.5t-76 -33.5v-3q52 -9 84.5 -41t32.5 -82t-33 -85t-90.5 -54
t-130.5 -19z" />
    <glyph glyph-name="uni1CB5" unicode="&#x1cb5;" horiz-adv-x="696" 
d="M304 -10q-120 0 -185 45t-65 125q0 78 62.5 120.5t172.5 42.5h134v80h-146q-101 0 -157.5 40.5t-56.5 116.5t65 120t179 44q117 0 181.5 -48.5t64.5 -139.5v-36h108v-97h-108v-80h108v-96h-108v-37q0 -97 -64 -148.5t-185 -51.5zM289 500h134v35q0 41 -27.5 66t-88.5 25
q-54 0 -82.5 -17t-28.5 -49t25 -46t68 -14zM306 88q66 0 91.5 29.5t25.5 71.5v38h-129q-46 0 -76 -16t-30 -51t31.5 -53.5t86.5 -18.5z" />
    <glyph glyph-name="uni1CB6" unicode="&#x1cb6;" horiz-adv-x="852" 
d="M485 724v-88q117 -3 185.5 -39.5t98 -96t29.5 -130.5q0 -47 -15.5 -93.5t-51 -86t-96 -64t-150.5 -26.5v-110h-118v110q-92 2 -152.5 27t-95.5 64.5t-50 86.5t-15 92q0 70 30 129.5t98.5 96.5t184.5 40v88h118zM367 534q-71 -3 -112.5 -24t-59.5 -57t-18 -82
q0 -75 45.5 -120.5t144.5 -49.5v333zM485 534v-333q101 4 145.5 49.5t44.5 120.5q0 70 -41.5 114.5t-148.5 48.5z" />
    <glyph glyph-name="uni1CB7" unicode="&#x1cb7;" horiz-adv-x="602" 
d="M300 -10q-75 0 -131.5 25t-88.5 70t-32 108q0 50 17.5 86t47 61t67 43.5t76.5 34.5q75 30 111.5 54.5t36.5 65.5q0 40 -27.5 61.5t-72.5 21.5q-55 0 -79.5 -22.5t-24.5 -58.5q0 -5 0.5 -11t1.5 -10h-130q-3 15 -3 31q0 50 28 89.5t79.5 62t124.5 22.5q107 0 171.5 -51
t64.5 -139q0 -58 -27 -96.5t-74 -66t-107 -53.5q-66 -27 -106.5 -54.5t-40.5 -72.5q0 -47 33 -72.5t87 -25.5q55 0 87 26t32 75q0 19 -3 34h131q5 -21 5 -43q0 -97 -69.5 -146t-184.5 -49z" />
    <glyph glyph-name="uni1CB8" unicode="&#x1cb8;" horiz-adv-x="634" 
d="M325 -10q78 0 135.5 27.5t88.5 75t31 106.5q0 18 -3 36.5t-9 37.5h-129q8 -33 8 -60q0 -54 -31.5 -86.5t-90.5 -32.5q-68 0 -96 39t-28 99v89q0 20 -1 41t-4 43h3q25 -33 68 -54t99 -21q96 0 154.5 59t58.5 169q0 46 -9.5 85.5t-23.5 70.5h-132q14 -36 22.5 -70t8.5 -82
q0 -57 -30 -91t-82 -34q-64 0 -98 36.5t-34 108.5v132h-128v-481q0 -115 65 -179t187 -64z" />
    <glyph glyph-name="uni1CB9" unicode="&#x1cb9;" horiz-adv-x="621" 
d="M312 723q71 0 130.5 -30t95 -86.5t35.5 -134.5t-31 -130t-86 -81.5t-127 -36.5q-53 -6 -76.5 -23.5t-23.5 -49.5q0 -28 22 -45.5t60 -17.5t60.5 18.5t22.5 48.5q0 11 -3 26h127q5 -24 5 -43q0 -44 -27.5 -77.5t-75 -52t-109.5 -18.5q-97 0 -154.5 42.5t-57.5 109.5
q0 38 19.5 69.5t66.5 47.5v4q-59 20 -97.5 72t-38.5 137q0 78 34 134.5t93 86.5t136 30zM310 615q-57 0 -92 -40.5t-35 -102.5q0 -68 35 -105.5t93 -37.5q57 0 92 38t35 105q0 62 -35 102.5t-93 40.5z" />
    <glyph glyph-name="uni1CBA" unicode="&#x1cba;" horiz-adv-x="547" 
d="M113 -9v123l122 49v3q-51 11 -92 45.5t-65 89.5t-24 127q0 91 35 157t98.5 102.5t148.5 36.5q51 0 98.5 -12.5t82.5 -32.5l-46 -103q-33 16 -63 26t-66 10q-71 0 -111.5 -50t-40.5 -140q0 -91 41 -139.5t113 -48.5q43 0 76 9.5t75 29.5v-124z" />
    <glyph glyph-name="uni1CBD" unicode="&#x1cbd;" horiz-adv-x="602" 
d="M301 -10q-113 0 -183 49t-70 146q0 22 6 43h130q-3 -15 -3 -34q0 -49 32.5 -75t87.5 -26q53 0 86 25.5t33 72.5q0 31 -20 52t-53.5 36.5t-73.5 32.5q-59 25 -106 53t-74.5 68t-27.5 101q0 88 64.5 139t171.5 51q73 0 125 -22.5t79.5 -62t27.5 -89.5q0 -16 -4 -31h-128
q0 4 1 10t1 11q0 36 -25 58.5t-80 22.5q-45 0 -73 -21.5t-28 -61.5q0 -46 40 -72t110 -55q39 -15 76 -33t66.5 -42t47 -58t17.5 -82q0 -64 -32 -110t-88.5 -71t-132.5 -25z" />
    <glyph glyph-name="uni1CBE" unicode="&#x1cbe;" horiz-adv-x="635" 
d="M84 714q64 -2 122 -17t111 -40q52 24 111.5 39.5t123.5 17.5v-109q-31 -1 -62 -6t-65 -17v-2q75 -57 115.5 -137.5t40.5 -175.5q0 -91 -35 -152.5t-94.5 -93t-134.5 -31.5q-74 0 -133.5 31.5t-94.5 93t-35 152.5q0 94 41 175t116 138v2q-36 12 -67 17t-60 6v109zM317 533
q-56 -42 -92 -109.5t-36 -157.5q0 -81 35 -124.5t93 -43.5q60 0 94.5 43.5t34.5 124.5q0 91 -36.5 158t-92.5 109z" />
    <glyph glyph-name="uni1CBF" unicode="&#x1cbf;" horiz-adv-x="664" 
d="M332 -10q-136 0 -204.5 93t-68.5 274q0 183 69 275t204 92q136 0 205 -93t69 -274q0 -183 -69.5 -275t-204.5 -92zM332 98q71 0 105 63t34 196q0 135 -34.5 197t-104.5 62q-71 0 -105 -63t-34 -196q0 -135 34.5 -197t104.5 -62z" />
    <glyph glyph-name="uni2010" unicode="&#x2010;" horiz-adv-x="322" 
d="M34 215v106h254v-106h-254z" />
    <glyph glyph-name="uni20BE" unicode="&#x20be;" horiz-adv-x="779" 
d="M101 0v90l97 10v3q-72 44 -105.5 115.5t-33.5 155.5q0 120 59 205.5t172 113.5v77h70v-66q17 1 33 1q17 0 33 -1v66h70v-77q114 -29 171.5 -120t57.5 -227h-130q0 91 -23 152.5t-76 89.5v-242h-70v262q-15 2 -33 2q-17 0 -33 -2v-262h-70v242q-53 -27 -77 -85.5
t-24 -142.5q0 -77 28 -134.5t79 -89t119 -31.5h267v-105h-581z" />
    <glyph glyph-name="uni2D00" unicode="&#x2d00;" horiz-adv-x="715" 
d="M365 0q-105 0 -156 40.5t-51 136.5v198q0 38 -17 52.5t-46 14.5h-78v100h148q36 0 64.5 -16t44.5 -57h6q26 41 70.5 62t98.5 21q92 0 143 -47t51 -152v-106h-125v81q0 122 -101 122q-76 0 -104.5 -46.5t-28.5 -127.5v-88q0 -47 24 -67.5t78 -20.5h224v-100h-245z" />
    <glyph glyph-name="uni2D01" unicode="&#x2d01;" horiz-adv-x="669" 
d="M349 -250q-72 0 -127.5 8t-105.5 27v108q48 -20 101.5 -30.5t116.5 -10.5q182 0 182 99q0 25 -6.5 43.5t-15.5 32.5q-12 16 -20 32.5t-12 36.5h-5q-29 -58 -79.5 -82t-108.5 -24q-91 0 -142.5 47t-51.5 151v354h126v-329q0 -121 100 -121q72 0 102.5 45t30.5 140v265h126
v-361q0 -35 11 -59t26 -46q18 -25 31.5 -55t13.5 -77q0 -97 -79 -145.5t-214 -48.5z" />
    <glyph glyph-name="uni2D02" unicode="&#x2d02;" horiz-adv-x="675" 
d="M354 -250q-72 0 -127.5 8t-105.5 27v108q48 -20 101.5 -30.5t116.5 -10.5q183 0 183 103q0 27 -10.5 48.5t-26.5 41.5q-17 24 -31 54.5t-14 77.5v151q0 122 -101 122q-76 0 -104 -48t-28 -137v-265h-126v542h97l18 -73h6q26 41 70.5 62t98.5 21q92 0 143 -47t51 -152
v-166q0 -35 10.5 -58.5t27.5 -46.5q18 -25 31.5 -56.5t13.5 -81.5q0 -97 -79.5 -145.5t-214.5 -48.5z" />
    <glyph glyph-name="uni2D03" unicode="&#x2d03;" 
d="M305 -10q-78 0 -135.5 31t-89 89t-31.5 140q0 98 53 165.5t150 103.5q-13 21 -19.5 50.5t-6.5 67.5v21h-154v102h465v-102h-188v-20q0 -45 16 -73t57 -60q51 -38 82.5 -75.5t46 -82.5t14.5 -105q0 -124 -70 -188t-190 -64zM305 92q62 0 96.5 37.5t34.5 116.5
q0 54 -20.5 93t-66.5 76q-12 10 -22 19t-15 17q-64 -25 -99 -73t-35 -126q0 -80 34.5 -120t92.5 -40z" />
    <glyph glyph-name="uni2D04" unicode="&#x2d04;" horiz-adv-x="642" 
d="M371 552q91 0 142.5 -47t51.5 -152v-593h-126v568q0 122 -100 122q-76 0 -104 -48t-28 -137v-265h-126v542h97l18 -71h7q26 42 71.5 61.5t96.5 19.5z" />
    <glyph glyph-name="uni2D05" unicode="&#x2d05;" horiz-adv-x="964" 
d="M702 552q92 0 138.5 -47t46.5 -152v-353h-126v329q0 121 -92 121q-66 0 -94 -43t-28 -125v-522h-126v569q0 121 -93 121q-69 0 -95 -48t-26 -137v-265h-126v542h97l18 -71h7q24 42 67.5 61.5t90.5 19.5q61 0 102.5 -20.5t63.5 -63.5h10q25 44 70 64t95 20z" />
    <glyph glyph-name="uni2D06" unicode="&#x2d06;" horiz-adv-x="703" 
d="M442 552q99 0 155.5 -73t56.5 -207q0 -135 -63.5 -208.5t-185.5 -73.5q-121 0 -184 72t-63 211v319q0 37 -16 52.5t-47 15.5h-78v100h132q73 0 104 -38.5t31 -91.5v-50q0 -27 -2 -54t-4 -55h6q24 38 63.5 59.5t94.5 21.5zM406 92q62 0 90.5 47.5t28.5 132.5
q0 178 -118 178q-63 0 -93 -38t-30 -124v-19q0 -87 28.5 -132t93.5 -45z" />
    <glyph glyph-name="uni2D07" unicode="&#x2d07;" horiz-adv-x="961" 
d="M263 -10q-92 0 -139 47t-47 151v354h98l17 -71h7q23 39 65 60t94 21q127 0 168 -89h5q23 44 68 66.5t99 22.5q94 0 140 -48t46 -151v-353h-126v329q0 121 -92 121q-62 0 -92.5 -40.5t-30.5 -127.5v-282h-97l-18 70h-6q-22 -37 -64 -58.5t-95 -21.5zM295 92
q64 0 93.5 43.5t29.5 141.5v52q0 60 -22.5 90.5t-70.5 30.5q-63 0 -92.5 -43t-29.5 -142v-52q0 -121 92 -121z" />
    <glyph glyph-name="uni2D08" unicode="&#x2d08;" horiz-adv-x="456" 
d="M254 0v337q0 55 -22.5 79t-74.5 24h-140v102h157q112 0 159 -46t47 -152v-344h-126z" />
    <glyph glyph-name="uni2D09" unicode="&#x2d09;" horiz-adv-x="647" 
d="M444 -240v202q0 51 6 109h-6q-24 -38 -63.5 -59.5t-95.5 -21.5q-98 0 -153 73t-55 208v489h126v-180q0 -27 -1.5 -54t-4.5 -55h6q25 38 64 59.5t95 21.5q98 0 153 -73.5t55 -207.5v-511h-126zM321 92q63 0 93 38.5t30 126.5v19q0 174 -118 174q-62 0 -92.5 -38.5
t-30.5 -128.5v-18q0 -85 30 -129t88 -44z" />
    <glyph glyph-name="uni2D0A" unicode="&#x2d0a;" horiz-adv-x="964" 
d="M606 -10q-92 0 -138.5 47t-46.5 151v141q0 60 -22 90.5t-71 30.5q-63 0 -92 -43t-29 -142v-265h-126v542h97l18 -71h7q22 38 63.5 59.5t94.5 21.5q62 0 104.5 -21.5t63.5 -67.5h5q23 44 68 66.5t100 22.5q92 0 138.5 -47t46.5 -152v-353h-97l-18 70h-7q-23 -38 -64.5 -59
t-94.5 -21zM639 92q64 0 93 43t29 142v52q0 121 -92 121q-62 0 -92 -40.5t-30 -127.5v-69q0 -61 22 -91t70 -30z" />
    <glyph glyph-name="uni2D0B" unicode="&#x2d0b;" horiz-adv-x="622" 
d="M297 -10q-119 0 -183.5 74.5t-64.5 204.5q0 139 58 206t177 67h136v34q0 81 -84 81h-223v103h238q195 0 195 -181v-309q0 -142 -61.5 -211t-187.5 -69zM299 92q67 0 94 45t27 130v173h-121q-69 0 -95.5 -40.5t-26.5 -129.5q0 -178 122 -178z" />
    <glyph glyph-name="uni2D0C" unicode="&#x2d0c;" horiz-adv-x="639" 
d="M77 0v563q0 102 50.5 149.5t155.5 47.5h257v-103h-245q-50 0 -71 -21.5t-21 -72.5v-20q0 -34 -6 -72h7q51 81 162 81q196 0 196 -199v-353h-126v328q0 122 -100 122q-70 0 -101.5 -43.5t-31.5 -141.5v-265h-126z" />
    <glyph glyph-name="uni2D0D" unicode="&#x2d0d;" horiz-adv-x="964" 
d="M263 -10q-93 0 -139.5 47t-46.5 152v353h126v-329q0 -121 92 -121q62 0 92.5 40.5t30.5 127.5v282h125v-329q0 -61 22.5 -91t70.5 -30q63 0 92.5 43.5t29.5 141.5v265h126v-542h-98l-18 71h-6q-24 -39 -66 -60t-93 -21q-62 0 -104.5 20.5t-63.5 66.5h-5q-23 -43 -68 -65
t-99 -22z" />
    <glyph glyph-name="uni2D0E" unicode="&#x2d0e;" horiz-adv-x="724" 
d="M517 542h126v-542h-98l-18 70h-6q-25 -38 -68.5 -59t-100.5 -21q-194 0 -194 198v187q0 37 -16 52t-47 15h-78v100h132q73 0 104 -38.5t31 -91.5v-199q0 -61 24 -91t76 -30q70 0 101.5 43t31.5 142v265z" />
    <glyph glyph-name="uni2D0F" unicode="&#x2d0f;" horiz-adv-x="724" 
d="M517 -240v213q0 28 2.5 49t9.5 48h-8q-25 -38 -68.5 -59t-100.5 -21q-194 0 -194 198v187q0 37 -16 52t-47 15h-78v100h132q73 0 104 -38.5t31 -91.5v-199q0 -61 24 -91t76 -30q70 0 101.5 43t31.5 142v265h126v-782h-126z" />
    <glyph glyph-name="uni2D10" unicode="&#x2d10;" horiz-adv-x="962" 
d="M262 -10q-91 0 -138 49t-47 149v354h126v-329q0 -121 93 -121q63 0 92.5 43t29.5 142v483h126v-181q0 -37 -1.5 -64t-5.5 -44h5q49 81 159 81q90 0 137 -49.5t47 -149.5v-353h-126v328q0 61 -22.5 91.5t-69.5 30.5q-64 0 -93.5 -43t-29.5 -142v-265h-106l-14 70h-4
q-24 -40 -65.5 -60t-92.5 -20z" />
    <glyph glyph-name="uni2D11" unicode="&#x2d11;" horiz-adv-x="643" 
d="M272 -10q-195 0 -195 198v572h127v-547q0 -121 99 -121q71 0 102 43t31 142v265h126v-542h-98l-17 70h-7q-24 -38 -67.5 -59t-100.5 -21z" />
    <glyph glyph-name="uni2D12" unicode="&#x2d12;" horiz-adv-x="626" 
d="M364 552q100 0 156.5 -75t56.5 -207t-56 -206t-155 -74q-51 0 -91.5 19.5t-67.5 61.5h-4q1 -12 2 -32t1 -35v-24q0 -66 33 -100.5t95 -34.5q114 0 207 42v-104q-44 -18 -93 -25.5t-107 -7.5q-130 0 -195 60t-65 176v556h105l12 -70h4q58 80 162 80zM330 449
q-68 0 -99 -42t-31 -138v-19q0 -87 31 -123.5t97 -36.5q120 0 120 178q0 181 -118 181z" />
    <glyph glyph-name="uni2D13" unicode="&#x2d13;" horiz-adv-x="964" 
d="M758 -240v213q0 26 2.5 48t7.5 50h-6q-24 -38 -66.5 -59.5t-92.5 -21.5q-124 0 -165 84h-10q-24 -39 -67.5 -61.5t-97.5 -22.5q-93 0 -139.5 47t-46.5 152v353h126v-329q0 -121 92 -121q62 0 92.5 40.5t30.5 127.5v282h125v-329q0 -61 22.5 -91t70.5 -30q63 0 92.5 43.5
t29.5 141.5v483h126v-1000h-126z" />
    <glyph glyph-name="uni2D14" unicode="&#x2d14;" horiz-adv-x="928" 
d="M402 -240v211q0 24 1.5 53t4.5 46h-5q-25 -38 -61 -59t-87 -21q-95 0 -150.5 73t-55.5 209q0 135 54.5 207.5t148.5 72.5q54 0 89.5 -21.5t60.5 -59.5h4l24 71h69l24 -71h5q24 38 60 59.5t90 21.5q93 0 147.5 -72.5t54.5 -207.5q0 -136 -55.5 -209t-150.5 -73
q-52 0 -87 21t-61 59h-5q3 -17 5 -46t2 -53v-211h-126zM290 94q62 0 90 42.5t28 136.5v16q0 85 -28.5 123t-88.5 38q-54 0 -83.5 -43.5t-29.5 -132.5q0 -88 29.5 -134t82.5 -46zM640 94q52 0 81.5 46t29.5 134q0 89 -29.5 132.5t-83.5 43.5q-60 0 -88 -38t-28 -123v-16
q0 -94 27.5 -136.5t90.5 -42.5z" />
    <glyph glyph-name="uni2D15" unicode="&#x2d15;" horiz-adv-x="509" 
d="M191 -240v680h-174v102h174v218h126v-218h175v-102h-175v-680h-126z" />
    <glyph glyph-name="uni2D16" unicode="&#x2d16;" horiz-adv-x="642" 
d="M371 552q91 0 142.5 -47t51.5 -152v-353h-126v328q0 122 -100 122q-76 0 -104 -48t-28 -137v-265h-126v542h97l18 -71h7q26 42 71.5 61.5t96.5 19.5z" />
    <glyph glyph-name="uni2D17" unicode="&#x2d17;" horiz-adv-x="643" 
d="M436 -240v213q0 53 12 97h-8q-24 -38 -67.5 -59t-100.5 -21q-195 0 -195 198v354h127v-329q0 -121 99 -121q71 0 102 43t31 142v265h126v-782h-126z" />
    <glyph glyph-name="uni2D18" unicode="&#x2d18;" horiz-adv-x="643" 
d="M311 -250q-125 0 -209 33v107q88 -38 198 -38q136 0 136 123v21q0 15 1.5 33t4.5 38h-7q-49 -77 -163 -77q-195 0 -195 198v354h127v-329q0 -121 99 -121q71 0 102 43t31 142v265h126v-541q0 -131 -60 -191t-191 -60z" />
    <glyph glyph-name="uni2D19" unicode="&#x2d19;" horiz-adv-x="642" 
d="M81 -240v1000h126v-181q0 -27 -1.5 -51.5t-5.5 -56.5h8q50 81 161 81q196 0 196 -199v-353h-126v328q0 122 -100 122q-69 0 -100.5 -43.5t-31.5 -141.5v-505h-126z" />
    <glyph glyph-name="uni2D1A" unicode="&#x2d1a;" horiz-adv-x="642" 
d="M318 -250q-121 0 -179 58t-58 179v555h97l18 -71h7q24 40 68.5 60.5t99.5 20.5q194 0 194 -199v-353h-126v328q0 61 -24 91.5t-76 30.5q-70 0 -101 -43t-31 -142v-287q0 -65 31 -95.5t94 -30.5q56 0 106.5 10.5t95.5 27.5v-107q-91 -33 -216 -33z" />
    <glyph glyph-name="uni2D1B" unicode="&#x2d1b;" horiz-adv-x="945" 
d="M250 -10q-95 0 -148 74t-53 206q0 133 54 207.5t149 74.5q100 0 153 -79h6q-4 22 -6.5 51t-2.5 58v178h126v-181q0 -34 -2.5 -61t-6.5 -47h5q24 39 65.5 60t93.5 21q185 0 185 -199v-353h-126v328q0 61 -22 91.5t-70 30.5q-64 0 -93 -43t-29 -142v-265h-98l-23 71h-5
q-53 -81 -152 -81zM289 92q61 0 90 37t29 124v16q0 98 -29 139t-91 41q-54 0 -82.5 -46.5t-28.5 -134.5q0 -176 112 -176z" />
    <glyph glyph-name="uni2D1C" unicode="&#x2d1c;" horiz-adv-x="964" 
d="M81 -240v782h97l18 -71h7q22 38 63.5 59.5t94.5 21.5q124 0 166 -84h10q23 40 66.5 62t98.5 22q92 0 138.5 -47t46.5 -152v-353h-126v329q0 121 -92 121q-62 0 -92 -40.5t-30 -127.5v-282h-126v329q0 60 -22 90.5t-71 30.5q-63 0 -92 -43t-29 -142v-505h-126z" />
    <glyph glyph-name="uni2D1D" unicode="&#x2d1d;" horiz-adv-x="637" 
d="M295 -250q-65 0 -117 8t-96 27v107q86 -41 203 -41q83 0 118 23.5t35 57.5q0 41 -29.5 56.5t-80.5 15.5h-247v538h97l18 -73h6q26 41 70.5 62t98.5 21q92 0 143 -47t51 -152v-106h-125v81q0 122 -101 122q-76 0 -104 -46.5t-28 -127.5v-173h142q95 0 155 -40.5t60 -127.5
q0 -82 -65.5 -133.5t-203.5 -51.5z" />
    <glyph glyph-name="uni2D1E" unicode="&#x2d1e;" horiz-adv-x="642" 
d="M318 -250q-121 0 -179 56.5t-58 180.5v555h126v-265q0 -99 31.5 -142t100.5 -43q52 0 76 30.5t24 91.5v328h126v-350q0 -202 -194 -202q-115 0 -163 78h-8q4 -23 5.5 -46.5t1.5 -42.5q0 -68 29.5 -97.5t95.5 -29.5q109 0 206 38v-107q-89 -33 -220 -33z" />
    <glyph glyph-name="uni2D1F" unicode="&#x2d1f;" horiz-adv-x="570" 
d="M-61 -240l311 471l-153 214h-77v97h531v-86l-156 -223l169 -233h-141l-98 148l-247 -388h-139zM322 308l94 139h-189z" />
    <glyph glyph-name="uni2D20" unicode="&#x2d20;" horiz-adv-x="969" 
d="M606 -10q-185 0 -185 198v140q0 61 -22 91.5t-70 30.5q-64 0 -93 -43t-29 -142v-265h-126v542h98l14 -81h5q45 91 165 91q184 0 184 -199v-140q0 -121 93 -121q64 0 93 43.5t29 141.5v265h126v-542h-98l-17 70h-7q-23 -37 -64.5 -58.5t-95.5 -21.5z" />
    <glyph glyph-name="uni2D21" unicode="&#x2d21;" horiz-adv-x="588" 
d="M81 -240v1000h126v-277h3q21 34 53.5 51.5t80.5 17.5q63 0 98.5 -32t35.5 -92q0 -31 12 -46t40 -15h41v-101h-74q-71 0 -108 31.5t-37 89.5q0 64 -56 64q-44 0 -66.5 -36.5t-22.5 -104.5v-550h-126z" />
    <glyph glyph-name="uni2D22" unicode="&#x2d22;" horiz-adv-x="612" 
d="M297 -10q-76 0 -132 27.5t-86 75t-30 105.5q0 28 8 60h123q-5 -27 -5 -46q0 -56 33.5 -89.5t88.5 -33.5q67 0 102 47t35 134q0 84 -39.5 129t-124.5 45h-203v98h208q142 0 215 -67.5t73 -202.5q0 -130 -68.5 -206t-197.5 -76z" />
    <glyph glyph-name="uni2D23" unicode="&#x2d23;" horiz-adv-x="643" 
d="M436 -240v213q0 53 12 97h-8q-24 -38 -67.5 -59t-100.5 -21q-195 0 -195 198v354h127v-329q0 -121 99 -121q71 0 102 43t31 142v483h126v-1000h-126z" />
    <glyph glyph-name="uni2D24" unicode="&#x2d24;" horiz-adv-x="632" 
d="M253 -240v237q-176 27 -176 218v327h126v-328q0 -58 29.5 -89.5t83.5 -31.5t83.5 31.5t29.5 89.5v328h126v-329q0 -91 -46 -146.5t-130 -69.5v-237h-126z" />
    <glyph glyph-name="uni2D25" unicode="&#x2d25;" horiz-adv-x="945" 
d="M683 552q185 0 185 -199v-353h-126v328q0 61 -22 91.5t-70 30.5q-64 0 -93 -43t-29 -142v-265h-98l-23 71h-5q-53 -81 -152 -81q-95 0 -148 74t-53 206q0 133 54 207.5t149 74.5q100 0 153 -79h6q-4 22 -6.5 49.5t-2.5 46.5v17q0 85 50.5 129.5t155.5 44.5h235v-103h-230
q-85 0 -85 -78v-20q0 -19 -2.5 -43.5t-6.5 -44.5h5q24 39 65.5 60t93.5 21zM408 253v16q0 98 -29 139t-91 41q-54 0 -82.5 -46.5t-28.5 -134.5q0 -176 112 -176q61 0 90 37t29 124z" />
    <glyph glyph-name="uni2D27" unicode="&#x2d27;" horiz-adv-x="553" 
d="M275 -250q-69 0 -121 26t-81 74.5t-29 115.5q0 74 27.5 122.5t73 82.5t98.5 63q45 24 72 44t38.5 41.5t11.5 50.5q0 36 -22.5 57.5t-64.5 21.5q-46 0 -68 -22t-22 -60q0 -13 3 -26h-124q-4 17 -4 35q0 79 57 127.5t156 48.5q103 0 159.5 -50t56.5 -134q0 -53 -21 -91.5
t-63 -71t-104 -68.5q-38 -22 -67.5 -44.5t-46.5 -53t-17 -77.5q0 -50 30 -79.5t72 -29.5q46 0 76.5 28.5t30.5 83.5q0 19 -3 36.5t-7 28.5h127q5 -16 7.5 -33.5t2.5 -39.5q0 -71 -30 -116.5t-83 -68t-121 -22.5z" />
    <glyph glyph-name="uni2D2D" unicode="&#x2d2d;" horiz-adv-x="481" 
d="M448 0h-416v77l266 369h-251v96h393v-85l-261 -360h269v-97z" />
    <glyph glyph-name="macroncomb" horiz-adv-x="600" 
d="M94 0v714h411v-714h-411zM145 51h309v612h-309v-612z" />
    <glyph glyph-name="uni1C90_uni0308.ccmp" 
d="M303 -10q-78 0 -135 29t-88.5 82t-31.5 125q0 29 3.5 57.5t18.5 68.5h-59l67 21q-4 -11 -8 -21h131q-13 -37 -16 -66.5t-3 -50.5q0 -59 30 -98t91 -39q65 0 93.5 41t28.5 104q0 68 -26 117.5t-59 91.5q-31 39 -56.5 77t-39 82.5t-5.5 102.5h130q-4 -40 7.5 -73.5
t33 -64.5t45.5 -64q25 -33 49 -71.5t40 -86.5t16 -110q0 -77 -31 -134t-88.5 -88.5t-137.5 -31.5zM207 370l48 -18h-54zM147 844q0 31 17.5 45t42.5 14q24 0 42.5 -14t18.5 -45q0 -30 -18.5 -44.5t-42.5 -14.5q-25 0 -42.5 14.5t-17.5 44.5zM340 844q0 31 17.5 45t43.5 14
q24 0 42 -14t18 -45q0 -30 -18 -44.5t-42 -14.5q-26 0 -43.5 14.5t-17.5 44.5z" />
    <glyph glyph-name="uni1C90_acutecomb.ccmp" 
d="M303 -10q-78 0 -135 29t-88.5 82t-31.5 125q0 29 3.5 57.5t18.5 68.5h-59l67 21q-4 -11 -8 -21h131q-13 -37 -16 -66.5t-3 -50.5q0 -59 30 -98t91 -39q65 0 93.5 41t28.5 104q0 68 -26 117.5t-59 91.5q-31 39 -56.5 77t-39 82.5t-5.5 102.5h130q-4 -40 7.5 -73.5
t33 -64.5t45.5 -64q25 -33 49 -71.5t40 -86.5t16 -110q0 -77 -31 -134t-88.5 -88.5t-137.5 -31.5zM207 370l48 -18h-54zM451 938v-10q-17 -18 -47 -47t-63 -57t-58 -46h-84v13q16 18 36 44t39.5 53.5t32.5 49.5h144z" />
    <glyph glyph-name="uni1C90_uni0304.ccmp" 
d="M303 -10q-78 0 -135 29t-88.5 82t-31.5 125q0 29 3.5 57.5t18.5 68.5h-59l67 21q-4 -11 -8 -21h131q-13 -37 -16 -66.5t-3 -50.5q0 -59 30 -98t91 -39q65 0 93.5 41t28.5 104q0 68 -26 117.5t-59 91.5q-31 39 -56.5 77t-39 82.5t-5.5 102.5h130q-4 -40 7.5 -73.5
t33 -64.5t45.5 -64q25 -33 49 -71.5t40 -86.5t16 -110q0 -77 -31 -134t-88.5 -88.5t-137.5 -31.5zM207 370l48 -18h-54zM464 879v-91h-318v91h318z" />
    <glyph glyph-name="uni1C90_uni0304_uni0308.ccmp" 
d="M303 -10q-78 0 -135 29t-88.5 82t-31.5 125q0 29 3.5 57.5t18.5 68.5h-59l67 21q-4 -11 -8 -21h131q-13 -37 -16 -66.5t-3 -50.5q0 -59 30 -98t91 -39q65 0 93.5 41t28.5 104q0 68 -26 117.5t-59 91.5q-31 39 -56.5 77t-39 82.5t-5.5 102.5h130q-4 -40 7.5 -73.5
t33 -64.5t45.5 -64q25 -33 49 -71.5t40 -86.5t16 -110q0 -77 -31 -134t-88.5 -88.5t-137.5 -31.5zM207 370l48 -18h-54zM464 879v-91h-318v91h318zM147 1008q0 31 17.5 45t42.5 14q24 0 42.5 -14t18.5 -45q0 -30 -18.5 -44.5t-42.5 -14.5q-25 0 -42.5 14.5t-17.5 44.5z
M340 1008q0 31 17.5 45t43.5 14q24 0 42 -14t18 -45q0 -30 -18 -44.5t-42 -14.5q-26 0 -43.5 14.5t-17.5 44.5z" />
    <glyph glyph-name="uni1C94_acutecomb.ccmp" horiz-adv-x="626" 
d="M303 -10q-78 0 -135 28.5t-88.5 78.5t-31.5 115q0 48 14 88h129q-5 -16 -7 -37t-2 -39q0 -54 30.5 -90t91.5 -36q66 0 94.5 37t28.5 98v272q0 52 -29.5 81.5t-79.5 29.5q-49 0 -79 -25t-30 -75q0 -28 7 -64h-130q-4 15 -7.5 34t-3.5 42q0 64 32.5 107.5t87 66t121.5 22.5
q72 0 125.5 -26t83 -74t29.5 -116v-278q0 -113 -66 -176.5t-185 -63.5zM457 938v-10q-17 -18 -47 -47t-63 -57t-58 -46h-84v13q16 18 36 44t39.5 53.5t32.5 49.5h144z" />
    <glyph glyph-name="uni1C94_uni0304.ccmp" horiz-adv-x="626" 
d="M303 -10q-78 0 -135 28.5t-88.5 78.5t-31.5 115q0 48 14 88h129q-5 -16 -7 -37t-2 -39q0 -54 30.5 -90t91.5 -36q66 0 94.5 37t28.5 98v272q0 52 -29.5 81.5t-79.5 29.5q-49 0 -79 -25t-30 -75q0 -28 7 -64h-130q-4 15 -7.5 34t-3.5 42q0 64 32.5 107.5t87 66t121.5 22.5
q72 0 125.5 -26t83 -74t29.5 -116v-278q0 -113 -66 -176.5t-185 -63.5zM470 879v-91h-318v91h318z" />
    <glyph glyph-name="uni1C98_acutecomb.ccmp" horiz-adv-x="640" 
d="M116 0q-17 49 -30 104t-20 124.5t-7 162.5q0 119 34 192.5t93.5 107t133.5 33.5t133.5 -33.5t94 -107t34.5 -192.5q0 -92 -7.5 -162t-20 -125t-29.5 -104h-131q16 50 28 106.5t18.5 126t6.5 158.5q0 124 -34 174.5t-93 50.5t-93 -50.5t-34 -174.5q0 -90 6.5 -159.5
t18.5 -125.5t28 -106h-130zM466 942v-10q-17 -18 -47 -47t-63 -57t-58 -46h-84v13q16 18 36 44t39.5 53.5t32.5 49.5h144z" />
    <glyph glyph-name="uni1C98_uni0304.ccmp" horiz-adv-x="640" 
d="M116 0q-17 49 -30 104t-20 124.5t-7 162.5q0 119 34 192.5t93.5 107t133.5 33.5t133.5 -33.5t94 -107t34.5 -192.5q0 -92 -7.5 -162t-20 -125t-29.5 -104h-131q16 50 28 106.5t18.5 126t6.5 158.5q0 124 -34 174.5t-93 50.5t-93 -50.5t-34 -174.5q0 -90 6.5 -159.5
t18.5 -125.5t28 -106h-130zM479 883v-91h-318v91h318z" />
    <glyph glyph-name="uni1C9D_uni0308.ccmp" horiz-adv-x="916" 
d="M135 0q-24 58 -41 118.5t-26 130t-9 155.5q0 115 32.5 185.5t85.5 102.5t114 32q31 0 63.5 -9.5t60 -32.5t42.5 -65h3q16 41 43 64.5t59.5 33t65.5 9.5q60 0 112.5 -32t85 -102.5t32.5 -185.5q0 -90 -10 -159t-27 -128t-39 -117h-133q33 90 53 185t20 218q0 79 -14 125.5
t-38 67t-54 20.5q-47 0 -68.5 -40t-21.5 -110v-257h-135v257q0 150 -93 150q-29 0 -52.5 -20t-38 -66.5t-14.5 -126.5q0 -122 20.5 -217t53.5 -186h-132zM300 844q0 31 17.5 45t42.5 14q24 0 42.5 -14t18.5 -45q0 -30 -18.5 -44.5t-42.5 -14.5q-25 0 -42.5 14.5t-17.5 44.5z
M493 844q0 31 17.5 45t43.5 14q24 0 42 -14t18 -45q0 -30 -18 -44.5t-42 -14.5q-26 0 -43.5 14.5t-17.5 44.5z" />
    <glyph glyph-name="uni1C9D_acutecomb.ccmp" horiz-adv-x="916" 
d="M135 0q-24 58 -41 118.5t-26 130t-9 155.5q0 115 32.5 185.5t85.5 102.5t114 32q31 0 63.5 -9.5t60 -32.5t42.5 -65h3q16 41 43 64.5t59.5 33t65.5 9.5q60 0 112.5 -32t85 -102.5t32.5 -185.5q0 -90 -10 -159t-27 -128t-39 -117h-133q33 90 53 185t20 218q0 79 -14 125.5
t-38 67t-54 20.5q-47 0 -68.5 -40t-21.5 -110v-257h-135v257q0 150 -93 150q-29 0 -52.5 -20t-38 -66.5t-14.5 -126.5q0 -122 20.5 -217t53.5 -186h-132zM604 938v-10q-17 -18 -47 -47t-63 -57t-58 -46h-84v13q16 18 36 44t39.5 53.5t32.5 49.5h144z" />
    <glyph glyph-name="uni1C9D_uni0304.ccmp" horiz-adv-x="916" 
d="M135 0q-24 58 -41 118.5t-26 130t-9 155.5q0 115 32.5 185.5t85.5 102.5t114 32q31 0 63.5 -9.5t60 -32.5t42.5 -65h3q16 41 43 64.5t59.5 33t65.5 9.5q60 0 112.5 -32t85 -102.5t32.5 -185.5q0 -90 -10 -159t-27 -128t-39 -117h-133q33 90 53 185t20 218q0 79 -14 125.5
t-38 67t-54 20.5q-47 0 -68.5 -40t-21.5 -110v-257h-135v257q0 150 -93 150q-29 0 -52.5 -20t-38 -66.5t-14.5 -126.5q0 -122 20.5 -217t53.5 -186h-132zM617 879v-91h-318v91h318z" />
    <glyph glyph-name="uni1C9D_uni0304_uni0308.ccmp" horiz-adv-x="916" 
d="M135 0q-24 58 -41 118.5t-26 130t-9 155.5q0 115 32.5 185.5t85.5 102.5t114 32q31 0 63.5 -9.5t60 -32.5t42.5 -65h3q16 41 43 64.5t59.5 33t65.5 9.5q60 0 112.5 -32t85 -102.5t32.5 -185.5q0 -90 -10 -159t-27 -128t-39 -117h-133q33 90 53 185t20 218q0 79 -14 125.5
t-38 67t-54 20.5q-47 0 -68.5 -40t-21.5 -110v-257h-135v257q0 150 -93 150q-29 0 -52.5 -20t-38 -66.5t-14.5 -126.5q0 -122 20.5 -217t53.5 -186h-132zM617 879v-91h-318v91h318zM300 1008q0 31 17.5 45t42.5 14q24 0 42.5 -14t18.5 -45q0 -30 -18.5 -44.5t-42.5 -14.5
q-25 0 -42.5 14.5t-17.5 44.5zM493 1008q0 31 17.5 45t43.5 14q24 0 42 -14t18 -45q0 -30 -18 -44.5t-42 -14.5q-26 0 -43.5 14.5t-17.5 44.5z" />
    <glyph glyph-name="uni1CA3_uni0308.ccmp" horiz-adv-x="641" 
d="M316 -10q-77 0 -134.5 28.5t-88.5 78.5t-31 115q0 27 3 48t9 40h130q-9 -34 -9 -76q0 -54 30.5 -90t91.5 -36q67 0 95 37t28 98v302q0 84 -70 84q-32 0 -51.5 -20t-19.5 -62v-104h-125v104q0 38 -18.5 56.5t-52.5 18.5h-63v107h65q45 0 80.5 -18t53.5 -63h3
q18 43 57 64.5t88 21.5q87 0 134 -48.5t47 -128.5v-318q0 -112 -65.5 -175.5t-186.5 -63.5zM160 844q0 31 17.5 45t42.5 14q24 0 42.5 -14t18.5 -45q0 -30 -18.5 -44.5t-42.5 -14.5q-25 0 -42.5 14.5t-17.5 44.5zM353 844q0 31 17.5 45t43.5 14q24 0 42 -14t18 -45
q0 -30 -18 -44.5t-42 -14.5q-26 0 -43.5 14.5t-17.5 44.5z" />
    <glyph glyph-name="uni1CA3_acutecomb.ccmp" horiz-adv-x="641" 
d="M316 -10q-77 0 -134.5 28.5t-88.5 78.5t-31 115q0 27 3 48t9 40h130q-9 -34 -9 -76q0 -54 30.5 -90t91.5 -36q67 0 95 37t28 98v302q0 84 -70 84q-32 0 -51.5 -20t-19.5 -62v-104h-125v104q0 38 -18.5 56.5t-52.5 18.5h-63v107h65q45 0 80.5 -18t53.5 -63h3
q18 43 57 64.5t88 21.5q87 0 134 -48.5t47 -128.5v-318q0 -112 -65.5 -175.5t-186.5 -63.5zM464 938v-10q-17 -18 -47 -47t-63 -57t-58 -46h-84v13q16 18 36 44t39.5 53.5t32.5 49.5h144z" />
    <glyph glyph-name="uni1CA3_uni0302.ccmp" horiz-adv-x="641" 
d="M316 -10q-77 0 -134.5 28.5t-88.5 78.5t-31 115q0 27 3 48t9 40h130q-9 -34 -9 -76q0 -54 30.5 -90t91.5 -36q67 0 95 37t28 98v302q0 84 -70 84q-32 0 -51.5 -20t-19.5 -62v-104h-125v104q0 38 -18.5 56.5t-52.5 18.5h-63v107h65q45 0 80.5 -18t53.5 -63h3
q18 43 57 64.5t88 21.5q87 0 134 -48.5t47 -128.5v-318q0 -112 -65.5 -175.5t-186.5 -63.5zM389 938q13 -22 35.5 -49.5t46.5 -53.5t43 -45v-12h-85q-27 16 -56.5 38.5t-55.5 49.5q-27 -27 -55.5 -49t-54.5 -39h-85v12q19 19 42.5 45t46 53.5t35.5 49.5h143z" />
    <glyph glyph-name="uni1CA3_uni0304.ccmp" horiz-adv-x="641" 
d="M316 -10q-77 0 -134.5 28.5t-88.5 78.5t-31 115q0 27 3 48t9 40h130q-9 -34 -9 -76q0 -54 30.5 -90t91.5 -36q67 0 95 37t28 98v302q0 84 -70 84q-32 0 -51.5 -20t-19.5 -62v-104h-125v104q0 38 -18.5 56.5t-52.5 18.5h-63v107h65q45 0 80.5 -18t53.5 -63h3
q18 43 57 64.5t88 21.5q87 0 134 -48.5t47 -128.5v-318q0 -112 -65.5 -175.5t-186.5 -63.5zM477 879v-91h-318v91h318z" />
    <glyph glyph-name="uni1CA3_uni0304_uni0308.ccmp" horiz-adv-x="641" 
d="M316 -10q-77 0 -134.5 28.5t-88.5 78.5t-31 115q0 27 3 48t9 40h130q-9 -34 -9 -76q0 -54 30.5 -90t91.5 -36q67 0 95 37t28 98v302q0 84 -70 84q-32 0 -51.5 -20t-19.5 -62v-104h-125v104q0 38 -18.5 56.5t-52.5 18.5h-63v107h65q45 0 80.5 -18t53.5 -63h3
q18 43 57 64.5t88 21.5q87 0 134 -48.5t47 -128.5v-318q0 -112 -65.5 -175.5t-186.5 -63.5zM477 879v-91h-318v91h318zM160 1008q0 31 17.5 45t42.5 14q24 0 42.5 -14t18.5 -45q0 -30 -18.5 -44.5t-42.5 -14.5q-25 0 -42.5 14.5t-17.5 44.5zM353 1008q0 31 17.5 45t43.5 14
q24 0 42 -14t18 -45q0 -30 -18 -44.5t-42 -14.5q-26 0 -43.5 14.5t-17.5 44.5z" />
    <glyph glyph-name="uni1CB7_acutecomb.ccmp" horiz-adv-x="602" 
d="M300 -10q-75 0 -131.5 25t-88.5 70t-32 108q0 50 17.5 86t47 61t67 43.5t76.5 34.5q75 30 111.5 54.5t36.5 65.5q0 40 -27.5 61.5t-72.5 21.5q-55 0 -79.5 -22.5t-24.5 -58.5q0 -5 0.5 -11t1.5 -10h-130q-3 15 -3 31q0 50 28 89.5t79.5 62t124.5 22.5q107 0 171.5 -51
t64.5 -139q0 -58 -27 -96.5t-74 -66t-107 -53.5q-66 -27 -106.5 -54.5t-40.5 -72.5q0 -47 33 -72.5t87 -25.5q55 0 87 26t32 75q0 19 -3 34h131q5 -21 5 -43q0 -97 -69.5 -146t-184.5 -49zM447 938v-10q-17 -18 -47 -47t-63 -57t-58 -46h-84v13q16 18 36 44t39.5 53.5
t32.5 49.5h144z" />
    <glyph glyph-name="uni1CB7_uni0304.ccmp" horiz-adv-x="602" 
d="M300 -10q-75 0 -131.5 25t-88.5 70t-32 108q0 50 17.5 86t47 61t67 43.5t76.5 34.5q75 30 111.5 54.5t36.5 65.5q0 40 -27.5 61.5t-72.5 21.5q-55 0 -79.5 -22.5t-24.5 -58.5q0 -5 0.5 -11t1.5 -10h-130q-3 15 -3 31q0 50 28 89.5t79.5 62t124.5 22.5q107 0 171.5 -51
t64.5 -139q0 -58 -27 -96.5t-74 -66t-107 -53.5q-66 -27 -106.5 -54.5t-40.5 -72.5q0 -47 33 -72.5t87 -25.5q55 0 87 26t32 75q0 19 -3 34h131q5 -21 5 -43q0 -97 -69.5 -146t-184.5 -49zM460 879v-91h-318v91h318z" />
    <glyph glyph-name="uni10D0_uni0308.ccmp" horiz-adv-x="570" 
d="M282 -10q-68 0 -122 24t-85 70t-31 114q0 25 4 45.5t11 37.5h120q-4 -16 -6.5 -35.5t-2.5 -40.5q0 -50 29.5 -81.5t82.5 -31.5q52 0 81 31.5t29 81.5q0 48 -23.5 79t-53.5 59q-24 23 -48 49.5t-40 62.5t-16 87h126q0 -42 24.5 -73.5t56.5 -62.5q25 -24 48.5 -51.5
t39 -63.5t15.5 -84q0 -65 -30 -114t-84 -76t-125 -27zM127 672q0 31 17.5 45t42.5 14q24 0 42.5 -14t18.5 -45q0 -30 -18.5 -44.5t-42.5 -14.5q-25 0 -42.5 14.5t-17.5 44.5zM320 672q0 31 17.5 45t43.5 14q24 0 42 -14t18 -45q0 -30 -18 -44.5t-42 -14.5q-26 0 -43.5 14.5
t-17.5 44.5z" />
    <glyph glyph-name="uni10D0_acutecomb.ccmp" horiz-adv-x="570" 
d="M282 -10q-68 0 -122 24t-85 70t-31 114q0 25 4 45.5t11 37.5h120q-4 -16 -6.5 -35.5t-2.5 -40.5q0 -50 29.5 -81.5t82.5 -31.5q52 0 81 31.5t29 81.5q0 48 -23.5 79t-53.5 59q-24 23 -48 49.5t-40 62.5t-16 87h126q0 -42 24.5 -73.5t56.5 -62.5q25 -24 48.5 -51.5
t39 -63.5t15.5 -84q0 -65 -30 -114t-84 -76t-125 -27zM431 766v-10q-17 -18 -47 -47t-63 -57t-58 -46h-84v13q16 18 36 44t39.5 53.5t32.5 49.5h144z" />
    <glyph glyph-name="uni10D0_uni0304.ccmp" horiz-adv-x="570" 
d="M282 -10q-68 0 -122 24t-85 70t-31 114q0 25 4 45.5t11 37.5h120q-4 -16 -6.5 -35.5t-2.5 -40.5q0 -50 29.5 -81.5t82.5 -31.5q52 0 81 31.5t29 81.5q0 48 -23.5 79t-53.5 59q-24 23 -48 49.5t-40 62.5t-16 87h126q0 -42 24.5 -73.5t56.5 -62.5q25 -24 48.5 -51.5
t39 -63.5t15.5 -84q0 -65 -30 -114t-84 -76t-125 -27zM444 707v-91h-318v91h318z" />
    <glyph glyph-name="uni10D0_uni0304_uni0308.ccmp" horiz-adv-x="570" 
d="M282 -10q-68 0 -122 24t-85 70t-31 114q0 25 4 45.5t11 37.5h120q-4 -16 -6.5 -35.5t-2.5 -40.5q0 -50 29.5 -81.5t82.5 -31.5q52 0 81 31.5t29 81.5q0 48 -23.5 79t-53.5 59q-24 23 -48 49.5t-40 62.5t-16 87h126q0 -42 24.5 -73.5t56.5 -62.5q25 -24 48.5 -51.5
t39 -63.5t15.5 -84q0 -65 -30 -114t-84 -76t-125 -27zM444 707v-91h-318v91h318zM127 837q0 31 17.5 45t42.5 14q24 0 42.5 -14t18.5 -45q0 -30 -18.5 -44.5t-42.5 -14.5q-25 0 -42.5 14.5t-17.5 44.5zM320 837q0 31 17.5 45t43.5 14q24 0 42 -14t18 -45q0 -30 -18 -44.5
t-42 -14.5q-26 0 -43.5 14.5t-17.5 44.5z" />
    <glyph glyph-name="uni10D4_acutecomb.ccmp" horiz-adv-x="598" 
d="M288 -250q-75 0 -129.5 30.5t-84.5 84.5t-30 126q0 29 5.5 54t14.5 46h119q-6 -18 -9.5 -43.5t-3.5 -46.5q0 -62 28.5 -105.5t89.5 -43.5q65 0 91.5 44t26.5 117v304q0 64 -25.5 98.5t-78.5 34.5q-48 0 -77 -28.5t-29 -82.5q0 -20 2 -39.5t7 -38.5h-120q-6 17 -10.5 37.5
t-4.5 45.5q0 68 30.5 114.5t83 70t117.5 23.5q106 0 168.5 -61.5t62.5 -171.5v-309q0 -123 -63.5 -191.5t-180.5 -68.5zM445 766v-10q-17 -18 -47 -47t-63 -57t-58 -46h-84v13q16 18 36 44t39.5 53.5t32.5 49.5h144z" />
    <glyph glyph-name="uni10D4_uni0304.ccmp" horiz-adv-x="598" 
d="M288 -250q-75 0 -129.5 30.5t-84.5 84.5t-30 126q0 29 5.5 54t14.5 46h119q-6 -18 -9.5 -43.5t-3.5 -46.5q0 -62 28.5 -105.5t89.5 -43.5q65 0 91.5 44t26.5 117v304q0 64 -25.5 98.5t-78.5 34.5q-48 0 -77 -28.5t-29 -82.5q0 -20 2 -39.5t7 -38.5h-120q-6 17 -10.5 37.5
t-4.5 45.5q0 68 30.5 114.5t83 70t117.5 23.5q106 0 168.5 -61.5t62.5 -171.5v-309q0 -123 -63.5 -191.5t-180.5 -68.5zM458 707v-91h-318v91h318z" />
    <glyph glyph-name="uni10D8_acutecomb.ccmp" horiz-adv-x="590" 
d="M107 0q-29 68 -43.5 132t-14.5 143q0 84 27.5 146t82 96.5t135.5 34.5q82 0 137 -34.5t82.5 -96.5t27.5 -146q0 -79 -15 -143t-44 -132h-123q27 68 40.5 134.5t13.5 139.5q0 88 -31.5 132t-87.5 44t-87 -43.5t-31 -133.5q0 -74 13.5 -139.5t41.5 -133.5h-124zM441 766
v-10q-17 -18 -47 -47t-63 -57t-58 -46h-84v13q16 18 36 44t39.5 53.5t32.5 49.5h144z" />
    <glyph glyph-name="uni10D8_uni0304.ccmp" horiz-adv-x="590" 
d="M107 0q-29 68 -43.5 132t-14.5 143q0 84 27.5 146t82 96.5t135.5 34.5q82 0 137 -34.5t82.5 -96.5t27.5 -146q0 -79 -15 -143t-44 -132h-123q27 68 40.5 134.5t13.5 139.5q0 88 -31.5 132t-87.5 44t-87 -43.5t-31 -133.5q0 -74 13.5 -139.5t41.5 -133.5h-124zM454 707
v-91h-318v91h318z" />
    <glyph glyph-name="uni10DD_uni0308.ccmp" horiz-adv-x="841" 
d="M112 0q-32 71 -47.5 135.5t-15.5 143.5q0 81 24.5 142.5t72.5 96t118 34.5q61 0 99 -28t55 -75h5q18 48 56 75.5t97 27.5q71 0 119 -34.5t73 -96t25 -142.5q0 -79 -15.5 -143.5t-48.5 -135.5h-125q32 68 46.5 135t14.5 143q0 79 -24.5 125.5t-76.5 46.5
q-42 0 -62.5 -32.5t-20.5 -91.5v-149h-120v149q0 57 -20 90.5t-64 33.5q-49 0 -75 -42t-26 -132q0 -76 15 -142t46 -134h-125zM263 672q0 31 17.5 45t42.5 14q24 0 42.5 -14t18.5 -45q0 -30 -18.5 -44.5t-42.5 -14.5q-25 0 -42.5 14.5t-17.5 44.5zM456 672q0 31 17.5 45
t43.5 14q24 0 42 -14t18 -45q0 -30 -18 -44.5t-42 -14.5q-26 0 -43.5 14.5t-17.5 44.5z" />
    <glyph glyph-name="uni10DD_acutecomb.ccmp" horiz-adv-x="841" 
d="M112 0q-32 71 -47.5 135.5t-15.5 143.5q0 81 24.5 142.5t72.5 96t118 34.5q61 0 99 -28t55 -75h5q18 48 56 75.5t97 27.5q71 0 119 -34.5t73 -96t25 -142.5q0 -79 -15.5 -143.5t-48.5 -135.5h-125q32 68 46.5 135t14.5 143q0 79 -24.5 125.5t-76.5 46.5
q-42 0 -62.5 -32.5t-20.5 -91.5v-149h-120v149q0 57 -20 90.5t-64 33.5q-49 0 -75 -42t-26 -132q0 -76 15 -142t46 -134h-125zM566 766v-10q-17 -18 -47 -47t-63 -57t-58 -46h-84v13q16 18 36 44t39.5 53.5t32.5 49.5h144z" />
    <glyph glyph-name="uni10DD_uni0304.ccmp" horiz-adv-x="841" 
d="M112 0q-32 71 -47.5 135.5t-15.5 143.5q0 81 24.5 142.5t72.5 96t118 34.5q61 0 99 -28t55 -75h5q18 48 56 75.5t97 27.5q71 0 119 -34.5t73 -96t25 -142.5q0 -79 -15.5 -143.5t-48.5 -135.5h-125q32 68 46.5 135t14.5 143q0 79 -24.5 125.5t-76.5 46.5
q-42 0 -62.5 -32.5t-20.5 -91.5v-149h-120v149q0 57 -20 90.5t-64 33.5q-49 0 -75 -42t-26 -132q0 -76 15 -142t46 -134h-125zM579 707v-91h-318v91h318z" />
    <glyph glyph-name="uni10DD_uni0304_uni0308.ccmp" horiz-adv-x="841" 
d="M112 0q-32 71 -47.5 135.5t-15.5 143.5q0 81 24.5 142.5t72.5 96t118 34.5q61 0 99 -28t55 -75h5q18 48 56 75.5t97 27.5q71 0 119 -34.5t73 -96t25 -142.5q0 -79 -15.5 -143.5t-48.5 -135.5h-125q32 68 46.5 135t14.5 143q0 79 -24.5 125.5t-76.5 46.5
q-42 0 -62.5 -32.5t-20.5 -91.5v-149h-120v149q0 57 -20 90.5t-64 33.5q-49 0 -75 -42t-26 -132q0 -76 15 -142t46 -134h-125zM579 707v-91h-318v91h318zM263 837q0 31 17.5 45t42.5 14q24 0 42.5 -14t18.5 -45q0 -30 -18.5 -44.5t-42.5 -14.5q-25 0 -42.5 14.5t-17.5 44.5z
M456 837q0 31 17.5 45t43.5 14q24 0 42 -14t18 -45q0 -30 -18 -44.5t-42 -14.5q-26 0 -43.5 14.5t-17.5 44.5z" />
    <glyph glyph-name="uni10E3_uni0308.ccmp" horiz-adv-x="623" 
d="M309 -250q-79 0 -136 30.5t-87.5 84.5t-30.5 126q0 29 5.5 54t14.5 46h119q-5 -18 -9 -43.5t-4 -46.5q0 -62 30 -105.5t98 -43.5q67 0 95 45t28 116v339q0 99 -68 99q-31 0 -49 -24.5t-18 -72.5v-118h-120v120q0 90 -71 90h-69v101h70q100 0 131 -87h4q17 44 53 68t86 24
q84 0 130.5 -51.5t46.5 -133.5v-357q0 -123 -64.5 -191.5t-184.5 -68.5zM139 672q0 31 17.5 45t42.5 14q24 0 42.5 -14t18.5 -45q0 -30 -18.5 -44.5t-42.5 -14.5q-25 0 -42.5 14.5t-17.5 44.5zM332 672q0 31 17.5 45t43.5 14q24 0 42 -14t18 -45q0 -30 -18 -44.5t-42 -14.5
q-26 0 -43.5 14.5t-17.5 44.5z" />
    <glyph glyph-name="uni10E3_acutecomb.ccmp" horiz-adv-x="623" 
d="M309 -250q-79 0 -136 30.5t-87.5 84.5t-30.5 126q0 29 5.5 54t14.5 46h119q-5 -18 -9 -43.5t-4 -46.5q0 -62 30 -105.5t98 -43.5q67 0 95 45t28 116v339q0 99 -68 99q-31 0 -49 -24.5t-18 -72.5v-118h-120v120q0 90 -71 90h-69v101h70q100 0 131 -87h4q17 44 53 68t86 24
q84 0 130.5 -51.5t46.5 -133.5v-357q0 -123 -64.5 -191.5t-184.5 -68.5zM442 766v-10q-17 -18 -47 -47t-63 -57t-58 -46h-84v13q16 18 36 44t39.5 53.5t32.5 49.5h144z" />
    <glyph glyph-name="uni10E3_uni0302.ccmp" horiz-adv-x="623" 
d="M309 -250q-79 0 -136 30.5t-87.5 84.5t-30.5 126q0 29 5.5 54t14.5 46h119q-5 -18 -9 -43.5t-4 -46.5q0 -62 30 -105.5t98 -43.5q67 0 95 45t28 116v339q0 99 -68 99q-31 0 -49 -24.5t-18 -72.5v-118h-120v120q0 90 -71 90h-69v101h70q100 0 131 -87h4q17 44 53 68t86 24
q84 0 130.5 -51.5t46.5 -133.5v-357q0 -123 -64.5 -191.5t-184.5 -68.5zM367 766q13 -22 35.5 -49.5t46.5 -53.5t43 -45v-12h-85q-27 16 -56.5 38.5t-55.5 49.5q-27 -27 -55.5 -49t-54.5 -39h-85v12q19 19 42.5 45t46 53.5t35.5 49.5h143z" />
    <glyph glyph-name="uni10E3_uni0304.ccmp" horiz-adv-x="623" 
d="M309 -250q-79 0 -136 30.5t-87.5 84.5t-30.5 126q0 29 5.5 54t14.5 46h119q-5 -18 -9 -43.5t-4 -46.5q0 -62 30 -105.5t98 -43.5q67 0 95 45t28 116v339q0 99 -68 99q-31 0 -49 -24.5t-18 -72.5v-118h-120v120q0 90 -71 90h-69v101h70q100 0 131 -87h4q17 44 53 68t86 24
q84 0 130.5 -51.5t46.5 -133.5v-357q0 -123 -64.5 -191.5t-184.5 -68.5zM455 707v-91h-318v91h318z" />
    <glyph glyph-name="uni10E3_uni0304_uni0308.ccmp" horiz-adv-x="623" 
d="M309 -250q-79 0 -136 30.5t-87.5 84.5t-30.5 126q0 29 5.5 54t14.5 46h119q-5 -18 -9 -43.5t-4 -46.5q0 -62 30 -105.5t98 -43.5q67 0 95 45t28 116v339q0 99 -68 99q-31 0 -49 -24.5t-18 -72.5v-118h-120v120q0 90 -71 90h-69v101h70q100 0 131 -87h4q17 44 53 68t86 24
q84 0 130.5 -51.5t46.5 -133.5v-357q0 -123 -64.5 -191.5t-184.5 -68.5zM455 707v-91h-318v91h318zM139 837q0 31 17.5 45t42.5 14q24 0 42.5 -14t18.5 -45q0 -30 -18.5 -44.5t-42.5 -14.5q-25 0 -42.5 14.5t-17.5 44.5zM332 837q0 31 17.5 45t43.5 14q24 0 42 -14t18 -45
q0 -30 -18 -44.5t-42 -14.5q-26 0 -43.5 14.5t-17.5 44.5z" />
    <glyph glyph-name="uni10F7_acutecomb.ccmp" horiz-adv-x="573" 
d="M285 -250q-111 0 -176 57.5t-65 158.5q0 74 28 123.5t75 83t106 61.5q51 23 79.5 43t40.5 42t12 51q0 36 -24 57.5t-73 21.5q-54 0 -77 -22t-23 -60q0 -13 3 -26h-124q-4 17 -4 35q0 79 58.5 127.5t164.5 48.5q110 0 168 -50t58 -134q0 -53 -21 -92.5t-65 -72.5t-112 -66
q-44 -21 -75.5 -43.5t-48.5 -53.5t-17 -78q0 -50 31 -79.5t81 -29.5q54 0 85.5 28.5t31.5 83.5q0 19 -3 36.5t-7 28.5h127q5 -16 7.5 -33.5t2.5 -39.5q0 -106 -67 -156.5t-177 -50.5zM433 766v-10q-17 -18 -47 -47t-63 -57t-58 -46h-84v13q16 18 36 44t39.5 53.5t32.5 49.5
h144z" />
    <glyph glyph-name="uni10F7_uni0304.ccmp" horiz-adv-x="573" 
d="M285 -250q-111 0 -176 57.5t-65 158.5q0 74 28 123.5t75 83t106 61.5q51 23 79.5 43t40.5 42t12 51q0 36 -24 57.5t-73 21.5q-54 0 -77 -22t-23 -60q0 -13 3 -26h-124q-4 17 -4 35q0 79 58.5 127.5t164.5 48.5q110 0 168 -50t58 -134q0 -53 -21 -92.5t-65 -72.5t-112 -66
q-44 -21 -75.5 -43.5t-48.5 -53.5t-17 -78q0 -50 31 -79.5t81 -29.5q54 0 85.5 28.5t31.5 83.5q0 19 -3 36.5t-7 28.5h127q5 -16 7.5 -33.5t2.5 -39.5q0 -106 -67 -156.5t-177 -50.5zM446 707v-91h-318v91h318z" />
    </font>
</defs>
</svg>
