<?xml version="1.0" standalone="no"?>
<!DOCTYPE svg PUBLIC "-//W3C//DTD SVG 1.1//EN" "http://www.w3.org/Graphics/SVG/1.1/DTD/svg11.dtd" >
<svg xmlns="http://www.w3.org/2000/svg" xmlns:xlink="http://www.w3.org/1999/xlink" version="1.1">
<metadata>
Created by FontForge 20170731 at Thu Sep 26 08:56:17 2019
 By Aleksey,,,
Copyright 2019 Google LLC. All rights reserved.
</metadata>
<defs>
<font id="NotoSansGeorgian-Light" horiz-adv-x="615" >
  <font-face 
    font-family="Noto Sans Georgian Light"
    font-weight="300"
    font-stretch="normal"
    units-per-em="1000"
    panose-1="2 11 4 2 4 5 4 2 2 4"
    ascent="800"
    descent="-200"
    bbox="-147 -250 1051 1020"
    underline-thickness="50"
    underline-position="-175"
    unicode-range="U+000D-2D2D"
  />
<missing-glyph horiz-adv-x="364" 
d="M33 0v666h265v-666h-265zM66 33h199v600h-199v-600z" />
    <glyph glyph-name=".notdef" horiz-adv-x="364" 
d="M33 0v666h265v-666h-265zM66 33h199v600h-199v-600z" />
    <glyph glyph-name=".null" horiz-adv-x="0" 
 />
    <glyph glyph-name="nonmarkingreturn" horiz-adv-x="333" 
 />
    <glyph glyph-name="NULL" horiz-adv-x="0" 
 />
    <glyph glyph-name="NULL" horiz-adv-x="0" 
 />
    <glyph glyph-name="CR" unicode="&#xd;" horiz-adv-x="260" 
 />
    <glyph glyph-name="space" unicode=" " horiz-adv-x="260" 
 />
    <glyph glyph-name="hyphen" unicode="-" horiz-adv-x="322" 
d="M40 244v52h242v-52h-242z" />
    <glyph glyph-name="uni00A0" unicode="&#xa0;" horiz-adv-x="260" 
 />
    <glyph glyph-name="acutecomb" unicode="&#x301;" horiz-adv-x="0" 
d="M93 766v-8q-15 -21 -40 -49t-53 -55.5t-53 -47.5h-39v9q18 19 40.5 46t43 55t33.5 50h68z" />
    <glyph glyph-name="uni0302" unicode="&#x302;" horiz-adv-x="0" 
d="M28 765q12 -22 33 -49.5t44.5 -54.5t42.5 -46v-9h-42q-27 22 -54.5 51t-51.5 57q-24 -28 -52 -57t-55 -51h-40v9q18 20 41 46.5t44.5 54t33.5 49.5h56z" />
    <glyph glyph-name="uni0304" unicode="&#x304;" horiz-adv-x="0" 
d="M139 668v-48h-276v48h276z" />
    <glyph glyph-name="uni0308" unicode="&#x308;" horiz-adv-x="0" 
d="M-129 662q0 40 35 40q36 0 36 -40q0 -41 -36 -41q-35 0 -35 41zM58 662q0 40 34 40q36 0 36 -40q0 -41 -36 -41q-34 0 -34 41z" />
    <glyph glyph-name="uni0589" unicode="&#x589;" horiz-adv-x="231" 
d="M72 469q0 49 43 49q45 0 45 -49q0 -50 -45 -50q-43 0 -43 50zM72 39q0 49 43 49q45 0 45 -49q0 -50 -45 -50q-43 0 -43 50z" />
    <glyph glyph-name="uni10A0" unicode="&#x10a0;" horiz-adv-x="629" 
d="M394 -10q-101 0 -175.5 42.5t-115 120.5t-40.5 184q0 124 57.5 208t150.5 118v3h-191v48h498v-51h-131q-106 0 -178 -41t-108.5 -113.5t-36.5 -165.5q0 -143 73 -222t204 -79q52 0 95.5 8t81.5 21v-51q-36 -14 -80.5 -22t-103.5 -8z" />
    <glyph glyph-name="uni10A1" unicode="&#x10a1;" horiz-adv-x="748" 
d="M491 0v238q0 18 1 44.5t2 50.5h-3q-27 -55 -83 -85.5t-124 -30.5q-104 0 -165 65t-61 182q0 72 18 131.5t56 118.5h68q-36 -46 -58.5 -109.5t-22.5 -141.5q0 -88 43.5 -141t128.5 -53q92 0 146 52.5t54 175.5v217h58v-662h189v-52h-247z" />
    <glyph glyph-name="uni10A2" unicode="&#x10a2;" horiz-adv-x="720" 
d="M462 0v662h-323v-263h-58v315h439v-662h190v-52h-248z" />
    <glyph glyph-name="uni10A3" unicode="&#x10a3;" horiz-adv-x="756" 
d="M376 -10q-99 0 -169 36.5t-107 102t-37 153.5q0 84 36 147t101 100.5t150 43.5v89h-247v52h551v-52h-245v-89q87 -5 150.5 -42t99 -101t35.5 -148q0 -90 -38 -155.5t-109.5 -101t-170.5 -35.5zM376 43q118 0 187.5 62t69.5 177q0 75 -31.5 129t-88.5 83t-133 29
q-77 0 -134.5 -29t-89.5 -82.5t-32 -129.5q0 -115 67.5 -177t184.5 -62z" />
    <glyph glyph-name="uni10A4" unicode="&#x10a4;" horiz-adv-x="621" 
d="M462 0v662h-323v-263h-58v315h439v-714h-58z" />
    <glyph glyph-name="uni10A5" unicode="&#x10a5;" horiz-adv-x="801" 
d="M462 0v662h-323v-263h-58v315h439v-309h233v-225h-56v174h-177v-354h-58z" />
    <glyph glyph-name="uni10A6" unicode="&#x10a6;" horiz-adv-x="792" 
d="M467 -10q-121 0 -185.5 74t-64.5 200v399h-209v51h267v-189q0 -24 -1.5 -57.5t-2.5 -53.5h5q35 64 87.5 95.5t127.5 31.5q78 0 132 -36t82.5 -98.5t28.5 -139.5q0 -84 -32.5 -146.5t-92.5 -96.5t-142 -34zM467 42q96 0 151.5 60.5t55.5 164.5q0 103 -51 162.5t-140 59.5
q-66 0 -112.5 -29t-71 -79.5t-24.5 -116.5q0 -102 49 -162t143 -60z" />
    <glyph glyph-name="uni10A7" unicode="&#x10a7;" horiz-adv-x="892" 
d="M611 405h233v-225h-56v174h-177v-354h-192q-173 0 -264.5 91.5t-91.5 259.5q0 178 97 270.5t281 92.5h170v-309zM553 51v612h-108q-158 0 -239.5 -77t-81.5 -233q0 -148 76 -225t230 -77h123z" />
    <glyph glyph-name="uni10A8" unicode="&#x10a8;" horiz-adv-x="461" 
d="M302 0v663h-294v51h352v-714h-58z" />
    <glyph glyph-name="uni10A9" unicode="&#x10a9;" horiz-adv-x="700" 
d="M555 0v131q0 18 1.5 44t2.5 45h-5q-33 -60 -87 -89.5t-120 -29.5q-80 0 -137 33.5t-87 92.5t-30 135v352h58v-130q0 -15 -1.5 -37.5t-2.5 -51.5h5q37 67 92 96t122 29q80 0 135 -35t83.5 -94t28.5 -132v-359h-58zM354 153q91 0 146 56t55 150q0 98 -53.5 153.5
t-142.5 55.5q-64 0 -110.5 -27t-72 -73.5t-25.5 -104.5q0 -99 55 -154.5t148 -55.5z" />
    <glyph glyph-name="uni10AA" unicode="&#x10aa;" horiz-adv-x="997" 
d="M673 -10q-120 0 -185.5 74t-65.5 200v398h-283v-263h-58v315h399v-189q0 -21 -1 -52.5t-3 -58.5h5q36 64 88.5 95.5t126.5 31.5q79 0 133 -36.5t82.5 -99t28.5 -138.5q0 -85 -33.5 -147t-93.5 -96t-140 -34zM672 42q96 0 152 60.5t56 164.5q0 103 -51.5 162.5
t-139.5 59.5q-66 0 -113 -29t-71.5 -79.5t-24.5 -116.5q0 -102 49 -162t143 -60z" />
    <glyph glyph-name="uni10AB" unicode="&#x10ab;" horiz-adv-x="754" 
d="M309 -10q-116 0 -181 65t-65 175q0 117 68.5 176t191.5 59h178v198h-389v51h447v-249h147v-51h-147v-154q0 -129 -62 -199.5t-188 -70.5zM306 42q100 0 147.5 55t47.5 160v157h-176q-98 0 -150.5 -44.5t-52.5 -139.5q0 -89 49 -138.5t135 -49.5z" />
    <glyph glyph-name="uni10AC" unicode="&#x10ac;" horiz-adv-x="685" 
d="M101 0v714h460v-51h-402v-203q0 -10 -1 -36t-3 -55h4q29 51 78 83.5t128 32.5q65 0 115.5 -26.5t80 -83t29.5 -148.5v-227h-58v227q0 107 -47 156.5t-129 49.5q-91 0 -144 -54.5t-53 -156.5v-222h-58z" />
    <glyph glyph-name="uni10AD" unicode="&#x10ad;" horiz-adv-x="835" 
d="M384 -10q-108 0 -179.5 46.5t-106.5 130t-35 192.5q0 108 36.5 190.5t108.5 128.5t180 46q102 0 173 -44.5t108 -126.5t37 -195q0 -87 -23.5 -158.5t-69.5 -119.5q20 -21 41.5 -33t49.5 -12q32 0 49.5 25t17.5 65h54q0 -57 -28 -96t-89 -39q-39 0 -69 16.5t-56 45.5
q-38 -30 -88 -46t-111 -16zM385 42q89 0 146.5 39t85.5 110.5t28 166.5q0 149 -65 231.5t-192 82.5q-90 0 -148.5 -39t-87 -109.5t-28.5 -164.5q0 -95 28 -166.5t86 -111t147 -39.5z" />
    <glyph glyph-name="uni10AE" unicode="&#x10ae;" horiz-adv-x="849" 
d="M486 -10q-128 0 -198.5 68.5t-70.5 194.5v410h-209v51h266v-460q0 -104 54.5 -158t155.5 -54q100 0 155.5 52.5t55.5 153.5v466h58v-461q0 -128 -72 -195.5t-195 -67.5z" />
    <glyph glyph-name="uni10AF" unicode="&#x10af;" horiz-adv-x="712" 
d="M553 0v231q0 31 1.5 56.5t2.5 45.5h-5q-27 -53 -83.5 -84t-123.5 -31q-65 0 -115.5 28.5t-79 82t-28.5 130.5q0 71 27.5 121t72.5 80v3h-209v51h289v-53q-66 -30 -92.5 -82t-26.5 -111q0 -100 46 -148.5t125 -48.5q89 0 144.5 52.5t55.5 173.5v217h58v-714h-59z" />
    <glyph glyph-name="uni10B0" unicode="&#x10b0;" horiz-adv-x="899" 
d="M288 -10q-72 0 -123.5 31t-79 84t-27.5 120q0 87 51 163l49 -21q-21 -34 -30.5 -70t-9.5 -70q0 -53 19.5 -94.5t57.5 -66t92 -24.5q84 0 129 53t45 156v463h58v-182q0 -10 -1 -36t-3 -55h4q51 101 157 101q57 0 96 -26.5t59 -69.5t20 -92q0 -68 -37 -126l-50 17
q28 48 28 104q0 38 -14.5 70t-43.5 52t-71 20q-39 0 -72 -20t-52.5 -58.5t-19.5 -93.5v-68q0 -121 -59 -191t-172 -70z" />
    <glyph glyph-name="uni10B1" unicode="&#x10b1;" horiz-adv-x="614" 
d="M327 -10q-114 0 -172.5 70t-58.5 191v463h58v-463q0 -103 44.5 -156t128.5 -53q54 0 92 24.5t58 66t20 94.5q0 34 -10 70t-31 70l49 21q52 -76 52 -163q0 -67 -28 -120t-79.5 -84t-122.5 -31z" />
    <glyph glyph-name="uni10B2" unicode="&#x10b2;" horiz-adv-x="598" 
d="M101 0v714h178q126 0 191.5 -49t65.5 -153q0 -113 -73 -166.5t-200 -53.5h-104v-240h356v-52h-414zM159 343h98q106 0 162.5 36.5t56.5 129.5q0 80 -50 117t-153 37h-114v-320z" />
    <glyph glyph-name="uni10B3" unicode="&#x10b3;" horiz-adv-x="767" 
d="M599 -160q-18 0 -39 4v51q7 -1 17.5 -2t21.5 -1q45 0 68 25t23 64q0 35 -24.5 59.5t-59.5 33.5q-41 -41 -96.5 -62.5t-125.5 -21.5q-104 0 -176 45.5t-108.5 128.5t-36.5 195t37.5 194t110 127t177.5 45q151 0 234.5 -97t83.5 -270q0 -73 -17 -134.5t-52 -114.5
q43 -10 76.5 -41t33.5 -87q0 -65 -40.5 -103t-107.5 -38zM385 42q130 0 195 84.5t65 231.5q0 153 -66.5 234t-190.5 81q-132 0 -198 -85t-66 -229q0 -146 65 -231.5t196 -85.5z" />
    <glyph glyph-name="uni10B4" unicode="&#x10b4;" horiz-adv-x="790" 
d="M366 0v182q-90 1 -158.5 31.5t-106.5 90.5t-38 150q0 89 41 149.5t116 91t176 30.5q99 0 173.5 -28.5t116 -87.5t41.5 -152q0 -91 -38.5 -151.5t-106.5 -91.5t-158 -32v-182h-58zM366 232v442q-72 -2 -127 -27t-86 -73t-31 -120q0 -111 64.5 -166t179.5 -56zM424 232
q114 1 179 57t65 168q0 109 -67 161.5t-177 55.5v-442z" />
    <glyph glyph-name="uni10B5" unicode="&#x10b5;" horiz-adv-x="603" 
d="M268 0v414h-215v51h215v249h58v-249h215v-51h-215v-414h-58z" />
    <glyph glyph-name="uni10B6" unicode="&#x10b6;" horiz-adv-x="728" 
d="M96 0v462q0 128 73.5 195t196.5 67q127 0 196.5 -69t69.5 -195v-460h-58v461q0 105 -54.5 158.5t-156.5 53.5q-97 0 -153.5 -53t-56.5 -158v-462h-57z" />
    <glyph glyph-name="uni10B7" unicode="&#x10b7;" horiz-adv-x="650" 
d="M491 0v238q0 18 1 44.5t2 50.5h-3q-27 -55 -83 -85.5t-124 -30.5q-104 0 -165 65t-61 182q0 72 18 131.5t56 118.5h68q-36 -46 -58.5 -109.5t-22.5 -141.5q0 -88 43.5 -141t128.5 -53q92 0 146 52.5t54 175.5v217h58v-714h-58z" />
    <glyph glyph-name="uni10B8" unicode="&#x10b8;" horiz-adv-x="675" 
d="M338 -10q-67 0 -119.5 26t-82 71t-29.5 103q0 40 18 79l52 -16q-6 -16 -8 -30.5t-2 -29.5q0 -68 47 -109.5t124 -41.5q84 0 131.5 54.5t47.5 139.5v101q0 14 1 46.5t3 59.5h-5q-35 -64 -87 -90.5t-112 -26.5q-104 0 -162.5 64.5t-58.5 184.5v139h58v-139q0 -99 44.5 -148
t126.5 -49q87 0 139.5 55.5t52.5 155.5v125h58v-478q0 -75 -29.5 -130t-83 -85.5t-124.5 -30.5z" />
    <glyph glyph-name="uni10B9" unicode="&#x10b9;" horiz-adv-x="660" 
d="M101 0v714h58v-274h411v-440h-58v388h-353v-388h-58z" />
    <glyph glyph-name="uni10BA" unicode="&#x10ba;" horiz-adv-x="699" 
d="M361 -10q-92 0 -159 44.5t-103.5 127t-36.5 196.5q0 109 40 191.5t113.5 128.5t174.5 46q108 0 190 -39l-24 -50q-82 37 -166 37q-82 0 -142 -38.5t-92.5 -109t-32.5 -166.5q0 -97 30 -168t85 -109.5t130 -38.5q53 0 104.5 16t95.5 42v195h58v-295h-58v46
q-44 -25 -95 -40.5t-112 -15.5z" />
    <glyph glyph-name="uni10BB" unicode="&#x10bb;" horiz-adv-x="874" 
d="M298 -10q-75 0 -127.5 30.5t-80 84.5t-27.5 125q0 107 64 171t185 64h158v249h58v-249h255v-465h-56v414h-199v-169q0 -121 -59.5 -188t-170.5 -67zM295 42q85 0 130 51.5t45 148.5v172h-157q-94 0 -143 -48t-49 -136q0 -85 46 -136.5t128 -51.5z" />
    <glyph glyph-name="uni10BC" unicode="&#x10bc;" horiz-adv-x="590" 
d="M101 0v714h178q126 0 191.5 -48t65.5 -151q0 -111 -72.5 -163.5t-200.5 -52.5h-104v-95h223v-154h-56v103h-167v-153h-58zM159 350h98q105 0 162 36t57 127q0 78 -50 114t-153 36h-114v-313z" />
    <glyph glyph-name="uni10BD" unicode="&#x10bd;" horiz-adv-x="573" 
d="M285 -10q-110 0 -172 50.5t-62 136.5q0 16 2 30t5 27h59q-4 -12 -5.5 -26t-1.5 -30q0 -60 44.5 -98t131.5 -38q84 0 124 37t40 100q0 45 -20 73.5t-59.5 49t-96.5 41.5q-70 26 -111 55t-58 65.5t-17 85.5q0 81 58 128t151 47q90 0 142.5 -45t52.5 -115q0 -14 -3 -26h-58
q2 12 2 25q0 46 -37 77.5t-100 31.5q-69 0 -109 -33t-40 -91q0 -42 18 -69.5t54.5 -48t90.5 -40.5q66 -24 110 -50.5t66.5 -63.5t22.5 -94q0 -88 -57.5 -140t-166.5 -52z" />
    <glyph glyph-name="uni10BE" unicode="&#x10be;" horiz-adv-x="670" 
d="M101 714h58v-368h353v368h58v-420h-411v-242h391v-52h-449v714z" />
    <glyph glyph-name="uni10BF" unicode="&#x10bf;" horiz-adv-x="628" 
d="M46 0l251 370l-193 293h-89v51h552v-43l-201 -300l252 -371h-66l-221 329l-222 -329h-63zM333 411l166 252h-331z" />
    <glyph glyph-name="uni10C0" unicode="&#x10c0;" horiz-adv-x="941" 
d="M653 -10q-114 0 -172.5 70t-58.5 191v411h-283v-263h-58v315h399v-463q0 -103 45 -156t129 -53q54 0 91.5 24.5t57.5 66t20 94.5q0 34 -10 70t-30 70l49 21q51 -76 51 -163q0 -67 -27.5 -120t-79 -84t-123.5 -31z" />
    <glyph glyph-name="uni10C1" unicode="&#x10c1;" horiz-adv-x="653" 
d="M101 0v714h58v-186q0 -39 -3 -88h3q30 55 78 78.5t98 23.5q93 0 136.5 -56t43.5 -167h118v-51h-176v55q0 85 -31 126.5t-98 41.5q-82 0 -125.5 -53.5t-43.5 -137.5v-300h-58z" />
    <glyph glyph-name="uni10C2" unicode="&#x10c2;" horiz-adv-x="602" 
d="M228 -10q-57 0 -96.5 7t-78.5 20v52q43 -13 84 -20t88 -7q79 0 135.5 33t87 93.5t30.5 142.5q0 128 -71.5 196.5t-194.5 68.5h-113v138h56v-86h66q148 0 233 -83t85 -234q0 -99 -38.5 -171t-108 -111t-164.5 -39z" />
    <glyph glyph-name="uni10C3" unicode="&#x10c3;" horiz-adv-x="635" 
d="M476 0v215q0 20 1 43t3 45h-5q-28 -54 -81 -84.5t-116 -30.5q-99 0 -159.5 58t-60.5 166q0 87 51 163l49 -21q-21 -34 -30 -70t-9 -68q0 -84 43 -129.5t120 -45.5q88 0 141 51.5t53 174.5v247h58v-714h-58z" />
    <glyph glyph-name="uni10C4" unicode="&#x10c4;" horiz-adv-x="705" 
d="M324 0v254q-115 7 -177 75t-62 188v197h58v-198q0 -104 53.5 -158t156.5 -54q98 0 154 52.5t56 154.5v203h58v-199q0 -120 -64.5 -186t-174.5 -75v-254h-58z" />
    <glyph glyph-name="uni10C5" unicode="&#x10c5;" horiz-adv-x="826" 
d="M217 -10q-77 0 -122 38t-45 115q0 75 53 114t146 39h81v214q0 102 61 158t161 56q102 0 160.5 -42.5t58.5 -123.5q0 -77 -57.5 -117.5t-158.5 -40.5h-167v-104h294v-184h-56v132h-238v-53q0 -95 -45 -148t-126 -53zM388 452h164q80 0 119 27.5t39 78.5q0 52 -39 83.5
t-121 31.5q-77 0 -119.5 -42.5t-42.5 -118.5v-60zM219 42q52 0 81.5 39t29.5 110v53h-78q-67 0 -104 -25t-37 -76q0 -53 29 -77t79 -24z" />
    <glyph glyph-name="uni10C7" unicode="&#x10c7;" horiz-adv-x="573" 
d="M288 -10q-109 0 -166.5 52t-57.5 140q0 57 22 94t66.5 63.5t110.5 50.5q54 20 90 40.5t54.5 48t18.5 69.5q0 58 -40 91t-109 33q-63 0 -100 -31.5t-37 -77.5q0 -13 2 -25h-58q-3 12 -3 26q0 70 52 115t143 45q93 0 151 -47t58 -128q0 -49 -17.5 -85.5t-58 -65.5
t-110.5 -55q-58 -21 -97 -41.5t-59 -49t-20 -73.5q0 -63 39.5 -100t124.5 -37q87 0 131.5 38t44.5 98q0 16 -1.5 30t-5.5 26h59q3 -13 5 -27t2 -30q0 -86 -62.5 -136.5t-171.5 -50.5z" />
    <glyph glyph-name="uni10CD" unicode="&#x10cd;" horiz-adv-x="575" 
d="M37 0v43l415 619h-395v52h468v-43l-415 -618h426v-53h-499z" />
    <glyph glyph-name="uni10D0" unicode="&#x10d0;" horiz-adv-x="535" 
d="M264 -10q-64 0 -111.5 24t-74 68t-26.5 104q0 23 4 43t8 30h55q-3 -11 -6 -30t-3 -43q0 -67 41 -107t113 -40q77 0 116 43t39 114q0 55 -25 90.5t-56 66.5q-25 24 -49 49t-39.5 56.5t-15.5 73.5h57q0 -44 26.5 -77t59.5 -65q25 -25 48 -52.5t38 -62t15 -79.5
q0 -59 -25.5 -105.5t-73 -73.5t-115.5 -27z" />
    <glyph glyph-name="uni10D1" unicode="&#x10d1;" horiz-adv-x="590" 
d="M335 539q98 -12 148 -86t50 -186q0 -84 -27.5 -146t-81 -96.5t-130.5 -34.5q-74 0 -127 34t-81.5 96.5t-28.5 146.5q0 124 59 196.5t164 78.5q14 23 14 57q0 22 -11.5 36.5t-26.5 27.5q-20 15 -37.5 36.5t-17.5 60.5h57q0 -23 11.5 -39.5t27.5 -29.5q19 -16 36.5 -36.5
t17.5 -52.5q0 -18 -4 -33t-12 -30zM295 39q93 0 136 63t43 165q0 66 -18 117t-57 80t-102 29q-90 0 -135.5 -60t-45.5 -166q0 -103 43.5 -165.5t135.5 -62.5z" />
    <glyph glyph-name="uni10D2" unicode="&#x10d2;" horiz-adv-x="580" 
d="M289 -250q-74 0 -127 34t-81.5 94t-28.5 139q0 121 61.5 189t166.5 78q59 5 91.5 31.5t32.5 75.5q0 45 -29 74.5t-84 29.5t-85 -28.5t-30 -74.5q0 -7 1.5 -15.5t2.5 -16.5h-56q-5 20 -5 40q0 62 48 102t124 40q78 0 124.5 -42.5t46.5 -104.5q0 -48 -26 -81t-74 -46v-3
q76 -16 121 -81.5t45 -166.5q0 -79 -27.5 -139t-81 -94t-130.5 -34zM290 -201q62 0 101.5 28t58.5 77.5t19 112.5q0 61 -18 110t-57 77.5t-102 28.5q-90 0 -135.5 -59t-45.5 -157q0 -64 19 -113t59 -77t101 -28z" />
    <glyph glyph-name="uni10D3" unicode="&#x10d3;" horiz-adv-x="861" 
d="M550 -250q-23 46 -63.5 78t-86 49t-85.5 17q-42 0 -77 -9t-70 -25l-20 43q26 12 60.5 20.5t84.5 8.5v3q-113 43 -174.5 133t-61.5 218q0 118 48 187t141 69q62 0 106 -34.5t54 -105.5h3q14 64 62 102t117 38q102 0 159 -72.5t57 -200.5q0 -82 -26.5 -144t-74.5 -96
t-115 -34q-68 0 -116.5 34.5t-73.5 96t-25 143.5v51q0 84 -32 128.5t-94 44.5q-66 0 -98.5 -53t-32.5 -153q0 -90 29 -154.5t81 -107.5t119 -69q57 -23 104.5 -46t84.5 -55t61 -80zM587 44q81 0 119.5 62t38.5 163q0 104 -38.5 164t-118.5 60q-81 0 -118.5 -60t-37.5 -164
q0 -100 38 -162.5t117 -62.5z" />
    <glyph glyph-name="uni10D4" unicode="&#x10d4;" horiz-adv-x="578" 
d="M277 -250q-103 0 -164 61t-61 170q0 31 6 55.5t13 42.5h55q-7 -18 -12 -43t-5 -51q0 -87 44 -136.5t124 -49.5q59 0 95 26.5t52.5 73.5t16.5 108v304q0 85 -37 133.5t-116 48.5q-69 0 -109.5 -40t-40.5 -106q0 -25 3 -44t6 -30h-54q-4 11 -8 30.5t-4 43.5q0 59 26 103
t72.5 68t108.5 24q103 0 156.5 -62t53.5 -167v-308q0 -116 -54.5 -185.5t-166.5 -69.5z" />
    <glyph glyph-name="uni10D5" unicode="&#x10d5;" horiz-adv-x="566" 
d="M283 -250q-72 0 -123.5 26.5t-79.5 74t-28 110.5q0 31 6 55.5t13 42.5h55q-7 -18 -12 -43t-5 -51q0 -72 44.5 -119t129.5 -47q60 0 97.5 25t56 67.5t18.5 93.5q0 78 -47 125.5t-129 47.5h-42v49h50q74 0 111 40.5t37 107.5q0 36 -16.5 67.5t-49 51t-80.5 19.5
q-72 0 -111 -38.5t-39 -96.5q0 -17 3 -32.5t6 -27.5h-55q-5 13 -8 30t-3 33q0 50 25 91t71.5 65.5t110.5 24.5t109.5 -26t69.5 -68t24 -90q0 -73 -37.5 -117.5t-99.5 -56.5v-3q42 -7 78 -31.5t58.5 -66.5t22.5 -100q0 -67 -26.5 -120t-77.5 -83t-127 -30z" />
    <glyph glyph-name="uni10D6" unicode="&#x10d6;" horiz-adv-x="607" 
d="M321 -10q-71 0 -122 33.5t-78 92.5t-27 135q0 61 16 111t59 87v3q-57 7 -95.5 48t-38.5 109q0 46 20.5 82.5t56 57.5t82.5 21q48 0 83.5 -20.5t55 -55t19.5 -77.5q0 -70 -37 -102v-2q9 2 21 1q71 -3 118.5 -37.5t71.5 -92.5t24 -130q0 -77 -27 -136.5t-78 -93.5t-124 -34
zM194 489q46 0 75 31t29 87q0 54 -27 86.5t-77 32.5q-48 0 -76 -32.5t-28 -85.5q0 -52 28 -85.5t76 -33.5zM322 39q59 0 96 28t55 76.5t18 110.5q0 60 -17 108.5t-54.5 77t-98.5 28.5q-86 0 -127 -58.5t-41 -155.5q0 -62 17 -110.5t54.5 -76.5t97.5 -28z" />
    <glyph glyph-name="uni10D7" unicode="&#x10d7;" horiz-adv-x="861" 
d="M273 -10q-67 0 -115.5 34t-74.5 96.5t-26 146.5q0 129 57 202t159 73q69 0 117 -37t63 -103h4q9 71 52.5 105.5t108.5 34.5q91 0 138.5 -68.5t47.5 -190.5q0 -83 -16.5 -149.5t-46.5 -133.5h-58q31 69 46.5 134.5t15.5 144.5q0 214 -131 214q-62 0 -94 -44.5t-32 -128.5
v-53q0 -84 -25.5 -146t-73.5 -96.5t-116 -34.5zM274 39q79 0 117 63t38 165q0 106 -37.5 166t-118.5 60t-119 -60t-38 -166q0 -103 38 -165.5t120 -62.5z" />
    <glyph glyph-name="uni10D8" unicode="&#x10d8;" horiz-adv-x="553" 
d="M120 0q-31 68 -47 133t-16 149q0 122 57 191t163 69q108 0 163.5 -69t55.5 -191q0 -83 -16 -149t-46 -133h-59q31 69 47 135t16 147q0 103 -41.5 157t-119.5 54q-77 0 -119 -54t-42 -157q0 -82 15.5 -147.5t46.5 -134.5h-58z" />
    <glyph glyph-name="uni10D9" unicode="&#x10d9;" horiz-adv-x="551" 
d="M268 -250q-67 0 -116.5 26.5t-77 74t-27.5 110.5q0 31 6 55.5t13 42.5h55q-7 -18 -12 -43t-5 -51q0 -72 43.5 -119t120.5 -47q60 0 97.5 25t56 67.5t18.5 93.5q0 89 -48 141t-128 52h-42v49h50q71 0 109.5 38t38.5 92q0 56 -35.5 96t-100.5 40v49q59 0 102.5 -25.5
t67 -66t23.5 -87.5q0 -61 -37.5 -104t-99.5 -55v-3q42 -7 78 -33t58.5 -72t22.5 -113t-26.5 -120t-77.5 -83t-127 -30z" />
    <glyph glyph-name="uni10DA" unicode="&#x10da;" horiz-adv-x="1063" 
d="M700 -250q-32 53 -82.5 89t-109.5 54.5t-116 18.5q-51 0 -98 -14t-83 -34l-23 44q30 14 72.5 26.5t81.5 12.5v2q-56 14 -107 41.5t-91 69t-63.5 100t-23.5 136.5q0 115 48 180.5t136 65.5q56 0 93.5 -28.5t49.5 -79.5h3q13 51 50 79.5t94 28.5q59 0 95 -28.5t49 -79.5h4
q12 51 49.5 79.5t93.5 28.5q88 0 136 -69t48 -191q0 -66 -13 -121t-37 -108l-50 19q21 50 31 100t10 110q0 104 -33.5 157.5t-96.5 53.5q-56 0 -84 -39.5t-28 -108.5v-159h-55v159q0 66 -28 107t-91 41q-60 0 -89 -39.5t-29 -108.5v-159h-55v159q0 66 -27.5 107t-84.5 41
q-63 0 -96.5 -50t-33.5 -147q0 -75 24 -130t66 -94t95.5 -63.5t113.5 -37.5q64 -14 127 -36.5t116 -61t87 -98.5z" />
    <glyph glyph-name="uni10DB" unicode="&#x10db;" horiz-adv-x="592" 
d="M286 -10q-108 0 -168.5 71.5t-60.5 205.5q0 128 60.5 196.5t159.5 68.5q69 0 113 -30.5t65 -75.5h4q-1 18 -2.5 46t-1.5 48v53q0 72 -42.5 111t-116.5 39q-64 0 -107.5 -28.5t-43.5 -80.5q0 -17 3 -28h-55q-3 9 -3.5 17t-0.5 16q0 48 29 82t76.5 51.5t101.5 17.5
q63 0 112 -23.5t76.5 -68t27.5 -107.5v-311q0 -135 -58 -202.5t-168 -67.5zM286 39q87 0 128.5 55t41.5 157v18q0 103 -41 158.5t-132 55.5q-79 0 -123 -58t-44 -159q0 -108 43 -167.5t127 -59.5z" />
    <glyph glyph-name="uni10DC" unicode="&#x10dc;" horiz-adv-x="592" 
d="M306 -10q-109 0 -167.5 67.5t-58.5 202.5v324q0 92 51.5 134t132.5 42h219v-49h-213q-62 0 -97.5 -29t-35.5 -99v-47q0 -20 -1.5 -50.5t-2.5 -49.5h4q21 45 65 75.5t114 30.5q98 0 158.5 -70t60.5 -205q0 -134 -60.5 -205.5t-168.5 -71.5zM306 39q84 0 127 59.5t43 167.5
q0 109 -44 168t-122 59q-92 0 -132.5 -56t-40.5 -162v-24q0 -102 41 -157t128 -55z" />
    <glyph glyph-name="uni10DD" unicode="&#x10dd;" horiz-adv-x="781" 
d="M120 0q-31 68 -47 133t-16 149q0 122 48.5 191t140.5 69q56 0 93 -28.5t50 -79.5h3q13 51 50 79.5t94 28.5q91 0 139.5 -69t48.5 -191q0 -83 -16.5 -149t-46.5 -133h-58q31 69 46.5 135t15.5 147q0 211 -134 211q-58 0 -85.5 -39.5t-27.5 -108.5v-159h-55v159
q0 66 -27.5 107t-84.5 41q-135 0 -135 -211q0 -82 15.5 -147.5t46.5 -134.5h-58z" />
    <glyph glyph-name="uni10DE" unicode="&#x10de;" horiz-adv-x="561" 
d="M274 -10q-103 0 -162.5 53t-59.5 143q0 23 4 43t8 30h55q-3 -11 -6 -30t-3 -43q0 -67 42 -107t122 -40q59 0 96.5 25t56 65.5t18.5 88.5q0 76 -49.5 125.5t-133.5 49.5h-45v49h59q67 0 102 25.5t35 70.5q0 41 -24 65t-54 42q-24 15 -47.5 30.5t-39 37t-15.5 52.5h57
q0 -27 26 -46.5t59 -38.5q24 -14 46.5 -32t36.5 -43t14 -61q0 -57 -36.5 -86.5t-94.5 -39.5v-3q39 -7 76.5 -31.5t62 -67t24.5 -103.5q0 -62 -26.5 -112.5t-77.5 -80.5t-126 -30z" />
    <glyph glyph-name="uni10DF" unicode="&#x10df;" horiz-adv-x="606" 
d="M299 -250q-68 0 -118.5 25t-78 69.5t-27.5 104.5q0 27 4 48.5t11 39.5h55q-7 -18 -10 -39.5t-3 -44.5q0 -67 43.5 -110.5t123.5 -43.5q59 0 95 26.5t53 73.5t17 108v475q-45 -20 -100.5 -35t-112.5 -22v-2q33 -11 57.5 -40.5t24.5 -76.5q0 -63 -39.5 -101.5t-105.5 -38.5
q-64 0 -102 36.5t-38 88.5q0 19 5 35h50q-3 -15 -3 -30q0 -36 23 -60t65 -24q44 0 67.5 26.5t23.5 69.5q0 51 -27.5 76.5t-69.5 29.5v44q78 9 152.5 27t135.5 47h51v-527q0 -116 -55 -185.5t-167 -69.5z" />
    <glyph glyph-name="uni10E0" unicode="&#x10e0;" horiz-adv-x="780" 
d="M119 0q-31 68 -46.5 133t-15.5 149v34q0 162 48 255t149 133q92 40 267 66l9 -50q-186 -28 -258 -61q-55 -24 -98 -70.5t-62 -136.5h2q25 55 60.5 72.5t73.5 17.5q54 0 90.5 -28.5t49.5 -79.5h3q13 51 50 79.5t94 28.5q91 0 139.5 -69t48.5 -191q0 -83 -16.5 -149
t-46.5 -133h-58q31 69 46.5 135t15.5 147q0 211 -134 211q-58 0 -85.5 -39.5t-27.5 -108.5v-159h-55v159q0 66 -27.5 107t-84.5 41q-135 0 -135 -211q0 -82 15.5 -147.5t46.5 -134.5h-58z" />
    <glyph glyph-name="uni10E1" unicode="&#x10e1;" horiz-adv-x="592" 
d="M309 -10q-112 0 -170.5 67t-58.5 199v504h57v-509q0 -102 42 -157t130 -55q55 0 92 25t56 67t19 93q0 46 -14.5 78t-33.5 60q-25 35 -45.5 73t-20.5 97h57q0 -46 18 -80t44 -68q22 -31 38 -69.5t16 -91.5q0 -67 -27.5 -120t-78 -83t-120.5 -30z" />
    <glyph glyph-name="uni10E2" unicode="&#x10e2;" horiz-adv-x="757" 
d="M378 -250q-157 0 -239 105.5t-82 294.5q0 171 77.5 273.5t218.5 113.5q-2 16 -2.5 32.5t-0.5 29.5v56h57v-55q0 -14 -1 -30.5t-2 -32.5q140 -8 218 -108.5t78 -279.5q0 -121 -36.5 -210.5t-108 -139t-177.5 -49.5zM379 -201q131 0 196.5 91.5t65.5 258.5q0 160 -61 246
t-176 95q1 -19 2 -39t1 -39v-226h-57v225q0 20 0.5 39.5t2.5 39.5q-119 -12 -178 -101t-59 -240q0 -165 66 -257.5t197 -92.5z" />
    <glyph glyph-name="uni10E3" unicode="&#x10e3;" horiz-adv-x="589" 
d="M288 -250q-107 0 -168.5 61t-61.5 170q0 31 6 55.5t13 42.5h55q-7 -18 -12 -43t-5 -51q0 -87 44.5 -136.5t128.5 -49.5q59 0 95 26.5t52.5 73.5t16.5 108v361q0 59 -24 92t-73 33q-46 0 -71 -34t-25 -90v-128h-55v127q0 56 -23 88t-74 32h-61v49h60q101 0 125 -92h3
q13 47 46 72t81 25q70 0 109 -44.5t39 -121.5v-371q0 -116 -54.5 -185.5t-166.5 -69.5z" />
    <glyph glyph-name="uni10E4" unicode="&#x10e4;" horiz-adv-x="840" 
d="M507 -250q-126 0 -190.5 51t-64.5 127q0 17 4 38h54q-3 -17 -3 -30q0 -60 48.5 -98.5t151.5 -38.5q70 0 114 23.5t64 61.5t20 81q0 38 -13.5 70.5t-44 52.5t-79.5 20h-25v49h39q63 0 103 46t40 125q0 73 -29 119t-93 46q-62 0 -94.5 -44.5t-32.5 -128.5v-21
q0 -67 -24.5 -122.5t-71.5 -88.5t-114 -33t-114 33t-71 88.5t-24 122.5q0 70 24.5 125t71.5 86.5t113 31.5q68 0 115 -37t62 -102h4q10 67 52 103t105 36q60 0 99.5 -28t59.5 -75.5t20 -105.5q0 -86 -38 -136.5t-99 -62.5v-3q58 -14 88 -58.5t30 -109.5q0 -57 -28 -105.5
t-85.5 -78t-143.5 -29.5zM267 104q52 0 85 27t49.5 71.5t16.5 96.5q0 55 -16 98.5t-49.5 69.5t-86.5 26q-52 0 -85.5 -26t-49.5 -69.5t-16 -98.5q0 -52 16 -96.5t50 -71.5t86 -27z" />
    <glyph glyph-name="uni10E5" unicode="&#x10e5;" horiz-adv-x="578" 
d="M277 -250q-103 0 -164 61t-61 170q0 31 6 55.5t13 42.5h55q-7 -18 -12 -43t-5 -51q0 -87 44 -136.5t124 -49.5q59 0 95 26.5t52.5 73.5t16.5 108v262q0 110 -39 167t-122 57q-63 0 -102.5 -40t-39.5 -106q0 -25 3 -44t6 -30h-54q-4 11 -8 30.5t-4 43.5q0 59 25 103t69 68
t99 24q61 0 103.5 -30.5t63.5 -75.5h4q-1 19 -2.5 49.5t-1.5 50.5v224h57v-755q0 -116 -54.5 -185.5t-166.5 -69.5z" />
    <glyph glyph-name="uni10E6" unicode="&#x10e6;" horiz-adv-x="781" 
d="M520 -250q-23 45 -58 77t-76 49.5t-81 17.5q-42 0 -77 -9t-70 -25l-20 43q26 12 60.5 20.5t85.5 8.5v3q-114 43 -170.5 132.5t-56.5 213.5q0 123 48.5 192t140.5 69q56 0 93 -28.5t50 -79.5h3q13 51 50 79.5t94 28.5q91 0 139.5 -69t48.5 -191q0 -66 -13 -121t-37 -108
l-50 19q21 50 31 100t10 110q0 211 -134 211q-58 0 -85.5 -39.5t-27.5 -108.5v-159h-55v159q0 66 -27.5 107t-84.5 41q-135 0 -135 -211q0 -134 60 -211.5t169 -119.5q52 -21 92.5 -44t72 -54.5t55.5 -77.5z" />
    <glyph glyph-name="uni10E7" unicode="&#x10e7;" horiz-adv-x="585" 
d="M283 -250q-68 0 -118.5 25t-78 69.5t-27.5 104.5q0 27 4 48.5t11 39.5h55q-7 -18 -10 -39.5t-3 -44.5q0 -67 43.5 -110.5t123.5 -43.5q59 0 95 26.5t53 73.5t17 108v130q0 25 1 54.5t3 47.5h-4q-24 -50 -72.5 -77t-112.5 -27q-94 0 -149 55t-55 169q0 53 10.5 94t28.5 79
h57q-19 -42 -28 -81.5t-9 -92.5q0 -90 41 -131.5t110 -41.5q76 0 127.5 42.5t51.5 135.5v169h57v-527q0 -116 -55 -185.5t-167 -69.5z" />
    <glyph glyph-name="uni10E8" unicode="&#x10e8;" horiz-adv-x="592" 
d="M286 -10q-108 0 -168.5 70.5t-60.5 196.5q0 120 60.5 187.5t159.5 67.5q69 0 113 -30.5t65 -75.5h4q-1 18 -2.5 46t-1.5 48v105q0 63 -29.5 90.5t-70.5 27.5q-39 0 -65.5 -23t-26.5 -69v-44h-55v36q0 48 -24 73.5t-65 25.5q-20 0 -38 -5t-33 -10l-14 46q15 6 36 11.5
t50 5.5q38 0 68.5 -17.5t45.5 -61.5h3q15 44 49 61.5t73 17.5t74 -16.5t57 -51.5t22 -92v-360q0 -128 -58 -194t-168 -66zM286 39q87 0 128.5 54t41.5 148v18q0 95 -41 149.5t-132 54.5q-79 0 -123 -56.5t-44 -150.5q0 -101 43 -159t127 -58z" />
    <glyph glyph-name="uni10E9" unicode="&#x10e9;" horiz-adv-x="582" 
d="M80 0v593q0 82 48 129.5t123 47.5q72 0 118 -39t46 -102q0 -39 -17.5 -70t-54.5 -53v-2q83 -11 132.5 -72t49.5 -166q0 -81 -18 -151t-37 -115h-59q22 55 38.5 119t16.5 143q0 97 -46 147.5t-112 50.5q-74 0 -122.5 -55.5t-48.5 -160.5v-244h-57zM134 396h4
q16 39 43 62.5t68 41.5q49 21 78 47.5t29 77.5q0 44 -28.5 69.5t-78.5 25.5t-81 -33t-31 -93v-120q0 -19 -1 -34.5t-2 -43.5z" />
    <glyph glyph-name="uni10EA" unicode="&#x10ea;" horiz-adv-x="639" 
d="M338 -245q-142 0 -211.5 103t-69.5 293q0 71 11 141t31.5 131.5t47.5 108.5h58q-41 -73 -65.5 -174t-24.5 -206q0 -162 53.5 -254.5t170.5 -92.5q96 0 142.5 48t46.5 135q0 74 -46.5 123t-130.5 49h-45v49h63q138 0 138 102q0 37 -16 60.5t-39 41.5q-29 22 -52.5 47.5
t-23.5 71.5h57q0 -28 19.5 -48t44.5 -39q29 -22 49 -51.5t20 -77.5q0 -60 -36.5 -90.5t-95.5 -40.5v-3q39 -7 74 -31.5t57 -66.5t22 -102q0 -103 -64 -165t-185 -62z" />
    <glyph glyph-name="uni10EB" unicode="&#x10eb;" horiz-adv-x="592" 
d="M286 -10q-108 0 -168.5 71.5t-60.5 205.5q0 135 60.5 205t159.5 70q69 0 113 -30.5t65 -75.5h4q-1 19 -2.5 49.5t-1.5 50.5v224h57v-500q0 -135 -58 -202.5t-168 -67.5zM286 39q87 0 128.5 55t41.5 157v18q0 110 -41 167t-132 57q-79 0 -123 -59t-44 -168
q0 -108 43 -167.5t127 -59.5z" />
    <glyph glyph-name="uni10EC" unicode="&#x10ec;" horiz-adv-x="592" 
d="M306 -10q-109 0 -167.5 66t-58.5 194v360q0 57 22 92t57 51.5t75 16.5q38 0 72.5 -17.5t49.5 -61.5h2q15 44 45.5 61.5t69.5 17.5q28 0 49 -5.5t36 -11.5l-14 -46q-15 5 -33 10t-38 5q-41 0 -65 -25t-24 -71v-39h-55v47q0 44 -26.5 66.5t-65.5 22.5q-41 0 -70.5 -27.5
t-29.5 -90.5v-105q0 -20 -1.5 -48t-2.5 -46h4q21 45 65 75.5t114 30.5q98 0 158.5 -67.5t60.5 -187.5q0 -126 -60.5 -196.5t-168.5 -70.5zM306 39q84 0 127 58t43 159q0 94 -44 150.5t-122 56.5q-92 0 -132.5 -54.5t-40.5 -149.5v-18q0 -94 41 -148t128 -54z" />
    <glyph glyph-name="uni10ED" unicode="&#x10ed;" horiz-adv-x="571" 
d="M293 -250q-103 0 -164 59.5t-61 161.5q0 31 6 55.5t13 42.5h55q-7 -18 -12 -43t-5 -51q0 -79 44 -127.5t124 -48.5q59 0 94.5 26.5t52 68.5t16.5 89q0 50 -16 88.5t-37 73.5q-22 36 -40 79t-22 101h-2q-19 -44 -55.5 -65.5t-85.5 -21.5q-38 0 -71 17t-54 49.5t-21 80.5
q0 50 22.5 82.5t59 48.5t78.5 16h119v228h56v-228h122v-49h-122v-111q0 -65 19 -111.5t44 -86.5q25 -42 44.5 -87.5t19.5 -105.5q0 -63 -24 -115.5t-73 -84t-124 -31.5zM211 287q62 0 91 40t29 100v56h-110q-57 0 -84.5 -26.5t-27.5 -71.5q0 -49 29 -73.5t73 -24.5z" />
    <glyph glyph-name="uni10EE" unicode="&#x10ee;" horiz-adv-x="592" 
d="M306 -10q-109 0 -167.5 67.5t-58.5 202.5v500h57v-224q0 -20 -1.5 -50.5t-2.5 -49.5h4q21 45 65 75.5t114 30.5q98 0 158.5 -70t60.5 -205q0 -134 -60.5 -205.5t-168.5 -71.5zM306 39q84 0 127 59.5t43 167.5q0 109 -44 168t-122 59q-92 0 -132.5 -57t-40.5 -167v-18
q0 -102 41 -157t128 -55z" />
    <glyph glyph-name="uni10EF" unicode="&#x10ef;" horiz-adv-x="552" 
d="M303 335q0 -41 14.5 -72t37 -57.5t47.5 -52.5t47 -54.5t36.5 -64t14.5 -81.5q0 -56 -25.5 -102.5t-75.5 -73.5t-122 -27q-69 0 -119.5 25t-78 69.5t-27.5 104.5q0 27 4 48.5t12 39.5h54q-7 -18 -10 -39.5t-3 -44.5q0 -67 44 -110.5t124 -43.5q53 0 89.5 21t55.5 55.5
t19 74.5q0 61 -27.5 101.5t-61.5 76.5q-26 27 -50 56.5t-40 65t-16 82.5v34l-184 35v49l184 -35v127h57v-137l187 -35v-49l-187 35v-21z" />
    <glyph glyph-name="uni10F0" unicode="&#x10f0;" horiz-adv-x="552" 
d="M272 -10q-74 0 -123 26.5t-74 68.5t-25 89q0 21 5 41h55q-3 -17 -3 -33q0 -38 17 -70.5t53.5 -52.5t94.5 -20q85 0 124.5 35t39.5 83q0 54 -39.5 84t-118.5 30h-45v49h66q58 0 92.5 18t34.5 64q0 40 -35.5 60.5t-97.5 20.5h-60v49h64q60 0 83.5 17t23.5 46
q0 26 -21.5 41.5t-51.5 27.5q-26 10 -50.5 21t-40.5 29t-16 46h57q2 -20 26.5 -34t58.5 -26q24 -9 46 -22t36.5 -32.5t14.5 -47.5q0 -33 -26 -56.5t-75 -31.5v-3q29 -3 57 -15t47 -34t19 -56q0 -38 -18 -60.5t-46 -33.5t-59 -15v-3q56 -9 94.5 -40t38.5 -94q0 -46 -26.5 -84
t-76.5 -60t-120 -22z" />
    <glyph glyph-name="uni10F1" unicode="&#x10f1;" horiz-adv-x="644" 
d="M358 -10q-157 0 -229 103t-72 293q0 67 11 135.5t31.5 130t47.5 108.5h58q-27 -49 -47.5 -110.5t-31.5 -129t-11 -133.5q0 -108 24 -186t78 -120t142 -42q81 0 125 32.5t44 85.5q0 54 -39 84t-118 30h-45v49h65q59 0 93 18t34 64q0 40 -35 60.5t-97 20.5h-60v49h63
q60 0 84 18.5t24 44.5q0 27 -16.5 42t-36.5 27q-28 15 -52.5 35.5t-24.5 60.5h57q0 -23 18 -37.5t42 -27.5q27 -14 49.5 -36t22.5 -63q0 -70 -102 -86v-3q29 -3 57.5 -15t47 -34t18.5 -56q0 -38 -17.5 -60.5t-46 -33.5t-59.5 -15v-3q56 -9 94.5 -40t38.5 -94
q0 -75 -61.5 -120.5t-167.5 -45.5z" />
    <glyph glyph-name="uni10F2" unicode="&#x10f2;" horiz-adv-x="562" 
d="M66 0v49q44 0 83 5.5t80 16.5v3q-82 39 -127 108.5t-45 144.5q0 59 25.5 108t75 78t122.5 29t123 -29t76 -78t26 -108q0 -50 -21 -98.5t-59.5 -88.5t-93.5 -66v-3q41 -11 80 -16.5t84 -5.5v-49q-64 0 -116.5 11.5t-98.5 34.5q-46 -23 -98.5 -34.5t-115.5 -11.5zM280 92
q74 36 120 97.5t46 138.5q0 46 -19 83.5t-56 59.5t-91 22q-53 0 -90 -22t-55.5 -59.5t-18.5 -83.5q0 -77 45 -138.5t119 -97.5z" />
    <glyph glyph-name="uni10F3" unicode="&#x10f3;" horiz-adv-x="566" 
d="M283 -250q-72 0 -123.5 26.5t-79.5 74t-28 110.5q0 31 6 55.5t13 42.5h55q-7 -18 -12 -43t-5 -51q0 -72 44.5 -119t129.5 -47q60 0 97.5 25t56 67.5t18.5 93.5q0 92 -48.5 138t-132.5 46h-46v42l192 272h-325v49h393v-42l-196 -273q63 -3 113.5 -29.5t79.5 -78t29 -126.5
q0 -67 -26.5 -120t-77.5 -83t-127 -30z" />
    <glyph glyph-name="uni10F4" unicode="&#x10f4;" horiz-adv-x="556" 
d="M274 -250q-103 0 -162.5 53t-59.5 143q0 23 4 43t8 30h55q-3 -11 -6 -30t-3 -43q0 -67 42 -107t122 -40q59 0 96.5 25t56 65.5t18.5 88.5q0 76 -49.5 125.5t-133.5 49.5h-45v49h59q137 0 137 118q0 37 -17 62t-44 42.5t-58 32.5q-38 18 -74.5 39t-60.5 52.5t-24 80.5
q0 71 44 106t111 35q41 0 73.5 -8.5t60.5 -21.5l-20 -47q-27 13 -54.5 20.5t-59.5 7.5q-46 0 -73 -22t-27 -67q0 -35 18 -58t47.5 -40t62.5 -32q37 -18 72.5 -39.5t58.5 -54.5t23 -86q0 -66 -36.5 -100t-94.5 -44v-3q39 -7 76.5 -31.5t62 -67t24.5 -103.5
q0 -63 -26.5 -113.5t-77.5 -80t-126 -29.5z" />
    <glyph glyph-name="uni10F5" unicode="&#x10f5;" horiz-adv-x="640" 
d="M275 -10q-100 0 -159 44.5t-59 130.5q0 78 57 120t153 42h167v125h-174q-88 0 -139 39.5t-51 116.5t57 119.5t155 42.5q209 0 209 -205v-63h115v-50h-115v-125h115v-49h-115v-66q0 -113 -53 -167.5t-163 -54.5zM264 502h170v65q0 81 -38 117.5t-115 36.5
q-76 0 -114 -30.5t-38 -81.5t33.5 -79t101.5 -28zM277 40q83 0 120 42.5t37 131.5v64h-172q-71 0 -108.5 -31t-37.5 -82q0 -57 40 -91t121 -34z" />
    <glyph glyph-name="uni10F6" unicode="&#x10f6;" horiz-adv-x="916" 
d="M362 -250q-41 0 -65 13v46q10 -4 24.5 -7t31.5 -3q39 0 58 24.5t19 84.5v80q0 48 4 103h-4q-23 -44 -64 -72.5t-99 -28.5q-101 0 -155.5 73.5t-54.5 208.5q0 130 53 200t153 70q62 0 103 -31t64 -80h3q-3 50 -3 106v80q0 82 35.5 117.5t92.5 35.5q16 0 30.5 -3t23.5 -7
v-46q-8 3 -20.5 5.5t-25.5 2.5q-39 0 -59 -23.5t-20 -83.5v-78q0 -56 -3 -106h3q22 49 63 80t104 31q99 0 152 -70t53 -200q0 -135 -54.5 -208.5t-154.5 -73.5q-59 0 -100 28.5t-63 72.5h-4q4 -55 4 -103v-82q0 -83 -34.5 -119.5t-90.5 -36.5zM274 39q74 0 115 51t41 165v21
q0 217 -159 217q-155 0 -155 -220q0 -115 41 -174.5t117 -59.5zM642 39q76 0 117 59.5t41 174.5q0 220 -155 220q-159 0 -159 -217v-21q0 -114 41 -165t115 -51z" />
    <glyph glyph-name="uni10F7" unicode="&#x10f7;" horiz-adv-x="537" 
d="M265 -250q-96 0 -154.5 54.5t-58.5 149.5q0 67 25 113.5t70 79.5t103 61q51 24 85 46.5t52 51t18 69.5q0 55 -34 86.5t-103 31.5q-71 0 -105.5 -32t-34.5 -87q0 -7 1 -15t2 -14h-57q-1 7 -2 15.5t-1 15.5q0 74 51.5 120t145.5 46q95 0 145 -44.5t50 -122.5
q0 -53 -21.5 -90t-65 -67t-107.5 -60q-47 -23 -82.5 -49.5t-55.5 -63.5t-20 -91q0 -71 41.5 -112.5t112.5 -41.5q74 0 117.5 39t43.5 115q0 26 -3 43t-8 29h60q4 -13 7 -29.5t3 -42.5q0 -101 -60.5 -152.5t-159.5 -51.5z" />
    <glyph glyph-name="uni10F8" unicode="&#x10f8;" horiz-adv-x="585" 
d="M302 -250q-113 0 -167.5 69.5t-54.5 185.5v527h57v-169q0 -93 51 -135.5t128 -42.5q68 0 109.5 41.5t41.5 131.5q0 53 -9.5 92.5t-27.5 81.5h57q18 -38 28.5 -79t10.5 -94q0 -114 -55 -169t-149 -55q-64 0 -112.5 27t-72.5 77h-4q2 -18 3 -47.5t1 -54.5v-130
q0 -61 16.5 -108t53 -73.5t95.5 -26.5q79 0 123 43.5t44 110.5q0 23 -3 44.5t-10 39.5h55q7 -18 11 -39.5t4 -48.5q0 -60 -27.5 -104.5t-78 -69.5t-118.5 -25z" />
    <glyph glyph-name="uni10F9" unicode="&#x10f9;" horiz-adv-x="590" 
d="M297 542q73 0 126 -34t81.5 -94t28.5 -138q0 -122 -61.5 -190t-165.5 -77q-60 -6 -92.5 -32.5t-32.5 -74.5q0 -46 29 -75t85 -29q54 0 84 28t30 74q0 8 -1 16t-3 17h56q5 -20 5 -41q0 -62 -48 -102t-123 -40q-78 0 -124.5 42.5t-46.5 105.5q0 47 25.5 80t74.5 47v2
q-77 17 -122 82t-45 167q0 78 27.5 138t81 94t131.5 34zM296 493q-62 0 -102 -28t-59 -77t-19 -112q0 -62 18 -111t57.5 -77t101.5 -28q90 0 135.5 58.5t45.5 157.5q0 63 -19 112t-58.5 77t-100.5 28z" />
    <glyph glyph-name="uni10FA" unicode="&#x10fa;" horiz-adv-x="479" 
d="M123 -104v53l136 51v2q-66 7 -111 42.5t-68 92t-23 126.5q0 90 32 152t89.5 94.5t134.5 32.5q38 0 72 -7t60 -19l-16 -49q-27 11 -58 17.5t-59 6.5q-95 0 -145.5 -61t-50.5 -166q0 -64 20.5 -114.5t61.5 -79.5t103 -29q39 0 74 8t63 20v-55z" />
    <glyph glyph-name="uni10FB" unicode="&#x10fb;" horiz-adv-x="514" 
d="M121 419q-22 0 -32.5 13.5t-10.5 36.5q0 22 10 35.5t33 13.5q24 0 34.5 -13.5t10.5 -35.5q0 -23 -11 -36.5t-34 -13.5zM397 219q-44 0 -44 49q0 23 10.5 36.5t33.5 13.5q24 0 34 -13.5t10 -36.5q0 -22 -10.5 -35.5t-33.5 -13.5zM121 -11q-22 0 -32.5 13.5t-10.5 36.5
q0 22 10 35.5t33 13.5q24 0 34.5 -13.5t10.5 -35.5q0 -23 -11 -36.5t-34 -13.5z" />
    <glyph glyph-name="uni10FC" unicode="&#x10fc;" horiz-adv-x="346" 
d="M177 408q-64 0 -98 40t-34 115v176q0 56 32 81t78 25h131v-39h-126q-31 0 -48 -15t-17 -48v-23q0 -12 -0.5 -29t-2.5 -29h2q11 27 35.5 43t62.5 16q53 0 87 -39t34 -115q0 -75 -35.5 -117t-100.5 -42zM177 450q42 0 63.5 31t21.5 85q0 57 -23 86t-61 29
q-45 0 -65.5 -28.5t-20.5 -81.5v-12q0 -109 85 -109z" />
    <glyph glyph-name="uni10FD" unicode="&#x10fd;" horiz-adv-x="537" 
d="M272 -10q-99 0 -159.5 51.5t-60.5 152.5q0 26 2.5 42.5t7.5 29.5h60q-5 -12 -8 -29t-3 -43q0 -76 43.5 -115t117.5 -39q70 0 112 41.5t42 112.5q0 54 -20 88t-55.5 57.5t-82.5 46.5q-64 31 -107.5 60.5t-65 66.5t-21.5 90q0 78 50 122.5t145 44.5q94 0 145.5 -46
t51.5 -120q0 -7 -1 -15.5t-2 -15.5h-57q1 6 2 14t1 15q0 55 -35 87t-105 32q-69 0 -103 -31.5t-34 -86.5q0 -41 17.5 -69.5t52 -51t85.5 -46.5q58 -28 102.5 -58.5t70 -73.5t25.5 -110q0 -95 -58.5 -149.5t-154.5 -54.5z" />
    <glyph glyph-name="uni10FE" unicode="&#x10fe;" horiz-adv-x="562" 
d="M66 532q63 0 115.5 -11.5t98.5 -34.5q46 23 98.5 34.5t116.5 11.5v-48q-45 0 -84 -6t-80 -17v-2q55 -26 93.5 -66.5t59.5 -89t21 -98.5q0 -59 -26 -108t-76 -78t-123 -29t-122.5 29t-75 78t-25.5 108q0 75 45 145t127 109v2q-41 11 -80 17t-83 6v48zM280 440
q-74 -36 -119 -97.5t-45 -137.5q0 -46 18.5 -84t55.5 -60t90 -22q54 0 91 22t56 60t19 84q0 76 -46 137.5t-120 97.5z" />
    <glyph glyph-name="uni10FF" unicode="&#x10ff;" horiz-adv-x="590" 
d="M533 267q0 -84 -27.5 -146t-81 -96.5t-130.5 -34.5q-74 0 -127 34t-81.5 96.5t-28.5 146.5q0 129 64 202t177 73q76 0 128.5 -34.5t79.5 -96.5t27 -144zM116 267q0 -103 43.5 -165.5t135.5 -62.5q93 0 136 63t43 165q0 66 -18 117t-57 80t-102 29q-90 0 -135.5 -60
t-45.5 -166z" />
    <glyph glyph-name="uni1C90" unicode="&#x1c90;" horiz-adv-x="587" 
d="M292 -9q-72 0 -124.5 28t-81.5 79.5t-29 121.5q0 30 4 62t18 70h-24l29 12q-3 -6 -5 -12h59q-12 -35 -16.5 -68.5t-4.5 -58.5q0 -83 46 -133t129 -50q59 0 96.5 26.5t56 71t18.5 99.5t-14.5 97.5t-38 77t-48.5 65.5q-27 34 -51.5 68.5t-37.5 75t-9 91.5h58
q-3 -44 10 -79.5t35 -66.5t48 -63q26 -34 51 -72t41.5 -85.5t16.5 -110.5q0 -71 -26.5 -126.5t-78.5 -87.5t-127 -32zM143 364l21 -12h-26q3 6 5 12z" />
    <glyph glyph-name="uni1C91" unicode="&#x1c91;" horiz-adv-x="611" 
d="M305 -9q-72 0 -126.5 31.5t-85 90.5t-30.5 138t30 136t82 88.5t119 34.5q12 21 12 47q0 24 -14 38.5t-30 26.5q-20 15 -38 36.5t-14 55.5h58q-1 -22 11.5 -36.5t27.5 -24.5q22 -16 39.5 -37t17.5 -51q0 -17 -4 -31t-11 -27q59 -10 104 -44t70 -88.5t25 -123.5
q0 -79 -31 -137.5t-85.5 -90.5t-126.5 -32zM306 42q84 0 132.5 58t48.5 151q0 61 -22 107.5t-62.5 73.5t-97.5 27q-81 0 -131 -55.5t-50 -152.5q0 -94 49.5 -151.5t132.5 -57.5z" />
    <glyph glyph-name="uni1C92" unicode="&#x1c92;" horiz-adv-x="599" 
d="M299 -9q-72 0 -126.5 31.5t-85 88t-30.5 130.5q0 76 29.5 129.5t82 83.5t120.5 34q131 8 131 95q0 41 -32 67t-88 26t-89.5 -26.5t-33.5 -68.5q0 -14 3 -29h-59q-4 20 -4 36q0 40 24.5 71t66 48t92.5 17q54 0 94 -18.5t63 -50t23 -71.5q0 -44 -24.5 -74t-70.5 -43v-2
q71 -18 114 -76.5t43 -147.5q0 -74 -31 -130.5t-85.5 -88t-126.5 -31.5zM300 42q56 0 96.5 26t62.5 71t22 102q0 86 -48.5 141t-133.5 55q-81 0 -131 -52t-50 -144q0 -57 22.5 -102t63 -71t96.5 -26z" />
    <glyph glyph-name="uni1C93" unicode="&#x1c93;" horiz-adv-x="902" 
d="M575 0q-8 39 -43 65t-85.5 39.5t-103.5 13.5q-43 0 -83.5 -9t-73.5 -26l-22 43q26 13 58.5 21.5t81.5 10.5v2q-116 36 -178.5 120.5t-62.5 201.5q0 109 51 174.5t145 65.5q64 0 110 -33.5t56 -97.5h3q14 58 64.5 94.5t122.5 36.5q70 0 120 -31t77 -85.5t27 -124.5
t-27 -124.5t-77.5 -85t-119.5 -30.5q-70 0 -120 31t-76.5 85t-26.5 123v32q0 75 -33 117t-97 42q-68 0 -103 -49.5t-35 -139.5q0 -77 25 -130.5t67 -89t93.5 -58t104.5 -36.5t100 -34t78.5 -51.5t37.5 -82.5h-55zM614 291q56 0 92 25t54 68t18 97q0 81 -40.5 135t-122.5 54
t-122 -54t-40 -135q0 -54 18 -97t53.5 -68t89.5 -25z" />
    <glyph glyph-name="uni1C94" unicode="&#x1c94;" horiz-adv-x="611" 
d="M291 -9q-107 0 -170.5 57.5t-63.5 156.5q0 28 4 50t10 39h57q-4 -16 -7.5 -38.5t-3.5 -45.5q0 -78 45.5 -123t128.5 -45q92 0 132.5 52.5t40.5 134.5v282q0 75 -41.5 118.5t-118.5 43.5q-73 0 -115.5 -37t-42.5 -103q0 -21 2.5 -39t5.5 -35h-58q-4 15 -6.5 34.5
t-2.5 40.5q0 89 60 139.5t157 50.5q102 0 160 -57.5t58 -154.5v-285q0 -107 -57 -171.5t-174 -64.5z" />
    <glyph glyph-name="uni1C95" unicode="&#x1c95;" horiz-adv-x="593" 
d="M298 -10q-111 0 -176 56t-65 151q0 20 4 40t11 40h58q-6 -18 -9.5 -37.5t-3.5 -37.5q0 -78 48.5 -119t132.5 -41q61 0 100 22.5t58 61t19 85.5q0 71 -48 111.5t-128 40.5h-49v51h57q72 0 110.5 35.5t38.5 95.5q0 52 -39 90t-114 38t-115.5 -36t-40.5 -88q0 -15 2 -29.5
t5 -25.5h-59q-7 27 -7 58q0 47 26 86t74 62.5t115 23.5t115 -24t73 -64.5t25 -89.5q0 -64 -34.5 -104.5t-95.5 -51.5v-2q40 -6 74.5 -28.5t55 -60.5t20.5 -91q0 -62 -27 -111.5t-80 -78t-131 -28.5z" />
    <glyph glyph-name="uni1C96" unicode="&#x1c96;" horiz-adv-x="637" 
d="M337 -10q-74 0 -127.5 31t-81.5 86.5t-28 128.5q0 56 16 103t58 81v2q-58 7 -96.5 46.5t-38.5 102.5q0 44 21 78.5t58.5 54.5t85.5 20q51 0 88 -19.5t57.5 -52.5t20.5 -72q0 -66 -36 -95v-2q5 0 9.5 0.5t12.5 0.5q72 -3 120.5 -36.5t73 -87.5t24.5 -121q0 -74 -28 -130
t-81 -87.5t-128 -31.5zM204 460q48 0 78 28.5t30 79.5q0 48 -27.5 77.5t-80.5 29.5q-49 0 -78 -29.5t-29 -77.5q0 -47 29 -77.5t78 -30.5zM338 42q61 0 99.5 25.5t57 70t18.5 101.5q0 56 -17.5 100.5t-56 70.5t-102.5 26q-90 0 -133 -54t-43 -143q0 -57 18 -101.5t57.5 -70
t101.5 -25.5z" />
    <glyph glyph-name="uni1C97" unicode="&#x1c97;" horiz-adv-x="965" 
d="M686 724q56 0 104 -31t77.5 -99t29.5 -179q0 -88 -10.5 -159.5t-29.5 -133.5t-46 -122h-61q27 63 46 125.5t29.5 132.5t10.5 154q0 96 -21.5 153t-56.5 82.5t-77 25.5q-56 0 -96 -39.5t-40 -118.5q0 -35 4 -71.5t4 -86.5q0 -186 -60.5 -276.5t-181.5 -90.5
q-242 0 -242 367q0 186 60 276.5t182 90.5q145 0 196 -131h2q18 68 68 99.5t109 31.5zM311 42q93 0 137 77.5t44 237.5q0 163 -45 239.5t-136 76.5q-94 0 -137.5 -77.5t-43.5 -238.5q0 -163 44.5 -239t136.5 -76z" />
    <glyph glyph-name="uni1C98" unicode="&#x1c98;" horiz-adv-x="621" 
d="M138 0q-20 50 -36 107.5t-24.5 129t-8.5 163.5q0 114 31.5 185.5t86 105t124.5 33.5q69 0 123.5 -33.5t86.5 -105t32 -185.5q0 -92 -9 -163.5t-24.5 -129t-35.5 -107.5h-60q20 53 35.5 110.5t24 127.5t8.5 159q0 99 -23 159.5t-63.5 88.5t-94.5 28t-95 -28t-63.5 -88.5
t-22.5 -159.5q0 -89 8 -159t23.5 -127.5t35.5 -110.5h-59z" />
    <glyph glyph-name="uni1C99" unicode="&#x1c99;" horiz-adv-x="579" 
d="M282 -10q-69 0 -120.5 25.5t-80.5 72t-29 109.5q0 20 4 40t11 40h58q-6 -18 -9.5 -37.5t-3.5 -37.5q0 -78 47 -119.5t123 -41.5q62 0 101.5 22.5t58.5 60.5t19 84q0 81 -45 127t-127 46h-44v50h52q72 0 108 35t36 88q0 49 -34 85t-102 36v50q62 0 105.5 -23.5t66.5 -61
t23 -80.5q0 -61 -33.5 -101t-91.5 -51v-3q40 -6 73 -30.5t53.5 -67t20.5 -101.5q0 -62 -27.5 -111t-80.5 -77t-132 -28z" />
    <glyph glyph-name="uni1C9A" unicode="&#x1c9a;" horiz-adv-x="1114" 
d="M730 1q-6 39 -38 67t-78.5 45t-97.5 25t-94 8q-63 0 -113 -14t-86 -32l-24 43q27 14 68 26t80 12v3q-56 9 -107 31.5t-91 60t-63 92.5t-23 131q0 103 49.5 164t141.5 61q59 0 98.5 -29t51.5 -83h3q14 55 54 83.5t96 28.5q58 0 97 -29t53 -83h3q13 54 52.5 83t96.5 29
q92 0 142 -64.5t50 -178.5q0 -61 -13.5 -112.5t-37.5 -101.5l-53 19q22 49 32.5 96t10.5 102q0 92 -35 140.5t-101 48.5q-58 0 -87.5 -41t-29.5 -111v-130h-57v131q0 68 -31 109.5t-92 41.5q-60 0 -91.5 -40t-31.5 -111v-131h-57v130q0 67 -29 109.5t-89 42.5
q-66 0 -100.5 -44.5t-34.5 -129.5q0 -100 44 -161.5t120.5 -94t171.5 -44.5q51 -7 105.5 -20t101.5 -35t79.5 -57t40.5 -87z" />
    <glyph glyph-name="uni1C9B" unicode="&#x1c9b;" horiz-adv-x="623" 
d="M302 -9q-113 0 -176 67t-63 192q0 120 63 185.5t166 65.5q70 0 116 -29t68 -71h4q-1 16 -2.5 41.5t-1.5 46.5v43q0 70 -45.5 106t-121.5 36q-43 0 -80 -12.5t-59.5 -38.5t-22.5 -66q0 -5 1 -11h-57q-1 7 -1 10.5v8.5q0 49 30.5 85t80.5 55t108 19q66 0 116.5 -22.5
t79.5 -65.5t29 -106v-286q0 -126 -60 -189.5t-172 -63.5zM302 41q89 0 132 51t43 144v17q0 90 -41 143.5t-138 53.5q-81 0 -127.5 -53.5t-46.5 -147.5q0 -98 44.5 -153t133.5 -55z" />
    <glyph glyph-name="uni1C9C" unicode="&#x1c9c;" horiz-adv-x="623" 
d="M321 -10q-111 0 -171.5 64t-60.5 190v292q0 94 52 136t133 42h238v-51h-232q-62 0 -97.5 -29t-35.5 -98v-43q0 -21 -2 -47t-3 -42h4q22 42 69 71.5t116 29.5q67 0 118.5 -29.5t81 -86t29.5 -139.5q0 -125 -64 -192.5t-175 -67.5zM321 41q86 0 132 55t46 153
q0 97 -47.5 151t-126.5 54q-91 0 -135 -54t-44 -147v-17q0 -93 43.5 -144t131.5 -51z" />
    <glyph glyph-name="uni1C9D" unicode="&#x1c9d;" horiz-adv-x="886" 
d="M154 0q-41 90 -63 187.5t-22 227.5q0 111 29.5 179t77.5 99t102 31q31 0 64.5 -11t60.5 -38.5t39 -77.5h3q11 49 38 76.5t60.5 39t63.5 11.5q56 0 104 -31t77.5 -99t29.5 -179q0 -88 -10.5 -159.5t-29.5 -133.5t-46 -122h-61q27 63 46 125.5t29.5 132.5t10.5 154
q0 96 -21.5 153t-56.5 82.5t-75 25.5q-34 0 -63.5 -18t-48 -58.5t-18.5 -109.5v-277h-61v277q0 69 -19 109.5t-49 58.5t-63 18q-40 0 -74.5 -25.5t-56 -82.5t-21.5 -153q0 -123 22 -220.5t63 -191.5h-61z" />
    <glyph glyph-name="uni1C9E" unicode="&#x1c9e;" horiz-adv-x="590" 
d="M290 -10q-70 0 -122.5 25.5t-81.5 72t-29 109.5q0 20 4 40t11 40h58q-6 -18 -9.5 -37.5t-3.5 -37.5q0 -78 47.5 -119t125.5 -41q61 0 100 22.5t57.5 59.5t18.5 81q0 50 -24 85.5t-64 54.5t-89 19h-60v50h70q63 0 100.5 21.5t37.5 64.5q0 41 -24 62t-56 37
q-26 14 -49.5 29t-38 35.5t-13.5 50.5h59q0 -25 25.5 -43t61.5 -36t65.5 -48t29.5 -82q0 -53 -34 -79t-79 -35v-3q30 -6 63 -27.5t56.5 -61t23.5 -99.5q0 -59 -27 -106.5t-79.5 -75.5t-130.5 -28z" />
    <glyph glyph-name="uni1C9F" unicode="&#x1c9f;" horiz-adv-x="637" 
d="M315 -10q-71 0 -123.5 25.5t-81.5 72t-29 109.5q0 20 3.5 40t10.5 40h58q-5 -18 -8.5 -37.5t-3.5 -37.5q0 -78 47 -119t127 -41q91 0 131 52t40 134v436q-50 -19 -105 -31.5t-108 -18.5v-1q32 -11 54 -39t22 -70q0 -57 -41 -94.5t-109 -37.5t-107 35t-39 83q0 18 5 32h51
q-1 -7 -1.5 -13t-0.5 -12q0 -33 24 -55t68 -22q45 0 70 24.5t25 63.5q0 45 -28 68t-73 26v44q76 8 156 24.5t144 43.5h51v-487q0 -107 -56 -172t-173 -65z" />
    <glyph glyph-name="uni1CA0" unicode="&#x1ca0;" horiz-adv-x="820" 
d="M118 0q-20 49 -32 92t-17.5 91.5t-5.5 113.5q0 144 46.5 234.5t154.5 131.5q96 37 282 61l9 -52q-104 -13 -170 -27t-103 -29q-55 -22 -99.5 -64.5t-63.5 -124.5h3q24 48 65 65t77 17q52 0 91.5 -27.5t53.5 -80.5h2q14 53 55.5 80.5t98.5 27.5q90 0 141 -64t51 -181
q0 -76 -16 -138.5t-40 -125.5h-60q25 64 40 126.5t15 138.5q0 94 -34.5 144t-101.5 50q-57 0 -89.5 -39t-32.5 -112v-144h-57v144q0 73 -32.5 112t-88.5 39q-137 0 -137 -195q0 -75 14.5 -137t40.5 -127h-60z" />
    <glyph glyph-name="uni1CA1" unicode="&#x1ca1;" horiz-adv-x="624" 
d="M325 -10q-116 0 -176 63.5t-60 187.5v473h58v-477q0 -93 43.5 -144t134.5 -51q57 0 96 22.5t59 61t20 83.5t-15.5 75t-35.5 56q-25 31 -46.5 68.5t-19.5 91.5h59q-1 -43 18 -74.5t45 -63.5q23 -29 39.5 -65.5t16.5 -88.5q0 -62 -28.5 -111.5t-81 -78t-126.5 -28.5z" />
    <glyph glyph-name="uni1CA2" unicode="&#x1ca2;" horiz-adv-x="796" 
d="M398 -10q-107 0 -181.5 44t-114 124.5t-39.5 188.5q0 158 80 250t227 102q-2 9 -2 19.5v18.5v13h60v-14q0 -7 -0.5 -17t-1.5 -19q146 -11 226.5 -103t80.5 -251q0 -105 -39 -185t-113.5 -125.5t-182.5 -45.5zM398 42q133 0 203 82t70 223q0 133 -61.5 212.5t-184.5 90.5
q0 -15 1 -33.5t1 -38.5v-244h-59v243q0 20 0.5 38t2.5 34q-125 -10 -186 -90t-61 -212q0 -93 31.5 -161.5t93 -106t149.5 -37.5z" />
    <glyph glyph-name="uni1CA3" unicode="&#x1ca3;" 
d="M296 -9q-108 0 -171 57.5t-63 156.5q0 28 4 50t10 39h57q-5 -16 -8.5 -38.5t-3.5 -45.5q0 -78 46 -123t129 -45q91 0 132 52.5t41 134.5v332q0 53 -26 83.5t-77 30.5q-48 0 -73.5 -31t-25.5 -82v-117h-57v117q0 50 -24.5 78.5t-75.5 28.5h-60v51h59q48 0 81.5 -19.5
t47.5 -65.5h3q13 44 47.5 67t82.5 23q74 0 115 -42.5t41 -114.5v-341q0 -107 -57.5 -171.5t-173.5 -64.5z" />
    <glyph glyph-name="uni1CA4" unicode="&#x1ca4;" horiz-adv-x="892" 
d="M541 -9q-132 0 -198.5 47t-66.5 118q0 15 4 35h56q-2 -15 -2 -27q0 -54 50 -88.5t157 -34.5q74 0 120 21.5t67 55.5t21 73q0 52 -33 90.5t-108 38.5h-23v50h37q65 0 105.5 42t40.5 112q0 66 -29.5 106.5t-97.5 40.5q-64 0 -97.5 -41.5t-33.5 -115.5v-31q0 -65 -26.5 -117
t-76.5 -82.5t-120 -30.5q-69 0 -119.5 30.5t-77.5 82.5t-27 117q0 69 27 123t77 85t120 31q72 0 122.5 -36.5t65.5 -94.5h3q9 64 55 97.5t110 33.5q62 0 103 -25.5t62 -68.5t21 -97q0 -80 -38.5 -126t-96.5 -58v-3q58 -13 87 -54.5t29 -100.5q0 -54 -29.5 -99t-89 -72
t-150.5 -27zM288 304q54 0 89.5 24.5t53.5 65.5t18 89q0 53 -17.5 95.5t-53.5 67t-91 24.5q-54 0 -90.5 -24.5t-54.5 -67t-18 -95.5q0 -49 18 -90t54.5 -65t91.5 -24z" />
    <glyph glyph-name="uni1CA5" unicode="&#x1ca5;" horiz-adv-x="609" 
d="M290 -10q-70 0 -122.5 25.5t-81.5 72t-29 109.5q0 20 4 40t11 40h58q-6 -18 -9.5 -37.5t-3.5 -37.5q0 -78 47.5 -119t125.5 -41q91 0 132 53t41 137v130q0 92 -42 148t-125 56q-67 0 -108 -36t-41 -95q0 -23 3 -40h-59q-2 9 -3 19.5t-1 22.5q0 54 26 94.5t72 63t104 22.5
q61 0 107 -27.5t67 -69.5h3q-2 16 -3 44.5t-1 49.5v100h58v-484q0 -109 -57 -174.5t-173 -65.5z" />
    <glyph glyph-name="uni1CA6" unicode="&#x1ca6;" horiz-adv-x="820" 
d="M537 0q-7 44 -36.5 73.5t-73.5 44.5t-96 15q-47 0 -88.5 -9t-73.5 -26l-22 43q25 13 57.5 21.5t80.5 10.5v2q-112 36 -167 115.5t-55 188.5q0 111 50 177.5t146 66.5q59 0 97.5 -28t51.5 -75h4q14 48 53 75.5t97 27.5q95 0 145 -66t50 -179q0 -60 -13 -111.5t-39 -100.5
l-52 19q23 47 33.5 93t10.5 100q0 93 -35 143.5t-105 50.5q-61 0 -89.5 -37.5t-28.5 -100.5v-145h-58v145q0 60 -28.5 99t-88.5 39q-70 0 -105 -50t-35 -142q0 -73 22 -123.5t60.5 -83.5t87.5 -54t102 -36q51 -14 93 -37t69.5 -58.5t34.5 -87.5h-56z" />
    <glyph glyph-name="uni1CA7" unicode="&#x1ca7;" 
d="M296 -10q-70 0 -122.5 25.5t-81.5 72t-29 109.5q0 20 4 40t11 40h58q-6 -18 -9.5 -37.5t-3.5 -37.5q0 -78 47.5 -119t125.5 -41q91 0 132 53t41 137v105q0 24 1 53t2 46h-3q-25 -47 -76 -74.5t-115 -27.5q-97 0 -155 56.5t-58 162.5q0 49 9.5 88t26.5 73h59
q-17 -37 -25.5 -73.5t-8.5 -87.5q0 -81 43.5 -124.5t115.5 -43.5q51 0 92.5 20t66.5 60t25 99v150h58v-484q0 -109 -57.5 -174.5t-173.5 -65.5z" />
    <glyph glyph-name="uni1CA8" unicode="&#x1ca8;" horiz-adv-x="623" 
d="M302 -9q-112 0 -175 67t-63 192q0 121 63 186t165 65q71 0 117 -29t68 -71h4q-2 16 -3 41.5t-1 46.5v78q0 59 -31.5 83.5t-72.5 24.5q-42 0 -69.5 -23.5t-27.5 -66.5v-33h-57v26q0 44 -25 70t-67 26q-22 0 -39.5 -4.5t-31.5 -10.5l-18 46q16 7 40.5 13t50.5 6
q38 0 70.5 -19.5t47.5 -59.5h2q15 41 51.5 60t77.5 19q40 0 75.5 -15.5t58.5 -49t23 -87.5v-328q0 -126 -60 -189.5t-173 -63.5zM302 41q90 0 132.5 51t42.5 144v17q0 90 -41 143.5t-137 53.5q-81 0 -127.5 -53.5t-46.5 -147.5q0 -98 44.5 -153t132.5 -55z" />
    <glyph glyph-name="uni1CA9" unicode="&#x1ca9;" horiz-adv-x="604" 
d="M89 0v545q0 82 50.5 130.5t133.5 48.5q77 0 124.5 -34.5t47.5 -95.5q0 -40 -21 -66.5t-60 -45.5v-3q87 -10 132 -70.5t45 -160.5q0 -46 -6.5 -93t-17.5 -87t-23 -68h-60q22 51 34 114t12 134q0 93 -43 142t-117 49q-49 0 -88 -23.5t-62 -67t-23 -103.5v-245h-58zM143 379
h5q17 37 48 62.5t71 39.5q31 11 58.5 25.5t44.5 34.5t17 50q0 40 -31 61.5t-83 21.5q-60 0 -93 -35.5t-33 -92.5v-94q0 -16 -1 -31.5t-3 -41.5z" />
    <glyph glyph-name="uni1CAA" unicode="&#x1caa;" horiz-adv-x="673" 
d="M358 -9q-147 0 -221 95t-74 274q0 98 25 192.5t64 161.5h60q-39 -69 -63.5 -162t-24.5 -191q0 -150 56.5 -234.5t178.5 -84.5q99 0 147.5 44t48.5 123q0 67 -46.5 111t-132.5 44h-47v52h65q70 0 108.5 23t38.5 65q0 35 -17.5 57t-41.5 40q-27 19 -50.5 44.5t-21.5 68.5
h59q0 -28 18.5 -46t42.5 -35q27 -21 49 -49.5t22 -74.5q0 -51 -33 -81t-95 -38v-3q62 -9 102.5 -55.5t40.5 -128.5q0 -98 -67 -155t-191 -57z" />
    <glyph glyph-name="uni1CAB" unicode="&#x1cab;" horiz-adv-x="624" 
d="M301 -10q-108 0 -173 67.5t-65 193.5q0 85 29.5 142.5t81.5 87t117 29.5q68 0 116.5 -28.5t70.5 -70.5h4q-2 17 -3.5 46t-1.5 49v208h58v-470q0 -126 -62 -190t-172 -64zM301 42q87 0 132 51t45 143v17q0 93 -42 149.5t-138 56.5q-78 0 -126 -54t-48 -155
q0 -98 46.5 -153t130.5 -55z" />
    <glyph glyph-name="uni1CAC" unicode="&#x1cac;" horiz-adv-x="623" 
d="M321 -9q-112 0 -172 63.5t-60 189.5v328q0 54 22.5 87.5t58 49t75.5 15.5q41 0 77.5 -19t52.5 -60h2q15 40 47 59.5t70 19.5q26 0 50.5 -6t41.5 -13l-18 -46q-15 6 -32.5 10.5t-39.5 4.5q-42 0 -67 -26t-25 -70v-26h-57v33q0 43 -27.5 66.5t-69.5 23.5q-41 0 -72 -24.5
t-31 -83.5v-78q0 -21 -1.5 -46.5t-2.5 -41.5h4q21 42 67 71t117 29q102 0 165.5 -65t63.5 -186q0 -125 -63 -192t-176 -67zM321 41q88 0 133 55t45 153q0 94 -46.5 147.5t-127.5 53.5q-95 0 -137 -53.5t-42 -143.5v-17q0 -93 42.5 -144t132.5 -51z" />
    <glyph glyph-name="uni1CAD" unicode="&#x1cad;" 
d="M321 -10q-71 0 -123.5 25t-81.5 69.5t-29 104.5q0 18 6 42h58q-3 -12 -3.5 -20.5t-0.5 -16.5q0 -73 47.5 -112.5t126.5 -39.5q60 0 97.5 21.5t55 58.5t17.5 82q0 39 -14 66.5t-34 50t-38.5 46.5t-26.5 58h-3q-19 -52 -64.5 -75t-96.5 -23q-42 0 -78 17t-57.5 48.5
t-21.5 75.5q0 47 23.5 77.5t61 46t81.5 15.5h124v107h58v-107h108v-50h-108v-44q0 -40 15 -69.5t36.5 -54.5t43.5 -51t37 -58.5t15 -77.5q0 -61 -26 -109t-77 -75.5t-128 -27.5zM227 377q58 0 89 31t31 82v67h-117q-55 0 -84.5 -23.5t-29.5 -65.5q0 -43 31 -67t80 -24z" />
    <glyph glyph-name="uni1CAE" unicode="&#x1cae;" horiz-adv-x="624" 
d="M323 -10q-111 0 -172.5 64t-61.5 190v470h58v-209q0 -20 -2 -49t-3 -46h4q21 42 68.5 71t116.5 29q66 0 118 -29.5t82 -87t30 -142.5q0 -126 -65 -193.5t-173 -67.5zM323 42q84 0 130.5 55t46.5 153q0 101 -48.5 155t-125.5 54q-97 0 -138.5 -56.5t-41.5 -149.5v-17
q0 -91 45 -142.5t132 -51.5z" />
    <glyph glyph-name="uni1CAF" unicode="&#x1caf;" horiz-adv-x="580" 
d="M289 -10q-106 0 -169 56t-63 151q0 20 4 40t11 40h58q-6 -18 -9.5 -37.5t-3.5 -37.5q0 -78 46.5 -119t125.5 -41q56 0 94.5 18.5t58.5 49t20 66.5q0 55 -28.5 91t-65.5 68q-48 40 -78.5 83t-30.5 102v31l-192 31v50l192 -31v113h59v-124l194 -32v-49l-194 31v-19
q0 -35 14.5 -63t38.5 -51.5t50 -46.5q26 -22 49 -48t38 -58.5t15 -75.5q0 -52 -27 -94.5t-79 -68t-128 -25.5z" />
    <glyph glyph-name="uni1CB0" unicode="&#x1cb0;" horiz-adv-x="581" 
d="M286 -10q-77 0 -128 25t-77 64.5t-26 83.5q0 19 5 39h57q-3 -16 -3 -30q0 -35 18 -65t56 -48t97 -18q90 0 131 32t41 75q0 50 -41.5 77.5t-123.5 27.5h-46v50h72q56 0 92 16t36 57q0 39 -36 57.5t-92 18.5h-72v50h70q57 0 82.5 14.5t25.5 39.5q0 26 -24.5 40t-56.5 25
q-26 9 -49.5 20.5t-38 29t-13.5 43.5h59q1 -18 24 -30.5t60 -25.5q24 -9 47 -21t38 -31t15 -47q0 -29 -20.5 -52t-72.5 -28v-3q46 -3 80.5 -27.5t34.5 -72.5q0 -49 -33 -71.5t-82 -26.5v-3q53 -7 89.5 -38t36.5 -90q0 -66 -61 -111.5t-171 -45.5z" />
    <glyph glyph-name="uni1CB1" unicode="&#x1cb1;" horiz-adv-x="678" 
d="M376 -10q-158 0 -235.5 96.5t-77.5 277.5q0 62 11.5 126t32 122t47.5 102h60q-41 -69 -66 -162t-25 -188q0 -151 60 -237t194 -86q84 0 130.5 30t46.5 78q0 49 -41 76.5t-119 27.5h-51v50h67q38 0 68 5.5t48 22t18 47.5q0 37 -37 55t-102 18h-62v50h79q51 0 75 14.5
t24 40.5q0 23 -16.5 37.5t-38.5 26.5q-28 15 -50.5 35.5t-20.5 58.5h59q0 -21 15.5 -34.5t40.5 -27.5q26 -14 49 -35t23 -59q0 -32 -21.5 -52.5t-71.5 -26.5v-2q47 -4 81.5 -28.5t34.5 -70.5q0 -52 -33 -74.5t-83 -28.5v-2q54 -7 90 -36.5t36 -89.5q0 -71 -64 -114t-175 -43
z" />
    <glyph glyph-name="uni1CB2" unicode="&#x1cb2;" horiz-adv-x="610" 
d="M91 0v52q86 4 159 36v2q-87 57 -137 149t-50 213q0 88 31.5 149t86.5 92t124 31q70 0 124.5 -31t86 -92t31.5 -149q0 -121 -49.5 -213t-137.5 -149v-2q73 -32 160 -36v-52q-59 3 -113 17.5t-102 38.5q-48 -24 -102 -38.5t-112 -17.5zM305 114q84 49 132.5 136.5
t48.5 201.5q0 107 -50 164t-131 57t-131 -57t-50 -164q0 -114 48.5 -201.5t132.5 -136.5z" />
    <glyph glyph-name="uni1CB3" unicode="&#x1cb3;" horiz-adv-x="593" 
d="M298 -10q-111 0 -176 56t-65 151q0 20 4 40t11 40h58q-6 -18 -9.5 -37.5t-3.5 -37.5q0 -78 48.5 -119t132.5 -41q61 0 100 22.5t58 61t19 85.5q0 84 -50.5 126t-137.5 42h-48v45l200 240h-344v50h415v-45l-204 -242q67 -3 119 -28.5t81.5 -73t29.5 -117.5
q0 -62 -27 -111.5t-80 -78t-131 -28.5z" />
    <glyph glyph-name="uni1CB4" unicode="&#x1cb4;" horiz-adv-x="577" 
d="M288 -10q-77 0 -128 25t-77 64.5t-26 83.5q0 19 5 39h57q-3 -16 -3 -30q0 -35 18 -65t56 -48t97 -18q90 0 131 32t41 75q0 50 -41.5 77.5t-123.5 27.5h-46v50h72q56 0 92 16t36 55q0 27 -18.5 43.5t-48.5 27.5t-64 21q-41 11 -80 27t-64.5 43t-25.5 72q0 37 23 63
t61.5 39.5t85.5 13.5q42 0 76 -8.5t64 -24.5l-21 -46q-28 14 -56 22t-63 8q-48 0 -80.5 -17t-32.5 -50q0 -27 18 -43.5t48.5 -27.5t67.5 -21q41 -12 80 -27.5t65 -41.5t26 -70q0 -47 -33 -70.5t-82 -28.5v-3q53 -7 89.5 -38t36.5 -90q0 -66 -61 -111.5t-171 -45.5z" />
    <glyph glyph-name="uni1CB5" unicode="&#x1cb5;" horiz-adv-x="679" 
d="M290 -10q-104 0 -165.5 42t-61.5 123q0 74 59.5 113.5t157.5 39.5h175v116h-180q-92 0 -145 37t-53 110t59 113t160 40q112 0 165 -50t53 -142v-58h120v-50h-120v-116h120v-50h-120v-60q0 -99 -52.5 -153.5t-171.5 -54.5zM278 474h177v60q0 64 -36 102t-124 38
q-79 0 -118.5 -28t-39.5 -74q0 -47 35.5 -72.5t105.5 -25.5zM292 41q63 0 98.5 20t50 55.5t14.5 83.5v58h-179q-73 0 -112.5 -28t-39.5 -75q0 -52 42 -83t126 -31z" />
    <glyph glyph-name="uni1CB6" unicode="&#x1cb6;" horiz-adv-x="791" 
d="M424 724v-87q154 -3 229 -71t75 -192q0 -79 -33 -140.5t-100.5 -96.5t-170.5 -37v-110h-57v110q-105 2 -172 37t-99.5 95.5t-32.5 138.5q0 118 73 190t231 76v87h57zM367 586q-125 -3 -185 -57.5t-60 -156.5q0 -108 62.5 -164t182.5 -59v437zM424 586v-437
q120 3 182.5 60.5t62.5 165.5q0 104 -59 156t-186 55z" />
    <glyph glyph-name="uni1CB7" unicode="&#x1cb7;" horiz-adv-x="565" 
d="M280 -9q-66 0 -116 23.5t-78.5 66.5t-28.5 102q0 51 17 85.5t45.5 58t63 39t70.5 28.5q44 16 83 34t64 46t25 76q0 61 -41 92t-103 31q-72 0 -108.5 -32t-36.5 -84q0 -8 0.5 -16t1.5 -14h-58q-3 17 -3 32q0 72 54 118.5t150 46.5q59 0 105 -20.5t72.5 -59t26.5 -94.5
q0 -48 -17.5 -81t-47 -55t-65.5 -38t-72 -29q-44 -16 -81.5 -35.5t-60.5 -49.5t-23 -79q0 -65 43.5 -103.5t118.5 -38.5q77 0 122 36.5t45 105.5q0 24 -4 42h59q2 -9 4 -20t2 -23q0 -95 -63 -143t-165 -48z" />
    <glyph glyph-name="uni1CB8" unicode="&#x1cb8;" 
d="M319 -10q70 0 122.5 25.5t81.5 72t29 109.5q0 20 -4 40t-11 40h-58q6 -18 9.5 -37.5t3.5 -37.5q0 -78 -47.5 -119t-125.5 -41q-91 0 -132 53t-41 137v105q0 24 -1 53t-2 46h3q25 -47 76 -74.5t115 -27.5q97 0 155 56.5t58 162.5q0 49 -9.5 88t-26.5 73h-59
q17 -37 25.5 -73.5t8.5 -87.5q0 -81 -43.5 -124.5t-115.5 -43.5q-51 0 -92.5 20t-66.5 60t-25 99v150h-58v-484q0 -109 57.5 -174.5t173.5 -65.5z" />
    <glyph glyph-name="uni1CB9" unicode="&#x1cb9;" horiz-adv-x="599" 
d="M300 723q72 0 126.5 -31.5t85 -88t30.5 -130.5q0 -76 -29.5 -129.5t-82 -83.5t-120.5 -34q-131 -8 -131 -95q0 -41 32 -67t88 -26t89.5 26.5t33.5 68.5q0 14 -3 29h59q4 -20 4 -36q0 -40 -24.5 -71t-66 -48t-92.5 -17q-54 0 -94 18.5t-63 50t-23 71.5q0 44 24.5 74
t70.5 43v2q-71 18 -114 76.5t-43 147.5q0 74 31 130.5t85.5 88t126.5 31.5zM299 672q-56 0 -96.5 -26t-62.5 -71t-22 -102q0 -86 48.5 -141t133.5 -55q81 0 131 52t50 144q0 57 -22.5 102t-63 71t-96.5 26z" />
    <glyph glyph-name="uni1CBA" unicode="&#x1cba;" horiz-adv-x="532" 
d="M118 -8v59l207 91v3q-78 -5 -137 28.5t-92 100t-33 158.5q0 89 34.5 154.5t96.5 101.5t145 36q43 0 82.5 -9.5t73.5 -26.5l-23 -48q-64 33 -134 33q-99 0 -156.5 -65t-57.5 -176q0 -117 54.5 -183t151.5 -66q45 0 79 7t68 22v-58z" />
    <glyph glyph-name="uni1CBD" unicode="&#x1cbd;" horiz-adv-x="565" 
d="M285 -9q-103 0 -165.5 48t-62.5 143q0 12 1.5 23t4.5 20h59q-4 -18 -4 -42q0 -69 45 -105.5t122 -36.5q74 0 118 38.5t44 103.5q0 47 -23.5 75.5t-61 46.5t-80.5 34q-37 13 -72.5 29t-65 39.5t-47 58t-17.5 84.5q0 56 26 94.5t72.5 59t105.5 20.5q96 0 150 -46.5
t54 -118.5q0 -15 -3 -32h-58q0 6 1 14t1 16q0 52 -36.5 84t-108.5 32q-62 0 -103 -31t-41 -92q0 -51 24.5 -81t64 -48.5t83.5 -34.5q35 -13 70 -28.5t63.5 -37.5t45.5 -55t17 -82q0 -59 -28.5 -102t-79 -66.5t-115.5 -23.5z" />
    <glyph glyph-name="uni1CBE" unicode="&#x1cbe;" horiz-adv-x="610" 
d="M91 714q58 -3 112 -17.5t102 -37.5q48 23 102 37.5t113 17.5v-51q-87 -5 -160 -36v-2q88 -58 137.5 -150t49.5 -213q0 -88 -31.5 -149t-86 -92t-124.5 -31q-69 0 -124 31t-86.5 92t-31.5 149q0 121 50 213t137 150v2q-73 31 -159 36v51zM305 600q-84 -49 -132.5 -136.5
t-48.5 -201.5q0 -107 50 -163.5t131 -56.5t131 56.5t50 163.5q0 114 -48.5 201.5t-132.5 136.5z" />
    <glyph glyph-name="uni1CBF" unicode="&#x1cbf;" horiz-adv-x="641" 
d="M321 -10q-252 0 -252 367q0 186 64 276.5t188 90.5t188 -91.5t64 -275.5q0 -186 -64.5 -276.5t-187.5 -90.5zM321 42q95 0 143 77.5t48 237.5q0 163 -48.5 239.5t-142.5 76.5q-96 0 -143.5 -77.5t-47.5 -238.5q0 -163 48 -239t143 -76z" />
    <glyph glyph-name="uni2010" unicode="&#x2010;" horiz-adv-x="322" 
d="M40 244v52h242v-52h-242z" />
    <glyph glyph-name="uni20BE" unicode="&#x20be;" horiz-adv-x="756" 
d="M117 0v43l121 7v3q-85 39 -128 122.5t-43 190.5q0 122 55.5 208.5t158.5 116.5v79h45v-70q27 4 55 4q29 0 56 -4v70h45v-80q100 -30 156 -118.5t56 -220.5l-60 -1q0 110 -38 184.5t-114 104.5v-288h-45v301q-26 5 -56 4q-29 1 -55 -4v-301h-45v289q-77 -30 -115.5 -103
t-38.5 -175q0 -93 33 -163t94.5 -109t146.5 -39h249v-51h-533z" />
    <glyph glyph-name="uni2D00" unicode="&#x2d00;" horiz-adv-x="668" 
d="M357 0q-99 0 -145.5 39.5t-46.5 122.5v242q0 47 -18.5 63t-51.5 16h-75v49h103q43 0 66 -22t30 -70h4q21 44 67 73t113 29q91 0 139.5 -47t48.5 -147v-98h-57v94q0 76 -35 112.5t-102 36.5q-175 0 -175 -203v-121q0 -66 33.5 -93.5t106.5 -27.5h197v-48h-202z" />
    <glyph glyph-name="uni2D01" unicode="&#x2d01;" horiz-adv-x="622" 
d="M341 -250q-71 0 -123.5 10t-91.5 26v54q42 -18 94.5 -29.5t112.5 -11.5q91 0 146 34.5t55 102.5q0 29 -8.5 50t-20.5 39q-14 19 -24.5 39t-15.5 47h-3q-24 -56 -72 -88.5t-120 -32.5q-187 0 -187 194v348h57v-343q0 -77 34.5 -113.5t102.5 -36.5q84 0 129.5 49t45.5 154
v290h57v-372q0 -35 11.5 -58t26.5 -44q18 -26 31 -53t13 -72q0 -89 -69 -136t-181 -47z" />
    <glyph glyph-name="uni2D02" unicode="&#x2d02;" horiz-adv-x="626" 
d="M345 -250q-71 0 -123.5 10t-91.5 26v54q42 -18 94.5 -29.5t112.5 -11.5q91 0 146 34t55 100q0 33 -10 56t-24 44q-18 26 -32.5 58t-14.5 80v173q0 76 -35 112.5t-102 36.5q-175 0 -175 -203v-290h-57v532h46l8 -92h4q21 44 67 73t113 29q91 0 139 -47t48 -147v-173
q0 -42 12.5 -68.5t30.5 -52.5q16 -23 27.5 -51.5t11.5 -72.5q0 -87 -69 -133.5t-181 -46.5z" />
    <glyph glyph-name="uni2D03" unicode="&#x2d03;" horiz-adv-x="593" 
d="M295 -10q-73 0 -126.5 31t-82.5 87.5t-29 133.5q0 81 33.5 136t87 89t113.5 52q-21 29 -30 67t-9 83v42h-164v49h416v-49h-195v-42q0 -38 5.5 -67.5t22 -54t50.5 -49.5q68 -50 108 -109.5t40 -148.5q0 -118 -64 -184t-176 -66zM295 39q86 0 133.5 50.5t47.5 150.5
q0 63 -26.5 112t-77.5 89q-13 11 -25.5 21t-24.5 19q-57 -16 -103.5 -44.5t-74 -76t-27.5 -119.5q0 -92 47.5 -147t130.5 -55z" />
    <glyph glyph-name="uni2D04" unicode="&#x2d04;" horiz-adv-x="596" 
d="M326 542q91 0 139.5 -47t48.5 -147v-588h-57v584q0 76 -35 112.5t-102 36.5q-175 0 -175 -203v-290h-57v532h46l8 -92h4q21 44 67 73t113 29z" />
    <glyph glyph-name="uni2D05" unicode="&#x2d05;" horiz-adv-x="894" 
d="M644 542q79 0 123.5 -45t44.5 -142v-355h-56v353q0 71 -32.5 105.5t-87.5 34.5q-76 0 -117 -44.5t-41 -137.5v-551h-56v593q0 71 -32.5 105.5t-87.5 34.5q-76 0 -116.5 -47t-40.5 -144v-302h-57v532h46l8 -84h4q20 39 60.5 66.5t103.5 27.5q58 0 98 -25t57 -74h3
q23 47 68.5 73t107.5 26z" />
    <glyph glyph-name="uni2D06" unicode="&#x2d06;" horiz-adv-x="682" 
d="M408 542q105 0 161 -71.5t56 -203.5q0 -133 -58.5 -205t-171.5 -72q-225 0 -225 271v371q0 47 -18.5 63t-51.5 16h-80v49h99q58 0 83 -32t25 -84v-94q0 -24 -1 -56.5t-3 -59.5h4q22 49 68.5 78.5t112.5 29.5zM396 39q82 0 126 58.5t44 170.5q0 225 -166 225
q-85 0 -129 -52t-44 -161v-18q0 -114 41.5 -168.5t127.5 -54.5z" />
    <glyph glyph-name="uni2D07" unicode="&#x2d07;" horiz-adv-x="890" 
d="M252 -10q-169 0 -169 194v348h46l8 -84h4q19 37 59.5 65.5t104.5 28.5q58 0 98 -25t57 -75h4q23 47 67.5 73.5t107.5 26.5q79 0 124 -45t45 -142v-355h-57v353q0 72 -32.5 106t-86.5 34q-75 0 -116.5 -44t-41.5 -138v-311h-46l-9 90h-2q-19 -42 -60 -71t-105 -29zM261 39
q75 0 115.5 49t40.5 154v111q0 72 -32 106t-88 34q-72 0 -114.5 -44.5t-42.5 -146.5v-113q0 -77 30.5 -113.5t90.5 -36.5z" />
    <glyph glyph-name="uni2D08" unicode="&#x2d08;" horiz-adv-x="428" 
d="M289 0v364q0 60 -27.5 89.5t-88.5 29.5h-153v49h160q87 0 126.5 -42t39.5 -126v-364h-57z" />
    <glyph glyph-name="uni2D09" unicode="&#x2d09;" horiz-adv-x="618" 
d="M479 -240v222q0 24 1 56.5t2 59.5h-3q-23 -49 -69 -78.5t-112 -29.5q-105 0 -160 71.5t-55 205.5v493h57v-210q0 -24 -1 -56.5t-3 -59.5h4q22 49 68.5 78.5t112.5 29.5q105 0 160 -71.5t55 -203.5v-507h-57zM305 39q86 0 130 52t44 162v15q0 225 -166 225q-85 0 -129 -52
t-44 -161v-14q0 -227 165 -227z" />
    <glyph glyph-name="uni2D0A" unicode="&#x2d0a;" horiz-adv-x="895" 
d="M591 -10q-169 0 -169 194v169q0 72 -32.5 106t-87.5 34q-72 0 -114.5 -44.5t-42.5 -146.5v-302h-57v532h46l8 -84h4q19 37 59 65.5t105 28.5q58 0 98 -25t57 -75h3q24 47 68.5 73.5t107.5 26.5q79 0 124 -45t45 -142v-355h-46l-9 90h-2q-20 -43 -61 -71.5t-104 -28.5z
M600 39q74 0 115 48.5t41 154.5v111q0 72 -32.5 106t-87.5 34q-75 0 -116.5 -44t-41.5 -138v-122q0 -77 30.5 -113.5t91.5 -36.5z" />
    <glyph glyph-name="uni2D0B" unicode="&#x2d0b;" horiz-adv-x="594" 
d="M286 -10q-109 0 -169 66.5t-60 203.5q0 139 61 205.5t181 66.5h156v60q0 60 -27.5 89.5t-88.5 29.5h-208v49h215q87 0 126.5 -42t39.5 -126v-334q0 -134 -58.5 -201t-167.5 -67zM286 39q169 0 169 220v224h-155q-98 0 -141 -53.5t-43 -169.5q0 -114 44.5 -167.5
t125.5 -53.5z" />
    <glyph glyph-name="uni2D0C" unicode="&#x2d0c;" horiz-adv-x="590" 
d="M83 0v551q0 106 51.5 157.5t159.5 51.5h196v-49h-192q-83 0 -120.5 -37t-37.5 -118v-39q0 -23 -1 -41t-3 -36h4q20 43 65 72.5t115 29.5q92 0 140 -47t48 -147v-348h-56v344q0 77 -35 113t-102 36q-84 0 -129.5 -48.5t-45.5 -154.5v-290h-57z" />
    <glyph glyph-name="uni2D0D" unicode="&#x2d0d;" horiz-adv-x="895" 
d="M252 -10q-81 0 -125 45t-44 142v355h56v-352q0 -72 32.5 -106t87.5 -34q75 0 116.5 43t41.5 139v310h56v-352q0 -72 32 -106t88 -34q72 0 114.5 44.5t42.5 146.5v301h57v-532h-46l-8 85h-4q-20 -39 -60 -67t-104 -28q-58 0 -98.5 25t-56.5 76h-4q-23 -48 -67.5 -74.5
t-106.5 -26.5z" />
    <glyph glyph-name="uni2D0E" unicode="&#x2d0e;" horiz-adv-x="684" 
d="M539 532h57v-532h-47l-8 91h-3q-21 -42 -66 -71.5t-115 -29.5q-188 0 -188 194v220q0 47 -18 63t-51 16h-80v49h99q58 0 83 -32t25 -84v-227q0 -77 34 -113.5t102 -36.5q85 0 130.5 48.5t45.5 154.5v290z" />
    <glyph glyph-name="uni2D0F" unicode="&#x2d0f;" horiz-adv-x="684" 
d="M539 -240v198q0 36 0.5 68t3.5 65h-5q-21 -42 -66 -71.5t-115 -29.5q-188 0 -188 194v220q0 47 -18 63t-51 16h-80v49h99q58 0 83 -32t25 -84v-227q0 -77 34 -113.5t102 -36.5q85 0 130.5 48.5t45.5 154.5v290h57v-772h-57z" />
    <glyph glyph-name="uni2D10" unicode="&#x2d10;" horiz-adv-x="891" 
d="M253 -10q-170 0 -170 194v348h57v-343q0 -77 31 -113.5t91 -36.5q74 0 114.5 48.5t40.5 154.5v518h57v-241q0 -22 -1 -40t-2 -37h4q18 42 59.5 71t104.5 29q82 0 126 -47t44 -147v-348h-57v344q0 77 -31 113t-91 36q-75 0 -115.5 -49t-40.5 -154v-290h-46l-9 90h-2
q-19 -42 -59.5 -71t-104.5 -29z" />
    <glyph glyph-name="uni2D11" unicode="&#x2d11;" horiz-adv-x="597" 
d="M270 -10q-187 0 -187 194v576h57v-571q0 -77 34.5 -113.5t102.5 -36.5q84 0 129.5 49t45.5 154v290h57v-532h-46l-9 91h-3q-21 -42 -65.5 -71.5t-115.5 -29.5z" />
    <glyph glyph-name="uni2D12" unicode="&#x2d12;" horiz-adv-x="599" 
d="M321 542q106 0 163.5 -75.5t57.5 -204.5q0 -132 -58 -202t-161 -70q-133 0 -178 104h-3q1 -19 1.5 -40.5t0.5 -42.5v-41q0 -79 41.5 -125t129.5 -46q57 0 105.5 11.5t86.5 30.5v-55q-38 -17 -84 -26.5t-106 -9.5q-121 0 -175 59t-54 164v559h46l8 -86h4q52 96 175 96z
M315 493q-91 0 -131 -55.5t-40 -156.5v-35q0 -60 15.5 -107t53 -73.5t103.5 -26.5q81 0 124 57t43 165q0 110 -43 171t-125 61z" />
    <glyph glyph-name="uni2D13" unicode="&#x2d13;" horiz-adv-x="895" 
d="M750 -240v198q0 32 0.5 60t1.5 67h-3q-20 -39 -60 -67t-104 -28q-58 0 -98.5 25t-56.5 75h-4q-24 -47 -68 -73.5t-106 -26.5q-81 0 -125 45t-44 142v355h56v-352q0 -72 32.5 -106t87.5 -34q75 0 116.5 43t41.5 139v310h56v-352q0 -72 32 -106t88 -34q72 0 114.5 44.5
t42.5 146.5v529h57v-1000h-57z" />
    <glyph glyph-name="uni2D14" unicode="&#x2d14;" horiz-adv-x="917" 
d="M430 -240v228q0 48 4 103h-4q-23 -44 -64 -72.5t-99 -28.5q-101 0 -155.5 73.5t-54.5 208.5q0 130 53 200t153 70q62 0 103 -31t64 -80h3l7 101h36l8 -101h3q22 49 63 80t104 31q99 0 152 -70t53 -200q0 -135 -54.5 -208.5t-154.5 -73.5q-59 0 -100 28.5t-63 72.5h-4
q4 -55 4 -103v-228h-57zM274 39q74 0 115 51t41 165v21q0 217 -159 217q-155 0 -155 -220q0 -115 41 -174.5t117 -59.5zM642 39q76 0 117 59.5t41 174.5q0 220 -155 220q-159 0 -159 -217v-21q0 -114 41 -165t115 -51z" />
    <glyph glyph-name="uni2D15" unicode="&#x2d15;" horiz-adv-x="443" 
d="M192 -240v723h-172v49h172v228h57v-228h174v-49h-174v-723h-57z" />
    <glyph glyph-name="uni2D16" unicode="&#x2d16;" horiz-adv-x="596" 
d="M326 542q91 0 139.5 -47t48.5 -147v-348h-57v344q0 76 -35 112.5t-102 36.5q-175 0 -175 -203v-290h-57v532h46l8 -92h4q21 44 67 73t113 29z" />
    <glyph glyph-name="uni2D17" unicode="&#x2d17;" horiz-adv-x="597" 
d="M452 -240v198q0 68 4 133h-5q-21 -42 -65.5 -71.5t-115.5 -29.5q-187 0 -187 194v348h57v-343q0 -77 34.5 -113.5t102.5 -36.5q84 0 129.5 49t45.5 154v290h57v-772h-57z" />
    <glyph glyph-name="uni2D18" unicode="&#x2d18;" horiz-adv-x="597" 
d="M282 -250q-55 0 -101 9.5t-79 24.5v54q37 -18 82 -28.5t101 -10.5q77 0 122 43.5t45 126.5v34q0 18 0.5 40.5t1.5 47.5h-3q-21 -42 -65.5 -71.5t-115.5 -29.5q-187 0 -187 194v348h57v-343q0 -77 34.5 -113.5t102.5 -36.5q84 0 129.5 49t45.5 154v290h57v-552
q0 -116 -58.5 -173t-168.5 -57z" />
    <glyph glyph-name="uni2D19" unicode="&#x2d19;" horiz-adv-x="595" 
d="M88 -240v1000h57v-243q0 -23 -1 -41t-3 -36h4q20 43 65 72.5t115 29.5q92 0 140 -47t48 -147v-348h-56v344q0 77 -35 113t-102 36q-84 0 -129.5 -48.5t-45.5 -154.5v-530h-57z" />
    <glyph glyph-name="uni2D1A" unicode="&#x2d1a;" horiz-adv-x="595" 
d="M301 -250q-104 0 -158.5 57t-54.5 170v555h46l8 -92h4q21 43 66 72.5t114 29.5q92 0 139.5 -47.5t47.5 -146.5v-348h-56v344q0 77 -35 113t-102 36q-85 0 -130 -49t-45 -154v-319q0 -172 160 -172q55 0 102 10.5t83 29.5v-54q-33 -16 -81 -25.5t-108 -9.5z" />
    <glyph glyph-name="uni2D1B" unicode="&#x2d1b;" horiz-adv-x="911" 
d="M263 -10q-100 0 -153 70t-53 201q0 134 54.5 207.5t155.5 73.5q58 0 99 -28t64 -70h4q-4 50 -4 101v215h57v-220q0 -26 -1 -54t-3 -44h4q20 42 62 71t105 29q84 0 129.5 -47t45.5 -147v-348h-56v344q0 77 -32.5 113t-94.5 36q-76 0 -117.5 -49t-41.5 -154v-290h-47l-7 94
h-3q-23 -44 -64 -74t-103 -30zM271 39q159 0 159 218v20q0 114 -41 165t-115 51q-76 0 -117 -59.5t-41 -173.5q0 -221 155 -221z" />
    <glyph glyph-name="uni2D1C" unicode="&#x2d1c;" horiz-adv-x="894" 
d="M88 -240v772h46l8 -84h4q19 37 59 65.5t105 28.5q58 0 98 -25t57 -75h3q23 47 68 73.5t108 26.5q79 0 123.5 -45t44.5 -142v-355h-56v353q0 72 -32.5 106t-87.5 34q-75 0 -116.5 -44t-41.5 -138v-311h-56v353q0 72 -32.5 106t-87.5 34q-72 0 -114.5 -44.5t-42.5 -146.5
v-542h-57z" />
    <glyph glyph-name="uni2D1D" unicode="&#x2d1d;" horiz-adv-x="591" 
d="M279 -250q-64 0 -111 9.5t-80 24.5v54q36 -18 83 -28.5t105 -10.5q85 0 130 29t45 77q0 50 -34 72.5t-103 22.5h-226v532h46l8 -92h4q21 44 66.5 73t111.5 29q92 0 141 -47t49 -147v-98h-57v94q0 76 -35.5 112.5t-104.5 36.5q-172 0 -172 -203v-242h177q83 0 134.5 -33
t51.5 -110q0 -67 -59 -111t-170 -44z" />
    <glyph glyph-name="uni2D1E" unicode="&#x2d1e;" horiz-adv-x="595" 
d="M307 -250q-104 0 -161.5 56.5t-57.5 168.5v557h57v-290q0 -105 45.5 -153.5t129.5 -48.5q68 0 102.5 36.5t34.5 113.5v342h56v-344q0 -198 -187 -198q-69 0 -114 30t-66 72h-4q1 -28 2 -56.5t1 -65.5q0 -87 43.5 -129t121.5 -42q52 0 98 10.5t83 28.5v-54
q-33 -15 -79.5 -24.5t-104.5 -9.5z" />
    <glyph glyph-name="uni2D1F" unicode="&#x2d1f;" horiz-adv-x="548" 
d="M-58 -240l328 488l-166 238h-82v46h489v-40l-173 -244l176 -248h-66l-144 208l-296 -448h-66zM305 287l138 199h-275z" />
    <glyph glyph-name="uni2D20" unicode="&#x2d20;" horiz-adv-x="918" 
d="M604 -10q-174 0 -174 194v160q0 77 -31.5 113t-93.5 36q-75 0 -117.5 -47t-42.5 -151v-295h-57v532h46l9 -86h3q20 40 61.5 68t105.5 28q86 0 130 -47.5t44 -146.5v-159q0 -77 31.5 -113.5t93.5 -36.5q77 0 119 50.5t42 152.5v290h57v-532h-46l-9 91h-3
q-20 -41 -60.5 -71t-107.5 -30z" />
    <glyph glyph-name="uni2D21" unicode="&#x2d21;" horiz-adv-x="552" 
d="M88 -240v1000h57v-307h3q13 35 49.5 61.5t88.5 26.5q61 0 94.5 -32t33.5 -100q0 -52 18.5 -72.5t59.5 -20.5h40v-50h-53q-62 0 -92 31.5t-30 86.5t-19.5 81.5t-68.5 26.5q-53 0 -88.5 -41.5t-35.5 -123.5v-567h-57z" />
    <glyph glyph-name="uni2D22" unicode="&#x2d22;" horiz-adv-x="589" 
d="M290 -10q-72 0 -124.5 26t-80.5 72t-28 106q0 14 2 30t6 32h58q-6 -29 -6 -57q0 -73 45.5 -116t127.5 -43q93 0 138 63t45 166q0 105 -54.5 159.5t-158.5 54.5h-178v49h178q138 0 205 -69t67 -193q0 -83 -28 -146t-82 -98.5t-132 -35.5z" />
    <glyph glyph-name="uni2D23" unicode="&#x2d23;" horiz-adv-x="597" 
d="M452 -240v198q0 36 0.5 67.5t2.5 65.5h-4q-21 -42 -65.5 -71.5t-115.5 -29.5q-187 0 -187 194v348h57v-343q0 -77 34.5 -113.5t102.5 -36.5q84 0 129.5 49t45.5 154v518h57v-1000h-57z" />
    <glyph glyph-name="uni2D24" unicode="&#x2d24;" horiz-adv-x="587" 
d="M265 -240v233q-91 6 -136.5 59t-45.5 141v339h57v-339q0 -75 38 -114t116 -39q77 0 115.5 39t38.5 114v339h57v-340q0 -87 -46.5 -139.5t-136.5 -59.5v-233h-57z" />
    <glyph glyph-name="uni2D25" unicode="&#x2d25;" horiz-adv-x="911" 
d="M654 542q84 0 129.5 -47t45.5 -147v-348h-56v344q0 77 -32.5 113t-94.5 36q-76 0 -117.5 -49t-41.5 -154v-290h-47l-7 94h-3q-23 -44 -64 -74t-103 -30q-100 0 -153 70t-53 201q0 134 54.5 207.5t155.5 73.5q58 0 99 -28t64 -70h4q-4 50 -4 101v15q0 99 51.5 149.5
t159.5 50.5h163v-49h-159q-81 0 -119.5 -37t-38.5 -114v-20q0 -26 -1 -54t-3 -44h4q20 42 62 71t105 29zM430 257v20q0 114 -41 165t-115 51q-76 0 -117 -59.5t-41 -173.5q0 -221 155 -221q159 0 159 218z" />
    <glyph glyph-name="uni2D27" unicode="&#x2d27;" horiz-adv-x="517" 
d="M255 -250q-59 0 -105 24.5t-72 70.5t-26 109q0 67 25 112.5t67.5 78.5t95.5 63q45 25 77.5 47.5t50 50.5t17.5 69q0 55 -33 86.5t-94 31.5q-63 0 -96.5 -32t-33.5 -87q0 -7 1 -15t2 -14h-57q-1 7 -2 15.5t-1 15.5q0 74 50 120t137 46t136 -44.5t49 -122.5
q0 -53 -21.5 -89.5t-63 -66t-99.5 -61.5q-42 -23 -75.5 -49.5t-53 -63.5t-19.5 -91q0 -71 40.5 -112.5t103.5 -41.5q66 0 108.5 39t42.5 115q0 26 -3 43t-8 29h60q4 -13 7 -29.5t3 -42.5q0 -101 -59.5 -152.5t-150.5 -51.5z" />
    <glyph glyph-name="uni2D2D" unicode="&#x2d2d;" horiz-adv-x="463" 
d="M422 0h-382v38l312 448h-290v46h358v-40l-311 -445h313v-47z" />
    <glyph glyph-name="macroncomb" horiz-adv-x="600" 
d="M94 0v714h411v-714h-411zM145 51h309v612h-309v-612z" />
    <glyph glyph-name="uni1C90_uni0308.ccmp" horiz-adv-x="587" 
d="M292 -9q-72 0 -124.5 28t-81.5 79.5t-29 121.5q0 30 4 62t18 70h-24l29 12q-3 -6 -5 -12h59q-12 -35 -16.5 -68.5t-4.5 -58.5q0 -83 46 -133t129 -50q59 0 96.5 26.5t56 71t18.5 99.5t-14.5 97.5t-38 77t-48.5 65.5q-27 34 -51.5 68.5t-37.5 75t-9 91.5h58
q-3 -44 10 -79.5t35 -66.5t48 -63q26 -34 51 -72t41.5 -85.5t16.5 -110.5q0 -71 -26.5 -126.5t-78.5 -87.5t-127 -32zM143 364l21 -12h-26q3 6 5 12zM161 844q0 40 35 40q36 0 36 -40q0 -41 -36 -41q-35 0 -35 41zM348 844q0 40 34 40q36 0 36 -40q0 -41 -36 -41
q-34 0 -34 41z" />
    <glyph glyph-name="uni1C90_acutecomb.ccmp" horiz-adv-x="587" 
d="M292 -9q-72 0 -124.5 28t-81.5 79.5t-29 121.5q0 30 4 62t18 70h-24l29 12q-3 -6 -5 -12h59q-12 -35 -16.5 -68.5t-4.5 -58.5q0 -83 46 -133t129 -50q59 0 96.5 26.5t56 71t18.5 99.5t-14.5 97.5t-38 77t-48.5 65.5q-27 34 -51.5 68.5t-37.5 75t-9 91.5h58
q-3 -44 10 -79.5t35 -66.5t48 -63q26 -34 51 -72t41.5 -85.5t16.5 -110.5q0 -71 -26.5 -126.5t-78.5 -87.5t-127 -32zM143 364l21 -12h-26q3 6 5 12zM403 948v-8q-15 -21 -40 -49t-53 -55.5t-53 -47.5h-39v9q18 19 40.5 46t43 55t33.5 50h68z" />
    <glyph glyph-name="uni1C90_uni0304.ccmp" horiz-adv-x="587" 
d="M292 -9q-72 0 -124.5 28t-81.5 79.5t-29 121.5q0 30 4 62t18 70h-24l29 12q-3 -6 -5 -12h59q-12 -35 -16.5 -68.5t-4.5 -58.5q0 -83 46 -133t129 -50q59 0 96.5 26.5t56 71t18.5 99.5t-14.5 97.5t-38 77t-48.5 65.5q-27 34 -51.5 68.5t-37.5 75t-9 91.5h58
q-3 -44 10 -79.5t35 -66.5t48 -63q26 -34 51 -72t41.5 -85.5t16.5 -110.5q0 -71 -26.5 -126.5t-78.5 -87.5t-127 -32zM143 364l21 -12h-26q3 6 5 12zM428 850v-48h-276v48h276z" />
    <glyph glyph-name="uni1C90_uni0304_uni0308.ccmp" horiz-adv-x="587" 
d="M292 -9q-72 0 -124.5 28t-81.5 79.5t-29 121.5q0 30 4 62t18 70h-24l29 12q-3 -6 -5 -12h59q-12 -35 -16.5 -68.5t-4.5 -58.5q0 -83 46 -133t129 -50q59 0 96.5 26.5t56 71t18.5 99.5t-14.5 97.5t-38 77t-48.5 65.5q-27 34 -51.5 68.5t-37.5 75t-9 91.5h58
q-3 -44 10 -79.5t35 -66.5t48 -63q26 -34 51 -72t41.5 -85.5t16.5 -110.5q0 -71 -26.5 -126.5t-78.5 -87.5t-127 -32zM143 364l21 -12h-26q3 6 5 12zM428 850v-48h-276v48h276zM161 980q0 40 35 40q36 0 36 -40q0 -41 -36 -41q-35 0 -35 41zM348 980q0 40 34 40q36 0 36 -40
q0 -41 -36 -41q-34 0 -34 41z" />
    <glyph glyph-name="uni1C94_acutecomb.ccmp" horiz-adv-x="611" 
d="M291 -9q-107 0 -170.5 57.5t-63.5 156.5q0 28 4 50t10 39h57q-4 -16 -7.5 -38.5t-3.5 -45.5q0 -78 45.5 -123t128.5 -45q92 0 132.5 52.5t40.5 134.5v282q0 75 -41.5 118.5t-118.5 43.5q-73 0 -115.5 -37t-42.5 -103q0 -21 2.5 -39t5.5 -35h-58q-4 15 -6.5 34.5
t-2.5 40.5q0 89 60 139.5t157 50.5q102 0 160 -57.5t58 -154.5v-285q0 -107 -57 -171.5t-174 -64.5zM412 948v-8q-15 -21 -40 -49t-53 -55.5t-53 -47.5h-39v9q18 19 40.5 46t43 55t33.5 50h68z" />
    <glyph glyph-name="uni1C94_uni0304.ccmp" horiz-adv-x="611" 
d="M291 -9q-107 0 -170.5 57.5t-63.5 156.5q0 28 4 50t10 39h57q-4 -16 -7.5 -38.5t-3.5 -45.5q0 -78 45.5 -123t128.5 -45q92 0 132.5 52.5t40.5 134.5v282q0 75 -41.5 118.5t-118.5 43.5q-73 0 -115.5 -37t-42.5 -103q0 -21 2.5 -39t5.5 -35h-58q-4 15 -6.5 34.5
t-2.5 40.5q0 89 60 139.5t157 50.5q102 0 160 -57.5t58 -154.5v-285q0 -107 -57 -171.5t-174 -64.5zM438 850v-48h-276v48h276z" />
    <glyph glyph-name="uni1C98_acutecomb.ccmp" horiz-adv-x="621" 
d="M138 0q-20 50 -36 107.5t-24.5 129t-8.5 163.5q0 114 31.5 185.5t86 105t124.5 33.5q69 0 123.5 -33.5t86.5 -105t32 -185.5q0 -92 -9 -163.5t-24.5 -129t-35.5 -107.5h-60q20 53 35.5 110.5t24 127.5t8.5 159q0 99 -23 159.5t-63.5 88.5t-94.5 28t-95 -28t-63.5 -88.5
t-22.5 -159.5q0 -89 8 -159t23.5 -127.5t35.5 -110.5h-59zM423 953v-8q-15 -21 -40 -49t-53 -55.5t-53 -47.5h-39v9q18 19 40.5 46t43 55t33.5 50h68z" />
    <glyph glyph-name="uni1C98_uni0304.ccmp" horiz-adv-x="621" 
d="M138 0q-20 50 -36 107.5t-24.5 129t-8.5 163.5q0 114 31.5 185.5t86 105t124.5 33.5q69 0 123.5 -33.5t86.5 -105t32 -185.5q0 -92 -9 -163.5t-24.5 -129t-35.5 -107.5h-60q20 53 35.5 110.5t24 127.5t8.5 159q0 99 -23 159.5t-63.5 88.5t-94.5 28t-95 -28t-63.5 -88.5
t-22.5 -159.5q0 -89 8 -159t23.5 -127.5t35.5 -110.5h-59zM449 855v-48h-276v48h276z" />
    <glyph glyph-name="uni1C9D_uni0308.ccmp" horiz-adv-x="886" 
d="M154 0q-41 90 -63 187.5t-22 227.5q0 111 29.5 179t77.5 99t102 31q31 0 64.5 -11t60.5 -38.5t39 -77.5h3q11 49 38 76.5t60.5 39t63.5 11.5q56 0 104 -31t77.5 -99t29.5 -179q0 -88 -10.5 -159.5t-29.5 -133.5t-46 -122h-61q27 63 46 125.5t29.5 132.5t10.5 154
q0 96 -21.5 153t-56.5 82.5t-75 25.5q-34 0 -63.5 -18t-48 -58.5t-18.5 -109.5v-277h-61v277q0 69 -19 109.5t-49 58.5t-63 18q-40 0 -74.5 -25.5t-56 -82.5t-21.5 -153q0 -123 22 -220.5t63 -191.5h-61zM314 844q0 40 35 40q36 0 36 -40q0 -41 -36 -41q-35 0 -35 41z
M501 844q0 40 34 40q36 0 36 -40q0 -41 -36 -41q-34 0 -34 41z" />
    <glyph glyph-name="uni1C9D_acutecomb.ccmp" horiz-adv-x="886" 
d="M154 0q-41 90 -63 187.5t-22 227.5q0 111 29.5 179t77.5 99t102 31q31 0 64.5 -11t60.5 -38.5t39 -77.5h3q11 49 38 76.5t60.5 39t63.5 11.5q56 0 104 -31t77.5 -99t29.5 -179q0 -88 -10.5 -159.5t-29.5 -133.5t-46 -122h-61q27 63 46 125.5t29.5 132.5t10.5 154
q0 96 -21.5 153t-56.5 82.5t-75 25.5q-34 0 -63.5 -18t-48 -58.5t-18.5 -109.5v-277h-61v277q0 69 -19 109.5t-49 58.5t-63 18q-40 0 -74.5 -25.5t-56 -82.5t-21.5 -153q0 -123 22 -220.5t63 -191.5h-61zM556 948v-8q-15 -21 -40 -49t-53 -55.5t-53 -47.5h-39v9
q18 19 40.5 46t43 55t33.5 50h68z" />
    <glyph glyph-name="uni1C9D_uni0304.ccmp" horiz-adv-x="886" 
d="M154 0q-41 90 -63 187.5t-22 227.5q0 111 29.5 179t77.5 99t102 31q31 0 64.5 -11t60.5 -38.5t39 -77.5h3q11 49 38 76.5t60.5 39t63.5 11.5q56 0 104 -31t77.5 -99t29.5 -179q0 -88 -10.5 -159.5t-29.5 -133.5t-46 -122h-61q27 63 46 125.5t29.5 132.5t10.5 154
q0 96 -21.5 153t-56.5 82.5t-75 25.5q-34 0 -63.5 -18t-48 -58.5t-18.5 -109.5v-277h-61v277q0 69 -19 109.5t-49 58.5t-63 18q-40 0 -74.5 -25.5t-56 -82.5t-21.5 -153q0 -123 22 -220.5t63 -191.5h-61zM581 850v-48h-276v48h276z" />
    <glyph glyph-name="uni1C9D_uni0304_uni0308.ccmp" horiz-adv-x="886" 
d="M154 0q-41 90 -63 187.5t-22 227.5q0 111 29.5 179t77.5 99t102 31q31 0 64.5 -11t60.5 -38.5t39 -77.5h3q11 49 38 76.5t60.5 39t63.5 11.5q56 0 104 -31t77.5 -99t29.5 -179q0 -88 -10.5 -159.5t-29.5 -133.5t-46 -122h-61q27 63 46 125.5t29.5 132.5t10.5 154
q0 96 -21.5 153t-56.5 82.5t-75 25.5q-34 0 -63.5 -18t-48 -58.5t-18.5 -109.5v-277h-61v277q0 69 -19 109.5t-49 58.5t-63 18q-40 0 -74.5 -25.5t-56 -82.5t-21.5 -153q0 -123 22 -220.5t63 -191.5h-61zM581 850v-48h-276v48h276zM314 980q0 40 35 40q36 0 36 -40
q0 -41 -36 -41q-35 0 -35 41zM501 980q0 40 34 40q36 0 36 -40q0 -41 -36 -41q-34 0 -34 41z" />
    <glyph glyph-name="uni1CA3_uni0308.ccmp" 
d="M296 -9q-108 0 -171 57.5t-63 156.5q0 28 4 50t10 39h57q-5 -16 -8.5 -38.5t-3.5 -45.5q0 -78 46 -123t129 -45q91 0 132 52.5t41 134.5v332q0 53 -26 83.5t-77 30.5q-48 0 -73.5 -31t-25.5 -82v-117h-57v117q0 50 -24.5 78.5t-75.5 28.5h-60v51h59q48 0 81.5 -19.5
t47.5 -65.5h3q13 44 47.5 67t82.5 23q74 0 115 -42.5t41 -114.5v-341q0 -107 -57.5 -171.5t-173.5 -64.5zM172 844q0 40 35 40q36 0 36 -40q0 -41 -36 -41q-35 0 -35 41zM359 844q0 40 34 40q36 0 36 -40q0 -41 -36 -41q-34 0 -34 41z" />
    <glyph glyph-name="uni1CA3_acutecomb.ccmp" 
d="M296 -9q-108 0 -171 57.5t-63 156.5q0 28 4 50t10 39h57q-5 -16 -8.5 -38.5t-3.5 -45.5q0 -78 46 -123t129 -45q91 0 132 52.5t41 134.5v332q0 53 -26 83.5t-77 30.5q-48 0 -73.5 -31t-25.5 -82v-117h-57v117q0 50 -24.5 78.5t-75.5 28.5h-60v51h59q48 0 81.5 -19.5
t47.5 -65.5h3q13 44 47.5 67t82.5 23q74 0 115 -42.5t41 -114.5v-341q0 -107 -57.5 -171.5t-173.5 -64.5zM413 948v-8q-15 -21 -40 -49t-53 -55.5t-53 -47.5h-39v9q18 19 40.5 46t43 55t33.5 50h68z" />
    <glyph glyph-name="uni1CA3_uni0302.ccmp" 
d="M296 -9q-108 0 -171 57.5t-63 156.5q0 28 4 50t10 39h57q-5 -16 -8.5 -38.5t-3.5 -45.5q0 -78 46 -123t129 -45q91 0 132 52.5t41 134.5v332q0 53 -26 83.5t-77 30.5q-48 0 -73.5 -31t-25.5 -82v-117h-57v117q0 50 -24.5 78.5t-75.5 28.5h-60v51h59q48 0 81.5 -19.5
t47.5 -65.5h3q13 44 47.5 67t82.5 23q74 0 115 -42.5t41 -114.5v-341q0 -107 -57.5 -171.5t-173.5 -64.5zM329 947q12 -22 33 -49.5t44.5 -54.5t42.5 -46v-9h-42q-27 22 -54.5 51t-51.5 57q-24 -28 -52 -57t-55 -51h-40v9q18 20 41 46.5t44.5 54t33.5 49.5h56z" />
    <glyph glyph-name="uni1CA3_uni0304.ccmp" 
d="M296 -9q-108 0 -171 57.5t-63 156.5q0 28 4 50t10 39h57q-5 -16 -8.5 -38.5t-3.5 -45.5q0 -78 46 -123t129 -45q91 0 132 52.5t41 134.5v332q0 53 -26 83.5t-77 30.5q-48 0 -73.5 -31t-25.5 -82v-117h-57v117q0 50 -24.5 78.5t-75.5 28.5h-60v51h59q48 0 81.5 -19.5
t47.5 -65.5h3q13 44 47.5 67t82.5 23q74 0 115 -42.5t41 -114.5v-341q0 -107 -57.5 -171.5t-173.5 -64.5zM439 850v-48h-276v48h276z" />
    <glyph glyph-name="uni1CA3_uni0304_uni0308.ccmp" 
d="M296 -9q-108 0 -171 57.5t-63 156.5q0 28 4 50t10 39h57q-5 -16 -8.5 -38.5t-3.5 -45.5q0 -78 46 -123t129 -45q91 0 132 52.5t41 134.5v332q0 53 -26 83.5t-77 30.5q-48 0 -73.5 -31t-25.5 -82v-117h-57v117q0 50 -24.5 78.5t-75.5 28.5h-60v51h59q48 0 81.5 -19.5
t47.5 -65.5h3q13 44 47.5 67t82.5 23q74 0 115 -42.5t41 -114.5v-341q0 -107 -57.5 -171.5t-173.5 -64.5zM439 850v-48h-276v48h276zM172 980q0 40 35 40q36 0 36 -40q0 -41 -36 -41q-35 0 -35 41zM359 980q0 40 34 40q36 0 36 -40q0 -41 -36 -41q-34 0 -34 41z" />
    <glyph glyph-name="uni1CB7_acutecomb.ccmp" horiz-adv-x="565" 
d="M280 -9q-66 0 -116 23.5t-78.5 66.5t-28.5 102q0 51 17 85.5t45.5 58t63 39t70.5 28.5q44 16 83 34t64 46t25 76q0 61 -41 92t-103 31q-72 0 -108.5 -32t-36.5 -84q0 -8 0.5 -16t1.5 -14h-58q-3 17 -3 32q0 72 54 118.5t150 46.5q59 0 105 -20.5t72.5 -59t26.5 -94.5
q0 -48 -17.5 -81t-47 -55t-65.5 -38t-72 -29q-44 -16 -81.5 -35.5t-60.5 -49.5t-23 -79q0 -65 43.5 -103.5t118.5 -38.5q77 0 122 36.5t45 105.5q0 24 -4 42h59q2 -9 4 -20t2 -23q0 -95 -63 -143t-165 -48zM395 948v-8q-15 -21 -40 -49t-53 -55.5t-53 -47.5h-39v9
q18 19 40.5 46t43 55t33.5 50h68z" />
    <glyph glyph-name="uni1CB7_uni0304.ccmp" horiz-adv-x="565" 
d="M280 -9q-66 0 -116 23.5t-78.5 66.5t-28.5 102q0 51 17 85.5t45.5 58t63 39t70.5 28.5q44 16 83 34t64 46t25 76q0 61 -41 92t-103 31q-72 0 -108.5 -32t-36.5 -84q0 -8 0.5 -16t1.5 -14h-58q-3 17 -3 32q0 72 54 118.5t150 46.5q59 0 105 -20.5t72.5 -59t26.5 -94.5
q0 -48 -17.5 -81t-47 -55t-65.5 -38t-72 -29q-44 -16 -81.5 -35.5t-60.5 -49.5t-23 -79q0 -65 43.5 -103.5t118.5 -38.5q77 0 122 36.5t45 105.5q0 24 -4 42h59q2 -9 4 -20t2 -23q0 -95 -63 -143t-165 -48zM421 850v-48h-276v48h276z" />
    <glyph glyph-name="uni10D0_uni0308.ccmp" horiz-adv-x="535" 
d="M264 -10q-64 0 -111.5 24t-74 68t-26.5 104q0 23 4 43t8 30h55q-3 -11 -6 -30t-3 -43q0 -67 41 -107t113 -40q77 0 116 43t39 114q0 55 -25 90.5t-56 66.5q-25 24 -49 49t-39.5 56.5t-15.5 73.5h57q0 -44 26.5 -77t59.5 -65q25 -25 48 -52.5t38 -62t15 -79.5
q0 -59 -25.5 -105.5t-73 -73.5t-115.5 -27zM139 662q0 40 35 40q36 0 36 -40q0 -41 -36 -41q-35 0 -35 41zM326 662q0 40 34 40q36 0 36 -40q0 -41 -36 -41q-34 0 -34 41z" />
    <glyph glyph-name="uni10D0_acutecomb.ccmp" horiz-adv-x="535" 
d="M264 -10q-64 0 -111.5 24t-74 68t-26.5 104q0 23 4 43t8 30h55q-3 -11 -6 -30t-3 -43q0 -67 41 -107t113 -40q77 0 116 43t39 114q0 55 -25 90.5t-56 66.5q-25 24 -49 49t-39.5 56.5t-15.5 73.5h57q0 -44 26.5 -77t59.5 -65q25 -25 48 -52.5t38 -62t15 -79.5
q0 -59 -25.5 -105.5t-73 -73.5t-115.5 -27zM380 766v-8q-15 -21 -40 -49t-53 -55.5t-53 -47.5h-39v9q18 19 40.5 46t43 55t33.5 50h68z" />
    <glyph glyph-name="uni10D0_uni0304.ccmp" horiz-adv-x="535" 
d="M264 -10q-64 0 -111.5 24t-74 68t-26.5 104q0 23 4 43t8 30h55q-3 -11 -6 -30t-3 -43q0 -67 41 -107t113 -40q77 0 116 43t39 114q0 55 -25 90.5t-56 66.5q-25 24 -49 49t-39.5 56.5t-15.5 73.5h57q0 -44 26.5 -77t59.5 -65q25 -25 48 -52.5t38 -62t15 -79.5
q0 -59 -25.5 -105.5t-73 -73.5t-115.5 -27zM406 668v-48h-276v48h276z" />
    <glyph glyph-name="uni10D0_uni0304_uni0308.ccmp" horiz-adv-x="535" 
d="M264 -10q-64 0 -111.5 24t-74 68t-26.5 104q0 23 4 43t8 30h55q-3 -11 -6 -30t-3 -43q0 -67 41 -107t113 -40q77 0 116 43t39 114q0 55 -25 90.5t-56 66.5q-25 24 -49 49t-39.5 56.5t-15.5 73.5h57q0 -44 26.5 -77t59.5 -65q25 -25 48 -52.5t38 -62t15 -79.5
q0 -59 -25.5 -105.5t-73 -73.5t-115.5 -27zM406 668v-48h-276v48h276zM139 798q0 40 35 40q36 0 36 -40q0 -41 -36 -41q-35 0 -35 41zM326 798q0 40 34 40q36 0 36 -40q0 -41 -36 -41q-34 0 -34 41z" />
    <glyph glyph-name="uni10D4_acutecomb.ccmp" horiz-adv-x="578" 
d="M277 -250q-103 0 -164 61t-61 170q0 31 6 55.5t13 42.5h55q-7 -18 -12 -43t-5 -51q0 -87 44 -136.5t124 -49.5q59 0 95 26.5t52.5 73.5t16.5 108v304q0 85 -37 133.5t-116 48.5q-69 0 -109.5 -40t-40.5 -106q0 -25 3 -44t6 -30h-54q-4 11 -8 30.5t-4 43.5q0 59 26 103
t72.5 68t108.5 24q103 0 156.5 -62t53.5 -167v-308q0 -116 -54.5 -185.5t-166.5 -69.5zM402 766v-8q-15 -21 -40 -49t-53 -55.5t-53 -47.5h-39v9q18 19 40.5 46t43 55t33.5 50h68z" />
    <glyph glyph-name="uni10D4_uni0304.ccmp" horiz-adv-x="578" 
d="M277 -250q-103 0 -164 61t-61 170q0 31 6 55.5t13 42.5h55q-7 -18 -12 -43t-5 -51q0 -87 44 -136.5t124 -49.5q59 0 95 26.5t52.5 73.5t16.5 108v304q0 85 -37 133.5t-116 48.5q-69 0 -109.5 -40t-40.5 -106q0 -25 3 -44t6 -30h-54q-4 11 -8 30.5t-4 43.5q0 59 26 103
t72.5 68t108.5 24q103 0 156.5 -62t53.5 -167v-308q0 -116 -54.5 -185.5t-166.5 -69.5zM427 668v-48h-276v48h276z" />
    <glyph glyph-name="uni10D8_acutecomb.ccmp" horiz-adv-x="553" 
d="M120 0q-31 68 -47 133t-16 149q0 122 57 191t163 69q108 0 163.5 -69t55.5 -191q0 -83 -16 -149t-46 -133h-59q31 69 47 135t16 147q0 103 -41.5 157t-119.5 54q-77 0 -119 -54t-42 -157q0 -82 15.5 -147.5t46.5 -134.5h-58zM389 766v-8q-15 -21 -40 -49t-53 -55.5
t-53 -47.5h-39v9q18 19 40.5 46t43 55t33.5 50h68z" />
    <glyph glyph-name="uni10D8_uni0304.ccmp" horiz-adv-x="553" 
d="M120 0q-31 68 -47 133t-16 149q0 122 57 191t163 69q108 0 163.5 -69t55.5 -191q0 -83 -16 -149t-46 -133h-59q31 69 47 135t16 147q0 103 -41.5 157t-119.5 54q-77 0 -119 -54t-42 -157q0 -82 15.5 -147.5t46.5 -134.5h-58zM415 668v-48h-276v48h276z" />
    <glyph glyph-name="uni10DD_uni0308.ccmp" horiz-adv-x="781" 
d="M120 0q-31 68 -47 133t-16 149q0 122 48.5 191t140.5 69q56 0 93 -28.5t50 -79.5h3q13 51 50 79.5t94 28.5q91 0 139.5 -69t48.5 -191q0 -83 -16.5 -149t-46.5 -133h-58q31 69 46.5 135t15.5 147q0 211 -134 211q-58 0 -85.5 -39.5t-27.5 -108.5v-159h-55v159
q0 66 -27.5 107t-84.5 41q-135 0 -135 -211q0 -82 15.5 -147.5t46.5 -134.5h-58zM262 662q0 40 35 40q36 0 36 -40q0 -41 -36 -41q-35 0 -35 41zM449 662q0 40 34 40q36 0 36 -40q0 -41 -36 -41q-34 0 -34 41z" />
    <glyph glyph-name="uni10DD_acutecomb.ccmp" horiz-adv-x="781" 
d="M120 0q-31 68 -47 133t-16 149q0 122 48.5 191t140.5 69q56 0 93 -28.5t50 -79.5h3q13 51 50 79.5t94 28.5q91 0 139.5 -69t48.5 -191q0 -83 -16.5 -149t-46.5 -133h-58q31 69 46.5 135t15.5 147q0 211 -134 211q-58 0 -85.5 -39.5t-27.5 -108.5v-159h-55v159
q0 66 -27.5 107t-84.5 41q-135 0 -135 -211q0 -82 15.5 -147.5t46.5 -134.5h-58zM503 766v-8q-15 -21 -40 -49t-53 -55.5t-53 -47.5h-39v9q18 19 40.5 46t43 55t33.5 50h68z" />
    <glyph glyph-name="uni10DD_uni0304.ccmp" horiz-adv-x="781" 
d="M120 0q-31 68 -47 133t-16 149q0 122 48.5 191t140.5 69q56 0 93 -28.5t50 -79.5h3q13 51 50 79.5t94 28.5q91 0 139.5 -69t48.5 -191q0 -83 -16.5 -149t-46.5 -133h-58q31 69 46.5 135t15.5 147q0 211 -134 211q-58 0 -85.5 -39.5t-27.5 -108.5v-159h-55v159
q0 66 -27.5 107t-84.5 41q-135 0 -135 -211q0 -82 15.5 -147.5t46.5 -134.5h-58zM529 668v-48h-276v48h276z" />
    <glyph glyph-name="uni10DD_uni0304_uni0308.ccmp" horiz-adv-x="781" 
d="M120 0q-31 68 -47 133t-16 149q0 122 48.5 191t140.5 69q56 0 93 -28.5t50 -79.5h3q13 51 50 79.5t94 28.5q91 0 139.5 -69t48.5 -191q0 -83 -16.5 -149t-46.5 -133h-58q31 69 46.5 135t15.5 147q0 211 -134 211q-58 0 -85.5 -39.5t-27.5 -108.5v-159h-55v159
q0 66 -27.5 107t-84.5 41q-135 0 -135 -211q0 -82 15.5 -147.5t46.5 -134.5h-58zM529 668v-48h-276v48h276zM262 798q0 40 35 40q36 0 36 -40q0 -41 -36 -41q-35 0 -35 41zM449 798q0 40 34 40q36 0 36 -40q0 -41 -36 -41q-34 0 -34 41z" />
    <glyph glyph-name="uni10E3_uni0308.ccmp" horiz-adv-x="589" 
d="M288 -250q-107 0 -168.5 61t-61.5 170q0 31 6 55.5t13 42.5h55q-7 -18 -12 -43t-5 -51q0 -87 44.5 -136.5t128.5 -49.5q59 0 95 26.5t52.5 73.5t16.5 108v361q0 59 -24 92t-73 33q-46 0 -71 -34t-25 -90v-128h-55v127q0 56 -23 88t-74 32h-61v49h60q101 0 125 -92h3
q13 47 46 72t81 25q70 0 109 -44.5t39 -121.5v-371q0 -116 -54.5 -185.5t-166.5 -69.5zM157 662q0 40 35 40q36 0 36 -40q0 -41 -36 -41q-35 0 -35 41zM344 662q0 40 34 40q36 0 36 -40q0 -41 -36 -41q-34 0 -34 41z" />
    <glyph glyph-name="uni10E3_acutecomb.ccmp" horiz-adv-x="589" 
d="M288 -250q-107 0 -168.5 61t-61.5 170q0 31 6 55.5t13 42.5h55q-7 -18 -12 -43t-5 -51q0 -87 44.5 -136.5t128.5 -49.5q59 0 95 26.5t52.5 73.5t16.5 108v361q0 59 -24 92t-73 33q-46 0 -71 -34t-25 -90v-128h-55v127q0 56 -23 88t-74 32h-61v49h60q101 0 125 -92h3
q13 47 46 72t81 25q70 0 109 -44.5t39 -121.5v-371q0 -116 -54.5 -185.5t-166.5 -69.5zM399 766v-8q-15 -21 -40 -49t-53 -55.5t-53 -47.5h-39v9q18 19 40.5 46t43 55t33.5 50h68z" />
    <glyph glyph-name="uni10E3_uni0302.ccmp" horiz-adv-x="589" 
d="M288 -250q-107 0 -168.5 61t-61.5 170q0 31 6 55.5t13 42.5h55q-7 -18 -12 -43t-5 -51q0 -87 44.5 -136.5t128.5 -49.5q59 0 95 26.5t52.5 73.5t16.5 108v361q0 59 -24 92t-73 33q-46 0 -71 -34t-25 -90v-128h-55v127q0 56 -23 88t-74 32h-61v49h60q101 0 125 -92h3
q13 47 46 72t81 25q70 0 109 -44.5t39 -121.5v-371q0 -116 -54.5 -185.5t-166.5 -69.5zM314 765q12 -22 33 -49.5t44.5 -54.5t42.5 -46v-9h-42q-27 22 -54.5 51t-51.5 57q-24 -28 -52 -57t-55 -51h-40v9q18 20 41 46.5t44.5 54t33.5 49.5h56z" />
    <glyph glyph-name="uni10E3_uni0304.ccmp" horiz-adv-x="589" 
d="M288 -250q-107 0 -168.5 61t-61.5 170q0 31 6 55.5t13 42.5h55q-7 -18 -12 -43t-5 -51q0 -87 44.5 -136.5t128.5 -49.5q59 0 95 26.5t52.5 73.5t16.5 108v361q0 59 -24 92t-73 33q-46 0 -71 -34t-25 -90v-128h-55v127q0 56 -23 88t-74 32h-61v49h60q101 0 125 -92h3
q13 47 46 72t81 25q70 0 109 -44.5t39 -121.5v-371q0 -116 -54.5 -185.5t-166.5 -69.5zM424 668v-48h-276v48h276z" />
    <glyph glyph-name="uni10E3_uni0304_uni0308.ccmp" horiz-adv-x="589" 
d="M288 -250q-107 0 -168.5 61t-61.5 170q0 31 6 55.5t13 42.5h55q-7 -18 -12 -43t-5 -51q0 -87 44.5 -136.5t128.5 -49.5q59 0 95 26.5t52.5 73.5t16.5 108v361q0 59 -24 92t-73 33q-46 0 -71 -34t-25 -90v-128h-55v127q0 56 -23 88t-74 32h-61v49h60q101 0 125 -92h3
q13 47 46 72t81 25q70 0 109 -44.5t39 -121.5v-371q0 -116 -54.5 -185.5t-166.5 -69.5zM424 668v-48h-276v48h276zM157 798q0 40 35 40q36 0 36 -40q0 -41 -36 -41q-35 0 -35 41zM344 798q0 40 34 40q36 0 36 -40q0 -41 -36 -41q-34 0 -34 41z" />
    <glyph glyph-name="uni10F7_acutecomb.ccmp" horiz-adv-x="537" 
d="M265 -250q-96 0 -154.5 54.5t-58.5 149.5q0 67 25 113.5t70 79.5t103 61q51 24 85 46.5t52 51t18 69.5q0 55 -34 86.5t-103 31.5q-71 0 -105.5 -32t-34.5 -87q0 -7 1 -15t2 -14h-57q-1 7 -2 15.5t-1 15.5q0 74 51.5 120t145.5 46q95 0 145 -44.5t50 -122.5
q0 -53 -21.5 -90t-65 -67t-107.5 -60q-47 -23 -82.5 -49.5t-55.5 -63.5t-20 -91q0 -71 41.5 -112.5t112.5 -41.5q74 0 117.5 39t43.5 115q0 26 -3 43t-8 29h60q4 -13 7 -29.5t3 -42.5q0 -101 -60.5 -152.5t-159.5 -51.5zM381 766v-8q-15 -21 -40 -49t-53 -55.5t-53 -47.5
h-39v9q18 19 40.5 46t43 55t33.5 50h68z" />
    <glyph glyph-name="uni10F7_uni0304.ccmp" horiz-adv-x="537" 
d="M265 -250q-96 0 -154.5 54.5t-58.5 149.5q0 67 25 113.5t70 79.5t103 61q51 24 85 46.5t52 51t18 69.5q0 55 -34 86.5t-103 31.5q-71 0 -105.5 -32t-34.5 -87q0 -7 1 -15t2 -14h-57q-1 7 -2 15.5t-1 15.5q0 74 51.5 120t145.5 46q95 0 145 -44.5t50 -122.5
q0 -53 -21.5 -90t-65 -67t-107.5 -60q-47 -23 -82.5 -49.5t-55.5 -63.5t-20 -91q0 -71 41.5 -112.5t112.5 -41.5q74 0 117.5 39t43.5 115q0 26 -3 43t-8 29h60q4 -13 7 -29.5t3 -42.5q0 -101 -60.5 -152.5t-159.5 -51.5zM407 668v-48h-276v48h276z" />
    </font>
</defs>
</svg>
