<?xml version="1.0" standalone="no"?>
<!DOCTYPE svg PUBLIC "-//W3C//DTD SVG 1.1//EN" "http://www.w3.org/Graphics/SVG/1.1/DTD/svg11.dtd" >
<svg xmlns="http://www.w3.org/2000/svg" xmlns:xlink="http://www.w3.org/1999/xlink" version="1.1">
<metadata>
Created by FontForge 20170731 at Thu Sep 26 08:56:21 2019
 By Aleksey,,,
Copyright 2019 Google LLC. All rights reserved.
</metadata>
<defs>
<font id="NotoSansGeorgian-Medium" horiz-adv-x="608" >
  <font-face 
    font-family="Noto Sans Georgian Med"
    font-weight="500"
    font-stretch="normal"
    units-per-em="1000"
    panose-1="2 11 6 2 4 5 4 2 2 4"
    ascent="800"
    descent="-200"
    bbox="-182 -250 1099 1055"
    underline-thickness="50"
    underline-position="-175"
    unicode-range="U+000D-2D2D"
  />
<missing-glyph horiz-adv-x="364" 
d="M33 0v666h265v-666h-265zM66 33h199v600h-199v-600z" />
    <glyph glyph-name=".notdef" horiz-adv-x="364" 
d="M33 0v666h265v-666h-265zM66 33h199v600h-199v-600z" />
    <glyph glyph-name=".null" horiz-adv-x="0" 
 />
    <glyph glyph-name="nonmarkingreturn" horiz-adv-x="333" 
 />
    <glyph glyph-name="NULL" horiz-adv-x="0" 
 />
    <glyph glyph-name="NULL" horiz-adv-x="0" 
 />
    <glyph glyph-name="CR" unicode="&#xd;" horiz-adv-x="260" 
 />
    <glyph glyph-name="space" unicode=" " horiz-adv-x="260" 
 />
    <glyph glyph-name="hyphen" unicode="-" horiz-adv-x="322" 
d="M37 223v90h248v-90h-248z" />
    <glyph glyph-name="uni00A0" unicode="&#xa0;" horiz-adv-x="260" 
 />
    <glyph glyph-name="acutecomb" unicode="&#x301;" horiz-adv-x="0" 
d="M113 766v-10q-15 -18 -42.5 -47t-58 -57t-54.5 -46h-70v12q15 19 33.5 45t36.5 53.5t31 49.5h124z" />
    <glyph glyph-name="uni0302" unicode="&#x302;" horiz-adv-x="0" 
d="M57 766q12 -22 34.5 -49.5t47 -54t43.5 -44.5v-12h-73q-26 16 -55 39t-56 50q-54 -55 -108 -89h-72v12q19 19 42.5 45t46 53.5t35.5 49.5h115z" />
    <glyph glyph-name="uni0304" unicode="&#x304;" horiz-adv-x="0" 
d="M154 696v-80h-307v80h307z" />
    <glyph glyph-name="uni0308" unicode="&#x308;" horiz-adv-x="0" 
d="M-149 668q0 29 15.5 41.5t38.5 12.5q21 0 37 -12.5t16 -41.5q0 -27 -16 -40.5t-37 -13.5q-23 0 -38.5 13.5t-15.5 40.5zM42 668q0 29 15.5 41.5t37.5 12.5q21 0 37 -12.5t16 -41.5q0 -27 -16 -40.5t-37 -13.5q-22 0 -37.5 13.5t-15.5 40.5z" />
    <glyph glyph-name="uni0589" unicode="&#x589;" horiz-adv-x="273" 
d="M68 479q0 40 19.5 56.5t48.5 16.5q28 0 48.5 -16.5t20.5 -56.5q0 -38 -20.5 -55t-48.5 -17q-29 0 -48.5 17t-19.5 55zM68 59q0 39 19.5 55t48.5 16q28 0 48.5 -16t20.5 -55t-20.5 -56t-48.5 -17q-29 0 -48.5 17t-19.5 56z" />
    <glyph glyph-name="uni10A0" unicode="&#x10a0;" horiz-adv-x="633" 
d="M399 -10q-101 0 -177.5 41.5t-119 116.5t-42.5 176q0 71 22.5 129t61.5 101.5t88 68.5v3h-154v88h506v-92h-128q-89 0 -152 -36t-96.5 -100t-33.5 -148q0 -122 61.5 -188.5t175.5 -66.5q47 0 89.5 9t83.5 22v-93q-41 -16 -84.5 -23.5t-100.5 -7.5z" />
    <glyph glyph-name="uni10A1" unicode="&#x10a1;" horiz-adv-x="801" 
d="M491 0v224q0 12 1.5 34t3.5 54h-5q-30 -46 -83.5 -72t-117.5 -26q-112 0 -173.5 68t-61.5 192q0 62 19 124t53 116h120q-34 -41 -56.5 -106.5t-22.5 -132.5q0 -82 35 -125.5t109 -43.5q92 0 136 49.5t44 157.5v201h108v-622h192v-92h-301z" />
    <glyph glyph-name="uni10A2" unicode="&#x10a2;" horiz-adv-x="754" 
d="M448 0v622h-265v-238h-108v330h481v-622h190v-92h-298z" />
    <glyph glyph-name="uni10A3" unicode="&#x10a3;" horiz-adv-x="767" 
d="M382 -10q-101 0 -173 34.5t-110.5 99t-38.5 153.5q0 124 72 199t200 87v59h-243v92h589v-92h-242v-59q129 -11 200 -86.5t71 -199.5q0 -135 -85.5 -211t-239.5 -76zM382 82q103 0 157.5 50t54.5 146t-54.5 146.5t-156.5 50.5q-101 0 -155.5 -50.5t-54.5 -146.5
q0 -95 53.5 -145.5t155.5 -50.5z" />
    <glyph glyph-name="uni10A4" unicode="&#x10a4;" horiz-adv-x="651" 
d="M448 0v622h-265v-238h-108v330h481v-714h-108z" />
    <glyph glyph-name="uni10A5" unicode="&#x10a5;" horiz-adv-x="842" 
d="M450 0v622h-268v-237h-107v329h483v-293h241v-247h-100v155h-141v-329h-108z" />
    <glyph glyph-name="uni10A6" unicode="&#x10a6;" horiz-adv-x="795" 
d="M464 -10q-83 0 -142.5 34t-91.5 96.5t-32 148.5v353h-196v92h304v-163q0 -18 -1.5 -46t-3.5 -52h6q37 52 81 74t107 22q77 0 131.5 -35t84 -98t29.5 -146q0 -129 -73 -204.5t-203 -75.5zM464 82q78 0 121 49t43 139q0 91 -40.5 139t-115.5 48q-82 0 -124 -49.5
t-42 -140.5q0 -88 40.5 -136.5t117.5 -48.5z" />
    <glyph glyph-name="uni10A7" unicode="&#x10a7;" horiz-adv-x="922" 
d="M638 421h241v-247h-100v155h-141v-329h-215q-174 0 -268.5 93t-94.5 261q0 174 97 267t275 93h206v-293zM530 91v532h-92q-265 0 -265 -268q0 -264 255 -264h102z" />
    <glyph glyph-name="uni10A8" unicode="&#x10a8;" horiz-adv-x="492" 
d="M288 0v622h-286v92h394v-714h-108z" />
    <glyph glyph-name="uni10A9" unicode="&#x10a9;" horiz-adv-x="704" 
d="M518 0v104q0 20 2 44t3 46h-6q-67 -95 -188 -95q-75 0 -129.5 33t-84 92t-29.5 138v352h108v-92q0 -12 -2 -34.5t-4 -56.5h7q36 52 80.5 73.5t106.5 21.5q76 0 130.5 -33t84 -92t29.5 -137v-364h-108zM351 192q79 0 123 44.5t44 127.5q0 82 -42.5 126t-115.5 44
q-79 0 -122.5 -44.5t-43.5 -127.5q0 -82 42 -126t115 -44z" />
    <glyph glyph-name="uni10AA" unicode="&#x10aa;" horiz-adv-x="1004" 
d="M673 -10q-82 0 -141.5 34t-91.5 96.5t-32 148.5v353h-225v-238h-108v330h441v-169q0 -10 -2 -34t-4 -58h7q37 52 81 74t106 22q78 0 132.5 -35.5t83.5 -98.5t29 -145q0 -87 -34 -149.5t-95.5 -96.5t-146.5 -34zM673 82q78 0 121 49t43 139q0 91 -40 139t-116 48
q-81 0 -123 -49.5t-42 -140.5q0 -88 40 -136.5t117 -48.5z" />
    <glyph glyph-name="uni10AB" unicode="&#x10ab;" horiz-adv-x="762" 
d="M323 -10q-79 0 -138 28.5t-92 83t-33 132.5q0 117 69.5 180t194.5 63h154v145h-364v92h472v-237h134v-90h-134v-140q0 -118 -67 -187.5t-196 -69.5zM319 82q83 0 121 43t38 119v143h-151q-157 0 -157 -153q0 -76 40.5 -114t108.5 -38z" />
    <glyph glyph-name="uni10AC" unicode="&#x10ac;" horiz-adv-x="722" 
d="M96 0v714h508v-92h-400v-143q0 -9 -1.5 -32.5t-4.5 -59.5h6q69 99 200 99q106 0 166.5 -65.5t60.5 -190.5v-230h-108v226q0 168 -144 168q-86 0 -130.5 -49t-44.5 -141v-204h-108z" />
    <glyph glyph-name="uni10AD" unicode="&#x10ad;" horiz-adv-x="881" 
d="M393 -10q-113 0 -187 46t-110 129t-36 194q0 109 36.5 191.5t110.5 128t187 45.5q110 0 183.5 -45.5t110.5 -127.5t37 -193q0 -80 -19.5 -146t-59.5 -114q19 -15 36 -22.5t37 -7.5q57 0 57 81h96q0 -72 -31.5 -115.5t-106.5 -43.5q-39 0 -72.5 17t-62.5 44
q-39 -29 -91 -45t-115 -16zM393 82q114 0 166 74t52 202t-51.5 200.5t-165.5 72.5t-167 -72.5t-53 -200.5t53 -202t166 -74z" />
    <glyph glyph-name="uni10AE" unicode="&#x10ae;" horiz-adv-x="849" 
d="M480 -10q-133 0 -207.5 69.5t-74.5 193.5v369h-196v92h303v-455q0 -86 43.5 -131.5t128.5 -45.5q88 0 131 45.5t43 131.5v455h108v-461q0 -124 -74.5 -193.5t-204.5 -69.5z" />
    <glyph glyph-name="uni10AF" unicode="&#x10af;" horiz-adv-x="748" 
d="M544 0v200q0 29 1.5 55t4.5 53h-5q-30 -42 -83.5 -68.5t-118.5 -26.5q-69 0 -121.5 29t-81.5 81.5t-29 122.5q0 61 22 104t55 69v3h-181v92h324v-88q-43 -12 -66.5 -38.5t-32.5 -58.5t-9 -60q0 -164 145 -164q90 0 133.5 49t43.5 153v207h108v-714h-109z" />
    <glyph glyph-name="uni10B0" unicode="&#x10b0;" horiz-adv-x="935" 
d="M308 -10q-78 0 -135 33t-87.5 88.5t-30.5 124.5q0 92 58 172l92 -39q-19 -30 -28 -63.5t-9 -65.5q0 -43 16 -79t47 -57.5t75 -21.5q70 0 107 44t37 133v455h108v-150q0 -11 -1 -34.5t-4 -61.5h5q29 44 68 62.5t85 18.5q58 0 98.5 -28t61.5 -73t21 -97q0 -70 -39 -134
l-95 30q24 44 24 92t-27 83t-81 35q-53 0 -84.5 -35t-31.5 -97v-72q0 -124 -66 -193.5t-184 -69.5z" />
    <glyph glyph-name="uni10B1" unicode="&#x10b1;" horiz-adv-x="649" 
d="M340 -10q-117 0 -183 69.5t-66 193.5v461h108v-455q0 -89 37 -133t106 -44q67 0 103 46t36 112q0 69 -38 129l92 39q59 -80 59 -172q0 -68 -30.5 -124t-87.5 -89t-136 -33z" />
    <glyph glyph-name="uni10B2" unicode="&#x10b2;" horiz-adv-x="623" 
d="M96 0v714h200q267 0 267 -214q0 -111 -74 -170t-208 -59h-77v-179h329v-92h-437zM204 362h69q95 0 137.5 32t42.5 102q0 64 -40 95.5t-125 31.5h-84v-261z" />
    <glyph glyph-name="uni10B3" unicode="&#x10b3;" horiz-adv-x="784" 
d="M596 -174q-10 0 -21.5 1.5t-25.5 3.5v87q10 -2 21.5 -3t22.5 -1q34 0 52 18t18 50q0 26 -17 45t-43 28q-83 -65 -210 -65q-159 0 -246 96.5t-87 272.5q0 175 86.5 270t247.5 95q158 0 244.5 -96t86.5 -270q0 -70 -16.5 -131t-53.5 -115q49 -15 80 -48t31 -87
q0 -69 -45.5 -110t-124.5 -41zM393 82q218 0 218 276q0 273 -217 273q-109 0 -164.5 -69t-55.5 -204t55.5 -205.5t163.5 -70.5z" />
    <glyph glyph-name="uni10B4" unicode="&#x10b4;" horiz-adv-x="842" 
d="M369 0v173q-92 0 -161.5 33t-108.5 94t-39 146q0 138 97 208t265 70q176 0 267.5 -70.5t91.5 -207.5q0 -87 -39 -148t-109 -93t-161 -32v-173h-103zM369 260v374q-96 -2 -149.5 -51t-53.5 -136q0 -88 53 -137.5t150 -49.5zM472 260q97 0 150 49.5t53 137.5t-53 136.5
t-150 50.5v-374z" />
    <glyph glyph-name="uni10B5" unicode="&#x10b5;" horiz-adv-x="633" 
d="M257 0v385h-207v92h207v237h108v-237h207v-92h-207v-385h-108z" />
    <glyph glyph-name="uni10B6" unicode="&#x10b6;" horiz-adv-x="742" 
d="M91 0v462q0 124 76 193t207 69q132 0 204.5 -70.5t72.5 -193.5v-460h-108v455q0 177 -174 177q-171 0 -171 -178v-454h-107z" />
    <glyph glyph-name="uni10B7" unicode="&#x10b7;" horiz-adv-x="695" 
d="M491 0v224q0 12 1.5 34t3.5 54h-5q-30 -46 -83.5 -72t-117.5 -26q-112 0 -173.5 68t-61.5 192q0 62 19 124t53 116h120q-34 -41 -56.5 -106.5t-22.5 -132.5q0 -82 35 -125.5t109 -43.5q92 0 136 49.5t44 157.5v201h108v-714h-109z" />
    <glyph glyph-name="uni10B8" unicode="&#x10b8;" horiz-adv-x="711" 
d="M356 -10q-74 0 -131 26.5t-89.5 72.5t-32.5 105q0 46 22 86l96 -32q-7 -21 -7 -45q0 -56 37 -88.5t104 -32.5q70 0 111 43t41 121v76q0 38 6 103h-6q-36 -52 -83 -76t-105 -24q-106 0 -167 68.5t-61 190.5v130h108v-127q0 -85 37.5 -127.5t106.5 -42.5q75 0 119.5 49.5
t44.5 136.5v111h108v-467q0 -81 -32 -138.5t-90 -88t-137 -30.5z" />
    <glyph glyph-name="uni10B9" unicode="&#x10b9;" horiz-adv-x="694" 
d="M94 0v714h108v-262h407v-452h-108v361h-299v-361h-108z" />
    <glyph glyph-name="uni10BA" unicode="&#x10ba;" horiz-adv-x="710" 
d="M363 -10q-96 0 -163.5 44t-103.5 126.5t-36 197.5q0 113 42.5 195t121 126.5t188.5 44.5q112 0 201 -43l-40 -89q-83 39 -162 39q-74 0 -127 -33.5t-82 -95t-29 -146.5q0 -128 55 -200.5t151 -72.5q84 0 159 40v172h108v-295h-108v33q-79 -43 -175 -43z" />
    <glyph glyph-name="uni10BB" unicode="&#x10bb;" horiz-adv-x="903" 
d="M311 -10q-77 0 -133.5 30.5t-87 85.5t-30.5 128q0 113 67.5 179t189.5 66h132v235h108v-235h260v-479h-100v388h-160v-141q0 -125 -65 -191t-181 -66zM308 82q141 0 141 160v146h-128q-152 0 -152 -153q0 -71 36.5 -112t102.5 -41z" />
    <glyph glyph-name="uni10BC" unicode="&#x10bc;" horiz-adv-x="612" 
d="M96 0v714h200q267 0 267 -204q0 -106 -73 -162.5t-209 -56.5h-77v-76h243v-170h-101v79h-142v-124h-108zM204 381h65q95 0 139.5 30t44.5 95q0 59 -40 88t-125 29h-84v-242z" />
    <glyph glyph-name="uni10BD" unicode="&#x10bd;" horiz-adv-x="582" 
d="M284 -10q-115 0 -177 50.5t-62 139.5q0 15 2 28t5 26h107q-7 -22 -7 -49q0 -48 33 -75.5t102 -27.5q67 0 99.5 27.5t32.5 76.5q0 36 -20 59.5t-56 41.5t-86 37q-95 37 -139.5 85.5t-44.5 126.5q0 58 28 100t78.5 65t117.5 23q102 0 157.5 -48t55.5 -130q0 -6 -0.5 -12
t-1.5 -11h-107q0 4 1 10t1 12q0 38 -28 62t-80 24q-53 0 -83.5 -25t-30.5 -69q0 -35 17 -58t51 -40.5t85 -37.5q62 -23 105 -50.5t65.5 -65t22.5 -94.5q0 -94 -63.5 -147.5t-179.5 -53.5z" />
    <glyph glyph-name="uni10BE" unicode="&#x10be;" horiz-adv-x="706" 
d="M96 714h108v-341h298v341h108v-432h-406v-190h388v-92h-496v714z" />
    <glyph glyph-name="uni10BF" unicode="&#x10bf;" horiz-adv-x="663" 
d="M36 0l245 367l-168 257h-97v90h572v-81l-179 -267l246 -366h-120l-192 294l-193 -294h-114zM347 437l123 187h-240z" />
    <glyph glyph-name="uni10C0" unicode="&#x10c0;" horiz-adv-x="966" 
d="M657 -10q-117 0 -183 69.5t-66 193.5v369h-225v-238h-108v330h441v-455q0 -89 37 -133t106 -44q67 0 103 46t36 112q0 69 -38 129l92 39q59 -80 59 -172q0 -68 -30.5 -124t-87.5 -89t-136 -33z" />
    <glyph glyph-name="uni10C1" unicode="&#x10c1;" horiz-adv-x="716" 
d="M96 0v714h108v-164q0 -14 -1.5 -36t-3.5 -52h6q61 87 172 87q97 0 150.5 -55.5t56.5 -158.5h112v-92h-219v76q0 68 -29 103t-93 35q-77 0 -114 -45t-37 -139v-273h-108z" />
    <glyph glyph-name="uni10C2" unicode="&#x10c2;" horiz-adv-x="629" 
d="M230 -10q-55 0 -98 7t-88 24v93q98 -31 180 -31q108 0 170.5 61.5t62.5 168.5q0 110 -60.5 167t-176.5 57h-143v177h102v-84h55q163 0 249.5 -81.5t86.5 -235.5q0 -101 -42.5 -173t-119 -111t-178.5 -39z" />
    <glyph glyph-name="uni10C3" unicode="&#x10c3;" horiz-adv-x="682" 
d="M478 0v193q0 12 1.5 34t4.5 53h-6q-30 -46 -83.5 -71.5t-112.5 -25.5q-67 0 -118 26t-80 75.5t-29 120.5q0 92 58 172l92 -39q-19 -31 -28 -62t-9 -60q0 -66 34.5 -103.5t103.5 -37.5q86 0 129.5 48.5t43.5 154.5v236h108v-714h-109z" />
    <glyph glyph-name="uni10C4" unicode="&#x10c4;" horiz-adv-x="711" 
d="M301 0v239q-108 14 -167 82t-59 179v214h108v-209q0 -87 43 -132t131 -45q171 0 171 178v208h108v-216q0 -108 -59 -175.5t-168 -82.5v-240h-108z" />
    <glyph glyph-name="uni10C5" unicode="&#x10c5;" horiz-adv-x="846" 
d="M246 -10q-94 0 -146 42t-52 118t51.5 117.5t153.5 41.5h84v213q0 96 60 149t170 53q111 0 171 -45t60 -127t-61.5 -126t-177.5 -44h-114v-73h270v-195h-101v107h-169v-31q0 -92 -52.5 -146t-146.5 -54zM445 470h108q68 0 100 20t32 62q0 40 -29.5 62t-90.5 22
q-120 0 -120 -113v-53zM249 78q43 0 65.5 28t22.5 81v34h-71q-54 0 -79.5 -17t-25.5 -55q0 -71 88 -71z" />
    <glyph glyph-name="uni10C7" unicode="&#x10c7;" horiz-adv-x="582" 
d="M298 -10q-116 0 -179 53.5t-63 147.5q0 57 22 94.5t65.5 65t105.5 50.5q50 20 84 37.5t51.5 40.5t17.5 58q0 44 -31 69t-84 25q-52 0 -80 -24t-28 -62q0 -6 1 -12t1 -10h-107q0 5 -1 11t-1 12q0 82 55.5 130t157.5 48q67 0 117.5 -23t78.5 -65t28 -100
q0 -78 -44.5 -126.5t-139.5 -85.5q-49 -19 -85.5 -37t-56.5 -41.5t-20 -59.5q0 -49 32.5 -76.5t100.5 -27.5t101 27.5t33 75.5q0 27 -7 49h107q3 -13 5 -26t2 -28q0 -89 -61.5 -139.5t-177.5 -50.5z" />
    <glyph glyph-name="uni10CD" unicode="&#x10cd;" horiz-adv-x="574" 
d="M34 0v77l366 544h-355v93h485v-77l-366 -544h375v-93h-505z" />
    <glyph glyph-name="uni10D0" unicode="&#x10d0;" horiz-adv-x="559" 
d="M277 -10q-66 0 -118 23.5t-82 69t-30 112.5q0 24 4.5 44.5t9.5 34.5h101q-4 -15 -6.5 -34.5t-2.5 -40.5q0 -58 33.5 -90t90.5 -32q56 0 88.5 32.5t32.5 92.5q0 50 -23 81.5t-52 59.5q-24 24 -48 50.5t-39.5 61.5t-15.5 84h106q0 -43 24 -75t55 -63q24 -24 47.5 -52
t39 -63.5t15.5 -83.5q0 -64 -29.5 -111.5t-81.5 -74t-119 -26.5z" />
    <glyph glyph-name="uni10D1" unicode="&#x10d1;" horiz-adv-x="610" 
d="M369 542q84 -18 136.5 -88t52.5 -184q0 -134 -69 -207t-186 -73q-73 0 -129.5 33t-89 95.5t-32.5 151.5q0 123 57.5 194t158.5 83q5 9 8.5 20t3.5 27q0 19 -10 32t-24 24q-20 16 -39.5 39.5t-19.5 70.5h103q0 -23 12 -39t28 -30q20 -17 36.5 -37.5t16.5 -51.5
q0 -33 -14 -60zM305 77q75 0 109.5 52t34.5 141q0 90 -35 140.5t-110 50.5t-109 -50.5t-34 -140.5q0 -89 34.5 -141t109.5 -52z" />
    <glyph glyph-name="uni10D2" unicode="&#x10d2;" horiz-adv-x="600" 
d="M298 -250q-73 0 -129.5 32.5t-89 93t-32.5 144.5q0 124 63 189.5t170 80.5q57 8 81.5 33t24.5 63q0 36 -23 59t-66 23q-42 0 -64 -22t-22 -58q0 -8 1 -16t3 -16h-102q-6 23 -6 47q0 65 52 105.5t138 40.5q58 0 101 -20t67.5 -54.5t24.5 -78.5q0 -45 -23 -79.5t-73 -51.5
v-3q83 -25 121 -91.5t38 -150.5q0 -126 -68.5 -198t-186.5 -72zM300 -163q75 0 109.5 50.5t34.5 132.5q0 83 -35 132t-110 49t-109 -49t-34 -132q0 -82 34.5 -132.5t109.5 -50.5z" />
    <glyph glyph-name="uni10D3" unicode="&#x10d3;" horiz-adv-x="890" 
d="M548 -250q-23 41 -60.5 70.5t-79.5 45t-79 15.5q-42 0 -77.5 -10t-74.5 -28l-34 72q22 10 51 18.5t73 11.5v3q-101 48 -158 131.5t-57 204.5q0 76 23.5 136t69 94.5t111.5 34.5q132 0 168 -111h5q21 55 69.5 83t105.5 28q106 0 170 -71.5t64 -201.5q0 -86 -31 -147.5
t-83.5 -94t-119.5 -32.5q-107 0 -171 72t-64 201v45q0 72 -28 107t-77 35q-50 0 -77 -46.5t-27 -129.5q0 -92 29.5 -151.5t79 -97.5t108.5 -63q60 -25 107.5 -49t83 -55.5t59.5 -78.5zM602 89q66 0 96.5 51t30.5 136q0 86 -30 135.5t-96 49.5q-65 0 -95 -49.5t-30 -135.5
q0 -85 30 -136t94 -51z" />
    <glyph glyph-name="uni10D4" unicode="&#x10d4;" horiz-adv-x="593" 
d="M284 -250q-71 0 -124.5 30t-83 83.5t-29.5 125.5q0 28 5.5 54t13.5 45h100q-5 -18 -9 -43.5t-4 -46.5q0 -68 32.5 -114.5t98.5 -46.5q72 0 102 47.5t30 126.5v304q0 70 -28.5 108.5t-87.5 38.5q-54 0 -86.5 -31t-32.5 -90q0 -42 9 -76h-102q-5 14 -9 34.5t-4 44.5
q0 67 30 112.5t81 69t113 23.5q102 0 162.5 -60.5t60.5 -170.5v-310q0 -123 -62 -190.5t-176 -67.5z" />
    <glyph glyph-name="uni10D5" unicode="&#x10d5;" horiz-adv-x="587" 
d="M294 -250q-76 0 -131.5 28.5t-85.5 78t-30 111.5q0 28 5.5 52.5t11.5 42.5h102q-5 -16 -9 -40t-4 -44q0 -37 15 -69.5t46 -52.5t80 -20q70 0 103.5 45t33.5 110q0 64 -35.5 105t-109.5 41h-39v86h45q66 0 94 37.5t28 87.5q0 47 -29.5 80t-85.5 33q-57 0 -86.5 -29
t-29.5 -80q0 -14 2 -27.5t6 -28.5h-103q-11 32 -11 64q0 55 28.5 97t78.5 66.5t115 24.5q66 0 116 -25.5t77.5 -69t27.5 -96.5q0 -71 -38.5 -115.5t-101.5 -58.5v-4q42 -6 78.5 -30t59 -64.5t22.5 -99.5q0 -71 -30.5 -124t-85.5 -82.5t-130 -29.5z" />
    <glyph glyph-name="uni10D6" unicode="&#x10d6;" horiz-adv-x="627" 
d="M330 -10q-69 0 -123.5 32t-86 91.5t-31.5 141.5q0 57 15 102.5t48 77.5v4q-57 15 -91 57t-34 104q0 43 20.5 82t60 63.5t97.5 24.5q56 0 96 -22.5t61 -58.5t21 -77q0 -53 -23 -83v-4q5 0 12 -1q90 -13 146.5 -80t56.5 -181q0 -86 -30.5 -147t-85.5 -93.5t-129 -32.5z
M205 500q39 0 59 26.5t20 70.5q0 40 -19 68t-60 28t-60 -28t-19 -68q0 -39 19 -68t60 -29zM332 77q71 0 102.5 51t31.5 135q0 82 -31.5 131.5t-103.5 49.5q-70 0 -101.5 -49.5t-31.5 -131.5q0 -84 31.5 -135t102.5 -51z" />
    <glyph glyph-name="uni10D7" unicode="&#x10d7;" horiz-adv-x="890" 
d="M286 -10q-67 0 -120 33t-83.5 95.5t-30.5 151.5q0 134 64 206.5t169 72.5q58 0 107.5 -28t70.5 -83h6q36 111 169 111q64 0 108.5 -34t68 -93.5t23.5 -135.5q0 -85 -15.5 -151t-46.5 -135h-107q32 69 46.5 134.5t14.5 142.5q0 90 -27 138.5t-77 48.5q-49 0 -77 -36
t-28 -110v-49q0 -133 -64 -206t-171 -73zM288 77q64 0 94 52t30 141q0 90 -30 140.5t-95 50.5q-66 0 -96 -50.5t-30 -140.5q0 -89 30 -141t97 -52z" />
    <glyph glyph-name="uni10D8" unicode="&#x10d8;" horiz-adv-x="581" 
d="M112 0q-30 69 -45 133t-15 143q0 124 60.5 198.5t178.5 74.5t178 -74.5t60 -198.5q0 -79 -14.5 -143t-45.5 -133h-105q29 69 43.5 134t14.5 142q0 92 -35 139t-96 47q-63 0 -97 -46.5t-34 -140.5q0 -77 14 -141.5t44 -133.5h-106z" />
    <glyph glyph-name="uni10D9" unicode="&#x10d9;" horiz-adv-x="572" 
d="M280 -250q-72 0 -125.5 28.5t-83 78t-29.5 111.5q0 28 5.5 52.5t11.5 42.5h102q-5 -16 -9 -40t-4 -44q0 -37 14.5 -69.5t43.5 -52.5t74 -20q70 0 103 45t33 112q0 71 -37 118t-107 47h-40v84h44q45 0 71.5 16.5t39 42t12.5 52.5q0 45 -28.5 77.5t-79.5 32.5v85
q62 0 110.5 -25t76 -66t27.5 -89q0 -64 -38.5 -107.5t-101.5 -57.5v-4q42 -6 78.5 -31.5t59 -70.5t22.5 -110q0 -72 -30.5 -125.5t-85.5 -83t-129 -29.5z" />
    <glyph glyph-name="uni10DA" unicode="&#x10da;" horiz-adv-x="1104" 
d="M693 -250q-31 50 -77.5 82.5t-101.5 48.5t-110 16q-52 0 -99 -14t-89 -38l-40 73q29 15 64 26t69 14v3q-72 23 -130.5 65.5t-92.5 108.5t-34 159q0 76 23.5 133.5t69 89.5t110.5 32q58 0 94 -26.5t52 -72.5h6q16 46 52.5 72.5t92.5 26.5t92.5 -26.5t52.5 -72.5h5
q17 46 54 72.5t92 26.5q66 0 111.5 -34.5t69 -95.5t23.5 -142q0 -65 -14 -121.5t-43 -112.5l-92 34q23 49 32 96.5t9 103.5q0 93 -28 139t-78 46q-42 0 -64.5 -33t-22.5 -95v-156h-102v159q0 54 -22.5 89.5t-74.5 35.5q-49 0 -73 -33t-24 -92v-159h-101v156q0 57 -21.5 92.5
t-67.5 35.5q-49 0 -77 -41.5t-28 -127.5q0 -89 37.5 -149t100 -95.5t137.5 -52.5q71 -16 137 -41t119 -65t81 -98z" />
    <glyph glyph-name="uni10DB" unicode="&#x10db;" 
d="M297 -10q-111 0 -178 70t-67 206q0 130 60 199t158 69q61 0 99.5 -22.5t62.5 -55.5h6q-2 12 -4.5 32.5t-2.5 38.5v44q0 50 -29 84t-95 34q-52 0 -84.5 -23.5t-32.5 -61.5q0 -5 0.5 -11t1.5 -12h-103q-3 10 -4 19.5t-1 17.5q0 46 30 80t80.5 53t112.5 19q108 0 169 -58
t61 -152v-294q0 -136 -62 -206t-178 -70zM297 77q74 0 106 47.5t32 124.5v18q0 84 -30.5 132.5t-112.5 48.5q-65 0 -98 -51t-33 -133q0 -87 32.5 -137t103.5 -50z" />
    <glyph glyph-name="uni10DC" unicode="&#x10dc;" 
d="M312 -10q-117 0 -179 70.5t-62 207.5v304q0 68 25 109t67 60t94 19h242v-86h-229q-43 0 -68 -21.5t-25 -72.5v-31q0 -16 -2.5 -41t-3.5 -40h5q24 34 62.5 56t99.5 22q98 0 158 -70t60 -208q0 -137 -67 -207.5t-177 -70.5zM312 77q70 0 102.5 50t32.5 139q0 90 -33 142
t-98 52q-82 0 -112 -48.5t-30 -133.5v-26q0 -80 31.5 -127.5t106.5 -47.5z" />
    <glyph glyph-name="uni10DD" unicode="&#x10dd;" horiz-adv-x="822" 
d="M114 0q-31 70 -46.5 134.5t-15.5 142.5q0 81 23.5 142t70 95.5t115.5 34.5q58 0 94.5 -26.5t52.5 -72.5h5q17 46 54 72.5t93 26.5q69 0 115.5 -34.5t70.5 -95.5t24 -142q0 -78 -15.5 -142.5t-47.5 -134.5h-106q31 69 46 134.5t15 142.5q0 89 -28 137t-83 48
q-44 0 -67 -33t-23 -94v-155h-101v155q0 56 -21.5 91.5t-68.5 35.5q-53 0 -81.5 -46t-28.5 -139q0 -78 14.5 -143t46.5 -134h-107z" />
    <glyph glyph-name="uni10DE" unicode="&#x10de;" horiz-adv-x="582" 
d="M285 -10q-69 0 -123 23.5t-84.5 69t-30.5 112.5q0 23 4.5 43t9.5 34h101q-4 -14 -6.5 -33t-2.5 -40q0 -59 34.5 -90.5t97.5 -31.5q70 0 103 44.5t33 106.5q0 41 -16 75.5t-48.5 55t-83.5 20.5h-44v84h53q58 0 83.5 21.5t25.5 56.5q0 38 -22 58t-51 36q-23 14 -46 29.5
t-37.5 40t-14.5 63.5h106q0 -26 22.5 -42.5t54.5 -33.5q23 -14 46 -31t37.5 -42.5t14.5 -62.5q0 -61 -37 -90.5t-94 -42.5v-4q38 -7 74.5 -30.5t61 -65.5t24.5 -105q0 -67 -30 -118.5t-85 -80.5t-130 -29z" />
    <glyph glyph-name="uni10DF" unicode="&#x10df;" horiz-adv-x="627" 
d="M313 -250q-71 0 -124.5 27t-83 74t-29.5 108q0 29 4.5 50t11.5 39h101q-11 -35 -11 -79q0 -54 32.5 -93t99.5 -39q70 0 100.5 47t30.5 126v446q-70 -32 -158 -43v-4q29 -12 48.5 -39.5t19.5 -65.5q0 -61 -44 -100t-116 -39q-68 0 -110 37t-42 94q0 9 1 18.5t4 18.5h87
q-3 -14 -3 -26q0 -29 17 -47t46 -18q31 0 49 19.5t18 49.5q0 40 -19.5 61t-54.5 26v74q74 8 143.5 24t125.5 43h94v-531q0 -123 -62 -190.5t-176 -67.5z" />
    <glyph glyph-name="uni10E0" unicode="&#x10e0;" horiz-adv-x="817" 
d="M113 0q-32 70 -46.5 135t-14.5 142v39q0 185 67 285.5t212 129.5q54 11 111 21t113 18l16 -90q-38 -6 -79.5 -12t-80 -12.5t-64.5 -11.5q-42 -9 -81 -25.5t-70.5 -48.5t-49.5 -87h4q27 39 56.5 50.5t60.5 11.5q51 0 86 -26.5t52 -71.5h5q17 46 54 72t92 26
q69 0 115.5 -34t70 -95t23.5 -140t-15.5 -142.5t-46.5 -133.5h-107q31 69 46 133.5t15 142.5q0 87 -28 135t-82 48q-43 0 -66 -33.5t-23 -94.5v-151h-101v151q0 56 -21.5 92t-67.5 36q-52 0 -81 -46.5t-29 -137.5q0 -78 15 -142t46 -133h-106z" />
    <glyph glyph-name="uni10E1" unicode="&#x10e1;" horiz-adv-x="611" 
d="M314 -10q-118 0 -180.5 69.5t-62.5 201.5v499h106v-508q0 -80 32.5 -127.5t104.5 -47.5q69 0 102.5 45.5t33.5 110.5q0 41 -12.5 70.5t-30.5 55.5q-24 35 -44 76.5t-20 103.5h106q0 -45 17.5 -79t41.5 -69q21 -30 36 -68t15 -90q0 -74 -30.5 -128.5t-85.5 -84.5t-129 -30
z" />
    <glyph glyph-name="uni10E2" unicode="&#x10e2;" horiz-adv-x="771" 
d="M385 -250q-160 0 -246.5 105t-86.5 302q0 169 75 270t212 118q-3 19 -4.5 38t-1.5 33v47h104v-45q0 -14 -2 -33.5t-4 -38.5q137 -16 212.5 -118t75.5 -272q0 -123 -38.5 -214.5t-112.5 -141.5t-183 -50zM385 -163q109 0 167 80t58 239q0 276 -179 308q2 -21 4 -42.5
t2 -46.5v-197h-104v199q0 24 1.5 45t4.5 41q-178 -31 -178 -307q0 -158 58 -238.5t166 -80.5z" />
    <glyph glyph-name="uni10E3" unicode="&#x10e3;" horiz-adv-x="613" 
d="M303 -250q-76 0 -131.5 30t-85.5 83.5t-30 125.5q0 28 5.5 54t13.5 45h100q-5 -18 -9 -43.5t-4 -46.5q0 -68 33.5 -114.5t107.5 -46.5q72 0 103 48t31 126v347q0 105 -75 105q-34 0 -53.5 -27t-19.5 -76v-124h-101v123q0 99 -77 99h-72v86h71q50 0 81.5 -21t46.5 -66h4
q36 92 134 92q79 0 123 -49.5t44 -126.5v-365q0 -123 -62.5 -190.5t-177.5 -67.5z" />
    <glyph glyph-name="uni10E4" unicode="&#x10e4;" horiz-adv-x="870" 
d="M525 -250q-85 0 -148 22t-98.5 63.5t-35.5 100.5q0 19 4 40h101q-2 -16 -2 -27q0 -57 49 -84.5t130 -27.5q83 0 123.5 40.5t40.5 96.5q0 46 -26 81.5t-85 35.5h-23v87h43q48 0 81 40t33 107q0 61 -25.5 99t-72.5 38q-48 0 -76.5 -34.5t-28.5 -104.5v-25q0 -74 -29 -130
t-80.5 -87.5t-120.5 -31.5q-67 0 -118.5 31.5t-80 88t-28.5 131.5q0 74 28.5 130t79.5 87.5t119 31.5q54 0 103 -28t70 -83h6q18 51 59 81t106 30q61 0 104.5 -29.5t67 -77.5t23.5 -102q0 -92 -39.5 -140t-101.5 -62v-4q59 -15 90 -58t31 -106t-33 -112.5t-94 -78.5
t-146 -29zM281 136q41 0 68 22t40 59.5t13 82.5q0 67 -29.5 114t-92.5 47q-62 0 -91.5 -47t-29.5 -114q0 -45 13 -82.5t40 -59.5t69 -22z" />
    <glyph glyph-name="uni10E5" unicode="&#x10e5;" horiz-adv-x="593" 
d="M284 -250q-71 0 -124.5 30t-83 83.5t-29.5 125.5q0 28 5.5 54t13.5 45h100q-5 -18 -9 -43.5t-4 -46.5q0 -68 32.5 -114.5t98.5 -46.5q72 0 102 47.5t30 126.5v261q0 90 -28 140t-98 50q-46 0 -77.5 -31t-31.5 -90q0 -42 9 -76h-102q-5 14 -9 35t-4 45q0 67 27.5 112
t71.5 68.5t92 23.5q53 0 90 -23t61 -56h5q-2 14 -4 41.5t-2 46.5v202h106v-752q0 -123 -62 -190.5t-176 -67.5z" />
    <glyph glyph-name="uni10E6" unicode="&#x10e6;" horiz-adv-x="818" 
d="M522 -250q-35 62 -91.5 96.5t-111.5 34.5q-42 0 -77.5 -9.5t-74.5 -28.5l-34 72q22 10 51.5 19t75.5 11v4q-208 95 -208 326q0 82 23.5 143.5t69.5 96t114 34.5q58 0 94.5 -26.5t52.5 -72.5h5q17 46 54 72.5t93 26.5q68 0 114.5 -34.5t70 -95.5t23.5 -142
q0 -65 -14 -121.5t-44 -111.5l-90 33q23 49 31.5 96.5t8.5 103.5q0 88 -27.5 136.5t-82.5 48.5q-43 0 -66 -33t-23 -93v-157h-100v157q0 56 -22 91t-68 35q-52 0 -81 -46.5t-29 -138.5q0 -87 27.5 -145t74.5 -95t105 -62q60 -25 103.5 -49t75 -56t55.5 -79z" />
    <glyph glyph-name="uni10E7" unicode="&#x10e7;" horiz-adv-x="601" 
d="M293 -250q-72 0 -125.5 27t-82.5 74t-29 108q0 29 4 50t12 39h100q-10 -34 -10 -79q0 -54 32 -93t99 -39q71 0 101.5 47t30.5 126v121q0 24 1.5 46t3.5 44h-6q-25 -40 -67.5 -61.5t-95.5 -21.5q-99 0 -154 57.5t-55 172.5q0 50 11.5 93t27.5 78h105q-15 -39 -25 -77
t-10 -91q0 -73 31.5 -109t88.5 -36q144 0 144 152v161h105v-531q0 -123 -62 -190.5t-175 -67.5z" />
    <glyph glyph-name="uni10E8" unicode="&#x10e8;" horiz-adv-x="609" 
d="M297 -10q-110 0 -177 69t-67 197q0 123 59.5 190.5t157.5 67.5q62 0 100 -22.5t63 -55.5h5q-2 12 -4 32.5t-2 38.5v90q0 43 -19 66.5t-51 23.5q-31 0 -49.5 -18.5t-18.5 -52.5v-40h-103v38q0 36 -20 53t-46 17q-17 0 -34 -4.5t-32 -9.5l-26 79q21 9 45 15t52 6
q32 0 63 -15.5t49 -59.5h3q19 44 54.5 59.5t74.5 15.5q44 0 81.5 -18.5t60 -56.5t22.5 -97v-342q0 -128 -62 -197t-179 -69zM297 77q74 0 106 46t32 116v18q0 50 -13 88t-43.5 59.5t-84.5 21.5q-66 0 -99 -49t-33 -123q0 -80 32.5 -128.5t102.5 -48.5z" />
    <glyph glyph-name="uni10E9" unicode="&#x10e9;" horiz-adv-x="604" 
d="M71 0v579q0 84 51.5 137.5t141.5 53.5q55 0 97 -20.5t66 -55.5t24 -80q0 -31 -12.5 -61.5t-45.5 -53.5v-3q72 -18 114 -78.5t42 -155.5q0 -51 -7.5 -100.5t-19.5 -91.5t-23 -70h-108q17 44 33 111.5t16 139.5q0 83 -35 127.5t-92 44.5q-62 0 -98.5 -43.5t-36.5 -130.5
v-249h-107zM172 428h7q12 20 30.5 35.5t49.5 30.5q40 20 62 42.5t22 65.5q0 38 -21.5 60t-59.5 22q-36 0 -60 -24.5t-24 -71.5v-94q0 -29 -6 -66z" />
    <glyph glyph-name="uni10EA" unicode="&#x10ea;" horiz-adv-x="673" 
d="M353 -250q-153 0 -227 105.5t-74 305.5q0 107 24 205.5t65 172.5h105q-39 -76 -63 -173t-24 -204q0 -154 43.5 -239t151.5 -85q79 0 121 40t42 119q0 39 -16 73.5t-49 55t-85 20.5h-42v87h62q59 0 85 21.5t26 59.5q0 34 -13.5 55t-32.5 36q-29 23 -53 52.5t-24 81.5h106
q2 -26 19.5 -45.5t42.5 -40.5q27 -22 45.5 -52t18.5 -77q0 -60 -37.5 -89.5t-93.5 -43.5v-3q37 -7 71.5 -31t56.5 -67t22 -106q0 -70 -33 -122.5t-94 -82t-146 -29.5z" />
    <glyph glyph-name="uni10EB" unicode="&#x10eb;" 
d="M296 -10q-110 0 -177 70.5t-67 207.5q0 139 60 210t158 71q61 0 99.5 -23t62.5 -56h6q-2 14 -4.5 41.5t-2.5 46.5v202h107v-492q0 -137 -62.5 -207.5t-179.5 -70.5zM297 77q74 0 106 47.5t32 127.5v16q0 93 -30.5 143t-112.5 50q-65 0 -98 -52t-33 -143q0 -89 32.5 -139
t103.5 -50z" />
    <glyph glyph-name="uni10EC" unicode="&#x10ec;" horiz-adv-x="609" 
d="M312 -10q-117 0 -179 69t-62 197v342q0 59 22.5 97t60 56.5t81.5 18.5q39 0 74.5 -15.5t54.5 -59.5h3q17 44 48.5 59.5t63.5 15.5q28 0 52 -6t44 -15l-25 -79q-15 5 -32 9.5t-34 4.5q-26 0 -46 -16.5t-20 -48.5v-43h-103v44q0 31 -18.5 49t-49.5 18q-32 0 -51 -23.5
t-19 -66.5v-90q0 -18 -2 -38.5t-4 -32.5h5q24 33 62.5 55.5t99.5 22.5q98 0 158 -67.5t60 -190.5q0 -128 -67 -197t-177 -69zM312 77q70 0 102.5 48.5t32.5 128.5q0 74 -33 123t-98 49q-54 0 -85 -21.5t-44 -59.5t-13 -88v-18q0 -70 31.5 -116t106.5 -46z" />
    <glyph glyph-name="uni10ED" unicode="&#x10ed;" horiz-adv-x="597" 
d="M305 -250q-71 0 -124.5 29.5t-83 81t-29.5 118.5q0 28 5.5 54t13.5 45h100q-5 -18 -9 -43.5t-4 -46.5q0 -41 14 -75t43.5 -55t73.5 -21q48 0 76.5 22.5t41.5 58t13 74.5q0 44 -11 76t-28 61q-19 33 -35 69t-24 78h-3q-24 -30 -57 -44t-76 -14q-36 0 -71.5 18t-59.5 53.5
t-24 88.5t24 89t64 54t88 18h96v221h104v-221h119v-87h-119v-88q0 -59 20.5 -103t47.5 -88q22 -36 38 -81t16 -101q0 -70 -28.5 -124.5t-82 -85.5t-129.5 -31zM233 301q44 0 65 26.5t21 62.5v63h-84q-43 0 -64 -20.5t-21 -54.5q0 -36 23 -56.5t60 -20.5z" />
    <glyph glyph-name="uni10EE" unicode="&#x10ee;" 
d="M312 -10q-117 0 -179 70.5t-62 207.5v492h106v-202q0 -19 -2.5 -46.5t-4.5 -41.5h6q24 33 62.5 56t99.5 23q98 0 158 -71t60 -210q0 -137 -67 -207.5t-177 -70.5zM312 77q70 0 102.5 50t32.5 139q0 91 -33 143t-98 52q-82 0 -112.5 -50t-30.5 -143v-16q0 -80 32 -127.5
t107 -47.5z" />
    <glyph glyph-name="uni10EF" unicode="&#x10ef;" horiz-adv-x="572" 
d="M338 318q0 -48 28.5 -85t64.5 -75q36 -37 65 -83t29 -111q0 -66 -30 -114t-84 -74t-127 -26q-71 0 -124.5 27t-83 74t-29.5 108q0 29 4.5 50t11.5 39h101q-11 -35 -11 -79q0 -54 32.5 -93t98.5 -39q58 0 95.5 33t37.5 88q0 52 -25 89t-58 71q-24 26 -47.5 55.5t-38.5 64
t-15 77.5v35l-176 31v86l176 -31v112h106v-131l176 -31v-86l-177 31v-13z" />
    <glyph glyph-name="uni10F0" unicode="&#x10f0;" horiz-adv-x="573" 
d="M281 -10q-75 0 -128 26t-80.5 68t-27.5 90q0 21 6 43h101q-2 -14 -2 -27q0 -46 30 -79.5t102 -33.5q68 0 98.5 25t30.5 60q0 36 -26 62t-95 26h-51v85h70q45 0 68.5 13.5t23.5 47.5q0 60 -101 60h-61v85h70q43 0 58 14.5t15 31.5q0 22 -19 34t-49 22q-25 9 -49 22
t-39.5 35.5t-15.5 59.5h106q3 -21 25 -33.5t53 -24.5q24 -10 46.5 -22.5t37 -33.5t14.5 -53q0 -33 -28 -56.5t-74 -32.5v-4q24 -2 52.5 -13.5t48.5 -34t20 -56.5q0 -39 -18.5 -61t-46.5 -32.5t-56 -14.5v-3q58 -11 94.5 -41.5t36.5 -87.5q0 -49 -31.5 -86.5t-85.5 -58.5
t-123 -21z" />
    <glyph glyph-name="uni10F1" unicode="&#x10f1;" horiz-adv-x="678" 
d="M375 -10q-169 0 -246 105t-77 304q0 95 24 191t65 170h106q-40 -75 -64 -170t-24 -189q0 -103 21 -175.5t68.5 -110.5t126.5 -38q65 0 103.5 23t38.5 62q0 37 -26 62.5t-93 25.5h-53v85h72q43 0 66.5 13.5t23.5 47.5q0 59 -99 59h-63v86h69q43 0 58 17.5t15 34.5
q0 24 -13 37t-31 23q-16 10 -33 22.5t-28.5 32.5t-11.5 52h107q0 -22 15.5 -35t35.5 -24q26 -15 47.5 -38t21.5 -68q0 -38 -28 -60t-74 -31v-4q25 -2 53 -13.5t48 -34t20 -56.5q0 -39 -18.5 -61t-46 -32.5t-55.5 -14.5v-3q57 -10 93.5 -40.5t36.5 -88.5q0 -48 -31.5 -85.5
t-88 -59t-131.5 -21.5z" />
    <glyph glyph-name="uni10F2" unicode="&#x10f2;" horiz-adv-x="592" 
d="M62 0v84q37 0 70 3.5t75 10.5v3q-77 35 -116 98.5t-39 129.5q0 56 27 106.5t81.5 82t135.5 31.5t135 -31.5t81.5 -82t27.5 -106.5q0 -66 -39 -129.5t-117 -98.5v-3q43 -7 75.5 -10.5t70.5 -3.5v-84q-71 0 -128 12t-106 37q-50 -25 -106.5 -37t-127.5 -12zM296 129
q61 30 98 78t37 120q0 56 -34.5 96.5t-100.5 40.5t-101 -40.5t-35 -96.5q0 -72 37.5 -120t98.5 -78z" />
    <glyph glyph-name="uni10F3" unicode="&#x10f3;" horiz-adv-x="587" 
d="M294 -250q-76 0 -131.5 28.5t-85.5 78t-30 111.5q0 28 5.5 52.5t11.5 42.5h102q-5 -16 -9 -40t-4 -44q0 -37 15 -69.5t46 -52.5t80 -20q70 0 103.5 45t33.5 110q0 79 -41.5 120t-109.5 41h-64v72l172 226h-297v88h422v-73l-180 -233q50 -5 98 -32.5t78.5 -79.5t30.5 -131
q0 -73 -30.5 -127t-85.5 -83.5t-130 -29.5z" />
    <glyph glyph-name="uni10F4" unicode="&#x10f4;" horiz-adv-x="577" 
d="M285 -250q-69 0 -123 23.5t-84.5 69t-30.5 112.5q0 23 4.5 43t9.5 34h101q-4 -14 -6.5 -33t-2.5 -40q0 -59 34.5 -90.5t97.5 -31.5q47 0 77 21t44.5 55.5t14.5 74.5q0 41 -16 75t-48.5 54.5t-83.5 20.5h-44v87h53q58 0 83.5 26.5t25.5 71.5q0 43 -30.5 67t-74.5 44
q-40 18 -78 40.5t-62.5 56.5t-24.5 87q0 71 48.5 111.5t130.5 40.5q81 0 150 -40l-35 -81q-60 34 -112 34q-79 0 -79 -62q0 -42 33.5 -64t81.5 -44q38 -17 75.5 -38.5t62 -55t24.5 -87.5q0 -67 -37 -101.5t-94 -47.5v-4q38 -7 74.5 -30.5t61 -65.5t24.5 -105
q0 -68 -30 -119.5t-85 -80t-130 -28.5z" />
    <glyph glyph-name="uni10F5" unicode="&#x10f5;" horiz-adv-x="660" 
d="M284 -10q-111 0 -171.5 47t-60.5 132q0 81 58.5 126t164.5 45h139v97h-155q-94 0 -144.5 42t-50.5 121t59 124.5t167 45.5q111 0 169 -52.5t58 -151.5v-43h109v-86h-109v-97h109v-86h-109v-47q0 -107 -59 -162t-174 -55zM268 523h146v43q0 119 -125 119
q-58 0 -88.5 -21.5t-30.5 -62.5q0 -78 98 -78zM288 75q65 0 95.5 34t30.5 101v44h-142q-54 0 -83.5 -22t-29.5 -64q0 -43 33.5 -68t95.5 -25z" />
    <glyph glyph-name="uni10F6" unicode="&#x10f6;" horiz-adv-x="927" 
d="M375 -250q-49 0 -75 16v81q9 -4 23.5 -7.5t28.5 -3.5q29 0 44 17t15 69v65q0 18 2 43t4 39h-5q-27 -39 -64.5 -59t-88.5 -20q-97 0 -152 73.5t-55 206.5q0 134 54.5 206.5t150.5 72.5q53 0 90.5 -21.5t63.5 -60.5h4q-2 18 -3 37t-1 43v53q0 66 18.5 103t51 52t72.5 15
q24 0 44.5 -5t30.5 -12v-80q-7 4 -22.5 7.5t-30.5 3.5q-28 0 -43.5 -17t-15.5 -69v-51q0 -24 -1 -43t-3 -37h4q26 39 64 60.5t90 21.5q96 0 150.5 -72.5t54.5 -206.5q0 -133 -55 -206.5t-152 -73.5q-51 0 -88.5 20t-63.5 59h-6q2 -14 4 -39t2 -43v-66q0 -94 -39 -132.5
t-102 -38.5zM283 79q69 0 100 45t31 146v17q0 92 -31.5 133t-98.5 41q-60 0 -91.5 -47.5t-31.5 -141.5q0 -93 32 -143t90 -50zM645 79q57 0 89 50t32 143q0 94 -31.5 141.5t-91.5 47.5q-67 0 -98.5 -41t-31.5 -133v-17q0 -101 31.5 -146t100.5 -45z" />
    <glyph glyph-name="uni10F7" unicode="&#x10f7;" horiz-adv-x="562" 
d="M279 -250q-106 0 -169 57.5t-63 154.5q0 73 28 122t75.5 83t106.5 62q49 24 78.5 44t42 43t12.5 55q0 42 -26.5 66t-81.5 24q-58 0 -84.5 -24t-26.5 -70q0 -11 3 -24h-104q-4 16 -4 31q0 80 56.5 127.5t158.5 47.5q105 0 161 -48.5t56 -130.5q0 -53 -21.5 -92t-65.5 -71
t-111 -64q-43 -21 -75 -44t-50.5 -56t-18.5 -83q0 -56 34 -89t89 -33q56 0 92 30.5t36 93.5q0 21 -3 39t-7 29h108q10 -30 10 -73q0 -105 -65.5 -156t-170.5 -51z" />
    <glyph glyph-name="uni10F8" unicode="&#x10f8;" horiz-adv-x="601" 
d="M308 -250q-113 0 -175 67.5t-62 190.5v531h105v-161q0 -152 144 -152q57 0 88.5 36t31.5 109q0 53 -10 91t-25 77h105q16 -35 27.5 -78t11.5 -93q0 -115 -55 -172.5t-154 -57.5q-53 0 -95.5 21.5t-67.5 61.5h-6q2 -22 3.5 -44t1.5 -46v-121q0 -79 30.5 -126t101.5 -47
q67 0 99 39t32 93q0 45 -10 79h100q8 -18 12 -39t4 -50q0 -61 -29 -108t-82 -74t-126 -27z" />
    <glyph glyph-name="uni10F9" unicode="&#x10f9;" horiz-adv-x="610" 
d="M307 549q72 0 129 -32.5t89.5 -93t32.5 -145.5q0 -123 -63 -188.5t-170 -81.5q-57 -7 -81.5 -32t-24.5 -63q0 -36 23 -59t65 -23q43 0 65 22t22 58q0 8 -1 16t-3 16h101q7 -23 7 -47q0 -65 -52 -105.5t-139 -40.5q-57 0 -100.5 20t-67.5 54.5t-24 78.5q0 45 22.5 79.5
t73.5 51.5v3q-83 25 -121 91t-38 150q0 127 68.5 199t186.5 72zM305 462q-75 0 -109.5 -50.5t-34.5 -133.5q0 -82 34.5 -131t110.5 -49q75 0 109 49t34 131q0 83 -34.5 133.5t-109.5 50.5z" />
    <glyph glyph-name="uni10FA" unicode="&#x10fa;" horiz-adv-x="492" 
d="M110 -112v95l92 35v3q-67 21 -108.5 84t-41.5 164q0 98 34 160t92 91t132 29q42 0 82 -9t67 -22l-33 -86q-25 10 -56.5 18.5t-60.5 8.5q-147 0 -147 -191q0 -93 36.5 -140.5t106.5 -47.5q43 0 78 9.5t65 24.5v-100z" />
    <glyph glyph-name="uni10FB" unicode="&#x10fb;" horiz-adv-x="545" 
d="M137 407q-34 0 -51.5 19t-17.5 53q0 73 69 73q33 0 50.5 -19t17.5 -54q0 -34 -18.5 -53t-49.5 -19zM418 197q-32 0 -50.5 18.5t-18.5 53.5q0 73 69 73t69 -73q0 -34 -18.5 -53t-50.5 -19zM137 -14q-34 0 -51.5 19t-17.5 54q0 72 69 72q32 0 50 -18.5t18 -53.5
q0 -34 -18.5 -53.5t-49.5 -19.5z" />
    <glyph glyph-name="uni10FC" unicode="&#x10fc;" horiz-adv-x="357" 
d="M181 408q-69 0 -105.5 41.5t-36.5 117.5v163q0 42 16.5 67.5t43 36.5t56.5 11h145v-65h-135q-41 0 -41 -39v-13q0 -10 -1 -24.5t-4 -25.5h3q12 21 33.5 33t54.5 12q52 0 85 -38.5t33 -115.5t-39 -119t-108 -42zM181 475q33 0 47 25t14 67q0 44 -16.5 66.5t-43.5 22.5
q-36 0 -50.5 -22t-14.5 -61v-13q0 -40 16 -62.5t48 -22.5z" />
    <glyph glyph-name="uni10FD" unicode="&#x10fd;" horiz-adv-x="562" 
d="M283 -10q-105 0 -170.5 51t-65.5 156q0 43 10 73h109q-5 -11 -8 -29t-3 -39q0 -63 36 -93.5t92 -30.5q55 0 89 33t34 89q0 49 -18 78t-50.5 48.5t-74.5 40.5q-67 33 -111 64.5t-65.5 69t-21.5 90.5q0 82 56 130.5t160 48.5q103 0 159 -47.5t56 -126.5q0 -16 -3 -32h-105
q3 13 3 24q0 46 -26 70t-85 24q-54 0 -81 -24t-27 -66q0 -32 13 -54.5t42 -41.5t78 -43q60 -29 107.5 -59t75 -75t27.5 -117q0 -97 -63 -154.5t-169 -57.5z" />
    <glyph glyph-name="uni10FE" unicode="&#x10fe;" horiz-adv-x="592" 
d="M62 539q71 0 127.5 -12t106.5 -37q49 25 106 37t128 12v-84q-38 0 -70.5 -3.5t-75.5 -10.5v-3q78 -36 117 -99t39 -129q0 -56 -27.5 -106.5t-81.5 -82t-135 -31.5t-135.5 31.5t-81.5 82t-27 106.5q0 66 39 129t116 99v3q-42 7 -75 10.5t-70 3.5v84zM296 409
q-61 -29 -98.5 -77t-37.5 -120q0 -56 35 -96.5t101 -40.5t100.5 40.5t34.5 96.5q0 72 -37 120t-98 77z" />
    <glyph glyph-name="uni10FF" unicode="&#x10ff;" horiz-adv-x="610" 
d="M558 270q0 -134 -69 -207t-186 -73q-73 0 -129.5 33t-89 95.5t-32.5 151.5q0 134 68 206.5t186 72.5q74 0 130.5 -32.5t89 -94.5t32.5 -152zM161 270q0 -91 34.5 -142t109.5 -51t109.5 51t34.5 142q0 92 -35 141.5t-110 49.5t-109 -49.5t-34 -141.5z" />
    <glyph glyph-name="uni1C90" unicode="&#x1c90;" 
d="M300 -9q-75 0 -130.5 28.5t-86.5 81t-31 122.5q0 29 3 58t19 71h-47l55 19q-4 -10 -8 -19h110q-13 -38 -16.5 -68.5t-3.5 -52.5q0 -64 34 -106t102 -42q72 0 104 45t32 114q0 71 -26.5 122.5t-60.5 93.5q-30 38 -55 75.5t-38.5 81t-6.5 99.5h109q-4 -42 8 -76t33.5 -65.5
t45.5 -63.5q26 -34 50 -72t39.5 -86t15.5 -111q0 -75 -30 -131t-86 -87t-134 -31zM191 370l40 -18h-47q3 9 7 18z" />
    <glyph glyph-name="uni1C91" unicode="&#x1c91;" horiz-adv-x="630" 
d="M313 -9q-68 0 -126.5 31t-93.5 90t-35 144q0 77 28.5 132.5t79 88t115.5 39.5q8 15 8 34q0 21 -13 34t-28 24q-21 14 -40 40t-13 66h106q-1 -21 11 -34.5t29 -25.5q22 -16 38.5 -37t16.5 -51t-14 -56q54 -12 97 -45.5t68 -86t25 -122.5q0 -85 -34 -144t-92.5 -90
t-132.5 -31zM315 83q65 0 104 46.5t39 126.5t-39 125t-105 45q-64 0 -103 -45.5t-39 -124.5q0 -80 39 -126.5t104 -46.5z" />
    <glyph glyph-name="uni1C92" unicode="&#x1c92;" horiz-adv-x="618" 
d="M307 -9q-68 0 -126.5 30.5t-93.5 86.5t-35 135q0 78 31 131t85 82t124 36q57 5 82.5 24.5t25.5 54.5q0 31 -25 50t-66 19q-43 0 -67.5 -20.5t-24.5 -54.5q0 -11 3 -26h-108q-5 23 -5 41q0 43 26 75.5t72 50.5t104 18q60 0 105 -18.5t70.5 -52.5t25.5 -78q0 -39 -20 -70
t-65 -47v-3q59 -18 100 -71t41 -141q0 -79 -34 -135t-92.5 -86.5t-132.5 -30.5zM309 83q64 0 103.5 45t39.5 115q0 76 -39.5 117.5t-104.5 41.5q-64 0 -103 -42t-39 -117q0 -70 39 -115t104 -45z" />
    <glyph glyph-name="uni1C93" unicode="&#x1c93;" horiz-adv-x="933" 
d="M573 0q-6 34 -39 56t-79 33.5t-93 11.5q-45 0 -88 -9.5t-77 -27.5l-38 73q20 11 46.5 20.5t64.5 11.5v3q-99 37 -155.5 116.5t-56.5 188.5q0 70 24 126t71.5 88.5t118.5 32.5q64 0 108.5 -26.5t63.5 -76.5h5q20 49 70.5 76t112.5 27q74 0 128.5 -30t84.5 -85t30 -129
t-32 -128.5t-86.5 -84t-124.5 -29.5q-75 0 -129.5 29.5t-84.5 83t-30 126.5v30q0 61 -29 94t-79 33q-53 0 -81.5 -43t-28.5 -114t24 -120t64 -81.5t90.5 -53t102.5 -35.5q56 -15 105.5 -36t82.5 -56.5t39 -94.5h-105zM630 327q67 0 99 43.5t32 109.5q0 67 -31.5 110
t-98.5 43t-98 -43t-31 -110q0 -66 31 -109.5t97 -43.5z" />
    <glyph glyph-name="uni1C94" unicode="&#x1c94;" horiz-adv-x="624" 
d="M300 -9q-75 0 -130.5 27.5t-86.5 77.5t-31 115q0 25 3.5 47t9.5 40h108q-4 -16 -6.5 -37.5t-2.5 -39.5q0 -59 34 -98.5t102 -39.5q74 0 106 40.5t32 108.5v276q0 58 -33 91t-89 33q-55 0 -89 -27.5t-34 -82.5q0 -16 1.5 -33t4.5 -34h-108q-4 14 -7 33.5t-3 39.5
q0 65 31 108.5t84 65.5t119 22q68 0 120 -25.5t81.5 -73t29.5 -114.5v-283q0 -112 -64.5 -174.5t-181.5 -62.5z" />
    <glyph glyph-name="uni1C95" unicode="&#x1c95;" horiz-adv-x="617" 
d="M309 -10q-79 0 -137 27.5t-89 74.5t-31 108q0 37 12 76h108q-8 -35 -8 -64q0 -62 37 -97t109 -35t106.5 39t34.5 95t-37 89.5t-104 33.5h-47v90h53q61 0 89 32t28 76q0 43 -31.5 71t-86.5 28q-58 0 -89.5 -26.5t-31.5 -70.5q0 -24 5 -50h-109q-4 16 -6 30t-2 29
q0 52 29.5 92t82.5 63t121 23q69 0 121 -24t81 -65.5t29 -94.5q0 -62 -33.5 -102t-90.5 -53v-3q37 -6 69.5 -27t53 -58t20.5 -89q0 -65 -31 -114t-88.5 -76.5t-136.5 -27.5z" />
    <glyph glyph-name="uni1C96" unicode="&#x1c96;" horiz-adv-x="659" 
d="M347 -10q-73 0 -130 30.5t-89.5 86.5t-32.5 132q0 51 14 93t44 71v4q-56 14 -89.5 55t-33.5 99q0 41 21.5 78.5t63 61t101.5 23.5q59 0 101 -21.5t64 -56.5t22 -74q0 -47 -24 -79v-3q6 0 16 -2q61 -6 107.5 -37.5t72.5 -83.5t26 -120q0 -81 -31.5 -138t-88.5 -88
t-134 -31zM216 470q40 0 61 24t21 61q0 34 -20 59t-62 25t-61.5 -25t-19.5 -59q0 -33 19.5 -59t61.5 -26zM349 82q73 0 106 45t33 120q0 73 -33 117.5t-107 44.5q-73 0 -105.5 -44.5t-32.5 -117.5q0 -74 32.5 -119.5t106.5 -45.5z" />
    <glyph glyph-name="uni1C97" unicode="&#x1c97;" horiz-adv-x="974" 
d="M688 724q60 0 111 -31.5t81.5 -101t30.5 -183.5q0 -89 -9.5 -158.5t-27 -129.5t-41.5 -120h-112q23 62 40.5 123.5t27 130t9.5 151.5q0 84 -16 133.5t-43 71.5t-62 22q-53 0 -80.5 -37t-27.5 -96q0 -38 3.5 -73.5t3.5 -70.5q0 -365 -257 -365q-130 0 -193.5 92.5
t-63.5 274.5q0 367 256 367q66 0 115 -26t75 -83h3q23 59 73.5 84t103.5 25zM319 82q76 0 109.5 67t33.5 208q0 143 -34 209t-109 66q-76 0 -109.5 -67t-33.5 -208q0 -143 34 -209t109 -66z" />
    <glyph glyph-name="uni1C98" unicode="&#x1c98;" horiz-adv-x="638" 
d="M123 0q-18 50 -31.5 106t-21.5 125.5t-8 160.5q0 119 34.5 192t92.5 106.5t130 33.5t130 -33.5t92.5 -106.5t34.5 -192q0 -91 -8 -160.5t-21.5 -125.5t-31.5 -106h-110q18 52 30.5 108t19.5 124t7 157t-17.5 142.5t-50 77t-75.5 23.5t-75.5 -23.5t-50 -77t-17.5 -142.5
t7 -157t19.5 -124t31.5 -108h-111z" />
    <glyph glyph-name="uni1C99" unicode="&#x1c99;" horiz-adv-x="601" 
d="M294 -10q-74 0 -130 27.5t-86.5 74.5t-30.5 108q0 37 12 76h108q-8 -35 -8 -64q0 -62 35.5 -97t99.5 -35q73 0 108 39t35 98q0 61 -34.5 100.5t-104.5 39.5h-41v89h46q44 0 69 14.5t36 36t11 45.5q0 39 -25.5 66.5t-77.5 27.5v89q65 0 113 -22.5t74 -60.5t26 -84
q0 -60 -32 -99t-84 -53v-3q34 -7 65.5 -30t51 -63.5t19.5 -99.5q0 -66 -31 -115.5t-88.5 -77t-135.5 -27.5z" />
    <glyph glyph-name="uni1C9A" unicode="&#x1c9a;" horiz-adv-x="1157" 
d="M720 0q-4 33 -30 57.5t-65.5 41t-85.5 25t-90 8.5q-70 0 -123 -15.5t-96 -37.5l-42 73q26 15 56.5 26t65.5 14v3q-114 26 -183 97.5t-69 197.5q0 68 24 121t70.5 83t115.5 30q59 0 98 -27.5t56 -75.5h5q36 103 151 103q59 0 97 -27.5t54 -75.5h5q18 48 56.5 75.5
t96.5 27.5q69 0 116 -32t71.5 -88.5t24.5 -130.5q0 -60 -13.5 -113t-41.5 -105l-100 34q24 50 33.5 94.5t9.5 94.5q0 75 -29 114.5t-80 39.5q-45 0 -69 -38t-24 -96v-117h-106v122q0 54 -24.5 91.5t-76.5 37.5q-49 0 -74.5 -35.5t-25.5 -93.5v-122h-106v117q0 54 -22 94
t-71 40q-51 0 -80 -35.5t-29 -110.5q0 -87 40.5 -140t113 -82t169.5 -40q83 -10 155.5 -35.5t120.5 -71.5t58 -117h-107z" />
    <glyph glyph-name="uni1C9B" unicode="&#x1c9b;" horiz-adv-x="637" 
d="M313 -10q-116 0 -185.5 66.5t-69.5 192.5q0 122 62.5 187t164.5 65q61 0 101 -21t64 -52h6q-2 12 -4 31t-2 36v40q0 45 -33 73.5t-98 28.5q-51 0 -87.5 -22t-36.5 -62v-9h-108q-1 8 -1 12v9q0 49 32.5 84.5t86 55t114.5 19.5q74 0 128 -25t83 -70t29 -104v-276
q0 -126 -64 -192.5t-182 -66.5zM313 80q75 0 107.5 43t32.5 111v16q0 43 -11.5 80t-42.5 59t-90 22q-67 0 -102.5 -45.5t-35.5 -118.5q0 -77 34.5 -122t107.5 -45z" />
    <glyph glyph-name="uni1C9C" unicode="&#x1c9c;" horiz-adv-x="637" 
d="M324 -10q-119 0 -182.5 66.5t-63.5 194.5v272q0 69 26 111t69 61t95 19h260v-92h-247q-44 0 -69 -21t-25 -71v-35q0 -17 -2.5 -35.5t-4.5 -30.5h6q25 32 65.5 54t100.5 22q102 0 164.5 -67t62.5 -188q0 -126 -69.5 -193t-185.5 -67zM325 80q73 0 107 46t34 122
q0 74 -35 120t-102 46q-54 0 -85.5 -22t-45.5 -59.5t-14 -82.5v-15q0 -69 33 -112t108 -43z" />
    <glyph glyph-name="uni1C9D" unicode="&#x1c9d;" horiz-adv-x="908" 
d="M141 0q-24 60 -42 121t-27.5 131t-9.5 156q0 115 32.5 184.5t84 100.5t109.5 31q31 0 63.5 -9.5t59.5 -33t42 -64.5h3q14 41 40.5 64.5t58.5 33t64 9.5q59 0 110.5 -31.5t83.5 -101t32 -183.5q0 -89 -9.5 -158.5t-27.5 -129.5t-41 -120h-113q24 62 41.5 124t26.5 130.5
t9 150.5q0 84 -16.5 134t-43.5 71.5t-60 21.5q-47 0 -73.5 -40t-26.5 -120v-262h-114v262q0 83 -27.5 121.5t-74.5 38.5q-31 0 -58 -21.5t-44 -71t-17 -134.5q0 -121 20.5 -216t56.5 -189h-112z" />
    <glyph glyph-name="uni1C9E" unicode="&#x1c9e;" horiz-adv-x="613" 
d="M303 -10q-76 0 -132.5 27.5t-87.5 74.5t-31 108q0 37 12 76h108q-8 -35 -8 -64q0 -62 36 -97t103 -35q70 0 104 39.5t34 95.5q0 57 -38.5 93.5t-114.5 36.5h-46v89h64q59 0 85 18.5t26 47.5q0 36 -24.5 52t-53.5 29q-28 12 -52.5 28.5t-39 41.5t-11.5 63h111
q1 -23 24.5 -39.5t57.5 -31.5q25 -11 48.5 -28t38.5 -43t15 -64q0 -49 -32 -76.5t-81 -39.5v-3q32 -7 64 -29.5t52.5 -61t20.5 -94.5q0 -62 -31 -110.5t-87.5 -76t-133.5 -27.5z" />
    <glyph glyph-name="uni1C9F" unicode="&#x1c9f;" horiz-adv-x="658" 
d="M329 -10q-74 0 -130 27.5t-86.5 74.5t-30.5 108q0 37 12 76h108q-8 -35 -8 -64q0 -62 35.5 -97t99.5 -35q74 0 105.5 41t31.5 108v396q-38 -14 -77 -22t-76 -13v-1q25 -12 40.5 -37t15.5 -59q0 -37 -21 -67.5t-58 -48t-85 -17.5q-46 0 -81.5 17t-55.5 45.5t-20 63.5
q0 8 1 17t3 16h89q-1 -5 -1 -9.5v-9.5q0 -26 17.5 -42.5t47.5 -16.5q32 0 51 18t19 45q0 32 -18.5 50.5t-58.5 19.5v79q75 8 149 22t132 39h96v-486q0 -111 -63.5 -174.5t-182.5 -63.5z" />
    <glyph glyph-name="uni1CA0" unicode="&#x1ca0;" horiz-adv-x="858" 
d="M110 0q-20 51 -31.5 95t-16 91t-4.5 108q0 174 67 270.5t218 124.5q55 10 114.5 18.5t123.5 16.5l16 -94q-69 -8 -133 -16.5t-106 -15.5q-41 -8 -81 -22.5t-72 -42.5t-49 -75h3q27 33 59.5 43.5t64.5 10.5q53 0 90.5 -26t53.5 -74h4q16 48 57.5 74t102.5 26
q70 0 116.5 -32.5t70 -89.5t23.5 -131q0 -72 -14.5 -132.5t-40.5 -126.5h-112q26 66 40 126.5t14 132.5q0 76 -26 120.5t-83 44.5q-45 0 -71.5 -34t-26.5 -96v-136h-106v136q0 64 -25.5 97t-73.5 33q-107 0 -107 -167q0 -71 14 -132t39 -125h-112z" />
    <glyph glyph-name="uni1CA1" unicode="&#x1ca1;" horiz-adv-x="638" 
d="M328 -10q-122 0 -186 66.5t-64 190.5v467h108v-476q0 -71 34.5 -113.5t107.5 -42.5q70 0 104 40t34 95q0 43 -15 71.5t-34 53.5q-25 33 -44 72t-15 94h112q-1 -41 16 -70.5t40 -60.5q22 -30 38 -67t16 -92q0 -68 -31 -119.5t-88 -80t-133 -28.5z" />
    <glyph glyph-name="uni1CA2" unicode="&#x1ca2;" horiz-adv-x="814" 
d="M407 -10q-112 0 -190 44.5t-118.5 125t-40.5 189.5q0 149 77 241t219 108q-2 10 -2.5 20.5t-0.5 19.5v14h112v-14q0 -9 -0.5 -19.5t-2.5 -19.5q141 -16 218.5 -108t77.5 -243q0 -103 -40.5 -184t-118.5 -127.5t-190 -46.5zM406 83q114 0 174.5 70t60.5 196
q0 232 -185 262q2 -13 3.5 -34.5t1.5 -47.5v-188h-109v188q0 26 1.5 45t3.5 35q-93 -14 -139 -81t-46 -179q0 -125 61 -195.5t173 -70.5z" />
    <glyph glyph-name="uni1CA3" unicode="&#x1ca3;" horiz-adv-x="632" 
d="M308 -9q-75 0 -130.5 27.5t-86.5 77.5t-31 115q0 26 3.5 47.5t9.5 39.5h108q-4 -15 -6.5 -36.5t-2.5 -40.5q0 -59 34 -98.5t102 -39.5q74 0 106 41t32 108v312q0 92 -77 92q-36 0 -56.5 -23t-20.5 -68v-109h-106v110q0 41 -20 61.5t-57 20.5h-66v92h65q43 0 78.5 -17
t53.5 -64h3q18 44 54.5 65t85.5 21q82 0 126.5 -47t44.5 -122v-328q0 -113 -64 -175t-182 -62z" />
    <glyph glyph-name="uni1CA4" unicode="&#x1ca4;" horiz-adv-x="923" 
d="M557 -9q-88 0 -153.5 20.5t-102 58.5t-36.5 92q0 19 4 37h107q-2 -12 -2 -22q0 -50 50.5 -74t134.5 -24q87 0 130 36t43 85q0 40 -27.5 70.5t-89.5 30.5h-21v87h41q51 0 84.5 35.5t33.5 92.5q0 53 -25 85.5t-76 32.5q-49 0 -78 -31.5t-29 -89.5v-31q0 -68 -30 -120
t-84.5 -81t-129.5 -29q-70 0 -125 29t-86.5 81.5t-31.5 122.5q0 72 30 125.5t84.5 83.5t127.5 30q62 0 112.5 -26.5t71.5 -75.5h5q18 50 63 76t109 26q65 0 111 -27t70 -70.5t24 -94.5q0 -83 -37.5 -126.5t-90.5 -57.5v-4q53 -13 80.5 -52t27.5 -96q0 -58 -34.5 -104.5
t-99 -73.5t-155.5 -27zM303 341q66 0 97 42.5t31 101.5q0 63 -31 105.5t-98 42.5q-68 0 -99.5 -42.5t-31.5 -105.5q0 -60 32 -102t100 -42z" />
    <glyph glyph-name="uni1CA5" unicode="&#x1ca5;" horiz-adv-x="621" 
d="M300 -10q-75 0 -131 27.5t-86.5 74.5t-30.5 108q0 37 12 76h108q-8 -35 -8 -64q0 -62 35.5 -97t100.5 -35q73 0 104.5 43t31.5 113v124q0 45 -11.5 83t-40 61.5t-78.5 23.5q-49 0 -81 -27t-32 -76q0 -22 3 -41h-110q-2 10 -3.5 22.5t-1.5 26.5q0 59 28.5 100t74 62.5
t96.5 21.5q56 0 95 -20.5t62 -49.5h4q-2 12 -4 36t-2 44v87h108v-480q0 -116 -62.5 -180t-180.5 -64z" />
    <glyph glyph-name="uni1CA6" unicode="&#x1ca6;" horiz-adv-x="860" 
d="M532 0q-7 40 -35.5 65.5t-70 37.5t-87.5 12q-93 0 -161 -37l-39 73q20 11 47 20.5t66 11.5v3q-93 36 -143.5 108.5t-50.5 177.5q0 73 24 129.5t71.5 88.5t117.5 32q61 0 100 -25t56 -69h5q19 47 58.5 70.5t95.5 23.5q71 0 119 -32t72.5 -88.5t24.5 -129.5
q0 -118 -59 -221l-96 36q24 45 33.5 89t9.5 95q0 74 -29 118t-86 44q-45 0 -68.5 -30t-23.5 -85v-141h-106v141q0 51 -22.5 83t-70.5 32q-55 0 -84.5 -39.5t-29.5 -119.5q0 -71 21.5 -117t58 -75t83.5 -47.5t99 -33.5q51 -14 95.5 -40t74 -65.5t34.5 -95.5h-104z" />
    <glyph glyph-name="uni1CA7" unicode="&#x1ca7;" horiz-adv-x="629" 
d="M306 -10q-75 0 -131 27.5t-86.5 74.5t-30.5 108q0 38 12 76h108q-8 -35 -8 -64q0 -62 35.5 -97t100.5 -35q74 0 105.5 42.5t31.5 111.5v96q0 18 1 39t3 41h-3q-26 -35 -71 -56t-101 -21q-98 0 -155.5 58t-57.5 166q0 46 9.5 85.5t25.5 71.5h111q-15 -35 -24 -70t-9 -84
q0 -63 33 -99.5t90 -36.5q72 0 110 39.5t38 113.5v137h108v-482q0 -115 -63.5 -178.5t-181.5 -63.5z" />
    <glyph glyph-name="uni1CA8" unicode="&#x1ca8;" horiz-adv-x="640" 
d="M316 -10q-116 0 -186 66.5t-70 192.5q0 121 62.5 185.5t164.5 64.5q61 0 101.5 -21t64.5 -52h6q-2 12 -4 31t-2 37v68q0 37 -21 57.5t-55 20.5q-31 0 -50 -18.5t-19 -49.5v-31h-107v27q0 33 -21 50.5t-48 17.5q-19 0 -35 -4t-30 -9l-30 80q46 21 100 21q34 0 67 -16.5
t50 -56.5h4q19 41 57 57t78 16q45 0 83.5 -18t62 -54.5t23.5 -92.5v-310q0 -126 -64 -192.5t-182 -66.5zM316 80q75 0 108 43t33 111v14q0 43 -12 80t-43 59.5t-90 22.5q-67 0 -102.5 -45.5t-35.5 -117.5q0 -77 34.5 -122t107.5 -45z" />
    <glyph glyph-name="uni1CA9" unicode="&#x1ca9;" horiz-adv-x="624" 
d="M78 0v530q0 88 53.5 141t151.5 53q86 0 140.5 -38.5t54.5 -105.5q0 -31 -13 -58t-47 -47v-3q73 -19 110.5 -78.5t37.5 -147.5q0 -46 -6 -92.5t-16 -86.5t-21 -67h-110q18 40 29 105.5t11 138.5q0 72 -33 116.5t-93 44.5q-65 0 -103 -42t-38 -121v-242h-108zM180 411h6
q29 43 91 69q39 17 65.5 36.5t26.5 54.5q0 32 -24 49.5t-64 17.5q-43 0 -69 -26t-26 -71v-67q0 -28 -6 -63z" />
    <glyph glyph-name="uni1CAA" unicode="&#x1caa;" horiz-adv-x="708" 
d="M372 -9q-158 0 -236 96t-78 284q0 97 23 185.5t57 157.5h110q-34 -72 -55 -158t-21 -184q0 -140 46 -214.5t156 -74.5q82 0 125.5 34.5t43.5 102.5q0 52 -38 90t-118 38h-42v91h66q59 0 89 18.5t30 50.5q0 25 -16 43t-36 34q-17 14 -33.5 30.5t-26.5 40t-9 58.5h111
q0 -26 16 -43t36 -33q25 -20 47.5 -48t22.5 -72q0 -55 -32.5 -84t-88.5 -39v-3q57 -10 96.5 -54t39.5 -130q0 -65 -35 -114t-99 -76t-151 -27z" />
    <glyph glyph-name="uni1CAB" unicode="&#x1cab;" horiz-adv-x="638" 
d="M312 -10q-75 0 -132 30t-89.5 89t-32.5 145q0 87 29 145.5t80 88.5t117 30q60 0 102 -22t67 -53h6q-2 14 -4.5 42t-2.5 46v183h108v-462q0 -128 -65.5 -195t-182.5 -67zM312 82q74 0 109 43.5t35 112.5v16q0 44 -11.5 83t-43.5 63.5t-94 24.5q-64 0 -100 -46t-36 -128
q0 -77 35.5 -123t105.5 -46z" />
    <glyph glyph-name="uni1CAC" unicode="&#x1cac;" horiz-adv-x="640" 
d="M324 -10q-119 0 -182.5 66.5t-63.5 192.5v310q0 56 23.5 92.5t62 54.5t82.5 18q41 0 78.5 -16t57.5 -57h3q18 41 51 57t66 16q55 0 101 -21l-30 -80q-15 5 -31 9t-34 4q-28 0 -49 -17.5t-21 -50.5v-27h-107v31q0 31 -19 49.5t-50 18.5q-33 0 -54 -20.5t-21 -57.5v-68
q0 -18 -2 -36.5t-4 -31.5h5q25 31 65 52t101 21q102 0 164.5 -64.5t62.5 -185.5q0 -126 -69.5 -192.5t-185.5 -66.5zM325 80q72 0 106.5 45t34.5 122q0 72 -35 117.5t-102 45.5q-56 0 -87.5 -22.5t-44.5 -59.5t-13 -80v-14q0 -68 33 -111t108 -43z" />
    <glyph glyph-name="uni1CAD" unicode="&#x1cad;" horiz-adv-x="631" 
d="M327 -10q-74 0 -129.5 26t-86.5 71.5t-31 103.5q0 8 1 17.5t5 24.5h108q-2 -11 -2 -18v-12q0 -56 35.5 -89.5t99.5 -33.5q49 0 78 18.5t42.5 48.5t13.5 65q0 39 -14 66.5t-32.5 52t-32.5 56.5h-3q-29 -42 -72.5 -59t-92.5 -17q-38 0 -75.5 17t-62 50.5t-24.5 81.5
q0 47 24.5 79.5t65 50t87.5 17.5h104v107h109v-107h95v-88h-92v-22q0 -28 13 -52t32 -48.5t38 -52t32 -60.5t13 -74q0 -98 -64 -159t-182 -61zM243 396q44 0 67.5 22.5t23.5 54.5v48h-89q-43 0 -65.5 -16.5t-22.5 -44.5q0 -31 24.5 -47.5t61.5 -16.5z" />
    <glyph glyph-name="uni1CAE" unicode="&#x1cae;" horiz-adv-x="638" 
d="M326 -10q-117 0 -182.5 67t-65.5 195v462h108v-185q0 -18 -2.5 -46t-4.5 -42h6q25 32 65.5 54.5t100.5 22.5q66 0 118 -30t81.5 -88.5t29.5 -145.5q0 -86 -32.5 -145t-90 -89t-131.5 -30zM326 82q70 0 105.5 46t35.5 123q0 81 -36.5 127.5t-100.5 46.5q-61 0 -93 -24.5
t-43.5 -63.5t-11.5 -83v-16q0 -69 35.5 -112.5t108.5 -43.5z" />
    <glyph glyph-name="uni1CAF" unicode="&#x1caf;" horiz-adv-x="602" 
d="M299 -10q-74 0 -130 27.5t-86.5 74.5t-30.5 108q0 37 12 76h108q-8 -35 -8 -64q0 -62 35.5 -97t99.5 -35q61 0 99.5 28.5t38.5 75.5q0 46 -26.5 78t-62.5 60q-49 38 -76 82t-27 94v31l-183 28v87l183 -27v97h111v-117l183 -27v-88l-184 27v-11q0 -39 28 -70.5t70 -64.5
q38 -31 67.5 -73t29.5 -101q0 -60 -31 -104.5t-87.5 -69.5t-132.5 -25z" />
    <glyph glyph-name="uni1CB0" unicode="&#x1cb0;" horiz-adv-x="603" 
d="M297 -10q-79 0 -134.5 24.5t-84 64t-28.5 84.5q0 17 4 40h106q-1 -11 -1 -24q0 -39 31.5 -70t105.5 -31q72 0 103.5 23t31.5 53q0 32 -27.5 54.5t-98.5 22.5h-52v87h80q38 0 62.5 11.5t24.5 42.5q0 29 -24.5 41t-62.5 12h-80v86h78q42 0 55.5 12.5t13.5 27.5q0 20 -22 30
t-52 20q-25 8 -49 21t-39 35t-14 57h111q2 -20 23.5 -31t56.5 -24q25 -9 48 -21.5t37.5 -32t14.5 -48.5q0 -31 -19.5 -55t-68.5 -30v-3q26 -2 50.5 -13t40.5 -32t16 -52q0 -50 -31 -70.5t-75 -26.5v-3q53 -9 85 -41t32 -84q0 -47 -32.5 -82.5t-88.5 -55t-127 -19.5z" />
    <glyph glyph-name="uni1CB1" unicode="&#x1cb1;" horiz-adv-x="714" 
d="M396 -10q-169 0 -253.5 97.5t-84.5 288.5q0 88 23.5 177.5t61.5 160.5h110q-36 -73 -60 -160.5t-24 -176.5q0 -143 53 -220.5t174 -77.5q68 0 107 21t39 55q0 32 -26.5 54.5t-89.5 22.5h-62v86h73q38 0 66.5 10t28.5 44q0 52 -103 52h-65v86h77q44 0 57.5 13t13.5 28
q0 20 -14.5 31.5t-31.5 23.5q-26 15 -48.5 39t-18.5 69h111q0 -21 15 -34.5t34 -25.5q25 -15 46 -37t21 -61q0 -34 -19.5 -54.5t-66.5 -30.5v-2q40 -3 73 -28t33 -69q0 -47 -30 -70.5t-75 -30.5v-2q54 -8 84.5 -37.5t30.5 -83.5q0 -45 -32.5 -81t-91 -56.5t-136.5 -20.5z
" />
    <glyph glyph-name="uni1CB2" unicode="&#x1cb2;" horiz-adv-x="630" 
d="M87 0v92q33 2 66 8t68 18v2q-75 57 -119 140.5t-44 186.5q0 91 34 153t92.5 93t130.5 31t130.5 -31t93 -93t34.5 -153q0 -103 -44 -186.5t-119 -140.5v-2q34 -12 67 -18t66 -8v-92q-61 2 -119 17.5t-109 39.5q-52 -24 -109 -39t-119 -18zM315 162q62 43 103 115.5
t41 169.5q0 90 -39.5 137.5t-104.5 47.5t-104 -47.5t-39 -137.5q0 -96 40.5 -168.5t102.5 -116.5z" />
    <glyph glyph-name="uni1CB3" unicode="&#x1cb3;" horiz-adv-x="617" 
d="M309 -10q-79 0 -137 27.5t-89 74.5t-31 108q0 37 12 76h108q-8 -35 -8 -64q0 -62 37 -97t109 -35t106.5 39.5t34.5 95.5q0 69 -42.5 105t-112.5 36h-68v78l176 190h-310v90h445v-80l-188 -197q54 -6 103 -32.5t80 -74.5t31 -119q0 -66 -31 -116t-88.5 -77.5t-136.5 -27.5
z" />
    <glyph glyph-name="uni1CB4" unicode="&#x1cb4;" horiz-adv-x="599" 
d="M299 -10q-79 0 -134.5 24.5t-84 64t-28.5 84.5q0 17 4 40h106q-1 -11 -1 -24q0 -39 31.5 -70t106.5 -31q71 0 102.5 23t31.5 53q0 32 -27.5 54.5t-97.5 22.5h-51v87h78q38 0 62.5 11t24.5 38q0 30 -32.5 43t-75.5 25q-31 9 -62.5 20.5t-58 29t-43 44t-16.5 65.5
q0 58 53 94t139 36q41 0 81 -9.5t77 -32.5l-37 -80q-29 16 -58.5 25t-62.5 9q-39 0 -62.5 -11.5t-23.5 -30.5q0 -29 29.5 -41.5t84.5 -27.5q42 -11 84 -27.5t70 -45.5t28 -77q0 -44 -30.5 -68.5t-75.5 -31.5v-3q53 -9 85 -41t32 -84q0 -47 -32.5 -82.5t-88.5 -55t-127 -19.5
z" />
    <glyph glyph-name="uni1CB5" unicode="&#x1cb5;" horiz-adv-x="700" 
d="M301 -10q-115 0 -179 44.5t-64 124.5q0 77 61.5 119.5t170.5 42.5h144v87h-159q-99 0 -152.5 40t-53.5 114q0 75 63 118.5t174 43.5q115 0 176.5 -49.5t61.5 -141.5v-39h112v-86h-112v-87h112v-85h-112v-43q0 -99 -62 -151t-181 -52zM284 494h150v39q0 47 -29 75.5
t-100 28.5q-59 0 -91 -18.5t-32 -55.5q0 -36 26.5 -52.5t75.5 -16.5zM304 77q75 0 102.5 33.5t27.5 84.5v41h-146q-53 0 -85 -19t-32 -58t35 -60.5t98 -21.5z" />
    <glyph glyph-name="uni1CB6" unicode="&#x1cb6;" horiz-adv-x="837" 
d="M470 724v-88q116 -2 183.5 -38.5t96.5 -96t29 -131.5q0 -47 -15 -94.5t-50 -86.5t-95 -63t-149 -26v-110h-103v110q-91 2 -151.5 27t-95 64.5t-48.5 86t-14 92.5q0 70 29 130t97 97t183 39v88h103zM367 548q-76 -3 -120.5 -25.5t-63.5 -61.5t-19 -90q0 -82 48.5 -131.5
t154.5 -52.5v361zM470 548v-361q108 3 155.5 53t47.5 131q0 52 -19 91t-63.5 61t-120.5 25z" />
    <glyph glyph-name="uni1CB7" unicode="&#x1cb7;" horiz-adv-x="592" 
d="M295 -9q-71 0 -126 24.5t-86 69t-31 106.5q0 51 17.5 86.5t47 60t66 42t73.5 32.5q46 18 80.5 34.5t54 38t19.5 53.5q0 48 -31.5 72.5t-80.5 24.5q-61 0 -88.5 -26t-27.5 -67q0 -5 0.5 -11t1.5 -11h-109q-3 14 -3 30q0 75 59.5 124.5t164.5 49.5q68 0 118.5 -22.5
t79 -64.5t28.5 -101q0 -61 -29 -99t-76.5 -63t-101.5 -47q-43 -18 -77 -36.5t-53.5 -42.5t-19.5 -59q0 -51 36 -80.5t95 -29.5q58 0 94.5 28t36.5 84q0 20 -3 36h111q5 -21 5 -42q0 -65 -31 -108t-86 -64.5t-128 -21.5z" />
    <glyph glyph-name="uni1CB8" unicode="&#x1cb8;" horiz-adv-x="629" 
d="M323 -10q75 0 131 27.5t86.5 74.5t30.5 108q0 38 -12 76h-108q8 -35 8 -64q0 -62 -35.5 -97t-100.5 -35q-74 0 -105.5 42.5t-31.5 111.5v96q0 18 -1 39t-3 41h3q26 -35 71 -56t101 -21q98 0 155.5 58t57.5 166q0 46 -9.5 85.5t-25.5 71.5h-111q15 -35 24 -70t9 -84
q0 -63 -33 -99.5t-90 -36.5q-72 0 -110 39.5t-38 113.5v137h-108v-482q0 -115 63.5 -178.5t181.5 -63.5z" />
    <glyph glyph-name="uni1CB9" unicode="&#x1cb9;" horiz-adv-x="618" 
d="M311 723q68 0 126.5 -30.5t93.5 -86.5t35 -135q0 -78 -31 -131t-85 -82t-124 -36q-57 -5 -82.5 -24.5t-25.5 -54.5q0 -31 25 -50t66 -19q43 0 67.5 20.5t24.5 54.5q0 11 -3 26h108q5 -23 5 -41q0 -43 -26 -75.5t-72 -50.5t-104 -18q-60 0 -105 18.5t-70.5 52.5t-25.5 78
q0 39 20 70t65 47v3q-59 18 -100 71t-41 141q0 79 34 135t92.5 86.5t132.5 30.5zM309 631q-64 0 -103.5 -45t-39.5 -115q0 -76 39.5 -117.5t104.5 -41.5q64 0 103 42t39 117q0 70 -39 115t-104 45z" />
    <glyph glyph-name="uni1CBA" unicode="&#x1cba;" horiz-adv-x="549" 
d="M116 -7v107l137 54v3q-55 10 -99 44.5t-70 91.5t-26 135q0 91 35 157.5t98 102.5t147 36q49 0 95 -11.5t79 -29.5l-40 -89q-31 15 -62 25.5t-70 10.5q-78 0 -123 -54.5t-45 -150.5q0 -99 45 -151.5t124 -52.5q44 0 76 8t72 27v-106z" />
    <glyph glyph-name="uni1CBD" unicode="&#x1cbd;" horiz-adv-x="592" 
d="M296 -9q-72 0 -127 21.5t-86 64.5t-31 108q0 21 5 42h111q-3 -16 -3 -36q0 -56 36.5 -84t94.5 -28q59 0 95 29.5t36 80.5q0 35 -21 57.5t-55 39t-74 32.5q-54 22 -101 48t-76.5 66t-29.5 104q0 59 28.5 101t79.5 64.5t118 22.5q106 0 165 -49.5t59 -124.5q0 -16 -3 -30
h-109q1 5 1.5 11t0.5 11q0 41 -27.5 67t-87.5 26q-49 0 -81 -24.5t-32 -72.5q0 -36 20 -59.5t55 -40.5t79 -34q38 -15 74 -32t65.5 -40.5t47 -57t17.5 -81.5q0 -63 -31 -108t-86 -69.5t-127 -24.5z" />
    <glyph glyph-name="uni1CBE" unicode="&#x1cbe;" horiz-adv-x="630" 
d="M87 714q62 -3 119 -18t109 -39q51 24 109 39.5t119 17.5v-92q-33 -2 -66 -8t-67 -18v-2q75 -57 119 -140.5t44 -186.5q0 -91 -34.5 -153t-93 -93t-130.5 -31t-130.5 31t-92.5 93t-34 153q0 103 44 186.5t119 140.5v2q-35 12 -68 18t-66 8v92zM315 552
q-62 -44 -102.5 -116.5t-40.5 -168.5q0 -90 39 -137.5t104 -47.5t104.5 47.5t39.5 137.5q0 97 -41 169.5t-103 115.5z" />
    <glyph glyph-name="uni1CBF" unicode="&#x1cbf;" horiz-adv-x="660" 
d="M330 -10q-132 0 -200 93t-68 274q0 183 68.5 275t199.5 92t199 -93t68 -274q0 -183 -68 -275t-199 -92zM330 82q77 0 115 67.5t38 207.5q0 142 -38.5 208.5t-114.5 66.5q-78 0 -116 -67.5t-38 -207.5q0 -143 39 -209t115 -66z" />
    <glyph glyph-name="uni2010" unicode="&#x2010;" horiz-adv-x="322" 
d="M37 223v90h248v-90h-248z" />
    <glyph glyph-name="uni20BE" unicode="&#x20be;" horiz-adv-x="775" 
d="M107 0v76l100 10v3q-75 45 -110 119.5t-35 162.5q0 121 57.5 206.5t167.5 113.5v79h67v-68q18 2 37 2t37 -2v68h67v-79q108 -30 165.5 -119.5t57.5 -224.5h-111q0 95 -26.5 160t-85.5 94v-253h-67v272q-17 2 -37 2q-19 0 -37 -2v-272h-67v253q-59 -28 -86.5 -89.5
t-27.5 -150.5q0 -81 29 -142t82.5 -95t127.5 -34h261v-90h-566z" />
    <glyph glyph-name="uni2D00" unicode="&#x2d00;" horiz-adv-x="703" 
d="M367 0q-107 0 -156 40t-49 131v214q0 38 -16.5 53t-46.5 15h-80v86h138q35 0 61.5 -15.5t42.5 -57.5h5q26 42 71.5 62.5t97.5 20.5q94 0 144.5 -47t50.5 -151v-102h-106v87q0 126 -111 126q-83 0 -114 -48.5t-31 -136.5v-96q0 -52 25.5 -74t86.5 -22h216v-85h-229z" />
    <glyph glyph-name="uni2D01" unicode="&#x2d01;" horiz-adv-x="659" 
d="M349 -250q-138 0 -225 34v95q42 -20 95.5 -31t114.5 -11q94 0 142.5 27.5t48.5 80.5q0 26 -7 45t-18 33q-12 17 -21 35t-14 39h-4q-30 -57 -79.5 -82t-108.5 -25q-94 0 -144 47t-50 149v353h106v-338q0 -124 110 -124q77 0 111.5 45.5t34.5 143.5v273h106v-369
q0 -31 10.5 -54t25.5 -44q19 -26 33 -55.5t14 -77.5q0 -91 -74.5 -140t-206.5 -49z" />
    <glyph glyph-name="uni2D02" unicode="&#x2d02;" horiz-adv-x="663" 
d="M353 -250q-139 0 -226 34v95q42 -20 95.5 -31t114.5 -11q94 0 142.5 28t48.5 82q0 28 -10 48.5t-24 39.5q-18 25 -33.5 56t-15.5 80v165q0 126 -111 126q-83 0 -114 -49t-31 -141v-272h-106v539h84l15 -73h5q27 42 72 62.5t97 20.5q95 0 144.5 -47t49.5 -151v-173
q0 -35 11.5 -59t29.5 -49q17 -23 30 -54t13 -77q0 -91 -75 -140t-206 -49z" />
    <glyph glyph-name="uni2D03" unicode="&#x2d03;" horiz-adv-x="610" 
d="M303 -10q-114 0 -182.5 68.5t-68.5 191.5q0 100 56 168.5t158 103.5q-14 26 -20.5 59.5t-6.5 70.5v21h-161v87h451v-87h-186v-20q0 -36 6.5 -61.5t23.5 -47t50 -46.5q71 -55 103 -113t32 -141q0 -123 -69 -188.5t-186 -65.5zM303 77q69 0 107.5 40.5t38.5 127.5
q0 56 -22.5 98.5t-68.5 79.5q-13 10 -24 19.5t-17 17.5q-76 -26 -115.5 -77t-39.5 -133q0 -83 38 -128t103 -45z" />
    <glyph glyph-name="uni2D04" unicode="&#x2d04;" horiz-adv-x="630" 
d="M356 549q94 0 144.5 -47t50.5 -151v-591h-106v576q0 126 -111 126q-83 0 -114 -49t-31 -141v-272h-106v539h84l15 -72h6q26 42 71.5 62t96.5 20z" />
    <glyph glyph-name="uni2D05" unicode="&#x2d05;" horiz-adv-x="948" 
d="M687 549q91 0 137 -47t46 -151v-351h-106v337q0 125 -101 125q-72 0 -103 -44.5t-31 -127.5v-530h-105v577q0 125 -102 125q-76 0 -104.5 -49t-28.5 -141v-272h-106v539h84l15 -72h6q24 42 67 62t91 20q125 0 164 -87h8q26 45 72 66t97 21z" />
    <glyph glyph-name="uni2D06" unicode="&#x2d06;" horiz-adv-x="699" 
d="M430 548q102 0 159.5 -73t57.5 -205q0 -136 -62.5 -208t-181.5 -72q-241 0 -241 281v335q0 37 -16 52.5t-47 15.5h-80v86h121q69 0 98 -37t29 -92v-54q0 -25 -1.5 -52.5t-3.5 -56.5h5q26 39 66.5 59.5t96.5 20.5zM404 77q67 0 100.5 49.5t33.5 143.5q0 95 -34 143.5
t-99 48.5q-70 0 -104 -41t-34 -133v-18q0 -98 32.5 -145.5t104.5 -47.5z" />
    <glyph glyph-name="uni2D07" unicode="&#x2d07;" horiz-adv-x="944" 
d="M262 -10q-91 0 -137 47t-46 149v353h84l15 -72h6q23 39 64.5 60.5t93.5 21.5q127 0 166 -89h5q25 43 69.5 66t100.5 23q92 0 137.5 -47.5t45.5 -150.5v-351h-105v337q0 125 -101 125q-69 0 -102 -42.5t-33 -129.5v-290h-83l-16 71h-5q-21 -38 -62.5 -59.5t-96.5 -21.5z
M286 77q70 0 102 44.5t32 144.5v71q0 63 -24.5 94t-77.5 31q-69 0 -101 -44.5t-32 -145.5v-70q0 -125 101 -125z" />
    <glyph glyph-name="uni2D08" unicode="&#x2d08;" horiz-adv-x="450" 
d="M265 0v351q0 52 -24 76.5t-78 24.5h-144v87h160q101 0 146.5 -44.5t45.5 -139.5v-355h-106z" />
    <glyph glyph-name="uni2D09" unicode="&#x2d09;" horiz-adv-x="639" 
d="M455 -240v201q0 25 1.5 52.5t4.5 56.5h-6q-26 -39 -66.5 -59.5t-95.5 -20.5q-102 0 -158 73t-56 206v491h106v-183q0 -25 -1.5 -52.5t-3.5 -56.5h5q26 39 66.5 59.5t96.5 20.5q102 0 157.5 -73.5t55.5 -205.5v-509h-106zM317 77q70 0 104 41t34 134v21q0 93 -34 140.5
t-98 47.5q-70 0 -104 -41t-34 -135v-19q0 -93 34 -141t98 -48z" />
    <glyph glyph-name="uni2D0A" unicode="&#x2d0a;" horiz-adv-x="948" 
d="M607 -10q-92 0 -137.5 47t-45.5 149v151q0 63 -24.5 94t-77.5 31q-69 0 -101 -44.5t-32 -145.5v-272h-106v539h84l15 -72h6q23 38 64 60t94 22q127 0 166 -89h5q25 43 69 66t101 23q91 0 137 -47.5t46 -150.5v-351h-83l-16 71h-5q-24 -39 -65 -60t-94 -21zM630 77
q70 0 102 44.5t32 144.5v71q0 125 -101 125q-68 0 -101 -42.5t-33 -129.5v-88q0 -64 24.5 -94.5t76.5 -30.5z" />
    <glyph glyph-name="uni2D0B" unicode="&#x2d0b;" horiz-adv-x="616" 
d="M295 -10q-118 0 -180.5 72.5t-62.5 203.5q0 140 59.5 206.5t185.5 66.5h134v43q0 90 -95 90h-216v88h231q186 0 186 -176v-318q0 -276 -242 -276zM296 77q72 0 103.5 47t31.5 140v187h-126q-57 0 -88 -19t-43.5 -59.5t-12.5 -105.5q0 -190 135 -190z" />
    <glyph glyph-name="uni2D0C" unicode="&#x2d0c;" horiz-adv-x="625" 
d="M79 0v554q0 107 51 156.5t158 49.5h238v-88h-229q-62 0 -87 -25.5t-25 -86.5v-20q0 -19 -1.5 -38.5t-3.5 -35.5h6q24 39 67 60.5t98 21.5q97 0 146.5 -48t49.5 -149v-351h-106v336q0 126 -110 126q-76 0 -111 -44.5t-35 -146.5v-271h-106z" />
    <glyph glyph-name="uni2D0D" unicode="&#x2d0d;" horiz-adv-x="949" 
d="M262 -10q-91 0 -137 47t-46 151v351h106v-337q0 -125 101 -125q68 0 101 41.5t33 130.5v290h105v-337q0 -63 24.5 -94t77.5 -31q69 0 101 44.5t32 145.5v272h106v-539h-84l-15 72h-6q-23 -40 -65 -61t-93 -21q-127 0 -166 89h-5q-25 -43 -69.5 -66t-100.5 -23z" />
    <glyph glyph-name="uni2D0E" unicode="&#x2d0e;" horiz-adv-x="713" 
d="M524 539h106v-539h-85l-15 71h-5q-24 -38 -68 -59.5t-101 -21.5q-97 0 -146 48t-49 148v199q0 37 -15.5 52.5t-46.5 15.5h-80v86h121q69 0 98.5 -37t29.5 -92v-208q0 -64 26.5 -94.5t83.5 -30.5q77 0 111.5 44t34.5 145v273z" />
    <glyph glyph-name="uni2D0F" unicode="&#x2d0f;" horiz-adv-x="713" 
d="M524 -240v212q0 30 1.5 51.5t6.5 47.5h-7q-24 -38 -68 -59.5t-101 -21.5q-97 0 -146 48t-49 148v199q0 37 -15.5 52.5t-46.5 15.5h-80v86h121q69 0 98.5 -37t29.5 -92v-208q0 -64 26.5 -94.5t83.5 -30.5q77 0 111.5 44t34.5 145v273h107v-779h-107z" />
    <glyph glyph-name="uni2D10" unicode="&#x2d10;" horiz-adv-x="947" 
d="M262 -10q-90 0 -136.5 48t-46.5 148v353h106v-337q0 -125 102 -125q69 0 101.5 44t32.5 145v494h106v-203q0 -57 -6 -90h5q23 39 64.5 60.5t95.5 21.5q89 0 135.5 -48.5t46.5 -149.5v-351h-106v336q0 63 -24.5 94.5t-76.5 31.5q-70 0 -102 -45t-32 -145v-272h-88l-14 71
h-4q-23 -39 -64.5 -60t-94.5 -21z" />
    <glyph glyph-name="uni2D11" unicode="&#x2d11;" horiz-adv-x="631" 
d="M274 -10q-97 0 -146 48t-49 148v574h107v-558q0 -125 110 -125q77 0 111.5 44.5t34.5 144.5v273h106v-539h-84l-15 71h-6q-24 -39 -67.5 -60t-101.5 -21z" />
    <glyph glyph-name="uni2D12" unicode="&#x2d12;" horiz-adv-x="620" 
d="M351 549q102 0 159.5 -75.5t57.5 -205.5q0 -131 -57 -204.5t-159 -73.5q-53 0 -94 19.5t-69 61.5h-4q1 -11 2 -32t1 -34v-28q0 -68 36.5 -105.5t101.5 -37.5q117 0 203 42v-93q-41 -17 -89.5 -25t-106.5 -8q-127 0 -188.5 59t-61.5 174v556h86l12 -71h5q59 81 165 81z
M329 461q-75 0 -109.5 -45t-34.5 -148v-20q0 -92 34 -132.5t108 -40.5q66 0 99 49t33 143t-33.5 144t-96.5 50z" />
    <glyph glyph-name="uni2D13" unicode="&#x2d13;" horiz-adv-x="949" 
d="M760 -240v212q0 26 1.5 46.5t5.5 53.5h-6q-23 -39 -65 -60.5t-93 -21.5q-125 0 -165 87h-7q-25 -41 -69 -64t-100 -23q-91 0 -137 47t-46 151v351h106v-337q0 -125 101 -125q68 0 101 41.5t33 130.5v290h105v-337q0 -63 24.5 -94t77.5 -31q69 0 101 44.5t32 145.5v493
h106v-1000h-106z" />
    <glyph glyph-name="uni2D14" unicode="&#x2d14;" horiz-adv-x="927" 
d="M411 -240v221q0 20 2 46.5t4 41.5h-5q-27 -39 -64.5 -59t-88.5 -20q-97 0 -152 73.5t-55 206.5q0 134 54.5 206.5t150.5 72.5q53 0 90.5 -21.5t63.5 -60.5h4l18 72h61l18 -72h5q26 39 63.5 60.5t89.5 21.5q96 0 150.5 -72.5t54.5 -206.5q0 -133 -55 -206.5t-152 -73.5
q-51 0 -88 20t-64 59h-6q3 -15 5 -41.5t2 -46.5v-221h-106zM283 77q69 0 100 45.5t31 148.5v16q0 93 -31.5 134t-98.5 41q-59 0 -91 -47.5t-32 -142.5q0 -94 32 -144.5t90 -50.5zM645 77q57 0 89 50.5t32 144.5q0 95 -31.5 142.5t-91.5 47.5q-67 0 -98.5 -41t-31.5 -134v-16
q0 -103 31.5 -148.5t100.5 -45.5z" />
    <glyph glyph-name="uni2D15" unicode="&#x2d15;" horiz-adv-x="491" 
d="M192 -240v691h-173v88h173v221h106v-221h174v-88h-174v-691h-106z" />
    <glyph glyph-name="uni2D16" unicode="&#x2d16;" horiz-adv-x="630" 
d="M356 549q94 0 144.5 -47t50.5 -151v-351h-106v336q0 126 -111 126q-83 0 -114 -49t-31 -141v-272h-106v539h84l15 -72h6q26 42 71.5 62t96.5 20z" />
    <glyph glyph-name="uni2D17" unicode="&#x2d17;" horiz-adv-x="631" 
d="M442 -240v212q0 29 2 51.5t7 47.5h-8q-24 -39 -67.5 -60t-101.5 -21q-97 0 -146 48t-49 148v353h107v-337q0 -125 110 -125q77 0 111.5 44.5t34.5 144.5v273h106v-779h-106z" />
    <glyph glyph-name="uni2D18" unicode="&#x2d18;" horiz-adv-x="631" 
d="M302 -250q-120 0 -200 33v94q83 -40 198 -40q71 0 106 35t35 100v26q0 31 5 71h-5q-24 -38 -66.5 -58.5t-100.5 -20.5q-97 0 -146 48t-49 148v353h107v-337q0 -125 110 -125q77 0 111.5 44.5t34.5 144.5v273h106v-543q0 -127 -59 -186.5t-187 -59.5z" />
    <glyph glyph-name="uni2D19" unicode="&#x2d19;" horiz-adv-x="629" 
d="M83 -240v1000h106v-203q0 -24 -1.5 -45.5t-4.5 -45.5h7q24 39 66.5 60.5t97.5 21.5q98 0 147 -48t49 -149v-351h-105v336q0 126 -111 126q-76 0 -110.5 -44.5t-34.5 -146.5v-511h-106z" />
    <glyph glyph-name="uni2D1A" unicode="&#x2d1a;" horiz-adv-x="629" 
d="M313 -250q-230 0 -230 234v555h84l15 -72h6q24 40 69 61t99 21q194 0 194 -198v-351h-105v336q0 63 -26.5 94.5t-84.5 31.5q-76 0 -110.5 -44.5t-34.5 -145.5v-298q0 -71 33.5 -104t101.5 -33q56 0 106.5 11t91.5 29v-94q-83 -33 -209 -33z" />
    <glyph glyph-name="uni2D1B" unicode="&#x2d1b;" horiz-adv-x="936" 
d="M256 -10q-96 0 -150 73t-54 205q0 133 54.5 207t151.5 74q100 0 155 -79h5q-3 18 -5 44.5t-2 48.5v197h106v-203q0 -28 -2 -50.5t-5 -40.5h6q24 40 65.5 61t91.5 21q91 0 137.5 -48t46.5 -149v-351h-105v336q0 63 -24.5 94.5t-77.5 31.5q-69 0 -101 -44.5t-32 -146.5
v-271h-84l-18 72h-4q-54 -82 -155 -82zM283 77q68 0 99.5 40t31.5 134v16q0 106 -31.5 150.5t-100.5 44.5q-58 0 -89.5 -51t-31.5 -145q0 -189 122 -189z" />
    <glyph glyph-name="uni2D1C" unicode="&#x2d1c;" horiz-adv-x="948" 
d="M83 -240v779h84l15 -72h6q23 38 64 60t94 22q125 0 164 -87h8q25 41 68.5 64t100.5 23q91 0 137 -47.5t46 -150.5v-351h-106v337q0 125 -101 125q-68 0 -101 -42.5t-33 -129.5v-290h-105v337q0 63 -24.5 94t-77.5 31q-69 0 -101 -44.5t-32 -145.5v-512h-106z" />
    <glyph glyph-name="uni2D1D" unicode="&#x2d1d;" horiz-adv-x="625" 
d="M293 -250q-129 0 -209 34v94q83 -42 201 -42q85 0 121.5 25t36.5 63q0 47 -32.5 62.5t-80.5 15.5h-247v537h84l15 -73h5q27 42 72 62.5t97 20.5q95 0 145 -47t50 -151v-102h-106v87q0 126 -111 126q-83 0 -114 -48.5t-31 -136.5v-191h156q56 0 102.5 -16t74 -51.5
t27.5 -93.5q0 -49 -27.5 -88.5t-84 -63t-144.5 -23.5z" />
    <glyph glyph-name="uni2D1E" unicode="&#x2d1e;" horiz-adv-x="629" 
d="M313 -250q-116 0 -173 57t-57 177v555h106v-272q0 -101 35 -145.5t110 -44.5q58 0 84.5 31.5t26.5 94.5v336h105v-346q0 -103 -47.5 -153t-146.5 -50q-55 0 -98.5 21t-67.5 60h-7q4 -26 5 -51t1 -45q0 -73 32.5 -105.5t102.5 -32.5q111 0 199 40v-94q-81 -33 -210 -33z
" />
    <glyph glyph-name="uni2D1F" unicode="&#x2d1f;" horiz-adv-x="564" 
d="M-62 -240l318 478l-154 219h-80v82h515v-76l-157 -224l171 -239h-119l-112 167l-264 -407h-118zM319 306l103 152h-207z" />
    <glyph glyph-name="uni2D20" unicode="&#x2d20;" horiz-adv-x="955" 
d="M608 -10q-91 0 -137.5 48t-46.5 148v150q0 63 -24.5 94.5t-76.5 31.5q-70 0 -102 -44.5t-32 -145.5v-272h-106v539h84l13 -77h5q23 42 65 64.5t96 22.5q184 0 184 -198v-149q0 -125 101 -125q70 0 102.5 44.5t32.5 144.5v273h106v-539h-85l-15 71h-5q-23 -38 -63.5 -59.5
t-95.5 -21.5z" />
    <glyph glyph-name="uni2D21" unicode="&#x2d21;" horiz-adv-x="583" 
d="M83 -240v1000h106v-280h4q37 69 131 69q63 0 98.5 -32.5t35.5 -91.5q0 -39 13.5 -55.5t47.5 -16.5h46v-87h-76q-65 0 -101.5 31.5t-36.5 86.5q0 78 -66 78q-96 0 -96 -137v-565h-106z" />
    <glyph glyph-name="uni2D22" unicode="&#x2d22;" horiz-adv-x="607" 
d="M295 -10q-74 0 -128.5 27.5t-84.5 75t-30 106.5q0 26 8 58h105q-5 -26 -5 -47q0 -61 37.5 -97.5t97.5 -36.5q73 0 112 50t39 143q0 91 -43 138t-132 47h-196v85h197q140 0 211.5 -67t71.5 -201q0 -131 -68.5 -206t-191.5 -75z" />
    <glyph glyph-name="uni2D23" unicode="&#x2d23;" horiz-adv-x="631" 
d="M442 -240v212q0 29 2 51.5t7 47.5h-8q-24 -39 -67.5 -60t-101.5 -21q-97 0 -146 48t-49 148v353h107v-337q0 -125 110 -125q77 0 111.5 44.5t34.5 144.5v494h106v-1000h-106z" />
    <glyph glyph-name="uni2D24" unicode="&#x2d24;" horiz-adv-x="612" 
d="M253 -240v236q-84 12 -129 65t-45 143v335h106v-337q0 -60 31 -92t91 -32q58 0 89.5 32t31.5 92v337h106v-337q0 -87 -46 -140t-128 -66v-236h-107z" />
    <glyph glyph-name="uni2D25" unicode="&#x2d25;" horiz-adv-x="936" 
d="M673 548q91 0 137.5 -48t46.5 -149v-351h-105v336q0 63 -24.5 94.5t-77.5 31.5q-69 0 -101 -44.5t-32 -146.5v-271h-84l-18 72h-4q-54 -82 -155 -82q-96 0 -150 73t-54 205q0 133 54.5 207t151.5 74q100 0 155 -79h5q-3 18 -5 43.5t-2 43.5v18q0 91 51 138t157 47h213
v-88h-206q-57 0 -83 -24.5t-26 -76.5v-24q0 -43 -7 -81h6q24 40 65.5 61t91.5 21zM414 251v16q0 106 -31.5 150.5t-100.5 44.5q-58 0 -89.5 -51t-31.5 -145q0 -189 122 -189q68 0 99.5 40t31.5 134z" />
    <glyph glyph-name="uni2D27" unicode="&#x2d27;" horiz-adv-x="542" 
d="M269 -250q-65 0 -115.5 26t-78.5 73.5t-28 112.5q0 73 27.5 121.5t73 82.5t99.5 63q44 24 71 44t39.5 43t12.5 55q0 42 -25.5 66t-72.5 24q-101 0 -101 -94q0 -11 3 -24h-104q-4 16 -4 31q0 80 55 127.5t150 47.5q97 0 152 -48.5t55 -130.5q0 -53 -21.5 -91t-63.5 -70
t-103 -66q-38 -21 -68 -44t-48 -56t-18 -83q0 -56 32.5 -89t80.5 -33q49 0 83.5 30.5t34.5 93.5q0 21 -3 39t-7 29h108q10 -30 10 -73q0 -70 -29 -116t-80.5 -68.5t-116.5 -22.5z" />
    <glyph glyph-name="uni2D2D" unicode="&#x2d2d;" horiz-adv-x="475" 
d="M439 0h-404v67l278 390h-261v82h379v-75l-272 -382h280v-82z" />
    <glyph glyph-name="macroncomb" horiz-adv-x="600" 
d="M94 0v714h411v-714h-411zM145 51h309v612h-309v-612z" />
    <glyph glyph-name="uni1C90_uni0308.ccmp" 
d="M300 -9q-75 0 -130.5 28.5t-86.5 81t-31 122.5q0 29 3 58t19 71h-47l55 19q-4 -10 -8 -19h110q-13 -38 -16.5 -68.5t-3.5 -52.5q0 -64 34 -106t102 -42q72 0 104 45t32 114q0 71 -26.5 122.5t-60.5 93.5q-30 38 -55 75.5t-38.5 81t-6.5 99.5h109q-4 -42 8 -76t33.5 -65.5
t45.5 -63.5q26 -34 50 -72t39.5 -86t15.5 -111q0 -75 -30 -131t-86 -87t-134 -31zM191 370l40 -18h-47q3 9 7 18zM153 843q0 29 15.5 41.5t38.5 12.5q21 0 37 -12.5t16 -41.5q0 -27 -16 -40.5t-37 -13.5q-23 0 -38.5 13.5t-15.5 40.5zM344 843q0 29 15.5 41.5t37.5 12.5
q21 0 37 -12.5t16 -41.5q0 -27 -16 -40.5t-37 -13.5q-22 0 -37.5 13.5t-15.5 40.5z" />
    <glyph glyph-name="uni1C90_acutecomb.ccmp" 
d="M300 -9q-75 0 -130.5 28.5t-86.5 81t-31 122.5q0 29 3 58t19 71h-47l55 19q-4 -10 -8 -19h110q-13 -38 -16.5 -68.5t-3.5 -52.5q0 -64 34 -106t102 -42q72 0 104 45t32 114q0 71 -26.5 122.5t-60.5 93.5q-30 38 -55 75.5t-38.5 81t-6.5 99.5h109q-4 -42 8 -76t33.5 -65.5
t45.5 -63.5q26 -34 50 -72t39.5 -86t15.5 -111q0 -75 -30 -131t-86 -87t-134 -31zM191 370l40 -18h-47q3 9 7 18zM435 941v-10q-15 -18 -42.5 -47t-58 -57t-54.5 -46h-70v12q15 19 33.5 45t36.5 53.5t31 49.5h124z" />
    <glyph glyph-name="uni1C90_uni0304.ccmp" 
d="M300 -9q-75 0 -130.5 28.5t-86.5 81t-31 122.5q0 29 3 58t19 71h-47l55 19q-4 -10 -8 -19h110q-13 -38 -16.5 -68.5t-3.5 -52.5q0 -64 34 -106t102 -42q72 0 104 45t32 114q0 71 -26.5 122.5t-60.5 93.5q-30 38 -55 75.5t-38.5 81t-6.5 99.5h109q-4 -42 8 -76t33.5 -65.5
t45.5 -63.5q26 -34 50 -72t39.5 -86t15.5 -111q0 -75 -30 -131t-86 -87t-134 -31zM191 370l40 -18h-47q3 9 7 18zM456 871v-80h-307v80h307z" />
    <glyph glyph-name="uni1C90_uni0304_uni0308.ccmp" 
d="M300 -9q-75 0 -130.5 28.5t-86.5 81t-31 122.5q0 29 3 58t19 71h-47l55 19q-4 -10 -8 -19h110q-13 -38 -16.5 -68.5t-3.5 -52.5q0 -64 34 -106t102 -42q72 0 104 45t32 114q0 71 -26.5 122.5t-60.5 93.5q-30 38 -55 75.5t-38.5 81t-6.5 99.5h109q-4 -42 8 -76t33.5 -65.5
t45.5 -63.5q26 -34 50 -72t39.5 -86t15.5 -111q0 -75 -30 -131t-86 -87t-134 -31zM191 370l40 -18h-47q3 9 7 18zM456 871v-80h-307v80h307zM153 1001q0 29 15.5 41.5t38.5 12.5q21 0 37 -12.5t16 -41.5q0 -27 -16 -40.5t-37 -13.5q-23 0 -38.5 13.5t-15.5 40.5zM344 1001
q0 29 15.5 41.5t37.5 12.5q21 0 37 -12.5t16 -41.5q0 -27 -16 -40.5t-37 -13.5q-22 0 -37.5 13.5t-15.5 40.5z" />
    <glyph glyph-name="uni1C94_acutecomb.ccmp" horiz-adv-x="624" 
d="M300 -9q-75 0 -130.5 27.5t-86.5 77.5t-31 115q0 25 3.5 47t9.5 40h108q-4 -16 -6.5 -37.5t-2.5 -39.5q0 -59 34 -98.5t102 -39.5q74 0 106 40.5t32 108.5v276q0 58 -33 91t-89 33q-55 0 -89 -27.5t-34 -82.5q0 -16 1.5 -33t4.5 -34h-108q-4 14 -7 33.5t-3 39.5
q0 65 31 108.5t84 65.5t119 22q68 0 120 -25.5t81.5 -73t29.5 -114.5v-283q0 -112 -64.5 -174.5t-181.5 -62.5zM441 941v-10q-15 -18 -42.5 -47t-58 -57t-54.5 -46h-70v12q15 19 33.5 45t36.5 53.5t31 49.5h124z" />
    <glyph glyph-name="uni1C94_uni0304.ccmp" horiz-adv-x="624" 
d="M300 -9q-75 0 -130.5 27.5t-86.5 77.5t-31 115q0 25 3.5 47t9.5 40h108q-4 -16 -6.5 -37.5t-2.5 -39.5q0 -59 34 -98.5t102 -39.5q74 0 106 40.5t32 108.5v276q0 58 -33 91t-89 33q-55 0 -89 -27.5t-34 -82.5q0 -16 1.5 -33t4.5 -34h-108q-4 14 -7 33.5t-3 39.5
q0 65 31 108.5t84 65.5t119 22q68 0 120 -25.5t81.5 -73t29.5 -114.5v-283q0 -112 -64.5 -174.5t-181.5 -62.5zM462 871v-80h-307v80h307z" />
    <glyph glyph-name="uni1C98_acutecomb.ccmp" horiz-adv-x="638" 
d="M123 0q-18 50 -31.5 106t-21.5 125.5t-8 160.5q0 119 34.5 192t92.5 106.5t130 33.5t130 -33.5t92.5 -106.5t34.5 -192q0 -91 -8 -160.5t-21.5 -125.5t-31.5 -106h-110q18 52 30.5 108t19.5 124t7 157t-17.5 142.5t-50 77t-75.5 23.5t-75.5 -23.5t-50 -77t-17.5 -142.5
t7 -157t19.5 -124t31.5 -108h-111zM451 948v-10q-15 -18 -42.5 -47t-58 -57t-54.5 -46h-70v12q15 19 33.5 45t36.5 53.5t31 49.5h124z" />
    <glyph glyph-name="uni1C98_uni0304.ccmp" horiz-adv-x="638" 
d="M123 0q-18 50 -31.5 106t-21.5 125.5t-8 160.5q0 119 34.5 192t92.5 106.5t130 33.5t130 -33.5t92.5 -106.5t34.5 -192q0 -91 -8 -160.5t-21.5 -125.5t-31.5 -106h-110q18 52 30.5 108t19.5 124t7 157t-17.5 142.5t-50 77t-75.5 23.5t-75.5 -23.5t-50 -77t-17.5 -142.5
t7 -157t19.5 -124t31.5 -108h-111zM472 878v-80h-307v80h307z" />
    <glyph glyph-name="uni1C9D_uni0308.ccmp" horiz-adv-x="908" 
d="M141 0q-24 60 -42 121t-27.5 131t-9.5 156q0 115 32.5 184.5t84 100.5t109.5 31q31 0 63.5 -9.5t59.5 -33t42 -64.5h3q14 41 40.5 64.5t58.5 33t64 9.5q59 0 110.5 -31.5t83.5 -101t32 -183.5q0 -89 -9.5 -158.5t-27.5 -129.5t-41 -120h-113q24 62 41.5 124t26.5 130.5
t9 150.5q0 84 -16.5 134t-43.5 71.5t-60 21.5q-47 0 -73.5 -40t-26.5 -120v-262h-114v262q0 83 -27.5 121.5t-74.5 38.5q-31 0 -58 -21.5t-44 -71t-17 -134.5q0 -121 20.5 -216t56.5 -189h-112zM305 843q0 29 15.5 41.5t38.5 12.5q21 0 37 -12.5t16 -41.5q0 -27 -16 -40.5
t-37 -13.5q-23 0 -38.5 13.5t-15.5 40.5zM496 843q0 29 15.5 41.5t37.5 12.5q21 0 37 -12.5t16 -41.5q0 -27 -16 -40.5t-37 -13.5q-22 0 -37.5 13.5t-15.5 40.5z" />
    <glyph glyph-name="uni1C9D_acutecomb.ccmp" horiz-adv-x="908" 
d="M141 0q-24 60 -42 121t-27.5 131t-9.5 156q0 115 32.5 184.5t84 100.5t109.5 31q31 0 63.5 -9.5t59.5 -33t42 -64.5h3q14 41 40.5 64.5t58.5 33t64 9.5q59 0 110.5 -31.5t83.5 -101t32 -183.5q0 -89 -9.5 -158.5t-27.5 -129.5t-41 -120h-113q24 62 41.5 124t26.5 130.5
t9 150.5q0 84 -16.5 134t-43.5 71.5t-60 21.5q-47 0 -73.5 -40t-26.5 -120v-262h-114v262q0 83 -27.5 121.5t-74.5 38.5q-31 0 -58 -21.5t-44 -71t-17 -134.5q0 -121 20.5 -216t56.5 -189h-112zM586 941v-10q-15 -18 -42.5 -47t-58 -57t-54.5 -46h-70v12q15 19 33.5 45
t36.5 53.5t31 49.5h124z" />
    <glyph glyph-name="uni1C9D_uni0304.ccmp" horiz-adv-x="908" 
d="M141 0q-24 60 -42 121t-27.5 131t-9.5 156q0 115 32.5 184.5t84 100.5t109.5 31q31 0 63.5 -9.5t59.5 -33t42 -64.5h3q14 41 40.5 64.5t58.5 33t64 9.5q59 0 110.5 -31.5t83.5 -101t32 -183.5q0 -89 -9.5 -158.5t-27.5 -129.5t-41 -120h-113q24 62 41.5 124t26.5 130.5
t9 150.5q0 84 -16.5 134t-43.5 71.5t-60 21.5q-47 0 -73.5 -40t-26.5 -120v-262h-114v262q0 83 -27.5 121.5t-74.5 38.5q-31 0 -58 -21.5t-44 -71t-17 -134.5q0 -121 20.5 -216t56.5 -189h-112zM607 871v-80h-307v80h307z" />
    <glyph glyph-name="uni1C9D_uni0304_uni0308.ccmp" horiz-adv-x="908" 
d="M141 0q-24 60 -42 121t-27.5 131t-9.5 156q0 115 32.5 184.5t84 100.5t109.5 31q31 0 63.5 -9.5t59.5 -33t42 -64.5h3q14 41 40.5 64.5t58.5 33t64 9.5q59 0 110.5 -31.5t83.5 -101t32 -183.5q0 -89 -9.5 -158.5t-27.5 -129.5t-41 -120h-113q24 62 41.5 124t26.5 130.5
t9 150.5q0 84 -16.5 134t-43.5 71.5t-60 21.5q-47 0 -73.5 -40t-26.5 -120v-262h-114v262q0 83 -27.5 121.5t-74.5 38.5q-31 0 -58 -21.5t-44 -71t-17 -134.5q0 -121 20.5 -216t56.5 -189h-112zM607 871v-80h-307v80h307zM305 1001q0 29 15.5 41.5t38.5 12.5q21 0 37 -12.5
t16 -41.5q0 -27 -16 -40.5t-37 -13.5q-23 0 -38.5 13.5t-15.5 40.5zM496 1001q0 29 15.5 41.5t37.5 12.5q21 0 37 -12.5t16 -41.5q0 -27 -16 -40.5t-37 -13.5q-22 0 -37.5 13.5t-15.5 40.5z" />
    <glyph glyph-name="uni1CA3_uni0308.ccmp" horiz-adv-x="632" 
d="M308 -9q-75 0 -130.5 27.5t-86.5 77.5t-31 115q0 26 3.5 47.5t9.5 39.5h108q-4 -15 -6.5 -36.5t-2.5 -40.5q0 -59 34 -98.5t102 -39.5q74 0 106 41t32 108v312q0 92 -77 92q-36 0 -56.5 -23t-20.5 -68v-109h-106v110q0 41 -20 61.5t-57 20.5h-66v92h65q43 0 78.5 -17
t53.5 -64h3q18 44 54.5 65t85.5 21q82 0 126.5 -47t44.5 -122v-328q0 -113 -64 -175t-182 -62zM162 843q0 29 15.5 41.5t38.5 12.5q21 0 37 -12.5t16 -41.5q0 -27 -16 -40.5t-37 -13.5q-23 0 -38.5 13.5t-15.5 40.5zM353 843q0 29 15.5 41.5t37.5 12.5q21 0 37 -12.5
t16 -41.5q0 -27 -16 -40.5t-37 -13.5q-22 0 -37.5 13.5t-15.5 40.5z" />
    <glyph glyph-name="uni1CA3_acutecomb.ccmp" horiz-adv-x="632" 
d="M308 -9q-75 0 -130.5 27.5t-86.5 77.5t-31 115q0 26 3.5 47.5t9.5 39.5h108q-4 -15 -6.5 -36.5t-2.5 -40.5q0 -59 34 -98.5t102 -39.5q74 0 106 41t32 108v312q0 92 -77 92q-36 0 -56.5 -23t-20.5 -68v-109h-106v110q0 41 -20 61.5t-57 20.5h-66v92h65q43 0 78.5 -17
t53.5 -64h3q18 44 54.5 65t85.5 21q82 0 126.5 -47t44.5 -122v-328q0 -113 -64 -175t-182 -62zM443 941v-10q-15 -18 -42.5 -47t-58 -57t-54.5 -46h-70v12q15 19 33.5 45t36.5 53.5t31 49.5h124z" />
    <glyph glyph-name="uni1CA3_uni0302.ccmp" horiz-adv-x="632" 
d="M308 -9q-75 0 -130.5 27.5t-86.5 77.5t-31 115q0 26 3.5 47.5t9.5 39.5h108q-4 -15 -6.5 -36.5t-2.5 -40.5q0 -59 34 -98.5t102 -39.5q74 0 106 41t32 108v312q0 92 -77 92q-36 0 -56.5 -23t-20.5 -68v-109h-106v110q0 41 -20 61.5t-57 20.5h-66v92h65q43 0 78.5 -17
t53.5 -64h3q18 44 54.5 65t85.5 21q82 0 126.5 -47t44.5 -122v-328q0 -113 -64 -175t-182 -62zM368 941q12 -22 34.5 -49.5t47 -54t43.5 -44.5v-12h-73q-26 16 -55 39t-56 50q-54 -55 -108 -89h-72v12q19 19 42.5 45t46 53.5t35.5 49.5h115z" />
    <glyph glyph-name="uni1CA3_uni0304.ccmp" horiz-adv-x="632" 
d="M308 -9q-75 0 -130.5 27.5t-86.5 77.5t-31 115q0 26 3.5 47.5t9.5 39.5h108q-4 -15 -6.5 -36.5t-2.5 -40.5q0 -59 34 -98.5t102 -39.5q74 0 106 41t32 108v312q0 92 -77 92q-36 0 -56.5 -23t-20.5 -68v-109h-106v110q0 41 -20 61.5t-57 20.5h-66v92h65q43 0 78.5 -17
t53.5 -64h3q18 44 54.5 65t85.5 21q82 0 126.5 -47t44.5 -122v-328q0 -113 -64 -175t-182 -62zM464 871v-80h-307v80h307z" />
    <glyph glyph-name="uni1CA3_uni0304_uni0308.ccmp" horiz-adv-x="632" 
d="M308 -9q-75 0 -130.5 27.5t-86.5 77.5t-31 115q0 26 3.5 47.5t9.5 39.5h108q-4 -15 -6.5 -36.5t-2.5 -40.5q0 -59 34 -98.5t102 -39.5q74 0 106 41t32 108v312q0 92 -77 92q-36 0 -56.5 -23t-20.5 -68v-109h-106v110q0 41 -20 61.5t-57 20.5h-66v92h65q43 0 78.5 -17
t53.5 -64h3q18 44 54.5 65t85.5 21q82 0 126.5 -47t44.5 -122v-328q0 -113 -64 -175t-182 -62zM464 871v-80h-307v80h307zM162 1001q0 29 15.5 41.5t38.5 12.5q21 0 37 -12.5t16 -41.5q0 -27 -16 -40.5t-37 -13.5q-23 0 -38.5 13.5t-15.5 40.5zM353 1001q0 29 15.5 41.5
t37.5 12.5q21 0 37 -12.5t16 -41.5q0 -27 -16 -40.5t-37 -13.5q-22 0 -37.5 13.5t-15.5 40.5z" />
    <glyph glyph-name="uni1CB7_acutecomb.ccmp" horiz-adv-x="592" 
d="M295 -9q-71 0 -126 24.5t-86 69t-31 106.5q0 51 17.5 86.5t47 60t66 42t73.5 32.5q46 18 80.5 34.5t54 38t19.5 53.5q0 48 -31.5 72.5t-80.5 24.5q-61 0 -88.5 -26t-27.5 -67q0 -5 0.5 -11t1.5 -11h-109q-3 14 -3 30q0 75 59.5 124.5t164.5 49.5q68 0 118.5 -22.5
t79 -64.5t28.5 -101q0 -61 -29 -99t-76.5 -63t-101.5 -47q-43 -18 -77 -36.5t-53.5 -42.5t-19.5 -59q0 -51 36 -80.5t95 -29.5q58 0 94.5 28t36.5 84q0 20 -3 36h111q5 -21 5 -42q0 -65 -31 -108t-86 -64.5t-128 -21.5zM429 941v-10q-15 -18 -42.5 -47t-58 -57t-54.5 -46
h-70v12q15 19 33.5 45t36.5 53.5t31 49.5h124z" />
    <glyph glyph-name="uni1CB7_uni0304.ccmp" horiz-adv-x="592" 
d="M295 -9q-71 0 -126 24.5t-86 69t-31 106.5q0 51 17.5 86.5t47 60t66 42t73.5 32.5q46 18 80.5 34.5t54 38t19.5 53.5q0 48 -31.5 72.5t-80.5 24.5q-61 0 -88.5 -26t-27.5 -67q0 -5 0.5 -11t1.5 -11h-109q-3 14 -3 30q0 75 59.5 124.5t164.5 49.5q68 0 118.5 -22.5
t79 -64.5t28.5 -101q0 -61 -29 -99t-76.5 -63t-101.5 -47q-43 -18 -77 -36.5t-53.5 -42.5t-19.5 -59q0 -51 36 -80.5t95 -29.5q58 0 94.5 28t36.5 84q0 20 -3 36h111q5 -21 5 -42q0 -65 -31 -108t-86 -64.5t-128 -21.5zM450 871v-80h-307v80h307z" />
    <glyph glyph-name="uni10D0_uni0308.ccmp" horiz-adv-x="559" 
d="M277 -10q-66 0 -118 23.5t-82 69t-30 112.5q0 24 4.5 44.5t9.5 34.5h101q-4 -15 -6.5 -34.5t-2.5 -40.5q0 -58 33.5 -90t90.5 -32q56 0 88.5 32.5t32.5 92.5q0 50 -23 81.5t-52 59.5q-24 24 -48 50.5t-39.5 61.5t-15.5 84h106q0 -43 24 -75t55 -63q24 -24 47.5 -52
t39 -63.5t15.5 -83.5q0 -64 -29.5 -111.5t-81.5 -74t-119 -26.5zM130 668q0 29 15.5 41.5t38.5 12.5q21 0 37 -12.5t16 -41.5q0 -27 -16 -40.5t-37 -13.5q-23 0 -38.5 13.5t-15.5 40.5zM321 668q0 29 15.5 41.5t37.5 12.5q21 0 37 -12.5t16 -41.5q0 -27 -16 -40.5t-37 -13.5
q-22 0 -37.5 13.5t-15.5 40.5z" />
    <glyph glyph-name="uni10D0_acutecomb.ccmp" horiz-adv-x="559" 
d="M277 -10q-66 0 -118 23.5t-82 69t-30 112.5q0 24 4.5 44.5t9.5 34.5h101q-4 -15 -6.5 -34.5t-2.5 -40.5q0 -58 33.5 -90t90.5 -32q56 0 88.5 32.5t32.5 92.5q0 50 -23 81.5t-52 59.5q-24 24 -48 50.5t-39.5 61.5t-15.5 84h106q0 -43 24 -75t55 -63q24 -24 47.5 -52
t39 -63.5t15.5 -83.5q0 -64 -29.5 -111.5t-81.5 -74t-119 -26.5zM412 766v-10q-15 -18 -42.5 -47t-58 -57t-54.5 -46h-70v12q15 19 33.5 45t36.5 53.5t31 49.5h124z" />
    <glyph glyph-name="uni10D0_uni0304.ccmp" horiz-adv-x="559" 
d="M277 -10q-66 0 -118 23.5t-82 69t-30 112.5q0 24 4.5 44.5t9.5 34.5h101q-4 -15 -6.5 -34.5t-2.5 -40.5q0 -58 33.5 -90t90.5 -32q56 0 88.5 32.5t32.5 92.5q0 50 -23 81.5t-52 59.5q-24 24 -48 50.5t-39.5 61.5t-15.5 84h106q0 -43 24 -75t55 -63q24 -24 47.5 -52
t39 -63.5t15.5 -83.5q0 -64 -29.5 -111.5t-81.5 -74t-119 -26.5zM433 696v-80h-307v80h307z" />
    <glyph glyph-name="uni10D0_uni0304_uni0308.ccmp" horiz-adv-x="559" 
d="M277 -10q-66 0 -118 23.5t-82 69t-30 112.5q0 24 4.5 44.5t9.5 34.5h101q-4 -15 -6.5 -34.5t-2.5 -40.5q0 -58 33.5 -90t90.5 -32q56 0 88.5 32.5t32.5 92.5q0 50 -23 81.5t-52 59.5q-24 24 -48 50.5t-39.5 61.5t-15.5 84h106q0 -43 24 -75t55 -63q24 -24 47.5 -52
t39 -63.5t15.5 -83.5q0 -64 -29.5 -111.5t-81.5 -74t-119 -26.5zM433 696v-80h-307v80h307zM130 825q0 29 15.5 41.5t38.5 12.5q21 0 37 -12.5t16 -41.5q0 -27 -16 -40.5t-37 -13.5q-23 0 -38.5 13.5t-15.5 40.5zM321 825q0 29 15.5 41.5t37.5 12.5q21 0 37 -12.5t16 -41.5
q0 -27 -16 -40.5t-37 -13.5q-22 0 -37.5 13.5t-15.5 40.5z" />
    <glyph glyph-name="uni10D4_acutecomb.ccmp" horiz-adv-x="593" 
d="M284 -250q-71 0 -124.5 30t-83 83.5t-29.5 125.5q0 28 5.5 54t13.5 45h100q-5 -18 -9 -43.5t-4 -46.5q0 -68 32.5 -114.5t98.5 -46.5q72 0 102 47.5t30 126.5v304q0 70 -28.5 108.5t-87.5 38.5q-54 0 -86.5 -31t-32.5 -90q0 -42 9 -76h-102q-5 14 -9 34.5t-4 44.5
q0 67 30 112.5t81 69t113 23.5q102 0 162.5 -60.5t60.5 -170.5v-310q0 -123 -62 -190.5t-176 -67.5zM429 766v-10q-15 -18 -42.5 -47t-58 -57t-54.5 -46h-70v12q15 19 33.5 45t36.5 53.5t31 49.5h124z" />
    <glyph glyph-name="uni10D4_uni0304.ccmp" horiz-adv-x="593" 
d="M284 -250q-71 0 -124.5 30t-83 83.5t-29.5 125.5q0 28 5.5 54t13.5 45h100q-5 -18 -9 -43.5t-4 -46.5q0 -68 32.5 -114.5t98.5 -46.5q72 0 102 47.5t30 126.5v304q0 70 -28.5 108.5t-87.5 38.5q-54 0 -86.5 -31t-32.5 -90q0 -42 9 -76h-102q-5 14 -9 34.5t-4 44.5
q0 67 30 112.5t81 69t113 23.5q102 0 162.5 -60.5t60.5 -170.5v-310q0 -123 -62 -190.5t-176 -67.5zM450 696v-80h-307v80h307z" />
    <glyph glyph-name="uni10D8_acutecomb.ccmp" horiz-adv-x="581" 
d="M112 0q-30 69 -45 133t-15 143q0 124 60.5 198.5t178.5 74.5t178 -74.5t60 -198.5q0 -79 -14.5 -143t-45.5 -133h-105q29 69 43.5 134t14.5 142q0 92 -35 139t-96 47q-63 0 -97 -46.5t-34 -140.5q0 -77 14 -141.5t44 -133.5h-106zM423 766v-10q-15 -18 -42.5 -47t-58 -57
t-54.5 -46h-70v12q15 19 33.5 45t36.5 53.5t31 49.5h124z" />
    <glyph glyph-name="uni10D8_uni0304.ccmp" horiz-adv-x="581" 
d="M112 0q-30 69 -45 133t-15 143q0 124 60.5 198.5t178.5 74.5t178 -74.5t60 -198.5q0 -79 -14.5 -143t-45.5 -133h-105q29 69 43.5 134t14.5 142q0 92 -35 139t-96 47q-63 0 -97 -46.5t-34 -140.5q0 -77 14 -141.5t44 -133.5h-106zM444 696v-80h-307v80h307z" />
    <glyph glyph-name="uni10DD_uni0308.ccmp" horiz-adv-x="822" 
d="M114 0q-31 70 -46.5 134.5t-15.5 142.5q0 81 23.5 142t70 95.5t115.5 34.5q58 0 94.5 -26.5t52.5 -72.5h5q17 46 54 72.5t93 26.5q69 0 115.5 -34.5t70.5 -95.5t24 -142q0 -78 -15.5 -142.5t-47.5 -134.5h-106q31 69 46 134.5t15 142.5q0 89 -28 137t-83 48
q-44 0 -67 -33t-23 -94v-155h-101v155q0 56 -21.5 91.5t-68.5 35.5q-53 0 -81.5 -46t-28.5 -139q0 -78 14.5 -143t46.5 -134h-107zM262 668q0 29 15.5 41.5t38.5 12.5q21 0 37 -12.5t16 -41.5q0 -27 -16 -40.5t-37 -13.5q-23 0 -38.5 13.5t-15.5 40.5zM453 668
q0 29 15.5 41.5t37.5 12.5q21 0 37 -12.5t16 -41.5q0 -27 -16 -40.5t-37 -13.5q-22 0 -37.5 13.5t-15.5 40.5z" />
    <glyph glyph-name="uni10DD_acutecomb.ccmp" horiz-adv-x="822" 
d="M114 0q-31 70 -46.5 134.5t-15.5 142.5q0 81 23.5 142t70 95.5t115.5 34.5q58 0 94.5 -26.5t52.5 -72.5h5q17 46 54 72.5t93 26.5q69 0 115.5 -34.5t70.5 -95.5t24 -142q0 -78 -15.5 -142.5t-47.5 -134.5h-106q31 69 46 134.5t15 142.5q0 89 -28 137t-83 48
q-44 0 -67 -33t-23 -94v-155h-101v155q0 56 -21.5 91.5t-68.5 35.5q-53 0 -81.5 -46t-28.5 -139q0 -78 14.5 -143t46.5 -134h-107zM543 766v-10q-15 -18 -42.5 -47t-58 -57t-54.5 -46h-70v12q15 19 33.5 45t36.5 53.5t31 49.5h124z" />
    <glyph glyph-name="uni10DD_uni0304.ccmp" horiz-adv-x="822" 
d="M114 0q-31 70 -46.5 134.5t-15.5 142.5q0 81 23.5 142t70 95.5t115.5 34.5q58 0 94.5 -26.5t52.5 -72.5h5q17 46 54 72.5t93 26.5q69 0 115.5 -34.5t70.5 -95.5t24 -142q0 -78 -15.5 -142.5t-47.5 -134.5h-106q31 69 46 134.5t15 142.5q0 89 -28 137t-83 48
q-44 0 -67 -33t-23 -94v-155h-101v155q0 56 -21.5 91.5t-68.5 35.5q-53 0 -81.5 -46t-28.5 -139q0 -78 14.5 -143t46.5 -134h-107zM564 696v-80h-307v80h307z" />
    <glyph glyph-name="uni10DD_uni0304_uni0308.ccmp" horiz-adv-x="822" 
d="M114 0q-31 70 -46.5 134.5t-15.5 142.5q0 81 23.5 142t70 95.5t115.5 34.5q58 0 94.5 -26.5t52.5 -72.5h5q17 46 54 72.5t93 26.5q69 0 115.5 -34.5t70.5 -95.5t24 -142q0 -78 -15.5 -142.5t-47.5 -134.5h-106q31 69 46 134.5t15 142.5q0 89 -28 137t-83 48
q-44 0 -67 -33t-23 -94v-155h-101v155q0 56 -21.5 91.5t-68.5 35.5q-53 0 -81.5 -46t-28.5 -139q0 -78 14.5 -143t46.5 -134h-107zM564 696v-80h-307v80h307zM262 825q0 29 15.5 41.5t38.5 12.5q21 0 37 -12.5t16 -41.5q0 -27 -16 -40.5t-37 -13.5q-23 0 -38.5 13.5
t-15.5 40.5zM453 825q0 29 15.5 41.5t37.5 12.5q21 0 37 -12.5t16 -41.5q0 -27 -16 -40.5t-37 -13.5q-22 0 -37.5 13.5t-15.5 40.5z" />
    <glyph glyph-name="uni10E3_uni0308.ccmp" horiz-adv-x="613" 
d="M303 -250q-76 0 -131.5 30t-85.5 83.5t-30 125.5q0 28 5.5 54t13.5 45h100q-5 -18 -9 -43.5t-4 -46.5q0 -68 33.5 -114.5t107.5 -46.5q72 0 103 48t31 126v347q0 105 -75 105q-34 0 -53.5 -27t-19.5 -76v-124h-101v123q0 99 -77 99h-72v86h71q50 0 81.5 -21t46.5 -66h4
q36 92 134 92q79 0 123 -49.5t44 -126.5v-365q0 -123 -62.5 -190.5t-177.5 -67.5zM141 668q0 29 15.5 41.5t38.5 12.5q21 0 37 -12.5t16 -41.5q0 -27 -16 -40.5t-37 -13.5q-23 0 -38.5 13.5t-15.5 40.5zM332 668q0 29 15.5 41.5t37.5 12.5q21 0 37 -12.5t16 -41.5
q0 -27 -16 -40.5t-37 -13.5q-22 0 -37.5 13.5t-15.5 40.5z" />
    <glyph glyph-name="uni10E3_acutecomb.ccmp" horiz-adv-x="613" 
d="M303 -250q-76 0 -131.5 30t-85.5 83.5t-30 125.5q0 28 5.5 54t13.5 45h100q-5 -18 -9 -43.5t-4 -46.5q0 -68 33.5 -114.5t107.5 -46.5q72 0 103 48t31 126v347q0 105 -75 105q-34 0 -53.5 -27t-19.5 -76v-124h-101v123q0 99 -77 99h-72v86h71q50 0 81.5 -21t46.5 -66h4
q36 92 134 92q79 0 123 -49.5t44 -126.5v-365q0 -123 -62.5 -190.5t-177.5 -67.5zM423 766v-10q-15 -18 -42.5 -47t-58 -57t-54.5 -46h-70v12q15 19 33.5 45t36.5 53.5t31 49.5h124z" />
    <glyph glyph-name="uni10E3_uni0302.ccmp" horiz-adv-x="613" 
d="M303 -250q-76 0 -131.5 30t-85.5 83.5t-30 125.5q0 28 5.5 54t13.5 45h100q-5 -18 -9 -43.5t-4 -46.5q0 -68 33.5 -114.5t107.5 -46.5q72 0 103 48t31 126v347q0 105 -75 105q-34 0 -53.5 -27t-19.5 -76v-124h-101v123q0 99 -77 99h-72v86h71q50 0 81.5 -21t46.5 -66h4
q36 92 134 92q79 0 123 -49.5t44 -126.5v-365q0 -123 -62.5 -190.5t-177.5 -67.5zM347 766q12 -22 34.5 -49.5t47 -54t43.5 -44.5v-12h-73q-26 16 -55 39t-56 50q-54 -55 -108 -89h-72v12q19 19 42.5 45t46 53.5t35.5 49.5h115z" />
    <glyph glyph-name="uni10E3_uni0304.ccmp" horiz-adv-x="613" 
d="M303 -250q-76 0 -131.5 30t-85.5 83.5t-30 125.5q0 28 5.5 54t13.5 45h100q-5 -18 -9 -43.5t-4 -46.5q0 -68 33.5 -114.5t107.5 -46.5q72 0 103 48t31 126v347q0 105 -75 105q-34 0 -53.5 -27t-19.5 -76v-124h-101v123q0 99 -77 99h-72v86h71q50 0 81.5 -21t46.5 -66h4
q36 92 134 92q79 0 123 -49.5t44 -126.5v-365q0 -123 -62.5 -190.5t-177.5 -67.5zM444 696v-80h-307v80h307z" />
    <glyph glyph-name="uni10E3_uni0304_uni0308.ccmp" horiz-adv-x="613" 
d="M303 -250q-76 0 -131.5 30t-85.5 83.5t-30 125.5q0 28 5.5 54t13.5 45h100q-5 -18 -9 -43.5t-4 -46.5q0 -68 33.5 -114.5t107.5 -46.5q72 0 103 48t31 126v347q0 105 -75 105q-34 0 -53.5 -27t-19.5 -76v-124h-101v123q0 99 -77 99h-72v86h71q50 0 81.5 -21t46.5 -66h4
q36 92 134 92q79 0 123 -49.5t44 -126.5v-365q0 -123 -62.5 -190.5t-177.5 -67.5zM444 696v-80h-307v80h307zM141 825q0 29 15.5 41.5t38.5 12.5q21 0 37 -12.5t16 -41.5q0 -27 -16 -40.5t-37 -13.5q-23 0 -38.5 13.5t-15.5 40.5zM332 825q0 29 15.5 41.5t37.5 12.5
q21 0 37 -12.5t16 -41.5q0 -27 -16 -40.5t-37 -13.5q-22 0 -37.5 13.5t-15.5 40.5z" />
    <glyph glyph-name="uni10F7_acutecomb.ccmp" horiz-adv-x="562" 
d="M279 -250q-106 0 -169 57.5t-63 154.5q0 73 28 122t75.5 83t106.5 62q49 24 78.5 44t42 43t12.5 55q0 42 -26.5 66t-81.5 24q-58 0 -84.5 -24t-26.5 -70q0 -11 3 -24h-104q-4 16 -4 31q0 80 56.5 127.5t158.5 47.5q105 0 161 -48.5t56 -130.5q0 -53 -21.5 -92t-65.5 -71
t-111 -64q-43 -21 -75 -44t-50.5 -56t-18.5 -83q0 -56 34 -89t89 -33q56 0 92 30.5t36 93.5q0 21 -3 39t-7 29h108q10 -30 10 -73q0 -105 -65.5 -156t-170.5 -51zM414 766v-10q-15 -18 -42.5 -47t-58 -57t-54.5 -46h-70v12q15 19 33.5 45t36.5 53.5t31 49.5h124z" />
    <glyph glyph-name="uni10F7_uni0304.ccmp" horiz-adv-x="562" 
d="M279 -250q-106 0 -169 57.5t-63 154.5q0 73 28 122t75.5 83t106.5 62q49 24 78.5 44t42 43t12.5 55q0 42 -26.5 66t-81.5 24q-58 0 -84.5 -24t-26.5 -70q0 -11 3 -24h-104q-4 16 -4 31q0 80 56.5 127.5t158.5 47.5q105 0 161 -48.5t56 -130.5q0 -53 -21.5 -92t-65.5 -71
t-111 -64q-43 -21 -75 -44t-50.5 -56t-18.5 -83q0 -56 34 -89t89 -33q56 0 92 30.5t36 93.5q0 21 -3 39t-7 29h108q10 -30 10 -73q0 -105 -65.5 -156t-170.5 -51zM435 696v-80h-307v80h307z" />
    </font>
</defs>
</svg>
