<?xml version="1.0" standalone="no"?>
<!DOCTYPE svg PUBLIC "-//W3C//DTD SVG 1.1//EN" "http://www.w3.org/Graphics/SVG/1.1/DTD/svg11.dtd" >
<svg xmlns="http://www.w3.org/2000/svg" xmlns:xlink="http://www.w3.org/1999/xlink" version="1.1">
<metadata>
Created by FontForge 20170731 at Thu Sep 26 08:57:08 2019
 By Aleksey,,,
Copyright 2019 Google LLC. All rights reserved.
</metadata>
<defs>
<font id="NotoSansGeorgian-ExtraCondensedLight" horiz-adv-x="458" >
  <font-face 
    font-family="Noto Sans Georgian ExtCond Light"
    font-weight="300"
    font-stretch="extra-condensed"
    units-per-em="1000"
    panose-1="2 11 4 6 4 5 4 2 2 4"
    ascent="800"
    descent="-200"
    bbox="-117 -250 747 1011"
    underline-thickness="50"
    underline-position="-175"
    unicode-range="U+000D-2D2D"
  />
<missing-glyph horiz-adv-x="364" 
d="M33 0v666h265v-666h-265zM66 33h199v600h-199v-600z" />
    <glyph glyph-name=".notdef" horiz-adv-x="364" 
d="M33 0v666h265v-666h-265zM66 33h199v600h-199v-600z" />
    <glyph glyph-name=".null" horiz-adv-x="0" 
 />
    <glyph glyph-name="nonmarkingreturn" horiz-adv-x="333" 
 />
    <glyph glyph-name="NULL" horiz-adv-x="0" 
 />
    <glyph glyph-name="NULL" horiz-adv-x="0" 
 />
    <glyph glyph-name="CR" unicode="&#xd;" horiz-adv-x="177" 
 />
    <glyph glyph-name="space" unicode=" " horiz-adv-x="177" 
 />
    <glyph glyph-name="hyphen" unicode="-" horiz-adv-x="269" 
d="M27 244v54h215v-54h-215z" />
    <glyph glyph-name="uni00A0" unicode="&#xa0;" horiz-adv-x="177" 
 />
    <glyph glyph-name="acutecomb" unicode="&#x301;" horiz-adv-x="0" 
d="M82 765v-8q-14 -23 -37.5 -51.5t-48 -55t-44.5 -44.5h-33v12q31 40 55 75t45 72h63z" />
    <glyph glyph-name="uni0302" unicode="&#x302;" horiz-adv-x="0" 
d="M27 765q11 -23 28 -52.5t34 -56t29 -41.5v-9h-30q-21 23 -44 52.5t-44 58.5q-21 -27 -44.5 -58.5t-42.5 -52.5h-30v9q14 20 31 46.5t32.5 54t26.5 49.5h54z" />
    <glyph glyph-name="uni0304" unicode="&#x304;" horiz-adv-x="0" 
d="M112 669v-43h-223v43h223z" />
    <glyph glyph-name="uni0308" unicode="&#x308;" horiz-adv-x="0" 
d="M-109 651q0 19 9.5 30t24.5 11q14 0 23.5 -11t9.5 -30q0 -21 -9.5 -31.5t-23.5 -10.5q-15 0 -24.5 11t-9.5 31zM43 651q0 19 9.5 30t24.5 11q14 0 24 -10.5t10 -30.5t-10 -31t-24 -11q-15 0 -24.5 11t-9.5 31z" />
    <glyph glyph-name="uni0589" unicode="&#x589;" horiz-adv-x="200" 
d="M62 491q0 20 9 33.5t30 13.5q38 0 38 -47t-38 -47q-21 0 -30 13t-9 34zM62 41q0 20 8.5 33.5t30.5 13.5q21 0 29.5 -13.5t8.5 -33.5q0 -21 -8.5 -34t-29.5 -13q-23 0 -31 13.5t-8 33.5z" />
    <glyph glyph-name="uni10A0" unicode="&#x10a0;" horiz-adv-x="427" 
d="M277 -10q-110 0 -168 94.5t-58 257.5q0 121 39 205t107 116v3h-116v48h305v-50h-70q-66 0 -112.5 -41.5t-71.5 -114t-25 -164.5q0 -147 47 -225t128 -78q31 0 57.5 8.5t46.5 18.5v-51q-22 -13 -50 -20t-59 -7z" />
    <glyph glyph-name="uni10A1" unicode="&#x10a1;" horiz-adv-x="543" 
d="M341 0v208q0 33 1 66t2 54h-3q-36 -112 -138 -112q-74 0 -115.5 63.5t-41.5 175.5q0 79 12.5 140t37.5 119h57q-23 -52 -37 -114t-14 -144q0 -88 27.5 -140.5t84.5 -52.5q37 0 65.5 21.5t45 72t16.5 136.5v221h54v-665h138v-49h-192z" />
    <glyph glyph-name="uni10A2" unicode="&#x10a2;" horiz-adv-x="531" 
d="M329 0v665h-211v-263h-54v312h319v-665h138v-49h-192z" />
    <glyph glyph-name="uni10A3" unicode="&#x10a3;" horiz-adv-x="536" 
d="M267 -10q-72 0 -120 36.5t-72 101.5t-24 151q0 83 24.5 145.5t67.5 98.5t99 41v100h-166v50h384v-50h-165v-100q57 -5 99.5 -41t66.5 -98.5t24 -144.5q0 -87 -25 -152t-73.5 -101.5t-119.5 -36.5zM267 39q77 0 119.5 62.5t42.5 178.5q0 112 -44 175t-115 63t-116.5 -63
t-45.5 -176q0 -116 41.5 -178t117.5 -62z" />
    <glyph glyph-name="uni10A4" unicode="&#x10a4;" 
d="M329 0v665h-211v-263h-54v312h319v-714h-54z" />
    <glyph glyph-name="uni10A5" unicode="&#x10a5;" horiz-adv-x="581" 
d="M329 0v665h-211v-263h-54v312h319v-312h164v-196h-50v149h-114v-355h-54z" />
    <glyph glyph-name="uni10A6" unicode="&#x10a6;" horiz-adv-x="563" 
d="M335 -10q-61 0 -100 33t-57.5 92t-18.5 138v412h-152v49h206v-179q0 -28 -1 -57.5t-3 -55.5h4q19 54 53.5 86t85.5 32q54 0 91 -34.5t55.5 -96t18.5 -143.5q0 -84 -19 -146t-59 -96t-104 -34zM335 39q63 0 94.5 58t31.5 168q0 111 -33 168.5t-88 57.5q-42 0 -70.5 -30
t-42.5 -81.5t-14 -117.5q0 -107 29.5 -165t92.5 -58z" />
    <glyph glyph-name="uni10A7" unicode="&#x10a7;" horiz-adv-x="626" 
d="M428 402h164v-196h-50v149h-114v-355h-119q-119 0 -188.5 90.5t-69.5 261.5q0 180 70 271t190 91h117v-312zM374 49v616h-63q-100 0 -152 -79t-52 -232q0 -146 51.5 -225.5t150.5 -79.5h65z" />
    <glyph glyph-name="uni10A8" unicode="&#x10a8;" horiz-adv-x="339" 
d="M210 0v665h-203v49h257v-714h-54z" />
    <glyph glyph-name="uni10A9" unicode="&#x10a9;" horiz-adv-x="499" 
d="M377 0v100q0 31 0.5 59.5t1.5 57.5h-4q-20 -59 -56 -87.5t-81 -28.5q-85 0 -127 68.5t-42 190.5v354h54v-105q0 -33 -0.5 -60t-2.5 -46h4q20 58 58 87t83 29q57 0 93.5 -32.5t54.5 -91t18 -135.5v-360h-54zM250 149q53 0 89.5 55.5t36.5 153.5q0 102 -32 157.5t-91 55.5
q-40 0 -69.5 -26.5t-45 -73.5t-15.5 -108q0 -214 127 -214z" />
    <glyph glyph-name="uni10AA" unicode="&#x10aa;" horiz-adv-x="704" 
d="M475 -10q-61 0 -100 33t-57.5 92t-18.5 138v412h-181v-263h-54v312h289v-179q0 -57 -4 -113h4q20 54 54.5 86t84.5 32q55 0 91.5 -34.5t55.5 -96t19 -143.5q0 -84 -19.5 -146t-59.5 -96t-104 -34zM476 39q62 0 93.5 58t31.5 168q0 111 -32.5 168.5t-88.5 57.5
q-41 0 -69.5 -30t-43 -81.5t-14.5 -117.5q0 -107 29.5 -165t93.5 -58z" />
    <glyph glyph-name="uni10AB" unicode="&#x10ab;" horiz-adv-x="522" 
d="M222 -10q-85 0 -128 65t-43 173q0 121 50 174.5t142 53.5h92v209h-246v49h300v-258h99v-47h-99v-172q0 -115 -40.5 -181t-126.5 -66zM221 39q59 0 86 51.5t27 147.5v171h-91q-67 0 -101.5 -40t-34.5 -141q0 -88 28.5 -138.5t85.5 -50.5z" />
    <glyph glyph-name="uni10AC" unicode="&#x10ac;" horiz-adv-x="490" 
d="M69 0v714h333v-49h-279v-207q0 -16 -0.5 -39.5t-2.5 -44.5h2q17 46 49.5 76.5t91.5 30.5q73 0 115 -53.5t42 -182.5v-245h-54v241q0 102 -28.5 148t-89.5 46q-60 0 -92.5 -51.5t-32.5 -165.5v-218h-54z" />
    <glyph glyph-name="uni10AD" unicode="&#x10ad;" horiz-adv-x="581" 
d="M266 -10q-61 0 -102.5 30t-66 81.5t-35.5 118t-11 139.5q0 183 54.5 274t160.5 91q77 0 123.5 -48t67.5 -131t21 -187q0 -90 -15.5 -168t-53.5 -129q26 -26 54 -26q27 0 40 20.5t13 54.5h55q0 -56 -25 -88t-77 -32q-28 0 -49 12t-38 30q-22 -20 -51 -31t-65 -11zM265 41
q78 0 117 80t39 237q0 155 -39 235.5t-116 80.5q-80 0 -119 -81.5t-39 -234.5t40.5 -235t116.5 -82z" />
    <glyph glyph-name="uni10AE" unicode="&#x10ae;" horiz-adv-x="597" 
d="M343 -10q-89 0 -136.5 55.5t-47.5 175.5v444h-152v49h206v-488q0 -102 34.5 -144.5t95.5 -42.5q39 0 68 17t45.5 58t16.5 112v488h54v-492q0 -86 -24 -137t-65.5 -73t-94.5 -22z" />
    <glyph glyph-name="uni10AF" unicode="&#x10af;" horiz-adv-x="501" 
d="M372 0v208q0 33 1 66t2 54h-3q-36 -112 -138 -112q-74 0 -115.5 63t-41.5 172q0 59 18 115t60 97v2h-143v49h198v-51q-45 -45 -61 -96t-16 -112q0 -87 27.5 -139.5t84.5 -52.5q37 0 65.5 21.5t45 72t16.5 136.5v221h54v-714h-54z" />
    <glyph glyph-name="uni10B0" unicode="&#x10b0;" horiz-adv-x="653" 
d="M217 -10q-57 0 -95 29t-57 79t-19 112q0 51 13 94t32 74l47 -18q-16 -31 -25 -69.5t-9 -81.5q0 -77 29 -123.5t82 -46.5q55 0 82 49.5t27 141.5v484h54v-172q0 -16 -0.5 -39.5t-2.5 -44.5h2q17 43 47 63.5t64 20.5q42 0 71.5 -22.5t44.5 -58.5t15 -76q0 -39 -10.5 -76
t-29.5 -68l-48 15q17 29 25 60t8 60q0 52 -23.5 86t-65.5 34q-39 0 -68 -36t-29 -114v-119q0 -107 -38 -172t-123 -65z" />
    <glyph glyph-name="uni10B1" unicode="&#x10b1;" horiz-adv-x="441" 
d="M228 -10q-86 0 -125 65t-39 172v487h54v-484q0 -92 28 -141.5t83 -49.5q53 0 80.5 46.5t27.5 123.5q0 43 -9 81.5t-25 69.5l47 18q20 -31 32.5 -74t12.5 -94q0 -62 -18 -112t-55.5 -79t-93.5 -29z" />
    <glyph glyph-name="uni10B2" unicode="&#x10b2;" horiz-adv-x="433" 
d="M69 0v714h117q98 0 147 -46.5t49 -154.5q0 -114 -48 -167t-150 -53h-61v-244h244v-49h-298zM123 341h62q72 0 107 40t35 133q0 83 -36 117.5t-109 34.5h-59v-325z" />
    <glyph glyph-name="uni10B3" unicode="&#x10b3;" horiz-adv-x="534" 
d="M403 -151q-18 0 -35 5v43q11 -3 28 -3q33 0 50.5 20.5t17.5 54.5q0 36 -15 59.5t-34 40.5q-25 -37 -61 -58t-86 -21q-62 0 -103.5 29.5t-66.5 81t-36 118t-11 139.5q0 182 56 274t161 92q76 0 123 -46t69 -128.5t22 -191.5q0 -72 -9.5 -137t-32.5 -115q24 -20 49 -53.5
t25 -85.5q0 -56 -29.5 -87t-81.5 -31zM268 39q79 0 118.5 81t39.5 238q0 154 -39.5 236t-118.5 82q-82 0 -121.5 -83t-39.5 -235t41.5 -235.5t119.5 -83.5z" />
    <glyph glyph-name="uni10B4" unicode="&#x10b4;" horiz-adv-x="574" 
d="M262 0v182q-62 2 -109.5 32t-74.5 89.5t-27 152.5q0 90 30.5 149.5t84 89t122.5 29.5q68 0 121 -26t83.5 -84t30.5 -152q0 -141 -58 -208t-151 -72v-182h-52zM262 229v448q-44 -3 -79.5 -26t-56 -70.5t-20.5 -124.5q0 -119 43 -170.5t113 -56.5zM314 229q69 5 111.5 58.5
t42.5 174.5q0 76 -20.5 122t-55.5 68t-78 25v-448z" />
    <glyph glyph-name="uni10B5" unicode="&#x10b5;" horiz-adv-x="446" 
d="M191 0v409h-150v47h150v258h54v-258h150v-47h-150v-409h-54z" />
    <glyph glyph-name="uni10B6" unicode="&#x10b6;" horiz-adv-x="502" 
d="M64 0v492q0 87 23.5 137.5t65.5 72.5t95 22q89 0 136.5 -55.5t47.5 -175.5v-493h-54v488q0 102 -34 144.5t-96 42.5q-39 0 -68.5 -17t-45.5 -58t-16 -112v-488h-54z" />
    <glyph glyph-name="uni10B7" unicode="&#x10b7;" horiz-adv-x="470" 
d="M341 0v208q0 33 1 66t2 54h-3q-36 -112 -138 -112q-74 0 -115.5 63.5t-41.5 175.5q0 79 12.5 140t37.5 119h57q-23 -52 -37 -114t-14 -144q0 -88 27.5 -140.5t84.5 -52.5q37 0 65.5 21.5t45 72t16.5 136.5v221h54v-714h-54z" />
    <glyph glyph-name="uni10B8" unicode="&#x10b8;" horiz-adv-x="490" 
d="M241 -10q-51 0 -90 21.5t-60 59.5t-21 86q0 26 5.5 51.5t18.5 47.5l48 -15q-16 -39 -16 -80q0 -53 31 -87.5t83 -34.5q60 0 90.5 44t30.5 128v115q0 27 0.5 56.5t2.5 51.5h-3q-18 -46 -50.5 -76.5t-89.5 -30.5q-74 0 -115.5 50t-41.5 174v163h54v-157q0 -95 28 -139.5
t89 -44.5q60 0 93 51.5t33 165.5v124h54v-503q0 -102 -41.5 -161.5t-132.5 -59.5z" />
    <glyph glyph-name="uni10B9" unicode="&#x10b9;" horiz-adv-x="479" 
d="M75 0v714h54v-274h285v-440h-54v393h-231v-393h-54z" />
    <glyph glyph-name="uni10BA" unicode="&#x10ba;" horiz-adv-x="497" 
d="M258 -10q-69 0 -115 44.5t-69 127t-23 196.5q0 108 25.5 190.5t76.5 129t127 46.5q39 0 71.5 -9.5t62.5 -27.5l-20 -46q-24 15 -52.5 25t-61.5 10q-83 0 -127.5 -85.5t-44.5 -232.5q0 -150 39.5 -234.5t117.5 -84.5q39 0 69 15.5t54 41.5v202h54v-298h-54v44
q-24 -23 -54.5 -38.5t-75.5 -15.5z" />
    <glyph glyph-name="uni10BB" unicode="&#x10bb;" horiz-adv-x="642" 
d="M217 -10q-81 0 -123.5 65t-42.5 173q0 106 49.5 167t137.5 61h87v258h54v-258h198v-456h-50v409h-148v-183q0 -108 -40 -172t-122 -64zM216 39q55 0 81.5 49t26.5 139v182h-86q-63 0 -97 -47.5t-34 -133.5q0 -88 28 -138.5t81 -50.5z" />
    <glyph glyph-name="uni10BC" unicode="&#x10bc;" horiz-adv-x="420" 
d="M75 0v714h117q98 0 147 -46t49 -152q0 -109 -48 -161.5t-150 -52.5h-61v-94h167v-154h-50v107h-117v-161h-54zM129 350h62q72 0 107 39t35 128q0 82 -36 115.5t-109 33.5h-59v-316z" />
    <glyph glyph-name="uni10BD" unicode="&#x10bd;" horiz-adv-x="416" 
d="M209 -10q-75 0 -118.5 46.5t-43.5 131.5q0 17 2 35t5 31h54q-4 -15 -5.5 -31.5t-1.5 -33.5q0 -60 28 -96t81 -36q46 0 73.5 35t27.5 96q0 48 -16.5 80t-42 54.5t-53.5 42.5q-32 23 -62.5 48t-50 62t-19.5 94q0 81 39 128t109 47q67 0 104.5 -44.5t37.5 -112.5
q0 -15 -3 -28h-54q3 11 3 26q0 48 -22.5 80t-66.5 32q-48 0 -70 -34t-22 -92q0 -45 15 -73.5t40.5 -49t57.5 -42.5q32 -23 62 -49.5t49.5 -66t19.5 -100.5q0 -85 -41.5 -132.5t-115.5 -47.5z" />
    <glyph glyph-name="uni10BE" unicode="&#x10be;" horiz-adv-x="482" 
d="M69 714h54v-373h230v373h54v-419h-284v-246h271v-49h-325v714z" />
    <glyph glyph-name="uni10BF" unicode="&#x10bf;" horiz-adv-x="453" 
d="M36 0l170 369l-126 296h-68v49h397v-34l-135 -311l169 -369h-58l-145 325l-144 -325h-60zM240 410l108 255h-213z" />
    <glyph glyph-name="uni10C0" unicode="&#x10c0;" horiz-adv-x="677" 
d="M462 -10q-85 0 -124 65t-39 172v438h-181v-263h-54v312h289v-484q0 -92 27.5 -141.5t83.5 -49.5q52 0 80.5 46.5t28.5 123.5q0 43 -9 81.5t-25 69.5l47 18q19 -31 32 -74t13 -94q0 -62 -18.5 -112t-56 -79t-94.5 -29z" />
    <glyph glyph-name="uni10C1" unicode="&#x10c1;" horiz-adv-x="473" 
d="M75 0v714h54v-176q0 -50 -4 -96h2q33 100 121 100q66 0 95.5 -53.5t31.5 -167.5h78v-47h-131v35q0 100 -20.5 143t-68.5 43q-34 0 -57.5 -25t-35 -68.5t-11.5 -97.5v-304h-54z" />
    <glyph glyph-name="uni10C2" unicode="&#x10c2;" horiz-adv-x="437" 
d="M165 -10q-33 0 -60.5 7.5t-52.5 19.5v52q20 -11 46.5 -20.5t61.5 -9.5q55 0 93 35t57 96t19 139q0 72 -17.5 133.5t-57 99t-103.5 37.5h-70v135h52v-88h32q76 0 125 -42t72.5 -114t23.5 -160q0 -96 -26 -168t-75.5 -112t-119.5 -40z" />
    <glyph glyph-name="uni10C3" unicode="&#x10c3;" horiz-adv-x="469" 
d="M341 0v175q0 33 1 65.5t2 53.5h-3q-36 -111 -138 -111q-75 0 -116 60t-41 160q0 55 12 99.5t31 75.5l47 -18q-16 -31 -25 -70t-9 -86q0 -76 27.5 -125t84.5 -49q37 0 65.5 22t45 72.5t16.5 134.5v255h54v-714h-54z" />
    <glyph glyph-name="uni10C4" unicode="&#x10c4;" horiz-adv-x="504" 
d="M225 0v259q-76 7 -117 68.5t-41 188.5v198h54v-195q0 -116 34 -165t97 -49q61 0 96.5 48.5t35.5 163.5v197h54v-198q0 -125 -42.5 -187t-116.5 -70v-259h-54z" />
    <glyph glyph-name="uni10C5" unicode="&#x10c5;" horiz-adv-x="588" 
d="M167 -10q-57 0 -90 36t-33 113q0 75 39 114t105 39h50v231q0 106 41 153.5t112 47.5t112 -41.5t41 -120.5q0 -76 -41.5 -116t-114.5 -40h-96v-114h188v-168h-50v124h-138v-74q0 -98 -32 -141t-93 -43zM293 450h95q51 0 76 29.5t25 81.5q0 54 -24 86.5t-73 32.5
q-48 0 -73.5 -37.5t-25.5 -118.5v-74zM167 34q34 0 52.5 31t18.5 107v76h-48q-42 0 -66.5 -28t-24.5 -80q0 -56 18.5 -81t49.5 -25z" />
    <glyph glyph-name="uni10C7" unicode="&#x10c7;" horiz-adv-x="407" 
d="M205 -10q-75 0 -116.5 49.5t-41.5 135.5q0 59 17 97.5t47 64.5t68 49q34 20 59 40.5t38 49t13 74.5q0 59 -23 94t-68 35q-43 0 -65.5 -32.5t-22.5 -80.5q0 -13 3 -26h-54q-3 13 -3 27q0 68 36.5 112.5t104.5 44.5t107.5 -47t39.5 -127q0 -53 -17 -90t-46 -63.5t-66 -50.5
q-32 -20 -58 -42t-41 -52.5t-15 -78.5q0 -64 26.5 -101t74.5 -37q53 0 80.5 37.5t27.5 100.5q0 34 -6 61h54q3 -13 4.5 -29.5t1.5 -32.5q0 -86 -42.5 -134t-116.5 -48z" />
    <glyph glyph-name="uni10CD" unicode="&#x10cd;" horiz-adv-x="342" 
d="M27 0v45l230 619h-222v50h281v-45l-230 -618h236v-51h-295z" />
    <glyph glyph-name="uni10D0" unicode="&#x10d0;" horiz-adv-x="390" 
d="M193 -10q-69 0 -111.5 42.5t-42.5 130.5q0 25 3 46.5t11 45.5h50q-5 -22 -7.5 -43.5t-2.5 -46.5q0 -70 28 -98.5t71 -28.5q46 0 73 32t27 98q0 59 -18.5 97.5t-41.5 73.5q-24 37 -44.5 80.5t-20.5 112.5h54q0 -52 15.5 -90t36.5 -71q18 -28 35 -57t28 -64.5t11 -83.5
q0 -62 -22 -101t-57 -57t-75 -18z" />
    <glyph glyph-name="uni10D1" unicode="&#x10d1;" horiz-adv-x="423" 
d="M246 539q68 -14 101 -84t33 -188q0 -133 -41.5 -205t-126.5 -72q-84 0 -126 72.5t-42 205.5q0 126 36.5 196t113.5 77q14 24 14 59q0 22 -8 37t-19 28q-14 17 -26 37.5t-12 57.5h54q0 -25 8.5 -41t21.5 -31q13 -16 24 -34.5t11 -50.5q0 -34 -16 -64zM213 38
q58 0 85.5 56.5t27.5 172.5q0 109 -26.5 168t-87.5 59q-60 0 -87 -57.5t-27 -168.5q0 -113 27.5 -171.5t87.5 -58.5z" />
    <glyph glyph-name="uni10D2" unicode="&#x10d2;" horiz-adv-x="413" 
d="M207 -250q-84 0 -126 71t-42 197q0 127 39.5 189.5t115.5 74.5q47 7 65.5 39.5t18.5 78.5q0 41 -17 69.5t-55 28.5q-73 0 -73 -89q0 -28 5 -50h-51q-3 11 -4.5 23.5t-1.5 29.5q0 60 34.5 95t90.5 35q60 0 92.5 -40.5t32.5 -102.5q0 -42 -16.5 -77.5t-55.5 -52.5v-3
q59 -19 87.5 -79.5t28.5 -169.5q0 -126 -41.5 -196.5t-126.5 -70.5zM208 -202q113 0 113 219q0 102 -26.5 159.5t-87.5 57.5q-59 0 -86.5 -56.5t-27.5 -159.5q0 -106 27.5 -163t87.5 -57z" />
    <glyph glyph-name="uni10D3" unicode="&#x10d3;" horiz-adv-x="611" 
d="M389 -250q-14 39 -38.5 71t-57 51.5t-67.5 19.5q-24 0 -48 -5.5t-46 -17.5l-17 35q43 22 104 22v2q-88 47 -131.5 137t-43.5 213q0 126 32 195t103 69q45 0 75 -30.5t36 -92.5h3q12 65 45.5 94t75.5 29q80 0 117 -70.5t37 -203.5q0 -131 -38.5 -202t-114.5 -71
q-80 0 -116.5 71.5t-36.5 200.5v59q0 87 -16.5 127.5t-61.5 40.5q-48 0 -67 -54.5t-19 -161.5q0 -78 14.5 -133t39 -93.5t56 -65.5t65.5 -47q54 -32 96 -70.5t65 -101.5zM414 43q53 0 76 56t23 169q0 111 -22.5 168.5t-76.5 57.5q-52 0 -75 -58t-23 -169q0 -112 23 -168
t75 -56z" />
    <glyph glyph-name="uni10D4" unicode="&#x10d4;" horiz-adv-x="422" 
d="M200 -250q-59 0 -94.5 30t-51 76.5t-15.5 97.5q0 45 7.5 75.5t14.5 45.5h50q-5 -14 -11.5 -43t-6.5 -76q0 -69 25 -113.5t81 -44.5q107 0 107 174v392q0 66 -26.5 98t-69.5 32t-70.5 -28.5t-27.5 -98.5q0 -25 2.5 -46t7.5 -44h-50q-8 24 -11 45.5t-3 47.5q0 87 42 129.5
t110 42.5q39 0 73 -18t55.5 -56.5t21.5 -100.5v-396q0 -110 -43.5 -165.5t-116.5 -55.5z" />
    <glyph glyph-name="uni10D5" unicode="&#x10d5;" horiz-adv-x="408" 
d="M200 -250q-59 0 -94.5 29.5t-51 74t-15.5 90.5q0 35 7 64t14 46h49q-6 -17 -11 -44t-5 -64q0 -61 25 -104.5t81 -43.5q115 0 115 180q0 99 -35.5 140t-86.5 41h-29v49h29q51 0 82 41.5t31 112.5q0 68 -27 100t-69 32t-69.5 -27.5t-27.5 -89.5q0 -24 2.5 -41.5t6.5 -35.5
h-50q-13 36 -13 80q0 80 42 121t109 41q62 0 106 -42t44 -134q0 -65 -28 -113.5t-80 -66.5v-3q54 -12 86 -61t32 -144q0 -114 -46.5 -171t-122.5 -57z" />
    <glyph glyph-name="uni10D6" unicode="&#x10d6;" horiz-adv-x="444" 
d="M237 -10q-81 0 -122 70t-41 187q0 142 59 203v3q-48 7 -75.5 48.5t-27.5 107.5q0 75 32 118t93 43t93.5 -43.5t32.5 -115.5q0 -33 -7.5 -59.5t-23.5 -46.5v-2q3 0 6 -0.5t7 -0.5q73 -7 105.5 -76t32.5 -177q0 -120 -40 -189.5t-124 -69.5zM156 491q38 0 55.5 28.5
t17.5 90.5q0 51 -17.5 83.5t-56.5 32.5q-37 0 -54.5 -31.5t-17.5 -84.5q0 -55 18 -87t55 -32zM238 38q57 0 82.5 54t25.5 158q0 96 -24.5 152.5t-84.5 56.5q-58 0 -83 -55.5t-25 -153.5q0 -100 26 -156t83 -56z" />
    <glyph glyph-name="uni10D7" unicode="&#x10d7;" horiz-adv-x="611" 
d="M197 -10q-77 0 -115 72t-38 206q0 133 36.5 203.5t116.5 70.5q42 0 76 -29t46 -94h2q6 62 36 92.5t75 30.5q71 0 103.5 -70t32.5 -188q0 -81 -13.5 -147t-39.5 -137h-50q25 68 36.5 137t11.5 147q0 102 -18.5 156t-66.5 54q-45 0 -61.5 -40.5t-16.5 -127.5v-59
q0 -133 -37 -205t-116 -72zM197 38q52 0 75.5 56.5t23.5 172.5q0 111 -23.5 169t-75.5 58q-54 0 -76.5 -57.5t-22.5 -168.5q0 -116 23.5 -173t75.5 -57z" />
    <glyph glyph-name="uni10D8" unicode="&#x10d8;" horiz-adv-x="410" 
d="M96 0q-27 70 -39.5 137t-12.5 154q0 127 41.5 189t119.5 62t120 -63.5t42 -187.5q0 -86 -13.5 -153t-39.5 -138h-50q25 68 36.5 137.5t11.5 151.5q0 106 -27 155.5t-80 49.5q-52 0 -79.5 -50t-27.5 -155q0 -84 12 -152.5t37 -136.5h-51z" />
    <glyph glyph-name="uni10D9" unicode="&#x10d9;" horiz-adv-x="393" 
d="M195 -250q-57 0 -92.5 28.5t-52 73t-16.5 92.5q0 35 6.5 64.5t13.5 45.5h49q-5 -15 -10 -43t-5 -65q0 -64 26.5 -106t80.5 -42q104 0 104 185q0 72 -16 115t-44 62t-62 19h-29v49h29q51 0 82 40t31 99q0 64 -30 95.5t-66 31.5v48q39 0 73 -19t55.5 -56.5t21.5 -94.5
q0 -62 -28 -106t-80 -60v-3q54 -13 86 -64t32 -156q0 -118 -42 -175.5t-117 -57.5z" />
    <glyph glyph-name="uni10DA" unicode="&#x10da;" horiz-adv-x="729" 
d="M469 -250q-17 43 -51 77t-74 54t-75 20q-33 0 -64 -8.5t-53 -22.5l-16 34q22 14 52.5 23t60.5 9v2q-57 22 -103.5 69.5t-74 119.5t-27.5 169q0 115 31.5 180.5t94.5 65.5q42 0 66 -25.5t33 -67.5h2q8 42 31.5 67.5t62.5 25.5q38 0 61.5 -25.5t32.5 -67.5h2q8 42 32 67.5
t67 25.5q62 0 94 -67t32 -191q0 -65 -10 -120t-32 -110l-47 14q19 52 26.5 104.5t7.5 111.5q0 101 -17.5 155.5t-60.5 54.5q-39 0 -53 -41t-14 -125v-142h-52v142q0 85 -15.5 125.5t-53.5 40.5q-39 0 -54 -40.5t-15 -125.5v-142h-52v142q0 84 -14.5 125t-52.5 41
q-44 0 -61.5 -53t-17.5 -145q0 -83 18.5 -142t49 -99.5t69 -66.5t78.5 -42q68 -29 122 -72.5t80 -106.5z" />
    <glyph glyph-name="uni10DB" unicode="&#x10db;" horiz-adv-x="438" 
d="M211 -10q-58 0 -95 35.5t-54.5 97.5t-17.5 139q0 135 40 205t113 70q47 0 78.5 -26.5t46.5 -63.5h3q-2 20 -2.5 37t-0.5 34v86q0 60 -27 90.5t-74 30.5q-40 0 -69 -20.5t-29 -68.5q0 -10 1.5 -19.5t3.5 -18.5h-51q-4 11 -6 22.5t-2 23.5q0 57 43.5 91.5t109.5 34.5
q41 0 76 -17.5t56.5 -53.5t21.5 -92v-346q0 -140 -44.5 -205.5t-120.5 -65.5zM211 38q55 0 83 57.5t28 162.5v43q0 90 -29 140.5t-85 50.5q-55 0 -82 -59t-27 -171q0 -106 27.5 -165t84.5 -59z" />
    <glyph glyph-name="uni10DC" unicode="&#x10dc;" horiz-adv-x="438" 
d="M227 -10q-76 0 -120 65.5t-44 205.5v339q0 80 43.5 120t116.5 40h138v-46h-133q-112 0 -112 -114v-80q0 -17 -0.5 -34t-1.5 -37h3q14 37 46 65t78 28q74 0 114 -72t40 -208q0 -77 -17.5 -139t-54.5 -97.5t-96 -35.5zM228 38q56 0 84 59t28 165q0 113 -27.5 172.5
t-81.5 59.5q-57 0 -86 -52t-29 -147v-37q0 -105 28 -162.5t84 -57.5z" />
    <glyph glyph-name="uni10DD" unicode="&#x10dd;" horiz-adv-x="550" 
d="M97 0q-27 70 -40 136t-13 148q0 124 32 191t98 67q43 0 67 -25.5t33 -67.5h2q8 42 32 67.5t66 25.5q68 0 100 -70t32 -188q0 -81 -13.5 -147t-39.5 -137h-50q25 68 36.5 137t11.5 147q0 102 -18 156t-63 54q-41 0 -55 -40.5t-14 -125.5v-142h-52v142q0 84 -14.5 125
t-54.5 41q-46 0 -64 -54.5t-18 -155.5q0 -81 12.5 -148.5t36.5 -135.5h-50z" />
    <glyph glyph-name="uni10DE" unicode="&#x10de;" horiz-adv-x="403" 
d="M200 -10q-72 0 -116.5 43.5t-44.5 129.5q0 25 3 46.5t11 45.5h50q-5 -22 -7.5 -43.5t-2.5 -46.5q0 -68 30 -97.5t77 -29.5q50 0 77 43t27 136q0 96 -37.5 139t-89.5 43h-29v49h28q45 0 76.5 21.5t31.5 65.5q0 36 -16 59.5t-37 43.5q-28 24 -50 50t-22 72h54
q0 -33 18 -54.5t43 -43.5q25 -23 45 -52t20 -75q0 -45 -28 -72t-80 -37v-3q52 -10 90 -60t38 -146q0 -119 -44 -173t-115 -54z" />
    <glyph glyph-name="uni10DF" unicode="&#x10df;" horiz-adv-x="464" 
d="M236 -250q-58 0 -93.5 27.5t-51.5 68.5t-16 84q0 36 7 62t14 44h50q-6 -17 -11.5 -43.5t-5.5 -61.5q0 -55 25.5 -94t81.5 -39q107 0 107 174v512q-33 -19 -73 -33.5t-84 -21.5v-3q30 -13 49.5 -44.5t19.5 -77.5q0 -59 -28.5 -96.5t-80.5 -37.5q-54 0 -82 34t-28 83
q0 21 5 39h46q-2 -8 -3 -17t-1 -19q0 -34 15.5 -56.5t47.5 -22.5t46.5 26.5t14.5 69.5q0 47 -21 74t-48 34v41q125 20 217 76h41v-564q0 -110 -43.5 -164t-116.5 -54z" />
    <glyph glyph-name="uni10E0" unicode="&#x10e0;" horiz-adv-x="550" 
d="M97 0q-27 70 -40 136.5t-13 151.5v54q0 84 10 158.5t40.5 130.5t90.5 86q32 17 82 30t106 23l9 -47q-43 -8 -93 -19t-81 -27q-51 -26 -76.5 -71t-40.5 -132h2q17 42 40 55t47 13q38 0 61.5 -25.5t32.5 -67.5h2q8 42 32 67.5t66 25.5q68 0 100 -70t32 -188
q0 -81 -13.5 -147t-39.5 -137h-50q25 68 36.5 137t11.5 147q0 102 -18 156t-63 54q-41 0 -55 -40.5t-14 -125.5v-142h-52v142q0 84 -14.5 125t-54.5 41q-46 0 -64 -54.5t-18 -155.5q0 -81 12.5 -148.5t36.5 -135.5h-50z" />
    <glyph glyph-name="uni10E1" unicode="&#x10e1;" horiz-adv-x="437" 
d="M229 -10q-77 0 -121.5 59t-44.5 188v523h53v-523q0 -96 28.5 -147.5t84.5 -51.5q55 0 82.5 49t27.5 127q0 46 -9 79.5t-25 64.5q-20 36 -36 74.5t-16 99.5h53q0 -50 14.5 -85.5t33.5 -70.5t29.5 -73t10.5 -90q0 -65 -19 -115.5t-55.5 -79t-90.5 -28.5z" />
    <glyph glyph-name="uni10E2" unicode="&#x10e2;" horiz-adv-x="522" 
d="M262 -249q-83 0 -130.5 52.5t-67.5 145t-20 210.5q0 179 49 272t144 103q-1 18 -1.5 37t-0.5 37v48h52v-47q0 -19 -1 -37.5t-2 -37.5q70 -7 112.5 -55t62 -130t19.5 -190q0 -121 -19.5 -213t-67 -143.5t-129.5 -51.5zM262 -200q82 0 122 86t40 273q0 153 -35 236.5
t-105 92.5q1 -20 2 -41t1 -51v-210h-52v210q0 30 0.5 50.5t1.5 40.5q-70 -9 -104.5 -93t-34.5 -235q0 -183 42 -271t122 -88z" />
    <glyph glyph-name="uni10E3" unicode="&#x10e3;" 
d="M228 -250q-65 0 -103 30t-54 76.5t-16 97.5q0 45 7.5 75.5t14.5 45.5h50q-5 -14 -11.5 -43t-6.5 -76q0 -69 26.5 -113.5t91.5 -44.5q115 0 115 174v404q0 54 -16 86t-56 32q-41 0 -58 -32.5t-17 -82.5v-137h-52v137q0 50 -19 80t-61 30h-38v48h41q46 0 70 -25t31 -61h2
q8 36 34 63.5t72 27.5q64 0 92.5 -43.5t28.5 -117.5v-415q0 -110 -44.5 -163t-123.5 -53z" />
    <glyph glyph-name="uni10E4" unicode="&#x10e4;" horiz-adv-x="599" 
d="M348 -250q-61 0 -102 22t-61.5 59t-20.5 81q0 10 1.5 19.5t3.5 19.5h52q-2 -9 -2.5 -17t-0.5 -15q0 -53 32.5 -87t97.5 -34q70 0 102 45t32 115q0 41 -9.5 75t-29 55t-49.5 21h-16v49h20q34 0 57 23t35 62.5t12 88.5q0 44 -8.5 81t-27 59t-50.5 22q-44 0 -61 -40.5
t-17 -127.5v-29q0 -108 -35.5 -175t-112.5 -67q-74 0 -110 66.5t-36 176.5q0 112 34.5 178t110.5 66q42 0 74.5 -27.5t44.5 -90.5h2q8 57 36.5 87.5t73.5 30.5q47 0 77 -30t44.5 -77.5t14.5 -102.5q0 -74 -26 -127.5t-86 -71.5v-3q47 -13 70 -60t23 -112q0 -96 -48.5 -152
t-140.5 -56zM191 103q50 0 72 51.5t22 142.5q0 90 -22 143.5t-72 53.5q-52 0 -73 -53t-21 -143q0 -92 21.5 -143.5t72.5 -51.5z" />
    <glyph glyph-name="uni10E5" unicode="&#x10e5;" horiz-adv-x="422" 
d="M200 -250q-59 0 -94.5 30t-51 76.5t-15.5 97.5q0 45 7.5 75.5t14.5 45.5h50q-5 -14 -11.5 -43t-6.5 -76q0 -69 25 -113.5t81 -44.5q107 0 107 174v333q0 88 -28.5 138.5t-77.5 50.5q-35 0 -61.5 -28.5t-26.5 -98.5q0 -25 2.5 -46t7.5 -44h-50q-8 24 -11 45.5t-3 47.5
q0 87 39.5 129.5t92.5 42.5q42 0 71.5 -28t44.5 -65h3q-2 20 -2.5 37t-0.5 34v240h54v-789q0 -110 -43.5 -165.5t-116.5 -55.5z" />
    <glyph glyph-name="uni10E6" unicode="&#x10e6;" horiz-adv-x="550" 
d="M360 -250q-18 59 -55.5 100t-88.5 41q-24 0 -47.5 -5t-45.5 -17l-17 35q44 22 104 22v2q-88 48 -127 137.5t-39 212.5q0 128 32 196t98 68q43 0 67 -25.5t33 -67.5h2q8 42 32 67.5t66 25.5q68 0 100 -70t32 -188q0 -65 -10 -120t-32 -110l-47 14q19 52 26.5 104.5
t7.5 111.5q0 102 -18 156t-63 54q-41 0 -55 -40.5t-14 -125.5v-142h-52v142q0 84 -14.5 125t-54.5 41q-46 0 -64 -55t-18 -161q0 -103 22.5 -167.5t60.5 -104t83 -67.5q54 -33 87 -72.5t54 -99.5z" />
    <glyph glyph-name="uni10E7" unicode="&#x10e7;" horiz-adv-x="428" 
d="M206 -250q-59 0 -94.5 27.5t-51 68.5t-15.5 84q0 36 6.5 62t14.5 44h49q-6 -17 -11 -43.5t-5 -61.5q0 -55 25 -94t81 -39q108 0 108 174v138q0 27 0.5 56t2.5 67h-3q-18 -53 -51 -77.5t-73 -24.5q-71 0 -107 58.5t-36 155.5q0 54 7.5 99t23.5 88h51q-14 -46 -21 -89
t-7 -95q0 -48 9.5 -86.5t32 -61t60.5 -22.5q30 0 55.5 20t40.5 67.5t15 127.5v139h53v-561q0 -110 -43.5 -165.5t-116.5 -55.5z" />
    <glyph glyph-name="uni10E8" unicode="&#x10e8;" horiz-adv-x="438" 
d="M211 -10q-58 0 -95 35.5t-54.5 95t-17.5 131.5q0 127 40 196t113 69q47 0 78.5 -26.5t46.5 -63.5h3q-2 20 -2.5 37t-0.5 34v139q0 48 -17 68t-44 20q-25 0 -42.5 -18t-17.5 -61v-53h-52v50q0 34 -13.5 57t-45.5 23q-24 0 -47 -11l-15 43q29 15 65 15q28 0 49 -13t32 -46
h2q11 33 35.5 46t55.5 13q26 0 51 -12t41.5 -40t16.5 -76v-391q0 -133 -44.5 -197t-120.5 -64zM211 38q55 0 83 56.5t28 153.5v38q0 86 -29 136t-85 50q-55 0 -82 -58t-27 -162q0 -98 27.5 -156t84.5 -58z" />
    <glyph glyph-name="uni10E9" unicode="&#x10e9;" horiz-adv-x="428" 
d="M63 0v626q0 69 37 106.5t93 37.5q59 0 93 -34t34 -89q0 -35 -15 -65.5t-48 -51.5v-3q64 -7 99 -69.5t35 -182.5q0 -81 -11.5 -153t-26.5 -122h-53q15 50 26 121.5t11 150.5q0 104 -27.5 159t-80.5 55q-31 0 -57 -21t-41.5 -69.5t-15.5 -132.5v-263h-52zM113 432h2
q10 30 26 49.5t38 35.5q28 19 47 36t29.5 38t10.5 53q0 36 -18.5 57.5t-53.5 21.5q-36 0 -57.5 -27.5t-21.5 -74.5v-100q0 -17 -0.5 -35z" />
    <glyph glyph-name="uni10EA" unicode="&#x10ea;" horiz-adv-x="462" 
d="M245 -250q-103 0 -152 98t-49 300q0 113 16.5 210t46.5 174h53q-30 -83 -45.5 -178t-15.5 -206q0 -173 33.5 -262t112.5 -89q124 0 124 188q0 99 -32 142.5t-86 43.5h-27v49h28q46 0 76 21.5t30 65.5q0 36 -12 59.5t-28 43.5q-19 24 -35 51.5t-16 70.5h54q0 -36 14 -59
t33 -46q17 -22 30.5 -48.5t13.5 -66.5q0 -49 -26.5 -77t-78.5 -38v-3q52 -10 84.5 -60t32.5 -149q0 -116 -46 -175.5t-133 -59.5z" />
    <glyph glyph-name="uni10EB" unicode="&#x10eb;" horiz-adv-x="438" 
d="M211 -10q-58 0 -95 35.5t-54.5 97.5t-17.5 139q0 136 40 208t113 72q47 0 78.5 -28t46.5 -65h3q-2 20 -2.5 37t-0.5 34v240h54v-499q0 -140 -44.5 -205.5t-120.5 -65.5zM211 38q55 0 83 57.5t28 162.5v37q0 95 -29 147t-85 52q-55 0 -82 -59.5t-27 -172.5
q0 -106 27.5 -165t84.5 -59z" />
    <glyph glyph-name="uni10EC" unicode="&#x10ec;" horiz-adv-x="438" 
d="M227 -10q-76 0 -120 64t-44 197v391q0 48 16 76t41.5 40t51.5 12q30 0 54.5 -13t35.5 -46h3q10 33 31 46t49 13q36 0 66 -15l-16 -43q-23 11 -46 11q-33 0 -46 -23t-13 -57v-50h-53v53q0 43 -17.5 61t-42.5 18q-27 0 -44 -20t-17 -68v-139q0 -17 -0.5 -34t-1.5 -37h3
q14 37 46 63.5t78 26.5q74 0 114 -69t40 -196q0 -72 -17.5 -131.5t-54.5 -95t-96 -35.5zM228 38q56 0 84 58t28 156q0 104 -27.5 162t-81.5 58q-57 0 -86 -50t-29 -136v-38q0 -97 28 -153.5t84 -56.5z" />
    <glyph glyph-name="uni10ED" unicode="&#x10ed;" horiz-adv-x="428" 
d="M222 -250q-59 0 -95 30t-52 76.5t-16 97.5q0 45 7.5 75.5t14.5 45.5h50q-5 -14 -11.5 -43t-6.5 -76q0 -69 25.5 -113.5t83.5 -44.5q54 0 81 42t27 118q0 59 -13.5 100.5t-31.5 83.5q-16 37 -27 79t-12 104h-3q-11 -24 -34.5 -40t-53.5 -16q-49 0 -82.5 35t-33.5 96
q0 45 18 74t48 43.5t65 14.5h69v228h53v-228h81v-48h-81v-117q0 -70 12.5 -119.5t31.5 -91.5q20 -45 34.5 -90.5t14.5 -110.5q0 -98 -44 -151.5t-119 -53.5zM163 316q33 0 54.5 24.5t21.5 71.5v72h-65q-36 0 -58.5 -21t-22.5 -63q0 -44 21.5 -64t48.5 -20z" />
    <glyph glyph-name="uni10EE" unicode="&#x10ee;" horiz-adv-x="438" 
d="M227 -10q-76 0 -120 65.5t-44 205.5v499h53v-240q0 -17 -0.5 -34t-1.5 -37h3q14 37 46 65t78 28q74 0 114 -72t40 -208q0 -77 -17.5 -139t-54.5 -97.5t-96 -35.5zM228 38q56 0 84 59t28 165q0 113 -27.5 172.5t-81.5 59.5q-57 0 -86 -52t-29 -147v-37q0 -105 28 -162.5
t84 -57.5z" />
    <glyph glyph-name="uni10EF" unicode="&#x10ef;" horiz-adv-x="399" 
d="M227 291q0 -63 21.5 -103t49.5 -79q24 -35 43.5 -77t19.5 -105q0 -82 -44 -129.5t-117 -47.5q-59 0 -94.5 27.5t-51 68.5t-15.5 84q0 36 6.5 62t14.5 44h49q-6 -17 -11 -43.5t-5 -61.5q0 -55 25 -94t81 -39q53 0 80 36t27 93q0 54 -16 90t-38 68q-20 27 -37.5 55
t-28.5 64t-11 87v74l-126 37v48l126 -37v129h52v-144l124 -35v-48l-124 35v-59z" />
    <glyph glyph-name="uni10F0" unicode="&#x10f0;" horiz-adv-x="399" 
d="M196 -10q-55 0 -90 22t-52 58.5t-17 79.5q0 32 9 63h50q-3 -13 -4.5 -26.5t-1.5 -27.5q0 -31 10 -58.5t33 -45t63 -17.5q51 0 78 34.5t27 88.5q0 60 -31 92t-80 32h-26v49h28q53 0 76 20t23 53q0 34 -24 55t-73 21h-30v49h28q42 0 65.5 15.5t23.5 44.5q0 24 -15.5 40.5
t-34.5 29.5q-27 18 -49.5 39t-22.5 59h53q0 -22 17.5 -37.5t42.5 -32.5q23 -16 43 -38t20 -57q0 -31 -18 -52.5t-70 -32.5v-3q52 -8 76 -35.5t24 -64.5q0 -43 -25.5 -65.5t-74.5 -30.5v-3q52 -10 80.5 -50t28.5 -98q0 -77 -42.5 -123.5t-117.5 -46.5z" />
    <glyph glyph-name="uni10F1" unicode="&#x10f1;" horiz-adv-x="467" 
d="M255 -10q-110 0 -160.5 97.5t-50.5 297.5q0 106 16.5 202t46.5 173h53q-30 -83 -45.5 -176.5t-15.5 -198.5q0 -171 34.5 -259.5t121.5 -88.5q57 0 85.5 34t28.5 90q0 60 -31 92t-80 32h-26v49h28q53 0 76 20t23 53q0 34 -24 55t-73 21h-30v49h28q42 0 65.5 16t23.5 47
q0 25 -11.5 41t-26.5 30q-18 17 -33.5 37.5t-15.5 56.5h54q0 -22 12 -38t29 -30q18 -16 32 -38.5t14 -56.5q0 -32 -19.5 -55t-68.5 -32v-3q52 -8 76 -35.5t24 -64.5q0 -43 -25.5 -65.5t-74.5 -30.5v-3q52 -10 80.5 -50t28.5 -98q0 -74 -44 -122t-125 -48z" />
    <glyph glyph-name="uni10F2" unicode="&#x10f2;" horiz-adv-x="420" 
d="M49 0v48q28 0 59 8.5t64 28.5v2q-58 45 -93 112t-35 152q0 55 18.5 98t56 68t91.5 25q55 0 92 -25t56 -68t19 -98q0 -85 -35.5 -152t-93.5 -112v-2q32 -19 63.5 -28t60.5 -9v-48q-84 0 -162 60q-78 -60 -161 -60zM210 108q48 42 80.5 102t32.5 141q0 60 -28.5 101.5
t-84.5 41.5t-84 -41.5t-28 -101.5q0 -81 32 -141t80 -102z" />
    <glyph glyph-name="uni10F3" unicode="&#x10f3;" horiz-adv-x="408" 
d="M200 -250q-59 0 -94.5 29.5t-51 74t-15.5 90.5q0 35 7 64t14 46h49q-6 -17 -11 -44t-5 -64q0 -61 25 -104.5t81 -43.5q115 0 115 180q0 101 -32.5 147.5t-89.5 46.5h-30v39l130 274h-218v47h277v-39l-133 -276q66 -4 108.5 -62t42.5 -177q0 -114 -46.5 -171t-122.5 -57z
" />
    <glyph glyph-name="uni10F4" unicode="&#x10f4;" horiz-adv-x="398" 
d="M200 -250q-72 0 -116.5 43.5t-44.5 129.5q0 25 3 46.5t11 45.5h50q-5 -22 -7.5 -43.5t-2.5 -46.5q0 -68 30 -97.5t77 -29.5q50 0 77 43t27 136q0 96 -37.5 139t-89.5 43h-29v49h28q45 0 76.5 28.5t31.5 87.5q0 55 -27.5 90t-62.5 65q-26 21 -50.5 44.5t-40 54.5t-15.5 75
q0 55 33.5 86t84.5 31q33 0 57.5 -8.5t47.5 -21.5l-20 -42q-21 11 -40 18.5t-42 7.5q-31 0 -49 -18.5t-18 -55.5q0 -48 26.5 -78t61.5 -58q26 -22 51 -47.5t41.5 -60t16.5 -82.5q0 -58 -28 -92t-80 -46v-3q52 -10 90 -60t38 -146q0 -119 -44 -173t-115 -54z" />
    <glyph glyph-name="uni10F5" unicode="&#x10f5;" horiz-adv-x="436" 
d="M189 -10q-68 0 -106.5 42t-38.5 124q0 81 43 122.5t121 41.5h76v134h-76q-160 0 -160 158q0 75 38 115.5t104 40.5q69 0 107.5 -44t38.5 -125v-100h73v-45h-73v-134h73v-45h-73v-112q0 -83 -37.5 -128t-109.5 -45zM208 499h76v97q0 61 -24.5 93.5t-70.5 32.5
q-44 0 -65.5 -30t-21.5 -80q0 -53 24 -83t82 -30zM188 36q48 0 72 35.5t24 97.5v106h-76q-58 0 -84.5 -32t-26.5 -87q0 -54 22 -87t69 -33z" />
    <glyph glyph-name="uni10F6" unicode="&#x10f6;" horiz-adv-x="652" 
d="M269 -250q-16 0 -29 3t-24 8v48q18 -10 41 -10t32.5 16.5t9.5 53.5v142q0 20 1 39.5t2 45.5h-3q-9 -42 -38.5 -74t-77.5 -32q-68 0 -103.5 72.5t-35.5 209.5q0 131 35.5 200.5t104.5 69.5q33 0 56 -15.5t38 -40t23 -50.5h3q-3 28 -4 50t-1 46v119q0 63 25.5 91t68.5 28
q13 0 24.5 -2t19.5 -5v-49q-19 7 -36 7q-26 0 -37 -16.5t-11 -55.5v-117q0 -24 -1 -46t-4 -50h3q8 26 22.5 50.5t38 40t56.5 15.5q69 0 104.5 -69.5t35.5 -200.5q0 -137 -36 -209.5t-103 -72.5q-48 0 -77.5 32t-38.5 74h-3q1 -26 2 -45.5t1 -39.5v-143q0 -64 -21.5 -91
t-62.5 -27zM194 37q47 0 76 47.5t29 149.5v69q0 89 -27 141t-76 52q-51 0 -75 -58t-24 -166q0 -115 24.5 -175t72.5 -60zM458 37q48 0 72.5 60t24.5 175q0 108 -24 166t-75 58q-49 0 -76 -52t-27 -141v-69q0 -102 29 -149.5t76 -47.5z" />
    <glyph glyph-name="uni10F7" unicode="&#x10f7;" horiz-adv-x="383" 
d="M191 -250q-69 0 -110.5 50t-41.5 145q0 64 16 109.5t44.5 79t64.5 60.5q36 28 62.5 53.5t40.5 57.5t14 79q0 53 -22 82.5t-64 29.5q-44 0 -65.5 -32t-21.5 -81q0 -12 1 -23t2 -17h-54q-1 7 -2 18.5t-1 21.5q0 69 36 114t105 45q70 0 105 -43t35 -114q0 -53 -15.5 -91
t-45.5 -70t-74 -67q-33 -27 -57 -56t-37 -66.5t-13 -90.5q0 -72 26 -109.5t71 -37.5q46 0 73 34t27 112q0 39 -7 68h55q2 -13 4 -31.5t2 -38.5q0 -99 -42 -145t-111 -46z" />
    <glyph glyph-name="uni10F8" unicode="&#x10f8;" horiz-adv-x="428" 
d="M223 -250q-74 0 -117 55.5t-43 165.5v561h52v-139q0 -80 15 -127.5t40.5 -67.5t56.5 -20q37 0 59.5 22.5t32.5 61t10 86.5q0 52 -7.5 95t-21.5 89h52q15 -43 23 -88t8 -99q0 -97 -36.5 -155.5t-106.5 -58.5q-41 0 -74 24.5t-50 77.5h-3q1 -38 2 -67t1 -56v-138
q0 -174 107 -174q56 0 81.5 39t25.5 94q0 35 -5.5 61.5t-11.5 43.5h50q7 -18 14 -44t7 -62q0 -43 -16 -84t-51.5 -68.5t-93.5 -27.5z" />
    <glyph glyph-name="uni10F9" unicode="&#x10f9;" horiz-adv-x="423" 
d="M211 542q84 0 126.5 -71t42.5 -196q0 -128 -40 -190t-115 -74q-48 -8 -66 -40t-18 -79q0 -40 16.5 -68.5t54.5 -28.5q73 0 73 88q0 28 -5 51h51q3 -12 5 -24.5t2 -28.5q0 -61 -35 -96t-91 -35q-60 0 -92 40.5t-32 103.5q0 42 16 77t55 53v2q-59 19 -87 79.5t-28 170.5
q0 125 41 195.5t126 70.5zM211 494q-113 0 -113 -219q0 -102 26 -159.5t87 -57.5q59 0 86.5 56.5t27.5 160.5q0 105 -27.5 162t-86.5 57z" />
    <glyph glyph-name="uni10FA" unicode="&#x10fa;" horiz-adv-x="336" 
d="M98 -84v47l81 37v2q-68 13 -101.5 80.5t-33.5 178.5q0 135 45 208t132 73q49 0 87 -21l-17 -45q-33 18 -67 18q-60 0 -93 -58.5t-33 -173.5q0 -105 29.5 -164.5t93.5 -59.5q40 0 84 21v-49z" />
    <glyph glyph-name="uni10FB" unicode="&#x10fb;" horiz-adv-x="367" 
d="M92 445q-20 0 -28.5 12.5t-8.5 34.5q0 21 8.5 34t28.5 13q37 0 37 -47t-37 -47zM277 221q-21 0 -29 13t-8 35q0 21 8.5 34t28.5 13t28.5 -13t8.5 -34q0 -22 -8.5 -35t-28.5 -13zM92 -9q-21 0 -29 13.5t-8 34.5t8.5 34t28.5 13t28.5 -13t8.5 -34t-8.5 -34.5t-28.5 -13.5z
" />
    <glyph glyph-name="uni10FC" unicode="&#x10fc;" horiz-adv-x="282" 
d="M146 405q-48 0 -74.5 38t-26.5 118v188q0 47 27.5 70.5t69.5 23.5h86v-40h-80q-56 0 -56 -55v-36q0 -9 -0.5 -19t-1.5 -23h2q9 21 27 35t43 14q42 0 65 -40.5t23 -116.5q0 -70 -25.5 -113.5t-78.5 -43.5zM147 445q28 0 41.5 30.5t13.5 86.5q0 57 -13 87t-40 30
q-57 0 -57 -101v-19q0 -56 13.5 -85t41.5 -29z" />
    <glyph glyph-name="uni10FD" unicode="&#x10fd;" horiz-adv-x="383" 
d="M192 -10q-69 0 -111 46t-42 145q0 20 1.5 38.5t4.5 31.5h55q-7 -29 -7 -68q0 -78 27 -112t73 -34q45 0 71 37.5t26 109.5q0 73 -28 117.5t-79 85.5q-44 35 -74 66.5t-45.5 69t-15.5 90.5q0 71 35 114t105 43q68 0 104.5 -45t36.5 -114q0 -10 -1 -21.5t-2 -18.5h-54
q1 6 2 17t1 23q0 49 -21.5 81t-65.5 32q-43 0 -64.5 -29.5t-21.5 -82.5q0 -47 14.5 -77.5t40.5 -55.5t62 -53q34 -29 62.5 -61.5t45.5 -76t17 -103.5q0 -95 -41.5 -145t-110.5 -50z" />
    <glyph glyph-name="uni10FE" unicode="&#x10fe;" horiz-adv-x="420" 
d="M49 532q83 0 161 -59q78 59 162 59v-48q-29 0 -60.5 -9t-63.5 -27v-3q58 -45 93.5 -112t35.5 -152q0 -55 -19 -98t-56 -68t-92 -25q-54 0 -91.5 25t-56 68t-18.5 98q0 85 35 152t93 112v3q-33 19 -64 27.5t-59 8.5v48zM210 425q-48 -43 -80 -103t-32 -140q0 -60 28 -102
t84 -42t84.5 42t28.5 102q0 80 -32.5 140t-80.5 103z" />
    <glyph glyph-name="uni10FF" unicode="&#x10ff;" horiz-adv-x="423" 
d="M380 267q0 -133 -41.5 -205t-126.5 -72q-84 0 -126 72.5t-42 205.5t41 203.5t127 70.5q85 0 126.5 -71.5t41.5 -203.5zM98 268q0 -113 27.5 -171.5t87.5 -58.5q58 0 85.5 56.5t27.5 172.5q0 109 -26.5 168t-87.5 59q-60 0 -87 -57.5t-27 -168.5z" />
    <glyph glyph-name="uni1C90" unicode="&#x1c90;" horiz-adv-x="439" 
d="M217 -10q-77 0 -125.5 55t-49.5 163q1 69 26 144h-25l31 17q-4 -9 -6 -17h55q-23 -75 -23 -141q0 -86 31 -128t85 -42q117 0 117 177q0 76 -23.5 137t-52.5 116q-21 39 -39 77t-26.5 79t-2.5 87h55q-8 -61 13 -114.5t52 -109.5q30 -57 56 -122.5t26 -149.5
q0 -115 -48 -171.5t-126 -56.5zM129 370l18 -18h-24q2 9 6 18z" />
    <glyph glyph-name="uni1C91" unicode="&#x1c91;" horiz-adv-x="461" 
d="M232 -10q-87 0 -135.5 69.5t-48.5 192.5q0 117 41.5 183t120.5 74q13 24 13 53q0 20 -9.5 34t-21.5 27q-17 16 -29.5 37t-9.5 54h57q-1 -21 8.5 -36t24.5 -30q14 -15 26 -33.5t12 -47.5q0 -31 -15 -60q72 -13 109.5 -79t37.5 -177q0 -123 -47 -192t-134 -69zM232 41
q59 0 91 52t32 159q0 99 -30 153.5t-94 54.5q-62 0 -93.5 -53t-31.5 -155q0 -103 32.5 -157t93.5 -54z" />
    <glyph glyph-name="uni1C92" unicode="&#x1c92;" horiz-adv-x="450" 
d="M226 -10q-87 0 -135 68t-48 182q0 220 165 245q52 8 73.5 35.5t21.5 66.5q0 40 -20.5 65.5t-60.5 25.5q-38 0 -60 -22t-22 -59q0 -23 5 -43h-54q-6 20 -6 47q0 51 37.5 87t99.5 36q64 0 100 -38t36 -97q0 -40 -19 -70.5t-57 -45.5v-2q66 -18 96 -77t30 -155
q0 -114 -47 -181.5t-135 -67.5zM226 41q60 0 92 50.5t32 147.5q0 90 -30.5 143t-93.5 53q-61 0 -93 -51.5t-32 -143.5q0 -95 32 -147t93 -52z" />
    <glyph glyph-name="uni1C93" unicode="&#x1c93;" horiz-adv-x="665" 
d="M428 0q-5 36 -33.5 62t-68.5 40.5t-78 14.5q-24 0 -53 -5t-53 -15l-17 39q46 19 114 19v2q-98 44 -144.5 129t-46.5 198q0 114 36 177t114 63q47 0 79.5 -28.5t38.5 -82.5h2q13 59 50 85t83 26q86 0 126 -65.5t40 -178.5q0 -112 -41.5 -177.5t-124.5 -65.5q-85 0 -125 66
t-40 175v44q0 43 -6.5 77.5t-25 55t-54.5 20.5q-52 0 -73.5 -47.5t-21.5 -143.5q0 -80 19.5 -134.5t52.5 -91t73 -60.5t80 -41q38 -17 71 -37.5t55 -49t26 -70.5h-54zM451 287q57 0 83 49.5t26 143.5q0 93 -25.5 144t-83.5 51t-83 -52t-25 -144q0 -94 25 -143t83 -49z" />
    <glyph glyph-name="uni1C94" unicode="&#x1c94;" 
d="M217 -10q-63 0 -101.5 28t-55.5 72t-17 94q0 35 5.5 62.5t12.5 46.5h55q-7 -20 -11.5 -46.5t-4.5 -60.5q0 -64 28 -104.5t88 -40.5q57 0 87.5 39.5t30.5 117.5v357q0 60 -30 89.5t-76 29.5q-44 0 -75.5 -27t-31.5 -92q0 -25 2.5 -45.5t6.5 -38.5h-55q-6 23 -8.5 43.5
t-2.5 43.5q0 84 47 125t117 41q41 0 77.5 -17.5t60 -54.5t23.5 -94v-360q0 -104 -47 -156t-125 -52z" />
    <glyph glyph-name="uni1C95" unicode="&#x1c95;" horiz-adv-x="442" 
d="M221 -10q-59 0 -99 25.5t-59.5 68t-19.5 94.5q0 27 4 52t9 43h53q-4 -17 -7 -39.5t-3 -48.5q0 -65 30.5 -105t91.5 -40t91 43t30 120q0 88 -36.5 125.5t-91.5 37.5h-31v49h31q55 0 86.5 38t31.5 102q0 61 -30.5 90.5t-75.5 29.5t-75.5 -27.5t-30.5 -83.5q0 -18 1.5 -34
t5.5 -32h-55q-5 18 -7 34.5t-2 37.5q0 73 45.5 113.5t117.5 40.5q44 0 80.5 -17.5t59 -54t22.5 -92.5q0 -65 -28.5 -108.5t-80.5 -58.5v-2q52 -10 86.5 -57t34.5 -132q0 -102 -48 -157t-131 -55z" />
    <glyph glyph-name="uni1C96" unicode="&#x1c96;" horiz-adv-x="484" 
d="M258 -10q-88 0 -132 67t-44 175q0 65 14 112.5t47 77.5v2q-50 8 -79.5 46.5t-29.5 100.5q0 69 35 111t99 42q66 0 101.5 -40.5t35.5 -108.5q0 -33 -8 -58.5t-25 -42.5v-1q3 -1 5.5 -1.5t5.5 -0.5q81 -7 117 -71.5t36 -164.5q0 -111 -43.5 -178t-134.5 -67zM169 463
q81 0 81 108q0 47 -19.5 76t-62.5 29q-40 0 -59.5 -28t-19.5 -77q0 -50 20.5 -79t59.5 -29zM258 40q63 0 91.5 50.5t28.5 145.5q0 88 -27 140.5t-93 52.5q-63 0 -91 -51.5t-28 -141.5q0 -93 28.5 -144.5t90.5 -51.5z" />
    <glyph glyph-name="uni1C97" unicode="&#x1c97;" horiz-adv-x="711" 
d="M504 724q78 0 116.5 -72t38.5 -231q0 -127 -19 -226.5t-54 -194.5h-57q34 94 53 196.5t19 224.5q0 135 -25 194t-75 59q-42 0 -64.5 -38t-22.5 -113q0 -39 2.5 -82t2.5 -84q0 -130 -18.5 -211t-59 -118.5t-106.5 -37.5q-102 0 -143 87.5t-40 279.5q1 130 19 211t58 118.5
t106 37.5q53 0 88.5 -26t54.5 -86h2q9 44 29.5 68.5t46 34t48.5 9.5zM235 41q47 0 74.5 31.5t39.5 101.5t12 183q0 115 -12.5 184.5t-40 101t-73.5 31.5q-47 0 -74.5 -32t-39 -102t-11.5 -183q0 -115 12 -184.5t39.5 -100.5t73.5 -31z" />
    <glyph glyph-name="uni1C98" unicode="&#x1c98;" horiz-adv-x="471" 
d="M113 0q-31 95 -46 192.5t-15 223.5q0 162 47.5 235t136.5 73q88 0 135.5 -73t47.5 -235q0 -126 -15 -223.5t-45 -192.5h-58q30 93 45 192.5t15 223.5q0 139 -32 198.5t-93 59.5q-62 0 -94 -59.5t-32 -198.5q0 -124 15 -223.5t45 -192.5h-57z" />
    <glyph glyph-name="uni1C99" unicode="&#x1c99;" horiz-adv-x="426" 
d="M213 -9q-58 0 -97.5 25t-59 67.5t-19.5 94.5q0 27 4 52t10 43h53q-5 -17 -8 -39.5t-3 -48.5q0 -65 30.5 -105t89.5 -40q113 0 113 168q0 97 -34.5 137t-90.5 40h-31v51h31q55 0 85 33.5t30 90.5q0 39 -15 64t-38.5 38t-46.5 14v48q38 0 74 -17.5t59 -53t23 -89.5
q0 -56 -24.5 -96t-80.5 -55v-3q56 -13 86.5 -61t30.5 -142q0 -107 -45.5 -161.5t-125.5 -54.5z" />
    <glyph glyph-name="uni1C9A" unicode="&#x1c9a;" horiz-adv-x="795" 
d="M520 0q-9 40 -34.5 66t-59 40.5t-68 20t-60.5 5.5q-41 0 -74 -8t-59 -21l-18 38q25 12 55 19t61 8v2q-110 28 -162.5 110.5t-52.5 210.5q0 109 34.5 171t102.5 62q44 0 71.5 -23.5t36.5 -64.5h2q9 40 35 64t68 24t67.5 -24.5t34.5 -63.5h2q9 40 36 64t72 24
q68 0 102.5 -62t34.5 -171q0 -62 -10.5 -113.5t-33.5 -102.5l-51 15q21 46 29.5 95t8.5 107q0 85 -19.5 134t-67.5 49t-61.5 -39t-13.5 -102v-139h-54v139q0 65 -15 103t-61 38q-32 0 -49 -18.5t-22.5 -50.5t-5.5 -72v-139h-55v139q0 40 -5 72t-21 50.5t-48 18.5
q-48 0 -67.5 -48.5t-19.5 -136.5q0 -92 25.5 -154t80.5 -99.5t144 -57.5q48 -10 94 -29.5t79.5 -55t45.5 -94.5h-54z" />
    <glyph glyph-name="uni1C9B" unicode="&#x1c9b;" horiz-adv-x="475" 
d="M227 -10q-62 0 -102 33.5t-58.5 92t-18.5 131.5q0 124 43 191t123 67q51 0 86 -25t50 -60h3q-1 21 -1.5 37.5t-0.5 30.5v78q0 55 -30 83.5t-81 28.5q-47 0 -78.5 -23.5t-31.5 -68.5q0 -6 0.5 -12t1.5 -12h-54q-3 16 -3 28q0 40 21.5 70t59 47t84.5 17q45 0 82.5 -17
t60.5 -51.5t23 -87.5v-322q0 -132 -48.5 -194t-130.5 -62zM227 40q60 0 92 52.5t32 150.5v39q0 83 -33 128.5t-93 45.5t-90 -54t-30 -156q0 -97 30.5 -151.5t91.5 -54.5z" />
    <glyph glyph-name="uni1C9C" unicode="&#x1c9c;" horiz-adv-x="475" 
d="M247 -10q-82 0 -130 62t-48 194v308q0 80 44 120t117 40h160v-50h-156q-110 0 -110 -110v-66q0 -14 -0.5 -30.5t-1.5 -37.5h3q14 35 48.5 60t87.5 25q79 0 122.5 -67t43.5 -191q0 -73 -19 -131t-58.5 -92t-102.5 -34zM248 40q61 0 91 54.5t30 151.5q0 102 -29.5 156.5
t-89.5 54.5q-61 0 -93.5 -46t-32.5 -129v-40q0 -97 31.5 -149.5t92.5 -52.5z" />
    <glyph glyph-name="uni1C9D" unicode="&#x1c9d;" horiz-adv-x="639" 
d="M125 0q-35 95 -54 196t-19 225q0 159 37.5 231t111.5 72q39 0 71.5 -21.5t46.5 -84.5h2q14 62 46 84t69 22q75 0 113 -72t38 -231q0 -127 -19 -226.5t-53 -194.5h-58q35 94 54 196.5t19 224.5q0 135 -24 194t-72 59q-35 0 -53.5 -24t-26 -65t-7.5 -94v-271h-55v271
q0 53 -7.5 94.5t-26.5 65t-54 23.5q-47 0 -70.5 -59t-23.5 -194q0 -120 18.5 -223t53.5 -198h-57z" />
    <glyph glyph-name="uni1C9E" unicode="&#x1c9e;" horiz-adv-x="436" 
d="M216 -9q-57 0 -95.5 25t-58 67.5t-19.5 94.5q0 27 4 52t9 43h53q-4 -17 -7 -39.5t-3 -48.5q0 -65 30 -105t87 -40q55 0 84.5 39.5t29.5 125.5q0 87 -37.5 127.5t-93.5 40.5h-32v49h34q53 0 80.5 20.5t27.5 58.5q0 34 -19 55.5t-44 40.5q-32 24 -52.5 50.5t-18.5 66.5h56
q0 -30 18.5 -50t45.5 -41q26 -20 48 -47.5t22 -72.5q0 -85 -95 -104v-1q46 -9 82 -57t36 -137q0 -110 -48 -161.5t-124 -51.5z" />
    <glyph glyph-name="uni1C9F" unicode="&#x1c9f;" horiz-adv-x="505" 
d="M257 -9q-57 0 -96 25t-58.5 67.5t-19.5 94.5q0 27 4 52t9 43h53q-4 -17 -7 -39.5t-3 -48.5q0 -65 30 -105t88 -40q56 0 86.5 40t30.5 118l1 466q-38 -18 -77.5 -31t-88.5 -20v-2q31 -12 50 -41t19 -72q0 -54 -31 -90t-88 -36q-59 0 -89 33t-30 78q0 20 5 36h50
q-4 -14 -4 -32q0 -30 17 -50t51 -20q36 0 51.5 23t15.5 61q0 43 -23 68t-52 31v44q135 19 232 70h47v-519q0 -103 -47.5 -153.5t-125.5 -50.5z" />
    <glyph glyph-name="uni1CA0" unicode="&#x1ca0;" horiz-adv-x="600" 
d="M95 0q-18 53 -28 97.5t-14.5 96t-4.5 123.5q0 80 11 151t43.5 125t96.5 82q33 15 91 27.5t116 21.5l10 -49q-28 -5 -63.5 -11t-69.5 -14t-59 -19q-54 -23 -82 -64.5t-43 -119.5h2q17 37 43.5 50t52.5 13q41 0 67 -23.5t35 -63.5h2q9 40 35 63.5t71 23.5q75 0 110 -66.5
t35 -176.5q0 -77 -12 -138.5t-35 -128.5h-55q20 63 32 128t12 138q0 95 -19.5 144.5t-69.5 49.5q-48 0 -63 -40.5t-15 -111.5v-134h-55v134q0 71 -14.5 111.5t-61.5 40.5q-52 0 -71 -50.5t-19 -143.5q0 -75 12 -138.5t32 -127.5h-55z" />
    <glyph glyph-name="uni1CA1" unicode="&#x1ca1;" horiz-adv-x="475" 
d="M248 -10q-83 0 -131 56.5t-48 177.5v490h55v-490q0 -89 31.5 -136t92.5 -47q60 0 90.5 44.5t30.5 116.5q0 42 -10.5 74.5t-30.5 63.5q-19 31 -34.5 68.5t-14.5 91.5h55q-1 -42 12.5 -74.5t33.5 -64.5q22 -34 34.5 -73t12.5 -86q0 -93 -46 -152.5t-133 -59.5z" />
    <glyph glyph-name="uni1CA2" unicode="&#x1ca2;" horiz-adv-x="568" 
d="M284 -10q-88 0 -139.5 47.5t-74 131t-22.5 191.5q0 159 53.5 244t157.5 95q-2 9 -2 18.5v18.5v14h55v-14q0 -9 -0.5 -18.5t-1.5 -18.5q106 -10 158 -97t52 -243q0 -108 -22.5 -191t-74 -130.5t-139.5 -47.5zM284 41q87 0 132.5 78t45.5 240q0 273 -153 292q1 -17 2 -37
t1 -47v-233h-55v233q0 28 0.5 48t1.5 35q-77 -9 -115 -82.5t-38 -208.5q0 -161 46.5 -239.5t131.5 -78.5z" />
    <glyph glyph-name="uni1CA3" unicode="&#x1ca3;" horiz-adv-x="477" 
d="M236 -10q-62 0 -100.5 28t-56 72t-17.5 94q0 35 5.5 62.5t13.5 46.5h55q-7 -20 -12 -46.5t-5 -60.5q0 -64 28.5 -104.5t88.5 -40.5q57 0 87 39.5t30 117.5v371q0 27 -6.5 51.5t-24 39.5t-50.5 15q-44 0 -62 -29.5t-18 -74.5v-126h-54v126q0 45 -20 71.5t-60 26.5h-30v50
h33q44 0 69 -22t32 -55h2q8 32 35.5 57t78.5 25q70 0 100 -43t30 -108v-375q0 -104 -47 -156t-125 -52z" />
    <glyph glyph-name="uni1CA4" unicode="&#x1ca4;" horiz-adv-x="661" 
d="M389 -9q-66 0 -110.5 20.5t-67 55t-22.5 75.5q0 19 4 36h53q-1 -17 -1 -29q0 -48 35.5 -79t107.5 -31q78 0 113 41t35 105q0 55 -24.5 95t-74.5 40h-16v50h21q55 0 84.5 45.5t29.5 112.5q0 41 -7.5 74t-27 53t-54.5 20q-36 0 -55 -20.5t-26 -55t-7 -77.5v-41
q0 -104 -40 -169t-125 -65q-83 0 -124.5 64.5t-41.5 171.5q0 111 40.5 176t125.5 65q46 0 83 -25.5t50 -83.5h3q6 54 38.5 81.5t80.5 27.5q52 0 83.5 -27.5t46 -72t14.5 -94.5q0 -69 -28.5 -118.5t-89.5 -66.5v-2q49 -13 73.5 -57t24.5 -102q0 -88 -53 -140.5t-151 -52.5z
M214 297q57 0 82.5 48t25.5 137q0 90 -25.5 141.5t-82.5 51.5q-59 0 -84 -51t-25 -142q0 -88 26 -136.5t83 -48.5z" />
    <glyph glyph-name="uni1CA5" unicode="&#x1ca5;" 
d="M219 -10q-59 0 -98 25.5t-58.5 68t-19.5 93.5q0 28 4 52.5t9 42.5h53q-4 -17 -7 -39.5t-3 -48.5q0 -64 30.5 -104t88.5 -40q56 0 86 40t30 119v196q0 80 -32 126.5t-85 46.5q-38 0 -67.5 -27t-29.5 -90q0 -27 6 -59h-55q-4 15 -5.5 31t-1.5 31q0 55 19.5 91t53 54
t72.5 18q46 0 77.5 -25t46.5 -60h3q-1 21 -1.5 37.5t-0.5 31.5v113h55v-515q0 -104 -47 -156.5t-123 -52.5z" />
    <glyph glyph-name="uni1CA6" unicode="&#x1ca6;" horiz-adv-x="598" 
d="M388 0q-5 39 -28.5 68t-58 45t-72.5 16q-24 0 -51 -4.5t-51 -15.5l-17 39q23 9 46 14.5t56 5.5v2q-85 38 -124.5 118.5t-39.5 188.5q0 119 35 183t106 64q46 0 73 -23.5t36 -63.5h2q9 40 35 63.5t73 23.5q73 0 107.5 -66t34.5 -175q0 -60 -10.5 -111t-34.5 -103l-51 14
q22 48 30.5 96.5t8.5 102.5q0 93 -20.5 143t-69.5 50q-33 0 -49.5 -19.5t-21.5 -53.5t-5 -80v-131h-56v131q0 70 -13.5 111.5t-61.5 41.5q-51 0 -71 -50.5t-20 -147.5q0 -96 25 -154.5t67.5 -92.5t93.5 -55q60 -26 102.5 -68t49.5 -107h-55z" />
    <glyph glyph-name="uni1CA7" unicode="&#x1ca7;" horiz-adv-x="464" 
d="M222 -10q-57 0 -96 25.5t-58.5 68t-19.5 93.5q0 28 4 52.5t10 42.5h53q-5 -17 -8 -39.5t-3 -48.5q0 -64 30 -104t87 -40q118 0 118 159v122q0 24 0.5 48.5t2.5 61.5h-3q-18 -47 -53 -68t-80 -21q-76 0 -114.5 54.5t-38.5 143.5q0 50 8 92t25 82h53q-15 -43 -22.5 -82.5
t-7.5 -87.5q0 -66 25 -110t83 -44q34 0 61.5 18.5t44.5 61.5t17 115v129h55v-515q0 -104 -47.5 -156.5t-125.5 -52.5z" />
    <glyph glyph-name="uni1CA8" unicode="&#x1ca8;" horiz-adv-x="474" 
d="M227 -10q-63 0 -102.5 33.5t-58 92t-18.5 131.5q0 124 42.5 191t125.5 67q49 0 84 -25t50 -60h3q-2 21 -2.5 37.5t-0.5 30.5v108q0 41 -18 61.5t-49 20.5q-28 0 -47 -17.5t-19 -56.5v-38h-54v35q0 30 -15 52.5t-50 22.5q-25 0 -50 -13l-17 44q15 7 33 12t38 5
q29 0 53 -14t35 -46h2q11 32 37 46t60 14q28 0 54.5 -12t44 -39.5t17.5 -73.5v-353q0 -132 -48.5 -194t-129.5 -62zM226 40q61 0 92.5 52.5t31.5 150.5v39q0 83 -32.5 128.5t-92.5 45.5t-90.5 -54t-30.5 -156q0 -97 31 -151.5t91 -54.5z" />
    <glyph glyph-name="uni1CA9" unicode="&#x1ca9;" horiz-adv-x="467" 
d="M69 0v581q0 66 40 104.5t103 38.5q61 0 101.5 -32t40.5 -93q0 -32 -17 -61t-56 -50v-3q74 -10 106 -69.5t32 -160.5q0 -80 -8.5 -142t-24.5 -113h-56q17 54 25.5 114.5t8.5 137.5q0 89 -28 141t-85 52q-36 0 -65 -18.5t-45.5 -63.5t-16.5 -125v-238h-55zM121 399h3
q12 32 31.5 50.5t46.5 33.5q43 24 69.5 48.5t26.5 65.5t-23 61t-62 20t-64 -26t-25 -75v-93q0 -16 -0.5 -33.5t-2.5 -51.5z" />
    <glyph glyph-name="uni1CAA" unicode="&#x1caa;" horiz-adv-x="502" 
d="M266 -9q-111 0 -164.5 90t-53.5 278q0 105 17.5 194t47.5 161h55q-31 -78 -46.5 -165t-15.5 -190q0 -159 36.5 -240t123.5 -81q136 0 136 172q0 89 -35.5 128.5t-93.5 39.5h-29v50h30q48 0 83 19.5t35 59.5q0 31 -13.5 51.5t-31.5 39.5q-20 22 -36.5 49t-14.5 67h55
q0 -31 14 -52.5t33 -41.5q20 -21 35 -46t15 -65q0 -44 -28.5 -69.5t-78.5 -34.5v-3q52 -9 85.5 -56t33.5 -137q0 -108 -50 -163t-144 -55z" />
    <glyph glyph-name="uni1CAB" unicode="&#x1cab;" horiz-adv-x="475" 
d="M229 -10q-63 0 -103 33.5t-59 92t-19 131.5q0 126 43.5 194.5t124.5 68.5q50 0 84.5 -26t49.5 -62h3q-1 20 -1.5 36.5t-0.5 32.5v223h55v-468q0 -132 -48 -194t-129 -62zM228 40q60 0 91.5 53.5t31.5 149.5v35q0 78 -30 130t-96 52q-60 0 -89.5 -55t-29.5 -158
q0 -97 30.5 -152t91.5 -55z" />
    <glyph glyph-name="uni1CAC" unicode="&#x1cac;" horiz-adv-x="474" 
d="M248 -10q-82 0 -130.5 62t-48.5 194v353q0 46 17.5 73.5t44.5 39.5t54 12q34 0 60 -14t38 -46h2q10 32 34.5 46t52.5 14q20 0 38.5 -5t33.5 -12l-17 -44q-26 13 -50 13q-36 0 -50.5 -22.5t-14.5 -52.5v-35h-54v38q0 39 -19.5 56.5t-47.5 17.5q-31 0 -49 -20.5t-18 -61.5
v-108q0 -14 -0.5 -30.5t-1.5 -37.5h3q15 35 49.5 60t84.5 25q81 0 124.5 -67t43.5 -191q0 -73 -19 -131.5t-58.5 -92t-101.5 -33.5zM248 40q60 0 91 54.5t31 151.5q0 102 -30 156t-90 54t-93 -45.5t-33 -128.5v-39q0 -98 31.5 -150.5t92.5 -52.5z" />
    <glyph glyph-name="uni1CAD" unicode="&#x1cad;" horiz-adv-x="468" 
d="M246 -10q-58 0 -96.5 24t-58 65.5t-19.5 92.5q0 36 8 68h53q-5 -29 -5 -61q0 -64 30 -101.5t87 -37.5t87 37.5t30 101.5q0 51 -16 91.5t-35.5 79t-29.5 83.5h-2q-12 -34 -44.5 -50.5t-64.5 -16.5q-56 0 -91.5 32t-35.5 88q0 61 39.5 91t95.5 30h80v107h55v-107h88v-48
h-88v-35q0 -43 16 -84t37 -82.5t37.5 -85.5t16.5 -93q0 -89 -48 -139t-126 -50zM175 413q36 0 59.5 21.5t23.5 61.5v63h-75q-39 0 -62 -18t-23 -55q0 -38 24 -55.5t53 -17.5z" />
    <glyph glyph-name="uni1CAE" unicode="&#x1cae;" horiz-adv-x="475" 
d="M246 -10q-81 0 -129 62t-48 194v468h55v-223q0 -16 -0.5 -32.5t-1.5 -36.5h3q14 34 49 61t85 27q80 0 124 -68.5t44 -194.5q0 -73 -19 -131.5t-59 -92t-103 -33.5zM247 40q61 0 91.5 55t30.5 152q0 103 -30 158t-89 55q-66 0 -96 -52t-30 -130v-35q0 -96 31.5 -149.5
t91.5 -53.5z" />
    <glyph glyph-name="uni1CAF" unicode="&#x1caf;" horiz-adv-x="432" 
d="M216 -10q-57 0 -95.5 25.5t-58 68t-19.5 94.5q0 27 4 52t9 43h53q-4 -17 -7 -39.5t-3 -48.5q0 -65 30 -105t87 -40t87 32.5t30 85.5q0 48 -18 79.5t-42 60.5q-37 43 -60 85t-23 106v51l-136 33v49l136 -33v126h55v-141l134 -31v-49l-134 32v-37q0 -55 22.5 -92t54.5 -75
q26 -31 47 -69t21 -95q0 -78 -48 -123t-126 -45z" />
    <glyph glyph-name="uni1CB0" unicode="&#x1cb0;" horiz-adv-x="433" 
d="M212 -10q-58 0 -96 21t-56.5 56.5t-18.5 78.5q0 27 9 54h52q-3 -12 -4.5 -25t-1.5 -25q0 -28 11.5 -53.5t37 -41t67.5 -15.5q55 0 85.5 31t30.5 80q0 54 -33.5 84.5t-84.5 30.5h-32v49h44q45 0 70 17.5t25 49.5q0 31 -25.5 50.5t-68.5 19.5h-45v49h43q39 0 62 12t23 40
q0 26 -18.5 40.5t-38.5 26.5q-30 16 -53.5 37t-22.5 57h56q0 -21 19 -35.5t46 -29.5q25 -15 46.5 -36.5t21.5 -55.5q0 -27 -17 -48.5t-70 -29.5v-2q52 -5 75.5 -32t23.5 -63q0 -37 -25 -61t-74 -30v-2q53 -9 81.5 -47.5t28.5 -92.5q0 -72 -46 -115.5t-127 -43.5z" />
    <glyph glyph-name="uni1CB1" unicode="&#x1cb1;" horiz-adv-x="507" 
d="M276 -9q-118 0 -173 91t-55 279q0 100 17 190.5t47 162.5h55q-30 -79 -45.5 -167.5t-15.5 -185.5q0 -159 38 -240.5t132 -81.5q62 0 94 31t32 82q0 54 -33.5 84t-87.5 30h-27v48h29q108 0 108 67q0 32 -27 51.5t-80 19.5h-30v49h29q42 0 69.5 13.5t27.5 45.5
q0 22 -12.5 36.5t-29.5 27.5q-19 15 -36.5 36t-15.5 54h56q0 -20 12.5 -35t31.5 -28q19 -15 35 -36t16 -54q0 -31 -18 -53.5t-69 -29.5v-2q52 -5 75 -32.5t23 -62.5q0 -37 -24.5 -61t-73.5 -30v-2q54 -7 81.5 -45.5t27.5 -91.5q0 -69 -47.5 -114.5t-135.5 -45.5z" />
    <glyph glyph-name="uni1CB2" unicode="&#x1cb2;" horiz-adv-x="463" 
d="M73 0v50q64 7 117 39v2q-48 44 -79.5 104t-47 126.5t-15.5 131.5q0 139 49 205t135 66q85 0 134 -66t49 -205q0 -65 -15.5 -131.5t-46.5 -126t-79 -104.5v-2q51 -32 116 -39v-50q-91 7 -158 56q-69 -49 -159 -56zM232 122q64 57 94.5 146t30.5 188q0 114 -34 166t-91 52
q-58 0 -92 -52t-34 -166q0 -99 30.5 -188t95.5 -146z" />
    <glyph glyph-name="uni1CB3" unicode="&#x1cb3;" horiz-adv-x="442" 
d="M221 -10q-59 0 -99 25.5t-59.5 68t-19.5 94.5q0 27 4 52t9 43h53q-4 -17 -7 -39.5t-3 -48.5q0 -65 30.5 -105t91.5 -40t91 43t30 120q0 92 -34.5 134.5t-93.5 42.5h-37v39l138 245h-246v50h307v-44l-139 -247q72 -4 117.5 -59.5t45.5 -161.5q0 -102 -48 -157t-131 -55z
" />
    <glyph glyph-name="uni1CB4" unicode="&#x1cb4;" horiz-adv-x="429" 
d="M214 -10q-58 0 -96 21t-56.5 56.5t-18.5 78.5q0 27 9 54h52q-3 -12 -4.5 -25t-1.5 -25q0 -28 11.5 -53.5t37 -41t67.5 -15.5q55 0 85.5 31t30.5 80q0 54 -33.5 84.5t-84.5 30.5h-32v49h44q45 0 70 18.5t25 49.5q0 25 -14.5 42.5t-37.5 31.5t-48 27q-30 15 -57.5 32.5
t-45.5 42.5t-18 62q0 48 37 75.5t94 27.5q68 0 117 -35l-24 -39q-22 13 -43.5 20t-46.5 7q-36 0 -57 -14t-21 -41q0 -34 29.5 -55t68.5 -41q31 -17 59 -35t46 -43.5t18 -62.5q0 -36 -24 -62t-73 -32v-2q52 -9 80.5 -47.5t28.5 -92.5q0 -72 -46 -115.5t-127 -43.5z" />
    <glyph glyph-name="uni1CB5" unicode="&#x1cb5;" horiz-adv-x="478" 
d="M205 -9q-72 0 -114.5 40.5t-42.5 115.5q0 76 47.5 117.5t130.5 41.5h83v117h-83q-84 0 -128.5 39t-44.5 115q0 69 43 108t114 39q72 0 113 -41t41 -118v-93h78v-49h-78v-117h78v-49h-78v-104q0 -78 -41 -120t-118 -42zM226 472h83v90q0 56 -26 85.5t-74 29.5
q-49 0 -73.5 -27.5t-24.5 -72.5q0 -105 115 -105zM203 38q53 0 79.5 31.5t26.5 84.5v103h-83q-62 0 -91 -30t-29 -80q0 -49 24 -79t73 -30z" />
    <glyph glyph-name="uni1CB6" unicode="&#x1cb6;" horiz-adv-x="598" 
d="M326 724v-87q103 -1 163.5 -71t60.5 -194q0 -127 -60.5 -199t-163.5 -73v-110h-54v110q-64 -1 -114.5 32t-80 94.5t-29.5 146.5q0 80 28.5 139t79 91.5t116.5 33.5v87h54zM272 588q-74 -1 -121 -56t-47 -159q0 -74 22.5 -123.5t60.5 -75t85 -25.5v439zM326 588v-439
q74 2 121.5 57.5t47.5 166.5q0 109 -47 161.5t-122 53.5z" />
    <glyph glyph-name="uni1CB7" unicode="&#x1cb7;" horiz-adv-x="418" 
d="M210 -9q-75 0 -121 47.5t-46 136.5q0 60 20.5 100.5t53 67t66.5 46.5q35 20 63.5 42t46 53.5t17.5 79.5q0 51 -25 82t-72 31q-48 0 -72 -30t-24 -77q0 -26 3 -38h-56q-1 9 -2 19t-1 20q0 66 39 109.5t114 43.5q71 0 111.5 -45t40.5 -114q0 -63 -21.5 -103t-54.5 -65.5
t-68 -46.5q-31 -19 -59.5 -42t-46 -55t-17.5 -79q0 -66 30 -101t80 -35q46 0 78.5 31.5t32.5 103.5q0 22 -3 41h54q2 -10 3.5 -21t1.5 -22q0 -93 -48 -136.5t-118 -43.5z" />
    <glyph glyph-name="uni1CB8" unicode="&#x1cb8;" horiz-adv-x="464" 
d="M242 -10q57 0 96 25.5t58.5 68t19.5 93.5q0 28 -4 52.5t-10 42.5h-53q5 -17 8 -39.5t3 -48.5q0 -64 -30 -104t-87 -40q-118 0 -118 159v122q0 24 -0.5 48.5t-2.5 61.5h3q18 -47 53 -68t80 -21q76 0 114.5 54.5t38.5 143.5q0 50 -8 92t-25 82h-53q15 -43 22.5 -82.5
t7.5 -87.5q0 -66 -25 -110t-83 -44q-34 0 -61.5 18.5t-44.5 61.5t-17 115v129h-55v-515q0 -104 47.5 -156.5t125.5 -52.5z" />
    <glyph glyph-name="uni1CB9" unicode="&#x1cb9;" horiz-adv-x="450" 
d="M224 724q87 0 135 -68t48 -182q0 -220 -165 -245q-52 -8 -73.5 -35.5t-21.5 -66.5q0 -40 20.5 -65.5t60.5 -25.5q38 0 60 22t22 59q0 23 -5 43h54q6 -20 6 -47q0 -51 -37.5 -87t-99.5 -36q-64 0 -100 38t-36 97q0 40 19 70.5t57 45.5v2q-66 18 -96 77t-30 155
q0 114 47 181.5t135 67.5zM224 673q-60 0 -92 -50.5t-32 -147.5q0 -90 30.5 -143t93.5 -53q61 0 93 51.5t32 143.5q0 95 -32 147t-93 52z" />
    <glyph glyph-name="uni1CBA" unicode="&#x1cba;" horiz-adv-x="391" 
d="M111 -10v55l114 62v2q-53 5 -92.5 43t-62 103.5t-22.5 152.5q0 90 22.5 161.5t68 113t114.5 41.5q57 0 107 -31l-21 -44q-22 13 -42.5 19t-38.5 6q-55 0 -88.5 -38t-48.5 -98.5t-15 -129.5q0 -122 41.5 -193.5t113.5 -71.5q26 0 47.5 7.5t42.5 19.5v-53z" />
    <glyph glyph-name="uni1CBD" unicode="&#x1cbd;" horiz-adv-x="418" 
d="M209 -9q-71 0 -118.5 43.5t-47.5 136.5q0 11 1 22t3 21h55q-3 -19 -3 -41q0 -72 32 -103.5t79 -31.5q49 0 79 35t30 101q0 47 -17.5 77.5t-45.5 52t-60 40.5q-35 21 -68.5 47t-55 67t-21.5 107q0 69 40.5 114t111.5 45q74 0 113.5 -43.5t39.5 -109.5q0 -10 -1 -20t-2 -19
h-56q3 12 3 38q0 47 -24 77t-72 30t-72.5 -31t-24.5 -82t17.5 -83.5t47 -55t64.5 -42.5q34 -20 66 -45.5t53 -64t21 -98.5q0 -89 -46.5 -136.5t-120.5 -47.5z" />
    <glyph glyph-name="uni1CBE" unicode="&#x1cbe;" horiz-adv-x="463" 
d="M73 714q90 -7 159 -55q67 48 158 55v-50q-65 -7 -116 -39v-2q48 -44 79 -104t46.5 -126.5t15.5 -131.5q0 -139 -49 -205t-134 -66q-86 0 -135 66t-49 205q0 65 15.5 131.5t47 126.5t79.5 104v2q-53 32 -117 39v50zM232 593q-65 -57 -95.5 -146.5t-30.5 -188.5
q0 -114 34 -165.5t92 -51.5q57 0 91 51.5t34 165.5q0 99 -30.5 188.5t-94.5 146.5z" />
    <glyph glyph-name="uni1CBF" unicode="&#x1cbf;" horiz-adv-x="491" 
d="M246 -10q-101 0 -147.5 87t-46.5 280q0 196 47.5 281.5t146.5 85.5q100 0 146.5 -86.5t46.5 -280.5q0 -196 -47 -281.5t-146 -85.5zM246 41q70 0 102.5 73t32.5 243q0 115 -14.5 184.5t-44.5 101t-76 31.5q-71 0 -103.5 -73.5t-32.5 -243.5q0 -115 15 -184.5t45 -100.5
t76 -31z" />
    <glyph glyph-name="uni2010" unicode="&#x2010;" horiz-adv-x="269" 
d="M27 244v54h215v-54h-215z" />
    <glyph glyph-name="uni20BE" unicode="&#x20be;" horiz-adv-x="529" 
d="M91 0v44l94 6v2q-49 28 -78 76.5t-41 110t-12 129.5q0 129 37 211.5t105 109.5v81h37v-70q16 3 35 3q18 0 35 -3v70h36v-80q73 -28 107.5 -115.5t34.5 -222.5h-58q0 123 -20 192.5t-64 95.5v-288h-36v302q-17 3 -35 3q-19 0 -35 -4v-301h-37v286q-86 -53 -86 -270
q0 -157 52.5 -237t143.5 -80h138v-51h-353z" />
    <glyph glyph-name="uni2D00" unicode="&#x2d00;" horiz-adv-x="480" 
d="M256 0q-77 0 -106 39.5t-29 120.5v244q0 47 -17 64.5t-47 17.5h-47v46h60q39 0 66 -22.5t33 -69.5h3q14 42 44.5 72t80.5 30q59 0 90.5 -42t31.5 -130v-120h-53v107q0 71 -20 104t-58 33q-53 0 -83 -48.5t-30 -150.5v-128q0 -67 20.5 -94t73.5 -27h127v-46h-140z" />
    <glyph glyph-name="uni2D01" unicode="&#x2d01;" horiz-adv-x="453" 
d="M240 -250q-47 0 -84 8.5t-68 24.5v49q33 -18 69 -26.5t80 -8.5q71 0 108.5 32.5t37.5 96.5q0 30 -6 54t-16 45q-13 25 -21 47t-10 47h-3q-9 -53 -44.5 -91t-96.5 -38q-121 0 -121 175v367h53v-352q0 -76 21 -109t61 -33q52 0 82 47.5t30 151.5v295h53v-357
q0 -37 11 -66.5t26 -57.5q14 -27 24 -57t10 -68q0 -88 -51.5 -132t-144.5 -44z" />
    <glyph glyph-name="uni2D02" unicode="&#x2d02;" horiz-adv-x="456" 
d="M241 -250q-46 0 -83.5 8.5t-67.5 24.5v49q33 -18 68.5 -26.5t80.5 -8.5q70 0 108 32.5t38 96.5q0 39 -10.5 67t-22.5 54q-15 28 -27 61t-12 74v175q0 71 -20 104t-58 33q-53 0 -83 -48.5t-30 -150.5v-295h-54v532h43l5 -92h3q14 42 44.5 72t80.5 30q59 0 90.5 -42
t31.5 -130v-185q0 -37 10 -65.5t24 -55.5q15 -29 27 -61t12 -77q0 -88 -52.5 -132t-145.5 -44z" />
    <glyph glyph-name="uni2D03" unicode="&#x2d03;" horiz-adv-x="418" 
d="M208 -10q-82 0 -123.5 66t-41.5 177q0 90 23 145.5t59.5 86t74.5 45.5q-18 25 -25 58.5t-7 79.5v64h-107v48h294v-48h-134v-59q0 -45 8.5 -80t35.5 -65q33 -37 58 -74.5t38.5 -84.5t13.5 -115q0 -114 -42 -179t-125 -65zM208 37q112 0 112 197q0 70 -16.5 118t-48.5 87
q-7 9 -14.5 18t-15.5 18q-33 -14 -62 -40t-47 -74.5t-18 -127.5q0 -196 110 -196z" />
    <glyph glyph-name="uni2D04" unicode="&#x2d04;" horiz-adv-x="432" 
d="M244 542q59 0 90.5 -42t31.5 -130v-610h-53v597q0 71 -20 104t-58 33q-53 0 -83 -48.5t-30 -150.5v-295h-54v532h43l5 -92h3q14 42 44.5 72t80.5 30z" />
    <glyph glyph-name="uni2D05" unicode="&#x2d05;" horiz-adv-x="645" 
d="M461 542q58 0 88 -42.5t30 -132.5v-367h-53v359q0 73 -21 104t-56 31q-48 0 -73 -46.5t-25 -128.5v-559h-53v592q0 81 -21 111.5t-55 30.5q-38 0 -60 -25.5t-31 -67.5t-9 -92v-309h-54v532h42l6 -86h4q13 38 39.5 67t74.5 29t73 -28.5t32 -67.5h5q16 45 43 70.5t74 25.5z
" />
    <glyph glyph-name="uni2D06" unicode="&#x2d06;" horiz-adv-x="496" 
d="M300 542q76 0 114.5 -69.5t38.5 -202.5q0 -81 -17 -144t-54 -99.5t-95 -36.5q-76 0 -121 65t-45 207v376q0 46 -17 61.5t-47 15.5h-47v46h58q41 0 64 -16t33 -41.5t10 -53.5v-138q0 -16 -1 -34t-1 -36h3q15 47 47 73.5t77 26.5zM287 38q57 0 84.5 60.5t27.5 171.5
t-26 167.5t-82 56.5q-65 0 -90.5 -58.5t-25.5 -150.5v-25q0 -106 28.5 -164t83.5 -58z" />
    <glyph glyph-name="uni2D07" unicode="&#x2d07;" horiz-adv-x="643" 
d="M176 -10q-62 0 -86.5 44t-24.5 132v366h40l6 -93h4q8 24 21.5 47.5t36.5 39.5t60 16q50 0 73.5 -30t30.5 -69h5q15 43 42 71t75 28q56 0 87 -41t31 -129v-372h-53v360q0 72 -22 103.5t-56 31.5q-45 0 -71.5 -45.5t-26.5 -123.5v-326h-41l-4 104h-3q-9 -29 -23.5 -55
t-38.5 -42.5t-62 -16.5zM189 38q49 0 77.5 49.5t28.5 150.5v108q0 85 -21.5 117t-54.5 32q-35 0 -57.5 -24.5t-33 -63.5t-10.5 -82v-142q0 -76 15 -110.5t56 -34.5z" />
    <glyph glyph-name="uni2D08" unicode="&#x2d08;" horiz-adv-x="304" 
d="M185 0v376q0 54 -16 81t-65 27h-94v48h100q75 0 101.5 -41t26.5 -113v-378h-53z" />
    <glyph glyph-name="uni2D09" unicode="&#x2d09;" horiz-adv-x="462" 
d="M343 -240v260q0 16 0.5 34t1.5 36h-3q-16 -47 -47.5 -73.5t-76.5 -26.5q-153 0 -153 277v493h54v-248q0 -16 -1 -34t-1 -36h3q15 47 47 73.5t77 26.5q76 0 114 -70t38 -204v-508h-53zM227 38q42 0 67.5 27t37 74.5t11.5 108.5v24q0 101 -24 161.5t-84 60.5
q-65 0 -90.5 -58.5t-25.5 -150.5v-20q0 -114 25.5 -170.5t82.5 -56.5z" />
    <glyph glyph-name="uni2D0A" unicode="&#x2d0a;" horiz-adv-x="646" 
d="M408 -10q-62 0 -86 44t-24 132v180q0 85 -21.5 117t-54.5 32q-35 0 -57.5 -25t-33 -64.5t-10.5 -85.5v-320h-53v532h40l6 -93h4q8 24 21.5 47.5t36.5 39.5t60 16q50 0 73.5 -30t30.5 -69h5q15 43 42 71t75 28q56 0 87 -41t31 -129v-372h-41l-5 104h-3q-8 -29 -22.5 -55
t-39 -42.5t-61.5 -16.5zM420 38q49 0 78 49.5t29 150.5v122q0 72 -22 103.5t-56 31.5q-45 0 -71.5 -45.5t-26.5 -121.5v-145q0 -76 14 -110.5t55 -34.5z" />
    <glyph glyph-name="uni2D0B" unicode="&#x2d0b;" horiz-adv-x="441" 
d="M211 -10q-62 0 -99 36.5t-53 99t-16 140.5q0 134 42 200t135 66h101v58q0 66 -17 95t-75 29h-123v46h127q57 0 87.5 -18.5t42.5 -56t12 -93.5v-331q0 -142 -40.5 -206.5t-123.5 -64.5zM211 38q62 0 86 58.5t24 162.5v225h-95q-71 0 -100.5 -51t-29.5 -165
q0 -110 27.5 -170t87.5 -60z" />
    <glyph glyph-name="uni2D0C" unicode="&#x2d0c;" horiz-adv-x="431" 
d="M65 0v559q0 102 36.5 151.5t123.5 49.5h110v-46h-107q-63 0 -86.5 -37.5t-23.5 -119.5v-54q0 -22 -1 -37t-2 -31h3q8 25 23 49.5t40 40.5t62 16q58 0 90 -45t32 -132v-364h-53v349q0 78 -22.5 111t-58.5 33q-47 0 -80 -49.5t-33 -155.5v-288h-53z" />
    <glyph glyph-name="uni2D0D" unicode="&#x2d0d;" horiz-adv-x="644" 
d="M183 -10q-56 0 -87 41.5t-31 129.5v371h53v-359q0 -73 21.5 -104t55.5 -31q45 0 72 45t27 123v326h52v-345q0 -86 21.5 -117.5t54.5 -31.5q36 0 58.5 24.5t33 64.5t10.5 86v319h53v-532h-41l-5 93h-4q-8 -23 -21.5 -47t-36.5 -40t-60 -16q-51 0 -74.5 30t-29.5 70h-5
q-16 -43 -42.5 -71.5t-74.5 -28.5z" />
    <glyph glyph-name="uni2D0E" unicode="&#x2d0e;" horiz-adv-x="488" 
d="M369 532h52v-532h-41l-4 104h-3q-9 -29 -24 -55t-40.5 -42.5t-65.5 -16.5q-122 0 -122 176v243q0 47 -17 62t-47 15h-47v46h58q41 0 64 -16t32.5 -41.5t9.5 -53.5v-238q0 -76 20.5 -110.5t61.5 -34.5q53 0 83 49.5t30 150.5v294z" />
    <glyph glyph-name="uni2D0F" unicode="&#x2d0f;" horiz-adv-x="488" 
d="M369 -240v210q0 28 1.5 59t5.5 75h-3q-9 -29 -24 -55t-40.5 -42.5t-65.5 -16.5q-122 0 -122 176v243q0 47 -17 62t-47 15h-47v46h58q41 0 64 -16t32.5 -41.5t9.5 -53.5v-238q0 -76 20.5 -110.5t61.5 -34.5q53 0 83 49.5t30 150.5v294h52v-772h-52z" />
    <glyph glyph-name="uni2D10" unicode="&#x2d10;" horiz-adv-x="647" 
d="M177 -10q-61 0 -86.5 44t-25.5 132v366h53v-349q0 -76 15.5 -110.5t57.5 -34.5q49 0 77.5 49.5t28.5 150.5v522h52v-243q0 -46 -4 -81h3q8 26 22 50t38 40t60 16q60 0 86.5 -45.5t26.5 -131.5v-365h-53v350q0 77 -17.5 110.5t-55.5 33.5q-47 0 -76.5 -49t-29.5 -156v-289
h-40l-5 104h-3q-9 -29 -23.5 -55t-39 -42.5t-61.5 -16.5z" />
    <glyph glyph-name="uni2D11" unicode="&#x2d11;" horiz-adv-x="432" 
d="M187 -10q-122 0 -122 176v594h53v-577q0 -76 20.5 -110.5t60.5 -34.5q54 0 83.5 49.5t29.5 150.5v294h53v-532h-41l-4 104h-4q-8 -29 -23 -55t-40.5 -42.5t-65.5 -16.5z" />
    <glyph glyph-name="uni2D12" unicode="&#x2d12;" horiz-adv-x="442" 
d="M243 542q78 0 117 -72t39 -206q0 -138 -39.5 -206t-111.5 -68q-47 0 -78.5 28t-47.5 75h-4q2 -27 3 -49.5t1 -41.5v-41q0 -87 34.5 -124.5t102.5 -37.5q32 0 60.5 8.5t58.5 25.5v-52q-54 -31 -120 -31q-99 0 -144.5 56.5t-45.5 164.5v561h44l6 -79h4q17 40 45.5 64.5
t75.5 24.5zM234 494q-60 0 -86 -52.5t-26 -141.5v-67q0 -54 11.5 -98.5t37 -70.5t65.5 -26q54 0 81.5 54.5t27.5 171.5q0 107 -26 168.5t-85 61.5z" />
    <glyph glyph-name="uni2D13" unicode="&#x2d13;" horiz-adv-x="644" 
d="M524 -240v210q0 29 1.5 57.5t4.5 65.5h-3q-8 -23 -21.5 -47t-36.5 -40t-60 -16q-51 0 -74.5 30t-29.5 70h-5q-16 -43 -42.5 -71.5t-74.5 -28.5q-56 0 -87 41.5t-31 129.5v371h53v-359q0 -73 21.5 -104t55.5 -31q45 0 72 45t27 123v326h52v-345q0 -86 22 -117.5t55 -31.5
q35 0 57.5 24.5t33 64.5t10.5 86v547h53v-1000h-53z" />
    <glyph glyph-name="uni2D14" unicode="&#x2d14;" horiz-adv-x="650" 
d="M298 -240v251q0 20 1 39.5t2 45.5h-3q-9 -42 -38.5 -74t-77.5 -32q-68 0 -103.5 72.5t-35.5 209.5q0 131 35.5 200.5t104.5 69.5q33 0 56 -15.5t38 -40t23 -50.5h3l6 96h32l6 -96h3q8 26 22.5 50.5t38 40t56.5 15.5q69 0 104.5 -69.5t35.5 -200.5q0 -137 -36 -209.5
t-103 -72.5q-48 0 -77.5 32t-38.5 74h-3q1 -26 2 -45.5t1 -39.5v-251h-54zM193 37q47 0 76 47.5t29 149.5v69q0 89 -27 141t-76 52q-51 0 -75 -58t-24 -166q0 -115 24.5 -175t72.5 -60zM457 37q48 0 72.5 60t24.5 175q0 108 -24 166t-75 58q-49 0 -76 -52t-27 -141v-69
q0 -102 29 -149.5t76 -47.5z" />
    <glyph glyph-name="uni2D15" unicode="&#x2d15;" horiz-adv-x="306" 
d="M127 -240v726h-117v46h117v228h52v-228h116v-46h-116v-726h-52z" />
    <glyph glyph-name="uni2D16" unicode="&#x2d16;" horiz-adv-x="432" 
d="M244 542q59 0 90.5 -42t31.5 -130v-370h-53v357q0 71 -20 104t-58 33q-53 0 -83 -48.5t-30 -150.5v-295h-54v532h43l5 -92h3q14 42 44.5 72t80.5 30z" />
    <glyph glyph-name="uni2D17" unicode="&#x2d17;" horiz-adv-x="432" 
d="M312 -240v210q0 28 2 59t5 75h-3q-8 -29 -23 -55t-40.5 -42.5t-65.5 -16.5q-122 0 -122 176v366h53v-349q0 -76 20.5 -110.5t60.5 -34.5q54 0 83.5 49.5t29.5 150.5v294h53v-772h-53z" />
    <glyph glyph-name="uni2D18" unicode="&#x2d18;" horiz-adv-x="432" 
d="M204 -250q-37 0 -68 8.5t-59 24.5v48q30 -17 59.5 -25.5t63.5 -8.5q62 0 87.5 41.5t25.5 129.5v19q0 22 1.5 49t4.5 68h-3q-8 -29 -23 -55t-40.5 -42.5t-65.5 -16.5q-122 0 -122 176v366h53v-349q0 -76 20.5 -110.5t60.5 -34.5q54 0 83.5 49.5t29.5 150.5v294h53v-562
q0 -114 -40 -167t-121 -53z" />
    <glyph glyph-name="uni2D19" unicode="&#x2d19;" horiz-adv-x="434" 
d="M68 -240v1000h53v-243q0 -25 -1 -43t-3 -38h3q9 26 24 50t40 40t62 16q58 0 90 -44.5t32 -132.5v-365h-53v350q0 78 -22.5 111t-58.5 33q-47 0 -80 -49t-33 -156v-529h-53z" />
    <glyph glyph-name="uni2D1A" unicode="&#x2d1a;" horiz-adv-x="434" 
d="M227 -250q-84 0 -121.5 54t-37.5 172v556h41l4 -103h4q8 29 23.5 54.5t41.5 42t64 16.5q58 0 90 -41.5t32 -128.5v-372h-53v354q0 75 -21 108t-59 33q-48 0 -81 -48t-33 -147v-324q0 -95 25.5 -137t87.5 -42q34 0 63 8.5t60 25.5v-48q-30 -16 -61.5 -24.5t-68.5 -8.5z
" />
    <glyph glyph-name="uni2D1B" unicode="&#x2d1b;" horiz-adv-x="647" 
d="M183 -10q-69 0 -104.5 69.5t-35.5 201.5q0 136 35.5 208.5t103.5 72.5q48 0 77.5 -32t38.5 -73h3q-1 25 -2 44.5t-1 39.5v239h53v-243q0 -25 -1 -43t-3 -37h2q8 25 21.5 49t37 40t59.5 16q61 0 87.5 -45.5t26.5 -131.5v-365h-52v350q0 77 -17.5 110.5t-55.5 33.5
q-47 0 -76 -49t-29 -156v-289h-42l-6 96h-3q-8 -26 -23 -50.5t-38 -40t-56 -15.5zM195 37q49 0 76 51.5t27 141.5v68q0 102 -29 149.5t-76 47.5q-48 0 -72.5 -60t-24.5 -174q0 -109 24 -166.5t75 -57.5z" />
    <glyph glyph-name="uni2D1C" unicode="&#x2d1c;" horiz-adv-x="646" 
d="M68 -240v772h40l6 -93h4q8 24 21.5 47.5t36.5 39.5t60 16q50 0 73.5 -30t30.5 -69h5q15 43 42 71t75 28q56 0 87 -41t31 -129v-372h-53v360q0 72 -22 103.5t-56 31.5q-45 0 -71.5 -45.5t-26.5 -123.5v-326h-53v346q0 85 -21.5 117t-54.5 32q-35 0 -57.5 -25t-33 -64.5
t-10.5 -85.5v-560h-53z" />
    <glyph glyph-name="uni2D1D" unicode="&#x2d1d;" horiz-adv-x="427" 
d="M197 -250q-37 0 -68.5 8.5t-60.5 24.5v48q31 -17 60 -25.5t63 -8.5q59 0 90 29t31 78q0 48 -30.5 72t-80.5 24h-133v532h40l8 -92h3q14 42 44.5 72t80.5 30q59 0 90.5 -42t31.5 -130v-120h-53v107q0 71 -20 104t-58 33q-53 0 -83 -48.5t-30 -150.5v-249h91
q36 0 71.5 -13.5t58.5 -44.5t23 -83q0 -74 -45 -114.5t-124 -40.5z" />
    <glyph glyph-name="uni2D1E" unicode="&#x2d1e;" horiz-adv-x="434" 
d="M228 -250q-83 0 -121.5 53t-38.5 167v562h53v-294q0 -101 29.5 -150.5t83.5 -49.5q40 0 60.5 34.5t20.5 110.5v349h53v-366q0 -176 -123 -176q-40 0 -65.5 15.5t-40 40t-22.5 53.5h-3q3 -42 4.5 -70.5t1.5 -64.5q0 -84 25.5 -125.5t88.5 -41.5q34 0 63 8.5t60 25.5v-48
q-30 -16 -61 -24.5t-68 -8.5z" />
    <glyph glyph-name="uni2D1F" unicode="&#x2d1f;" horiz-adv-x="394" 
d="M-26 -240l213 484l-116 242h-66v46h363v-31l-117 -257l116 -244h-55l-93 203l-189 -443h-56zM219 277l92 209h-186z" />
    <glyph glyph-name="uni2D20" unicode="&#x2d20;" horiz-adv-x="656" 
d="M417 -10q-61 0 -86 44t-25 132v188q0 75 -17.5 108t-58.5 33q-46 0 -77.5 -48.5t-31.5 -146.5v-300h-53v532l41 1l6 -101h3q8 27 23.5 52t40 41.5t60.5 16.5q60 0 88 -41.5t28 -128.5v-189q0 -76 15.5 -110.5t57.5 -34.5q48 0 76.5 49.5t28.5 150.5v294h53v-532h-41
l-5 104h-3q-8 -29 -22.5 -55t-38.5 -42.5t-62 -16.5z" />
    <glyph glyph-name="uni2D21" unicode="&#x2d21;" horiz-adv-x="386" 
d="M68 -240v1000h53v-309h2q9 37 34.5 63.5t62.5 26.5q43 0 64.5 -32.5t21.5 -106.5q0 -54 11.5 -72.5t38.5 -18.5h19v-46h-30q-51 0 -71 32.5t-20 93.5q0 50 -10.5 75.5t-41.5 25.5q-32 0 -56.5 -38.5t-24.5 -117.5v-576h-53z" />
    <glyph glyph-name="uni2D22" unicode="&#x2d22;" horiz-adv-x="419" 
d="M207 -10q-53 0 -89.5 25.5t-55.5 70t-19 100.5q0 37 8 75h52q-6 -35 -6 -67q0 -69 27.5 -113t82.5 -44q62 0 88 62t26 170q0 217 -137 217h-128v46h129q101 0 146 -71.5t45 -190.5q0 -129 -41 -204.5t-128 -75.5z" />
    <glyph glyph-name="uni2D23" unicode="&#x2d23;" horiz-adv-x="432" 
d="M312 -240v210q0 34 2 64.5t5 69.5h-3q-8 -29 -23 -55t-40.5 -42.5t-65.5 -16.5q-122 0 -122 176v366h53v-349q0 -76 20.5 -110.5t60.5 -34.5q54 0 83.5 49.5t29.5 150.5v522h53v-1000h-53z" />
    <glyph glyph-name="uni2D24" unicode="&#x2d24;" horiz-adv-x="434" 
d="M191 -240v231q-64 6 -95 61.5t-31 148.5v331h53v-330q0 -169 99 -169t99 169v330h52v-332q0 -93 -31 -148t-94 -61v-231h-52z" />
    <glyph glyph-name="uni2D25" unicode="&#x2d25;" horiz-adv-x="647" 
d="M467 542q61 0 87.5 -45.5t26.5 -131.5v-365h-52v350q0 77 -17.5 110.5t-55.5 33.5q-47 0 -76 -49t-29 -156v-289h-42l-6 96h-3q-8 -26 -23 -50.5t-38 -40t-56 -15.5q-69 0 -104.5 69.5t-35.5 201.5q0 136 35.5 208.5t103.5 72.5q48 0 77.5 -32t38.5 -73h3q-1 25 -2 44.5
t-1 39.5v54q0 93 37.5 139t122.5 46h100v-46h-98q-62 0 -85.5 -36.5t-23.5 -110.5v-50q0 -25 -1 -43t-3 -37h2q8 25 21.5 49t37 40t59.5 16zM298 230v68q0 102 -29 149.5t-76 47.5q-48 0 -72.5 -60t-24.5 -174q0 -109 24 -166.5t75 -57.5q49 0 76 51.5t27 141.5z" />
    <glyph glyph-name="uni2D27" unicode="&#x2d27;" horiz-adv-x="371" 
d="M185 -250q-65 0 -106 50t-41 145q0 64 16.5 109t44 78.5t59.5 61.5q33 29 58 54.5t39.5 57t14.5 78.5q0 53 -21 82.5t-60 29.5q-40 0 -61 -32t-21 -81q0 -12 1 -23t2 -17h-54q-1 7 -2 18.5t-1 21.5q0 69 35.5 114t100.5 45q66 0 100.5 -43t34.5 -114q0 -53 -15.5 -91
t-44.5 -70t-70 -67q-31 -27 -54 -56t-35.5 -66.5t-12.5 -90.5q0 -72 25 -109.5t67 -37.5t68.5 34t26.5 112q0 39 -7 68h55q2 -13 4 -31.5t2 -38.5q0 -99 -41.5 -145t-106.5 -46z" />
    <glyph glyph-name="uni2D2D" unicode="&#x2d2d;" horiz-adv-x="281" 
d="M259 0h-232v40l169 445h-157v47h215v-41l-168 -444h173v-47z" />
    <glyph glyph-name="macroncomb" horiz-adv-x="600" 
d="M94 0v714h411v-714h-411zM145 51h309v612h-309v-612z" />
    <glyph glyph-name="uni1C90_uni0308.ccmp" horiz-adv-x="439" 
d="M217 -10q-77 0 -125.5 55t-49.5 163q1 69 26 144h-25l31 17q-4 -9 -6 -17h55q-23 -75 -23 -141q0 -86 31 -128t85 -42q117 0 117 177q0 76 -23.5 137t-52.5 116q-21 39 -39 77t-26.5 79t-2.5 87h55q-8 -61 13 -114.5t52 -109.5q30 -57 56 -122.5t26 -149.5
q0 -115 -48 -171.5t-126 -56.5zM129 370l18 -18h-24q2 9 6 18zM107 833q0 19 9.5 30t24.5 11q14 0 23.5 -11t9.5 -30q0 -21 -9.5 -31.5t-23.5 -10.5q-15 0 -24.5 11t-9.5 31zM259 833q0 19 9.5 30t24.5 11q14 0 24 -10.5t10 -30.5t-10 -31t-24 -11q-15 0 -24.5 11t-9.5 31z
" />
    <glyph glyph-name="uni1C90_acutecomb.ccmp" horiz-adv-x="439" 
d="M217 -10q-77 0 -125.5 55t-49.5 163q1 69 26 144h-25l31 17q-4 -9 -6 -17h55q-23 -75 -23 -141q0 -86 31 -128t85 -42q117 0 117 177q0 76 -23.5 137t-52.5 116q-21 39 -39 77t-26.5 79t-2.5 87h55q-8 -61 13 -114.5t52 -109.5q30 -57 56 -122.5t26 -149.5
q0 -115 -48 -171.5t-126 -56.5zM129 370l18 -18h-24q2 9 6 18zM321 947v-8q-14 -23 -37.5 -51.5t-48 -55t-44.5 -44.5h-33v12q31 40 55 75t45 72h63z" />
    <glyph glyph-name="uni1C90_uni0304.ccmp" horiz-adv-x="439" 
d="M217 -10q-77 0 -125.5 55t-49.5 163q1 69 26 144h-25l31 17q-4 -9 -6 -17h55q-23 -75 -23 -141q0 -86 31 -128t85 -42q117 0 117 177q0 76 -23.5 137t-52.5 116q-21 39 -39 77t-26.5 79t-2.5 87h55q-8 -61 13 -114.5t52 -109.5q30 -57 56 -122.5t26 -149.5
q0 -115 -48 -171.5t-126 -56.5zM129 370l18 -18h-24q2 9 6 18zM328 851v-43h-223v43h223z" />
    <glyph glyph-name="uni1C90_uni0304_uni0308.ccmp" horiz-adv-x="439" 
d="M217 -10q-77 0 -125.5 55t-49.5 163q1 69 26 144h-25l31 17q-4 -9 -6 -17h55q-23 -75 -23 -141q0 -86 31 -128t85 -42q117 0 117 177q0 76 -23.5 137t-52.5 116q-21 39 -39 77t-26.5 79t-2.5 87h55q-8 -61 13 -114.5t52 -109.5q30 -57 56 -122.5t26 -149.5
q0 -115 -48 -171.5t-126 -56.5zM129 370l18 -18h-24q2 9 6 18zM328 851v-43h-223v43h223zM107 970q0 19 9.5 30t24.5 11q14 0 23.5 -11t9.5 -30q0 -21 -9.5 -31.5t-23.5 -10.5q-15 0 -24.5 11t-9.5 31zM259 970q0 19 9.5 30t24.5 11q14 0 24 -10.5t10 -30.5t-10 -31t-24 -11
q-15 0 -24.5 11t-9.5 31z" />
    <glyph glyph-name="uni1C94_acutecomb.ccmp" 
d="M217 -10q-63 0 -101.5 28t-55.5 72t-17 94q0 35 5.5 62.5t12.5 46.5h55q-7 -20 -11.5 -46.5t-4.5 -60.5q0 -64 28 -104.5t88 -40.5q57 0 87.5 39.5t30.5 117.5v357q0 60 -30 89.5t-76 29.5q-44 0 -75.5 -27t-31.5 -92q0 -25 2.5 -45.5t6.5 -38.5h-55q-6 23 -8.5 43.5
t-2.5 43.5q0 84 47 125t117 41q41 0 77.5 -17.5t60 -54.5t23.5 -94v-360q0 -104 -47 -156t-125 -52zM330 947v-8q-14 -23 -37.5 -51.5t-48 -55t-44.5 -44.5h-33v12q31 40 55 75t45 72h63z" />
    <glyph glyph-name="uni1C94_uni0304.ccmp" 
d="M217 -10q-63 0 -101.5 28t-55.5 72t-17 94q0 35 5.5 62.5t12.5 46.5h55q-7 -20 -11.5 -46.5t-4.5 -60.5q0 -64 28 -104.5t88 -40.5q57 0 87.5 39.5t30.5 117.5v357q0 60 -30 89.5t-76 29.5q-44 0 -75.5 -27t-31.5 -92q0 -25 2.5 -45.5t6.5 -38.5h-55q-6 23 -8.5 43.5
t-2.5 43.5q0 84 47 125t117 41q41 0 77.5 -17.5t60 -54.5t23.5 -94v-360q0 -104 -47 -156t-125 -52zM337 851v-43h-223v43h223z" />
    <glyph glyph-name="uni1C98_acutecomb.ccmp" horiz-adv-x="471" 
d="M113 0q-31 95 -46 192.5t-15 223.5q0 162 47.5 235t136.5 73q88 0 135.5 -73t47.5 -235q0 -126 -15 -223.5t-45 -192.5h-58q30 93 45 192.5t15 223.5q0 139 -32 198.5t-93 59.5q-62 0 -94 -59.5t-32 -198.5q0 -124 15 -223.5t45 -192.5h-57zM340 947v-8
q-14 -23 -37.5 -51.5t-48 -55t-44.5 -44.5h-33v12q31 40 55 75t45 72h63z" />
    <glyph glyph-name="uni1C98_uni0304.ccmp" horiz-adv-x="471" 
d="M113 0q-31 95 -46 192.5t-15 223.5q0 162 47.5 235t136.5 73q88 0 135.5 -73t47.5 -235q0 -126 -15 -223.5t-45 -192.5h-58q30 93 45 192.5t15 223.5q0 139 -32 198.5t-93 59.5q-62 0 -94 -59.5t-32 -198.5q0 -124 15 -223.5t45 -192.5h-57zM347 851v-43h-223v43h223z
" />
    <glyph glyph-name="uni1C9D_uni0308.ccmp" horiz-adv-x="639" 
d="M125 0q-35 95 -54 196t-19 225q0 159 37.5 231t111.5 72q39 0 71.5 -21.5t46.5 -84.5h2q14 62 46 84t69 22q75 0 113 -72t38 -231q0 -127 -19 -226.5t-53 -194.5h-58q35 94 54 196.5t19 224.5q0 135 -24 194t-72 59q-35 0 -53.5 -24t-26 -65t-7.5 -94v-271h-55v271
q0 53 -7.5 94.5t-26.5 65t-54 23.5q-47 0 -70.5 -59t-23.5 -194q0 -120 18.5 -223t53.5 -198h-57zM210 833q0 19 9.5 30t24.5 11q14 0 23.5 -11t9.5 -30q0 -21 -9.5 -31.5t-23.5 -10.5q-15 0 -24.5 11t-9.5 31zM362 833q0 19 9.5 30t24.5 11q14 0 24 -10.5t10 -30.5t-10 -31
t-24 -11q-15 0 -24.5 11t-9.5 31z" />
    <glyph glyph-name="uni1C9D_acutecomb.ccmp" horiz-adv-x="639" 
d="M125 0q-35 95 -54 196t-19 225q0 159 37.5 231t111.5 72q39 0 71.5 -21.5t46.5 -84.5h2q14 62 46 84t69 22q75 0 113 -72t38 -231q0 -127 -19 -226.5t-53 -194.5h-58q35 94 54 196.5t19 224.5q0 135 -24 194t-72 59q-35 0 -53.5 -24t-26 -65t-7.5 -94v-271h-55v271
q0 53 -7.5 94.5t-26.5 65t-54 23.5q-47 0 -70.5 -59t-23.5 -194q0 -120 18.5 -223t53.5 -198h-57zM424 947v-8q-14 -23 -37.5 -51.5t-48 -55t-44.5 -44.5h-33v12q31 40 55 75t45 72h63z" />
    <glyph glyph-name="uni1C9D_uni0304.ccmp" horiz-adv-x="639" 
d="M125 0q-35 95 -54 196t-19 225q0 159 37.5 231t111.5 72q39 0 71.5 -21.5t46.5 -84.5h2q14 62 46 84t69 22q75 0 113 -72t38 -231q0 -127 -19 -226.5t-53 -194.5h-58q35 94 54 196.5t19 224.5q0 135 -24 194t-72 59q-35 0 -53.5 -24t-26 -65t-7.5 -94v-271h-55v271
q0 53 -7.5 94.5t-26.5 65t-54 23.5q-47 0 -70.5 -59t-23.5 -194q0 -120 18.5 -223t53.5 -198h-57zM319 851v-43v0v43v0z" />
    <glyph glyph-name="uni1C9D_uni0304_uni0308.ccmp" horiz-adv-x="639" 
d="M125 0q-35 95 -54 196t-19 225q0 159 37.5 231t111.5 72q39 0 71.5 -21.5t46.5 -84.5h2q14 62 46 84t69 22q75 0 113 -72t38 -231q0 -127 -19 -226.5t-53 -194.5h-58q35 94 54 196.5t19 224.5q0 135 -24 194t-72 59q-35 0 -53.5 -24t-26 -65t-7.5 -94v-271h-55v271
q0 53 -7.5 94.5t-26.5 65t-54 23.5q-47 0 -70.5 -59t-23.5 -194q0 -120 18.5 -223t53.5 -198h-57zM431 851v-43h-223v43h223zM210 970q0 19 9.5 30t24.5 11q14 0 23.5 -11t9.5 -30q0 -21 -9.5 -31.5t-23.5 -10.5q-15 0 -24.5 11t-9.5 31zM362 970q0 19 9.5 30t24.5 11
q14 0 24 -10.5t10 -30.5t-10 -31t-24 -11q-15 0 -24.5 11t-9.5 31z" />
    <glyph glyph-name="uni1CA3_uni0308.ccmp" horiz-adv-x="477" 
d="M236 -10q-62 0 -100.5 28t-56 72t-17.5 94q0 35 5.5 62.5t13.5 46.5h55q-7 -20 -12 -46.5t-5 -60.5q0 -64 28.5 -104.5t88.5 -40.5q57 0 87 39.5t30 117.5v371q0 27 -6.5 51.5t-24 39.5t-50.5 15q-44 0 -62 -29.5t-18 -74.5v-126h-54v126q0 45 -20 71.5t-60 26.5h-30v50
h33q44 0 69 -22t32 -55h2q8 32 35.5 57t78.5 25q70 0 100 -43t30 -108v-375q0 -104 -47 -156t-125 -52zM120 833q0 19 9.5 30t24.5 11q14 0 23.5 -11t9.5 -30q0 -21 -9.5 -31.5t-23.5 -10.5q-15 0 -24.5 11t-9.5 31zM272 833q0 19 9.5 30t24.5 11q14 0 24 -10.5t10 -30.5
t-10 -31t-24 -11q-15 0 -24.5 11t-9.5 31z" />
    <glyph glyph-name="uni1CA3_acutecomb.ccmp" horiz-adv-x="477" 
d="M236 -10q-62 0 -100.5 28t-56 72t-17.5 94q0 35 5.5 62.5t13.5 46.5h55q-7 -20 -12 -46.5t-5 -60.5q0 -64 28.5 -104.5t88.5 -40.5q57 0 87 39.5t30 117.5v371q0 27 -6.5 51.5t-24 39.5t-50.5 15q-44 0 -62 -29.5t-18 -74.5v-126h-54v126q0 45 -20 71.5t-60 26.5h-30v50
h33q44 0 69 -22t32 -55h2q8 32 35.5 57t78.5 25q70 0 100 -43t30 -108v-375q0 -104 -47 -156t-125 -52zM335 947v-8q-14 -23 -37.5 -51.5t-48 -55t-44.5 -44.5h-33v12q31 40 55 75t45 72h63z" />
    <glyph glyph-name="uni1CA3_uni0302.ccmp" horiz-adv-x="477" 
d="M236 -10q-62 0 -100.5 28t-56 72t-17.5 94q0 35 5.5 62.5t13.5 46.5h55q-7 -20 -12 -46.5t-5 -60.5q0 -64 28.5 -104.5t88.5 -40.5q57 0 87 39.5t30 117.5v371q0 27 -6.5 51.5t-24 39.5t-50.5 15q-44 0 -62 -29.5t-18 -74.5v-126h-54v126q0 45 -20 71.5t-60 26.5h-30v50
h33q44 0 69 -22t32 -55h2q8 32 35.5 57t78.5 25q70 0 100 -43t30 -108v-375q0 -104 -47 -156t-125 -52zM257 947q11 -23 28 -52.5t34 -56t29 -41.5v-9h-30q-21 23 -44 52.5t-44 58.5q-21 -27 -44.5 -58.5t-42.5 -52.5h-30v9q14 20 31 46.5t32.5 54t26.5 49.5h54z" />
    <glyph glyph-name="uni1CA3_uni0304.ccmp" horiz-adv-x="477" 
d="M236 -10q-62 0 -100.5 28t-56 72t-17.5 94q0 35 5.5 62.5t13.5 46.5h55q-7 -20 -12 -46.5t-5 -60.5q0 -64 28.5 -104.5t88.5 -40.5q57 0 87 39.5t30 117.5v371q0 27 -6.5 51.5t-24 39.5t-50.5 15q-44 0 -62 -29.5t-18 -74.5v-126h-54v126q0 45 -20 71.5t-60 26.5h-30v50
h33q44 0 69 -22t32 -55h2q8 32 35.5 57t78.5 25q70 0 100 -43t30 -108v-375q0 -104 -47 -156t-125 -52zM230 851v-43v0v43v0z" />
    <glyph glyph-name="uni1CA3_uni0304_uni0308.ccmp" horiz-adv-x="477" 
d="M236 -10q-62 0 -100.5 28t-56 72t-17.5 94q0 35 5.5 62.5t13.5 46.5h55q-7 -20 -12 -46.5t-5 -60.5q0 -64 28.5 -104.5t88.5 -40.5q57 0 87 39.5t30 117.5v371q0 27 -6.5 51.5t-24 39.5t-50.5 15q-44 0 -62 -29.5t-18 -74.5v-126h-54v126q0 45 -20 71.5t-60 26.5h-30v50
h33q44 0 69 -22t32 -55h2q8 32 35.5 57t78.5 25q70 0 100 -43t30 -108v-375q0 -104 -47 -156t-125 -52zM342 851v-43h-223v43h223zM120 970q0 19 9.5 30t24.5 11q14 0 23.5 -11t9.5 -30q0 -21 -9.5 -31.5t-23.5 -10.5q-15 0 -24.5 11t-9.5 31zM272 970q0 19 9.5 30t24.5 11
q14 0 24 -10.5t10 -30.5t-10 -31t-24 -11q-15 0 -24.5 11t-9.5 31z" />
    <glyph glyph-name="uni1CB7_acutecomb.ccmp" horiz-adv-x="418" 
d="M210 -9q-75 0 -121 47.5t-46 136.5q0 60 20.5 100.5t53 67t66.5 46.5q35 20 63.5 42t46 53.5t17.5 79.5q0 51 -25 82t-72 31q-48 0 -72 -30t-24 -77q0 -26 3 -38h-56q-1 9 -2 19t-1 20q0 66 39 109.5t114 43.5q71 0 111.5 -45t40.5 -114q0 -63 -21.5 -103t-54.5 -65.5
t-68 -46.5q-31 -19 -59.5 -42t-46 -55t-17.5 -79q0 -66 30 -101t80 -35q46 0 78.5 31.5t32.5 103.5q0 22 -3 41h54q2 -10 3.5 -21t1.5 -22q0 -93 -48 -136.5t-118 -43.5zM319 947v-8q-14 -23 -37.5 -51.5t-48 -55t-44.5 -44.5h-33v12q31 40 55 75t45 72h63z" />
    <glyph glyph-name="uni1CB7_uni0304.ccmp" horiz-adv-x="418" 
d="M210 -9q-75 0 -121 47.5t-46 136.5q0 60 20.5 100.5t53 67t66.5 46.5q35 20 63.5 42t46 53.5t17.5 79.5q0 51 -25 82t-72 31q-48 0 -72 -30t-24 -77q0 -26 3 -38h-56q-1 9 -2 19t-1 20q0 66 39 109.5t114 43.5q71 0 111.5 -45t40.5 -114q0 -63 -21.5 -103t-54.5 -65.5
t-68 -46.5q-31 -19 -59.5 -42t-46 -55t-17.5 -79q0 -66 30 -101t80 -35q46 0 78.5 31.5t32.5 103.5q0 22 -3 41h54q2 -10 3.5 -21t1.5 -22q0 -93 -48 -136.5t-118 -43.5zM326 851v-43h-223v43h223z" />
    <glyph glyph-name="uni10D0_uni0308.ccmp" horiz-adv-x="390" 
d="M193 -10q-69 0 -111.5 42.5t-42.5 130.5q0 25 3 46.5t11 45.5h50q-5 -22 -7.5 -43.5t-2.5 -46.5q0 -70 28 -98.5t71 -28.5q46 0 73 32t27 98q0 59 -18.5 97.5t-41.5 73.5q-24 37 -44.5 80.5t-20.5 112.5h54q0 -52 15.5 -90t36.5 -71q18 -28 35 -57t28 -64.5t11 -83.5
q0 -62 -22 -101t-57 -57t-75 -18zM86 651q0 19 9.5 30t24.5 11q14 0 23.5 -11t9.5 -30q0 -21 -9.5 -31.5t-23.5 -10.5q-15 0 -24.5 11t-9.5 31zM238 651q0 19 9.5 30t24.5 11q14 0 24 -10.5t10 -30.5t-10 -31t-24 -11q-15 0 -24.5 11t-9.5 31z" />
    <glyph glyph-name="uni10D0_acutecomb.ccmp" horiz-adv-x="390" 
d="M193 -10q-69 0 -111.5 42.5t-42.5 130.5q0 25 3 46.5t11 45.5h50q-5 -22 -7.5 -43.5t-2.5 -46.5q0 -70 28 -98.5t71 -28.5q46 0 73 32t27 98q0 59 -18.5 97.5t-41.5 73.5q-24 37 -44.5 80.5t-20.5 112.5h54q0 -52 15.5 -90t36.5 -71q18 -28 35 -57t28 -64.5t11 -83.5
q0 -62 -22 -101t-57 -57t-75 -18zM300 765v-8q-14 -23 -37.5 -51.5t-48 -55t-44.5 -44.5h-33v12q31 40 55 75t45 72h63z" />
    <glyph glyph-name="uni10D0_uni0304.ccmp" horiz-adv-x="390" 
d="M193 -10q-69 0 -111.5 42.5t-42.5 130.5q0 25 3 46.5t11 45.5h50q-5 -22 -7.5 -43.5t-2.5 -46.5q0 -70 28 -98.5t71 -28.5q46 0 73 32t27 98q0 59 -18.5 97.5t-41.5 73.5q-24 37 -44.5 80.5t-20.5 112.5h54q0 -52 15.5 -90t36.5 -71q18 -28 35 -57t28 -64.5t11 -83.5
q0 -62 -22 -101t-57 -57t-75 -18zM307 669v-43h-223v43h223z" />
    <glyph glyph-name="uni10D0_uni0304_uni0308.ccmp" horiz-adv-x="390" 
d="M193 -10q-69 0 -111.5 42.5t-42.5 130.5q0 25 3 46.5t11 45.5h50q-5 -22 -7.5 -43.5t-2.5 -46.5q0 -70 28 -98.5t71 -28.5q46 0 73 32t27 98q0 59 -18.5 97.5t-41.5 73.5q-24 37 -44.5 80.5t-20.5 112.5h54q0 -52 15.5 -90t36.5 -71q18 -28 35 -57t28 -64.5t11 -83.5
q0 -62 -22 -101t-57 -57t-75 -18zM307 669v-43h-223v43h223zM86 788q0 19 9.5 30t24.5 11q14 0 23.5 -11t9.5 -30q0 -21 -9.5 -31.5t-23.5 -10.5q-15 0 -24.5 11t-9.5 31zM238 788q0 19 9.5 30t24.5 11q14 0 24 -10.5t10 -30.5t-10 -31t-24 -11q-15 0 -24.5 11t-9.5 31z" />
    <glyph glyph-name="uni10D4_acutecomb.ccmp" horiz-adv-x="422" 
d="M200 -250q-59 0 -94.5 30t-51 76.5t-15.5 97.5q0 45 7.5 75.5t14.5 45.5h50q-5 -14 -11.5 -43t-6.5 -76q0 -69 25 -113.5t81 -44.5q107 0 107 174v392q0 66 -26.5 98t-69.5 32t-70.5 -28.5t-27.5 -98.5q0 -25 2.5 -46t7.5 -44h-50q-8 24 -11 45.5t-3 47.5q0 87 42 129.5
t110 42.5q39 0 73 -18t55.5 -56.5t21.5 -100.5v-396q0 -110 -43.5 -165.5t-116.5 -55.5zM316 765v-8q-14 -23 -37.5 -51.5t-48 -55t-44.5 -44.5h-33v12q31 40 55 75t45 72h63z" />
    <glyph glyph-name="uni10D4_uni0304.ccmp" horiz-adv-x="422" 
d="M200 -250q-59 0 -94.5 30t-51 76.5t-15.5 97.5q0 45 7.5 75.5t14.5 45.5h50q-5 -14 -11.5 -43t-6.5 -76q0 -69 25 -113.5t81 -44.5q107 0 107 174v392q0 66 -26.5 98t-69.5 32t-70.5 -28.5t-27.5 -98.5q0 -25 2.5 -46t7.5 -44h-50q-8 24 -11 45.5t-3 47.5q0 87 42 129.5
t110 42.5q39 0 73 -18t55.5 -56.5t21.5 -100.5v-396q0 -110 -43.5 -165.5t-116.5 -55.5zM323 669v-43h-223v43h223z" />
    <glyph glyph-name="uni10D8_acutecomb.ccmp" horiz-adv-x="410" 
d="M96 0q-27 70 -39.5 137t-12.5 154q0 127 41.5 189t119.5 62t120 -63.5t42 -187.5q0 -86 -13.5 -153t-39.5 -138h-50q25 68 36.5 137.5t11.5 151.5q0 106 -27 155.5t-80 49.5q-52 0 -79.5 -50t-27.5 -155q0 -84 12 -152.5t37 -136.5h-51zM310 765v-8q-14 -23 -37.5 -51.5
t-48 -55t-44.5 -44.5h-33v12q31 40 55 75t45 72h63z" />
    <glyph glyph-name="uni10D8_uni0304.ccmp" horiz-adv-x="410" 
d="M96 0q-27 70 -39.5 137t-12.5 154q0 127 41.5 189t119.5 62t120 -63.5t42 -187.5q0 -86 -13.5 -153t-39.5 -138h-50q25 68 36.5 137.5t11.5 151.5q0 106 -27 155.5t-80 49.5q-52 0 -79.5 -50t-27.5 -155q0 -84 12 -152.5t37 -136.5h-51zM317 669v-43h-223v43h223z" />
    <glyph glyph-name="uni10DD_uni0308.ccmp" horiz-adv-x="550" 
d="M97 0q-27 70 -40 136t-13 148q0 124 32 191t98 67q43 0 67 -25.5t33 -67.5h2q8 42 32 67.5t66 25.5q68 0 100 -70t32 -188q0 -81 -13.5 -147t-39.5 -137h-50q25 68 36.5 137t11.5 147q0 102 -18 156t-63 54q-41 0 -55 -40.5t-14 -125.5v-142h-52v142q0 84 -14.5 125
t-54.5 41q-46 0 -64 -54.5t-18 -155.5q0 -81 12.5 -148.5t36.5 -135.5h-50zM165 651q0 19 9.5 30t24.5 11q14 0 23.5 -11t9.5 -30q0 -21 -9.5 -31.5t-23.5 -10.5q-15 0 -24.5 11t-9.5 31zM317 651q0 19 9.5 30t24.5 11q14 0 24 -10.5t10 -30.5t-10 -31t-24 -11
q-15 0 -24.5 11t-9.5 31z" />
    <glyph glyph-name="uni10DD_acutecomb.ccmp" horiz-adv-x="550" 
d="M97 0q-27 70 -40 136t-13 148q0 124 32 191t98 67q43 0 67 -25.5t33 -67.5h2q8 42 32 67.5t66 25.5q68 0 100 -70t32 -188q0 -81 -13.5 -147t-39.5 -137h-50q25 68 36.5 137t11.5 147q0 102 -18 156t-63 54q-41 0 -55 -40.5t-14 -125.5v-142h-52v142q0 84 -14.5 125
t-54.5 41q-46 0 -64 -54.5t-18 -155.5q0 -81 12.5 -148.5t36.5 -135.5h-50zM380 765v-8q-14 -23 -37.5 -51.5t-48 -55t-44.5 -44.5h-33v12q31 40 55 75t45 72h63z" />
    <glyph glyph-name="uni10DD_uni0304.ccmp" horiz-adv-x="550" 
d="M97 0q-27 70 -40 136t-13 148q0 124 32 191t98 67q43 0 67 -25.5t33 -67.5h2q8 42 32 67.5t66 25.5q68 0 100 -70t32 -188q0 -81 -13.5 -147t-39.5 -137h-50q25 68 36.5 137t11.5 147q0 102 -18 156t-63 54q-41 0 -55 -40.5t-14 -125.5v-142h-52v142q0 84 -14.5 125
t-54.5 41q-46 0 -64 -54.5t-18 -155.5q0 -81 12.5 -148.5t36.5 -135.5h-50zM387 669v-43h-223v43h223z" />
    <glyph glyph-name="uni10DD_uni0304_uni0308.ccmp" horiz-adv-x="550" 
d="M97 0q-27 70 -40 136t-13 148q0 124 32 191t98 67q43 0 67 -25.5t33 -67.5h2q8 42 32 67.5t66 25.5q68 0 100 -70t32 -188q0 -81 -13.5 -147t-39.5 -137h-50q25 68 36.5 137t11.5 147q0 102 -18 156t-63 54q-41 0 -55 -40.5t-14 -125.5v-142h-52v142q0 84 -14.5 125
t-54.5 41q-46 0 -64 -54.5t-18 -155.5q0 -81 12.5 -148.5t36.5 -135.5h-50zM387 669v-43h-223v43h223zM165 788q0 19 9.5 30t24.5 11q14 0 23.5 -11t9.5 -30q0 -21 -9.5 -31.5t-23.5 -10.5q-15 0 -24.5 11t-9.5 31zM317 788q0 19 9.5 30t24.5 11q14 0 24 -10.5t10 -30.5
t-10 -31t-24 -11q-15 0 -24.5 11t-9.5 31z" />
    <glyph glyph-name="uni10E3_uni0308.ccmp" 
d="M228 -250q-65 0 -103 30t-54 76.5t-16 97.5q0 45 7.5 75.5t14.5 45.5h50q-5 -14 -11.5 -43t-6.5 -76q0 -69 26.5 -113.5t91.5 -44.5q115 0 115 174v404q0 54 -16 86t-56 32q-41 0 -58 -32.5t-17 -82.5v-137h-52v137q0 50 -19 80t-61 30h-38v48h41q46 0 70 -25t31 -61h2
q8 36 34 63.5t72 27.5q64 0 92.5 -43.5t28.5 -117.5v-415q0 -110 -44.5 -163t-123.5 -53zM110 651q0 19 9.5 30t24.5 11q14 0 23.5 -11t9.5 -30q0 -21 -9.5 -31.5t-23.5 -10.5q-15 0 -24.5 11t-9.5 31zM262 651q0 19 9.5 30t24.5 11q14 0 24 -10.5t10 -30.5t-10 -31t-24 -11
q-15 0 -24.5 11t-9.5 31z" />
    <glyph glyph-name="uni10E3_acutecomb.ccmp" 
d="M228 -250q-65 0 -103 30t-54 76.5t-16 97.5q0 45 7.5 75.5t14.5 45.5h50q-5 -14 -11.5 -43t-6.5 -76q0 -69 26.5 -113.5t91.5 -44.5q115 0 115 174v404q0 54 -16 86t-56 32q-41 0 -58 -32.5t-17 -82.5v-137h-52v137q0 50 -19 80t-61 30h-38v48h41q46 0 70 -25t31 -61h2
q8 36 34 63.5t72 27.5q64 0 92.5 -43.5t28.5 -117.5v-415q0 -110 -44.5 -163t-123.5 -53zM324 765v-8q-14 -23 -37.5 -51.5t-48 -55t-44.5 -44.5h-33v12q31 40 55 75t45 72h63z" />
    <glyph glyph-name="uni10E3_uni0302.ccmp" 
d="M228 -250q-65 0 -103 30t-54 76.5t-16 97.5q0 45 7.5 75.5t14.5 45.5h50q-5 -14 -11.5 -43t-6.5 -76q0 -69 26.5 -113.5t91.5 -44.5q115 0 115 174v404q0 54 -16 86t-56 32q-41 0 -58 -32.5t-17 -82.5v-137h-52v137q0 50 -19 80t-61 30h-38v48h41q46 0 70 -25t31 -61h2
q8 36 34 63.5t72 27.5q64 0 92.5 -43.5t28.5 -117.5v-415q0 -110 -44.5 -163t-123.5 -53zM247 765q11 -23 28 -52.5t34 -56t29 -41.5v-9h-30q-21 23 -44 52.5t-44 58.5q-21 -27 -44.5 -58.5t-42.5 -52.5h-30v9q14 20 31 46.5t32.5 54t26.5 49.5h54z" />
    <glyph glyph-name="uni10E3_uni0304.ccmp" 
d="M228 -250q-65 0 -103 30t-54 76.5t-16 97.5q0 45 7.5 75.5t14.5 45.5h50q-5 -14 -11.5 -43t-6.5 -76q0 -69 26.5 -113.5t91.5 -44.5q115 0 115 174v404q0 54 -16 86t-56 32q-41 0 -58 -32.5t-17 -82.5v-137h-52v137q0 50 -19 80t-61 30h-38v48h41q46 0 70 -25t31 -61h2
q8 36 34 63.5t72 27.5q64 0 92.5 -43.5t28.5 -117.5v-415q0 -110 -44.5 -163t-123.5 -53zM331 669v-43h-223v43h223z" />
    <glyph glyph-name="uni10E3_uni0304_uni0308.ccmp" 
d="M228 -250q-65 0 -103 30t-54 76.5t-16 97.5q0 45 7.5 75.5t14.5 45.5h50q-5 -14 -11.5 -43t-6.5 -76q0 -69 26.5 -113.5t91.5 -44.5q115 0 115 174v404q0 54 -16 86t-56 32q-41 0 -58 -32.5t-17 -82.5v-137h-52v137q0 50 -19 80t-61 30h-38v48h41q46 0 70 -25t31 -61h2
q8 36 34 63.5t72 27.5q64 0 92.5 -43.5t28.5 -117.5v-415q0 -110 -44.5 -163t-123.5 -53zM331 669v-43h-223v43h223zM110 788q0 19 9.5 30t24.5 11q14 0 23.5 -11t9.5 -30q0 -21 -9.5 -31.5t-23.5 -10.5q-15 0 -24.5 11t-9.5 31zM262 788q0 19 9.5 30t24.5 11q14 0 24 -10.5
t10 -30.5t-10 -31t-24 -11q-15 0 -24.5 11t-9.5 31z" />
    <glyph glyph-name="uni10F7_acutecomb.ccmp" horiz-adv-x="383" 
d="M191 -250q-69 0 -110.5 50t-41.5 145q0 64 16 109.5t44.5 79t64.5 60.5q36 28 62.5 53.5t40.5 57.5t14 79q0 53 -22 82.5t-64 29.5q-44 0 -65.5 -32t-21.5 -81q0 -12 1 -23t2 -17h-54q-1 7 -2 18.5t-1 21.5q0 69 36 114t105 45q70 0 105 -43t35 -114q0 -53 -15.5 -91
t-45.5 -70t-74 -67q-33 -27 -57 -56t-37 -66.5t-13 -90.5q0 -72 26 -109.5t71 -37.5q46 0 73 34t27 112q0 39 -7 68h55q2 -13 4 -31.5t2 -38.5q0 -99 -42 -145t-111 -46zM296 765v-8q-14 -23 -37.5 -51.5t-48 -55t-44.5 -44.5h-33v12q31 40 55 75t45 72h63z" />
    <glyph glyph-name="uni10F7_uni0304.ccmp" horiz-adv-x="383" 
d="M191 -250q-69 0 -110.5 50t-41.5 145q0 64 16 109.5t44.5 79t64.5 60.5q36 28 62.5 53.5t40.5 57.5t14 79q0 53 -22 82.5t-64 29.5q-44 0 -65.5 -32t-21.5 -81q0 -12 1 -23t2 -17h-54q-1 7 -2 18.5t-1 21.5q0 69 36 114t105 45q70 0 105 -43t35 -114q0 -53 -15.5 -91
t-45.5 -70t-74 -67q-33 -27 -57 -56t-37 -66.5t-13 -90.5q0 -72 26 -109.5t71 -37.5q46 0 73 34t27 112q0 39 -7 68h55q2 -13 4 -31.5t2 -38.5q0 -99 -42 -145t-111 -46zM303 669v-43h-223v43h223z" />
    </font>
</defs>
</svg>
