<?xml version="1.0" standalone="no"?>
<!DOCTYPE svg PUBLIC "-//W3C//DTD SVG 1.1//EN" "http://www.w3.org/Graphics/SVG/1.1/DTD/svg11.dtd" >
<svg xmlns="http://www.w3.org/2000/svg" xmlns:xlink="http://www.w3.org/1999/xlink" version="1.1">
<metadata>
Created by FontForge 20170731 at Thu Sep 26 08:56:15 2019
 By Aleksey,,,
Copyright 2019 Google LLC. All rights reserved.
</metadata>
<defs>
<font id="NotoSansGeorgian-ExtraLight" horiz-adv-x="609" >
  <font-face 
    font-family="Noto Sans Georgian ExtLt"
    font-weight="200"
    font-stretch="normal"
    units-per-em="1000"
    panose-1="2 11 3 2 4 5 4 2 2 4"
    ascent="800"
    descent="-200"
    bbox="-135 -250 1032 1005"
    underline-thickness="50"
    underline-position="-175"
    unicode-range="U+000D-2D2D"
  />
<missing-glyph horiz-adv-x="364" 
d="M33 0v666h265v-666h-265zM66 33h199v600h-199v-600z" />
    <glyph glyph-name=".notdef" horiz-adv-x="364" 
d="M33 0v666h265v-666h-265zM66 33h199v600h-199v-600z" />
    <glyph glyph-name=".null" horiz-adv-x="0" 
 />
    <glyph glyph-name="nonmarkingreturn" horiz-adv-x="333" 
 />
    <glyph glyph-name="NULL" horiz-adv-x="0" 
 />
    <glyph glyph-name="NULL" horiz-adv-x="0" 
 />
    <glyph glyph-name="CR" unicode="&#xd;" horiz-adv-x="260" 
 />
    <glyph glyph-name="space" unicode=" " horiz-adv-x="260" 
 />
    <glyph glyph-name="hyphen" unicode="-" horiz-adv-x="322" 
d="M40 253v36h242v-36h-242z" />
    <glyph glyph-name="uni00A0" unicode="&#xa0;" horiz-adv-x="260" 
 />
    <glyph glyph-name="acutecomb" unicode="&#x301;" horiz-adv-x="0" 
d="M87 766v-8q-16 -21 -40.5 -48.5t-52.5 -55t-54 -48.5h-28v7q21 20 46 47.5t47.5 55.5t36.5 50h45z" />
    <glyph glyph-name="uni0302" unicode="&#x302;" horiz-adv-x="0" 
d="M19 764q12 -21 32 -48.5t42.5 -55t41.5 -47.5v-7h-30q-27 25 -54.5 57.5t-50.5 60.5q-22 -28 -50 -60.5t-56 -57.5h-29v7q19 20 41.5 47.5t43 55t33.5 48.5h36z" />
    <glyph glyph-name="uni0304" unicode="&#x304;" horiz-adv-x="0" 
d="M132 656v-34h-263v34h263z" />
    <glyph glyph-name="uni0308" unicode="&#x308;" horiz-adv-x="0" 
d="M-122 659q0 15 6.5 25t21.5 10q17 0 23 -10t6 -25t-6 -24.5t-23 -9.5q-15 0 -21.5 9.5t-6.5 24.5zM64 659q0 15 6.5 25t20.5 10q17 0 23.5 -10t6.5 -25t-6.5 -24.5t-23.5 -9.5q-14 0 -20.5 9.5t-6.5 24.5z" />
    <glyph glyph-name="uni0589" unicode="&#x589;" horiz-adv-x="208" 
d="M71 460q0 18 7.5 28.5t25.5 10.5q19 0 26.5 -10.5t7.5 -28.5q0 -17 -7.5 -27.5t-26.5 -10.5q-18 0 -25.5 10.5t-7.5 27.5zM71 29q0 17 7.5 28t25.5 11q19 0 26.5 -11t7.5 -28t-7.5 -27.5t-26.5 -10.5q-18 0 -25.5 10.5t-7.5 27.5z" />
    <glyph glyph-name="uni10A0" unicode="&#x10a0;" horiz-adv-x="628" 
d="M393 -10q-102 0 -176 43t-114 122t-40 187q0 132 61 218t162 118v3h-206v33h497v-36h-134q-114 0 -189 -43t-112.5 -118.5t-37.5 -171.5q0 -101 35.5 -172t100.5 -109t155 -38q56 0 100.5 8t81.5 21v-34q-35 -14 -80 -22.5t-104 -8.5z" />
    <glyph glyph-name="uni10A1" unicode="&#x10a1;" horiz-adv-x="731" 
d="M491 0v235q0 26 0.5 58t1.5 52h-2q-25 -61 -81 -94.5t-128 -33.5q-67 0 -117.5 29.5t-78.5 83.5t-28 130q0 78 18.5 136.5t55.5 117.5h47q-36 -49 -58 -110.5t-22 -144.5q0 -91 48.5 -148t137.5 -57q59 0 105.5 23.5t73.5 75t27 137.5v224h39v-678h191v-36h-230z" />
    <glyph glyph-name="uni10A2" unicode="&#x10a2;" horiz-adv-x="707" 
d="M467 0v677h-344v-273h-39v310h422v-678h191v-36h-230z" />
    <glyph glyph-name="uni10A3" unicode="&#x10a3;" horiz-adv-x="752" 
d="M373 -10q-98 0 -167 37t-106 103t-37 152q0 84 38.5 148t105 101t151.5 42v105h-250v36h536v-36h-246v-105q87 -3 152 -40t101.5 -101.5t36.5 -148.5q0 -90 -37.5 -155.5t-108.5 -101.5t-169 -36zM373 27q83 0 145 30t96 87t34 138q0 79 -34.5 136.5t-95 88.5t-139.5 31
q-80 0 -142 -31t-97.5 -88.5t-35.5 -136.5q0 -81 33.5 -138t94 -87t141.5 -30z" />
    <glyph glyph-name="uni10A4" unicode="&#x10a4;" horiz-adv-x="608" 
d="M467 0v677h-344v-273h-39v310h422v-714h-39z" />
    <glyph glyph-name="uni10A5" unicode="&#x10a5;" horiz-adv-x="786" 
d="M467 0v677h-344v-273h-39v310h422v-316h230v-215h-39v179h-191v-362h-39z" />
    <glyph glyph-name="uni10A6" unicode="&#x10a6;" horiz-adv-x="787" 
d="M465 -10q-120 0 -182.5 73.5t-62.5 197.5v417h-211v36h250v-193q0 -20 -0.5 -44.5t-1 -46.5t-1.5 -34h4q34 69 90.5 105.5t137.5 36.5q78 0 131.5 -36.5t81.5 -98.5t28 -138q0 -83 -32.5 -145t-92 -96t-139.5 -34zM464 27q69 0 119 29.5t77.5 83t27.5 125.5t-25 125
t-71 82t-108 29q-71 0 -121.5 -31.5t-77 -85.5t-26.5 -123q0 -106 52 -170t153 -64z" />
    <glyph glyph-name="uni10A7" unicode="&#x10a7;" horiz-adv-x="878" 
d="M598 398h230v-215h-38v179h-192v-362h-176q-175 0 -267 91t-92 261q0 178 97.5 270t283.5 92h154v-316zM559 36v642h-115q-166 0 -253 -80.5t-87 -244.5q0 -154 81 -235.5t247 -81.5h127z" />
    <glyph glyph-name="uni10A8" unicode="&#x10a8;" horiz-adv-x="448" 
d="M307 0v678h-298v36h337v-714h-39z" />
    <glyph glyph-name="uni10A9" unicode="&#x10a9;" horiz-adv-x="698" 
d="M568 0v140q0 18 1.5 45t1.5 45h-5q-31 -64 -88.5 -96t-125.5 -32q-81 0 -139 33.5t-88.5 92.5t-30.5 134v352h39v-144q0 -21 -1 -43.5t-2 -47.5h4q38 73 98 106t128 33q81 0 136 -36t83 -95t28 -130v-357h-39zM355 138q63 0 111 27.5t75 76.5t27 115q0 69 -26.5 119.5
t-74.5 77.5t-110 27q-67 0 -117.5 -29.5t-78.5 -79.5t-28 -109q0 -106 61 -165.5t161 -59.5z" />
    <glyph glyph-name="uni10AA" unicode="&#x10aa;" horiz-adv-x="993" 
d="M671 -10q-119 0 -181.5 73.5t-62.5 197.5v416h-304v-273h-39v310h382v-193q0 -29 -1.5 -66.5t-2.5 -58.5h5q34 69 90.5 105.5t136.5 36.5q78 0 132 -37t81.5 -99t27.5 -137q0 -83 -33 -145t-92 -96t-139 -34zM671 27q68 0 118.5 29.5t78 83t27.5 125.5t-25.5 125t-71 82
t-107.5 29q-71 0 -121.5 -31t-77 -85.5t-26.5 -123.5q0 -106 51.5 -170t153.5 -64z" />
    <glyph glyph-name="uni10AB" unicode="&#x10ab;" horiz-adv-x="756" 
d="M303 -10q-77 0 -130.5 30t-81.5 83.5t-28 123.5q0 118 69 174.5t194 56.5h185v220h-402v36h441v-256h155v-36h-155v-155q0 -135 -61 -206t-186 -71zM302 26q105 0 157 61t52 179v156h-184q-106 0 -165 -45.5t-59 -149.5q0 -91 52.5 -146t146.5 -55z" />
    <glyph glyph-name="uni10AC" unicode="&#x10ac;" horiz-adv-x="670" 
d="M102 0v714h442v-36h-403v-226q0 -11 -1 -40t-2 -54h3q17 34 43.5 62.5t67 45.5t98.5 17q61 0 112 -24.5t81 -81t30 -151.5v-226h-39v225q0 117 -51.5 169.5t-137.5 52.5q-93 0 -148.5 -57t-55.5 -167v-223h-39z" />
    <glyph glyph-name="uni10AD" unicode="&#x10ad;" horiz-adv-x="818" 
d="M380 -10q-106 0 -176 47t-105.5 130t-35.5 192q0 108 37 190t108.5 128.5t176.5 46.5q150 0 231 -97t81 -269q0 -90 -24.5 -163.5t-73.5 -122.5q20 -23 43.5 -37t53.5 -14q35 0 54.5 28.5t19.5 68.5h38q0 -53 -27 -90.5t-83 -37.5q-39 0 -68 16.5t-54 44.5
q-37 -29 -86.5 -45t-109.5 -16zM381 26q94 0 155 42t90.5 116.5t29.5 173.5q0 157 -69.5 243.5t-201.5 86.5q-95 0 -157 -42t-93 -116.5t-31 -170.5q0 -98 30 -173t91.5 -117.5t155.5 -42.5z" />
    <glyph glyph-name="uni10AE" unicode="&#x10ae;" horiz-adv-x="846" 
d="M484 -10q-125 0 -194.5 67.5t-69.5 196.5v424h-211v36h250v-459q0 -113 59 -171t166 -58q104 0 165 55.5t61 163.5v469h39v-462q0 -131 -73 -196.5t-192 -65.5z" />
    <glyph glyph-name="uni10AF" unicode="&#x10af;" horiz-adv-x="696" 
d="M555 0v241q0 33 1 60t2 44h-5q-26 -59 -83 -92t-126 -33q-64 0 -113 27.5t-77 82t-28 134.5q0 74 30 127.5t78 84.5v2h-220v36h274v-38q-64 -35 -93 -87.5t-29 -121.5q0 -107 50.5 -158.5t131.5 -51.5q57 0 104 23.5t75 74.5t28 135v224h39v-714h-39z" />
    <glyph glyph-name="uni10B0" unicode="&#x10b0;" horiz-adv-x="888" 
d="M281 -10q-70 0 -119.5 30t-76.5 82.5t-27 118.5q0 41 12 81.5t38 78.5l32 -14q-21 -35 -31.5 -72.5t-10.5 -72.5q0 -85 48 -140t135 -55q90 0 138 57t48 166v464h39v-193q0 -12 -0.5 -41t-2.5 -53h4q22 52 62.5 82.5t97.5 30.5q56 0 94 -26.5t57.5 -68.5t19.5 -90
q0 -32 -9 -64.5t-27 -60.5l-34 13q30 50 30 110q0 39 -15.5 73.5t-45.5 56t-76 21.5q-39 0 -74.5 -21.5t-58 -64t-22.5 -104.5v-64q0 -119 -55 -189.5t-170 -70.5z" />
    <glyph glyph-name="uni10B1" unicode="&#x10b1;" horiz-adv-x="603" 
d="M322 -10q-114 0 -169.5 70.5t-55.5 189.5v464h39v-464q0 -109 48 -166t138 -57q87 0 135 55t48 140q0 35 -10.5 72.5t-31.5 72.5l33 14q25 -38 37 -78.5t12 -81.5q0 -66 -26.5 -118.5t-76.5 -82.5t-120 -30z" />
    <glyph glyph-name="uni10B2" unicode="&#x10b2;" horiz-adv-x="587" 
d="M102 0v714h171q123 0 187 -47t64 -151q0 -115 -71.5 -165.5t-193.5 -50.5h-118v-264h366v-36h-405zM141 335h114q70 0 121.5 16.5t79.5 55.5t28 107q0 87 -52.5 125.5t-162.5 38.5h-128v-343z" />
    <glyph glyph-name="uni10B3" unicode="&#x10b3;" horiz-adv-x="759" 
d="M601 -154q-9 0 -19.5 1t-18.5 2v36q8 -1 17.5 -1.5t20.5 -0.5q50 0 74.5 27t24.5 69q0 40 -27.5 66.5t-64.5 36.5q-40 -44 -97 -68t-131 -24q-104 0 -174.5 46.5t-106.5 129.5t-36 193q0 109 37.5 191.5t109.5 128.5t175 46q149 0 230.5 -96.5t81.5 -270.5
q0 -150 -68 -250q26 -6 51.5 -22t42 -42.5t16.5 -63.5q0 -63 -38 -98.5t-100 -35.5zM381 26q93 0 154 41.5t91 116t30 174.5q0 159 -70 245t-201 86q-94 0 -156.5 -42t-93.5 -116.5t-31 -171.5q0 -99 30.5 -174t91.5 -117t155 -42z" />
    <glyph glyph-name="uni10B4" unicode="&#x10b4;" horiz-adv-x="770" 
d="M365 0v184q-88 2 -156 31.5t-107 89.5t-39 152q0 90 42 149.5t114.5 89t165.5 29.5q90 0 163 -26.5t115.5 -84.5t42.5 -152q0 -93 -38 -154t-106 -91.5t-158 -32.5v-184h-39zM365 219v470q-74 -2 -133 -27.5t-94 -76t-35 -128.5q0 -121 70 -178t192 -60zM404 219
q121 3 191.5 61.5t70.5 181.5q0 78 -33.5 127.5t-93 73.5t-135.5 26v-470z" />
    <glyph glyph-name="uni10B5" unicode="&#x10b5;" horiz-adv-x="595" 
d="M273 0v422h-220v36h220v256h39v-256h220v-36h-220v-422h-39z" />
    <glyph glyph-name="uni10B6" unicode="&#x10b6;" horiz-adv-x="722" 
d="M97 0v462q0 87 33.5 145.5t93.5 87.5t139 29q125 0 193.5 -68t68.5 -196v-460h-39v460q0 114 -58.5 171t-166.5 57q-103 0 -164 -56t-61 -170v-462h-39z" />
    <glyph glyph-name="uni10B7" unicode="&#x10b7;" horiz-adv-x="632" 
d="M491 0v235q0 26 0.5 58t1.5 52h-2q-25 -61 -81 -94.5t-128 -33.5q-67 0 -117.5 29.5t-78.5 83.5t-28 130q0 78 18.5 136.5t55.5 117.5h47q-36 -49 -58 -110.5t-22 -144.5q0 -91 48.5 -148t137.5 -57q59 0 105.5 23.5t73.5 75t27 137.5v224h39v-714h-39z" />
    <glyph glyph-name="uni10B8" unicode="&#x10b8;" horiz-adv-x="660" 
d="M330 -10q-64 0 -114.5 25.5t-79.5 70t-29 101.5q0 21 4.5 40.5t11.5 38.5l35 -11q-6 -17 -8.5 -33t-2.5 -33q0 -48 23.5 -84.5t65 -57t94.5 -20.5q59 0 101.5 27t65 74t22.5 104v112q0 7 0.5 26.5t1 42t2.5 38.5h-4q-34 -70 -88 -97.5t-116 -27.5q-104 0 -161 62t-57 181
v145h39v-145q0 -103 47.5 -154.5t134.5 -51.5q93 0 147 57.5t54 165.5v128h39v-482q0 -73 -28.5 -127.5t-80 -84.5t-119.5 -30z" />
    <glyph glyph-name="uni10B9" unicode="&#x10b9;" horiz-adv-x="645" 
d="M102 0v714h39v-279h412v-435h-39v399h-373v-399h-39z" />
    <glyph glyph-name="uni10BA" unicode="&#x10ba;" horiz-adv-x="696" 
d="M360 -10q-90 0 -157 45t-103.5 127.5t-36.5 195.5q0 108 38.5 190.5t110.5 129t170 46.5q105 0 186 -37l-17 -36q-80 37 -170 37q-84 0 -146.5 -40.5t-97 -115t-34.5 -174.5q0 -101 32 -175.5t90.5 -115.5t138.5 -41q58 0 114 18.5t101 46.5v204h39v-295h-39v52
q-45 -26 -98.5 -44t-120.5 -18z" />
    <glyph glyph-name="uni10BB" unicode="&#x10bb;" horiz-adv-x="865" 
d="M293 -10q-73 0 -124.5 30.5t-78.5 84t-27 122.5q0 105 63.5 168t183.5 63h170v256h39v-256h254v-458h-38v422h-216v-179q0 -118 -58 -185.5t-168 -67.5zM292 26q90 0 139 57t49 159v180h-169q-101 0 -154.5 -51.5t-53.5 -143.5q0 -90 50 -145.5t139 -55.5z" />
    <glyph glyph-name="uni10BC" unicode="&#x10bc;" horiz-adv-x="580" 
d="M102 0v714h171q123 0 187 -46.5t64 -150.5q0 -114 -71.5 -164.5t-193.5 -50.5h-118v-101h215v-151h-38v115h-177v-165h-39zM141 338h114q70 0 121.5 16t79.5 55t28 107q0 85 -52.5 123.5t-162.5 38.5h-128v-340z" />
    <glyph glyph-name="uni10BD" unicode="&#x10bd;" horiz-adv-x="570" 
d="M286 -10q-107 0 -169 50.5t-62 135.5q0 16 2 30.5t5 27.5h40q-4 -13 -6 -27.5t-2 -30.5q0 -65 49.5 -107.5t143.5 -42.5q91 0 133.5 41.5t42.5 108.5q0 49 -20 79t-60 51.5t-101 44.5q-73 27 -113.5 55.5t-57 64t-16.5 81.5q0 80 56 126t146 46q57 0 99.5 -20t66 -55
t23.5 -78q0 -16 -3 -28h-40q3 12 3 27q0 49 -41 83.5t-109 34.5q-75 0 -118 -36.5t-43 -99.5q0 -65 41 -100t125 -66q68 -25 113 -51.5t67 -63t22 -93.5q0 -86 -55 -137t-162 -51z" />
    <glyph glyph-name="uni10BE" unicode="&#x10be;" horiz-adv-x="655" 
d="M102 714h39v-379h373v379h39v-415h-412v-263h393v-36h-432v714z" />
    <glyph glyph-name="uni10BF" unicode="&#x10bf;" horiz-adv-x="614" 
d="M52 0l252 370l-204 308h-85v36h545v-28l-208 -316l252 -370h-45l-232 341l-231 -341h-44zM329 398l182 280h-367z" />
    <glyph glyph-name="uni10C0" unicode="&#x10c0;" horiz-adv-x="933" 
d="M652 -10q-114 0 -169.5 70.5t-55.5 189.5v427h-304v-273h-39v310h382v-464q0 -109 48 -166t138 -57q87 0 135 55t48 140q0 35 -10.5 72.5t-31.5 72.5l32 14q26 -38 38 -78.5t12 -81.5q0 -66 -27 -118.5t-76.5 -82.5t-119.5 -30z" />
    <glyph glyph-name="uni10C1" unicode="&#x10c1;" horiz-adv-x="629" 
d="M102 0v714h39v-188q0 -24 -0.5 -48.5t-1.5 -50.5h2q19 42 49 66.5t64.5 35.5t66.5 11q89 0 128 -56.5t39 -171.5h121v-35h-160v40q0 97 -32 142t-100 45q-56 0 -95.5 -27t-60 -71.5t-20.5 -97.5v-308h-39z" />
    <glyph glyph-name="uni10C2" unicode="&#x10c2;" horiz-adv-x="593" 
d="M229 -10q-57 0 -95 7t-75 19v36q42 -11 80.5 -18.5t88.5 -7.5q82 0 140.5 35.5t89.5 99t31 149.5q0 90 -34.5 152.5t-97 95t-145.5 32.5h-103v124h39v-88h69q96 0 166 -37.5t108.5 -108t38.5 -170.5q0 -99 -37 -171t-104.5 -110.5t-159.5 -38.5z" />
    <glyph glyph-name="uni10C3" unicode="&#x10c3;" horiz-adv-x="614" 
d="M473 0v217q0 28 1 54t2 44h-5q-26 -59 -79 -92t-120 -33q-96 0 -155 58.5t-59 166.5q0 41 12 81.5t38 78.5l32 -14q-21 -35 -31 -72.5t-10 -71.5q0 -92 47.5 -141t127.5 -49q57 0 102 23t71 74.5t26 135.5v254h39v-714h-39z" />
    <glyph glyph-name="uni10C4" unicode="&#x10c4;" horiz-adv-x="708" 
d="M334 0v260q-116 5 -180 72.5t-64 191.5v190h39v-189q0 -114 58 -171.5t167 -57.5q103 0 164 55.5t61 164.5v198h39v-192q0 -125 -67 -190.5t-178 -70.5v-261h-39z" />
    <glyph glyph-name="uni10C5" unicode="&#x10c5;" horiz-adv-x="817" 
d="M205 -10q-69 0 -112 36t-43 112q0 75 54 112.5t141 37.5h83v217q0 105 60.5 162t156.5 57q100 0 157 -41t57 -122q0 -75 -56 -114t-151 -39h-185v-120h300v-177h-38v141h-262v-62q0 -96 -42.5 -148t-119.5 -52zM367 444h184q84 0 125.5 31t41.5 86q0 57 -42 92t-131 35
q-84 0 -131 -48.5t-47 -133.5v-62zM206 26q57 0 89.5 42.5t32.5 121.5v62h-82q-70 0 -112.5 -28.5t-42.5 -84.5q0 -58 32 -85.5t83 -27.5z" />
    <glyph glyph-name="uni10C7" unicode="&#x10c7;" horiz-adv-x="570" 
d="M284 -10q-106 0 -161 51t-55 137q0 57 22 93.5t66.5 63t112.5 51.5q84 31 125 66t41 100q0 63 -43 99.5t-117 36.5q-68 0 -109.5 -34.5t-41.5 -83.5q0 -15 3 -27h-40q-2 12 -2 28q0 43 23 78t65.5 55t99.5 20q91 0 146.5 -46t55.5 -126q0 -46 -16.5 -81.5t-57 -64
t-112.5 -55.5q-61 -23 -101.5 -44.5t-60.5 -51.5t-20 -79q0 -67 43 -108.5t133 -41.5q94 0 143.5 42.5t49.5 107.5q0 16 -1.5 30.5t-6.5 27.5h41q3 -13 5 -27.5t2 -30.5q0 -85 -62.5 -135.5t-169.5 -50.5z" />
    <glyph glyph-name="uni10CD" unicode="&#x10cd;" horiz-adv-x="577" 
d="M36 0v28l438 650h-413v36h464v-28l-437 -650h449v-36h-501z" />
    <glyph glyph-name="uni10D0" unicode="&#x10d0;" horiz-adv-x="526" 
d="M258 -10q-64 0 -110 25t-70.5 68t-24.5 98q0 25 4 44t8 29h37q-2 -10 -5.5 -28.5t-3.5 -44.5q0 -68 43.5 -112t121.5 -44q88 0 129 48t41 121q0 57 -26.5 94.5t-59.5 69.5q-25 24 -49 48.5t-39.5 54t-15.5 69.5h39q0 -44 27.5 -78t62.5 -67q25 -24 48 -51.5t38 -61.5
t15 -78q0 -56 -23 -102t-69 -74t-118 -28z" />
    <glyph glyph-name="uni10D1" unicode="&#x10d1;" horiz-adv-x="581" 
d="M320 538q70 -6 114.5 -42.5t66 -96.5t21.5 -134q0 -80 -25.5 -142t-77.5 -97.5t-130 -35.5q-75 0 -126.5 35t-78 97t-26.5 143q0 124 59.5 197t164.5 77q9 14 12.5 29.5t3.5 32.5q0 25 -13 40t-29 29q-19 15 -35.5 35t-16.5 55h39q0 -23 12 -39.5t28 -29.5
q19 -16 36.5 -36.5t17.5 -51.5q0 -18 -4.5 -33.5t-12.5 -31.5zM289 25q67 0 110 30.5t63 84.5t20 125q0 68 -19 122t-60.5 86t-108.5 32q-95 0 -145.5 -63.5t-50.5 -176.5q0 -107 47 -173.5t144 -66.5z" />
    <glyph glyph-name="uni10D2" unicode="&#x10d2;" horiz-adv-x="571" 
d="M284 -250q-75 0 -126.5 34.5t-78 94.5t-26.5 136q0 120 61 189t163 76q61 4 98 31t37 81q0 50 -31.5 81.5t-92.5 31.5q-60 0 -93.5 -31t-33.5 -81q0 -7 1.5 -15.5t2.5 -16.5h-38q-4 18 -4 37q0 41 21 73t58.5 50.5t85.5 18.5q51 0 87.5 -20t56 -53t19.5 -73
q0 -49 -27 -81.5t-76 -44.5v-2q47 -8 85.5 -39t61 -84.5t22.5 -127.5q0 -75 -25.5 -135t-77.5 -95t-130 -35zM284 -215q67 0 110 30t63 82t20 118q0 63 -19 115t-60.5 83.5t-108.5 31.5q-95 0 -145.5 -62.5t-50.5 -167.5q0 -66 21 -118.5t63.5 -82t106.5 -29.5z" />
    <glyph glyph-name="uni10D3" unicode="&#x10d3;" horiz-adv-x="848" 
d="M550 -250q-23 48 -64 81t-88 50t-89 17q-41 0 -76 -8.5t-67 -23.5l-15 31q28 12 65.5 21t88.5 7v3q-119 41 -183 135t-64 223q0 122 46 188t136 66q62 0 107 -38.5t50 -118.5h2q11 68 58.5 112.5t124.5 44.5q101 0 154.5 -73.5t53.5 -200.5q0 -80 -23.5 -142t-70 -97
t-115.5 -35q-67 0 -113.5 35.5t-70 97.5t-23.5 141v52q0 89 -32.5 138t-100.5 49q-74 0 -108.5 -55.5t-34.5 -162.5q0 -131 63.5 -215t172.5 -125q56 -22 104 -44.5t84.5 -54t60.5 -80.5zM581 27q87 0 128 66.5t41 172.5q0 112 -41 175.5t-127 63.5q-87 0 -127.5 -63.5
t-40.5 -175.5q0 -70 18 -124t55.5 -84.5t93.5 -30.5z" />
    <glyph glyph-name="uni10D4" unicode="&#x10d4;" horiz-adv-x="572" 
d="M274 -250q-103 0 -162 58.5t-59 168.5q0 33 6 57t14 42h37q-8 -19 -13 -43.5t-5 -53.5q0 -95 48.5 -144.5t133.5 -49.5q63 0 102 28.5t57 78t18 112.5v305q0 91 -41 143.5t-129 52.5q-75 0 -118 -44t-43 -112q0 -27 3.5 -45.5t6.5 -27.5h-37q-4 10 -8 29t-4 44
q0 55 24.5 98t69 68t106.5 25q107 0 157.5 -63.5t50.5 -166.5v-306q0 -75 -22 -132t-69.5 -89.5t-123.5 -32.5z" />
    <glyph glyph-name="uni10D5" unicode="&#x10d5;" horiz-adv-x="556" 
d="M278 -250q-106 0 -165.5 56t-59.5 151q0 33 6 57t14 42h37q-8 -19 -13 -43.5t-5 -53.5q0 -80 49 -127t137 -47q65 0 106 27t60 71.5t19 97.5q0 86 -52 134.5t-134 48.5h-44v35h51q76 0 117 41t41 117q0 37 -17.5 71t-53 55.5t-88.5 21.5q-77 0 -119.5 -43t-42.5 -103
q0 -18 3 -34.5t6 -26.5h-37q-4 11 -7.5 28t-3.5 34q0 49 24 89.5t69 65.5t108 25q66 0 110 -27t66 -68.5t22 -86.5q0 -75 -37 -119t-98 -56v-3q41 -6 77 -31.5t58 -67.5t22 -101q0 -64 -24 -116t-73.5 -83t-127.5 -31z" />
    <glyph glyph-name="uni10D6" unicode="&#x10d6;" horiz-adv-x="599" 
d="M319 -10q-73 0 -122.5 34.5t-74.5 92.5t-25 130q0 64 17 115.5t65 90.5v2q-58 3 -99.5 44t-41.5 112q0 49 21 84.5t55.5 55t76.5 19.5q69 0 111 -43t42 -108q0 -38 -12 -67.5t-34 -46.5v-2q11 3 27 3q77 -2 124.5 -37.5t69.5 -93.5t22 -126q0 -72 -24.5 -130.5
t-73.5 -93.5t-124 -35zM191 482q50 0 83 33.5t33 94.5q0 60 -30.5 94t-85.5 34q-50 0 -82.5 -34t-32.5 -93t32.5 -94t82.5 -35zM320 25q63 0 103 30t59 80.5t19 113.5q0 61 -18 112t-58 82.5t-106 31.5q-91 0 -136.5 -62t-45.5 -164q0 -64 18.5 -114.5t59 -80t105.5 -29.5z
" />
    <glyph glyph-name="uni10D7" unicode="&#x10d7;" horiz-adv-x="848" 
d="M267 -10q-69 0 -115 35t-70 97t-24 143q0 127 53.5 201t154.5 74q77 0 125 -43t58 -114h2q6 80 50.5 118.5t107.5 38.5q89 0 135 -66t46 -193q0 -82 -17 -149t-46 -132h-40q31 68 47 134.5t16 144.5q0 113 -34 169.5t-109 56.5q-68 0 -100.5 -49t-32.5 -138v-53
q0 -80 -23.5 -142t-69.5 -97.5t-114 -35.5zM267 25q57 0 94 30.5t55 84.5t18 125q0 113 -40 176.5t-128 63.5q-85 0 -126.5 -63.5t-41.5 -176.5q0 -107 41 -173.5t128 -66.5z" />
    <glyph glyph-name="uni10D8" unicode="&#x10d8;" horiz-adv-x="541" 
d="M122 0q-31 67 -47.5 132.5t-16.5 152.5q0 122 55.5 188.5t156.5 66.5q104 0 158 -66.5t54 -188.5q0 -85 -16.5 -152.5t-46.5 -132.5h-40q31 68 47.5 135t16.5 150q0 107 -44 163.5t-129 56.5q-82 0 -127 -56.5t-45 -163.5q0 -83 16 -149.5t47 -135.5h-39z" />
    <glyph glyph-name="uni10D9" unicode="&#x10d9;" horiz-adv-x="541" 
d="M263 -250q-98 0 -156.5 56t-58.5 151q0 33 6 57t14 42h37q-8 -19 -13 -43.5t-5 -53.5q0 -80 48 -127t128 -47q65 0 106 27t60 71.5t19 97.5q0 99 -52 151t-134 52h-44v35h51q72 0 115 38.5t43 100.5q0 60 -38.5 103.5t-110.5 43.5v35q61 0 103 -26t63.5 -67t21.5 -87
q0 -61 -37 -103t-98 -54v-3q41 -6 77 -32.5t58 -73t22 -114.5q0 -64 -24 -116t-73.5 -83t-127.5 -31z" />
    <glyph glyph-name="uni10DA" unicode="&#x10da;" horiz-adv-x="1047" 
d="M700 -250q-31 54 -84 91.5t-113.5 56.5t-116.5 19q-53 0 -99.5 -14t-77.5 -31l-16 31q29 14 75 27t88 12v2q-56 13 -109 39.5t-96 69t-68 103t-25 140.5q0 117 46 180.5t130 63.5q57 0 95 -31t48 -85h3q10 54 47.5 85t95.5 31q59 0 96 -31t48 -85h2q10 54 49 85t95 31
q83 0 129.5 -65.5t46.5 -189.5q0 -67 -12.5 -122t-34.5 -108l-35 13q21 52 31.5 103.5t10.5 113.5q0 220 -140 220q-61 0 -91.5 -42.5t-30.5 -116.5v-158h-38v158q0 73 -30 116t-96 43q-65 0 -95 -42.5t-30 -116.5v-158h-38v158q0 73 -30 116t-93 43q-68 0 -103.5 -53.5
t-35.5 -155.5q0 -76 25 -133.5t68.5 -98t100 -66.5t119.5 -39q63 -14 123 -35.5t111.5 -58.5t86.5 -97z" />
    <glyph glyph-name="uni10DB" unicode="&#x10db;" horiz-adv-x="584" 
d="M282 -10q-109 0 -166.5 72.5t-57.5 203.5q0 127 60.5 195.5t158.5 68.5q73 0 120 -35t66 -87h3q-1 21 -2 54t-1 55v57q0 83 -48.5 122.5t-124.5 39.5q-44 0 -81 -13.5t-59.5 -40t-22.5 -66.5q0 -16 3 -29h-36q-5 14 -5 31q0 51 29.5 84.5t75.5 50.5t96 17q60 0 107.5 -22
t75.5 -65.5t28 -106.5v-321q0 -133 -56.5 -199t-162.5 -66zM282 25q91 0 136 57.5t45 169.5v19q0 109 -45 166.5t-139 57.5q-82 0 -131.5 -59.5t-49.5 -169.5q0 -115 47 -178t137 -63z" />
    <glyph glyph-name="uni10DC" unicode="&#x10dc;" horiz-adv-x="584" 
d="M302 -10q-106 0 -162.5 66t-56.5 199v333q0 89 51.5 130.5t134.5 41.5h208v-35h-205q-70 0 -110 -31.5t-40 -109.5v-55q0 -22 -1 -55.5t-2 -55.5h3q18 52 65 87t120 35q98 0 158.5 -69.5t60.5 -204.5q0 -131 -57.5 -203.5t-166.5 -72.5zM302 25q90 0 137 63t47 178
q0 117 -49 178t-132 61q-93 0 -138.5 -58.5t-45.5 -173.5v-21q0 -112 45.5 -169.5t135.5 -57.5z" />
    <glyph glyph-name="uni10DD" unicode="&#x10dd;" horiz-adv-x="767" 
d="M122 0q-31 67 -47.5 132.5t-16.5 152.5q0 124 47 189.5t134 65.5q57 0 95 -31t48 -85h3q11 54 48.5 85t96.5 31q86 0 132 -65.5t46 -189.5q0 -85 -16.5 -152.5t-46.5 -132.5h-40q31 68 47.5 135t16.5 150q0 109 -34.5 164.5t-108.5 55.5q-66 0 -94.5 -42.5t-28.5 -116.5
v-158h-38v158q0 73 -30 116t-93 43q-144 0 -144 -220q0 -83 16 -149.5t47 -135.5h-39z" />
    <glyph glyph-name="uni10DE" unicode="&#x10de;" horiz-adv-x="551" 
d="M269 -10q-104 0 -160 54t-56 137q0 25 4 44t8 29h37q-2 -10 -5.5 -28.5t-3.5 -44.5q0 -68 44.5 -112t131.5 -44q65 0 105.5 26.5t59.5 69.5t19 91q0 57 -25.5 98t-69.5 63.5t-100 22.5h-45v35h60q70 0 109 26.5t39 75.5q0 43 -24.5 69t-55.5 45q-25 15 -48.5 31t-39 36
t-15.5 48h39q0 -27 27.5 -48t61.5 -42q36 -21 65.5 -52t29.5 -85q0 -53 -36 -83t-96 -38v-3q40 -6 78 -31t62 -67.5t24 -102.5q0 -59 -24 -109t-73.5 -80.5t-126.5 -30.5z" />
    <glyph glyph-name="uni10DF" unicode="&#x10df;" horiz-adv-x="597" 
d="M294 -250q-103 0 -162 53.5t-59 140.5q0 52 16 89h37q-8 -19 -11 -41.5t-3 -45.5q0 -72 48.5 -116.5t133.5 -44.5q63 0 102 28.5t56.5 78t17.5 112.5v488q-47 -21 -110 -37.5t-126 -24.5v-2q36 -10 62.5 -40t26.5 -82q0 -62 -36.5 -101t-102.5 -39q-64 0 -99.5 36
t-35.5 86q0 16 4 33h36q-3 -15 -3 -31q0 -38 25.5 -64.5t72.5 -26.5q50 0 76 29.5t26 78.5q0 54 -31 81.5t-76 31.5v33q80 8 157.5 27t140.5 50h32v-526q0 -75 -22.5 -132t-70 -89.5t-122.5 -32.5z" />
    <glyph glyph-name="uni10E0" unicode="&#x10e0;" horiz-adv-x="766" 
d="M121 0q-31 67 -47 132.5t-16 152.5v32q0 148 37.5 236.5t118.5 134.5q43 27 114.5 46.5t180.5 35.5l5 -35q-115 -16 -181.5 -35t-99.5 -39q-50 -31 -86.5 -83t-50.5 -142h2q23 62 61.5 83t80.5 21q55 0 93 -31t49 -85h2q12 54 49 85t97 31q85 0 131.5 -65.5t46.5 -189.5
q0 -85 -17 -152.5t-46 -132.5h-40q31 68 47 135t16 150q0 109 -34 164.5t-108 55.5q-66 0 -95 -42.5t-29 -116.5v-158h-38v158q0 73 -30 116t-92 43q-144 0 -144 -220q0 -83 16 -149.5t47 -135.5h-40z" />
    <glyph glyph-name="uni10E1" unicode="&#x10e1;" horiz-adv-x="584" 
d="M306 -10q-109 0 -166 66t-57 197v507h39v-508q0 -112 45.5 -169.5t138.5 -57.5q58 0 98.5 26t61 70.5t20.5 98.5q0 48 -14.5 81.5t-34.5 61.5q-25 35 -45.5 72t-20.5 95h39q0 -47 18 -81t44 -69q22 -30 38 -68.5t16 -92.5q0 -63 -25.5 -115t-74.5 -83t-120 -31z" />
    <glyph glyph-name="uni10E2" unicode="&#x10e2;" horiz-adv-x="750" 
d="M374 -250q-104 0 -174.5 48t-106 137t-35.5 211q0 115 35 199.5t101.5 133t162.5 54.5q-1 14 -1.5 29t-0.5 29v61h39v-62q0 -13 -1 -28t-1 -29q143 -5 221 -104.5t78 -283.5q0 -120 -35 -209t-105.5 -137.5t-176.5 -48.5zM375 -215q141 0 208.5 96t67.5 264
q0 169 -67 259.5t-192 95.5q0 -19 1 -38t1 -37v-237h-39v235q0 19 0.5 38t1.5 38q-130 -9 -194.5 -103.5t-64.5 -249.5q0 -167 68.5 -264t208.5 -97z" />
    <glyph glyph-name="uni10E3" unicode="&#x10e3;" horiz-adv-x="580" 
d="M282 -250q-104 0 -163.5 58.5t-59.5 168.5q0 33 6 57t14 42h37q-8 -19 -13 -43.5t-5 -53.5q0 -95 49 -144.5t135 -49.5q63 0 102 28.5t57 78t18 112.5v367q0 62 -26.5 98t-81.5 36q-51 0 -78.5 -37.5t-27.5 -96.5v-127h-37v127q0 58 -24.5 93.5t-82.5 35.5h-53v35h53
q55 0 85 -24t40 -71h3q10 47 43.5 73.5t81.5 26.5q68 0 105.5 -43.5t37.5 -122.5v-370q0 -75 -22 -132t-69.5 -89.5t-123.5 -32.5z" />
    <glyph glyph-name="uni10E4" unicode="&#x10e4;" horiz-adv-x="828" 
d="M498 -250q-85 0 -139 24.5t-79.5 64t-25.5 85.5q0 9 1.5 18t2.5 18h37q-3 -15 -3 -30q0 -39 20.5 -72t66 -53t119.5 -20q79 0 126 25.5t67.5 66t20.5 84.5q0 42 -14.5 77t-47 55.5t-85.5 20.5h-25v35h35q72 0 113.5 48.5t41.5 130.5q0 51 -12.5 91t-42 63t-78.5 23
q-68 0 -100.5 -49t-32.5 -138v-19q0 -63 -23 -118t-68 -89t-112 -34q-68 0 -113 33.5t-67.5 88.5t-22.5 119q0 68 23 122.5t68 86.5t111 32q76 0 123 -42.5t58 -113.5h2q6 78 49.5 117t104.5 39q60 0 98 -27.5t56.5 -75t18.5 -107.5q0 -83 -37.5 -134t-97.5 -63v-3
q59 -13 88 -59t29 -111q0 -54 -25.5 -102t-81 -78t-147.5 -30zM261 93q56 0 92 29t53.5 76t17.5 101q0 58 -17 104.5t-53 74t-94 27.5q-56 0 -92 -27.5t-53 -74t-17 -104.5q0 -54 17 -101.5t53 -76t93 -28.5z" />
    <glyph glyph-name="uni10E5" unicode="&#x10e5;" horiz-adv-x="572" 
d="M274 -250q-103 0 -162 58.5t-59 168.5q0 33 6 57t14 42h37q-8 -19 -13 -43.5t-5 -53.5q0 -95 48.5 -144.5t133.5 -49.5q63 0 102 28.5t57 78t18 112.5v267q0 234 -176 234q-71 0 -113 -44t-42 -112q0 -27 3.5 -45.5t6.5 -27.5h-37q-4 10 -8 29t-4 44q0 55 24 98t67 68
t101 25q67 0 113 -35t65 -87h2q-1 22 -1.5 55.5t-0.5 55.5v231h38v-756q0 -75 -22 -132t-69.5 -89.5t-123.5 -32.5z" />
    <glyph glyph-name="uni10E6" unicode="&#x10e6;" horiz-adv-x="767" 
d="M520 -250q-22 46 -58.5 79.5t-78.5 51t-84 17.5q-41 0 -76 -8.5t-67 -23.5l-15 31q28 12 65.5 21t89.5 7v3q-120 41 -179 134.5t-59 221.5q0 124 47 190t134 66q57 0 95 -31t48 -85h3q11 54 48.5 85t96.5 31q86 0 132 -65.5t46 -189.5q0 -67 -12 -122t-35 -108l-34 13
q21 52 31.5 103.5t10.5 113.5q0 109 -34.5 164.5t-108.5 55.5q-66 0 -94.5 -42.5t-28.5 -116.5v-158h-38v158q0 73 -30 116t-93 43q-144 0 -144 -220q0 -133 60 -217t181 -128q73 -28 125.5 -66t88.5 -106z" />
    <glyph glyph-name="uni10E7" unicode="&#x10e7;" horiz-adv-x="578" 
d="M279 -250q-102 0 -161 53.5t-59 140.5q0 52 16 89h37q-8 -19 -11.5 -41.5t-3.5 -45.5q0 -72 49 -116.5t133 -44.5q63 0 102 28.5t57 78t18 112.5v127q0 27 1 63t3 55h-3q-23 -55 -74 -85.5t-121 -30.5q-90 0 -145.5 54.5t-55.5 166.5q0 55 9.5 95.5t29.5 80.5h39
q-21 -44 -29.5 -84t-8.5 -92q0 -97 45.5 -141.5t117.5 -44.5q51 0 94.5 20t70.5 62t27 111v169h39v-526q0 -75 -22.5 -132t-70 -89.5t-123.5 -32.5z" />
    <glyph glyph-name="uni10E8" unicode="&#x10e8;" horiz-adv-x="584" 
d="M282 -10q-109 0 -166.5 71.5t-57.5 194.5q0 120 60.5 187t158.5 67q73 0 120 -35t66 -87h3q-1 21 -2 54t-1 55v110q0 49 -16 77t-41.5 40t-55.5 12q-42 0 -71.5 -24.5t-29.5 -76.5v-45h-37v33q0 54 -25.5 83t-75.5 29q-21 0 -39 -4t-32 -10l-9 33q13 5 33 10.5t47 5.5
q44 0 74.5 -20t43.5 -63h2q12 43 46 63t75 20q37 0 71.5 -15t56 -49.5t21.5 -92.5v-368q0 -125 -56.5 -190t-162.5 -65zM282 25q91 0 136 56t45 161v19q0 101 -45 157.5t-139 56.5q-82 0 -131.5 -58.5t-49.5 -160.5q0 -108 47 -169.5t137 -61.5z" />
    <glyph glyph-name="uni10E9" unicode="&#x10e9;" horiz-adv-x="574" 
d="M83 0v596q0 57 22 95.5t59 58.5t82 20q70 0 113.5 -36t43.5 -97q0 -85 -80 -127v-2q88 -6 140.5 -66.5t52.5 -170.5q0 -86 -18 -154.5t-39 -116.5h-40q25 60 41 122.5t16 146.5q0 69 -23 115t-61.5 69t-85.5 23q-51 0 -93 -27.5t-66.5 -80t-24.5 -128.5v-240h-39z
M119 379h4q18 49 49 77t75 47q53 22 84.5 50.5t31.5 81.5q0 47 -31.5 73.5t-86.5 26.5q-56 0 -89.5 -36t-33.5 -103v-132q0 -21 -1 -35.5t-2 -49.5z" />
    <glyph glyph-name="uni10EA" unicode="&#x10ea;" horiz-adv-x="625" 
d="M332 -242q-134 0 -204 100t-70 289q0 71 11 141t31.5 132.5t47.5 109.5h40q-42 -75 -66 -176t-24 -207q0 -165 58.5 -259.5t175.5 -94.5q104 0 152 51.5t48 139.5q0 82 -52 131t-135 49h-45v35h62q70 0 109 27.5t39 82.5q0 39 -17.5 64t-42.5 44q-27 21 -50.5 45.5
t-23.5 67.5h38q1 -30 21 -50t45 -40q29 -22 49.5 -52t20.5 -77q0 -59 -36 -90.5t-96 -39.5v-2q40 -6 75.5 -31t57 -67t21.5 -99q0 -105 -61 -164.5t-179 -59.5z" />
    <glyph glyph-name="uni10EB" unicode="&#x10eb;" horiz-adv-x="584" 
d="M282 -10q-109 0 -166.5 72.5t-57.5 203.5q0 135 60.5 204.5t158.5 69.5q73 0 120 -35t66 -87h3q-1 22 -2 55.5t-1 55.5v231h38v-505q0 -133 -56.5 -199t-162.5 -66zM282 25q91 0 136 57.5t45 169.5v19q0 234 -184 234q-82 0 -131.5 -61t-49.5 -178q0 -115 47 -178
t137 -63z" />
    <glyph glyph-name="uni10EC" unicode="&#x10ec;" horiz-adv-x="584" 
d="M302 -10q-106 0 -162.5 65t-56.5 190v368q0 58 21.5 92.5t56 49.5t72.5 15q40 0 74 -20t46 -63h3q12 43 42.5 63t74.5 20q28 0 47.5 -5.5t32.5 -10.5l-9 -33q-14 6 -32 10t-39 4q-50 0 -75 -28.5t-25 -82.5v-34h-37v46q0 52 -30 76t-72 24q-29 0 -55 -12t-41.5 -40
t-15.5 -77v-110q0 -22 -1 -55t-2 -54h3q18 52 65 87t120 35q98 0 158.5 -67t60.5 -187q0 -123 -57.5 -194.5t-166.5 -71.5zM302 25q90 0 137 61.5t47 169.5q0 102 -49 160.5t-132 58.5q-93 0 -138.5 -56.5t-45.5 -157.5v-19q0 -105 45.5 -161t135.5 -56z" />
    <glyph glyph-name="uni10ED" unicode="&#x10ed;" horiz-adv-x="562" 
d="M289 -250q-103 0 -162 57.5t-59 159.5q0 33 6 57t14 42h37q-8 -19 -13 -43.5t-5 -53.5q0 -87 48.5 -135.5t133.5 -48.5q63 0 102 28t56.5 72t17.5 92q0 55 -19 97t-43 81q-23 37 -41 82.5t-20 111.5h-2q-15 -50 -53 -76.5t-91 -26.5q-60 0 -101.5 37.5t-41.5 104.5
q0 48 21 79t56 47t77 16h128v230h38v-230h123v-35h-123v-114q0 -70 18.5 -118t42.5 -87q27 -44 48.5 -90t21.5 -109q0 -60 -22 -111.5t-69.5 -83.5t-123.5 -32zM201 281q69 0 101.5 46t32.5 119v49h-121q-63 0 -92.5 -28.5t-29.5 -78.5q0 -54 31.5 -80.5t77.5 -26.5z" />
    <glyph glyph-name="uni10EE" unicode="&#x10ee;" horiz-adv-x="584" 
d="M302 -10q-106 0 -162.5 66t-56.5 199v505h39v-231q0 -22 -1 -55.5t-2 -55.5h3q18 52 65 87t120 35q98 0 158.5 -69.5t60.5 -204.5q0 -131 -57.5 -203.5t-166.5 -72.5zM302 25q90 0 137 63t47 178q0 117 -49 178t-132 61q-184 0 -184 -234v-19q0 -112 45.5 -169.5
t135.5 -57.5z" />
    <glyph glyph-name="uni10EF" unicode="&#x10ef;" horiz-adv-x="542" 
d="M288 342q0 -44 15 -76.5t38.5 -59.5t48.5 -54q25 -25 47.5 -53.5t37 -64.5t14.5 -85q0 -51 -22.5 -96.5t-70 -74t-122.5 -28.5q-103 0 -162 53.5t-59 140.5q0 52 16 89h37q-8 -19 -11 -41.5t-3 -45.5q0 -72 48.5 -116.5t133.5 -44.5q61 0 100 24t57.5 61.5t18.5 77.5
q0 44 -13 76.5t-34.5 58.5t-45.5 50q-26 27 -50.5 56t-40.5 65.5t-16 86.5v33l-187 36v34l187 -36v131h38v-138l191 -37v-34l-191 36v-24z" />
    <glyph glyph-name="uni10F0" unicode="&#x10f0;" horiz-adv-x="542" 
d="M266 -10q-72 0 -120 26.5t-71.5 68.5t-23.5 88q0 21 5 39h37q-3 -18 -3 -34q0 -41 19 -76t58 -56t99 -21q93 0 135.5 39t42.5 92q0 62 -46 93t-127 31h-39v35h59q64 0 103.5 19.5t39.5 70.5q0 44 -40 67t-105 23h-57v35h56q67 0 95.5 17.5t28.5 50.5q0 28 -22 45.5
t-55 30.5q-25 9 -49.5 20t-40.5 27t-16 39h39q1 -19 27 -33.5t62 -27.5q35 -14 65 -37t30 -62q0 -34 -25 -57t-77 -30v-2q50 -5 87 -31.5t37 -74.5q0 -56 -36.5 -79.5t-87.5 -29.5v-2q55 -8 94.5 -40t39.5 -99q0 -45 -24 -82.5t-72 -60t-122 -22.5z" />
    <glyph glyph-name="uni10F1" unicode="&#x10f1;" horiz-adv-x="630" 
d="M352 -10q-149 0 -221.5 100t-72.5 289q0 69 11 139t31.5 132.5t47.5 109.5h40q-42 -74 -66 -176t-24 -205q0 -165 61 -259.5t193 -94.5q89 0 134.5 36.5t45.5 94.5q0 62 -46 93t-127 31h-39v35h59q64 0 103.5 19.5t39.5 70.5q0 44 -40 67t-105 23h-57v35h56
q67 0 95.5 17.5t28.5 48.5q0 28 -17.5 44.5t-39.5 28.5q-28 16 -52 35.5t-24 55.5h39q0 -24 19 -39t44 -29q27 -14 49 -36t22 -59q0 -33 -25 -55t-77 -29v-2q50 -5 87 -31.5t37 -74.5q0 -56 -36.5 -79.5t-87.5 -29.5v-2q55 -8 94.5 -40t39.5 -99q0 -77 -58.5 -121
t-161.5 -44z" />
    <glyph glyph-name="uni10F2" unicode="&#x10f2;" horiz-adv-x="548" 
d="M66 0v35q47 0 89 7t82 20v2q-56 28 -96 69.5t-61.5 92t-21.5 102.5q0 60 24.5 108t72.5 76t118 28t118.5 -28t73.5 -76t25 -108q0 -52 -22 -102.5t-62.5 -92t-96.5 -69.5v-2q40 -13 82 -20t89 -7v-35q-60 0 -111.5 11.5t-95.5 33.5q-45 -22 -96 -33.5t-111 -11.5zM273 78
q53 26 92.5 65.5t62 87t22.5 97.5t-20.5 90t-60 63.5t-96.5 23.5t-96 -23.5t-59 -63.5t-20 -90t21.5 -97.5t61 -87t92.5 -65.5z" />
    <glyph glyph-name="uni10F3" unicode="&#x10f3;" horiz-adv-x="556" 
d="M278 -250q-106 0 -165.5 56t-59.5 151q0 33 6 57t14 42h37q-8 -19 -13 -43.5t-5 -53.5q0 -80 49 -127t137 -47q65 0 106 27t60 71.5t19 97.5q0 98 -50 146.5t-143 48.5h-38v29l198 290h-336v35h385v-29l-204 -291q107 -2 167.5 -61t60.5 -169q0 -64 -24 -116t-73.5 -83
t-127.5 -31z" />
    <glyph glyph-name="uni10F4" unicode="&#x10f4;" horiz-adv-x="546" 
d="M269 -250q-104 0 -160 54t-56 137q0 25 4 44t8 29h37q-2 -10 -5.5 -28.5t-3.5 -44.5q0 -68 44.5 -112t131.5 -44q65 0 105.5 26.5t59.5 69.5t19 91q0 57 -25.5 98t-69.5 63.5t-100 22.5h-45v35h60q70 0 109 30t39 93q0 41 -18.5 68t-47.5 46t-62 35q-38 19 -73 40
t-58 51.5t-23 78.5q0 71 43 104t104 33q44 0 74.5 -7.5t54.5 -19.5l-14 -33q-24 12 -51.5 18.5t-63.5 6.5q-49 0 -79.5 -24t-30.5 -77q0 -37 19.5 -62t50.5 -43t65 -36q36 -18 70.5 -39.5t57 -54.5t22.5 -84q0 -66 -36 -99.5t-96 -41.5v-3q40 -6 78 -31t62 -67.5t24 -102.5
q0 -59 -24 -109t-73.5 -80.5t-126.5 -30.5z" />
    <glyph glyph-name="uni10F5" unicode="&#x10f5;" horiz-adv-x="627" 
d="M270 -10q-96 0 -154 43t-58 129q0 77 56.5 117.5t145.5 40.5h180v139h-179q-86 0 -138 38t-52 115q0 76 56 117t150 41q101 0 151 -49.5t50 -153.5v-73h118v-35h-118v-139h118v-35h-118v-73q0 -114 -50 -168t-158 -54zM263 494h177v75q0 88 -41 127t-122 39
q-85 0 -125.5 -34t-40.5 -89t37.5 -86.5t114.5 -31.5zM271 25q90 0 129.5 46t39.5 142v72h-182q-78 0 -119 -34t-41 -89q0 -62 42.5 -99.5t130.5 -37.5z" />
    <glyph glyph-name="uni10F6" unicode="&#x10f6;" horiz-adv-x="910" 
d="M353 -250q-38 0 -62 10v35q12 -5 26.5 -7.5t32.5 -2.5q44 0 65 28t21 88v85q0 28 0.5 56.5t2.5 60.5h-3q-19 -46 -61 -79.5t-106 -33.5q-102 0 -156.5 73.5t-54.5 209.5q0 129 52.5 198t152.5 69q68 0 111 -37t62 -92h2q-1 30 -1.5 60t-0.5 61v93q0 72 33.5 108.5
t91.5 36.5q14 0 26 -2t20 -4v-34q-8 2 -19 3.5t-24 1.5q-44 0 -67 -26t-23 -86v-91q0 -31 -0.5 -61t-1.5 -60h2q20 55 62.5 92t110.5 37q100 0 152.5 -69t52.5 -198q0 -136 -54.5 -209.5t-156.5 -73.5q-64 0 -106 33.5t-61 79.5h-2q1 -32 1.5 -60.5t0.5 -56.5v-87
q0 -74 -31 -111.5t-90 -37.5zM272 25q74 0 119 52.5t45 168.5v23q0 112 -43.5 174t-125.5 62q-169 0 -169 -232q0 -123 45.5 -185.5t128.5 -62.5zM638 25q83 0 128.5 62.5t45.5 185.5q0 232 -169 232q-82 0 -125.5 -62t-43.5 -174v-23q0 -116 45 -168.5t119 -52.5z" />
    <glyph glyph-name="uni10F7" unicode="&#x10f7;" horiz-adv-x="527" 
d="M259 -250q-93 0 -149.5 53.5t-56.5 146.5q0 65 24 110t66.5 77.5t99.5 59.5q52 24 89.5 48.5t57.5 55.5t20 76q0 60 -36.5 94t-110.5 34q-76 0 -114 -36t-38 -92q0 -7 1 -16.5t2 -15.5h-39q-1 6 -2 16t-1 17q0 71 49.5 116.5t141.5 45.5q91 0 139 -43.5t48 -119.5
q0 -54 -21.5 -90.5t-64.5 -65t-106 -58.5q-50 -23 -87 -51.5t-57.5 -67t-20.5 -93.5q0 -76 45 -121t121 -45q83 0 129 43.5t46 122.5q0 28 -3 44t-8 29h41q4 -12 7 -28.5t3 -44.5q0 -99 -58 -150t-157 -51z" />
    <glyph glyph-name="uni10F8" unicode="&#x10f8;" horiz-adv-x="578" 
d="M298 -250q-75 0 -122.5 32.5t-70 89.5t-22.5 132v526h39v-169q0 -69 27 -111t70.5 -62t94.5 -20q71 0 117 44.5t46 141.5q0 52 -8.5 92t-29.5 84h38q20 -40 30 -80.5t10 -95.5q0 -112 -55.5 -166.5t-145.5 -54.5q-71 0 -121.5 30.5t-73.5 85.5h-3q1 -19 2.5 -55t1.5 -63
v-127q0 -63 17.5 -112.5t56.5 -78t102 -28.5q85 0 133.5 44.5t48.5 116.5q0 23 -3 45.5t-11 41.5h37q16 -37 16 -89q0 -87 -59 -140.5t-162 -53.5z" />
    <glyph glyph-name="uni10F9" unicode="&#x10f9;" horiz-adv-x="581" 
d="M291 540q75 0 126.5 -35t78 -95t26.5 -135q0 -120 -61 -189.5t-163 -76.5q-60 -4 -97 -30.5t-37 -80.5q0 -50 31.5 -82t92.5 -32q59 0 92.5 31.5t33.5 80.5q0 8 -1 16t-3 17h39q4 -18 4 -37q0 -41 -21.5 -73.5t-58.5 -50.5t-85 -18q-51 0 -87.5 19.5t-56.5 53t-20 73.5
q0 49 27.5 81t75.5 44v2q-47 8 -85.5 39.5t-61 84.5t-22.5 128q0 74 26 134t77.5 95.5t129.5 35.5zM291 505q-67 0 -109.5 -30.5t-63 -82.5t-20.5 -117q0 -63 19 -115.5t60.5 -83.5t108.5 -31q96 0 146 62.5t50 167.5q0 66 -20.5 118t-63 82t-107.5 30z" />
    <glyph glyph-name="uni10FA" unicode="&#x10fa;" horiz-adv-x="474" 
d="M128 -102v38l158 58v2q-77 3 -127.5 39.5t-75.5 96t-25 130.5q0 84 31.5 146.5t89.5 97t137 34.5q37 0 68.5 -6.5t58.5 -18.5l-9 -35q-29 12 -59.5 18t-58.5 6q-68 0 -117 -30t-75 -84.5t-26 -127.5q0 -63 23 -117t68 -87t112 -33q38 0 73 7.5t64 19.5v-38z" />
    <glyph glyph-name="uni10FB" unicode="&#x10fb;" horiz-adv-x="503" 
d="M113 422q-18 0 -25 11t-7 27q0 17 7 28t25 11q21 0 27.5 -11t6.5 -28q0 -16 -7 -27t-27 -11zM389 229q-18 0 -25 11t-7 28q0 16 7 27.5t25 11.5q21 0 27.5 -11.5t6.5 -27.5q0 -17 -7 -28t-27 -11zM113 -9q-18 0 -25 11t-7 27t7 27.5t25 11.5q21 0 27.5 -11t6.5 -28
q0 -16 -7 -27t-27 -11z" />
    <glyph glyph-name="uni10FC" unicode="&#x10fc;" horiz-adv-x="340" 
d="M175 409q-62 0 -94.5 38.5t-32.5 113.5v181q0 55 30.5 79t77.5 24h124v-28h-121q-36 0 -56.5 -17t-20.5 -57v-27v-30.5t-1 -31.5h1q10 30 36 48t66 18q54 0 88 -39t34 -115q0 -74 -33.5 -115.5t-97.5 -41.5zM175 439q47 0 71.5 34t24.5 93q0 62 -26.5 93.5t-68.5 31.5
q-95 0 -95 -121v-11q0 -120 94 -120z" />
    <glyph glyph-name="uni10FD" unicode="&#x10fd;" horiz-adv-x="527" 
d="M268 -10q-99 0 -157 51t-58 150q0 28 3 44.5t6 28.5h41q-4 -13 -7 -29t-3 -44q0 -79 45.5 -122.5t129.5 -43.5q76 0 121 45t45 121q0 55 -20.5 91t-57.5 62t-87 50q-63 30 -106 58.5t-64.5 64.5t-21.5 90q0 77 47.5 120t139.5 43q91 0 141 -45.5t50 -116.5q0 -7 -1 -16.5
t-2 -16.5h-40q2 6 2.5 15.5t0.5 16.5q0 57 -37.5 92.5t-113.5 35.5q-74 0 -110.5 -33.5t-36.5 -94.5q0 -44 20 -75t57 -55.5t89 -49.5q57 -26 100 -56t67 -73t24 -108q0 -93 -56.5 -146.5t-149.5 -53.5z" />
    <glyph glyph-name="uni10FE" unicode="&#x10fe;" horiz-adv-x="548" 
d="M66 530q60 0 111 -12t96 -33q44 21 95.5 33t111.5 12v-35q-47 0 -89 -7t-82 -20v-3q56 -27 96.5 -69t62.5 -92t22 -102q0 -60 -25 -108t-73.5 -76t-118.5 -28t-118 28t-72.5 76t-24.5 108q0 52 21.5 102t61.5 92t96 69v3q-40 13 -82 20t-89 7v35zM273 451
q-53 -25 -92.5 -65t-61 -87t-21.5 -97t20 -90t59 -63.5t96 -23.5t96.5 23.5t60 63.5t20.5 90t-22.5 97t-62 87t-92.5 65z" />
    <glyph glyph-name="uni10FF" unicode="&#x10ff;" horiz-adv-x="581" 
d="M522 265q0 -80 -25.5 -142t-77.5 -97.5t-130 -35.5q-75 0 -126.5 35t-78 97t-26.5 143q0 127 62.5 201t173.5 74q79 0 129 -36t74.5 -98t24.5 -141zM98 265q0 -107 47 -173.5t144 -66.5q67 0 110 30.5t63 84.5t20 125q0 68 -19 122t-60.5 86t-108.5 32
q-95 0 -145.5 -63.5t-50.5 -176.5z" />
    <glyph glyph-name="uni1C90" unicode="&#x1c90;" horiz-adv-x="578" 
d="M288 -10q-107 0 -168.5 62t-61.5 168q0 30 4.5 64t17.5 68h-17l20 9v-1t-3 -8h40q-12 -33 -16.5 -67.5t-4.5 -62.5q0 -91 50.5 -143.5t138.5 -52.5q63 0 104 28.5t61 76.5t20 106t-16 102.5t-40.5 80t-51.5 67.5q-27 33 -50.5 66.5t-37 72t-9.5 88.5h39q-3 -45 10 -80.5
t36 -67t49 -62.5q27 -34 52.5 -72t42.5 -85.5t17 -110.5q0 -69 -25 -124.5t-75 -88.5t-126 -33zM123 361l14 -9h-17q2 5 3 9z" />
    <glyph glyph-name="uni1C91" unicode="&#x1c91;" horiz-adv-x="601" 
d="M300 -10q-74 0 -127 33t-81 91t-28 135q0 80 30 137.5t83 89t120 31.5q8 13 11 26.5t3 26.5q0 26 -14 41t-32 28q-19 14 -36 34t-14 51h39q-2 -22 11.5 -37t27.5 -25q22 -15 40 -36.5t18 -51.5q0 -16 -4 -30t-11 -29q63 -8 108 -43t69 -90t24 -123q0 -76 -29 -134.5
t-82 -91.5t-126 -33zM300 26q62 0 105.5 28.5t67 79t23.5 115.5q0 63 -23 113t-67 79.5t-106 29.5q-87 0 -141 -59t-54 -163q0 -66 24 -116t68 -78.5t103 -28.5z" />
    <glyph glyph-name="uni1C92" unicode="&#x1c92;" horiz-adv-x="589" 
d="M294 -10q-74 0 -127 32.5t-81 88.5t-28 128q0 75 29 129t80.5 83.5t118.5 32.5t104.5 28t37.5 75q0 45 -35 73.5t-98 28.5q-61 0 -99 -28.5t-38 -74.5q0 -14 3 -29h-39q-4 18 -4 33q0 40 24 70t64 47t89 17q53 0 91.5 -18.5t60 -49.5t21.5 -69q0 -45 -27 -75.5t-74 -41.5
v-2q77 -17 120.5 -78.5t43.5 -150.5q0 -71 -29 -127t-82 -89t-126 -33zM294 26q62 0 105.5 28t67 76.5t23.5 108.5q0 58 -23 106t-67 76t-106 28q-87 0 -141 -56t-54 -154q0 -61 24 -109t68 -76t103 -28z" />
    <glyph glyph-name="uni1C93" unicode="&#x1c93;" horiz-adv-x="889" 
d="M574 0q-7 41 -43 68.5t-87.5 41.5t-106.5 14q-42 0 -82.5 -8.5t-73.5 -25.5l-15 31q28 14 64 22.5t88 8.5v3q-122 35 -188 122.5t-66 206.5q0 112 50 174.5t140 62.5q63 0 110 -37t52 -110h2q11 63 61.5 105t128.5 42q69 0 117.5 -31.5t74 -86t25.5 -122.5
q0 -67 -25 -121t-73.5 -86t-118.5 -32q-69 0 -117 32t-73 86t-25 121v31q0 80 -33.5 126.5t-104.5 46.5q-74 0 -112 -52.5t-38 -148.5q0 -78 25.5 -133t68 -92.5t94 -60.5t104.5 -37q52 -14 98.5 -32.5t78 -49t38.5 -79.5h-38zM607 277q60 0 99 27t58.5 73t19.5 104t-20 104
t-59 73t-97 27t-97 -27t-58 -73t-19 -104q0 -57 19.5 -103t58 -73.5t95.5 -27.5z" />
    <glyph glyph-name="uni1C94" unicode="&#x1c94;" horiz-adv-x="604" 
d="M287 -10q-106 0 -167.5 56t-61.5 156q0 29 4 51.5t10 39.5h39q-5 -16 -9 -39t-4 -50q0 -84 50.5 -131t138.5 -47q66 0 106.5 26t60 71.5t19.5 103.5v283q0 82 -45 130t-130 48q-80 0 -125.5 -41t-45.5 -110q0 -23 2.5 -41.5t5.5 -35.5h-39q-4 17 -6 36t-2 41
q0 84 56 135.5t154 51.5q105 0 159.5 -59t54.5 -154v-285q0 -69 -23.5 -122t-73 -83.5t-128.5 -30.5z" />
    <glyph glyph-name="uni1C95" unicode="&#x1c95;" horiz-adv-x="582" 
d="M293 -10q-109 0 -172 54t-63 151q0 20 4.5 40t11.5 40h39q-6 -18 -10.5 -38.5t-4.5 -39.5q0 -84 53 -127.5t142 -43.5q65 0 107.5 24.5t62.5 66t20 92.5q0 80 -53.5 122t-136.5 42h-48v35h56q77 0 120 36t43 103q0 37 -19 69.5t-56 52t-93 19.5q-80 0 -124.5 -40
t-44.5 -96q0 -16 2.5 -31.5t4.5 -24.5h-39q-3 10 -5 26t-2 32q0 45 24.5 83.5t71 62.5t112.5 24q69 0 115 -24.5t69.5 -64.5t23.5 -87q0 -65 -35 -105.5t-99 -50.5v-2q64 -9 109 -56t45 -126q0 -60 -25 -109.5t-76.5 -79t-129.5 -29.5z" />
    <glyph glyph-name="uni1C96" unicode="&#x1c96;" horiz-adv-x="629" 
d="M335 -10q-77 0 -128.5 31.5t-77.5 86.5t-26 125q0 58 17.5 107t64.5 85v2q-59 3 -101 41.5t-42 105.5q0 46 21.5 79.5t58 52t79.5 18.5q48 0 84 -19t56 -51t20 -72q0 -76 -44 -106v-1q6 1 12 1.5t16 0.5q77 -1 125.5 -35t71.5 -89t23 -119q0 -70 -26.5 -125t-77.5 -87
t-126 -32zM201 454q52 0 86.5 31t34.5 87q0 55 -32 86.5t-89 31.5q-51 0 -85.5 -31.5t-34.5 -85.5t34.5 -86.5t85.5 -32.5zM335 26q66 0 107.5 27.5t61.5 75t20 105.5q0 57 -18.5 104.5t-60.5 76t-111 28.5q-95 0 -142.5 -57t-47.5 -152q0 -59 19.5 -106t61.5 -74.5
t110 -27.5z" />
    <glyph glyph-name="uni1C97" unicode="&#x1c97;" horiz-adv-x="960" 
d="M683 724q56 0 103 -31t75.5 -98.5t28.5 -178.5q0 -130 -23 -228.5t-65 -187.5h-41q42 92 65 190t23 225q0 100 -23 160t-62 86.5t-84 26.5q-37 0 -70.5 -17t-54.5 -53.5t-21 -95.5q0 -32 4 -68.5t4 -96.5q0 -187 -59 -277t-177 -90q-120 0 -178 91t-58 276q0 187 59 277
t177 90q74 0 124 -35t75 -107h2q16 73 66 107.5t110 34.5zM306 26q100 0 147.5 81t47.5 250q0 171 -48.5 251t-146.5 80q-100 0 -147.5 -81t-47.5 -250q0 -171 48.5 -251t146.5 -80z" />
    <glyph glyph-name="uni1C98" unicode="&#x1c98;" horiz-adv-x="612" 
d="M142 0q-30 74 -51 169t-21 235q0 112 30 182.5t83.5 104t122.5 33.5t122.5 -33.5t83.5 -104t30 -182.5q0 -140 -20.5 -235t-51.5 -169h-40q31 77 51 172t20 231q0 101 -24.5 164t-68.5 92t-102 29t-102 -29t-68.5 -92t-24.5 -164q0 -136 20.5 -231t50.5 -172h-40z" />
    <glyph glyph-name="uni1C99" unicode="&#x1c99;" horiz-adv-x="569" 
d="M277 -10q-101 0 -162.5 54t-61.5 151q0 20 4.5 40t11.5 40h39q-6 -18 -10.5 -38.5t-4.5 -39.5q0 -84 51.5 -128t132.5 -44q67 0 110 24.5t63 65.5t20 89q0 90 -50 137.5t-135 47.5h-46v34h55q73 0 113.5 36.5t40.5 97.5q0 54 -37.5 93t-112.5 39v35q63 0 105 -23.5
t63 -61t21 -79.5q0 -62 -33 -102t-94 -51v-2q62 -9 106.5 -60.5t44.5 -141.5q0 -59 -25 -107.5t-77 -77t-132 -28.5z" />
    <glyph glyph-name="uni1C9A" unicode="&#x1c9a;" horiz-adv-x="1096" 
d="M732 1q-7 43 -41 72t-83.5 45.5t-102.5 24t-96 7.5q-58 0 -107 -13.5t-82 -29.5l-16 31q18 8 45 17t57 15t57 5v2q-56 9 -109 30.5t-96 60t-68.5 97t-25.5 139.5q0 102 48 161t134 59q59 0 100 -30.5t51 -88.5h2q12 59 52.5 89t96.5 30q57 0 97.5 -30.5t51.5 -88.5h3
q10 58 50.5 88.5t98.5 30.5q87 0 135 -62t48 -177q0 -63 -13 -114.5t-36 -101.5l-36 13q22 50 33 98.5t11 105.5q0 202 -146 202q-64 0 -95.5 -42.5t-31.5 -116.5v-135h-39v135q0 74 -33 116.5t-98 42.5q-64 0 -97.5 -41.5t-33.5 -117.5v-135h-39v135q0 74 -31.5 116.5
t-96.5 42.5q-72 0 -108.5 -48t-36.5 -136q0 -79 26 -134.5t72.5 -92.5t107 -58t130.5 -30q49 -7 103 -18t102.5 -31t82 -54t41.5 -86z" />
    <glyph glyph-name="uni1C9B" unicode="&#x1c9b;" horiz-adv-x="616" 
d="M296 -9q-112 0 -172 68t-60 191q0 119 63 183.5t165 64.5q76 0 124.5 -32.5t68.5 -81.5h3q-1 20 -2 49.5t-1 52.5v43q0 83 -51.5 121.5t-128.5 38.5q-46 0 -86 -14t-65 -43t-25 -75v-5v-8h-38q-1 6 -1 9.5v8.5q0 51 30 87.5t79 55.5t106 19q61 0 111 -21t79 -64t29 -109
v-290q0 -124 -58.5 -186.5t-169.5 -62.5zM296 25q95 0 142 54t47 158v18q0 99 -47 153.5t-144 54.5q-86 0 -137.5 -55.5t-51.5 -157.5q0 -107 49 -166t142 -59z" />
    <glyph glyph-name="uni1C9C" unicode="&#x1c9c;" horiz-adv-x="616" 
d="M319 -10q-107 0 -167 63t-60 187v301q0 91 51.5 132t135.5 41h228v-36h-226q-70 0 -110 -31.5t-40 -108.5v-46q0 -22 -1.5 -52l-2.5 -50h3q19 49 70 82t124 33q66 0 117.5 -29.5t80.5 -86t29 -139.5q0 -123 -61 -191.5t-171 -68.5zM319 25q91 0 141.5 59t50.5 166
t-53.5 163t-135.5 56q-93 0 -142 -55.5t-49 -159.5v-18q0 -103 48.5 -157t139.5 -54z" />
    <glyph glyph-name="uni1C9D" unicode="&#x1c9d;" horiz-adv-x="878" 
d="M158 0q-42 89 -65 188.5t-23 227.5q0 110 28.5 178t74.5 99t100 31q31 0 65.5 -11.5t62 -41.5t37.5 -85h2q10 53 38 83t62 42.5t64 12.5q55 0 101.5 -31t74.5 -98.5t28 -178.5q0 -130 -23 -228.5t-65 -187.5h-42q43 92 66 190t23 225q0 100 -23 160t-60.5 86.5
t-82.5 26.5q-34 0 -66.5 -18t-53.5 -60.5t-21 -116.5v-284h-41v284q0 74 -21.5 116.5t-54.5 60.5t-67 18q-44 0 -81.5 -26.5t-60.5 -86.5t-23 -160q0 -125 23 -224t66 -191h-42z" />
    <glyph glyph-name="uni1C9E" unicode="&#x1c9e;" horiz-adv-x="580" 
d="M284 -10q-102 0 -164 54t-62 151q0 20 4.5 40t11.5 40h39q-6 -18 -10.5 -38.5t-4.5 -39.5q0 -84 52 -127.5t134 -43.5q67 0 109 24.5t62 64.5t20 85q0 57 -27.5 95t-70 56.5t-86.5 18.5h-67v35h71q62 0 104.5 22.5t42.5 71.5q0 42 -22.5 65.5t-54.5 40.5q-39 21 -70 45
t-31 64h40q0 -26 26.5 -45t62.5 -38q35 -19 62.5 -48.5t27.5 -81.5q0 -36 -16.5 -59t-42 -36t-53.5 -18v-2q28 -5 61.5 -26t58.5 -60.5t25 -101.5q0 -56 -25 -103.5t-76 -76t-131 -28.5z" />
    <glyph glyph-name="uni1C9F" unicode="&#x1c9f;" horiz-adv-x="628" 
d="M308 -10q-105 0 -167 54t-62 151q0 20 4.5 40t11.5 40h38q-5 -18 -9.5 -38.5t-4.5 -39.5q0 -84 52.5 -127.5t136.5 -43.5q66 0 106.5 26t59 71.5t18.5 103.5v450q-53 -20 -115 -34.5t-122 -21.5v-1q33 -9 58 -38t25 -76q0 -56 -37.5 -93.5t-105.5 -37.5q-67 0 -104 34
t-37 80q0 16 4 31h36q-3 -13 -3 -27q0 -35 27 -59.5t77 -24.5q51 0 78.5 27t27.5 72q0 50 -32.5 74.5t-79.5 28.5v32q78 8 160.5 25.5t149.5 45.5h32v-488q0 -69 -23 -122t-72 -83.5t-128 -30.5z" />
    <glyph glyph-name="uni1CA0" unicode="&#x1ca0;" horiz-adv-x="804" 
d="M120 0q-19 48 -31.5 91t-18.5 92t-6 115q0 126 34.5 214.5t125.5 136.5q45 24 120.5 42.5t187.5 32.5l6 -35q-124 -16 -192.5 -33t-102.5 -36q-50 -28 -88 -76t-53 -133h3q14 37 40 57.5t55 29.5t54 9q52 0 93.5 -29t53.5 -87h2q12 58 54.5 87t98.5 29q83 0 133.5 -60.5
t50.5 -179.5q0 -79 -16 -142.5t-40 -124.5h-41q25 62 41 125.5t16 141.5q0 100 -38.5 152t-109.5 52q-63 0 -97 -41t-34 -118v-146h-38v146q0 77 -35.5 118t-93.5 41q-73 0 -111.5 -52t-38.5 -152q0 -77 15.5 -139.5t41.5 -127.5h-41z" />
    <glyph glyph-name="uni1CA1" unicode="&#x1ca1;" horiz-adv-x="616" 
d="M323 -10q-113 0 -172 62.5t-59 186.5v475h39v-477q0 -103 48 -157t144 -54q61 0 103 24.5t63.5 65.5t21.5 90q0 47 -15.5 78.5t-35.5 57.5q-25 30 -47 66t-21 89h39q0 -43 19 -74.5t45 -64.5q24 -28 40.5 -64.5t16.5 -87.5q0 -60 -26.5 -109t-77.5 -78t-125 -29z" />
    <glyph glyph-name="uni1CA2" unicode="&#x1ca2;" horiz-adv-x="787" 
d="M393 -10q-104 0 -177.5 44t-112.5 124.5t-39 188.5q0 162 81 254t230 100q-1 9 -1.5 19t-0.5 16v12h40v-13q0 -5 -0.5 -15t-0.5 -19q148 -8 229.5 -100t81.5 -255q0 -107 -38.5 -187t-112 -124.5t-179.5 -44.5zM394 26q94 0 158 39t97 111t33 170q0 141 -67.5 226.5
t-203.5 94.5q0 -16 1 -33.5t1 -35.5v-266h-40v264q0 18 0.5 35.5t1.5 34.5q-136 -8 -203 -93.5t-67 -225.5q0 -97 33.5 -169.5t98 -112t157.5 -39.5z" />
    <glyph glyph-name="uni1CA3" unicode="&#x1ca3;" 
d="M293 -10q-107 0 -168 56t-61 156q0 29 4 51.5t10 39.5h38q-5 -16 -9 -39t-4 -50q0 -84 51 -131t139 -47q65 0 106 26t60 71.5t19 103.5v339q0 57 -28 90t-86 33q-52 0 -80 -34.5t-28 -87.5v-118h-39v118q0 52 -25.5 84.5t-85.5 32.5h-53v35h53q107 0 130 -88h2
q11 44 45.5 68.5t82.5 24.5q72 0 111.5 -40.5t39.5 -114.5v-343q0 -69 -23.5 -122t-73 -83.5t-127.5 -30.5z" />
    <glyph glyph-name="uni1CA4" unicode="&#x1ca4;" horiz-adv-x="878" 
d="M532 -9q-89 0 -145 22.5t-82.5 59t-26.5 79.5q0 9 1.5 17.5t2.5 17.5h38q-3 -15 -3 -28q0 -36 21 -66.5t68.5 -48.5t125.5 -18q82 0 131 23.5t71 60.5t22 77q0 58 -35 99.5t-116 41.5h-21v35h32q72 0 114.5 44.5t42.5 118.5q0 71 -30.5 115t-108.5 44q-71 0 -104.5 -46
t-33.5 -126v-31q0 -62 -25 -114t-73 -83.5t-117 -31.5q-70 0 -118.5 31.5t-73.5 83.5t-25 114q0 68 25.5 122t74 85.5t116.5 31.5q79 0 129.5 -42t61.5 -105h1q6 73 53 110t110 37q92 0 135.5 -54t43.5 -137q0 -77 -38.5 -124.5t-98.5 -59.5v-2q60 -13 89.5 -55.5
t29.5 -102.5q0 -50 -26.5 -95t-84.5 -72.5t-153 -27.5zM281 288q58 0 96.5 27t58 71t19.5 96q0 58 -19 104t-58 72.5t-98 26.5q-57 0 -96 -26.5t-59 -72.5t-20 -104q0 -53 19.5 -97t58.5 -70.5t98 -26.5z" />
    <glyph glyph-name="uni1CA5" unicode="&#x1ca5;" horiz-adv-x="603" 
d="M285 -10q-103 0 -165 54t-62 151q0 20 4.5 40t11.5 40h39q-6 -18 -10.5 -38.5t-4.5 -39.5q0 -84 52 -127.5t135 -43.5q65 0 106.5 26.5t61 72.5t19.5 104v136q0 104 -48.5 160t-131.5 56q-76 0 -120.5 -40.5t-44.5 -102.5q0 -23 3 -40h-38q-2 9 -3.5 19t-1.5 22
q0 51 25 91t70.5 63.5t106.5 23.5q66 0 115 -32t68 -81h3q-1 19 -2 50t-1 55v105h39v-485q0 -70 -24 -124t-74 -84.5t-128 -30.5z" />
    <glyph glyph-name="uni1CA6" unicode="&#x1ca6;" horiz-adv-x="805" 
d="M538 0q-11 66 -69.5 102.5t-139.5 36.5q-98 0 -164 -34l-15 31q28 14 63.5 22.5t86.5 8.5v3q-121 35 -178.5 119t-57.5 193q0 113 48 177t140 64q58 0 98 -29.5t51 -80.5h2q13 51 52 80.5t100 29.5q89 0 137 -63.5t48 -177.5q0 -61 -12.5 -112t-36.5 -100l-35 13
q22 48 33 95.5t11 103.5q0 98 -36 152t-113 54q-69 0 -99 -42t-30 -108v-146h-39v146q0 66 -31.5 108t-95.5 42q-76 0 -113.5 -54t-37.5 -152q0 -72 22.5 -124t61.5 -87.5t88.5 -58t103.5 -36.5q77 -20 131 -60t64 -116h-38z" />
    <glyph glyph-name="uni1CA7" unicode="&#x1ca7;" 
d="M291 -10q-103 0 -165 54t-62 151q0 20 4.5 40t11.5 40h39q-6 -18 -10.5 -38.5t-4.5 -39.5q0 -84 52 -127.5t135 -43.5q65 0 106.5 26.5t61 72.5t19.5 104v108q0 28 1 61.5t3 49.5h-3q-24 -53 -77.5 -84.5t-122.5 -31.5q-95 0 -153.5 56.5t-58.5 161.5q0 52 9 90t25 74h40
q-18 -39 -25.5 -76t-7.5 -88q0 -89 48.5 -135.5t125.5 -46.5q50 0 95 21t73 63.5t28 106.5v155h39v-485q0 -70 -24 -124t-74 -84.5t-128 -30.5z" />
    <glyph glyph-name="uni1CA8" unicode="&#x1ca8;" horiz-adv-x="615" 
d="M295 -9q-112 0 -172 68t-60 191q0 119 63 183.5t165 64.5q76 0 124.5 -32.5t68.5 -81.5h3q-1 20 -2 49.5t-1 52.5v83q0 46 -16.5 72t-43 37t-55.5 11q-46 0 -77 -25.5t-31 -73.5v-36h-38v25q0 50 -26.5 80t-76.5 30q-23 0 -41 -5t-32 -11l-13 32q15 7 39 13t49 6
q42 0 74 -21.5t45 -61.5h1q13 41 49 62t80 21q37 0 72 -14.5t57.5 -47t22.5 -86.5v-336q0 -124 -58.5 -186.5t-169.5 -62.5zM295 25q95 0 142 54t47 158v18q0 99 -46.5 153.5t-144.5 54.5q-86 0 -137.5 -55.5t-51.5 -157.5q0 -107 49 -166t142 -59z" />
    <glyph glyph-name="uni1CA9" unicode="&#x1ca9;" horiz-adv-x="596" 
d="M92 0v550q0 53 23 92.5t63 60.5t91 21q74 0 119 -33t45 -91q0 -45 -25.5 -71.5t-68.5 -46.5v-2q95 -4 144 -64.5t49 -168.5q0 -69 -15 -136t-34 -111h-41q49 111 49 247q0 103 -48 153.5t-127 50.5q-50 0 -92 -25t-67.5 -71.5t-25.5 -108.5v-246h-39zM128 362h4
q18 44 52 73.5t78 43.5q32 11 62.5 26.5t49.5 38t19 55.5q0 43 -33 66.5t-91 23.5q-66 0 -102 -39.5t-36 -102.5v-106q0 -19 -1 -33t-2 -46z" />
    <glyph glyph-name="uni1CAA" unicode="&#x1caa;" horiz-adv-x="657" 
d="M351 -10q-139 0 -213 94t-74 271q0 65 12 130.5t32.5 124.5t47.5 104h41q-42 -70 -67 -165t-25 -194q0 -154 61.5 -241.5t185.5 -87.5q106 0 156 48t50 129q0 76 -50.5 121t-136.5 45h-47v36h64q72 0 113.5 24.5t41.5 71.5q0 40 -18 63.5t-44 41.5q-27 20 -51 44t-24 64
h40q0 -29 20 -47.5t45 -36.5q29 -20 51 -49.5t22 -77.5q0 -47 -33.5 -78t-97.5 -38v-2q63 -9 104.5 -56.5t41.5 -127.5q0 -99 -63.5 -155t-184.5 -56z" />
    <glyph glyph-name="uni1CAB" unicode="&#x1cab;" horiz-adv-x="616" 
d="M296 -10q-109 0 -170.5 68.5t-61.5 191.5q0 84 30 141t81 86.5t117 29.5q72 0 123.5 -32.5t70.5 -81.5h3q-1 20 -2.5 51t-1.5 53v217h39v-474q0 -124 -60.5 -187t-167.5 -63zM296 26q91 0 140.5 54t49.5 156v18q0 104 -48.5 160.5t-143.5 56.5q-82 0 -135.5 -56
t-53.5 -165q0 -106 50.5 -165t140.5 -59z" />
    <glyph glyph-name="uni1CAC" unicode="&#x1cac;" horiz-adv-x="615" 
d="M319 -9q-110 0 -168.5 62.5t-58.5 186.5v336q0 54 22.5 86.5t57.5 47t72 14.5q44 0 80 -21t48 -62h2q13 40 45 61.5t74 21.5q25 0 49 -6t38 -13l-12 -32q-14 6 -32 11t-41 5q-50 0 -76.5 -30t-26.5 -80v-25h-38v36q0 48 -31 73.5t-78 25.5q-28 0 -54.5 -11t-43 -37
t-16.5 -72v-83q0 -23 -1 -52.5t-2 -49.5h3q19 49 68 81.5t125 32.5q102 0 164.5 -64.5t62.5 -183.5q0 -123 -59.5 -191t-172.5 -68zM319 25q94 0 143 59t49 166q0 102 -52 157.5t-137 55.5q-97 0 -144 -54.5t-47 -153.5v-18q0 -104 47 -158t141 -54z" />
    <glyph glyph-name="uni1CAD" unicode="&#x1cad;" 
d="M320 -10q-105 0 -167 52.5t-62 145.5q0 17 5 40h38q-2 -11 -3 -20t-1 -18q0 -80 52.5 -122t137.5 -42q64 0 104.5 23t60 62.5t19.5 88.5q0 44 -17 73.5t-40.5 53t-44 50t-28.5 64.5h-3q-8 -38 -32.5 -62t-57.5 -35t-67 -11q-68 0 -112 38t-44 99q0 47 22.5 77.5t58.5 45
t77 14.5h136v107h39v-107h113v-35h-113v-54q0 -47 15.5 -78.5t38.5 -56t46 -49.5t38.5 -56.5t15.5 -78.5q0 -60 -24.5 -107t-74 -74.5t-126.5 -27.5zM219 367q63 0 97.5 35t34.5 95v75h-129q-59 0 -92 -26.5t-33 -75.5q0 -47 34 -75t88 -28z" />
    <glyph glyph-name="uni1CAE" unicode="&#x1cae;" horiz-adv-x="616" 
d="M321 -10q-109 0 -169 63t-60 187v474h39v-217q0 -22 -1.5 -53t-2.5 -51h3q19 48 69.5 81t124.5 33q65 0 116.5 -29.5t81.5 -86.5t30 -141q0 -123 -61.5 -191.5t-169.5 -68.5zM321 26q89 0 139.5 59t50.5 165q0 109 -53.5 165t-135.5 56q-95 0 -143.5 -56.5t-48.5 -160.5
v-18q0 -101 49.5 -155.5t141.5 -54.5z" />
    <glyph glyph-name="uni1CAF" unicode="&#x1caf;" horiz-adv-x="569" 
d="M284 -10q-105 0 -165.5 54t-60.5 151q0 20 4.5 40t11.5 40h39q-6 -18 -10.5 -38.5t-4.5 -39.5q0 -84 51 -127.5t135 -43.5q64 0 105.5 22t61.5 55.5t20 69.5q0 59 -29 96.5t-68 70.5q-29 26 -54.5 53t-41 60t-15.5 77v31l-195 32v35l195 -33v119h39v-127l199 -33v-35
l-199 34v-22q0 -40 15.5 -69.5t40 -54t50.5 -48.5q26 -22 49.5 -48t38.5 -59t15 -78q0 -47 -24.5 -89t-74.5 -68.5t-128 -26.5z" />
    <glyph glyph-name="uni1CB0" unicode="&#x1cb0;" horiz-adv-x="570" 
d="M280 -10q-76 0 -125.5 25t-74 64.5t-24.5 82.5q0 20 4 37h39q-3 -17 -3 -31q0 -38 20 -70.5t60.5 -52.5t103.5 -20q96 0 140.5 36.5t44.5 85.5q0 57 -48 86t-133 29h-40v35h63q65 0 106.5 18t41.5 63q0 43 -41.5 64.5t-106.5 21.5h-63v35h60q128 0 128 59q0 29 -25 45
t-57 28q-40 14 -70.5 32.5t-29.5 50.5h39q2 -18 25 -31t60 -26q24 -9 46.5 -21.5t37.5 -31t15 -44.5q0 -29 -22 -50.5t-76 -27.5v-2q52 -4 86.5 -29.5t34.5 -72.5q0 -49 -34 -72t-87 -27v-2q53 -7 92 -37.5t39 -93.5q0 -65 -56 -110.5t-170 -45.5z" />
    <glyph glyph-name="uni1CB1" unicode="&#x1cb1;" horiz-adv-x="662" 
d="M369 -10q-152 0 -228.5 94.5t-76.5 272.5q0 64 11.5 129.5t32.5 124.5t49 103h41q-43 -68 -68.5 -163t-25.5 -194q0 -155 64.5 -243.5t201.5 -88.5q92 0 139.5 34.5t47.5 87.5q0 57 -47.5 86t-130.5 29h-43v35h62q43 0 76.5 6.5t53 24.5t19.5 52q0 44 -41.5 63.5
t-109.5 19.5h-60v36h76q52 0 82 14t30 46q0 25 -18 40t-41 28q-29 16 -50.5 35t-20.5 52h39q0 -21 16 -35t43 -29q27 -14 50 -34.5t23 -55.5q0 -32 -23 -52.5t-75 -25.5v-2q52 -4 86.5 -28t34.5 -72q0 -53 -33.5 -75t-87.5 -28v-2q54 -6 92.5 -35.5t38.5 -93.5
q0 -72 -60.5 -114t-168.5 -42z" />
    <glyph glyph-name="uni1CB2" unicode="&#x1cb2;" horiz-adv-x="601" 
d="M90 0v36q95 5 172 41v2q-95 58 -146.5 153.5t-51.5 222.5q0 86 30.5 146t83.5 91.5t122 31.5t122.5 -31.5t83.5 -91.5t30 -146q0 -127 -51 -223t-146 -153v-2q76 -36 171 -41v-36q-59 4 -111.5 18t-98.5 37q-45 -23 -98 -37t-112 -18zM300 96q93 51 144.5 145t51.5 214
q0 112 -54.5 172.5t-141.5 60.5t-141 -60.5t-54 -172.5q0 -120 51 -214t144 -145z" />
    <glyph glyph-name="uni1CB3" unicode="&#x1cb3;" horiz-adv-x="582" 
d="M293 -10q-109 0 -172 54t-63 151q0 20 4.5 40t11.5 40h39q-6 -18 -10.5 -38.5t-4.5 -39.5q0 -84 53 -127.5t142 -43.5q65 0 107.5 24.5t62.5 66t20 92.5q0 90 -52.5 134.5t-149.5 44.5h-39v31l207 260h-358v35h408v-30l-212 -262q112 -2 174.5 -57t62.5 -157
q0 -60 -25 -109.5t-76.5 -79t-129.5 -29.5z" />
    <glyph glyph-name="uni1CB4" unicode="&#x1cb4;" horiz-adv-x="566" 
d="M282 -10q-76 0 -125.5 25t-74 64.5t-24.5 82.5q0 20 4 37h39q-3 -17 -3 -31q0 -38 20 -70.5t60.5 -52.5t103.5 -20q96 0 140.5 36.5t44.5 85.5q0 57 -48 86t-133 29h-40v35h63q65 0 106.5 17.5t41.5 62.5q0 30 -20 48t-52 30t-68 22q-41 12 -79.5 27t-63.5 40.5t-25 67.5
q0 38 23.5 62.5t60.5 37t79 12.5q45 0 77 -8.5t58 -20.5l-15 -32q-26 12 -54 19.5t-66 7.5q-51 0 -87.5 -19t-36.5 -58q0 -30 20 -48.5t52 -30.5t70 -22q40 -12 79 -27t64 -40t25 -67q0 -47 -34 -71t-87 -28v-2q53 -7 92 -37.5t39 -93.5q0 -65 -56 -110.5t-170 -45.5z" />
    <glyph glyph-name="uni1CB5" unicode="&#x1cb5;" horiz-adv-x="664" 
d="M284 -10q-99 0 -159.5 41t-60.5 122q0 72 58.5 110t150.5 38h189v129h-187q-89 0 -143.5 36t-54.5 109q0 72 58.5 110.5t154.5 38.5q111 0 161 -50.5t50 -140.5v-67h122v-36h-122v-129h122v-35h-122v-68q0 -65 -20.5 -111.5t-68 -71.5t-128.5 -25zM277 466h185v69
q0 72 -39.5 113t-133.5 41q-87 0 -129 -31.5t-42 -82.5t39.5 -80t119.5 -29zM285 25q69 0 107 22t54 61t16 91v67h-190q-82 0 -124.5 -31.5t-42.5 -81.5q0 -58 44.5 -93t135.5 -35z" />
    <glyph glyph-name="uni1CB6" unicode="&#x1cb6;" horiz-adv-x="771" 
d="M405 724v-87q142 -3 222 -65t80 -196q0 -132 -80.5 -203t-221.5 -74v-109h-39v109q-141 3 -221.5 72t-80.5 201q0 124 77 192.5t225 72.5v87h39zM366 601q-127 -2 -194.5 -58.5t-67.5 -170.5q0 -120 69 -177.5t193 -60.5v467zM405 601v-467q123 3 192.5 62.5t69.5 180.5
q0 115 -66 168.5t-196 55.5z" />
    <glyph glyph-name="uni1CB7" unicode="&#x1cb7;" horiz-adv-x="554" 
d="M273 -9q-96 0 -155.5 50.5t-59.5 137.5q0 51 16.5 85.5t44.5 57t62 37.5t70 27q45 16 86 35t67 50.5t26 84.5q0 66 -44.5 99t-111.5 33q-76 0 -116 -34.5t-40 -89.5q0 -8 0.5 -17.5t1.5 -15.5h-39q-1 9 -2 18.5t-1 15.5q0 70 52 114.5t144 44.5q57 0 101.5 -19t70 -56.5
t25.5 -92.5q0 -47 -17.5 -80t-46.5 -55.5t-64.5 -38t-72.5 -28.5q-44 -16 -83 -35t-63.5 -51.5t-24.5 -87.5q0 -70 47 -112t127 -42q87 0 134.5 40.5t47.5 113.5q0 14 -1.5 25t-3.5 19h40q2 -9 3.5 -20t1.5 -24q0 -93 -60 -141t-162 -48z" />
    <glyph glyph-name="uni1CB8" unicode="&#x1cb8;" 
d="M318 -10q103 0 165 54t62 151q0 20 -4.5 40t-11.5 40h-39q6 -18 10.5 -38.5t4.5 -39.5q0 -84 -52 -127.5t-135 -43.5q-65 0 -106.5 26.5t-61 72.5t-19.5 104v108q0 28 -1 61.5t-3 49.5h3q24 -53 77.5 -84.5t122.5 -31.5q95 0 153.5 56.5t58.5 161.5q0 52 -9 90t-25 74
h-40q18 -39 25.5 -76t7.5 -88q0 -89 -48.5 -135.5t-125.5 -46.5q-50 0 -95 21t-73 63.5t-28 106.5v155h-39v-485q0 -70 24 -124t74 -84.5t128 -30.5z" />
    <glyph glyph-name="uni1CB9" unicode="&#x1cb9;" horiz-adv-x="589" 
d="M295 724q74 0 127 -32.5t81 -88.5t28 -128q0 -75 -29 -129t-80.5 -83.5t-118.5 -32.5t-104.5 -28t-37.5 -75q0 -45 35 -73.5t98 -28.5q61 0 99 28.5t38 74.5q0 14 -3 29h39q4 -18 4 -33q0 -40 -24 -70t-64 -47t-89 -17q-53 0 -91.5 18.5t-60 49.5t-21.5 69q0 45 27 75.5
t74 41.5v2q-77 17 -120.5 78.5t-43.5 150.5q0 71 29 127t82 89t126 33zM295 688q-62 0 -105.5 -28t-67 -76.5t-23.5 -108.5q0 -58 23 -106t67 -76t106 -28q87 0 141 56t54 154q0 61 -24 109t-68 76t-103 28z" />
    <glyph glyph-name="uni1CBA" unicode="&#x1cba;" horiz-adv-x="521" 
d="M116 -10v39l242 111v2q-89 -13 -155 20.5t-102.5 104t-36.5 167.5q0 87 34.5 152.5t96 101.5t143.5 36q80 0 148 -35l-15 -33q-33 19 -66 25.5t-68 6.5q-71 0 -123 -31t-80.5 -88t-28.5 -135q0 -123 58 -194.5t162 -71.5q46 0 81 7t66 18v-38z" />
    <glyph glyph-name="uni1CBD" unicode="&#x1cbd;" horiz-adv-x="554" 
d="M281 -9q-102 0 -162.5 48t-60.5 141q0 13 2 24t4 20h40q-3 -8 -4 -19t-1 -25q0 -73 47.5 -113.5t134.5 -40.5q80 0 127 42t47 112q0 53 -24.5 84t-64 49.5t-83.5 33.5q-36 13 -72 29t-65 39t-46 57t-17 84q0 55 25.5 92.5t70 56.5t100.5 19q92 0 144 -44.5t52 -114.5
q0 -6 -0.5 -15.5t-2.5 -18.5h-39q1 6 1.5 15.5t0.5 17.5q0 55 -40 89.5t-116 34.5q-67 0 -111.5 -33t-44.5 -99q0 -56 26 -89t67.5 -52.5t86.5 -35.5q35 -12 69.5 -27t62 -37t44 -54.5t16.5 -81.5q0 -87 -59 -137.5t-155 -50.5z" />
    <glyph glyph-name="uni1CBE" unicode="&#x1cbe;" horiz-adv-x="601" 
d="M90 714q59 -4 112 -18t98 -37q46 23 98.5 37t111.5 18v-36q-95 -5 -171 -41v-2q95 -57 146 -153t51 -223q0 -86 -30 -146t-83.5 -91.5t-122.5 -31.5t-122 31.5t-83.5 91.5t-30.5 146q0 127 51.5 222.5t146.5 153.5v2q-77 36 -172 41v36zM300 618q-93 -51 -144 -145
t-51 -214q0 -112 54 -172.5t141 -60.5t141.5 60.5t54.5 172.5q0 120 -51.5 214t-144.5 145z" />
    <glyph glyph-name="uni1CBF" unicode="&#x1cbf;" horiz-adv-x="632" 
d="M316 -10q-246 0 -246 367q0 187 62.5 277t183.5 90q246 0 246 -367q0 -187 -62.5 -277t-183.5 -90zM316 26q103 0 154 81t51 250q0 171 -51.5 251t-153.5 80q-104 0 -154.5 -81t-50.5 -250q0 -171 51.5 -251t153.5 -80z" />
    <glyph glyph-name="uni2010" unicode="&#x2010;" horiz-adv-x="322" 
d="M40 253v36h242v-36h-242z" />
    <glyph glyph-name="uni20BE" unicode="&#x20be;" horiz-adv-x="746" 
d="M119 0v31l133 5v2q-90 36 -137 123t-47 202q0 124 55 211.5t156 116.5v79h34v-71q30 6 63 6q34 0 65 -6v71h34v-79q98 -30 153 -118t55 -221h-40q0 116 -43 194.5t-125 108.5v-303h-34v312q-30 6 -65 6q-33 0 -63 -6v-312h-34v303q-84 -29 -127 -107t-43 -186
q0 -98 34.5 -171.5t99 -114t153.5 -40.5h245v-36h-522z" />
    <glyph glyph-name="uni2D00" unicode="&#x2d00;" horiz-adv-x="652" 
d="M350 0q-186 0 -186 160v249q0 53 -19.5 69.5t-53.5 16.5h-71v35h86q49 0 70.5 -26t24.5 -78h3q19 45 64.5 79.5t122.5 34.5q88 0 135.5 -47t47.5 -146v-97h-38v95q0 83 -38.5 121.5t-109.5 38.5q-86 0 -135.5 -51.5t-49.5 -156.5v-132q0 -72 37 -101.5t113 -29.5h192v-34
h-195z" />
    <glyph glyph-name="uni2D01" unicode="&#x2d01;" horiz-adv-x="605" 
d="M335 -250q-72 0 -122.5 10.5t-88.5 26.5v38q43 -18 95 -29t113 -11q59 0 104.5 16t72 49t26.5 84q0 30 -9 52t-22 41q-14 20 -25.5 41.5t-15.5 50.5h-2q-20 -56 -67.5 -92.5t-127.5 -36.5q-182 0 -182 193v347h38v-343q0 -84 38 -123t109 -39q86 0 136 50.5t50 156.5v298
h39v-370q0 -39 11.5 -63.5t26.5 -45.5q17 -25 29.5 -50.5t12.5 -68.5q0 -61 -31 -101.5t-85 -60.5t-123 -20z" />
    <glyph glyph-name="uni2D02" unicode="&#x2d02;" horiz-adv-x="611" 
d="M340 -250q-71 0 -121.5 10.5t-89.5 26.5v38q43 -18 95.5 -29t113.5 -11q58 0 104 16t72 48t26 80q0 35 -10 60t-25 48q-17 27 -31 58.5t-14 78.5v171q0 83 -38 121.5t-109 38.5q-87 0 -136 -51.5t-49 -156.5v-297h-39v530h31l6 -104h3q19 45 64.5 79.5t122.5 34.5
q88 0 135.5 -47t47.5 -146v-169q0 -46 13 -74t30 -54q15 -23 26 -51t11 -71q0 -59 -31 -98.5t-84.5 -59.5t-123.5 -20z" />
    <glyph glyph-name="uni2D03" unicode="&#x2d03;" horiz-adv-x="584" 
d="M291 -10q-71 0 -123.5 31.5t-81 87t-28.5 128.5q0 66 22 114t57.5 80.5t78 53t82.5 30.5q-25 28 -35 67t-10 88v54h-162v36h402v-36h-201v-54q0 -54 12.5 -94t61.5 -74q46 -33 82 -70t57 -84.5t21 -111.5q0 -114 -62.5 -180t-172.5 -66zM291 25q92 0 143.5 54t51.5 157
q0 68 -28.5 118.5t-81.5 93.5q-27 22 -53 40q-56 -14 -107.5 -42t-84.5 -78.5t-33 -130.5q0 -96 51 -154t142 -58z" />
    <glyph glyph-name="uni2D04" unicode="&#x2d04;" horiz-adv-x="582" 
d="M316 540q88 0 135.5 -47t47.5 -146v-587h-39v585q0 83 -38 121.5t-109 38.5q-87 0 -136 -51.5t-49 -156.5v-297h-39v530h31l6 -104h3q19 45 64.5 79.5t122.5 34.5z" />
    <glyph glyph-name="uni2D05" unicode="&#x2d05;" horiz-adv-x="870" 
d="M626 540q72 0 116.5 -44t44.5 -137v-359h-38v357q0 77 -35.5 112.5t-90.5 35.5q-76 0 -121 -44t-45 -142v-559h-38v597q0 77 -35.5 112.5t-90.5 35.5q-72 0 -118.5 -45t-46.5 -145v-315h-39v530h31l6 -92h3q11 26 32.5 49t54.5 38t80 15q56 0 95.5 -27t54.5 -79h2
q21 49 66 77.5t112 28.5z" />
    <glyph glyph-name="uni2D06" unicode="&#x2d06;" horiz-adv-x="674" 
d="M401 539q105 0 159.5 -70t54.5 -203q0 -130 -56.5 -203t-167.5 -73q-107 0 -163 66t-56 199v385q0 53 -19.5 69t-53.5 16h-79v35h90q56 0 78.5 -29.5t22.5 -80.5v-115q0 -24 -1 -59t-2 -60h3q19 54 68 88.5t122 34.5zM392 25q89 0 136 62.5t47 179.5q0 238 -177 238
q-91 0 -139 -57t-48 -173v-19q0 -231 181 -231z" />
    <glyph glyph-name="uni2D07" unicode="&#x2d07;" horiz-adv-x="865" 
d="M246 -10q-163 0 -163 193v347h32l5 -92h3q12 25 33 48.5t54.5 38.5t80.5 15q56 0 95 -26.5t55 -79.5h3q22 49 66.5 77.5t110.5 28.5q72 0 116.5 -44t44.5 -137v-359h-38v357q0 77 -35.5 112.5t-90.5 35.5q-75 0 -120.5 -44t-45.5 -142v-319h-31l-6 100h-1
q-17 -44 -57.5 -77t-110.5 -33zM251 25q74 0 118.5 50.5t44.5 156.5v125q0 77 -35.5 112.5t-90.5 35.5q-47 0 -84.5 -19.5t-59.5 -61t-22 -109.5v-128q0 -84 33 -123t96 -39z" />
    <glyph glyph-name="uni2D08" unicode="&#x2d08;" horiz-adv-x="419" 
d="M297 0v363q0 67 -28 99.5t-94 32.5h-155v35h158q85 0 121 -41.5t36 -124.5v-364h-38z" />
    <glyph glyph-name="uni2D09" unicode="&#x2d09;" horiz-adv-x="608" 
d="M487 -240v235q0 24 0.5 59t1.5 61h-2q-20 -54 -69 -89.5t-121 -35.5q-105 0 -159.5 70.5t-54.5 205.5v494h39v-225q0 -24 -1 -59t-2 -60h3q19 54 68.5 88.5t121.5 34.5q105 0 159 -70t54 -203v-506h-38zM300 25q91 0 139 57t48 173v12q0 238 -178 238q-91 0 -139 -57
t-48 -173v-9q0 -241 178 -241z" />
    <glyph glyph-name="uni2D0A" unicode="&#x2d0a;" horiz-adv-x="871" 
d="M582 -10q-163 0 -163 193v174q0 77 -35.5 112.5t-90.5 35.5q-47 0 -84.5 -19.5t-59 -61t-21.5 -109.5v-315h-39v530h31l6 -92h3q11 25 32 48.5t54 38.5t81 15q55 0 94.5 -26.5t55.5 -79.5h2q22 49 67 77.5t111 28.5q72 0 117 -44t45 -137v-359h-31l-6 100h-2
q-16 -44 -57 -77t-110 -33zM586 25q75 0 119 50t44 157v125q0 77 -35.5 112.5t-90.5 35.5q-75 0 -120.5 -44t-45.5 -142v-132q0 -84 33 -123t96 -39z" />
    <glyph glyph-name="uni2D0B" unicode="&#x2d0b;" horiz-adv-x="585" 
d="M282 -10q-104 0 -164 64.5t-60 202.5t61 205.5t174 67.5h170v64q0 67 -28.5 99t-93.5 32h-208v35h211q85 0 121 -41.5t36 -124.5v-340q0 -132 -57.5 -198t-161.5 -66zM282 25q88 0 134.5 57t46.5 174v239h-170q-97 0 -146 -57.5t-49 -179.5t49 -177.5t135 -55.5z" />
    <glyph glyph-name="uni2D0C" unicode="&#x2d0c;" horiz-adv-x="576" 
d="M83 0v554q0 206 212 206h181v-35h-179q-88 0 -131.5 -41t-43.5 -129v-51q0 -22 -1 -39.5t-2 -38.5h3q18 46 64 79.5t124 33.5q88 0 135.5 -46.5t47.5 -145.5v-347h-38v345q0 83 -38.5 121.5t-108.5 38.5q-86 0 -136 -50.5t-50 -157.5v-297h-39z" />
    <glyph glyph-name="uni2D0D" unicode="&#x2d0d;" horiz-adv-x="870" 
d="M245 -10q-74 0 -118 44t-44 137v359h39v-357q0 -77 36 -112.5t90 -35.5q75 0 120 43.5t45 142.5v319h39v-357q0 -77 35 -112.5t91 -35.5q47 0 84 19t59 61t22 109v316h38v-530h-31l-6 91h-2q-12 -25 -33 -48t-54 -38t-81 -15q-55 0 -94.5 26.5t-55.5 80.5h-3
q-21 -50 -65.5 -78.5t-110.5 -28.5z" />
    <glyph glyph-name="uni2D0E" unicode="&#x2d0e;" horiz-adv-x="673" 
d="M544 530h38v-530h-31l-6 103h-2q-19 -44 -64 -78.5t-124 -34.5q-183 0 -183 193v226q0 53 -19.5 69.5t-53.5 16.5h-79v35h90q56 0 78.5 -30t22.5 -80v-233q0 -84 37.5 -123t109.5 -39q85 0 135.5 50t50.5 157v298z" />
    <glyph glyph-name="uni2D0F" unicode="&#x2d0f;" horiz-adv-x="671" 
d="M544 -240v189q0 40 0.5 77.5t1.5 76.5h-3q-19 -44 -64 -78.5t-124 -34.5q-183 0 -183 193v226q0 53 -19.5 69.5t-53.5 16.5h-79v35h90q56 0 78.5 -30t22.5 -80v-233q0 -84 37.5 -123t109.5 -39q85 0 135.5 50t50.5 157v298h38v-770h-38z" />
    <glyph glyph-name="uni2D10" unicode="&#x2d10;" horiz-adv-x="865" 
d="M246 -10q-163 0 -163 193v347h39v-343q0 -84 33.5 -123t95.5 -39q74 0 118 50t44 157v528h39v-252q0 -23 -1 -40.5t-2 -37.5h3q16 43 57 76.5t110 33.5q78 0 120.5 -47t42.5 -146v-347h-39v345q0 83 -33 121.5t-95 38.5q-75 0 -119 -50.5t-44 -157.5v-297h-31l-6 100h-2
q-16 -44 -56.5 -77t-110.5 -33z" />
    <glyph glyph-name="uni2D11" unicode="&#x2d11;" horiz-adv-x="583" 
d="M266 -10q-183 0 -183 193v577h39v-573q0 -84 38 -123t109 -39q86 0 136 50.5t50 156.5v298h39v-530h-32l-6 103h-2q-19 -44 -64 -78.5t-124 -34.5z" />
    <glyph glyph-name="uni2D12" unicode="&#x2d12;" horiz-adv-x="590" 
d="M309 540q108 0 165 -76t57 -206q0 -131 -58 -199.5t-160 -68.5q-71 0 -118 30t-67 88h-3q2 -25 2 -46.5v-46.5v-48q0 -83 43 -132.5t141 -49.5q57 0 104.5 12t84.5 30v-41q-37 -15 -82 -25.5t-106 -10.5q-120 0 -171.5 59.5t-51.5 158.5v562h32l6 -96h3q23 51 67 78.5
t112 27.5zM306 505q-96 0 -137.5 -60t-41.5 -156v-43q0 -57 15.5 -107.5t55 -82t112.5 -31.5q87 0 134 59.5t47 173.5q0 116 -46.5 181.5t-138.5 65.5z" />
    <glyph glyph-name="uni2D13" unicode="&#x2d13;" horiz-adv-x="870" 
d="M743 -240v189v70t1 72h-2q-12 -25 -33 -48t-54 -38t-81 -15q-55 0 -94.5 26.5t-55.5 79.5h-3q-22 -49 -66 -77.5t-110 -28.5q-74 0 -118 44t-44 137v359h39v-357q0 -77 36 -112.5t90 -35.5q75 0 120 43.5t45 142.5v319h39v-357q0 -77 35 -112.5t91 -35.5q47 0 84 19
t59 61t22 109v546h38v-1000h-38z" />
    <glyph glyph-name="uni2D14" unicode="&#x2d14;" horiz-adv-x="911" 
d="M436 -240v226q0 28 0.5 56.5t2.5 60.5h-3q-19 -46 -61 -79.5t-106 -33.5q-102 0 -156.5 73.5t-54.5 209.5q0 129 52.5 198t152.5 69q68 0 111 -37t62 -92h2l4 119h26l4 -119h2q20 55 62.5 92t110.5 37q100 0 152.5 -69t52.5 -198q0 -136 -54.5 -209.5t-156.5 -73.5
q-64 0 -106 33.5t-61 79.5h-2q1 -32 1.5 -60.5t0.5 -56.5v-226h-38zM272 25q74 0 119 52.5t45 168.5v23q0 112 -43.5 174t-125.5 62q-169 0 -169 -232q0 -123 45.5 -185.5t128.5 -62.5zM638 25q83 0 128.5 62.5t45.5 185.5q0 232 -169 232q-82 0 -125.5 -62t-43.5 -174v-23
q0 -116 45 -168.5t119 -52.5z" />
    <glyph glyph-name="uni2D15" unicode="&#x2d15;" horiz-adv-x="424" 
d="M191 -240v735h-171v35h171v230h39v-230h173v-35h-173v-735h-39z" />
    <glyph glyph-name="uni2D16" unicode="&#x2d16;" horiz-adv-x="582" 
d="M316 540q88 0 135.5 -47t47.5 -146v-347h-39v345q0 83 -38 121.5t-109 38.5q-87 0 -136 -51.5t-49 -156.5v-297h-39v530h31l6 -104h3q19 45 64.5 79.5t122.5 34.5z" />
    <glyph glyph-name="uni2D17" unicode="&#x2d17;" horiz-adv-x="583" 
d="M455 -240v189q0 40 0.5 77t1.5 77h-3q-19 -45 -64 -79t-124 -34q-183 0 -183 193v347h39v-343q0 -84 38 -123t109 -39q86 0 136 50.5t50 156.5v298h39v-770h-39z" />
    <glyph glyph-name="uni2D18" unicode="&#x2d18;" horiz-adv-x="583" 
d="M274 -250q-54 0 -98.5 10t-73.5 24v37q35 -16 78 -26t95 -10q81 0 130.5 46.5t49.5 136.5v36v45.5t1 53.5h-2q-19 -44 -64 -78.5t-124 -34.5q-183 0 -183 193v347h39v-343q0 -84 38 -123t109 -39q86 0 136 50.5t50 156.5v298h39v-557q0 -111 -59 -167t-161 -56z" />
    <glyph glyph-name="uni2D19" unicode="&#x2d19;" horiz-adv-x="582" 
d="M89 -240v1000h39v-256q0 -22 -1 -39.5t-2 -38.5h3q17 46 63 79.5t125 33.5q87 0 135 -46.5t48 -145.5v-347h-39v345q0 83 -38 121.5t-109 38.5q-85 0 -135 -50.5t-50 -157.5v-537h-39z" />
    <glyph glyph-name="uni2D1A" unicode="&#x2d1a;" horiz-adv-x="582" 
d="M296 -250q-100 0 -153.5 56.5t-53.5 167.5v556h31l6 -104h3q18 45 63.5 79.5t123.5 34.5q88 0 135.5 -47.5t47.5 -145.5v-347h-39v345q0 83 -38 121.5t-109 38.5q-85 0 -135 -50.5t-50 -157.5v-325q0 -92 43.5 -139.5t126.5 -47.5q55 0 100 10t79 28v-37q-29 -16 -76 -26
t-105 -10z" />
    <glyph glyph-name="uni2D1B" unicode="&#x2d1b;" horiz-adv-x="901" 
d="M263 -10q-100 0 -152.5 69t-52.5 198q0 136 54.5 209.5t156.5 73.5q64 0 106 -33t61 -77h3q-2 30 -2.5 57.5t-0.5 56.5v216h38v-219q0 -28 -0.5 -61t-1.5 -51h3q16 44 59 77t113 33q81 0 126 -46.5t45 -145.5v-347h-39v345q0 83 -35.5 121.5t-100.5 38.5
q-77 0 -123 -50.5t-46 -157.5v-297h-32l-4 107h-2q-19 -46 -62 -81.5t-111 -35.5zM267 25q82 0 125.5 62t43.5 173v24q0 115 -45 168t-119 53q-83 0 -128.5 -62.5t-45.5 -186.5q0 -231 169 -231z" />
    <glyph glyph-name="uni2D1C" unicode="&#x2d1c;" horiz-adv-x="870" 
d="M89 -240v770h31l6 -92h3q11 25 32 48.5t54 38.5t81 15q55 0 94.5 -26.5t55.5 -80.5h2q22 50 67 78.5t111 28.5q72 0 116.5 -44t44.5 -137v-359h-38v357q0 77 -35.5 112.5t-90.5 35.5q-75 0 -120.5 -44t-45.5 -142v-319h-38v357q0 77 -35.5 112.5t-90.5 35.5
q-47 0 -84.5 -19.5t-59 -61t-21.5 -109.5v-555h-39z" />
    <glyph glyph-name="uni2D1D" unicode="&#x2d1d;" horiz-adv-x="577" 
d="M272 -250q-63 0 -108.5 10t-74.5 24v37q35 -16 79.5 -26t101.5 -10q84 0 133.5 30.5t49.5 82.5q0 49 -33 75.5t-117 26.5h-214v530h31l6 -104h3q19 45 64 79.5t119 34.5q91 0 139 -47t48 -146v-97h-39v95q0 83 -38.5 121.5t-112.5 38.5q-84 0 -132.5 -51.5t-48.5 -156.5
v-263h182q89 0 135.5 -33t46.5 -103q0 -66 -59 -107t-161 -41z" />
    <glyph glyph-name="uni2D1E" unicode="&#x2d1e;" horiz-adv-x="582" 
d="M305 -250q-99 0 -157.5 56t-58.5 165v559h39v-297q0 -107 50 -157.5t135 -50.5q72 0 109.5 39.5t37.5 122.5v343h39v-346q0 -194 -183 -194q-78 0 -123.5 34.5t-63.5 78.5h-3q1 -27 1.5 -57t0.5 -77q0 -93 49 -138.5t129 -45.5q51 0 94.5 10t78.5 26v-37
q-29 -14 -73.5 -24t-100.5 -10z" />
    <glyph glyph-name="uni2D1F" unicode="&#x2d1f;" horiz-adv-x="542" 
d="M-56 -240l330 490l-172 246h-81v34h482v-26l-182 -254l177 -250h-46l-155 222l-306 -462h-47zM298 277l154 219h-305z" />
    <glyph glyph-name="uni2D20" unicode="&#x2d20;" horiz-adv-x="903" 
d="M601 -10q-169 0 -169 193v162q0 83 -34.5 121.5t-99.5 38.5q-75 0 -122.5 -48t-47.5 -152v-305h-39v530h31l7 -94h2q18 41 59.5 72.5t113.5 31.5q81 0 124.5 -47.5t43.5 -145.5v-160q0 -84 34.5 -123t100.5 -39q78 0 124 53t46 154v298h39v-530h-31l-6 102h-3
q-12 -28 -33.5 -53.5t-56 -42t-83.5 -16.5z" />
    <glyph glyph-name="uni2D21" unicode="&#x2d21;" horiz-adv-x="536" 
d="M89 -240v1000h39v-323h2q8 25 28 48t49 38t66 15q62 0 94 -31.5t32 -105.5q0 -55 20 -77.5t62 -22.5h34v-35h-39q-62 0 -89 31.5t-27 88.5q0 61 -20.5 89t-74.5 28q-36 0 -67.5 -20.5t-50.5 -61t-19 -101.5v-560h-39z" />
    <glyph glyph-name="uni2D22" unicode="&#x2d22;" horiz-adv-x="581" 
d="M287 -10q-108 0 -168.5 55.5t-60.5 144.5q0 16 2 32.5t6 33.5h40q-7 -31 -7 -62q0 -79 48.5 -124t139.5 -45q68 0 111 31.5t63.5 87t20.5 125.5q0 111 -59 168.5t-170 57.5h-170v35h170q140 0 204.5 -70.5t64.5 -190.5q0 -80 -26 -143.5t-78 -99.5t-131 -36z" />
    <glyph glyph-name="uni2D23" unicode="&#x2d23;" horiz-adv-x="583" 
d="M455 -240v189v77.5t1 76.5h-2q-19 -44 -64 -78.5t-124 -34.5q-183 0 -183 193v347h39v-343q0 -84 38 -123t109 -39q86 0 136 50.5t50 156.5v528h39v-1000h-39z" />
    <glyph glyph-name="uni2D24" unicode="&#x2d24;" horiz-adv-x="581" 
d="M272 -240v231q-96 5 -142.5 58.5t-46.5 142.5v338h39v-337q0 -81 42 -124.5t127 -43.5t127 43.5t42 124.5v337h38v-338q0 -89 -46 -142.5t-142 -58.5v-231h-38z" />
    <glyph glyph-name="uni2D25" unicode="&#x2d25;" horiz-adv-x="901" 
d="M647 539q81 0 126 -46.5t45 -145.5v-347h-39v345q0 83 -35.5 121.5t-100.5 38.5q-77 0 -123 -50.5t-46 -157.5v-297h-32l-4 107h-2q-19 -46 -62 -81.5t-111 -35.5q-100 0 -152.5 69t-52.5 198q0 136 54.5 209.5t156.5 73.5q64 0 106 -33t61 -77h3q-2 30 -2.5 57.5
t-0.5 56.5v14q0 202 212 202h145v-35h-144q-87 0 -131 -41t-44 -127v-16q0 -28 -0.5 -61t-1.5 -51h3q16 44 59 77t113 33zM436 260v24q0 115 -45 168t-119 53q-83 0 -128.5 -62.5t-45.5 -186.5q0 -231 169 -231q82 0 125.5 62t43.5 173z" />
    <glyph glyph-name="uni2D27" unicode="&#x2d27;" horiz-adv-x="508" 
d="M249 -250q-57 0 -101 24t-69.5 69t-25.5 107q0 65 23.5 109.5t64.5 76.5t92 61q47 26 82 50.5t55 54.5t20 75q0 60 -35.5 94t-101.5 34q-68 0 -105 -36t-37 -92q0 -7 1 -16.5t2 -15.5h-39q-1 6 -2 16t-1 17q0 71 48.5 116.5t132.5 45.5t130.5 -43.5t46.5 -119.5
q0 -54 -21.5 -89.5t-62.5 -64t-98 -60.5q-45 -25 -79.5 -53t-55 -66t-20.5 -93q0 -76 43.5 -121t112.5 -45q76 0 120.5 43.5t44.5 122.5q0 28 -3 44t-8 29h41q4 -12 7 -28.5t3 -44.5q0 -99 -57 -150t-148 -51z" />
    <glyph glyph-name="uni2D2D" unicode="&#x2d2d;" horiz-adv-x="459" 
d="M416 0h-375v25l326 471h-301v34h351v-26l-327 -470h326v-34z" />
    <glyph glyph-name="macroncomb" horiz-adv-x="600" 
d="M94 0v714h411v-714h-411zM145 51h309v612h-309v-612z" />
    <glyph glyph-name="uni1C90_uni0308.ccmp" horiz-adv-x="578" 
d="M288 -10q-107 0 -168.5 62t-61.5 168q0 30 4.5 64t17.5 68h-17l20 9v-1t-3 -8h40q-12 -33 -16.5 -67.5t-4.5 -62.5q0 -91 50.5 -143.5t138.5 -52.5q63 0 104 28.5t61 76.5t20 106t-16 102.5t-40.5 80t-51.5 67.5q-27 33 -50.5 66.5t-37 72t-9.5 88.5h39q-3 -45 10 -80.5
t36 -67t49 -62.5q27 -34 52.5 -72t42.5 -85.5t17 -110.5q0 -69 -25 -124.5t-75 -88.5t-126 -33zM123 361l14 -9h-17q2 5 3 9zM162 843q0 15 6.5 25t21.5 10q17 0 23 -10t6 -25t-6 -24.5t-23 -9.5q-15 0 -21.5 9.5t-6.5 24.5zM348 843q0 15 6.5 25t20.5 10q17 0 23.5 -10
t6.5 -25t-6.5 -24.5t-23.5 -9.5q-14 0 -20.5 9.5t-6.5 24.5z" />
    <glyph glyph-name="uni1C90_acutecomb.ccmp" horiz-adv-x="578" 
d="M288 -10q-107 0 -168.5 62t-61.5 168q0 30 4.5 64t17.5 68h-17l20 9v-1t-3 -8h40q-12 -33 -16.5 -67.5t-4.5 -62.5q0 -91 50.5 -143.5t138.5 -52.5q63 0 104 28.5t61 76.5t20 106t-16 102.5t-40.5 80t-51.5 67.5q-27 33 -50.5 66.5t-37 72t-9.5 88.5h39q-3 -45 10 -80.5
t36 -67t49 -62.5q27 -34 52.5 -72t42.5 -85.5t17 -110.5q0 -69 -25 -124.5t-75 -88.5t-126 -33zM123 361l14 -9h-17q2 5 3 9zM391 950v-8q-16 -21 -40.5 -48.5t-52.5 -55t-54 -48.5h-28v7q21 20 46 47.5t47.5 55.5t36.5 50h45z" />
    <glyph glyph-name="uni1C90_uni0304.ccmp" horiz-adv-x="578" 
d="M288 -10q-107 0 -168.5 62t-61.5 168q0 30 4.5 64t17.5 68h-17l20 9v-1t-3 -8h40q-12 -33 -16.5 -67.5t-4.5 -62.5q0 -91 50.5 -143.5t138.5 -52.5q63 0 104 28.5t61 76.5t20 106t-16 102.5t-40.5 80t-51.5 67.5q-27 33 -50.5 66.5t-37 72t-9.5 88.5h39q-3 -45 10 -80.5
t36 -67t49 -62.5q27 -34 52.5 -72t42.5 -85.5t17 -110.5q0 -69 -25 -124.5t-75 -88.5t-126 -33zM123 361l14 -9h-17q2 5 3 9zM415 840v-34h-263v34h263z" />
    <glyph glyph-name="uni1C90_uni0304_uni0308.ccmp" horiz-adv-x="578" 
d="M288 -10q-107 0 -168.5 62t-61.5 168q0 30 4.5 64t17.5 68h-17l20 9v-1t-3 -8h40q-12 -33 -16.5 -67.5t-4.5 -62.5q0 -91 50.5 -143.5t138.5 -52.5q63 0 104 28.5t61 76.5t20 106t-16 102.5t-40.5 80t-51.5 67.5q-27 33 -50.5 66.5t-37 72t-9.5 88.5h39q-3 -45 10 -80.5
t36 -67t49 -62.5q27 -34 52.5 -72t42.5 -85.5t17 -110.5q0 -69 -25 -124.5t-75 -88.5t-126 -33zM123 361l14 -9h-17q2 5 3 9zM415 840v-34h-263v34h263zM162 970q0 15 6.5 25t21.5 10q17 0 23 -10t6 -25t-6 -24.5t-23 -9.5q-15 0 -21.5 9.5t-6.5 24.5zM348 970q0 15 6.5 25
t20.5 10q17 0 23.5 -10t6.5 -25t-6.5 -24.5t-23.5 -9.5q-14 0 -20.5 9.5t-6.5 24.5z" />
    <glyph glyph-name="uni1C94_acutecomb.ccmp" horiz-adv-x="604" 
d="M287 -10q-106 0 -167.5 56t-61.5 156q0 29 4 51.5t10 39.5h39q-5 -16 -9 -39t-4 -50q0 -84 50.5 -131t138.5 -47q66 0 106.5 26t60 71.5t19.5 103.5v283q0 82 -45 130t-130 48q-80 0 -125.5 -41t-45.5 -110q0 -23 2.5 -41.5t5.5 -35.5h-39q-4 17 -6 36t-2 41
q0 84 56 135.5t154 51.5q105 0 159.5 -59t54.5 -154v-285q0 -69 -23.5 -122t-73 -83.5t-128.5 -30.5zM402 950v-8q-16 -21 -40.5 -48.5t-52.5 -55t-54 -48.5h-28v7q21 20 46 47.5t47.5 55.5t36.5 50h45z" />
    <glyph glyph-name="uni1C94_uni0304.ccmp" horiz-adv-x="604" 
d="M287 -10q-106 0 -167.5 56t-61.5 156q0 29 4 51.5t10 39.5h39q-5 -16 -9 -39t-4 -50q0 -84 50.5 -131t138.5 -47q66 0 106.5 26t60 71.5t19.5 103.5v283q0 82 -45 130t-130 48q-80 0 -125.5 -41t-45.5 -110q0 -23 2.5 -41.5t5.5 -35.5h-39q-4 17 -6 36t-2 41
q0 84 56 135.5t154 51.5q105 0 159.5 -59t54.5 -154v-285q0 -69 -23.5 -122t-73 -83.5t-128.5 -30.5zM426 840v-34h-263v34h263z" />
    <glyph glyph-name="uni1C98_acutecomb.ccmp" horiz-adv-x="612" 
d="M142 0q-30 74 -51 169t-21 235q0 112 30 182.5t83.5 104t122.5 33.5t122.5 -33.5t83.5 -104t30 -182.5q0 -140 -20.5 -235t-51.5 -169h-40q31 77 51 172t20 231q0 101 -24.5 164t-68.5 92t-102 29t-102 -29t-68.5 -92t-24.5 -164q0 -136 20.5 -231t50.5 -172h-40z
M413 952v-8q-16 -21 -40.5 -48.5t-52.5 -55t-54 -48.5h-28v7q21 20 46 47.5t47.5 55.5t36.5 50h45z" />
    <glyph glyph-name="uni1C98_uni0304.ccmp" horiz-adv-x="612" 
d="M142 0q-30 74 -51 169t-21 235q0 112 30 182.5t83.5 104t122.5 33.5t122.5 -33.5t83.5 -104t30 -182.5q0 -140 -20.5 -235t-51.5 -169h-40q31 77 51 172t20 231q0 101 -24.5 164t-68.5 92t-102 29t-102 -29t-68.5 -92t-24.5 -164q0 -136 20.5 -231t50.5 -172h-40z
M437 842v-34h-263v34h263z" />
    <glyph glyph-name="uni1C9D_uni0308.ccmp" horiz-adv-x="878" 
d="M158 0q-42 89 -65 188.5t-23 227.5q0 110 28.5 178t74.5 99t100 31q31 0 65.5 -11.5t62 -41.5t37.5 -85h2q10 53 38 83t62 42.5t64 12.5q55 0 101.5 -31t74.5 -98.5t28 -178.5q0 -130 -23 -228.5t-65 -187.5h-42q43 92 66 190t23 225q0 100 -23 160t-60.5 86.5
t-82.5 26.5q-34 0 -66.5 -18t-53.5 -60.5t-21 -116.5v-284h-41v284q0 74 -21.5 116.5t-54.5 60.5t-67 18q-44 0 -81.5 -26.5t-60.5 -86.5t-23 -160q0 -125 23 -224t66 -191h-42zM317 843q0 15 6.5 25t21.5 10q17 0 23 -10t6 -25t-6 -24.5t-23 -9.5q-15 0 -21.5 9.5
t-6.5 24.5zM503 843q0 15 6.5 25t20.5 10q17 0 23.5 -10t6.5 -25t-6.5 -24.5t-23.5 -9.5q-14 0 -20.5 9.5t-6.5 24.5z" />
    <glyph glyph-name="uni1C9D_acutecomb.ccmp" horiz-adv-x="878" 
d="M158 0q-42 89 -65 188.5t-23 227.5q0 110 28.5 178t74.5 99t100 31q31 0 65.5 -11.5t62 -41.5t37.5 -85h2q10 53 38 83t62 42.5t64 12.5q55 0 101.5 -31t74.5 -98.5t28 -178.5q0 -130 -23 -228.5t-65 -187.5h-42q43 92 66 190t23 225q0 100 -23 160t-60.5 86.5
t-82.5 26.5q-34 0 -66.5 -18t-53.5 -60.5t-21 -116.5v-284h-41v284q0 74 -21.5 116.5t-54.5 60.5t-67 18q-44 0 -81.5 -26.5t-60.5 -86.5t-23 -160q0 -125 23 -224t66 -191h-42zM546 950v-8q-16 -21 -40.5 -48.5t-52.5 -55t-54 -48.5h-28v7q21 20 46 47.5t47.5 55.5t36.5 50
h45z" />
    <glyph glyph-name="uni1C9D_uni0304.ccmp" horiz-adv-x="878" 
d="M158 0q-42 89 -65 188.5t-23 227.5q0 110 28.5 178t74.5 99t100 31q31 0 65.5 -11.5t62 -41.5t37.5 -85h2q10 53 38 83t62 42.5t64 12.5q55 0 101.5 -31t74.5 -98.5t28 -178.5q0 -130 -23 -228.5t-65 -187.5h-42q43 92 66 190t23 225q0 100 -23 160t-60.5 86.5
t-82.5 26.5q-34 0 -66.5 -18t-53.5 -60.5t-21 -116.5v-284h-41v284q0 74 -21.5 116.5t-54.5 60.5t-67 18q-44 0 -81.5 -26.5t-60.5 -86.5t-23 -160q0 -125 23 -224t66 -191h-42zM570 840v-34h-263v34h263z" />
    <glyph glyph-name="uni1C9D_uni0304_uni0308.ccmp" horiz-adv-x="878" 
d="M158 0q-42 89 -65 188.5t-23 227.5q0 110 28.5 178t74.5 99t100 31q31 0 65.5 -11.5t62 -41.5t37.5 -85h2q10 53 38 83t62 42.5t64 12.5q55 0 101.5 -31t74.5 -98.5t28 -178.5q0 -130 -23 -228.5t-65 -187.5h-42q43 92 66 190t23 225q0 100 -23 160t-60.5 86.5
t-82.5 26.5q-34 0 -66.5 -18t-53.5 -60.5t-21 -116.5v-284h-41v284q0 74 -21.5 116.5t-54.5 60.5t-67 18q-44 0 -81.5 -26.5t-60.5 -86.5t-23 -160q0 -125 23 -224t66 -191h-42zM570 840v-34h-263v34h263zM317 970q0 15 6.5 25t21.5 10q17 0 23 -10t6 -25t-6 -24.5t-23 -9.5
q-15 0 -21.5 9.5t-6.5 24.5zM503 970q0 15 6.5 25t20.5 10q17 0 23.5 -10t6.5 -25t-6.5 -24.5t-23.5 -9.5q-14 0 -20.5 9.5t-6.5 24.5z" />
    <glyph glyph-name="uni1CA3_uni0308.ccmp" 
d="M293 -10q-107 0 -168 56t-61 156q0 29 4 51.5t10 39.5h38q-5 -16 -9 -39t-4 -50q0 -84 51 -131t139 -47q65 0 106 26t60 71.5t19 103.5v339q0 57 -28 90t-86 33q-52 0 -80 -34.5t-28 -87.5v-118h-39v118q0 52 -25.5 84.5t-85.5 32.5h-53v35h53q107 0 130 -88h2
q11 44 45.5 68.5t82.5 24.5q72 0 111.5 -40.5t39.5 -114.5v-343q0 -69 -23.5 -122t-73 -83.5t-127.5 -30.5zM176 843q0 15 6.5 25t21.5 10q17 0 23 -10t6 -25t-6 -24.5t-23 -9.5q-15 0 -21.5 9.5t-6.5 24.5zM362 843q0 15 6.5 25t20.5 10q17 0 23.5 -10t6.5 -25t-6.5 -24.5
t-23.5 -9.5q-14 0 -20.5 9.5t-6.5 24.5z" />
    <glyph glyph-name="uni1CA3_acutecomb.ccmp" 
d="M293 -10q-107 0 -168 56t-61 156q0 29 4 51.5t10 39.5h38q-5 -16 -9 -39t-4 -50q0 -84 51 -131t139 -47q65 0 106 26t60 71.5t19 103.5v339q0 57 -28 90t-86 33q-52 0 -80 -34.5t-28 -87.5v-118h-39v118q0 52 -25.5 84.5t-85.5 32.5h-53v35h53q107 0 130 -88h2
q11 44 45.5 68.5t82.5 24.5q72 0 111.5 -40.5t39.5 -114.5v-343q0 -69 -23.5 -122t-73 -83.5t-127.5 -30.5zM405 950v-8q-16 -21 -40.5 -48.5t-52.5 -55t-54 -48.5h-28v7q21 20 46 47.5t47.5 55.5t36.5 50h45z" />
    <glyph glyph-name="uni1CA3_uni0302.ccmp" 
d="M293 -10q-107 0 -168 56t-61 156q0 29 4 51.5t10 39.5h38q-5 -16 -9 -39t-4 -50q0 -84 51 -131t139 -47q65 0 106 26t60 71.5t19 103.5v339q0 57 -28 90t-86 33q-52 0 -80 -34.5t-28 -87.5v-118h-39v118q0 52 -25.5 84.5t-85.5 32.5h-53v35h53q107 0 130 -88h2
q11 44 45.5 68.5t82.5 24.5q72 0 111.5 -40.5t39.5 -114.5v-343q0 -69 -23.5 -122t-73 -83.5t-127.5 -30.5zM317 948q12 -21 32 -48.5t42.5 -55t41.5 -47.5v-7h-30q-27 25 -54.5 57.5t-50.5 60.5q-22 -28 -50 -60.5t-56 -57.5h-29v7q19 20 41.5 47.5t43 55t33.5 48.5h36z
" />
    <glyph glyph-name="uni1CA3_uni0304.ccmp" 
d="M293 -10q-107 0 -168 56t-61 156q0 29 4 51.5t10 39.5h38q-5 -16 -9 -39t-4 -50q0 -84 51 -131t139 -47q65 0 106 26t60 71.5t19 103.5v339q0 57 -28 90t-86 33q-52 0 -80 -34.5t-28 -87.5v-118h-39v118q0 52 -25.5 84.5t-85.5 32.5h-53v35h53q107 0 130 -88h2
q11 44 45.5 68.5t82.5 24.5q72 0 111.5 -40.5t39.5 -114.5v-343q0 -69 -23.5 -122t-73 -83.5t-127.5 -30.5zM429 840v-34h-263v34h263z" />
    <glyph glyph-name="uni1CA3_uni0304_uni0308.ccmp" 
d="M293 -10q-107 0 -168 56t-61 156q0 29 4 51.5t10 39.5h38q-5 -16 -9 -39t-4 -50q0 -84 51 -131t139 -47q65 0 106 26t60 71.5t19 103.5v339q0 57 -28 90t-86 33q-52 0 -80 -34.5t-28 -87.5v-118h-39v118q0 52 -25.5 84.5t-85.5 32.5h-53v35h53q107 0 130 -88h2
q11 44 45.5 68.5t82.5 24.5q72 0 111.5 -40.5t39.5 -114.5v-343q0 -69 -23.5 -122t-73 -83.5t-127.5 -30.5zM429 840v-34h-263v34h263zM176 970q0 15 6.5 25t21.5 10q17 0 23 -10t6 -25t-6 -24.5t-23 -9.5q-15 0 -21.5 9.5t-6.5 24.5zM362 970q0 15 6.5 25t20.5 10
q17 0 23.5 -10t6.5 -25t-6.5 -24.5t-23.5 -9.5q-14 0 -20.5 9.5t-6.5 24.5z" />
    <glyph glyph-name="uni1CB7_acutecomb.ccmp" horiz-adv-x="554" 
d="M273 -9q-96 0 -155.5 50.5t-59.5 137.5q0 51 16.5 85.5t44.5 57t62 37.5t70 27q45 16 86 35t67 50.5t26 84.5q0 66 -44.5 99t-111.5 33q-76 0 -116 -34.5t-40 -89.5q0 -8 0.5 -17.5t1.5 -15.5h-39q-1 9 -2 18.5t-1 15.5q0 70 52 114.5t144 44.5q57 0 101.5 -19t70 -56.5
t25.5 -92.5q0 -47 -17.5 -80t-46.5 -55.5t-64.5 -38t-72.5 -28.5q-44 -16 -83 -35t-63.5 -51.5t-24.5 -87.5q0 -70 47 -112t127 -42q87 0 134.5 40.5t47.5 113.5q0 14 -1.5 25t-3.5 19h40q2 -9 3.5 -20t1.5 -24q0 -93 -60 -141t-162 -48zM384 950v-8q-16 -21 -40.5 -48.5
t-52.5 -55t-54 -48.5h-28v7q21 20 46 47.5t47.5 55.5t36.5 50h45z" />
    <glyph glyph-name="uni1CB7_uni0304.ccmp" horiz-adv-x="554" 
d="M273 -9q-96 0 -155.5 50.5t-59.5 137.5q0 51 16.5 85.5t44.5 57t62 37.5t70 27q45 16 86 35t67 50.5t26 84.5q0 66 -44.5 99t-111.5 33q-76 0 -116 -34.5t-40 -89.5q0 -8 0.5 -17.5t1.5 -15.5h-39q-1 9 -2 18.5t-1 15.5q0 70 52 114.5t144 44.5q57 0 101.5 -19t70 -56.5
t25.5 -92.5q0 -47 -17.5 -80t-46.5 -55.5t-64.5 -38t-72.5 -28.5q-44 -16 -83 -35t-63.5 -51.5t-24.5 -87.5q0 -70 47 -112t127 -42q87 0 134.5 40.5t47.5 113.5q0 14 -1.5 25t-3.5 19h40q2 -9 3.5 -20t1.5 -24q0 -93 -60 -141t-162 -48zM408 840v-34h-263v34h263z" />
    <glyph glyph-name="uni10D0_uni0308.ccmp" horiz-adv-x="526" 
d="M258 -10q-64 0 -110 25t-70.5 68t-24.5 98q0 25 4 44t8 29h37q-2 -10 -5.5 -28.5t-3.5 -44.5q0 -68 43.5 -112t121.5 -44q88 0 129 48t41 121q0 57 -26.5 94.5t-59.5 69.5q-25 24 -49 48.5t-39.5 54t-15.5 69.5h39q0 -44 27.5 -78t62.5 -67q25 -24 48 -51.5t38 -61.5
t15 -78q0 -56 -23 -102t-69 -74t-118 -28zM141 659q0 15 6.5 25t21.5 10q17 0 23 -10t6 -25t-6 -24.5t-23 -9.5q-15 0 -21.5 9.5t-6.5 24.5zM327 659q0 15 6.5 25t20.5 10q17 0 23.5 -10t6.5 -25t-6.5 -24.5t-23.5 -9.5q-14 0 -20.5 9.5t-6.5 24.5z" />
    <glyph glyph-name="uni10D0_acutecomb.ccmp" horiz-adv-x="526" 
d="M258 -10q-64 0 -110 25t-70.5 68t-24.5 98q0 25 4 44t8 29h37q-2 -10 -5.5 -28.5t-3.5 -44.5q0 -68 43.5 -112t121.5 -44q88 0 129 48t41 121q0 57 -26.5 94.5t-59.5 69.5q-25 24 -49 48.5t-39.5 54t-15.5 69.5h39q0 -44 27.5 -78t62.5 -67q25 -24 48 -51.5t38 -61.5
t15 -78q0 -56 -23 -102t-69 -74t-118 -28zM370 766v-8q-16 -21 -40.5 -48.5t-52.5 -55t-54 -48.5h-28v7q21 20 46 47.5t47.5 55.5t36.5 50h45z" />
    <glyph glyph-name="uni10D0_uni0304.ccmp" horiz-adv-x="526" 
d="M258 -10q-64 0 -110 25t-70.5 68t-24.5 98q0 25 4 44t8 29h37q-2 -10 -5.5 -28.5t-3.5 -44.5q0 -68 43.5 -112t121.5 -44q88 0 129 48t41 121q0 57 -26.5 94.5t-59.5 69.5q-25 24 -49 48.5t-39.5 54t-15.5 69.5h39q0 -44 27.5 -78t62.5 -67q25 -24 48 -51.5t38 -61.5
t15 -78q0 -56 -23 -102t-69 -74t-118 -28zM394 656v-34h-263v34h263z" />
    <glyph glyph-name="uni10D0_uni0304_uni0308.ccmp" horiz-adv-x="526" 
d="M258 -10q-64 0 -110 25t-70.5 68t-24.5 98q0 25 4 44t8 29h37q-2 -10 -5.5 -28.5t-3.5 -44.5q0 -68 43.5 -112t121.5 -44q88 0 129 48t41 121q0 57 -26.5 94.5t-59.5 69.5q-25 24 -49 48.5t-39.5 54t-15.5 69.5h39q0 -44 27.5 -78t62.5 -67q25 -24 48 -51.5t38 -61.5
t15 -78q0 -56 -23 -102t-69 -74t-118 -28zM394 656v-34h-263v34h263zM141 785q0 15 6.5 25t21.5 10q17 0 23 -10t6 -25t-6 -24.5t-23 -9.5q-15 0 -21.5 9.5t-6.5 24.5zM327 785q0 15 6.5 25t20.5 10q17 0 23.5 -10t6.5 -25t-6.5 -24.5t-23.5 -9.5q-14 0 -20.5 9.5t-6.5 24.5
z" />
    <glyph glyph-name="uni10D4_acutecomb.ccmp" horiz-adv-x="572" 
d="M274 -250q-103 0 -162 58.5t-59 168.5q0 33 6 57t14 42h37q-8 -19 -13 -43.5t-5 -53.5q0 -95 48.5 -144.5t133.5 -49.5q63 0 102 28.5t57 78t18 112.5v305q0 91 -41 143.5t-129 52.5q-75 0 -118 -44t-43 -112q0 -27 3.5 -45.5t6.5 -27.5h-37q-4 10 -8 29t-4 44
q0 55 24.5 98t69 68t106.5 25q107 0 157.5 -63.5t50.5 -166.5v-306q0 -75 -22 -132t-69.5 -89.5t-123.5 -32.5zM393 766v-8q-16 -21 -40.5 -48.5t-52.5 -55t-54 -48.5h-28v7q21 20 46 47.5t47.5 55.5t36.5 50h45z" />
    <glyph glyph-name="uni10D4_uni0304.ccmp" horiz-adv-x="572" 
d="M274 -250q-103 0 -162 58.5t-59 168.5q0 33 6 57t14 42h37q-8 -19 -13 -43.5t-5 -53.5q0 -95 48.5 -144.5t133.5 -49.5q63 0 102 28.5t57 78t18 112.5v305q0 91 -41 143.5t-129 52.5q-75 0 -118 -44t-43 -112q0 -27 3.5 -45.5t6.5 -27.5h-37q-4 10 -8 29t-4 44
q0 55 24.5 98t69 68t106.5 25q107 0 157.5 -63.5t50.5 -166.5v-306q0 -75 -22 -132t-69.5 -89.5t-123.5 -32.5zM417 656v-34h-263v34h263z" />
    <glyph glyph-name="uni10D8_acutecomb.ccmp" horiz-adv-x="541" 
d="M122 0q-31 67 -47.5 132.5t-16.5 152.5q0 122 55.5 188.5t156.5 66.5q104 0 158 -66.5t54 -188.5q0 -85 -16.5 -152.5t-46.5 -132.5h-40q31 68 47.5 135t16.5 150q0 107 -44 163.5t-129 56.5q-82 0 -127 -56.5t-45 -163.5q0 -83 16 -149.5t47 -135.5h-39zM377 766v-8
q-16 -21 -40.5 -48.5t-52.5 -55t-54 -48.5h-28v7q21 20 46 47.5t47.5 55.5t36.5 50h45z" />
    <glyph glyph-name="uni10D8_uni0304.ccmp" horiz-adv-x="541" 
d="M122 0q-31 67 -47.5 132.5t-16.5 152.5q0 122 55.5 188.5t156.5 66.5q104 0 158 -66.5t54 -188.5q0 -85 -16.5 -152.5t-46.5 -132.5h-40q31 68 47.5 135t16.5 150q0 107 -44 163.5t-129 56.5q-82 0 -127 -56.5t-45 -163.5q0 -83 16 -149.5t47 -135.5h-39zM401 656v-34
h-263v34h263z" />
    <glyph glyph-name="uni10DD_uni0308.ccmp" horiz-adv-x="767" 
d="M122 0q-31 67 -47.5 132.5t-16.5 152.5q0 124 47 189.5t134 65.5q57 0 95 -31t48 -85h3q11 54 48.5 85t96.5 31q86 0 132 -65.5t46 -189.5q0 -85 -16.5 -152.5t-46.5 -132.5h-40q31 68 47.5 135t16.5 150q0 109 -34.5 164.5t-108.5 55.5q-66 0 -94.5 -42.5t-28.5 -116.5
v-158h-38v158q0 73 -30 116t-93 43q-144 0 -144 -220q0 -83 16 -149.5t47 -135.5h-39zM262 659q0 15 6.5 25t21.5 10q17 0 23 -10t6 -25t-6 -24.5t-23 -9.5q-15 0 -21.5 9.5t-6.5 24.5zM448 659q0 15 6.5 25t20.5 10q17 0 23.5 -10t6.5 -25t-6.5 -24.5t-23.5 -9.5
q-14 0 -20.5 9.5t-6.5 24.5z" />
    <glyph glyph-name="uni10DD_acutecomb.ccmp" horiz-adv-x="767" 
d="M122 0q-31 67 -47.5 132.5t-16.5 152.5q0 124 47 189.5t134 65.5q57 0 95 -31t48 -85h3q11 54 48.5 85t96.5 31q86 0 132 -65.5t46 -189.5q0 -85 -16.5 -152.5t-46.5 -132.5h-40q31 68 47.5 135t16.5 150q0 109 -34.5 164.5t-108.5 55.5q-66 0 -94.5 -42.5t-28.5 -116.5
v-158h-38v158q0 73 -30 116t-93 43q-144 0 -144 -220q0 -83 16 -149.5t47 -135.5h-39zM490 766v-8q-16 -21 -40.5 -48.5t-52.5 -55t-54 -48.5h-28v7q21 20 46 47.5t47.5 55.5t36.5 50h45z" />
    <glyph glyph-name="uni10DD_uni0304.ccmp" horiz-adv-x="767" 
d="M122 0q-31 67 -47.5 132.5t-16.5 152.5q0 124 47 189.5t134 65.5q57 0 95 -31t48 -85h3q11 54 48.5 85t96.5 31q86 0 132 -65.5t46 -189.5q0 -85 -16.5 -152.5t-46.5 -132.5h-40q31 68 47.5 135t16.5 150q0 109 -34.5 164.5t-108.5 55.5q-66 0 -94.5 -42.5t-28.5 -116.5
v-158h-38v158q0 73 -30 116t-93 43q-144 0 -144 -220q0 -83 16 -149.5t47 -135.5h-39zM515 656v-34h-263v34h263z" />
    <glyph glyph-name="uni10DD_uni0304_uni0308.ccmp" horiz-adv-x="767" 
d="M122 0q-31 67 -47.5 132.5t-16.5 152.5q0 124 47 189.5t134 65.5q57 0 95 -31t48 -85h3q11 54 48.5 85t96.5 31q86 0 132 -65.5t46 -189.5q0 -85 -16.5 -152.5t-46.5 -132.5h-40q31 68 47.5 135t16.5 150q0 109 -34.5 164.5t-108.5 55.5q-66 0 -94.5 -42.5t-28.5 -116.5
v-158h-38v158q0 73 -30 116t-93 43q-144 0 -144 -220q0 -83 16 -149.5t47 -135.5h-39zM515 656v-34h-263v34h263zM262 785q0 15 6.5 25t21.5 10q17 0 23 -10t6 -25t-6 -24.5t-23 -9.5q-15 0 -21.5 9.5t-6.5 24.5zM448 785q0 15 6.5 25t20.5 10q17 0 23.5 -10t6.5 -25
t-6.5 -24.5t-23.5 -9.5q-14 0 -20.5 9.5t-6.5 24.5z" />
    <glyph glyph-name="uni10E3_uni0308.ccmp" horiz-adv-x="580" 
d="M282 -250q-104 0 -163.5 58.5t-59.5 168.5q0 33 6 57t14 42h37q-8 -19 -13 -43.5t-5 -53.5q0 -95 49 -144.5t135 -49.5q63 0 102 28.5t57 78t18 112.5v367q0 62 -26.5 98t-81.5 36q-51 0 -78.5 -37.5t-27.5 -96.5v-127h-37v127q0 58 -24.5 93.5t-82.5 35.5h-53v35h53
q55 0 85 -24t40 -71h3q10 47 43.5 73.5t81.5 26.5q68 0 105.5 -43.5t37.5 -122.5v-370q0 -75 -22 -132t-69.5 -89.5t-123.5 -32.5zM165 659q0 15 6.5 25t21.5 10q17 0 23 -10t6 -25t-6 -24.5t-23 -9.5q-15 0 -21.5 9.5t-6.5 24.5zM351 659q0 15 6.5 25t20.5 10
q17 0 23.5 -10t6.5 -25t-6.5 -24.5t-23.5 -9.5q-14 0 -20.5 9.5t-6.5 24.5z" />
    <glyph glyph-name="uni10E3_acutecomb.ccmp" horiz-adv-x="580" 
d="M282 -250q-104 0 -163.5 58.5t-59.5 168.5q0 33 6 57t14 42h37q-8 -19 -13 -43.5t-5 -53.5q0 -95 49 -144.5t135 -49.5q63 0 102 28.5t57 78t18 112.5v367q0 62 -26.5 98t-81.5 36q-51 0 -78.5 -37.5t-27.5 -96.5v-127h-37v127q0 58 -24.5 93.5t-82.5 35.5h-53v35h53
q55 0 85 -24t40 -71h3q10 47 43.5 73.5t81.5 26.5q68 0 105.5 -43.5t37.5 -122.5v-370q0 -75 -22 -132t-69.5 -89.5t-123.5 -32.5zM393 766v-8q-16 -21 -40.5 -48.5t-52.5 -55t-54 -48.5h-28v7q21 20 46 47.5t47.5 55.5t36.5 50h45z" />
    <glyph glyph-name="uni10E3_uni0302.ccmp" horiz-adv-x="580" 
d="M282 -250q-104 0 -163.5 58.5t-59.5 168.5q0 33 6 57t14 42h37q-8 -19 -13 -43.5t-5 -53.5q0 -95 49 -144.5t135 -49.5q63 0 102 28.5t57 78t18 112.5v367q0 62 -26.5 98t-81.5 36q-51 0 -78.5 -37.5t-27.5 -96.5v-127h-37v127q0 58 -24.5 93.5t-82.5 35.5h-53v35h53
q55 0 85 -24t40 -71h3q10 47 43.5 73.5t81.5 26.5q68 0 105.5 -43.5t37.5 -122.5v-370q0 -75 -22 -132t-69.5 -89.5t-123.5 -32.5zM306 764q12 -21 32 -48.5t42.5 -55t41.5 -47.5v-7h-30q-27 25 -54.5 57.5t-50.5 60.5q-22 -28 -50 -60.5t-56 -57.5h-29v7q19 20 41.5 47.5
t43 55t33.5 48.5h36z" />
    <glyph glyph-name="uni10E3_uni0304.ccmp" horiz-adv-x="580" 
d="M282 -250q-104 0 -163.5 58.5t-59.5 168.5q0 33 6 57t14 42h37q-8 -19 -13 -43.5t-5 -53.5q0 -95 49 -144.5t135 -49.5q63 0 102 28.5t57 78t18 112.5v367q0 62 -26.5 98t-81.5 36q-51 0 -78.5 -37.5t-27.5 -96.5v-127h-37v127q0 58 -24.5 93.5t-82.5 35.5h-53v35h53
q55 0 85 -24t40 -71h3q10 47 43.5 73.5t81.5 26.5q68 0 105.5 -43.5t37.5 -122.5v-370q0 -75 -22 -132t-69.5 -89.5t-123.5 -32.5zM418 656v-34h-263v34h263z" />
    <glyph glyph-name="uni10E3_uni0304_uni0308.ccmp" horiz-adv-x="580" 
d="M282 -250q-104 0 -163.5 58.5t-59.5 168.5q0 33 6 57t14 42h37q-8 -19 -13 -43.5t-5 -53.5q0 -95 49 -144.5t135 -49.5q63 0 102 28.5t57 78t18 112.5v367q0 62 -26.5 98t-81.5 36q-51 0 -78.5 -37.5t-27.5 -96.5v-127h-37v127q0 58 -24.5 93.5t-82.5 35.5h-53v35h53
q55 0 85 -24t40 -71h3q10 47 43.5 73.5t81.5 26.5q68 0 105.5 -43.5t37.5 -122.5v-370q0 -75 -22 -132t-69.5 -89.5t-123.5 -32.5zM418 656v-34h-263v34h263zM165 785q0 15 6.5 25t21.5 10q17 0 23 -10t6 -25t-6 -24.5t-23 -9.5q-15 0 -21.5 9.5t-6.5 24.5zM351 785
q0 15 6.5 25t20.5 10q17 0 23.5 -10t6.5 -25t-6.5 -24.5t-23.5 -9.5q-14 0 -20.5 9.5t-6.5 24.5z" />
    <glyph glyph-name="uni10F7_acutecomb.ccmp" horiz-adv-x="527" 
d="M259 -250q-93 0 -149.5 53.5t-56.5 146.5q0 65 24 110t66.5 77.5t99.5 59.5q52 24 89.5 48.5t57.5 55.5t20 76q0 60 -36.5 94t-110.5 34q-76 0 -114 -36t-38 -92q0 -7 1 -16.5t2 -15.5h-39q-1 6 -2 16t-1 17q0 71 49.5 116.5t141.5 45.5q91 0 139 -43.5t48 -119.5
q0 -54 -21.5 -90.5t-64.5 -65t-106 -58.5q-50 -23 -87 -51.5t-57.5 -67t-20.5 -93.5q0 -76 45 -121t121 -45q83 0 129 43.5t46 122.5q0 28 -3 44t-8 29h41q4 -12 7 -28.5t3 -44.5q0 -99 -58 -150t-157 -51zM370 766v-8q-16 -21 -40.5 -48.5t-52.5 -55t-54 -48.5h-28v7
q21 20 46 47.5t47.5 55.5t36.5 50h45z" />
    <glyph glyph-name="uni10F7_uni0304.ccmp" horiz-adv-x="527" 
d="M259 -250q-93 0 -149.5 53.5t-56.5 146.5q0 65 24 110t66.5 77.5t99.5 59.5q52 24 89.5 48.5t57.5 55.5t20 76q0 60 -36.5 94t-110.5 34q-76 0 -114 -36t-38 -92q0 -7 1 -16.5t2 -15.5h-39q-1 6 -2 16t-1 17q0 71 49.5 116.5t141.5 45.5q91 0 139 -43.5t48 -119.5
q0 -54 -21.5 -90.5t-64.5 -65t-106 -58.5q-50 -23 -87 -51.5t-57.5 -67t-20.5 -93.5q0 -76 45 -121t121 -45q83 0 129 43.5t46 122.5q0 28 -3 44t-8 29h41q4 -12 7 -28.5t3 -44.5q0 -99 -58 -150t-157 -51zM394 656v-34h-263v34h263z" />
    </font>
</defs>
</svg>
